G75*
%MOIN*%
%OFA0B0*%
%FSLAX25Y25*%
%IPPOS*%
%LPD*%
%AMOC8*
5,1,8,0,0,1.08239X$1,22.5*
%
%ADD10C,0.13198*%
%ADD11R,0.04537X0.04931*%
%ADD12R,0.04931X0.04537*%
%ADD13R,0.08277X0.08277*%
%ADD14C,0.08277*%
%ADD15R,0.02962X0.06506*%
%ADD16R,0.05718X0.06506*%
%ADD17C,0.04169*%
D10*
X0016435Y0012375D03*
X0127685Y0012375D03*
X0127685Y0077375D03*
X0016435Y0077375D03*
D11*
X0029339Y0071750D03*
X0036031Y0071750D03*
X0060185Y0073221D03*
X0060185Y0066529D03*
X0071839Y0066125D03*
X0078531Y0066125D03*
X0084339Y0066125D03*
X0091031Y0066125D03*
X0100185Y0056971D03*
X0100185Y0050279D03*
X0086435Y0046971D03*
X0086435Y0040279D03*
X0100185Y0040721D03*
X0100185Y0034029D03*
X0086031Y0026125D03*
X0079339Y0026125D03*
X0068531Y0026125D03*
X0061839Y0026125D03*
X0054781Y0026125D03*
X0048089Y0026125D03*
X0036031Y0019250D03*
X0029339Y0019250D03*
X0048089Y0017375D03*
X0054781Y0017375D03*
X0039560Y0036529D03*
X0039560Y0043221D03*
X0116839Y0041125D03*
X0123531Y0041125D03*
X0123531Y0049875D03*
X0116839Y0049875D03*
X0116839Y0058625D03*
X0123531Y0058625D03*
X0123531Y0032375D03*
X0116839Y0032375D03*
D12*
X0113531Y0022375D03*
X0106839Y0022375D03*
X0082685Y0018221D03*
X0082685Y0011529D03*
X0068531Y0017375D03*
X0061839Y0017375D03*
X0036031Y0010500D03*
X0029339Y0010500D03*
X0053935Y0034029D03*
X0053935Y0040721D03*
X0053935Y0050279D03*
X0045185Y0050279D03*
X0045185Y0056971D03*
X0053935Y0056971D03*
X0051435Y0066529D03*
X0051435Y0073221D03*
X0036031Y0080500D03*
X0029339Y0080500D03*
X0071839Y0074875D03*
X0078531Y0074875D03*
X0106839Y0067375D03*
X0113531Y0067375D03*
D13*
X0022685Y0029875D03*
D14*
X0022685Y0039875D03*
X0022685Y0049875D03*
X0022685Y0059875D03*
D15*
X0063935Y0056952D03*
X0068935Y0056952D03*
X0073935Y0056952D03*
X0078935Y0056952D03*
X0078935Y0035298D03*
X0073935Y0035298D03*
X0068935Y0035298D03*
X0063935Y0035298D03*
D16*
X0092070Y0016125D03*
X0099550Y0016125D03*
D17*
X0105185Y0016125D03*
X0105185Y0012375D03*
X0113310Y0016125D03*
X0117685Y0016125D03*
X0118935Y0025500D03*
X0123310Y0025500D03*
X0110185Y0028625D03*
X0107685Y0032375D03*
X0103935Y0028625D03*
X0100185Y0028625D03*
X0096435Y0028625D03*
X0091435Y0029875D03*
X0091435Y0026125D03*
X0090185Y0034875D03*
X0086435Y0034875D03*
X0082685Y0034875D03*
X0092685Y0043000D03*
X0092685Y0047375D03*
X0107685Y0049875D03*
X0107685Y0055500D03*
X0107685Y0061125D03*
X0100185Y0062375D03*
X0096435Y0062375D03*
X0090810Y0059875D03*
X0087060Y0059875D03*
X0067060Y0066125D03*
X0067060Y0070500D03*
X0067060Y0074875D03*
X0067060Y0079250D03*
X0060185Y0078000D03*
X0056435Y0078000D03*
X0051435Y0078000D03*
X0047060Y0078000D03*
X0041435Y0076125D03*
X0041435Y0080500D03*
X0055810Y0061750D03*
X0060185Y0061750D03*
X0083310Y0074875D03*
X0083310Y0078625D03*
X0118310Y0071125D03*
X0118310Y0067375D03*
X0123310Y0064875D03*
X0127685Y0064875D03*
X0132060Y0065500D03*
X0132060Y0061125D03*
X0130810Y0043625D03*
X0107685Y0041125D03*
X0107685Y0036750D03*
X0073935Y0017375D03*
X0073935Y0013625D03*
X0066435Y0011125D03*
X0062060Y0011125D03*
X0054560Y0011125D03*
X0050185Y0011125D03*
X0041435Y0010500D03*
X0041435Y0014875D03*
X0039560Y0031750D03*
X0035810Y0031750D03*
X0016435Y0039875D03*
X0016435Y0049875D03*
X0035185Y0048000D03*
X0039560Y0048000D03*
X0088935Y0009875D03*
X0093310Y0009875D03*
M02*
