G75*
%MOIN*%
%OFA0B0*%
%FSLAX25Y25*%
%IPPOS*%
%LPD*%
%AMOC8*
5,1,8,0,0,1.08239X$1,22.5*
%
%ADD10C,0.07677*%
%ADD11C,0.03569*%
%ADD12C,0.01600*%
D10*
X0022685Y0029875D03*
X0022685Y0039875D03*
X0022685Y0049875D03*
X0022685Y0059875D03*
D11*
X0016435Y0049875D03*
X0016435Y0039875D03*
X0035185Y0048000D03*
X0039560Y0048000D03*
X0055810Y0061750D03*
X0060185Y0061750D03*
X0067060Y0066125D03*
X0067060Y0070500D03*
X0067060Y0074875D03*
X0067060Y0079250D03*
X0060185Y0078000D03*
X0056435Y0078000D03*
X0051435Y0078000D03*
X0047060Y0078000D03*
X0041435Y0076125D03*
X0041435Y0080500D03*
X0083310Y0078625D03*
X0083310Y0074875D03*
X0096435Y0062375D03*
X0100185Y0062375D03*
X0107685Y0061125D03*
X0107685Y0055500D03*
X0107685Y0049875D03*
X0107685Y0041125D03*
X0107685Y0036750D03*
X0107685Y0032375D03*
X0110185Y0028625D03*
X0103935Y0028625D03*
X0100185Y0028625D03*
X0096435Y0028625D03*
X0091435Y0029875D03*
X0091435Y0026125D03*
X0090185Y0034875D03*
X0086435Y0034875D03*
X0082685Y0034875D03*
X0092685Y0043000D03*
X0092685Y0047375D03*
X0090810Y0059875D03*
X0087060Y0059875D03*
X0118310Y0067375D03*
X0123310Y0064875D03*
X0127685Y0064875D03*
X0132060Y0065500D03*
X0132060Y0061125D03*
X0118310Y0071125D03*
X0130810Y0043625D03*
X0123310Y0025500D03*
X0118935Y0025500D03*
X0117685Y0016125D03*
X0113310Y0016125D03*
X0105185Y0016125D03*
X0105185Y0012375D03*
X0093310Y0009875D03*
X0088935Y0009875D03*
X0073935Y0013625D03*
X0073935Y0017375D03*
X0066435Y0011125D03*
X0062060Y0011125D03*
X0054560Y0011125D03*
X0050185Y0011125D03*
X0041435Y0010500D03*
X0041435Y0014875D03*
X0039560Y0031750D03*
X0035810Y0031750D03*
D12*
X0024149Y0007221D02*
X0022103Y0005175D01*
X0122017Y0005175D01*
X0119971Y0007221D01*
X0118586Y0010565D01*
X0118586Y0013052D01*
X0118318Y0012941D01*
X0117052Y0012941D01*
X0115881Y0013426D01*
X0115498Y0013809D01*
X0115114Y0013426D01*
X0113943Y0012941D01*
X0112677Y0012941D01*
X0111506Y0013426D01*
X0110611Y0014321D01*
X0110126Y0015492D01*
X0110126Y0016758D01*
X0110611Y0017929D01*
X0111506Y0018824D01*
X0112677Y0019309D01*
X0113943Y0019309D01*
X0115114Y0018824D01*
X0115498Y0018441D01*
X0115881Y0018824D01*
X0117052Y0019309D01*
X0118318Y0019309D01*
X0119489Y0018824D01*
X0120378Y0017936D01*
X0122531Y0020089D01*
X0125875Y0021474D01*
X0129495Y0021474D01*
X0132839Y0020089D01*
X0134885Y0018043D01*
X0134885Y0059624D01*
X0134760Y0059321D01*
X0133864Y0058426D01*
X0132693Y0057941D01*
X0131427Y0057941D01*
X0130256Y0058426D01*
X0129361Y0059321D01*
X0128876Y0060492D01*
X0128876Y0061758D01*
X0128957Y0061955D01*
X0128318Y0061691D01*
X0127052Y0061691D01*
X0125881Y0062176D01*
X0124986Y0063071D01*
X0124501Y0064242D01*
X0124501Y0065508D01*
X0124986Y0066679D01*
X0125881Y0067574D01*
X0127052Y0068059D01*
X0128318Y0068059D01*
X0129489Y0067574D01*
X0129560Y0067503D01*
X0130256Y0068199D01*
X0131427Y0068684D01*
X0132693Y0068684D01*
X0133864Y0068199D01*
X0134760Y0067304D01*
X0134885Y0067001D01*
X0134885Y0071707D01*
X0132839Y0069661D01*
X0129495Y0068276D01*
X0125875Y0068276D01*
X0122531Y0069661D01*
X0121494Y0070698D01*
X0121494Y0070492D01*
X0121010Y0069321D01*
X0120938Y0069250D01*
X0121010Y0069179D01*
X0121494Y0068008D01*
X0121494Y0066742D01*
X0121010Y0065571D01*
X0120114Y0064676D01*
X0118943Y0064191D01*
X0117677Y0064191D01*
X0116506Y0064676D01*
X0115611Y0065571D01*
X0115126Y0066742D01*
X0115126Y0068008D01*
X0115611Y0069179D01*
X0115682Y0069250D01*
X0115611Y0069321D01*
X0115126Y0070492D01*
X0115126Y0071758D01*
X0115611Y0072929D01*
X0116506Y0073824D01*
X0117677Y0074309D01*
X0118943Y0074309D01*
X0119140Y0074228D01*
X0118586Y0075565D01*
X0118586Y0079185D01*
X0119971Y0082529D01*
X0122017Y0084575D01*
X0022103Y0084575D01*
X0024149Y0082529D01*
X0025534Y0079185D01*
X0025534Y0075565D01*
X0024149Y0072221D01*
X0021589Y0069661D01*
X0018245Y0068276D01*
X0014625Y0068276D01*
X0011281Y0069661D01*
X0009235Y0071707D01*
X0009235Y0018043D01*
X0011281Y0020089D01*
X0014625Y0021474D01*
X0018245Y0021474D01*
X0021589Y0020089D01*
X0024149Y0017529D01*
X0025534Y0014185D01*
X0025534Y0010565D01*
X0024149Y0007221D01*
X0024099Y0007171D02*
X0091518Y0007171D01*
X0091506Y0007176D02*
X0092677Y0006691D01*
X0093943Y0006691D01*
X0095114Y0007176D01*
X0096010Y0008071D01*
X0096494Y0009242D01*
X0096494Y0010508D01*
X0096010Y0011679D01*
X0095114Y0012574D01*
X0093943Y0013059D01*
X0092677Y0013059D01*
X0091506Y0012574D01*
X0090611Y0011679D01*
X0090126Y0010508D01*
X0090126Y0009242D01*
X0090611Y0008071D01*
X0091506Y0007176D01*
X0090322Y0008769D02*
X0068582Y0008769D01*
X0068239Y0008426D02*
X0067068Y0007941D01*
X0065802Y0007941D01*
X0064631Y0008426D01*
X0063736Y0009321D01*
X0063251Y0010492D01*
X0063251Y0011758D01*
X0063736Y0012929D01*
X0064631Y0013824D01*
X0065802Y0014309D01*
X0067068Y0014309D01*
X0068239Y0013824D01*
X0069135Y0012929D01*
X0069619Y0011758D01*
X0069619Y0010492D01*
X0069135Y0009321D01*
X0068239Y0008426D01*
X0069568Y0010368D02*
X0090126Y0010368D01*
X0090898Y0011966D02*
X0076694Y0011966D01*
X0076635Y0011821D02*
X0077119Y0012992D01*
X0077119Y0014258D01*
X0076635Y0015429D01*
X0076563Y0015500D01*
X0076635Y0015571D01*
X0077119Y0016742D01*
X0077119Y0018008D01*
X0076635Y0019179D01*
X0075739Y0020074D01*
X0074568Y0020559D01*
X0073302Y0020559D01*
X0072131Y0020074D01*
X0071236Y0019179D01*
X0070751Y0018008D01*
X0070751Y0016742D01*
X0071236Y0015571D01*
X0071307Y0015500D01*
X0071236Y0015429D01*
X0070751Y0014258D01*
X0070751Y0012992D01*
X0071236Y0011821D01*
X0072131Y0010926D01*
X0073302Y0010441D01*
X0074568Y0010441D01*
X0075739Y0010926D01*
X0076635Y0011821D01*
X0077119Y0013565D02*
X0102231Y0013565D01*
X0102001Y0013008D02*
X0102486Y0014179D01*
X0102557Y0014250D01*
X0102486Y0014321D01*
X0102001Y0015492D01*
X0102001Y0016758D01*
X0102486Y0017929D01*
X0103381Y0018824D01*
X0104552Y0019309D01*
X0105818Y0019309D01*
X0106989Y0018824D01*
X0107885Y0017929D01*
X0108369Y0016758D01*
X0108369Y0015492D01*
X0107885Y0014321D01*
X0107813Y0014250D01*
X0107885Y0014179D01*
X0108369Y0013008D01*
X0108369Y0011742D01*
X0107885Y0010571D01*
X0106989Y0009676D01*
X0105818Y0009191D01*
X0104552Y0009191D01*
X0103381Y0009676D01*
X0102486Y0010571D01*
X0102001Y0011742D01*
X0102001Y0013008D01*
X0102001Y0011966D02*
X0095722Y0011966D01*
X0096494Y0010368D02*
X0102689Y0010368D01*
X0107681Y0010368D02*
X0118668Y0010368D01*
X0118586Y0011966D02*
X0108369Y0011966D01*
X0108139Y0013565D02*
X0111367Y0013565D01*
X0110262Y0015163D02*
X0108233Y0015163D01*
X0108368Y0016762D02*
X0110127Y0016762D01*
X0111042Y0018360D02*
X0107453Y0018360D01*
X0102917Y0018360D02*
X0076974Y0018360D01*
X0077119Y0016762D02*
X0102002Y0016762D01*
X0102137Y0015163D02*
X0076745Y0015163D01*
X0071126Y0015163D02*
X0044619Y0015163D01*
X0044619Y0015508D02*
X0044135Y0016679D01*
X0043239Y0017574D01*
X0042068Y0018059D01*
X0040802Y0018059D01*
X0039631Y0017574D01*
X0038736Y0016679D01*
X0038251Y0015508D01*
X0038251Y0014242D01*
X0038736Y0013071D01*
X0039119Y0012687D01*
X0038736Y0012304D01*
X0038251Y0011133D01*
X0038251Y0009867D01*
X0038736Y0008696D01*
X0039631Y0007801D01*
X0040802Y0007316D01*
X0042068Y0007316D01*
X0043239Y0007801D01*
X0044135Y0008696D01*
X0044619Y0009867D01*
X0044619Y0011133D01*
X0044135Y0012304D01*
X0043751Y0012687D01*
X0044135Y0013071D01*
X0044619Y0014242D01*
X0044619Y0015508D01*
X0044052Y0016762D02*
X0070751Y0016762D01*
X0070896Y0018360D02*
X0023318Y0018360D01*
X0024467Y0016762D02*
X0038818Y0016762D01*
X0038251Y0015163D02*
X0025129Y0015163D01*
X0025534Y0013565D02*
X0038531Y0013565D01*
X0038596Y0011966D02*
X0025534Y0011966D01*
X0025452Y0010368D02*
X0038251Y0010368D01*
X0038705Y0008769D02*
X0024790Y0008769D01*
X0022500Y0005572D02*
X0121620Y0005572D01*
X0120021Y0007171D02*
X0095102Y0007171D01*
X0096299Y0008769D02*
X0119330Y0008769D01*
X0115742Y0013565D02*
X0115253Y0013565D01*
X0119953Y0018360D02*
X0120802Y0018360D01*
X0122400Y0019959D02*
X0075855Y0019959D01*
X0072015Y0019959D02*
X0021720Y0019959D01*
X0022205Y0024242D02*
X0022205Y0029395D01*
X0023165Y0029395D01*
X0023165Y0030355D01*
X0028318Y0030355D01*
X0028185Y0031195D01*
X0027911Y0032039D01*
X0027508Y0032830D01*
X0026986Y0033548D01*
X0026358Y0034176D01*
X0025640Y0034698D01*
X0024849Y0035100D01*
X0024848Y0035101D01*
X0025652Y0035434D01*
X0027126Y0036908D01*
X0027924Y0038833D01*
X0027924Y0040917D01*
X0027126Y0042842D01*
X0025652Y0044316D01*
X0024303Y0044875D01*
X0025652Y0045434D01*
X0027126Y0046908D01*
X0027924Y0048833D01*
X0027924Y0050917D01*
X0027126Y0052842D01*
X0025652Y0054316D01*
X0024303Y0054875D01*
X0025652Y0055434D01*
X0027126Y0056908D01*
X0027924Y0058833D01*
X0027924Y0060917D01*
X0027126Y0062842D01*
X0025652Y0064316D01*
X0023727Y0065114D01*
X0021643Y0065114D01*
X0019718Y0064316D01*
X0018244Y0062842D01*
X0017446Y0060917D01*
X0017446Y0058833D01*
X0018244Y0056908D01*
X0019718Y0055434D01*
X0021067Y0054875D01*
X0019718Y0054316D01*
X0018244Y0052842D01*
X0018148Y0052612D01*
X0017068Y0053059D01*
X0015802Y0053059D01*
X0014631Y0052574D01*
X0013736Y0051679D01*
X0013251Y0050508D01*
X0013251Y0049242D01*
X0013736Y0048071D01*
X0014631Y0047176D01*
X0015802Y0046691D01*
X0017068Y0046691D01*
X0018148Y0047138D01*
X0018244Y0046908D01*
X0019718Y0045434D01*
X0021067Y0044875D01*
X0019718Y0044316D01*
X0018244Y0042842D01*
X0018148Y0042612D01*
X0017068Y0043059D01*
X0015802Y0043059D01*
X0014631Y0042574D01*
X0013736Y0041679D01*
X0013251Y0040508D01*
X0013251Y0039242D01*
X0013736Y0038071D01*
X0014631Y0037176D01*
X0015802Y0036691D01*
X0017068Y0036691D01*
X0018148Y0037138D01*
X0018244Y0036908D01*
X0019718Y0035434D01*
X0020522Y0035101D01*
X0020521Y0035100D01*
X0019730Y0034698D01*
X0019012Y0034176D01*
X0018384Y0033548D01*
X0017862Y0032830D01*
X0017460Y0032039D01*
X0017185Y0031195D01*
X0017052Y0030355D01*
X0022205Y0030355D01*
X0022205Y0029395D01*
X0017052Y0029395D01*
X0017185Y0028555D01*
X0017460Y0027711D01*
X0017862Y0026920D01*
X0018384Y0026202D01*
X0019012Y0025574D01*
X0019730Y0025052D01*
X0020521Y0024650D01*
X0021365Y0024375D01*
X0022205Y0024242D01*
X0022205Y0024754D02*
X0023165Y0024754D01*
X0023165Y0024242D02*
X0024005Y0024375D01*
X0024849Y0024650D01*
X0025640Y0025052D01*
X0026358Y0025574D01*
X0026986Y0026202D01*
X0027508Y0026920D01*
X0027911Y0027711D01*
X0028185Y0028555D01*
X0028318Y0029395D01*
X0023165Y0029395D01*
X0023165Y0024242D01*
X0025055Y0024754D02*
X0088556Y0024754D01*
X0088736Y0024321D02*
X0089631Y0023426D01*
X0090802Y0022941D01*
X0092068Y0022941D01*
X0093239Y0023426D01*
X0094135Y0024321D01*
X0094619Y0025492D01*
X0094619Y0025938D01*
X0094631Y0025926D01*
X0095802Y0025441D01*
X0097068Y0025441D01*
X0098239Y0025926D01*
X0098310Y0025997D01*
X0098381Y0025926D01*
X0099552Y0025441D01*
X0100818Y0025441D01*
X0101989Y0025926D01*
X0102060Y0025997D01*
X0102131Y0025926D01*
X0103302Y0025441D01*
X0104568Y0025441D01*
X0105739Y0025926D01*
X0106635Y0026821D01*
X0107060Y0027849D01*
X0107486Y0026821D01*
X0108381Y0025926D01*
X0109552Y0025441D01*
X0110818Y0025441D01*
X0111989Y0025926D01*
X0112885Y0026821D01*
X0113369Y0027992D01*
X0113369Y0029258D01*
X0112885Y0030429D01*
X0111989Y0031324D01*
X0110869Y0031788D01*
X0110869Y0033008D01*
X0110385Y0034179D01*
X0110001Y0034562D01*
X0110385Y0034946D01*
X0110869Y0036117D01*
X0110869Y0037383D01*
X0110385Y0038554D01*
X0110001Y0038937D01*
X0110385Y0039321D01*
X0110869Y0040492D01*
X0110869Y0041758D01*
X0110385Y0042929D01*
X0109489Y0043824D01*
X0108318Y0044309D01*
X0107052Y0044309D01*
X0105881Y0043824D01*
X0104986Y0042929D01*
X0104501Y0041758D01*
X0104501Y0040492D01*
X0104986Y0039321D01*
X0105369Y0038937D01*
X0104986Y0038554D01*
X0104501Y0037383D01*
X0104501Y0036117D01*
X0104986Y0034946D01*
X0105369Y0034562D01*
X0104986Y0034179D01*
X0104501Y0033008D01*
X0104501Y0031809D01*
X0103302Y0031809D01*
X0102131Y0031324D01*
X0102060Y0031253D01*
X0101989Y0031324D01*
X0100818Y0031809D01*
X0099552Y0031809D01*
X0098381Y0031324D01*
X0098310Y0031253D01*
X0098239Y0031324D01*
X0097068Y0031809D01*
X0095802Y0031809D01*
X0094631Y0031324D01*
X0094384Y0031077D01*
X0094135Y0031679D01*
X0093239Y0032574D01*
X0092637Y0032824D01*
X0092885Y0033071D01*
X0093369Y0034242D01*
X0093369Y0035508D01*
X0092885Y0036679D01*
X0091989Y0037574D01*
X0090818Y0038059D01*
X0089552Y0038059D01*
X0088381Y0037574D01*
X0088310Y0037503D01*
X0088239Y0037574D01*
X0087068Y0038059D01*
X0085802Y0038059D01*
X0084631Y0037574D01*
X0084560Y0037503D01*
X0084489Y0037574D01*
X0083318Y0038059D01*
X0082052Y0038059D01*
X0080881Y0037574D01*
X0079986Y0036679D01*
X0079501Y0035508D01*
X0079501Y0034242D01*
X0079986Y0033071D01*
X0080881Y0032176D01*
X0082052Y0031691D01*
X0083318Y0031691D01*
X0084489Y0032176D01*
X0084560Y0032247D01*
X0084631Y0032176D01*
X0085802Y0031691D01*
X0087068Y0031691D01*
X0088239Y0032176D01*
X0088310Y0032247D01*
X0088381Y0032176D01*
X0088983Y0031926D01*
X0088736Y0031679D01*
X0088251Y0030508D01*
X0088251Y0029242D01*
X0088736Y0028071D01*
X0088807Y0028000D01*
X0088736Y0027929D01*
X0088251Y0026758D01*
X0088251Y0025492D01*
X0088736Y0024321D01*
X0090283Y0023156D02*
X0009235Y0023156D01*
X0009235Y0021557D02*
X0134885Y0021557D01*
X0134885Y0023156D02*
X0121094Y0023156D01*
X0120739Y0022801D02*
X0121635Y0023696D01*
X0122119Y0024867D01*
X0122119Y0026133D01*
X0121635Y0027304D01*
X0120739Y0028199D01*
X0119568Y0028684D01*
X0118302Y0028684D01*
X0117131Y0028199D01*
X0116236Y0027304D01*
X0115751Y0026133D01*
X0115751Y0024867D01*
X0116236Y0023696D01*
X0117131Y0022801D01*
X0118302Y0022316D01*
X0119568Y0022316D01*
X0120739Y0022801D01*
X0122073Y0024754D02*
X0134885Y0024754D01*
X0134885Y0026353D02*
X0122028Y0026353D01*
X0120987Y0027951D02*
X0134885Y0027951D01*
X0134885Y0029550D02*
X0113249Y0029550D01*
X0112165Y0031148D02*
X0134885Y0031148D01*
X0134885Y0032747D02*
X0110869Y0032747D01*
X0110218Y0034345D02*
X0134885Y0034345D01*
X0134885Y0035944D02*
X0110798Y0035944D01*
X0110803Y0037542D02*
X0134885Y0037542D01*
X0134885Y0039141D02*
X0110204Y0039141D01*
X0110869Y0040739D02*
X0129456Y0040739D01*
X0129006Y0040926D02*
X0130177Y0040441D01*
X0131443Y0040441D01*
X0132614Y0040926D01*
X0133510Y0041821D01*
X0133994Y0042992D01*
X0133994Y0044258D01*
X0133510Y0045429D01*
X0132614Y0046324D01*
X0131443Y0046809D01*
X0130177Y0046809D01*
X0129006Y0046324D01*
X0128111Y0045429D01*
X0127626Y0044258D01*
X0127626Y0042992D01*
X0128111Y0041821D01*
X0129006Y0040926D01*
X0127897Y0042338D02*
X0110629Y0042338D01*
X0109219Y0043936D02*
X0127626Y0043936D01*
X0128217Y0045535D02*
X0094653Y0045535D01*
X0094489Y0045699D02*
X0093318Y0046184D01*
X0092052Y0046184D01*
X0090881Y0045699D01*
X0089986Y0044804D01*
X0089501Y0043633D01*
X0089501Y0042367D01*
X0089986Y0041196D01*
X0090881Y0040301D01*
X0092052Y0039816D01*
X0093318Y0039816D01*
X0094489Y0040301D01*
X0095385Y0041196D01*
X0095869Y0042367D01*
X0095869Y0043633D01*
X0095385Y0044804D01*
X0094489Y0045699D01*
X0095744Y0043936D02*
X0106151Y0043936D01*
X0104741Y0042338D02*
X0095857Y0042338D01*
X0094928Y0040739D02*
X0104501Y0040739D01*
X0105166Y0039141D02*
X0027924Y0039141D01*
X0027389Y0037542D02*
X0080849Y0037542D01*
X0079681Y0035944D02*
X0026162Y0035944D01*
X0026125Y0034345D02*
X0033902Y0034345D01*
X0034006Y0034449D02*
X0033111Y0033554D01*
X0032626Y0032383D01*
X0032626Y0031117D01*
X0033111Y0029946D01*
X0034006Y0029051D01*
X0035177Y0028566D01*
X0036443Y0028566D01*
X0037614Y0029051D01*
X0037685Y0029122D01*
X0037756Y0029051D01*
X0038927Y0028566D01*
X0040193Y0028566D01*
X0041364Y0029051D01*
X0042260Y0029946D01*
X0042744Y0031117D01*
X0042744Y0032383D01*
X0042260Y0033554D01*
X0041364Y0034449D01*
X0040193Y0034934D01*
X0038927Y0034934D01*
X0037756Y0034449D01*
X0037685Y0034378D01*
X0037614Y0034449D01*
X0036443Y0034934D01*
X0035177Y0034934D01*
X0034006Y0034449D01*
X0032776Y0032747D02*
X0027550Y0032747D01*
X0028192Y0031148D02*
X0032626Y0031148D01*
X0033507Y0029550D02*
X0023165Y0029550D01*
X0022205Y0029550D02*
X0009235Y0029550D01*
X0009235Y0031148D02*
X0017178Y0031148D01*
X0017820Y0032747D02*
X0009235Y0032747D01*
X0009235Y0034345D02*
X0019245Y0034345D01*
X0019208Y0035944D02*
X0009235Y0035944D01*
X0009235Y0037542D02*
X0014265Y0037542D01*
X0013293Y0039141D02*
X0009235Y0039141D01*
X0009235Y0040739D02*
X0013346Y0040739D01*
X0014395Y0042338D02*
X0009235Y0042338D01*
X0009235Y0043936D02*
X0019338Y0043936D01*
X0019617Y0045535D02*
X0009235Y0045535D01*
X0009235Y0047133D02*
X0014733Y0047133D01*
X0013462Y0048732D02*
X0009235Y0048732D01*
X0009235Y0050330D02*
X0013251Y0050330D01*
X0013986Y0051929D02*
X0009235Y0051929D01*
X0009235Y0053527D02*
X0018929Y0053527D01*
X0020461Y0055126D02*
X0009235Y0055126D01*
X0009235Y0056724D02*
X0018427Y0056724D01*
X0017658Y0058323D02*
X0009235Y0058323D01*
X0009235Y0059921D02*
X0017446Y0059921D01*
X0017696Y0061520D02*
X0009235Y0061520D01*
X0009235Y0063118D02*
X0018520Y0063118D01*
X0020685Y0064717D02*
X0009235Y0064717D01*
X0009235Y0066315D02*
X0115302Y0066315D01*
X0115126Y0067914D02*
X0068977Y0067914D01*
X0068864Y0067801D02*
X0069760Y0068696D01*
X0070244Y0069867D01*
X0070244Y0071133D01*
X0069760Y0072304D01*
X0068864Y0073199D01*
X0067693Y0073684D01*
X0066427Y0073684D01*
X0065256Y0073199D01*
X0064361Y0072304D01*
X0063876Y0071133D01*
X0063876Y0069867D01*
X0064361Y0068696D01*
X0065256Y0067801D01*
X0066427Y0067316D01*
X0067693Y0067316D01*
X0068864Y0067801D01*
X0070098Y0069512D02*
X0115531Y0069512D01*
X0115126Y0071111D02*
X0070244Y0071111D01*
X0069354Y0072709D02*
X0080972Y0072709D01*
X0080611Y0073071D02*
X0081506Y0072176D01*
X0082677Y0071691D01*
X0083943Y0071691D01*
X0085114Y0072176D01*
X0086010Y0073071D01*
X0086494Y0074242D01*
X0086494Y0075508D01*
X0086010Y0076679D01*
X0085938Y0076750D01*
X0086010Y0076821D01*
X0086494Y0077992D01*
X0086494Y0079258D01*
X0086010Y0080429D01*
X0085114Y0081324D01*
X0083943Y0081809D01*
X0082677Y0081809D01*
X0081506Y0081324D01*
X0080611Y0080429D01*
X0080126Y0079258D01*
X0080126Y0077992D01*
X0080611Y0076821D01*
X0080682Y0076750D01*
X0080611Y0076679D01*
X0080126Y0075508D01*
X0080126Y0074242D01*
X0080611Y0073071D01*
X0080126Y0074308D02*
X0044121Y0074308D01*
X0044135Y0074321D02*
X0044619Y0075492D01*
X0044619Y0075938D01*
X0045256Y0075301D01*
X0046427Y0074816D01*
X0047693Y0074816D01*
X0048864Y0075301D01*
X0049760Y0076196D01*
X0050244Y0077367D01*
X0050244Y0078633D01*
X0049760Y0079804D01*
X0048864Y0080699D01*
X0047693Y0081184D01*
X0046427Y0081184D01*
X0045256Y0080699D01*
X0044619Y0080062D01*
X0044619Y0081133D01*
X0044135Y0082304D01*
X0043239Y0083199D01*
X0042068Y0083684D01*
X0040802Y0083684D01*
X0039631Y0083199D01*
X0038736Y0082304D01*
X0038251Y0081133D01*
X0038251Y0079867D01*
X0038736Y0078696D01*
X0039119Y0078313D01*
X0038736Y0077929D01*
X0038251Y0076758D01*
X0038251Y0075492D01*
X0038736Y0074321D01*
X0039631Y0073426D01*
X0040802Y0072941D01*
X0042068Y0072941D01*
X0043239Y0073426D01*
X0044135Y0074321D01*
X0044619Y0075907D02*
X0044650Y0075907D01*
X0049470Y0075907D02*
X0054025Y0075907D01*
X0053736Y0076196D02*
X0054631Y0075301D01*
X0055802Y0074816D01*
X0057068Y0074816D01*
X0058239Y0075301D01*
X0058310Y0075372D01*
X0058381Y0075301D01*
X0059552Y0074816D01*
X0060818Y0074816D01*
X0061989Y0075301D01*
X0062885Y0076196D01*
X0063369Y0077367D01*
X0063369Y0078633D01*
X0062885Y0079804D01*
X0061989Y0080699D01*
X0060818Y0081184D01*
X0059552Y0081184D01*
X0058381Y0080699D01*
X0058310Y0080628D01*
X0058239Y0080699D01*
X0057068Y0081184D01*
X0055802Y0081184D01*
X0054631Y0080699D01*
X0053736Y0079804D01*
X0053251Y0078633D01*
X0053251Y0077367D01*
X0053736Y0076196D01*
X0053251Y0077505D02*
X0050244Y0077505D01*
X0050050Y0079104D02*
X0053446Y0079104D01*
X0054638Y0080702D02*
X0048858Y0080702D01*
X0045263Y0080702D02*
X0044619Y0080702D01*
X0044136Y0082301D02*
X0066104Y0082301D01*
X0066427Y0082434D02*
X0065256Y0081949D01*
X0064361Y0081054D01*
X0063876Y0079883D01*
X0063876Y0078617D01*
X0064361Y0077446D01*
X0065256Y0076551D01*
X0066427Y0076066D01*
X0067693Y0076066D01*
X0068864Y0076551D01*
X0069760Y0077446D01*
X0070244Y0078617D01*
X0070244Y0079883D01*
X0069760Y0081054D01*
X0068864Y0081949D01*
X0067693Y0082434D01*
X0066427Y0082434D01*
X0068016Y0082301D02*
X0119876Y0082301D01*
X0119214Y0080702D02*
X0085736Y0080702D01*
X0086494Y0079104D02*
X0118586Y0079104D01*
X0118586Y0077505D02*
X0086293Y0077505D01*
X0086329Y0075907D02*
X0118586Y0075907D01*
X0118946Y0074308D02*
X0119107Y0074308D01*
X0117674Y0074308D02*
X0086494Y0074308D01*
X0085648Y0072709D02*
X0115520Y0072709D01*
X0121089Y0069512D02*
X0122889Y0069512D01*
X0121494Y0067914D02*
X0126701Y0067914D01*
X0128669Y0067914D02*
X0129971Y0067914D01*
X0132481Y0069512D02*
X0134885Y0069512D01*
X0134885Y0067914D02*
X0134149Y0067914D01*
X0134289Y0071111D02*
X0134885Y0071111D01*
X0124835Y0066315D02*
X0121318Y0066315D01*
X0120155Y0064717D02*
X0124501Y0064717D01*
X0124966Y0063118D02*
X0110195Y0063118D01*
X0110385Y0062929D02*
X0109489Y0063824D01*
X0108318Y0064309D01*
X0107052Y0064309D01*
X0105881Y0063824D01*
X0104986Y0062929D01*
X0104501Y0061758D01*
X0104501Y0060492D01*
X0104986Y0059321D01*
X0105881Y0058426D01*
X0106154Y0058312D01*
X0105881Y0058199D01*
X0104986Y0057304D01*
X0104501Y0056133D01*
X0104501Y0054867D01*
X0104986Y0053696D01*
X0105881Y0052801D01*
X0106154Y0052687D01*
X0105881Y0052574D01*
X0104986Y0051679D01*
X0104501Y0050508D01*
X0104501Y0049242D01*
X0104986Y0048071D01*
X0105881Y0047176D01*
X0107052Y0046691D01*
X0108318Y0046691D01*
X0109489Y0047176D01*
X0110385Y0048071D01*
X0110869Y0049242D01*
X0110869Y0050508D01*
X0110385Y0051679D01*
X0109489Y0052574D01*
X0109216Y0052687D01*
X0109489Y0052801D01*
X0110385Y0053696D01*
X0110869Y0054867D01*
X0110869Y0056133D01*
X0110385Y0057304D01*
X0109489Y0058199D01*
X0109216Y0058312D01*
X0109489Y0058426D01*
X0110385Y0059321D01*
X0110869Y0060492D01*
X0110869Y0061758D01*
X0110385Y0062929D01*
X0110869Y0061520D02*
X0128876Y0061520D01*
X0129112Y0059921D02*
X0110633Y0059921D01*
X0109241Y0058323D02*
X0130504Y0058323D01*
X0133616Y0058323D02*
X0134885Y0058323D01*
X0134885Y0056724D02*
X0110624Y0056724D01*
X0110869Y0055126D02*
X0134885Y0055126D01*
X0134885Y0053527D02*
X0110216Y0053527D01*
X0110134Y0051929D02*
X0134885Y0051929D01*
X0134885Y0050330D02*
X0110869Y0050330D01*
X0110658Y0048732D02*
X0134885Y0048732D01*
X0134885Y0047133D02*
X0109387Y0047133D01*
X0105983Y0047133D02*
X0038273Y0047133D01*
X0038369Y0047367D02*
X0037885Y0046196D01*
X0036989Y0045301D01*
X0035818Y0044816D01*
X0034552Y0044816D01*
X0033381Y0045301D01*
X0032486Y0046196D01*
X0032001Y0047367D01*
X0032001Y0048633D01*
X0032486Y0049804D01*
X0033381Y0050699D01*
X0034552Y0051184D01*
X0035818Y0051184D01*
X0036989Y0050699D01*
X0037885Y0049804D01*
X0038369Y0048633D01*
X0038369Y0047367D01*
X0038329Y0048732D02*
X0104712Y0048732D01*
X0104501Y0050330D02*
X0037358Y0050330D01*
X0033012Y0050330D02*
X0027924Y0050330D01*
X0027882Y0048732D02*
X0032042Y0048732D01*
X0032097Y0047133D02*
X0027220Y0047133D01*
X0025753Y0045535D02*
X0033147Y0045535D01*
X0037223Y0045535D02*
X0090717Y0045535D01*
X0089626Y0043936D02*
X0026032Y0043936D01*
X0027335Y0042338D02*
X0089513Y0042338D01*
X0090443Y0040739D02*
X0027924Y0040739D01*
X0018150Y0047133D02*
X0018137Y0047133D01*
X0027505Y0051929D02*
X0105236Y0051929D01*
X0105154Y0053527D02*
X0026441Y0053527D01*
X0024909Y0055126D02*
X0104501Y0055126D01*
X0104746Y0056724D02*
X0091525Y0056724D01*
X0091443Y0056691D02*
X0092614Y0057176D01*
X0093510Y0058071D01*
X0093994Y0059242D01*
X0093994Y0060313D01*
X0094631Y0059676D01*
X0095802Y0059191D01*
X0097068Y0059191D01*
X0098239Y0059676D01*
X0098310Y0059747D01*
X0098381Y0059676D01*
X0099552Y0059191D01*
X0100818Y0059191D01*
X0101989Y0059676D01*
X0102885Y0060571D01*
X0103369Y0061742D01*
X0103369Y0063008D01*
X0102885Y0064179D01*
X0101989Y0065074D01*
X0100818Y0065559D01*
X0099552Y0065559D01*
X0098381Y0065074D01*
X0098310Y0065003D01*
X0098239Y0065074D01*
X0097068Y0065559D01*
X0095802Y0065559D01*
X0094631Y0065074D01*
X0093736Y0064179D01*
X0093251Y0063008D01*
X0093251Y0061937D01*
X0092614Y0062574D01*
X0091443Y0063059D01*
X0090177Y0063059D01*
X0089006Y0062574D01*
X0088935Y0062503D01*
X0088864Y0062574D01*
X0087693Y0063059D01*
X0086427Y0063059D01*
X0085256Y0062574D01*
X0084361Y0061679D01*
X0083876Y0060508D01*
X0083876Y0059242D01*
X0084361Y0058071D01*
X0085256Y0057176D01*
X0086427Y0056691D01*
X0087693Y0056691D01*
X0088864Y0057176D01*
X0088935Y0057247D01*
X0089006Y0057176D01*
X0090177Y0056691D01*
X0091443Y0056691D01*
X0090095Y0056724D02*
X0087775Y0056724D01*
X0086345Y0056724D02*
X0026943Y0056724D01*
X0027712Y0058323D02*
X0084256Y0058323D01*
X0083876Y0059921D02*
X0058485Y0059921D01*
X0058510Y0059946D02*
X0058994Y0061117D01*
X0058994Y0062383D01*
X0058510Y0063554D01*
X0057614Y0064449D01*
X0056443Y0064934D01*
X0055177Y0064934D01*
X0054006Y0064449D01*
X0053111Y0063554D01*
X0052626Y0062383D01*
X0052626Y0061117D01*
X0053111Y0059946D01*
X0054006Y0059051D01*
X0055177Y0058566D01*
X0056443Y0058566D01*
X0057614Y0059051D01*
X0058510Y0059946D01*
X0058994Y0061520D02*
X0084295Y0061520D01*
X0093296Y0063118D02*
X0058690Y0063118D01*
X0056968Y0064717D02*
X0094274Y0064717D01*
X0094385Y0059921D02*
X0093994Y0059921D01*
X0093614Y0058323D02*
X0106129Y0058323D01*
X0104737Y0059921D02*
X0102235Y0059921D01*
X0103277Y0061520D02*
X0104501Y0061520D01*
X0105175Y0063118D02*
X0103324Y0063118D01*
X0102346Y0064717D02*
X0116465Y0064717D01*
X0133403Y0045535D02*
X0134885Y0045535D01*
X0134885Y0043936D02*
X0133994Y0043936D01*
X0133723Y0042338D02*
X0134885Y0042338D01*
X0134885Y0040739D02*
X0132164Y0040739D01*
X0116883Y0027951D02*
X0113353Y0027951D01*
X0112416Y0026353D02*
X0115842Y0026353D01*
X0115797Y0024754D02*
X0094314Y0024754D01*
X0092587Y0023156D02*
X0116776Y0023156D01*
X0107954Y0026353D02*
X0106166Y0026353D01*
X0104501Y0032747D02*
X0092823Y0032747D01*
X0093369Y0034345D02*
X0105152Y0034345D01*
X0104572Y0035944D02*
X0093189Y0035944D01*
X0092021Y0037542D02*
X0104567Y0037542D01*
X0094455Y0031148D02*
X0094354Y0031148D01*
X0088516Y0031148D02*
X0042744Y0031148D01*
X0041863Y0029550D02*
X0088251Y0029550D01*
X0088758Y0027951D02*
X0027989Y0027951D01*
X0027096Y0026353D02*
X0088251Y0026353D01*
X0080310Y0032747D02*
X0042594Y0032747D01*
X0041468Y0034345D02*
X0079501Y0034345D01*
X0084521Y0037542D02*
X0084599Y0037542D01*
X0088271Y0037542D02*
X0088349Y0037542D01*
X0053135Y0059921D02*
X0027924Y0059921D01*
X0027674Y0061520D02*
X0052626Y0061520D01*
X0052930Y0063118D02*
X0026850Y0063118D01*
X0024685Y0064717D02*
X0054652Y0064717D01*
X0064022Y0069512D02*
X0021231Y0069512D01*
X0023039Y0071111D02*
X0063876Y0071111D01*
X0064766Y0072709D02*
X0024351Y0072709D01*
X0025014Y0074308D02*
X0038749Y0074308D01*
X0038251Y0075907D02*
X0025534Y0075907D01*
X0025534Y0077505D02*
X0038560Y0077505D01*
X0038567Y0079104D02*
X0025534Y0079104D01*
X0024906Y0080702D02*
X0038251Y0080702D01*
X0038734Y0082301D02*
X0024244Y0082301D01*
X0022779Y0083899D02*
X0121341Y0083899D01*
X0080884Y0080702D02*
X0069905Y0080702D01*
X0070244Y0079104D02*
X0080126Y0079104D01*
X0080327Y0077505D02*
X0069784Y0077505D01*
X0064336Y0077505D02*
X0063369Y0077505D01*
X0062595Y0075907D02*
X0080291Y0075907D01*
X0063876Y0079104D02*
X0063175Y0079104D01*
X0064215Y0080702D02*
X0061983Y0080702D01*
X0058388Y0080702D02*
X0058233Y0080702D01*
X0065143Y0067914D02*
X0009235Y0067914D01*
X0009235Y0069512D02*
X0011639Y0069512D01*
X0009831Y0071111D02*
X0009235Y0071111D01*
X0009235Y0027951D02*
X0017381Y0027951D01*
X0018274Y0026353D02*
X0009235Y0026353D01*
X0009235Y0024754D02*
X0020315Y0024754D01*
X0022205Y0026353D02*
X0023165Y0026353D01*
X0023165Y0027951D02*
X0022205Y0027951D01*
X0011150Y0019959D02*
X0009235Y0019959D01*
X0009235Y0018360D02*
X0009552Y0018360D01*
X0044339Y0013565D02*
X0048121Y0013565D01*
X0048381Y0013824D02*
X0047486Y0012929D01*
X0047001Y0011758D01*
X0047001Y0010492D01*
X0047486Y0009321D01*
X0048381Y0008426D01*
X0049552Y0007941D01*
X0050818Y0007941D01*
X0051989Y0008426D01*
X0052885Y0009321D01*
X0053369Y0010492D01*
X0053369Y0011758D01*
X0052885Y0012929D01*
X0051989Y0013824D01*
X0050818Y0014309D01*
X0049552Y0014309D01*
X0048381Y0013824D01*
X0047087Y0011966D02*
X0044274Y0011966D01*
X0044619Y0010368D02*
X0047052Y0010368D01*
X0048038Y0008769D02*
X0044165Y0008769D01*
X0052332Y0008769D02*
X0064288Y0008769D01*
X0063302Y0010368D02*
X0053318Y0010368D01*
X0053283Y0011966D02*
X0063337Y0011966D01*
X0064371Y0013565D02*
X0052249Y0013565D01*
X0068499Y0013565D02*
X0070751Y0013565D01*
X0071176Y0011966D02*
X0069533Y0011966D01*
X0132970Y0019959D02*
X0134885Y0019959D01*
X0134885Y0018360D02*
X0134568Y0018360D01*
M02*
