G75*
%MOIN*%
%OFA0B0*%
%FSLAX25Y25*%
%IPPOS*%
%LPD*%
%AMOC8*
5,1,8,0,0,1.08239X$1,22.5*
%
%ADD10C,0.00000*%
D10*
X0006435Y0002375D02*
X0006435Y0087375D01*
X0137685Y0087375D01*
X0137685Y0002375D01*
X0006435Y0002375D01*
X0010136Y0012375D02*
X0010138Y0012533D01*
X0010144Y0012691D01*
X0010154Y0012849D01*
X0010168Y0013007D01*
X0010186Y0013164D01*
X0010207Y0013321D01*
X0010233Y0013477D01*
X0010263Y0013633D01*
X0010296Y0013788D01*
X0010334Y0013941D01*
X0010375Y0014094D01*
X0010420Y0014246D01*
X0010469Y0014397D01*
X0010522Y0014546D01*
X0010578Y0014694D01*
X0010638Y0014840D01*
X0010702Y0014985D01*
X0010770Y0015128D01*
X0010841Y0015270D01*
X0010915Y0015410D01*
X0010993Y0015547D01*
X0011075Y0015683D01*
X0011159Y0015817D01*
X0011248Y0015948D01*
X0011339Y0016077D01*
X0011434Y0016204D01*
X0011531Y0016329D01*
X0011632Y0016451D01*
X0011736Y0016570D01*
X0011843Y0016687D01*
X0011953Y0016801D01*
X0012066Y0016912D01*
X0012181Y0017021D01*
X0012299Y0017126D01*
X0012420Y0017228D01*
X0012543Y0017328D01*
X0012669Y0017424D01*
X0012797Y0017517D01*
X0012927Y0017607D01*
X0013060Y0017693D01*
X0013195Y0017777D01*
X0013331Y0017856D01*
X0013470Y0017933D01*
X0013611Y0018005D01*
X0013753Y0018075D01*
X0013897Y0018140D01*
X0014043Y0018202D01*
X0014190Y0018260D01*
X0014339Y0018315D01*
X0014489Y0018366D01*
X0014640Y0018413D01*
X0014792Y0018456D01*
X0014945Y0018495D01*
X0015100Y0018531D01*
X0015255Y0018562D01*
X0015411Y0018590D01*
X0015567Y0018614D01*
X0015724Y0018634D01*
X0015882Y0018650D01*
X0016039Y0018662D01*
X0016198Y0018670D01*
X0016356Y0018674D01*
X0016514Y0018674D01*
X0016672Y0018670D01*
X0016831Y0018662D01*
X0016988Y0018650D01*
X0017146Y0018634D01*
X0017303Y0018614D01*
X0017459Y0018590D01*
X0017615Y0018562D01*
X0017770Y0018531D01*
X0017925Y0018495D01*
X0018078Y0018456D01*
X0018230Y0018413D01*
X0018381Y0018366D01*
X0018531Y0018315D01*
X0018680Y0018260D01*
X0018827Y0018202D01*
X0018973Y0018140D01*
X0019117Y0018075D01*
X0019259Y0018005D01*
X0019400Y0017933D01*
X0019539Y0017856D01*
X0019675Y0017777D01*
X0019810Y0017693D01*
X0019943Y0017607D01*
X0020073Y0017517D01*
X0020201Y0017424D01*
X0020327Y0017328D01*
X0020450Y0017228D01*
X0020571Y0017126D01*
X0020689Y0017021D01*
X0020804Y0016912D01*
X0020917Y0016801D01*
X0021027Y0016687D01*
X0021134Y0016570D01*
X0021238Y0016451D01*
X0021339Y0016329D01*
X0021436Y0016204D01*
X0021531Y0016077D01*
X0021622Y0015948D01*
X0021711Y0015817D01*
X0021795Y0015683D01*
X0021877Y0015547D01*
X0021955Y0015410D01*
X0022029Y0015270D01*
X0022100Y0015128D01*
X0022168Y0014985D01*
X0022232Y0014840D01*
X0022292Y0014694D01*
X0022348Y0014546D01*
X0022401Y0014397D01*
X0022450Y0014246D01*
X0022495Y0014094D01*
X0022536Y0013941D01*
X0022574Y0013788D01*
X0022607Y0013633D01*
X0022637Y0013477D01*
X0022663Y0013321D01*
X0022684Y0013164D01*
X0022702Y0013007D01*
X0022716Y0012849D01*
X0022726Y0012691D01*
X0022732Y0012533D01*
X0022734Y0012375D01*
X0022732Y0012217D01*
X0022726Y0012059D01*
X0022716Y0011901D01*
X0022702Y0011743D01*
X0022684Y0011586D01*
X0022663Y0011429D01*
X0022637Y0011273D01*
X0022607Y0011117D01*
X0022574Y0010962D01*
X0022536Y0010809D01*
X0022495Y0010656D01*
X0022450Y0010504D01*
X0022401Y0010353D01*
X0022348Y0010204D01*
X0022292Y0010056D01*
X0022232Y0009910D01*
X0022168Y0009765D01*
X0022100Y0009622D01*
X0022029Y0009480D01*
X0021955Y0009340D01*
X0021877Y0009203D01*
X0021795Y0009067D01*
X0021711Y0008933D01*
X0021622Y0008802D01*
X0021531Y0008673D01*
X0021436Y0008546D01*
X0021339Y0008421D01*
X0021238Y0008299D01*
X0021134Y0008180D01*
X0021027Y0008063D01*
X0020917Y0007949D01*
X0020804Y0007838D01*
X0020689Y0007729D01*
X0020571Y0007624D01*
X0020450Y0007522D01*
X0020327Y0007422D01*
X0020201Y0007326D01*
X0020073Y0007233D01*
X0019943Y0007143D01*
X0019810Y0007057D01*
X0019675Y0006973D01*
X0019539Y0006894D01*
X0019400Y0006817D01*
X0019259Y0006745D01*
X0019117Y0006675D01*
X0018973Y0006610D01*
X0018827Y0006548D01*
X0018680Y0006490D01*
X0018531Y0006435D01*
X0018381Y0006384D01*
X0018230Y0006337D01*
X0018078Y0006294D01*
X0017925Y0006255D01*
X0017770Y0006219D01*
X0017615Y0006188D01*
X0017459Y0006160D01*
X0017303Y0006136D01*
X0017146Y0006116D01*
X0016988Y0006100D01*
X0016831Y0006088D01*
X0016672Y0006080D01*
X0016514Y0006076D01*
X0016356Y0006076D01*
X0016198Y0006080D01*
X0016039Y0006088D01*
X0015882Y0006100D01*
X0015724Y0006116D01*
X0015567Y0006136D01*
X0015411Y0006160D01*
X0015255Y0006188D01*
X0015100Y0006219D01*
X0014945Y0006255D01*
X0014792Y0006294D01*
X0014640Y0006337D01*
X0014489Y0006384D01*
X0014339Y0006435D01*
X0014190Y0006490D01*
X0014043Y0006548D01*
X0013897Y0006610D01*
X0013753Y0006675D01*
X0013611Y0006745D01*
X0013470Y0006817D01*
X0013331Y0006894D01*
X0013195Y0006973D01*
X0013060Y0007057D01*
X0012927Y0007143D01*
X0012797Y0007233D01*
X0012669Y0007326D01*
X0012543Y0007422D01*
X0012420Y0007522D01*
X0012299Y0007624D01*
X0012181Y0007729D01*
X0012066Y0007838D01*
X0011953Y0007949D01*
X0011843Y0008063D01*
X0011736Y0008180D01*
X0011632Y0008299D01*
X0011531Y0008421D01*
X0011434Y0008546D01*
X0011339Y0008673D01*
X0011248Y0008802D01*
X0011159Y0008933D01*
X0011075Y0009067D01*
X0010993Y0009203D01*
X0010915Y0009340D01*
X0010841Y0009480D01*
X0010770Y0009622D01*
X0010702Y0009765D01*
X0010638Y0009910D01*
X0010578Y0010056D01*
X0010522Y0010204D01*
X0010469Y0010353D01*
X0010420Y0010504D01*
X0010375Y0010656D01*
X0010334Y0010809D01*
X0010296Y0010962D01*
X0010263Y0011117D01*
X0010233Y0011273D01*
X0010207Y0011429D01*
X0010186Y0011586D01*
X0010168Y0011743D01*
X0010154Y0011901D01*
X0010144Y0012059D01*
X0010138Y0012217D01*
X0010136Y0012375D01*
X0010136Y0077375D02*
X0010138Y0077533D01*
X0010144Y0077691D01*
X0010154Y0077849D01*
X0010168Y0078007D01*
X0010186Y0078164D01*
X0010207Y0078321D01*
X0010233Y0078477D01*
X0010263Y0078633D01*
X0010296Y0078788D01*
X0010334Y0078941D01*
X0010375Y0079094D01*
X0010420Y0079246D01*
X0010469Y0079397D01*
X0010522Y0079546D01*
X0010578Y0079694D01*
X0010638Y0079840D01*
X0010702Y0079985D01*
X0010770Y0080128D01*
X0010841Y0080270D01*
X0010915Y0080410D01*
X0010993Y0080547D01*
X0011075Y0080683D01*
X0011159Y0080817D01*
X0011248Y0080948D01*
X0011339Y0081077D01*
X0011434Y0081204D01*
X0011531Y0081329D01*
X0011632Y0081451D01*
X0011736Y0081570D01*
X0011843Y0081687D01*
X0011953Y0081801D01*
X0012066Y0081912D01*
X0012181Y0082021D01*
X0012299Y0082126D01*
X0012420Y0082228D01*
X0012543Y0082328D01*
X0012669Y0082424D01*
X0012797Y0082517D01*
X0012927Y0082607D01*
X0013060Y0082693D01*
X0013195Y0082777D01*
X0013331Y0082856D01*
X0013470Y0082933D01*
X0013611Y0083005D01*
X0013753Y0083075D01*
X0013897Y0083140D01*
X0014043Y0083202D01*
X0014190Y0083260D01*
X0014339Y0083315D01*
X0014489Y0083366D01*
X0014640Y0083413D01*
X0014792Y0083456D01*
X0014945Y0083495D01*
X0015100Y0083531D01*
X0015255Y0083562D01*
X0015411Y0083590D01*
X0015567Y0083614D01*
X0015724Y0083634D01*
X0015882Y0083650D01*
X0016039Y0083662D01*
X0016198Y0083670D01*
X0016356Y0083674D01*
X0016514Y0083674D01*
X0016672Y0083670D01*
X0016831Y0083662D01*
X0016988Y0083650D01*
X0017146Y0083634D01*
X0017303Y0083614D01*
X0017459Y0083590D01*
X0017615Y0083562D01*
X0017770Y0083531D01*
X0017925Y0083495D01*
X0018078Y0083456D01*
X0018230Y0083413D01*
X0018381Y0083366D01*
X0018531Y0083315D01*
X0018680Y0083260D01*
X0018827Y0083202D01*
X0018973Y0083140D01*
X0019117Y0083075D01*
X0019259Y0083005D01*
X0019400Y0082933D01*
X0019539Y0082856D01*
X0019675Y0082777D01*
X0019810Y0082693D01*
X0019943Y0082607D01*
X0020073Y0082517D01*
X0020201Y0082424D01*
X0020327Y0082328D01*
X0020450Y0082228D01*
X0020571Y0082126D01*
X0020689Y0082021D01*
X0020804Y0081912D01*
X0020917Y0081801D01*
X0021027Y0081687D01*
X0021134Y0081570D01*
X0021238Y0081451D01*
X0021339Y0081329D01*
X0021436Y0081204D01*
X0021531Y0081077D01*
X0021622Y0080948D01*
X0021711Y0080817D01*
X0021795Y0080683D01*
X0021877Y0080547D01*
X0021955Y0080410D01*
X0022029Y0080270D01*
X0022100Y0080128D01*
X0022168Y0079985D01*
X0022232Y0079840D01*
X0022292Y0079694D01*
X0022348Y0079546D01*
X0022401Y0079397D01*
X0022450Y0079246D01*
X0022495Y0079094D01*
X0022536Y0078941D01*
X0022574Y0078788D01*
X0022607Y0078633D01*
X0022637Y0078477D01*
X0022663Y0078321D01*
X0022684Y0078164D01*
X0022702Y0078007D01*
X0022716Y0077849D01*
X0022726Y0077691D01*
X0022732Y0077533D01*
X0022734Y0077375D01*
X0022732Y0077217D01*
X0022726Y0077059D01*
X0022716Y0076901D01*
X0022702Y0076743D01*
X0022684Y0076586D01*
X0022663Y0076429D01*
X0022637Y0076273D01*
X0022607Y0076117D01*
X0022574Y0075962D01*
X0022536Y0075809D01*
X0022495Y0075656D01*
X0022450Y0075504D01*
X0022401Y0075353D01*
X0022348Y0075204D01*
X0022292Y0075056D01*
X0022232Y0074910D01*
X0022168Y0074765D01*
X0022100Y0074622D01*
X0022029Y0074480D01*
X0021955Y0074340D01*
X0021877Y0074203D01*
X0021795Y0074067D01*
X0021711Y0073933D01*
X0021622Y0073802D01*
X0021531Y0073673D01*
X0021436Y0073546D01*
X0021339Y0073421D01*
X0021238Y0073299D01*
X0021134Y0073180D01*
X0021027Y0073063D01*
X0020917Y0072949D01*
X0020804Y0072838D01*
X0020689Y0072729D01*
X0020571Y0072624D01*
X0020450Y0072522D01*
X0020327Y0072422D01*
X0020201Y0072326D01*
X0020073Y0072233D01*
X0019943Y0072143D01*
X0019810Y0072057D01*
X0019675Y0071973D01*
X0019539Y0071894D01*
X0019400Y0071817D01*
X0019259Y0071745D01*
X0019117Y0071675D01*
X0018973Y0071610D01*
X0018827Y0071548D01*
X0018680Y0071490D01*
X0018531Y0071435D01*
X0018381Y0071384D01*
X0018230Y0071337D01*
X0018078Y0071294D01*
X0017925Y0071255D01*
X0017770Y0071219D01*
X0017615Y0071188D01*
X0017459Y0071160D01*
X0017303Y0071136D01*
X0017146Y0071116D01*
X0016988Y0071100D01*
X0016831Y0071088D01*
X0016672Y0071080D01*
X0016514Y0071076D01*
X0016356Y0071076D01*
X0016198Y0071080D01*
X0016039Y0071088D01*
X0015882Y0071100D01*
X0015724Y0071116D01*
X0015567Y0071136D01*
X0015411Y0071160D01*
X0015255Y0071188D01*
X0015100Y0071219D01*
X0014945Y0071255D01*
X0014792Y0071294D01*
X0014640Y0071337D01*
X0014489Y0071384D01*
X0014339Y0071435D01*
X0014190Y0071490D01*
X0014043Y0071548D01*
X0013897Y0071610D01*
X0013753Y0071675D01*
X0013611Y0071745D01*
X0013470Y0071817D01*
X0013331Y0071894D01*
X0013195Y0071973D01*
X0013060Y0072057D01*
X0012927Y0072143D01*
X0012797Y0072233D01*
X0012669Y0072326D01*
X0012543Y0072422D01*
X0012420Y0072522D01*
X0012299Y0072624D01*
X0012181Y0072729D01*
X0012066Y0072838D01*
X0011953Y0072949D01*
X0011843Y0073063D01*
X0011736Y0073180D01*
X0011632Y0073299D01*
X0011531Y0073421D01*
X0011434Y0073546D01*
X0011339Y0073673D01*
X0011248Y0073802D01*
X0011159Y0073933D01*
X0011075Y0074067D01*
X0010993Y0074203D01*
X0010915Y0074340D01*
X0010841Y0074480D01*
X0010770Y0074622D01*
X0010702Y0074765D01*
X0010638Y0074910D01*
X0010578Y0075056D01*
X0010522Y0075204D01*
X0010469Y0075353D01*
X0010420Y0075504D01*
X0010375Y0075656D01*
X0010334Y0075809D01*
X0010296Y0075962D01*
X0010263Y0076117D01*
X0010233Y0076273D01*
X0010207Y0076429D01*
X0010186Y0076586D01*
X0010168Y0076743D01*
X0010154Y0076901D01*
X0010144Y0077059D01*
X0010138Y0077217D01*
X0010136Y0077375D01*
X0121386Y0077375D02*
X0121388Y0077533D01*
X0121394Y0077691D01*
X0121404Y0077849D01*
X0121418Y0078007D01*
X0121436Y0078164D01*
X0121457Y0078321D01*
X0121483Y0078477D01*
X0121513Y0078633D01*
X0121546Y0078788D01*
X0121584Y0078941D01*
X0121625Y0079094D01*
X0121670Y0079246D01*
X0121719Y0079397D01*
X0121772Y0079546D01*
X0121828Y0079694D01*
X0121888Y0079840D01*
X0121952Y0079985D01*
X0122020Y0080128D01*
X0122091Y0080270D01*
X0122165Y0080410D01*
X0122243Y0080547D01*
X0122325Y0080683D01*
X0122409Y0080817D01*
X0122498Y0080948D01*
X0122589Y0081077D01*
X0122684Y0081204D01*
X0122781Y0081329D01*
X0122882Y0081451D01*
X0122986Y0081570D01*
X0123093Y0081687D01*
X0123203Y0081801D01*
X0123316Y0081912D01*
X0123431Y0082021D01*
X0123549Y0082126D01*
X0123670Y0082228D01*
X0123793Y0082328D01*
X0123919Y0082424D01*
X0124047Y0082517D01*
X0124177Y0082607D01*
X0124310Y0082693D01*
X0124445Y0082777D01*
X0124581Y0082856D01*
X0124720Y0082933D01*
X0124861Y0083005D01*
X0125003Y0083075D01*
X0125147Y0083140D01*
X0125293Y0083202D01*
X0125440Y0083260D01*
X0125589Y0083315D01*
X0125739Y0083366D01*
X0125890Y0083413D01*
X0126042Y0083456D01*
X0126195Y0083495D01*
X0126350Y0083531D01*
X0126505Y0083562D01*
X0126661Y0083590D01*
X0126817Y0083614D01*
X0126974Y0083634D01*
X0127132Y0083650D01*
X0127289Y0083662D01*
X0127448Y0083670D01*
X0127606Y0083674D01*
X0127764Y0083674D01*
X0127922Y0083670D01*
X0128081Y0083662D01*
X0128238Y0083650D01*
X0128396Y0083634D01*
X0128553Y0083614D01*
X0128709Y0083590D01*
X0128865Y0083562D01*
X0129020Y0083531D01*
X0129175Y0083495D01*
X0129328Y0083456D01*
X0129480Y0083413D01*
X0129631Y0083366D01*
X0129781Y0083315D01*
X0129930Y0083260D01*
X0130077Y0083202D01*
X0130223Y0083140D01*
X0130367Y0083075D01*
X0130509Y0083005D01*
X0130650Y0082933D01*
X0130789Y0082856D01*
X0130925Y0082777D01*
X0131060Y0082693D01*
X0131193Y0082607D01*
X0131323Y0082517D01*
X0131451Y0082424D01*
X0131577Y0082328D01*
X0131700Y0082228D01*
X0131821Y0082126D01*
X0131939Y0082021D01*
X0132054Y0081912D01*
X0132167Y0081801D01*
X0132277Y0081687D01*
X0132384Y0081570D01*
X0132488Y0081451D01*
X0132589Y0081329D01*
X0132686Y0081204D01*
X0132781Y0081077D01*
X0132872Y0080948D01*
X0132961Y0080817D01*
X0133045Y0080683D01*
X0133127Y0080547D01*
X0133205Y0080410D01*
X0133279Y0080270D01*
X0133350Y0080128D01*
X0133418Y0079985D01*
X0133482Y0079840D01*
X0133542Y0079694D01*
X0133598Y0079546D01*
X0133651Y0079397D01*
X0133700Y0079246D01*
X0133745Y0079094D01*
X0133786Y0078941D01*
X0133824Y0078788D01*
X0133857Y0078633D01*
X0133887Y0078477D01*
X0133913Y0078321D01*
X0133934Y0078164D01*
X0133952Y0078007D01*
X0133966Y0077849D01*
X0133976Y0077691D01*
X0133982Y0077533D01*
X0133984Y0077375D01*
X0133982Y0077217D01*
X0133976Y0077059D01*
X0133966Y0076901D01*
X0133952Y0076743D01*
X0133934Y0076586D01*
X0133913Y0076429D01*
X0133887Y0076273D01*
X0133857Y0076117D01*
X0133824Y0075962D01*
X0133786Y0075809D01*
X0133745Y0075656D01*
X0133700Y0075504D01*
X0133651Y0075353D01*
X0133598Y0075204D01*
X0133542Y0075056D01*
X0133482Y0074910D01*
X0133418Y0074765D01*
X0133350Y0074622D01*
X0133279Y0074480D01*
X0133205Y0074340D01*
X0133127Y0074203D01*
X0133045Y0074067D01*
X0132961Y0073933D01*
X0132872Y0073802D01*
X0132781Y0073673D01*
X0132686Y0073546D01*
X0132589Y0073421D01*
X0132488Y0073299D01*
X0132384Y0073180D01*
X0132277Y0073063D01*
X0132167Y0072949D01*
X0132054Y0072838D01*
X0131939Y0072729D01*
X0131821Y0072624D01*
X0131700Y0072522D01*
X0131577Y0072422D01*
X0131451Y0072326D01*
X0131323Y0072233D01*
X0131193Y0072143D01*
X0131060Y0072057D01*
X0130925Y0071973D01*
X0130789Y0071894D01*
X0130650Y0071817D01*
X0130509Y0071745D01*
X0130367Y0071675D01*
X0130223Y0071610D01*
X0130077Y0071548D01*
X0129930Y0071490D01*
X0129781Y0071435D01*
X0129631Y0071384D01*
X0129480Y0071337D01*
X0129328Y0071294D01*
X0129175Y0071255D01*
X0129020Y0071219D01*
X0128865Y0071188D01*
X0128709Y0071160D01*
X0128553Y0071136D01*
X0128396Y0071116D01*
X0128238Y0071100D01*
X0128081Y0071088D01*
X0127922Y0071080D01*
X0127764Y0071076D01*
X0127606Y0071076D01*
X0127448Y0071080D01*
X0127289Y0071088D01*
X0127132Y0071100D01*
X0126974Y0071116D01*
X0126817Y0071136D01*
X0126661Y0071160D01*
X0126505Y0071188D01*
X0126350Y0071219D01*
X0126195Y0071255D01*
X0126042Y0071294D01*
X0125890Y0071337D01*
X0125739Y0071384D01*
X0125589Y0071435D01*
X0125440Y0071490D01*
X0125293Y0071548D01*
X0125147Y0071610D01*
X0125003Y0071675D01*
X0124861Y0071745D01*
X0124720Y0071817D01*
X0124581Y0071894D01*
X0124445Y0071973D01*
X0124310Y0072057D01*
X0124177Y0072143D01*
X0124047Y0072233D01*
X0123919Y0072326D01*
X0123793Y0072422D01*
X0123670Y0072522D01*
X0123549Y0072624D01*
X0123431Y0072729D01*
X0123316Y0072838D01*
X0123203Y0072949D01*
X0123093Y0073063D01*
X0122986Y0073180D01*
X0122882Y0073299D01*
X0122781Y0073421D01*
X0122684Y0073546D01*
X0122589Y0073673D01*
X0122498Y0073802D01*
X0122409Y0073933D01*
X0122325Y0074067D01*
X0122243Y0074203D01*
X0122165Y0074340D01*
X0122091Y0074480D01*
X0122020Y0074622D01*
X0121952Y0074765D01*
X0121888Y0074910D01*
X0121828Y0075056D01*
X0121772Y0075204D01*
X0121719Y0075353D01*
X0121670Y0075504D01*
X0121625Y0075656D01*
X0121584Y0075809D01*
X0121546Y0075962D01*
X0121513Y0076117D01*
X0121483Y0076273D01*
X0121457Y0076429D01*
X0121436Y0076586D01*
X0121418Y0076743D01*
X0121404Y0076901D01*
X0121394Y0077059D01*
X0121388Y0077217D01*
X0121386Y0077375D01*
X0121386Y0012375D02*
X0121388Y0012533D01*
X0121394Y0012691D01*
X0121404Y0012849D01*
X0121418Y0013007D01*
X0121436Y0013164D01*
X0121457Y0013321D01*
X0121483Y0013477D01*
X0121513Y0013633D01*
X0121546Y0013788D01*
X0121584Y0013941D01*
X0121625Y0014094D01*
X0121670Y0014246D01*
X0121719Y0014397D01*
X0121772Y0014546D01*
X0121828Y0014694D01*
X0121888Y0014840D01*
X0121952Y0014985D01*
X0122020Y0015128D01*
X0122091Y0015270D01*
X0122165Y0015410D01*
X0122243Y0015547D01*
X0122325Y0015683D01*
X0122409Y0015817D01*
X0122498Y0015948D01*
X0122589Y0016077D01*
X0122684Y0016204D01*
X0122781Y0016329D01*
X0122882Y0016451D01*
X0122986Y0016570D01*
X0123093Y0016687D01*
X0123203Y0016801D01*
X0123316Y0016912D01*
X0123431Y0017021D01*
X0123549Y0017126D01*
X0123670Y0017228D01*
X0123793Y0017328D01*
X0123919Y0017424D01*
X0124047Y0017517D01*
X0124177Y0017607D01*
X0124310Y0017693D01*
X0124445Y0017777D01*
X0124581Y0017856D01*
X0124720Y0017933D01*
X0124861Y0018005D01*
X0125003Y0018075D01*
X0125147Y0018140D01*
X0125293Y0018202D01*
X0125440Y0018260D01*
X0125589Y0018315D01*
X0125739Y0018366D01*
X0125890Y0018413D01*
X0126042Y0018456D01*
X0126195Y0018495D01*
X0126350Y0018531D01*
X0126505Y0018562D01*
X0126661Y0018590D01*
X0126817Y0018614D01*
X0126974Y0018634D01*
X0127132Y0018650D01*
X0127289Y0018662D01*
X0127448Y0018670D01*
X0127606Y0018674D01*
X0127764Y0018674D01*
X0127922Y0018670D01*
X0128081Y0018662D01*
X0128238Y0018650D01*
X0128396Y0018634D01*
X0128553Y0018614D01*
X0128709Y0018590D01*
X0128865Y0018562D01*
X0129020Y0018531D01*
X0129175Y0018495D01*
X0129328Y0018456D01*
X0129480Y0018413D01*
X0129631Y0018366D01*
X0129781Y0018315D01*
X0129930Y0018260D01*
X0130077Y0018202D01*
X0130223Y0018140D01*
X0130367Y0018075D01*
X0130509Y0018005D01*
X0130650Y0017933D01*
X0130789Y0017856D01*
X0130925Y0017777D01*
X0131060Y0017693D01*
X0131193Y0017607D01*
X0131323Y0017517D01*
X0131451Y0017424D01*
X0131577Y0017328D01*
X0131700Y0017228D01*
X0131821Y0017126D01*
X0131939Y0017021D01*
X0132054Y0016912D01*
X0132167Y0016801D01*
X0132277Y0016687D01*
X0132384Y0016570D01*
X0132488Y0016451D01*
X0132589Y0016329D01*
X0132686Y0016204D01*
X0132781Y0016077D01*
X0132872Y0015948D01*
X0132961Y0015817D01*
X0133045Y0015683D01*
X0133127Y0015547D01*
X0133205Y0015410D01*
X0133279Y0015270D01*
X0133350Y0015128D01*
X0133418Y0014985D01*
X0133482Y0014840D01*
X0133542Y0014694D01*
X0133598Y0014546D01*
X0133651Y0014397D01*
X0133700Y0014246D01*
X0133745Y0014094D01*
X0133786Y0013941D01*
X0133824Y0013788D01*
X0133857Y0013633D01*
X0133887Y0013477D01*
X0133913Y0013321D01*
X0133934Y0013164D01*
X0133952Y0013007D01*
X0133966Y0012849D01*
X0133976Y0012691D01*
X0133982Y0012533D01*
X0133984Y0012375D01*
X0133982Y0012217D01*
X0133976Y0012059D01*
X0133966Y0011901D01*
X0133952Y0011743D01*
X0133934Y0011586D01*
X0133913Y0011429D01*
X0133887Y0011273D01*
X0133857Y0011117D01*
X0133824Y0010962D01*
X0133786Y0010809D01*
X0133745Y0010656D01*
X0133700Y0010504D01*
X0133651Y0010353D01*
X0133598Y0010204D01*
X0133542Y0010056D01*
X0133482Y0009910D01*
X0133418Y0009765D01*
X0133350Y0009622D01*
X0133279Y0009480D01*
X0133205Y0009340D01*
X0133127Y0009203D01*
X0133045Y0009067D01*
X0132961Y0008933D01*
X0132872Y0008802D01*
X0132781Y0008673D01*
X0132686Y0008546D01*
X0132589Y0008421D01*
X0132488Y0008299D01*
X0132384Y0008180D01*
X0132277Y0008063D01*
X0132167Y0007949D01*
X0132054Y0007838D01*
X0131939Y0007729D01*
X0131821Y0007624D01*
X0131700Y0007522D01*
X0131577Y0007422D01*
X0131451Y0007326D01*
X0131323Y0007233D01*
X0131193Y0007143D01*
X0131060Y0007057D01*
X0130925Y0006973D01*
X0130789Y0006894D01*
X0130650Y0006817D01*
X0130509Y0006745D01*
X0130367Y0006675D01*
X0130223Y0006610D01*
X0130077Y0006548D01*
X0129930Y0006490D01*
X0129781Y0006435D01*
X0129631Y0006384D01*
X0129480Y0006337D01*
X0129328Y0006294D01*
X0129175Y0006255D01*
X0129020Y0006219D01*
X0128865Y0006188D01*
X0128709Y0006160D01*
X0128553Y0006136D01*
X0128396Y0006116D01*
X0128238Y0006100D01*
X0128081Y0006088D01*
X0127922Y0006080D01*
X0127764Y0006076D01*
X0127606Y0006076D01*
X0127448Y0006080D01*
X0127289Y0006088D01*
X0127132Y0006100D01*
X0126974Y0006116D01*
X0126817Y0006136D01*
X0126661Y0006160D01*
X0126505Y0006188D01*
X0126350Y0006219D01*
X0126195Y0006255D01*
X0126042Y0006294D01*
X0125890Y0006337D01*
X0125739Y0006384D01*
X0125589Y0006435D01*
X0125440Y0006490D01*
X0125293Y0006548D01*
X0125147Y0006610D01*
X0125003Y0006675D01*
X0124861Y0006745D01*
X0124720Y0006817D01*
X0124581Y0006894D01*
X0124445Y0006973D01*
X0124310Y0007057D01*
X0124177Y0007143D01*
X0124047Y0007233D01*
X0123919Y0007326D01*
X0123793Y0007422D01*
X0123670Y0007522D01*
X0123549Y0007624D01*
X0123431Y0007729D01*
X0123316Y0007838D01*
X0123203Y0007949D01*
X0123093Y0008063D01*
X0122986Y0008180D01*
X0122882Y0008299D01*
X0122781Y0008421D01*
X0122684Y0008546D01*
X0122589Y0008673D01*
X0122498Y0008802D01*
X0122409Y0008933D01*
X0122325Y0009067D01*
X0122243Y0009203D01*
X0122165Y0009340D01*
X0122091Y0009480D01*
X0122020Y0009622D01*
X0121952Y0009765D01*
X0121888Y0009910D01*
X0121828Y0010056D01*
X0121772Y0010204D01*
X0121719Y0010353D01*
X0121670Y0010504D01*
X0121625Y0010656D01*
X0121584Y0010809D01*
X0121546Y0010962D01*
X0121513Y0011117D01*
X0121483Y0011273D01*
X0121457Y0011429D01*
X0121436Y0011586D01*
X0121418Y0011743D01*
X0121404Y0011901D01*
X0121394Y0012059D01*
X0121388Y0012217D01*
X0121386Y0012375D01*
M02*
