G75*
%MOIN*%
%OFA0B0*%
%FSLAX25Y25*%
%IPPOS*%
%LPD*%
%AMOC8*
5,1,8,0,0,1.08239X$1,22.5*
%
%ADD10C,0.13450*%
%ADD11R,0.06624X0.06624*%
%ADD12C,0.06624*%
%ADD13C,0.04956*%
%ADD14R,0.08277X0.08277*%
%ADD15C,0.08277*%
%ADD16R,0.05915X0.05915*%
%ADD17C,0.05915*%
%ADD18C,0.04562*%
%ADD19C,0.04169*%
D10*
X0054300Y0016800D03*
X0256800Y0016800D03*
X0256800Y0216800D03*
X0054300Y0216800D03*
D11*
X0021800Y0211800D03*
D12*
X0021800Y0021800D03*
X0021800Y0031800D03*
X0021800Y0041800D03*
X0031800Y0041800D03*
X0031800Y0031800D03*
X0031800Y0021800D03*
X0031800Y0051800D03*
X0031800Y0061800D03*
X0031800Y0071800D03*
X0031800Y0081800D03*
X0021800Y0081800D03*
X0021800Y0071800D03*
X0021800Y0061800D03*
X0021800Y0051800D03*
X0021800Y0091800D03*
X0021800Y0101800D03*
X0021800Y0111800D03*
X0021800Y0121800D03*
X0031800Y0121800D03*
X0031800Y0111800D03*
X0031800Y0101800D03*
X0031800Y0091800D03*
X0031800Y0131800D03*
X0031800Y0141800D03*
X0031800Y0151800D03*
X0021800Y0151800D03*
X0021800Y0141800D03*
X0021800Y0131800D03*
X0021800Y0161800D03*
X0021800Y0171800D03*
X0021800Y0181800D03*
X0021800Y0191800D03*
X0031800Y0191800D03*
X0031800Y0181800D03*
X0031800Y0171800D03*
X0031800Y0161800D03*
X0031800Y0201800D03*
X0031800Y0211800D03*
X0021800Y0201800D03*
D13*
X0171800Y0011800D03*
X0179300Y0011800D03*
X0251800Y0121800D03*
X0251800Y0131800D03*
X0251800Y0141800D03*
X0251800Y0151800D03*
D14*
X0251800Y0061800D03*
X0201800Y0021800D03*
X0126800Y0211800D03*
X0086800Y0211800D03*
D15*
X0096800Y0211800D03*
X0136800Y0211800D03*
X0251800Y0091800D03*
X0251800Y0081800D03*
X0251800Y0071800D03*
X0211800Y0021800D03*
D16*
X0121800Y0036800D03*
D17*
X0121800Y0017115D03*
X0151800Y0054300D03*
X0144300Y0064300D03*
X0151800Y0074300D03*
X0179300Y0046800D03*
D18*
X0219300Y0071800D03*
X0226800Y0061800D03*
X0236800Y0071800D03*
X0216800Y0096800D03*
X0231800Y0104300D03*
X0196800Y0126800D03*
X0189300Y0110550D03*
X0186800Y0095973D03*
X0181800Y0091800D03*
X0149300Y0119300D03*
X0149300Y0134300D03*
X0189300Y0161800D03*
X0189300Y0171800D03*
X0166800Y0184300D03*
X0224300Y0141800D03*
X0231800Y0146800D03*
X0249300Y0186800D03*
X0249300Y0196800D03*
X0104300Y0171800D03*
X0086800Y0139300D03*
X0076800Y0139300D03*
X0061800Y0110550D03*
X0054300Y0086800D03*
X0026800Y0056800D03*
D19*
X0078050Y0049300D03*
X0083050Y0049300D03*
X0083050Y0044300D03*
X0083050Y0039300D03*
X0078050Y0039300D03*
X0078050Y0044300D03*
X0079300Y0058050D03*
X0084300Y0058050D03*
X0084300Y0065550D03*
X0079300Y0065550D03*
X0079300Y0074300D03*
X0079300Y0079300D03*
X0079300Y0084300D03*
X0084300Y0084300D03*
X0084300Y0079300D03*
X0084300Y0074300D03*
M02*
