G75*
%MOIN*%
%OFA0B0*%
%FSLAX25Y25*%
%IPPOS*%
%LPD*%
%AMOC8*
5,1,8,0,0,1.08239X$1,22.5*
%
%ADD10R,0.06024X0.06024*%
%ADD11C,0.06024*%
%ADD12C,0.04356*%
%ADD13R,0.07677X0.07677*%
%ADD14C,0.07677*%
%ADD15R,0.05315X0.05315*%
%ADD16C,0.05315*%
%ADD17C,0.01600*%
%ADD18C,0.03962*%
%ADD19C,0.03569*%
%ADD20C,0.04000*%
D10*
X0021800Y0211800D03*
D11*
X0021800Y0201800D03*
X0031800Y0201800D03*
X0031800Y0211800D03*
X0031800Y0191800D03*
X0031800Y0181800D03*
X0031800Y0171800D03*
X0031800Y0161800D03*
X0021800Y0161800D03*
X0021800Y0171800D03*
X0021800Y0181800D03*
X0021800Y0191800D03*
X0021800Y0151800D03*
X0021800Y0141800D03*
X0021800Y0131800D03*
X0031800Y0131800D03*
X0031800Y0141800D03*
X0031800Y0151800D03*
X0031800Y0121800D03*
X0031800Y0111800D03*
X0031800Y0101800D03*
X0031800Y0091800D03*
X0021800Y0091800D03*
X0021800Y0101800D03*
X0021800Y0111800D03*
X0021800Y0121800D03*
X0021800Y0081800D03*
X0021800Y0071800D03*
X0021800Y0061800D03*
X0021800Y0051800D03*
X0031800Y0051800D03*
X0031800Y0061800D03*
X0031800Y0071800D03*
X0031800Y0081800D03*
X0031800Y0041800D03*
X0031800Y0031800D03*
X0031800Y0021800D03*
X0021800Y0021800D03*
X0021800Y0031800D03*
X0021800Y0041800D03*
D12*
X0171800Y0011800D03*
X0179300Y0011800D03*
X0251800Y0121800D03*
X0251800Y0131800D03*
X0251800Y0141800D03*
X0251800Y0151800D03*
D13*
X0251800Y0061800D03*
X0201800Y0021800D03*
X0126800Y0211800D03*
X0086800Y0211800D03*
D14*
X0096800Y0211800D03*
X0136800Y0211800D03*
X0251800Y0091800D03*
X0251800Y0081800D03*
X0251800Y0071800D03*
X0211800Y0021800D03*
D15*
X0121800Y0036800D03*
D16*
X0121800Y0017115D03*
X0151800Y0054300D03*
X0144300Y0064300D03*
X0151800Y0074300D03*
X0179300Y0046800D03*
D17*
X0004600Y0004600D02*
X0004600Y0226800D01*
X0268921Y0226800D01*
X0268921Y0004600D01*
X0004600Y0004600D01*
X0004600Y0004997D02*
X0268921Y0004997D01*
X0268921Y0006596D02*
X0004600Y0006596D01*
X0004600Y0008194D02*
X0050970Y0008194D01*
X0052465Y0007575D02*
X0049074Y0008979D01*
X0046479Y0011574D01*
X0045075Y0014965D01*
X0045075Y0018635D01*
X0046479Y0022026D01*
X0049074Y0024621D01*
X0052465Y0026025D01*
X0056135Y0026025D01*
X0059526Y0024621D01*
X0062121Y0022026D01*
X0063525Y0018635D01*
X0063525Y0014965D01*
X0062121Y0011574D01*
X0059526Y0008979D01*
X0056135Y0007575D01*
X0052465Y0007575D01*
X0048261Y0009793D02*
X0004600Y0009793D01*
X0004600Y0011391D02*
X0046663Y0011391D01*
X0045893Y0012990D02*
X0004600Y0012990D01*
X0004600Y0014588D02*
X0045231Y0014588D01*
X0045075Y0016187D02*
X0004600Y0016187D01*
X0004600Y0017785D02*
X0019140Y0017785D01*
X0019278Y0017685D02*
X0018665Y0018130D01*
X0018130Y0018665D01*
X0017685Y0019278D01*
X0017341Y0019953D01*
X0017107Y0020673D01*
X0016988Y0021421D01*
X0016988Y0021596D01*
X0021596Y0021596D01*
X0022004Y0021596D01*
X0022004Y0022004D01*
X0026612Y0022004D01*
X0026612Y0022179D01*
X0026493Y0022927D01*
X0026259Y0023647D01*
X0025915Y0024322D01*
X0025470Y0024935D01*
X0024935Y0025470D01*
X0024322Y0025915D01*
X0023647Y0026259D01*
X0022927Y0026493D01*
X0022179Y0026612D01*
X0022004Y0026612D01*
X0022004Y0022004D01*
X0021596Y0022004D01*
X0021596Y0026612D01*
X0021421Y0026612D01*
X0020673Y0026493D01*
X0019953Y0026259D01*
X0019278Y0025915D01*
X0018665Y0025470D01*
X0018130Y0024935D01*
X0017685Y0024322D01*
X0017341Y0023647D01*
X0017107Y0022927D01*
X0016988Y0022179D01*
X0016988Y0022004D01*
X0021596Y0022004D01*
X0021596Y0021596D01*
X0021596Y0016988D01*
X0021421Y0016988D01*
X0020673Y0017107D01*
X0019953Y0017341D01*
X0019278Y0017685D01*
X0021596Y0017785D02*
X0022004Y0017785D01*
X0022004Y0016988D02*
X0022179Y0016988D01*
X0022927Y0017107D01*
X0023647Y0017341D01*
X0024322Y0017685D01*
X0024935Y0018130D01*
X0025470Y0018665D01*
X0025915Y0019278D01*
X0026259Y0019953D01*
X0026493Y0020673D01*
X0026612Y0021421D01*
X0026612Y0021596D01*
X0022004Y0021596D01*
X0022004Y0016988D01*
X0022004Y0019384D02*
X0021596Y0019384D01*
X0021596Y0020982D02*
X0022004Y0020982D01*
X0022004Y0022581D02*
X0021596Y0022581D01*
X0021596Y0024179D02*
X0022004Y0024179D01*
X0022004Y0025778D02*
X0021596Y0025778D01*
X0020922Y0027388D02*
X0022678Y0027388D01*
X0024299Y0028060D01*
X0025540Y0029301D01*
X0026212Y0030922D01*
X0026212Y0032678D01*
X0025540Y0034299D01*
X0024299Y0035540D01*
X0022678Y0036212D01*
X0020922Y0036212D01*
X0019301Y0035540D01*
X0018060Y0034299D01*
X0017388Y0032678D01*
X0017388Y0030922D01*
X0018060Y0029301D01*
X0019301Y0028060D01*
X0020922Y0027388D01*
X0019088Y0025778D02*
X0004600Y0025778D01*
X0004600Y0027376D02*
X0168400Y0027376D01*
X0168400Y0025778D02*
X0056732Y0025778D01*
X0059967Y0024179D02*
X0168400Y0024179D01*
X0168400Y0022581D02*
X0061565Y0022581D01*
X0062553Y0020982D02*
X0119571Y0020982D01*
X0119464Y0020927D02*
X0118896Y0020515D01*
X0118400Y0020019D01*
X0117988Y0019451D01*
X0117669Y0018826D01*
X0117452Y0018159D01*
X0117343Y0017466D01*
X0117343Y0017201D01*
X0121714Y0017201D01*
X0121714Y0021572D01*
X0121449Y0021572D01*
X0120756Y0021463D01*
X0120089Y0021246D01*
X0119464Y0020927D01*
X0117953Y0019384D02*
X0063215Y0019384D01*
X0063525Y0017785D02*
X0117393Y0017785D01*
X0117343Y0017029D02*
X0117343Y0016764D01*
X0117452Y0016071D01*
X0117669Y0015404D01*
X0117988Y0014779D01*
X0118400Y0014211D01*
X0118896Y0013715D01*
X0119464Y0013303D01*
X0120089Y0012984D01*
X0120756Y0012767D01*
X0121449Y0012657D01*
X0121714Y0012657D01*
X0121714Y0017029D01*
X0117343Y0017029D01*
X0117434Y0016187D02*
X0063525Y0016187D01*
X0063369Y0014588D02*
X0118126Y0014588D01*
X0120078Y0012990D02*
X0062707Y0012990D01*
X0061937Y0011391D02*
X0168222Y0011391D01*
X0168222Y0011088D02*
X0168767Y0009773D01*
X0169773Y0008767D01*
X0171088Y0008222D01*
X0172512Y0008222D01*
X0173827Y0008767D01*
X0174833Y0009773D01*
X0175378Y0011088D01*
X0175378Y0012512D01*
X0175200Y0012941D01*
X0175200Y0030900D01*
X0192892Y0030900D01*
X0197067Y0026724D01*
X0196561Y0026218D01*
X0196561Y0017382D01*
X0197382Y0016561D01*
X0206218Y0016561D01*
X0207039Y0017382D01*
X0207039Y0019606D01*
X0207359Y0018833D01*
X0208833Y0017359D01*
X0210758Y0016561D01*
X0212842Y0016561D01*
X0214767Y0017359D01*
X0216241Y0018833D01*
X0217039Y0020758D01*
X0217039Y0022842D01*
X0216241Y0024767D01*
X0214767Y0026241D01*
X0212842Y0027039D01*
X0210758Y0027039D01*
X0208833Y0026241D01*
X0207359Y0024767D01*
X0207039Y0023994D01*
X0207039Y0026218D01*
X0206218Y0027039D01*
X0205200Y0027039D01*
X0205200Y0027476D01*
X0204682Y0028726D01*
X0197182Y0036226D01*
X0196226Y0037182D01*
X0194976Y0037700D01*
X0173208Y0037700D01*
X0155857Y0055051D01*
X0155857Y0055107D01*
X0155240Y0056598D01*
X0154098Y0057740D01*
X0152607Y0058357D01*
X0150993Y0058357D01*
X0149502Y0057740D01*
X0148360Y0056598D01*
X0147743Y0055107D01*
X0147743Y0053493D01*
X0148360Y0052002D01*
X0149502Y0050860D01*
X0150993Y0050243D01*
X0151049Y0050243D01*
X0168400Y0032892D01*
X0168400Y0012941D01*
X0168222Y0012512D01*
X0168222Y0011088D01*
X0168759Y0009793D02*
X0060339Y0009793D01*
X0057629Y0008194D02*
X0253470Y0008194D01*
X0254965Y0007575D02*
X0251574Y0008979D01*
X0248979Y0011574D01*
X0247575Y0014965D01*
X0247575Y0018635D01*
X0248979Y0022026D01*
X0251574Y0024621D01*
X0254965Y0026025D01*
X0258635Y0026025D01*
X0262026Y0024621D01*
X0264621Y0022026D01*
X0266025Y0018635D01*
X0266025Y0014965D01*
X0264621Y0011574D01*
X0262026Y0008979D01*
X0258635Y0007575D01*
X0254965Y0007575D01*
X0250761Y0009793D02*
X0182341Y0009793D01*
X0182333Y0009773D02*
X0182878Y0011088D01*
X0182878Y0012512D01*
X0182333Y0013827D01*
X0181327Y0014833D01*
X0180012Y0015378D01*
X0178588Y0015378D01*
X0177273Y0014833D01*
X0176267Y0013827D01*
X0175722Y0012512D01*
X0175722Y0011088D01*
X0176267Y0009773D01*
X0177273Y0008767D01*
X0178588Y0008222D01*
X0180012Y0008222D01*
X0181327Y0008767D01*
X0182333Y0009773D01*
X0182878Y0011391D02*
X0249163Y0011391D01*
X0248393Y0012990D02*
X0182680Y0012990D01*
X0181572Y0014588D02*
X0247731Y0014588D01*
X0247575Y0016187D02*
X0175200Y0016187D01*
X0175200Y0017785D02*
X0196561Y0017785D01*
X0196561Y0019384D02*
X0175200Y0019384D01*
X0175200Y0020982D02*
X0196561Y0020982D01*
X0196561Y0022581D02*
X0175200Y0022581D01*
X0175200Y0024179D02*
X0196561Y0024179D01*
X0196561Y0025778D02*
X0175200Y0025778D01*
X0175200Y0027376D02*
X0196415Y0027376D01*
X0194817Y0028975D02*
X0175200Y0028975D01*
X0175200Y0030573D02*
X0193218Y0030573D01*
X0198040Y0035369D02*
X0268921Y0035369D01*
X0268921Y0036967D02*
X0196441Y0036967D01*
X0199638Y0033770D02*
X0268921Y0033770D01*
X0268921Y0032172D02*
X0201237Y0032172D01*
X0202835Y0030573D02*
X0268921Y0030573D01*
X0268921Y0028975D02*
X0204434Y0028975D01*
X0205200Y0027376D02*
X0268921Y0027376D01*
X0268921Y0025778D02*
X0259232Y0025778D01*
X0262467Y0024179D02*
X0268921Y0024179D01*
X0268921Y0022581D02*
X0264065Y0022581D01*
X0265053Y0020982D02*
X0268921Y0020982D01*
X0268921Y0019384D02*
X0265715Y0019384D01*
X0266025Y0017785D02*
X0268921Y0017785D01*
X0268921Y0016187D02*
X0266025Y0016187D01*
X0265869Y0014588D02*
X0268921Y0014588D01*
X0268921Y0012990D02*
X0265207Y0012990D01*
X0264437Y0011391D02*
X0268921Y0011391D01*
X0268921Y0009793D02*
X0262839Y0009793D01*
X0260129Y0008194D02*
X0268921Y0008194D01*
X0254368Y0025778D02*
X0215231Y0025778D01*
X0216485Y0024179D02*
X0251133Y0024179D01*
X0249535Y0022581D02*
X0217039Y0022581D01*
X0217039Y0020982D02*
X0248547Y0020982D01*
X0247885Y0019384D02*
X0216469Y0019384D01*
X0215194Y0017785D02*
X0247575Y0017785D01*
X0268921Y0038566D02*
X0172343Y0038566D01*
X0170744Y0040164D02*
X0268921Y0040164D01*
X0268921Y0041763D02*
X0169146Y0041763D01*
X0167547Y0043361D02*
X0177001Y0043361D01*
X0177002Y0043360D02*
X0178493Y0042743D01*
X0180107Y0042743D01*
X0181598Y0043360D01*
X0182740Y0044502D01*
X0183357Y0045993D01*
X0183357Y0047607D01*
X0182740Y0049098D01*
X0181598Y0050240D01*
X0180107Y0050857D01*
X0180051Y0050857D01*
X0155857Y0075051D01*
X0155857Y0075107D01*
X0155240Y0076598D01*
X0154098Y0077740D01*
X0152607Y0078357D01*
X0150993Y0078357D01*
X0149502Y0077740D01*
X0148360Y0076598D01*
X0147743Y0075107D01*
X0147743Y0073493D01*
X0148360Y0072002D01*
X0149502Y0070860D01*
X0150993Y0070243D01*
X0151049Y0070243D01*
X0175243Y0046049D01*
X0175243Y0045993D01*
X0175860Y0044502D01*
X0177002Y0043360D01*
X0175670Y0044960D02*
X0165948Y0044960D01*
X0164350Y0046558D02*
X0174733Y0046558D01*
X0173135Y0048157D02*
X0162751Y0048157D01*
X0161153Y0049755D02*
X0171536Y0049755D01*
X0169938Y0051354D02*
X0159554Y0051354D01*
X0157956Y0052952D02*
X0168339Y0052952D01*
X0166741Y0054551D02*
X0156357Y0054551D01*
X0155426Y0056149D02*
X0165142Y0056149D01*
X0163544Y0057748D02*
X0154079Y0057748D01*
X0149521Y0057748D02*
X0033546Y0057748D01*
X0034299Y0058060D02*
X0035540Y0059301D01*
X0036212Y0060922D01*
X0036212Y0062678D01*
X0035540Y0064299D01*
X0034299Y0065540D01*
X0032678Y0066212D01*
X0030922Y0066212D01*
X0029301Y0065540D01*
X0029000Y0065239D01*
X0029000Y0067887D01*
X0029278Y0067685D01*
X0029953Y0067341D01*
X0030673Y0067107D01*
X0031421Y0066988D01*
X0031596Y0066988D01*
X0031596Y0071596D01*
X0032004Y0071596D01*
X0032004Y0072004D01*
X0036612Y0072004D01*
X0036612Y0072179D01*
X0036493Y0072927D01*
X0036259Y0073647D01*
X0035915Y0074322D01*
X0035470Y0074935D01*
X0034935Y0075470D01*
X0034322Y0075915D01*
X0033647Y0076259D01*
X0032927Y0076493D01*
X0032179Y0076612D01*
X0032004Y0076612D01*
X0032004Y0072004D01*
X0031596Y0072004D01*
X0031596Y0076612D01*
X0031421Y0076612D01*
X0030673Y0076493D01*
X0029953Y0076259D01*
X0029278Y0075915D01*
X0029000Y0075713D01*
X0029000Y0078361D01*
X0029301Y0078060D01*
X0030922Y0077388D01*
X0032678Y0077388D01*
X0034299Y0078060D01*
X0035540Y0079301D01*
X0036212Y0080922D01*
X0036212Y0082678D01*
X0035540Y0084299D01*
X0035239Y0084600D01*
X0051718Y0084600D01*
X0052385Y0083934D01*
X0053627Y0083419D01*
X0054973Y0083419D01*
X0056215Y0083934D01*
X0057166Y0084885D01*
X0057681Y0086127D01*
X0057681Y0087473D01*
X0057166Y0088715D01*
X0056215Y0089666D01*
X0054973Y0090181D01*
X0053627Y0090181D01*
X0052385Y0089666D01*
X0051718Y0089000D01*
X0035239Y0089000D01*
X0035540Y0089301D01*
X0036212Y0090922D01*
X0036212Y0092678D01*
X0035540Y0094299D01*
X0034299Y0095540D01*
X0032678Y0096212D01*
X0030922Y0096212D01*
X0029301Y0095540D01*
X0028060Y0094299D01*
X0027388Y0092678D01*
X0027388Y0090922D01*
X0028060Y0089301D01*
X0028375Y0088986D01*
X0024614Y0085225D01*
X0024299Y0085540D01*
X0022678Y0086212D01*
X0020922Y0086212D01*
X0019301Y0085540D01*
X0018060Y0084299D01*
X0017388Y0082678D01*
X0017388Y0080922D01*
X0018060Y0079301D01*
X0019301Y0078060D01*
X0020922Y0077388D01*
X0022678Y0077388D01*
X0024299Y0078060D01*
X0024600Y0078361D01*
X0024600Y0075239D01*
X0024299Y0075540D01*
X0022678Y0076212D01*
X0020922Y0076212D01*
X0019301Y0075540D01*
X0018060Y0074299D01*
X0017388Y0072678D01*
X0017388Y0070922D01*
X0018060Y0069301D01*
X0019301Y0068060D01*
X0020922Y0067388D01*
X0022678Y0067388D01*
X0024299Y0068060D01*
X0024600Y0068361D01*
X0024600Y0065239D01*
X0024299Y0065540D01*
X0022678Y0066212D01*
X0020922Y0066212D01*
X0019301Y0065540D01*
X0018060Y0064299D01*
X0017388Y0062678D01*
X0017388Y0060922D01*
X0018060Y0059301D01*
X0019301Y0058060D01*
X0020922Y0057388D01*
X0022678Y0057388D01*
X0023530Y0057741D01*
X0023419Y0057473D01*
X0023419Y0056530D01*
X0022977Y0056088D01*
X0022678Y0056212D01*
X0020922Y0056212D01*
X0019301Y0055540D01*
X0018060Y0054299D01*
X0017388Y0052678D01*
X0017388Y0050922D01*
X0018060Y0049301D01*
X0019301Y0048060D01*
X0020922Y0047388D01*
X0022678Y0047388D01*
X0024299Y0048060D01*
X0025540Y0049301D01*
X0026212Y0050922D01*
X0026212Y0052678D01*
X0026088Y0052977D01*
X0026530Y0053419D01*
X0027267Y0053419D01*
X0027107Y0052927D01*
X0026988Y0052179D01*
X0026988Y0052004D01*
X0031596Y0052004D01*
X0031596Y0056612D01*
X0031421Y0056612D01*
X0030673Y0056493D01*
X0030181Y0056333D01*
X0030181Y0057473D01*
X0030070Y0057741D01*
X0030922Y0057388D01*
X0032678Y0057388D01*
X0034299Y0058060D01*
X0035559Y0059346D02*
X0161945Y0059346D01*
X0160347Y0060945D02*
X0036212Y0060945D01*
X0036212Y0062543D02*
X0158748Y0062543D01*
X0157150Y0064142D02*
X0035605Y0064142D01*
X0033816Y0065740D02*
X0155551Y0065740D01*
X0153953Y0067339D02*
X0033642Y0067339D01*
X0033647Y0067341D02*
X0034322Y0067685D01*
X0034935Y0068130D01*
X0035470Y0068665D01*
X0035915Y0069278D01*
X0036259Y0069953D01*
X0036493Y0070673D01*
X0036612Y0071421D01*
X0036612Y0071596D01*
X0032004Y0071596D01*
X0032004Y0066988D01*
X0032179Y0066988D01*
X0032927Y0067107D01*
X0033647Y0067341D01*
X0032004Y0067339D02*
X0031596Y0067339D01*
X0031596Y0068937D02*
X0032004Y0068937D01*
X0032004Y0070536D02*
X0031596Y0070536D01*
X0031596Y0072134D02*
X0032004Y0072134D01*
X0032004Y0073733D02*
X0031596Y0073733D01*
X0031596Y0075332D02*
X0032004Y0075332D01*
X0035073Y0075332D02*
X0147835Y0075332D01*
X0147743Y0073733D02*
X0036215Y0073733D01*
X0036612Y0072134D02*
X0148305Y0072134D01*
X0150284Y0070536D02*
X0036449Y0070536D01*
X0035668Y0068937D02*
X0152354Y0068937D01*
X0157175Y0073733D02*
X0233951Y0073733D01*
X0233934Y0073715D02*
X0233419Y0072473D01*
X0233419Y0071530D01*
X0227070Y0065181D01*
X0226127Y0065181D01*
X0224885Y0064666D01*
X0223934Y0063715D01*
X0223419Y0062473D01*
X0223419Y0061127D01*
X0223934Y0059885D01*
X0224885Y0058934D01*
X0226127Y0058419D01*
X0227473Y0058419D01*
X0228715Y0058934D01*
X0229666Y0059885D01*
X0230181Y0061127D01*
X0230181Y0062070D01*
X0236530Y0068419D01*
X0237473Y0068419D01*
X0238715Y0068934D01*
X0239666Y0069885D01*
X0240181Y0071127D01*
X0240181Y0072473D01*
X0239666Y0073715D01*
X0238715Y0074666D01*
X0237473Y0075181D01*
X0236127Y0075181D01*
X0234885Y0074666D01*
X0233934Y0073715D01*
X0233419Y0072134D02*
X0158774Y0072134D01*
X0160372Y0070536D02*
X0232425Y0070536D01*
X0230826Y0068937D02*
X0161971Y0068937D01*
X0163569Y0067339D02*
X0229228Y0067339D01*
X0227629Y0065740D02*
X0165168Y0065740D01*
X0166766Y0064142D02*
X0224360Y0064142D01*
X0223448Y0062543D02*
X0168365Y0062543D01*
X0169963Y0060945D02*
X0223495Y0060945D01*
X0224472Y0059346D02*
X0171562Y0059346D01*
X0173160Y0057748D02*
X0246561Y0057748D01*
X0246561Y0057382D02*
X0247382Y0056561D01*
X0256218Y0056561D01*
X0257039Y0057382D01*
X0257039Y0066218D01*
X0256218Y0067039D01*
X0253994Y0067039D01*
X0254767Y0067359D01*
X0256241Y0068833D01*
X0257039Y0070758D01*
X0257039Y0072842D01*
X0256241Y0074767D01*
X0254767Y0076241D01*
X0253418Y0076800D01*
X0254767Y0077359D01*
X0256241Y0078833D01*
X0257039Y0080758D01*
X0257039Y0082842D01*
X0256241Y0084767D01*
X0254767Y0086241D01*
X0253963Y0086574D01*
X0253964Y0086575D01*
X0254755Y0086977D01*
X0255473Y0087499D01*
X0256101Y0088127D01*
X0256623Y0088845D01*
X0257025Y0089636D01*
X0257300Y0090480D01*
X0257433Y0091320D01*
X0252280Y0091320D01*
X0252280Y0092280D01*
X0257433Y0092280D01*
X0257300Y0093120D01*
X0257025Y0093964D01*
X0256623Y0094755D01*
X0256101Y0095473D01*
X0255473Y0096101D01*
X0254755Y0096623D01*
X0253964Y0097025D01*
X0253120Y0097300D01*
X0252280Y0097433D01*
X0252280Y0092280D01*
X0251320Y0092280D01*
X0251320Y0097433D01*
X0250480Y0097300D01*
X0249636Y0097025D01*
X0248845Y0096623D01*
X0248127Y0096101D01*
X0247499Y0095473D01*
X0246977Y0094755D01*
X0246575Y0093964D01*
X0246300Y0093120D01*
X0246167Y0092280D01*
X0251320Y0092280D01*
X0251320Y0091320D01*
X0246167Y0091320D01*
X0246300Y0090480D01*
X0246575Y0089636D01*
X0246977Y0088845D01*
X0247499Y0088127D01*
X0248127Y0087499D01*
X0248845Y0086977D01*
X0249636Y0086575D01*
X0249637Y0086574D01*
X0248833Y0086241D01*
X0247359Y0084767D01*
X0246561Y0082842D01*
X0246561Y0080758D01*
X0247359Y0078833D01*
X0248833Y0077359D01*
X0250182Y0076800D01*
X0248833Y0076241D01*
X0247359Y0074767D01*
X0246561Y0072842D01*
X0246561Y0070758D01*
X0247359Y0068833D01*
X0248833Y0067359D01*
X0249606Y0067039D01*
X0247382Y0067039D01*
X0246561Y0066218D01*
X0246561Y0057382D01*
X0246561Y0059346D02*
X0229128Y0059346D01*
X0230105Y0060945D02*
X0246561Y0060945D01*
X0246561Y0062543D02*
X0230655Y0062543D01*
X0232253Y0064142D02*
X0246561Y0064142D01*
X0246561Y0065740D02*
X0233852Y0065740D01*
X0235450Y0067339D02*
X0248881Y0067339D01*
X0247315Y0068937D02*
X0238719Y0068937D01*
X0239936Y0070536D02*
X0246653Y0070536D01*
X0246561Y0072134D02*
X0240181Y0072134D01*
X0239649Y0073733D02*
X0246930Y0073733D01*
X0247923Y0075332D02*
X0155765Y0075332D01*
X0154908Y0076930D02*
X0249868Y0076930D01*
X0247663Y0078529D02*
X0034768Y0078529D01*
X0035882Y0080127D02*
X0246823Y0080127D01*
X0246561Y0081726D02*
X0036212Y0081726D01*
X0035944Y0083324D02*
X0246761Y0083324D01*
X0247514Y0084923D02*
X0057182Y0084923D01*
X0057681Y0086521D02*
X0249509Y0086521D01*
X0247506Y0088120D02*
X0057413Y0088120D01*
X0056090Y0089718D02*
X0246548Y0089718D01*
X0246168Y0091317D02*
X0036212Y0091317D01*
X0036113Y0092915D02*
X0185348Y0092915D01*
X0184885Y0093107D02*
X0186127Y0092592D01*
X0187473Y0092592D01*
X0188715Y0093107D01*
X0189666Y0094058D01*
X0190181Y0095301D01*
X0190181Y0096646D01*
X0189666Y0097888D01*
X0188715Y0098840D01*
X0187473Y0099354D01*
X0186127Y0099354D01*
X0184885Y0098840D01*
X0184218Y0098173D01*
X0068538Y0098173D01*
X0036088Y0130623D01*
X0036212Y0130922D01*
X0036212Y0132678D01*
X0035540Y0134299D01*
X0034299Y0135540D01*
X0032678Y0136212D01*
X0030922Y0136212D01*
X0029301Y0135540D01*
X0028060Y0134299D01*
X0027388Y0132678D01*
X0027388Y0130922D01*
X0028060Y0129301D01*
X0029301Y0128060D01*
X0030922Y0127388D01*
X0032678Y0127388D01*
X0032977Y0127512D01*
X0065427Y0095062D01*
X0066715Y0093773D01*
X0184218Y0093773D01*
X0184885Y0093107D01*
X0188252Y0092915D02*
X0246268Y0092915D01*
X0246854Y0094514D02*
X0189855Y0094514D01*
X0190181Y0096112D02*
X0248142Y0096112D01*
X0251320Y0096112D02*
X0252280Y0096112D01*
X0252280Y0094514D02*
X0251320Y0094514D01*
X0251320Y0092915D02*
X0252280Y0092915D01*
X0255458Y0096112D02*
X0268921Y0096112D01*
X0268921Y0094514D02*
X0256746Y0094514D01*
X0257332Y0092915D02*
X0268921Y0092915D01*
X0268921Y0091317D02*
X0257432Y0091317D01*
X0257052Y0089718D02*
X0268921Y0089718D01*
X0268921Y0088120D02*
X0256094Y0088120D01*
X0254091Y0086521D02*
X0268921Y0086521D01*
X0268921Y0084923D02*
X0256086Y0084923D01*
X0256839Y0083324D02*
X0268921Y0083324D01*
X0268921Y0081726D02*
X0257039Y0081726D01*
X0256777Y0080127D02*
X0268921Y0080127D01*
X0268921Y0078529D02*
X0255937Y0078529D01*
X0253732Y0076930D02*
X0268921Y0076930D01*
X0268921Y0075332D02*
X0255677Y0075332D01*
X0256670Y0073733D02*
X0268921Y0073733D01*
X0268921Y0072134D02*
X0257039Y0072134D01*
X0256947Y0070536D02*
X0268921Y0070536D01*
X0268921Y0068937D02*
X0256284Y0068937D01*
X0254719Y0067339D02*
X0268921Y0067339D01*
X0268921Y0065740D02*
X0257039Y0065740D01*
X0257039Y0064142D02*
X0268921Y0064142D01*
X0268921Y0062543D02*
X0257039Y0062543D01*
X0257039Y0060945D02*
X0268921Y0060945D01*
X0268921Y0059346D02*
X0257039Y0059346D01*
X0257039Y0057748D02*
X0268921Y0057748D01*
X0268921Y0056149D02*
X0174759Y0056149D01*
X0176357Y0054551D02*
X0268921Y0054551D01*
X0268921Y0052952D02*
X0177956Y0052952D01*
X0179554Y0051354D02*
X0268921Y0051354D01*
X0268921Y0049755D02*
X0182083Y0049755D01*
X0183130Y0048157D02*
X0268921Y0048157D01*
X0268921Y0046558D02*
X0183357Y0046558D01*
X0182930Y0044960D02*
X0268921Y0044960D01*
X0268921Y0043361D02*
X0181599Y0043361D01*
X0167521Y0033770D02*
X0125857Y0033770D01*
X0125857Y0033563D02*
X0125037Y0032743D01*
X0118563Y0032743D01*
X0117743Y0033563D01*
X0117743Y0040037D01*
X0118563Y0040857D01*
X0125037Y0040857D01*
X0125857Y0040037D01*
X0125857Y0033563D01*
X0125857Y0035369D02*
X0165923Y0035369D01*
X0164324Y0036967D02*
X0125857Y0036967D01*
X0125857Y0038566D02*
X0162726Y0038566D01*
X0161127Y0040164D02*
X0125731Y0040164D01*
X0117869Y0040164D02*
X0035898Y0040164D01*
X0036212Y0040922D02*
X0035540Y0039301D01*
X0034299Y0038060D01*
X0032678Y0037388D01*
X0030922Y0037388D01*
X0029301Y0038060D01*
X0028060Y0039301D01*
X0027388Y0040922D01*
X0027388Y0042678D01*
X0028060Y0044299D01*
X0029301Y0045540D01*
X0030922Y0046212D01*
X0032678Y0046212D01*
X0034299Y0045540D01*
X0035540Y0044299D01*
X0036212Y0042678D01*
X0036212Y0040922D01*
X0036212Y0041763D02*
X0159529Y0041763D01*
X0157930Y0043361D02*
X0035929Y0043361D01*
X0034879Y0044960D02*
X0156332Y0044960D01*
X0154733Y0046558D02*
X0004600Y0046558D01*
X0004600Y0044960D02*
X0018721Y0044960D01*
X0019301Y0045540D02*
X0018060Y0044299D01*
X0017388Y0042678D01*
X0017388Y0040922D01*
X0018060Y0039301D01*
X0019301Y0038060D01*
X0020922Y0037388D01*
X0022678Y0037388D01*
X0024299Y0038060D01*
X0025540Y0039301D01*
X0026212Y0040922D01*
X0026212Y0042678D01*
X0025540Y0044299D01*
X0024299Y0045540D01*
X0022678Y0046212D01*
X0020922Y0046212D01*
X0019301Y0045540D01*
X0019204Y0048157D02*
X0004600Y0048157D01*
X0004600Y0049755D02*
X0017872Y0049755D01*
X0017388Y0051354D02*
X0004600Y0051354D01*
X0004600Y0052952D02*
X0017502Y0052952D01*
X0018312Y0054551D02*
X0004600Y0054551D01*
X0004600Y0056149D02*
X0020772Y0056149D01*
X0020054Y0057748D02*
X0004600Y0057748D01*
X0004600Y0059346D02*
X0018041Y0059346D01*
X0017388Y0060945D02*
X0004600Y0060945D01*
X0004600Y0062543D02*
X0017388Y0062543D01*
X0017995Y0064142D02*
X0004600Y0064142D01*
X0004600Y0065740D02*
X0019784Y0065740D01*
X0018423Y0068937D02*
X0004600Y0068937D01*
X0004600Y0067339D02*
X0024600Y0067339D01*
X0024600Y0065740D02*
X0023816Y0065740D01*
X0029000Y0065740D02*
X0029784Y0065740D01*
X0029958Y0067339D02*
X0029000Y0067339D01*
X0024600Y0075332D02*
X0024508Y0075332D01*
X0024600Y0076930D02*
X0004600Y0076930D01*
X0004600Y0075332D02*
X0019092Y0075332D01*
X0017825Y0073733D02*
X0004600Y0073733D01*
X0004600Y0072134D02*
X0017388Y0072134D01*
X0017548Y0070536D02*
X0004600Y0070536D01*
X0004600Y0078529D02*
X0018832Y0078529D01*
X0017718Y0080127D02*
X0004600Y0080127D01*
X0004600Y0081726D02*
X0017388Y0081726D01*
X0017656Y0083324D02*
X0004600Y0083324D01*
X0004600Y0084923D02*
X0018683Y0084923D01*
X0019953Y0087341D02*
X0020673Y0087107D01*
X0021421Y0086988D01*
X0021596Y0086988D01*
X0021596Y0091596D01*
X0022004Y0091596D01*
X0022004Y0092004D01*
X0026612Y0092004D01*
X0026612Y0092179D01*
X0026493Y0092927D01*
X0026259Y0093647D01*
X0025915Y0094322D01*
X0025470Y0094935D01*
X0024935Y0095470D01*
X0024322Y0095915D01*
X0023647Y0096259D01*
X0022927Y0096493D01*
X0022179Y0096612D01*
X0022004Y0096612D01*
X0022004Y0092004D01*
X0021596Y0092004D01*
X0021596Y0096612D01*
X0021421Y0096612D01*
X0020673Y0096493D01*
X0019953Y0096259D01*
X0019278Y0095915D01*
X0018665Y0095470D01*
X0018130Y0094935D01*
X0017685Y0094322D01*
X0017341Y0093647D01*
X0017107Y0092927D01*
X0016988Y0092179D01*
X0016988Y0092004D01*
X0021596Y0092004D01*
X0021596Y0091596D01*
X0016988Y0091596D01*
X0016988Y0091421D01*
X0017107Y0090673D01*
X0017341Y0089953D01*
X0017685Y0089278D01*
X0018130Y0088665D01*
X0018665Y0088130D01*
X0019278Y0087685D01*
X0019953Y0087341D01*
X0018679Y0088120D02*
X0004600Y0088120D01*
X0004600Y0089718D02*
X0017460Y0089718D01*
X0017005Y0091317D02*
X0004600Y0091317D01*
X0004600Y0092915D02*
X0017105Y0092915D01*
X0017824Y0094514D02*
X0004600Y0094514D01*
X0004600Y0096112D02*
X0019664Y0096112D01*
X0020144Y0097711D02*
X0004600Y0097711D01*
X0004600Y0099309D02*
X0018056Y0099309D01*
X0018060Y0099301D02*
X0019301Y0098060D01*
X0020922Y0097388D01*
X0022678Y0097388D01*
X0024299Y0098060D01*
X0025540Y0099301D01*
X0026212Y0100922D01*
X0026212Y0102678D01*
X0025540Y0104299D01*
X0024299Y0105540D01*
X0022678Y0106212D01*
X0020922Y0106212D01*
X0019301Y0105540D01*
X0018060Y0104299D01*
X0017388Y0102678D01*
X0017388Y0100922D01*
X0018060Y0099301D01*
X0017394Y0100908D02*
X0004600Y0100908D01*
X0004600Y0102506D02*
X0017388Y0102506D01*
X0017979Y0104105D02*
X0004600Y0104105D01*
X0004600Y0105703D02*
X0019695Y0105703D01*
X0020922Y0107388D02*
X0022678Y0107388D01*
X0024299Y0108060D01*
X0025540Y0109301D01*
X0026212Y0110922D01*
X0026212Y0112678D01*
X0025540Y0114299D01*
X0024299Y0115540D01*
X0022678Y0116212D01*
X0020922Y0116212D01*
X0019301Y0115540D01*
X0018060Y0114299D01*
X0017388Y0112678D01*
X0017388Y0110922D01*
X0018060Y0109301D01*
X0019301Y0108060D01*
X0020922Y0107388D01*
X0018460Y0108900D02*
X0004600Y0108900D01*
X0004600Y0107302D02*
X0053187Y0107302D01*
X0051588Y0108900D02*
X0035139Y0108900D01*
X0035540Y0109301D02*
X0036212Y0110922D01*
X0036212Y0112678D01*
X0035540Y0114299D01*
X0034299Y0115540D01*
X0032678Y0116212D01*
X0030922Y0116212D01*
X0029301Y0115540D01*
X0028060Y0114299D01*
X0027388Y0112678D01*
X0027388Y0110922D01*
X0028060Y0109301D01*
X0029301Y0108060D01*
X0030922Y0107388D01*
X0032678Y0107388D01*
X0034299Y0108060D01*
X0035540Y0109301D01*
X0036036Y0110499D02*
X0049990Y0110499D01*
X0048391Y0112097D02*
X0036212Y0112097D01*
X0035790Y0113696D02*
X0046793Y0113696D01*
X0045194Y0115294D02*
X0034545Y0115294D01*
X0033647Y0117341D02*
X0032927Y0117107D01*
X0032179Y0116988D01*
X0032004Y0116988D01*
X0032004Y0121596D01*
X0032004Y0122004D01*
X0036612Y0122004D01*
X0036612Y0122179D01*
X0036493Y0122927D01*
X0036259Y0123647D01*
X0035915Y0124322D01*
X0035470Y0124935D01*
X0034935Y0125470D01*
X0034322Y0125915D01*
X0033647Y0126259D01*
X0032927Y0126493D01*
X0032179Y0126612D01*
X0032004Y0126612D01*
X0032004Y0122004D01*
X0031596Y0122004D01*
X0031596Y0126612D01*
X0031421Y0126612D01*
X0030673Y0126493D01*
X0029953Y0126259D01*
X0029278Y0125915D01*
X0028665Y0125470D01*
X0028130Y0124935D01*
X0027685Y0124322D01*
X0027341Y0123647D01*
X0027107Y0122927D01*
X0026988Y0122179D01*
X0026988Y0122004D01*
X0031596Y0122004D01*
X0031596Y0121596D01*
X0032004Y0121596D01*
X0036612Y0121596D01*
X0036612Y0121421D01*
X0036493Y0120673D01*
X0036259Y0119953D01*
X0035915Y0119278D01*
X0035470Y0118665D01*
X0034935Y0118130D01*
X0034322Y0117685D01*
X0033647Y0117341D01*
X0032004Y0118491D02*
X0031596Y0118491D01*
X0031596Y0116988D02*
X0031596Y0121596D01*
X0026988Y0121596D01*
X0026988Y0121421D01*
X0027107Y0120673D01*
X0027341Y0119953D01*
X0027685Y0119278D01*
X0028130Y0118665D01*
X0028665Y0118130D01*
X0029278Y0117685D01*
X0029953Y0117341D01*
X0030673Y0117107D01*
X0031421Y0116988D01*
X0031596Y0116988D01*
X0029055Y0115294D02*
X0024545Y0115294D01*
X0025790Y0113696D02*
X0027810Y0113696D01*
X0027388Y0112097D02*
X0026212Y0112097D01*
X0026036Y0110499D02*
X0027564Y0110499D01*
X0028460Y0108900D02*
X0025139Y0108900D01*
X0023905Y0105703D02*
X0029695Y0105703D01*
X0029301Y0105540D02*
X0028060Y0104299D01*
X0027388Y0102678D01*
X0027388Y0100922D01*
X0028060Y0099301D01*
X0029301Y0098060D01*
X0030922Y0097388D01*
X0032678Y0097388D01*
X0034299Y0098060D01*
X0035540Y0099301D01*
X0036212Y0100922D01*
X0036212Y0102678D01*
X0035540Y0104299D01*
X0034299Y0105540D01*
X0032678Y0106212D01*
X0030922Y0106212D01*
X0029301Y0105540D01*
X0027979Y0104105D02*
X0025621Y0104105D01*
X0026212Y0102506D02*
X0027388Y0102506D01*
X0027394Y0100908D02*
X0026206Y0100908D01*
X0025544Y0099309D02*
X0028056Y0099309D01*
X0030144Y0097711D02*
X0023456Y0097711D01*
X0023936Y0096112D02*
X0030682Y0096112D01*
X0032918Y0096112D02*
X0064377Y0096112D01*
X0065975Y0094514D02*
X0035326Y0094514D01*
X0033456Y0097711D02*
X0062778Y0097711D01*
X0061180Y0099309D02*
X0035544Y0099309D01*
X0036206Y0100908D02*
X0059581Y0100908D01*
X0057983Y0102506D02*
X0036212Y0102506D01*
X0035621Y0104105D02*
X0056384Y0104105D01*
X0054785Y0105703D02*
X0033905Y0105703D01*
X0043596Y0116893D02*
X0004600Y0116893D01*
X0004600Y0118491D02*
X0018869Y0118491D01*
X0019301Y0118060D02*
X0018060Y0119301D01*
X0017388Y0120922D01*
X0017388Y0122678D01*
X0018060Y0124299D01*
X0019301Y0125540D01*
X0020922Y0126212D01*
X0022678Y0126212D01*
X0024299Y0125540D01*
X0025540Y0124299D01*
X0026212Y0122678D01*
X0026212Y0120922D01*
X0025540Y0119301D01*
X0024299Y0118060D01*
X0022678Y0117388D01*
X0020922Y0117388D01*
X0019301Y0118060D01*
X0017733Y0120090D02*
X0004600Y0120090D01*
X0004600Y0121688D02*
X0017388Y0121688D01*
X0017641Y0123287D02*
X0004600Y0123287D01*
X0004600Y0124885D02*
X0018646Y0124885D01*
X0019301Y0128060D02*
X0020922Y0127388D01*
X0022678Y0127388D01*
X0024299Y0128060D01*
X0025540Y0129301D01*
X0026212Y0130922D01*
X0026212Y0132678D01*
X0025540Y0134299D01*
X0024299Y0135540D01*
X0022678Y0136212D01*
X0020922Y0136212D01*
X0019301Y0135540D01*
X0018060Y0134299D01*
X0017388Y0132678D01*
X0017388Y0130922D01*
X0018060Y0129301D01*
X0019301Y0128060D01*
X0019278Y0128082D02*
X0004600Y0128082D01*
X0004600Y0126484D02*
X0030644Y0126484D01*
X0031596Y0126484D02*
X0032004Y0126484D01*
X0032956Y0126484D02*
X0034005Y0126484D01*
X0035506Y0124885D02*
X0035603Y0124885D01*
X0036376Y0123287D02*
X0037202Y0123287D01*
X0038800Y0121688D02*
X0032004Y0121688D01*
X0031596Y0121688D02*
X0026212Y0121688D01*
X0025959Y0123287D02*
X0027224Y0123287D01*
X0028094Y0124885D02*
X0024954Y0124885D01*
X0024322Y0128082D02*
X0029278Y0128082D01*
X0027902Y0129681D02*
X0025698Y0129681D01*
X0026212Y0131279D02*
X0027388Y0131279D01*
X0027471Y0132878D02*
X0026129Y0132878D01*
X0025363Y0134476D02*
X0028237Y0134476D01*
X0030592Y0136075D02*
X0023008Y0136075D01*
X0022678Y0137388D02*
X0024299Y0138060D01*
X0025540Y0139301D01*
X0026212Y0140922D01*
X0026212Y0142678D01*
X0025540Y0144299D01*
X0024299Y0145540D01*
X0022678Y0146212D01*
X0020922Y0146212D01*
X0019301Y0145540D01*
X0018060Y0144299D01*
X0017388Y0142678D01*
X0017388Y0140922D01*
X0018060Y0139301D01*
X0019301Y0138060D01*
X0020922Y0137388D01*
X0022678Y0137388D01*
X0023366Y0137673D02*
X0030234Y0137673D01*
X0030922Y0137388D02*
X0032678Y0137388D01*
X0032977Y0137512D01*
X0044600Y0125889D01*
X0045889Y0124600D01*
X0194218Y0124600D01*
X0194885Y0123934D01*
X0196127Y0123419D01*
X0197473Y0123419D01*
X0198715Y0123934D01*
X0199666Y0124885D01*
X0200181Y0126127D01*
X0200181Y0127473D01*
X0199666Y0128715D01*
X0198715Y0129666D01*
X0197473Y0130181D01*
X0196127Y0130181D01*
X0194885Y0129666D01*
X0194218Y0129000D01*
X0047711Y0129000D01*
X0036088Y0140623D01*
X0036212Y0140922D01*
X0036212Y0142678D01*
X0035540Y0144299D01*
X0034299Y0145540D01*
X0032678Y0146212D01*
X0030922Y0146212D01*
X0029301Y0145540D01*
X0028060Y0144299D01*
X0027388Y0142678D01*
X0027388Y0140922D01*
X0028060Y0139301D01*
X0029301Y0138060D01*
X0030922Y0137388D01*
X0033008Y0136075D02*
X0034414Y0136075D01*
X0035363Y0134476D02*
X0036012Y0134476D01*
X0036129Y0132878D02*
X0037611Y0132878D01*
X0036212Y0131279D02*
X0039209Y0131279D01*
X0040808Y0129681D02*
X0037030Y0129681D01*
X0038629Y0128082D02*
X0042406Y0128082D01*
X0044005Y0126484D02*
X0040227Y0126484D01*
X0041826Y0124885D02*
X0045603Y0124885D01*
X0046800Y0126800D02*
X0196800Y0126800D01*
X0194920Y0129681D02*
X0047030Y0129681D01*
X0045432Y0131279D02*
X0229600Y0131279D01*
X0229600Y0129681D02*
X0198680Y0129681D01*
X0199928Y0128082D02*
X0229600Y0128082D01*
X0229600Y0126484D02*
X0200181Y0126484D01*
X0199667Y0124885D02*
X0229600Y0124885D01*
X0229600Y0123287D02*
X0043424Y0123287D01*
X0045023Y0121688D02*
X0229600Y0121688D01*
X0229600Y0120090D02*
X0046621Y0120090D01*
X0048220Y0118491D02*
X0229600Y0118491D01*
X0229600Y0116893D02*
X0049818Y0116893D01*
X0051417Y0115294D02*
X0229600Y0115294D01*
X0229600Y0113696D02*
X0190541Y0113696D01*
X0189973Y0113931D02*
X0188627Y0113931D01*
X0187385Y0113416D01*
X0186718Y0112750D01*
X0064382Y0112750D01*
X0063715Y0113416D01*
X0062473Y0113931D01*
X0061127Y0113931D01*
X0059885Y0113416D01*
X0058934Y0112465D01*
X0058419Y0111223D01*
X0058419Y0109877D01*
X0058934Y0108635D01*
X0059885Y0107684D01*
X0061127Y0107169D01*
X0062473Y0107169D01*
X0063715Y0107684D01*
X0064382Y0108350D01*
X0186718Y0108350D01*
X0187385Y0107684D01*
X0188627Y0107169D01*
X0189973Y0107169D01*
X0191215Y0107684D01*
X0192166Y0108635D01*
X0192681Y0109877D01*
X0192681Y0111223D01*
X0192166Y0112465D01*
X0191215Y0113416D01*
X0189973Y0113931D01*
X0188059Y0113696D02*
X0063041Y0113696D01*
X0060559Y0113696D02*
X0053015Y0113696D01*
X0054614Y0112097D02*
X0058781Y0112097D01*
X0058419Y0110499D02*
X0056212Y0110499D01*
X0057811Y0108900D02*
X0058824Y0108900D01*
X0059410Y0107302D02*
X0060807Y0107302D01*
X0061008Y0105703D02*
X0228722Y0105703D01*
X0228934Y0106215D02*
X0228419Y0104973D01*
X0228419Y0103627D01*
X0228934Y0102385D01*
X0229885Y0101434D01*
X0231127Y0100919D01*
X0232473Y0100919D01*
X0233715Y0101434D01*
X0234666Y0102385D01*
X0235181Y0103627D01*
X0235181Y0104973D01*
X0234666Y0106215D01*
X0234000Y0106882D01*
X0234000Y0144218D01*
X0234666Y0144885D01*
X0235181Y0146127D01*
X0235181Y0147473D01*
X0234666Y0148715D01*
X0233715Y0149666D01*
X0232473Y0150181D01*
X0231127Y0150181D01*
X0229885Y0149666D01*
X0228934Y0148715D01*
X0228419Y0147473D01*
X0228419Y0146127D01*
X0228934Y0144885D01*
X0229600Y0144218D01*
X0229600Y0106882D01*
X0228934Y0106215D01*
X0229600Y0107302D02*
X0190293Y0107302D01*
X0188307Y0107302D02*
X0062793Y0107302D01*
X0062607Y0104105D02*
X0228419Y0104105D01*
X0228883Y0102506D02*
X0064205Y0102506D01*
X0065804Y0100908D02*
X0268921Y0100908D01*
X0268921Y0102506D02*
X0234717Y0102506D01*
X0235181Y0104105D02*
X0268921Y0104105D01*
X0268921Y0105703D02*
X0234878Y0105703D01*
X0234000Y0107302D02*
X0268921Y0107302D01*
X0268921Y0108900D02*
X0234000Y0108900D01*
X0234000Y0110499D02*
X0268921Y0110499D01*
X0268921Y0112097D02*
X0234000Y0112097D01*
X0234000Y0113696D02*
X0268921Y0113696D01*
X0268921Y0115294D02*
X0234000Y0115294D01*
X0234000Y0116893D02*
X0268921Y0116893D01*
X0268921Y0118491D02*
X0253162Y0118491D01*
X0252512Y0118222D02*
X0253827Y0118767D01*
X0254833Y0119773D01*
X0255378Y0121088D01*
X0255378Y0122512D01*
X0254833Y0123827D01*
X0253827Y0124833D01*
X0252512Y0125378D01*
X0251088Y0125378D01*
X0249773Y0124833D01*
X0248767Y0123827D01*
X0248222Y0122512D01*
X0248222Y0121088D01*
X0248767Y0119773D01*
X0249773Y0118767D01*
X0251088Y0118222D01*
X0252512Y0118222D01*
X0250438Y0118491D02*
X0234000Y0118491D01*
X0234000Y0120090D02*
X0248636Y0120090D01*
X0248222Y0121688D02*
X0234000Y0121688D01*
X0234000Y0123287D02*
X0248543Y0123287D01*
X0249899Y0124885D02*
X0234000Y0124885D01*
X0234000Y0126484D02*
X0268921Y0126484D01*
X0268921Y0128082D02*
X0234000Y0128082D01*
X0234000Y0129681D02*
X0248859Y0129681D01*
X0248767Y0129773D02*
X0249773Y0128767D01*
X0251088Y0128222D01*
X0252512Y0128222D01*
X0253827Y0128767D01*
X0254833Y0129773D01*
X0255378Y0131088D01*
X0255378Y0132512D01*
X0254833Y0133827D01*
X0253827Y0134833D01*
X0252512Y0135378D01*
X0251088Y0135378D01*
X0249773Y0134833D01*
X0248767Y0133827D01*
X0248222Y0132512D01*
X0248222Y0131088D01*
X0248767Y0129773D01*
X0248222Y0131279D02*
X0234000Y0131279D01*
X0234000Y0132878D02*
X0248374Y0132878D01*
X0249416Y0134476D02*
X0234000Y0134476D01*
X0234000Y0136075D02*
X0268921Y0136075D01*
X0268921Y0137673D02*
X0234000Y0137673D01*
X0234000Y0139272D02*
X0249268Y0139272D01*
X0248767Y0139773D02*
X0249773Y0138767D01*
X0251088Y0138222D01*
X0252512Y0138222D01*
X0253827Y0138767D01*
X0254833Y0139773D01*
X0255378Y0141088D01*
X0255378Y0142512D01*
X0254833Y0143827D01*
X0253827Y0144833D01*
X0252512Y0145378D01*
X0251088Y0145378D01*
X0249773Y0144833D01*
X0248767Y0143827D01*
X0248222Y0142512D01*
X0248222Y0141088D01*
X0248767Y0139773D01*
X0248312Y0140870D02*
X0234000Y0140870D01*
X0234000Y0142469D02*
X0248222Y0142469D01*
X0249008Y0144068D02*
X0234000Y0144068D01*
X0234990Y0145666D02*
X0268921Y0145666D01*
X0268921Y0144068D02*
X0254592Y0144068D01*
X0255378Y0142469D02*
X0268921Y0142469D01*
X0268921Y0140870D02*
X0255288Y0140870D01*
X0254332Y0139272D02*
X0268921Y0139272D01*
X0268921Y0134476D02*
X0254184Y0134476D01*
X0255226Y0132878D02*
X0268921Y0132878D01*
X0268921Y0131279D02*
X0255378Y0131279D01*
X0254741Y0129681D02*
X0268921Y0129681D01*
X0268921Y0124885D02*
X0253701Y0124885D01*
X0255057Y0123287D02*
X0268921Y0123287D01*
X0268921Y0121688D02*
X0255378Y0121688D01*
X0254964Y0120090D02*
X0268921Y0120090D01*
X0268921Y0099309D02*
X0187581Y0099309D01*
X0186019Y0099309D02*
X0067402Y0099309D01*
X0067627Y0095973D02*
X0186800Y0095973D01*
X0189740Y0097711D02*
X0268921Y0097711D01*
X0236800Y0071800D02*
X0226800Y0061800D01*
X0208369Y0025778D02*
X0207039Y0025778D01*
X0207039Y0024179D02*
X0207115Y0024179D01*
X0207039Y0019384D02*
X0207131Y0019384D01*
X0207039Y0017785D02*
X0208406Y0017785D01*
X0177028Y0014588D02*
X0175200Y0014588D01*
X0175200Y0012990D02*
X0175920Y0012990D01*
X0175722Y0011391D02*
X0175378Y0011391D01*
X0174841Y0009793D02*
X0176259Y0009793D01*
X0168400Y0012990D02*
X0123522Y0012990D01*
X0123511Y0012984D02*
X0124136Y0013303D01*
X0124704Y0013715D01*
X0125200Y0014211D01*
X0125612Y0014779D01*
X0125931Y0015404D01*
X0126148Y0016071D01*
X0126257Y0016764D01*
X0126257Y0017029D01*
X0121886Y0017029D01*
X0121886Y0017201D01*
X0121714Y0017201D01*
X0121714Y0017029D01*
X0121886Y0017029D01*
X0121886Y0012657D01*
X0122151Y0012657D01*
X0122844Y0012767D01*
X0123511Y0012984D01*
X0121886Y0012990D02*
X0121714Y0012990D01*
X0121714Y0014588D02*
X0121886Y0014588D01*
X0121886Y0016187D02*
X0121714Y0016187D01*
X0121886Y0017201D02*
X0126257Y0017201D01*
X0126257Y0017466D01*
X0126148Y0018159D01*
X0125931Y0018826D01*
X0125612Y0019451D01*
X0125200Y0020019D01*
X0124704Y0020515D01*
X0124136Y0020927D01*
X0123511Y0021246D01*
X0122844Y0021463D01*
X0122151Y0021572D01*
X0121886Y0021572D01*
X0121886Y0017201D01*
X0121886Y0017785D02*
X0121714Y0017785D01*
X0121714Y0019384D02*
X0121886Y0019384D01*
X0121886Y0020982D02*
X0121714Y0020982D01*
X0124029Y0020982D02*
X0168400Y0020982D01*
X0168400Y0019384D02*
X0125647Y0019384D01*
X0126207Y0017785D02*
X0168400Y0017785D01*
X0168400Y0016187D02*
X0126166Y0016187D01*
X0125474Y0014588D02*
X0168400Y0014588D01*
X0168400Y0028975D02*
X0035214Y0028975D01*
X0035540Y0029301D02*
X0036212Y0030922D01*
X0036212Y0032678D01*
X0035540Y0034299D01*
X0034299Y0035540D01*
X0032678Y0036212D01*
X0030922Y0036212D01*
X0029301Y0035540D01*
X0028060Y0034299D01*
X0027388Y0032678D01*
X0027388Y0030922D01*
X0028060Y0029301D01*
X0029301Y0028060D01*
X0030922Y0027388D01*
X0032678Y0027388D01*
X0034299Y0028060D01*
X0035540Y0029301D01*
X0036067Y0030573D02*
X0168400Y0030573D01*
X0168400Y0032172D02*
X0036212Y0032172D01*
X0035759Y0033770D02*
X0117743Y0033770D01*
X0117743Y0035369D02*
X0034470Y0035369D01*
X0034805Y0038566D02*
X0117743Y0038566D01*
X0117743Y0036967D02*
X0004600Y0036967D01*
X0004600Y0035369D02*
X0019130Y0035369D01*
X0017841Y0033770D02*
X0004600Y0033770D01*
X0004600Y0032172D02*
X0017388Y0032172D01*
X0017533Y0030573D02*
X0004600Y0030573D01*
X0004600Y0028975D02*
X0018386Y0028975D01*
X0017612Y0024179D02*
X0004600Y0024179D01*
X0004600Y0022581D02*
X0017052Y0022581D01*
X0017058Y0020982D02*
X0004600Y0020982D01*
X0004600Y0019384D02*
X0017631Y0019384D01*
X0024460Y0017785D02*
X0029964Y0017785D01*
X0029301Y0018060D02*
X0030922Y0017388D01*
X0032678Y0017388D01*
X0034299Y0018060D01*
X0035540Y0019301D01*
X0036212Y0020922D01*
X0036212Y0022678D01*
X0035540Y0024299D01*
X0034299Y0025540D01*
X0032678Y0026212D01*
X0030922Y0026212D01*
X0029301Y0025540D01*
X0028060Y0024299D01*
X0027388Y0022678D01*
X0027388Y0020922D01*
X0028060Y0019301D01*
X0029301Y0018060D01*
X0028026Y0019384D02*
X0025969Y0019384D01*
X0026542Y0020982D02*
X0027388Y0020982D01*
X0027388Y0022581D02*
X0026548Y0022581D01*
X0025988Y0024179D02*
X0028010Y0024179D01*
X0029874Y0025778D02*
X0024512Y0025778D01*
X0025214Y0028975D02*
X0028386Y0028975D01*
X0027533Y0030573D02*
X0026067Y0030573D01*
X0026212Y0032172D02*
X0027388Y0032172D01*
X0027841Y0033770D02*
X0025759Y0033770D01*
X0024470Y0035369D02*
X0029130Y0035369D01*
X0028795Y0038566D02*
X0024805Y0038566D01*
X0025898Y0040164D02*
X0027702Y0040164D01*
X0027388Y0041763D02*
X0026212Y0041763D01*
X0025929Y0043361D02*
X0027671Y0043361D01*
X0028721Y0044960D02*
X0024879Y0044960D01*
X0024396Y0048157D02*
X0028638Y0048157D01*
X0028665Y0048130D02*
X0029278Y0047685D01*
X0029953Y0047341D01*
X0030673Y0047107D01*
X0031421Y0046988D01*
X0031596Y0046988D01*
X0031596Y0051596D01*
X0032004Y0051596D01*
X0032004Y0052004D01*
X0031596Y0052004D01*
X0031596Y0051596D01*
X0026988Y0051596D01*
X0026988Y0051421D01*
X0027107Y0050673D01*
X0027341Y0049953D01*
X0027685Y0049278D01*
X0028130Y0048665D01*
X0028665Y0048130D01*
X0027441Y0049755D02*
X0025728Y0049755D01*
X0026212Y0051354D02*
X0026999Y0051354D01*
X0027115Y0052952D02*
X0026098Y0052952D01*
X0023038Y0056149D02*
X0022828Y0056149D01*
X0026800Y0056800D02*
X0021800Y0051800D01*
X0026800Y0056800D02*
X0026800Y0084300D01*
X0029300Y0086800D01*
X0054300Y0086800D01*
X0052510Y0089718D02*
X0035713Y0089718D01*
X0027887Y0089718D02*
X0026140Y0089718D01*
X0026259Y0089953D02*
X0026493Y0090673D01*
X0026612Y0091421D01*
X0026612Y0091596D01*
X0022004Y0091596D01*
X0022004Y0086988D01*
X0022179Y0086988D01*
X0022927Y0087107D01*
X0023647Y0087341D01*
X0024322Y0087685D01*
X0024935Y0088130D01*
X0025470Y0088665D01*
X0025915Y0089278D01*
X0026259Y0089953D01*
X0026595Y0091317D02*
X0027388Y0091317D01*
X0027487Y0092915D02*
X0026495Y0092915D01*
X0025776Y0094514D02*
X0028274Y0094514D01*
X0022004Y0094514D02*
X0021596Y0094514D01*
X0021596Y0096112D02*
X0022004Y0096112D01*
X0022004Y0092915D02*
X0021596Y0092915D01*
X0021596Y0091317D02*
X0022004Y0091317D01*
X0022004Y0089718D02*
X0021596Y0089718D01*
X0021596Y0088120D02*
X0022004Y0088120D01*
X0024921Y0088120D02*
X0027508Y0088120D01*
X0025910Y0086521D02*
X0004600Y0086521D01*
X0029000Y0076930D02*
X0148692Y0076930D01*
X0148174Y0056149D02*
X0033863Y0056149D01*
X0033647Y0056259D02*
X0032927Y0056493D01*
X0032179Y0056612D01*
X0032004Y0056612D01*
X0032004Y0052004D01*
X0036612Y0052004D01*
X0036612Y0052179D01*
X0036493Y0052927D01*
X0036259Y0053647D01*
X0035915Y0054322D01*
X0035470Y0054935D01*
X0034935Y0055470D01*
X0034322Y0055915D01*
X0033647Y0056259D01*
X0032004Y0056149D02*
X0031596Y0056149D01*
X0031596Y0054551D02*
X0032004Y0054551D01*
X0032004Y0052952D02*
X0031596Y0052952D01*
X0032004Y0051596D02*
X0036612Y0051596D01*
X0036612Y0051421D01*
X0036493Y0050673D01*
X0036259Y0049953D01*
X0035915Y0049278D01*
X0035470Y0048665D01*
X0034935Y0048130D01*
X0034322Y0047685D01*
X0033647Y0047341D01*
X0032927Y0047107D01*
X0032179Y0046988D01*
X0032004Y0046988D01*
X0032004Y0051596D01*
X0032004Y0051354D02*
X0031596Y0051354D01*
X0031596Y0049755D02*
X0032004Y0049755D01*
X0032004Y0048157D02*
X0031596Y0048157D01*
X0034962Y0048157D02*
X0153135Y0048157D01*
X0151536Y0049755D02*
X0036159Y0049755D01*
X0036601Y0051354D02*
X0149008Y0051354D01*
X0147966Y0052952D02*
X0036485Y0052952D01*
X0035749Y0054551D02*
X0147743Y0054551D01*
X0192276Y0108900D02*
X0229600Y0108900D01*
X0229600Y0110499D02*
X0192681Y0110499D01*
X0192319Y0112097D02*
X0229600Y0112097D01*
X0231800Y0104300D02*
X0231800Y0146800D01*
X0228610Y0145666D02*
X0033995Y0145666D01*
X0033413Y0147265D02*
X0228419Y0147265D01*
X0229081Y0148863D02*
X0035614Y0148863D01*
X0035470Y0148665D02*
X0035915Y0149278D01*
X0036259Y0149953D01*
X0036493Y0150673D01*
X0036612Y0151421D01*
X0036612Y0151596D01*
X0032004Y0151596D01*
X0032004Y0152004D01*
X0036612Y0152004D01*
X0036612Y0152179D01*
X0036493Y0152927D01*
X0036259Y0153647D01*
X0035915Y0154322D01*
X0035470Y0154935D01*
X0034935Y0155470D01*
X0034322Y0155915D01*
X0033647Y0156259D01*
X0032927Y0156493D01*
X0032179Y0156612D01*
X0032004Y0156612D01*
X0032004Y0152004D01*
X0031596Y0152004D01*
X0031596Y0156612D01*
X0031421Y0156612D01*
X0030673Y0156493D01*
X0029953Y0156259D01*
X0029278Y0155915D01*
X0028665Y0155470D01*
X0028130Y0154935D01*
X0027685Y0154322D01*
X0027341Y0153647D01*
X0027107Y0152927D01*
X0026988Y0152179D01*
X0026988Y0152004D01*
X0031596Y0152004D01*
X0031596Y0151596D01*
X0032004Y0151596D01*
X0032004Y0146988D01*
X0032179Y0146988D01*
X0032927Y0147107D01*
X0033647Y0147341D01*
X0034322Y0147685D01*
X0034935Y0148130D01*
X0035470Y0148665D01*
X0036425Y0150462D02*
X0248049Y0150462D01*
X0247975Y0150640D02*
X0248275Y0149916D01*
X0248710Y0149264D01*
X0249264Y0148710D01*
X0249916Y0148275D01*
X0250640Y0147975D01*
X0251408Y0147822D01*
X0251800Y0147822D01*
X0252192Y0147822D01*
X0252960Y0147975D01*
X0253684Y0148275D01*
X0254336Y0148710D01*
X0254890Y0149264D01*
X0255325Y0149916D01*
X0255625Y0150640D01*
X0255778Y0151408D01*
X0255778Y0151800D01*
X0255778Y0152192D01*
X0255625Y0152960D01*
X0255325Y0153684D01*
X0254890Y0154336D01*
X0254336Y0154890D01*
X0253684Y0155325D01*
X0252960Y0155625D01*
X0252192Y0155778D01*
X0251800Y0155778D01*
X0251800Y0151800D01*
X0255778Y0151800D01*
X0251800Y0151800D01*
X0251800Y0151800D01*
X0251800Y0151800D01*
X0251800Y0147822D01*
X0251800Y0151800D01*
X0251800Y0151800D01*
X0251800Y0151800D01*
X0247822Y0151800D01*
X0247822Y0152192D01*
X0247975Y0152960D01*
X0248275Y0153684D01*
X0248710Y0154336D01*
X0249264Y0154890D01*
X0249916Y0155325D01*
X0250640Y0155625D01*
X0251408Y0155778D01*
X0251800Y0155778D01*
X0251800Y0151800D01*
X0247822Y0151800D01*
X0247822Y0151408D01*
X0247975Y0150640D01*
X0247822Y0152060D02*
X0036612Y0152060D01*
X0036253Y0153659D02*
X0248264Y0153659D01*
X0249814Y0155257D02*
X0035148Y0155257D01*
X0034299Y0158060D02*
X0032678Y0157388D01*
X0030922Y0157388D01*
X0029301Y0158060D01*
X0028060Y0159301D01*
X0027388Y0160922D01*
X0027388Y0162678D01*
X0028060Y0164299D01*
X0029301Y0165540D01*
X0030922Y0166212D01*
X0032678Y0166212D01*
X0034299Y0165540D01*
X0035540Y0164299D01*
X0036212Y0162678D01*
X0036212Y0160922D01*
X0035540Y0159301D01*
X0034299Y0158060D01*
X0034693Y0158454D02*
X0268921Y0158454D01*
X0268921Y0156856D02*
X0004600Y0156856D01*
X0004600Y0158454D02*
X0018907Y0158454D01*
X0019301Y0158060D02*
X0018060Y0159301D01*
X0017388Y0160922D01*
X0017388Y0162678D01*
X0018060Y0164299D01*
X0019301Y0165540D01*
X0020922Y0166212D01*
X0022678Y0166212D01*
X0024299Y0165540D01*
X0025540Y0164299D01*
X0026212Y0162678D01*
X0026212Y0160922D01*
X0025540Y0159301D01*
X0024299Y0158060D01*
X0022678Y0157388D01*
X0020922Y0157388D01*
X0019301Y0158060D01*
X0020922Y0156212D02*
X0019301Y0155540D01*
X0018060Y0154299D01*
X0017388Y0152678D01*
X0017388Y0150922D01*
X0018060Y0149301D01*
X0019301Y0148060D01*
X0020922Y0147388D01*
X0022678Y0147388D01*
X0024299Y0148060D01*
X0025540Y0149301D01*
X0026212Y0150922D01*
X0026212Y0152678D01*
X0025540Y0154299D01*
X0024299Y0155540D01*
X0022678Y0156212D01*
X0020922Y0156212D01*
X0019018Y0155257D02*
X0004600Y0155257D01*
X0004600Y0153659D02*
X0017795Y0153659D01*
X0017388Y0152060D02*
X0004600Y0152060D01*
X0004600Y0150462D02*
X0017579Y0150462D01*
X0018498Y0148863D02*
X0004600Y0148863D01*
X0004600Y0147265D02*
X0030187Y0147265D01*
X0029953Y0147341D02*
X0030673Y0147107D01*
X0031421Y0146988D01*
X0031596Y0146988D01*
X0031596Y0151596D01*
X0026988Y0151596D01*
X0026988Y0151421D01*
X0027107Y0150673D01*
X0027341Y0149953D01*
X0027685Y0149278D01*
X0028130Y0148665D01*
X0028665Y0148130D01*
X0029278Y0147685D01*
X0029953Y0147341D01*
X0031596Y0147265D02*
X0032004Y0147265D01*
X0032004Y0148863D02*
X0031596Y0148863D01*
X0031596Y0150462D02*
X0032004Y0150462D01*
X0032004Y0152060D02*
X0031596Y0152060D01*
X0031596Y0153659D02*
X0032004Y0153659D01*
X0032004Y0155257D02*
X0031596Y0155257D01*
X0028452Y0155257D02*
X0024582Y0155257D01*
X0025805Y0153659D02*
X0027347Y0153659D01*
X0026988Y0152060D02*
X0026212Y0152060D01*
X0026021Y0150462D02*
X0027175Y0150462D01*
X0027986Y0148863D02*
X0025102Y0148863D01*
X0023995Y0145666D02*
X0029605Y0145666D01*
X0027964Y0144068D02*
X0025636Y0144068D01*
X0026212Y0142469D02*
X0027388Y0142469D01*
X0027410Y0140870D02*
X0026190Y0140870D01*
X0025511Y0139272D02*
X0028089Y0139272D01*
X0031800Y0141800D02*
X0046800Y0126800D01*
X0043833Y0132878D02*
X0229600Y0132878D01*
X0229600Y0134476D02*
X0042235Y0134476D01*
X0040636Y0136075D02*
X0229600Y0136075D01*
X0229600Y0137673D02*
X0039038Y0137673D01*
X0037439Y0139272D02*
X0229600Y0139272D01*
X0229600Y0140870D02*
X0036190Y0140870D01*
X0036212Y0142469D02*
X0229600Y0142469D01*
X0229600Y0144068D02*
X0035636Y0144068D01*
X0031800Y0131800D02*
X0067627Y0095973D01*
X0061800Y0110550D02*
X0189300Y0110550D01*
X0235181Y0147265D02*
X0268921Y0147265D01*
X0268921Y0148863D02*
X0254489Y0148863D01*
X0255551Y0150462D02*
X0268921Y0150462D01*
X0268921Y0152060D02*
X0255778Y0152060D01*
X0255336Y0153659D02*
X0268921Y0153659D01*
X0268921Y0155257D02*
X0253786Y0155257D01*
X0251800Y0155257D02*
X0251800Y0155257D01*
X0251800Y0153659D02*
X0251800Y0153659D01*
X0251800Y0152060D02*
X0251800Y0152060D01*
X0251800Y0150462D02*
X0251800Y0150462D01*
X0251800Y0148863D02*
X0251800Y0148863D01*
X0249111Y0148863D02*
X0234519Y0148863D01*
X0268921Y0160053D02*
X0035852Y0160053D01*
X0036212Y0161651D02*
X0268921Y0161651D01*
X0268921Y0163250D02*
X0035975Y0163250D01*
X0034991Y0164848D02*
X0268921Y0164848D01*
X0268921Y0166447D02*
X0004600Y0166447D01*
X0004600Y0168045D02*
X0018782Y0168045D01*
X0018665Y0168130D02*
X0019278Y0167685D01*
X0019953Y0167341D01*
X0020673Y0167107D01*
X0021421Y0166988D01*
X0021596Y0166988D01*
X0021596Y0171596D01*
X0022004Y0171596D01*
X0022004Y0172004D01*
X0026612Y0172004D01*
X0026612Y0172179D01*
X0026493Y0172927D01*
X0026259Y0173647D01*
X0025915Y0174322D01*
X0025470Y0174935D01*
X0024935Y0175470D01*
X0024322Y0175915D01*
X0023647Y0176259D01*
X0022927Y0176493D01*
X0022179Y0176612D01*
X0022004Y0176612D01*
X0022004Y0172004D01*
X0021596Y0172004D01*
X0021596Y0176612D01*
X0021421Y0176612D01*
X0020673Y0176493D01*
X0019953Y0176259D01*
X0019278Y0175915D01*
X0018665Y0175470D01*
X0018130Y0174935D01*
X0017685Y0174322D01*
X0017341Y0173647D01*
X0017107Y0172927D01*
X0016988Y0172179D01*
X0016988Y0172004D01*
X0021596Y0172004D01*
X0021596Y0171596D01*
X0016988Y0171596D01*
X0016988Y0171421D01*
X0017107Y0170673D01*
X0017341Y0169953D01*
X0017685Y0169278D01*
X0018130Y0168665D01*
X0018665Y0168130D01*
X0017498Y0169644D02*
X0004600Y0169644D01*
X0004600Y0171242D02*
X0017017Y0171242D01*
X0017093Y0172841D02*
X0004600Y0172841D01*
X0004600Y0174439D02*
X0017770Y0174439D01*
X0019518Y0176038D02*
X0004600Y0176038D01*
X0004600Y0177636D02*
X0020324Y0177636D01*
X0020922Y0177388D02*
X0022678Y0177388D01*
X0024299Y0178060D01*
X0025540Y0179301D01*
X0026212Y0180922D01*
X0026212Y0182678D01*
X0025540Y0184299D01*
X0024299Y0185540D01*
X0022678Y0186212D01*
X0020922Y0186212D01*
X0019301Y0185540D01*
X0018060Y0184299D01*
X0017388Y0182678D01*
X0017388Y0180922D01*
X0018060Y0179301D01*
X0019301Y0178060D01*
X0020922Y0177388D01*
X0021596Y0176038D02*
X0022004Y0176038D01*
X0022004Y0174439D02*
X0021596Y0174439D01*
X0021596Y0172841D02*
X0022004Y0172841D01*
X0022004Y0171596D02*
X0026612Y0171596D01*
X0026612Y0171421D01*
X0026493Y0170673D01*
X0026259Y0169953D01*
X0025915Y0169278D01*
X0025470Y0168665D01*
X0024935Y0168130D01*
X0024322Y0167685D01*
X0023647Y0167341D01*
X0022927Y0167107D01*
X0022179Y0166988D01*
X0022004Y0166988D01*
X0022004Y0171596D01*
X0022004Y0171242D02*
X0021596Y0171242D01*
X0021596Y0169644D02*
X0022004Y0169644D01*
X0022004Y0168045D02*
X0021596Y0168045D01*
X0018609Y0164848D02*
X0004600Y0164848D01*
X0004600Y0163250D02*
X0017625Y0163250D01*
X0017388Y0161651D02*
X0004600Y0161651D01*
X0004600Y0160053D02*
X0017748Y0160053D01*
X0024693Y0158454D02*
X0028907Y0158454D01*
X0027748Y0160053D02*
X0025852Y0160053D01*
X0026212Y0161651D02*
X0027388Y0161651D01*
X0027625Y0163250D02*
X0025975Y0163250D01*
X0024991Y0164848D02*
X0028609Y0164848D01*
X0029336Y0168045D02*
X0024818Y0168045D01*
X0026102Y0169644D02*
X0027918Y0169644D01*
X0028060Y0169301D02*
X0029301Y0168060D01*
X0030922Y0167388D01*
X0032678Y0167388D01*
X0034299Y0168060D01*
X0035540Y0169301D01*
X0036212Y0170922D01*
X0036212Y0172678D01*
X0035540Y0174299D01*
X0034299Y0175540D01*
X0032678Y0176212D01*
X0030922Y0176212D01*
X0029301Y0175540D01*
X0028060Y0174299D01*
X0027388Y0172678D01*
X0027388Y0170922D01*
X0028060Y0169301D01*
X0027388Y0171242D02*
X0026583Y0171242D01*
X0026507Y0172841D02*
X0027456Y0172841D01*
X0028200Y0174439D02*
X0025830Y0174439D01*
X0024082Y0176038D02*
X0030502Y0176038D01*
X0030922Y0177388D02*
X0032678Y0177388D01*
X0034299Y0178060D01*
X0035540Y0179301D01*
X0036212Y0180922D01*
X0036212Y0182678D01*
X0035540Y0184299D01*
X0034299Y0185540D01*
X0032678Y0186212D01*
X0030922Y0186212D01*
X0029301Y0185540D01*
X0028060Y0184299D01*
X0027388Y0182678D01*
X0027388Y0180922D01*
X0028060Y0179301D01*
X0029301Y0178060D01*
X0030922Y0177388D01*
X0030324Y0177636D02*
X0023276Y0177636D01*
X0025474Y0179235D02*
X0028126Y0179235D01*
X0027425Y0180833D02*
X0026175Y0180833D01*
X0026212Y0182432D02*
X0027388Y0182432D01*
X0027949Y0184030D02*
X0025651Y0184030D01*
X0024085Y0185629D02*
X0029515Y0185629D01*
X0029953Y0187341D02*
X0030673Y0187107D01*
X0031421Y0186988D01*
X0031596Y0186988D01*
X0031596Y0191596D01*
X0032004Y0191596D01*
X0032004Y0192004D01*
X0036612Y0192004D01*
X0036612Y0192179D01*
X0036493Y0192927D01*
X0036259Y0193647D01*
X0035915Y0194322D01*
X0035470Y0194935D01*
X0034935Y0195470D01*
X0034322Y0195915D01*
X0033647Y0196259D01*
X0032927Y0196493D01*
X0032179Y0196612D01*
X0032004Y0196612D01*
X0032004Y0192004D01*
X0031596Y0192004D01*
X0031596Y0196612D01*
X0031421Y0196612D01*
X0030673Y0196493D01*
X0029953Y0196259D01*
X0029278Y0195915D01*
X0028665Y0195470D01*
X0028130Y0194935D01*
X0027685Y0194322D01*
X0027341Y0193647D01*
X0027107Y0192927D01*
X0026988Y0192179D01*
X0026988Y0192004D01*
X0031596Y0192004D01*
X0031596Y0191596D01*
X0026988Y0191596D01*
X0026988Y0191421D01*
X0027107Y0190673D01*
X0027341Y0189953D01*
X0027685Y0189278D01*
X0028130Y0188665D01*
X0028665Y0188130D01*
X0029278Y0187685D01*
X0029953Y0187341D01*
X0030302Y0187227D02*
X0004600Y0187227D01*
X0004600Y0185629D02*
X0019515Y0185629D01*
X0017949Y0184030D02*
X0004600Y0184030D01*
X0004600Y0182432D02*
X0017388Y0182432D01*
X0017425Y0180833D02*
X0004600Y0180833D01*
X0004600Y0179235D02*
X0018126Y0179235D01*
X0020922Y0187388D02*
X0022678Y0187388D01*
X0024299Y0188060D01*
X0025540Y0189301D01*
X0026212Y0190922D01*
X0026212Y0192678D01*
X0025540Y0194299D01*
X0024299Y0195540D01*
X0022678Y0196212D01*
X0020922Y0196212D01*
X0019301Y0195540D01*
X0018060Y0194299D01*
X0017388Y0192678D01*
X0017388Y0190922D01*
X0018060Y0189301D01*
X0019301Y0188060D01*
X0020922Y0187388D01*
X0018535Y0188826D02*
X0004600Y0188826D01*
X0004600Y0190424D02*
X0017595Y0190424D01*
X0017388Y0192023D02*
X0004600Y0192023D01*
X0004600Y0193621D02*
X0017779Y0193621D01*
X0018981Y0195220D02*
X0004600Y0195220D01*
X0004600Y0196818D02*
X0268921Y0196818D01*
X0268921Y0195220D02*
X0035185Y0195220D01*
X0036268Y0193621D02*
X0268921Y0193621D01*
X0268921Y0192023D02*
X0036612Y0192023D01*
X0036612Y0191596D02*
X0032004Y0191596D01*
X0032004Y0186988D01*
X0032179Y0186988D01*
X0032927Y0187107D01*
X0033647Y0187341D01*
X0034322Y0187685D01*
X0034935Y0188130D01*
X0035470Y0188665D01*
X0035915Y0189278D01*
X0036259Y0189953D01*
X0036493Y0190673D01*
X0036612Y0191421D01*
X0036612Y0191596D01*
X0036412Y0190424D02*
X0268921Y0190424D01*
X0268921Y0188826D02*
X0035587Y0188826D01*
X0033298Y0187227D02*
X0268921Y0187227D01*
X0268921Y0185629D02*
X0034085Y0185629D01*
X0035651Y0184030D02*
X0268921Y0184030D01*
X0268921Y0182432D02*
X0036212Y0182432D01*
X0036175Y0180833D02*
X0268921Y0180833D01*
X0268921Y0179235D02*
X0035474Y0179235D01*
X0033276Y0177636D02*
X0268921Y0177636D01*
X0268921Y0176038D02*
X0033098Y0176038D01*
X0035400Y0174439D02*
X0268921Y0174439D01*
X0268921Y0172841D02*
X0036144Y0172841D01*
X0036212Y0171242D02*
X0268921Y0171242D01*
X0268921Y0169644D02*
X0035682Y0169644D01*
X0034264Y0168045D02*
X0268921Y0168045D01*
X0268921Y0198417D02*
X0034656Y0198417D01*
X0034299Y0198060D02*
X0035540Y0199301D01*
X0036212Y0200922D01*
X0036212Y0202678D01*
X0035540Y0204299D01*
X0034299Y0205540D01*
X0032678Y0206212D01*
X0030922Y0206212D01*
X0029301Y0205540D01*
X0028060Y0204299D01*
X0027388Y0202678D01*
X0027388Y0200922D01*
X0028060Y0199301D01*
X0029301Y0198060D01*
X0030922Y0197388D01*
X0032678Y0197388D01*
X0034299Y0198060D01*
X0035836Y0200015D02*
X0268921Y0200015D01*
X0268921Y0201614D02*
X0036212Y0201614D01*
X0035990Y0203212D02*
X0268921Y0203212D01*
X0268921Y0204811D02*
X0035028Y0204811D01*
X0034174Y0208008D02*
X0051420Y0208008D01*
X0052465Y0207575D02*
X0049074Y0208979D01*
X0046479Y0211574D01*
X0045075Y0214965D01*
X0045075Y0218635D01*
X0046479Y0222026D01*
X0049074Y0224621D01*
X0052465Y0226025D01*
X0056135Y0226025D01*
X0059526Y0224621D01*
X0062121Y0222026D01*
X0063525Y0218635D01*
X0063525Y0214965D01*
X0062121Y0211574D01*
X0059526Y0208979D01*
X0056135Y0207575D01*
X0052465Y0207575D01*
X0057180Y0208008D02*
X0081561Y0208008D01*
X0081561Y0207382D02*
X0082382Y0206561D01*
X0091218Y0206561D01*
X0092039Y0207382D01*
X0092039Y0208761D01*
X0092499Y0208127D01*
X0093127Y0207499D01*
X0093845Y0206977D01*
X0094636Y0206575D01*
X0095480Y0206300D01*
X0096320Y0206167D01*
X0096320Y0211320D01*
X0097280Y0211320D01*
X0097280Y0212280D01*
X0096320Y0212280D01*
X0096320Y0217433D01*
X0095480Y0217300D01*
X0094636Y0217025D01*
X0093845Y0216623D01*
X0093127Y0216101D01*
X0092499Y0215473D01*
X0092039Y0214839D01*
X0092039Y0216218D01*
X0091218Y0217039D01*
X0082382Y0217039D01*
X0081561Y0216218D01*
X0081561Y0207382D01*
X0081561Y0209606D02*
X0060153Y0209606D01*
X0061751Y0211205D02*
X0081561Y0211205D01*
X0081561Y0212803D02*
X0062630Y0212803D01*
X0063292Y0214402D02*
X0081561Y0214402D01*
X0081561Y0216001D02*
X0063525Y0216001D01*
X0063525Y0217599D02*
X0247575Y0217599D01*
X0247575Y0218635D02*
X0247575Y0214965D01*
X0248979Y0211574D01*
X0251574Y0208979D01*
X0254965Y0207575D01*
X0258635Y0207575D01*
X0262026Y0208979D01*
X0264621Y0211574D01*
X0266025Y0214965D01*
X0266025Y0218635D01*
X0264621Y0222026D01*
X0262026Y0224621D01*
X0258635Y0226025D01*
X0254965Y0226025D01*
X0251574Y0224621D01*
X0248979Y0222026D01*
X0247575Y0218635D01*
X0247808Y0219198D02*
X0063292Y0219198D01*
X0062630Y0220796D02*
X0248470Y0220796D01*
X0249348Y0222395D02*
X0061752Y0222395D01*
X0060153Y0223993D02*
X0250947Y0223993D01*
X0253919Y0225592D02*
X0057181Y0225592D01*
X0051419Y0225592D02*
X0004600Y0225592D01*
X0004600Y0223993D02*
X0048447Y0223993D01*
X0046848Y0222395D02*
X0004600Y0222395D01*
X0004600Y0220796D02*
X0045970Y0220796D01*
X0045308Y0219198D02*
X0004600Y0219198D01*
X0004600Y0217599D02*
X0045075Y0217599D01*
X0045075Y0216001D02*
X0033188Y0216001D01*
X0032678Y0216212D02*
X0034299Y0215540D01*
X0035540Y0214299D01*
X0036212Y0212678D01*
X0036212Y0210922D01*
X0035540Y0209301D01*
X0034299Y0208060D01*
X0032678Y0207388D01*
X0030922Y0207388D01*
X0029301Y0208060D01*
X0028060Y0209301D01*
X0027388Y0210922D01*
X0027388Y0212678D01*
X0028060Y0214299D01*
X0029301Y0215540D01*
X0030922Y0216212D01*
X0032678Y0216212D01*
X0030412Y0216001D02*
X0025603Y0216001D01*
X0025392Y0216212D02*
X0018208Y0216212D01*
X0017388Y0215392D01*
X0017388Y0208208D01*
X0018208Y0207388D01*
X0025392Y0207388D01*
X0026212Y0208208D01*
X0026212Y0215392D01*
X0025392Y0216212D01*
X0026212Y0214402D02*
X0028163Y0214402D01*
X0027440Y0212803D02*
X0026212Y0212803D01*
X0026212Y0211205D02*
X0027388Y0211205D01*
X0027933Y0209606D02*
X0026212Y0209606D01*
X0026011Y0208008D02*
X0029426Y0208008D01*
X0028572Y0204811D02*
X0025028Y0204811D01*
X0025540Y0204299D02*
X0024299Y0205540D01*
X0022678Y0206212D01*
X0020922Y0206212D01*
X0019301Y0205540D01*
X0018060Y0204299D01*
X0017388Y0202678D01*
X0017388Y0200922D01*
X0018060Y0199301D01*
X0019301Y0198060D01*
X0020922Y0197388D01*
X0022678Y0197388D01*
X0024299Y0198060D01*
X0025540Y0199301D01*
X0026212Y0200922D01*
X0026212Y0202678D01*
X0025540Y0204299D01*
X0025990Y0203212D02*
X0027610Y0203212D01*
X0027388Y0201614D02*
X0026212Y0201614D01*
X0025836Y0200015D02*
X0027764Y0200015D01*
X0028944Y0198417D02*
X0024656Y0198417D01*
X0024619Y0195220D02*
X0028415Y0195220D01*
X0027332Y0193621D02*
X0025821Y0193621D01*
X0026212Y0192023D02*
X0026988Y0192023D01*
X0027188Y0190424D02*
X0026005Y0190424D01*
X0025065Y0188826D02*
X0028013Y0188826D01*
X0031596Y0188826D02*
X0032004Y0188826D01*
X0032004Y0190424D02*
X0031596Y0190424D01*
X0031596Y0192023D02*
X0032004Y0192023D01*
X0032004Y0193621D02*
X0031596Y0193621D01*
X0031596Y0195220D02*
X0032004Y0195220D01*
X0032004Y0187227D02*
X0031596Y0187227D01*
X0018944Y0198417D02*
X0004600Y0198417D01*
X0004600Y0200015D02*
X0017764Y0200015D01*
X0017388Y0201614D02*
X0004600Y0201614D01*
X0004600Y0203212D02*
X0017610Y0203212D01*
X0018572Y0204811D02*
X0004600Y0204811D01*
X0004600Y0206409D02*
X0095144Y0206409D01*
X0096320Y0206409D02*
X0097280Y0206409D01*
X0097280Y0206167D02*
X0098120Y0206300D01*
X0098964Y0206575D01*
X0099755Y0206977D01*
X0100473Y0207499D01*
X0101101Y0208127D01*
X0101623Y0208845D01*
X0102025Y0209636D01*
X0102300Y0210480D01*
X0102433Y0211320D01*
X0097280Y0211320D01*
X0097280Y0206167D01*
X0098456Y0206409D02*
X0135144Y0206409D01*
X0135480Y0206300D02*
X0134636Y0206575D01*
X0133845Y0206977D01*
X0133127Y0207499D01*
X0132499Y0208127D01*
X0132039Y0208761D01*
X0132039Y0207382D01*
X0131218Y0206561D01*
X0122382Y0206561D01*
X0121561Y0207382D01*
X0121561Y0216218D01*
X0122382Y0217039D01*
X0131218Y0217039D01*
X0132039Y0216218D01*
X0132039Y0214839D01*
X0132499Y0215473D01*
X0133127Y0216101D01*
X0133845Y0216623D01*
X0134636Y0217025D01*
X0135480Y0217300D01*
X0136320Y0217433D01*
X0136320Y0212280D01*
X0137280Y0212280D01*
X0137280Y0217433D01*
X0138120Y0217300D01*
X0138964Y0217025D01*
X0139755Y0216623D01*
X0140473Y0216101D01*
X0141101Y0215473D01*
X0141623Y0214755D01*
X0142025Y0213964D01*
X0142300Y0213120D01*
X0142433Y0212280D01*
X0137280Y0212280D01*
X0137280Y0211320D01*
X0142433Y0211320D01*
X0142300Y0210480D01*
X0142025Y0209636D01*
X0141623Y0208845D01*
X0141101Y0208127D01*
X0140473Y0207499D01*
X0139755Y0206977D01*
X0138964Y0206575D01*
X0138120Y0206300D01*
X0137280Y0206167D01*
X0137280Y0211320D01*
X0136320Y0211320D01*
X0136320Y0206167D01*
X0135480Y0206300D01*
X0136320Y0206409D02*
X0137280Y0206409D01*
X0138456Y0206409D02*
X0268921Y0206409D01*
X0268921Y0208008D02*
X0259680Y0208008D01*
X0262653Y0209606D02*
X0268921Y0209606D01*
X0268921Y0211205D02*
X0264251Y0211205D01*
X0265130Y0212803D02*
X0268921Y0212803D01*
X0268921Y0214402D02*
X0265792Y0214402D01*
X0266025Y0216001D02*
X0268921Y0216001D01*
X0268921Y0217599D02*
X0266025Y0217599D01*
X0265792Y0219198D02*
X0268921Y0219198D01*
X0268921Y0220796D02*
X0265130Y0220796D01*
X0264252Y0222395D02*
X0268921Y0222395D01*
X0268921Y0223993D02*
X0262653Y0223993D01*
X0259681Y0225592D02*
X0268921Y0225592D01*
X0250947Y0209606D02*
X0142011Y0209606D01*
X0142415Y0211205D02*
X0249349Y0211205D01*
X0248470Y0212803D02*
X0142350Y0212803D01*
X0141803Y0214402D02*
X0247808Y0214402D01*
X0247575Y0216001D02*
X0140574Y0216001D01*
X0137280Y0216001D02*
X0136320Y0216001D01*
X0136320Y0214402D02*
X0137280Y0214402D01*
X0137280Y0212803D02*
X0136320Y0212803D01*
X0136320Y0211205D02*
X0137280Y0211205D01*
X0137280Y0209606D02*
X0136320Y0209606D01*
X0136320Y0208008D02*
X0137280Y0208008D01*
X0140982Y0208008D02*
X0253920Y0208008D01*
X0133026Y0216001D02*
X0132039Y0216001D01*
X0132039Y0208008D02*
X0132618Y0208008D01*
X0121561Y0208008D02*
X0100982Y0208008D01*
X0102011Y0209606D02*
X0121561Y0209606D01*
X0121561Y0211205D02*
X0102415Y0211205D01*
X0102433Y0212280D02*
X0102300Y0213120D01*
X0102025Y0213964D01*
X0101623Y0214755D01*
X0101101Y0215473D01*
X0100473Y0216101D01*
X0099755Y0216623D01*
X0098964Y0217025D01*
X0098120Y0217300D01*
X0097280Y0217433D01*
X0097280Y0212280D01*
X0102433Y0212280D01*
X0102350Y0212803D02*
X0121561Y0212803D01*
X0121561Y0214402D02*
X0101803Y0214402D01*
X0100574Y0216001D02*
X0121561Y0216001D01*
X0097280Y0216001D02*
X0096320Y0216001D01*
X0096320Y0214402D02*
X0097280Y0214402D01*
X0097280Y0212803D02*
X0096320Y0212803D01*
X0096320Y0211205D02*
X0097280Y0211205D01*
X0097280Y0209606D02*
X0096320Y0209606D01*
X0096320Y0208008D02*
X0097280Y0208008D01*
X0092618Y0208008D02*
X0092039Y0208008D01*
X0092039Y0216001D02*
X0093026Y0216001D01*
X0048447Y0209606D02*
X0035667Y0209606D01*
X0036212Y0211205D02*
X0046849Y0211205D01*
X0045970Y0212803D02*
X0036160Y0212803D01*
X0035437Y0214402D02*
X0045308Y0214402D01*
X0017997Y0216001D02*
X0004600Y0216001D01*
X0004600Y0214402D02*
X0017388Y0214402D01*
X0017388Y0212803D02*
X0004600Y0212803D01*
X0004600Y0211205D02*
X0017388Y0211205D01*
X0017388Y0209606D02*
X0004600Y0209606D01*
X0004600Y0208008D02*
X0017589Y0208008D01*
X0019605Y0145666D02*
X0004600Y0145666D01*
X0004600Y0144068D02*
X0017964Y0144068D01*
X0017388Y0142469D02*
X0004600Y0142469D01*
X0004600Y0140870D02*
X0017410Y0140870D01*
X0018089Y0139272D02*
X0004600Y0139272D01*
X0004600Y0137673D02*
X0020234Y0137673D01*
X0020592Y0136075D02*
X0004600Y0136075D01*
X0004600Y0134476D02*
X0018237Y0134476D01*
X0017471Y0132878D02*
X0004600Y0132878D01*
X0004600Y0131279D02*
X0017388Y0131279D01*
X0017902Y0129681D02*
X0004600Y0129681D01*
X0004600Y0115294D02*
X0019055Y0115294D01*
X0017810Y0113696D02*
X0004600Y0113696D01*
X0004600Y0112097D02*
X0017388Y0112097D01*
X0017564Y0110499D02*
X0004600Y0110499D01*
X0024731Y0118491D02*
X0028304Y0118491D01*
X0027296Y0120090D02*
X0025867Y0120090D01*
X0031596Y0120090D02*
X0032004Y0120090D01*
X0032004Y0123287D02*
X0031596Y0123287D01*
X0031596Y0124885D02*
X0032004Y0124885D01*
X0036304Y0120090D02*
X0040399Y0120090D01*
X0041997Y0118491D02*
X0035296Y0118491D01*
X0017671Y0043361D02*
X0004600Y0043361D01*
X0004600Y0041763D02*
X0017388Y0041763D01*
X0017702Y0040164D02*
X0004600Y0040164D01*
X0004600Y0038566D02*
X0018795Y0038566D01*
X0033726Y0025778D02*
X0051868Y0025778D01*
X0048633Y0024179D02*
X0035590Y0024179D01*
X0036212Y0022581D02*
X0047035Y0022581D01*
X0046047Y0020982D02*
X0036212Y0020982D01*
X0035574Y0019384D02*
X0045385Y0019384D01*
X0045075Y0017785D02*
X0033636Y0017785D01*
D18*
X0026800Y0056800D03*
X0054300Y0086800D03*
X0061800Y0110550D03*
X0076800Y0139300D03*
X0086800Y0139300D03*
X0104300Y0171800D03*
X0149300Y0134300D03*
X0149300Y0119300D03*
X0181800Y0091800D03*
X0186800Y0095973D03*
X0189300Y0110550D03*
X0196800Y0126800D03*
X0224300Y0141800D03*
X0231800Y0146800D03*
X0189300Y0161800D03*
X0189300Y0171800D03*
X0166800Y0184300D03*
X0249300Y0186800D03*
X0249300Y0196800D03*
X0231800Y0104300D03*
X0216800Y0096800D03*
X0219300Y0071800D03*
X0226800Y0061800D03*
X0236800Y0071800D03*
D19*
X0084300Y0074300D03*
X0084300Y0079300D03*
X0084300Y0084300D03*
X0079300Y0084300D03*
X0079300Y0079300D03*
X0079300Y0074300D03*
X0079300Y0065550D03*
X0084300Y0065550D03*
X0084300Y0058050D03*
X0079300Y0058050D03*
X0078050Y0049300D03*
X0083050Y0049300D03*
X0083050Y0044300D03*
X0083050Y0039300D03*
X0078050Y0039300D03*
X0078050Y0044300D03*
D20*
X0151800Y0054300D02*
X0171800Y0034300D01*
X0194300Y0034300D01*
X0201800Y0026800D01*
X0201800Y0021800D01*
X0179300Y0046800D02*
X0151800Y0074300D01*
X0171800Y0034300D02*
X0171800Y0011800D01*
M02*
