G75*
%MOIN*%
%OFA0B0*%
%FSLAX25Y25*%
%IPPOS*%
%LPD*%
%AMOC8*
5,1,8,0,0,1.08239X$1,22.5*
%
%ADD10C,0.00000*%
D10*
X0033929Y0049622D02*
X0033929Y0299622D01*
X0303929Y0299622D01*
X0303929Y0049622D01*
X0033929Y0049622D01*
X0082630Y0077122D02*
X0082632Y0077280D01*
X0082638Y0077438D01*
X0082648Y0077596D01*
X0082662Y0077754D01*
X0082680Y0077911D01*
X0082701Y0078068D01*
X0082727Y0078224D01*
X0082757Y0078380D01*
X0082790Y0078535D01*
X0082828Y0078688D01*
X0082869Y0078841D01*
X0082914Y0078993D01*
X0082963Y0079144D01*
X0083016Y0079293D01*
X0083072Y0079441D01*
X0083132Y0079587D01*
X0083196Y0079732D01*
X0083264Y0079875D01*
X0083335Y0080017D01*
X0083409Y0080157D01*
X0083487Y0080294D01*
X0083569Y0080430D01*
X0083653Y0080564D01*
X0083742Y0080695D01*
X0083833Y0080824D01*
X0083928Y0080951D01*
X0084025Y0081076D01*
X0084126Y0081198D01*
X0084230Y0081317D01*
X0084337Y0081434D01*
X0084447Y0081548D01*
X0084560Y0081659D01*
X0084675Y0081768D01*
X0084793Y0081873D01*
X0084914Y0081975D01*
X0085037Y0082075D01*
X0085163Y0082171D01*
X0085291Y0082264D01*
X0085421Y0082354D01*
X0085554Y0082440D01*
X0085689Y0082524D01*
X0085825Y0082603D01*
X0085964Y0082680D01*
X0086105Y0082752D01*
X0086247Y0082822D01*
X0086391Y0082887D01*
X0086537Y0082949D01*
X0086684Y0083007D01*
X0086833Y0083062D01*
X0086983Y0083113D01*
X0087134Y0083160D01*
X0087286Y0083203D01*
X0087439Y0083242D01*
X0087594Y0083278D01*
X0087749Y0083309D01*
X0087905Y0083337D01*
X0088061Y0083361D01*
X0088218Y0083381D01*
X0088376Y0083397D01*
X0088533Y0083409D01*
X0088692Y0083417D01*
X0088850Y0083421D01*
X0089008Y0083421D01*
X0089166Y0083417D01*
X0089325Y0083409D01*
X0089482Y0083397D01*
X0089640Y0083381D01*
X0089797Y0083361D01*
X0089953Y0083337D01*
X0090109Y0083309D01*
X0090264Y0083278D01*
X0090419Y0083242D01*
X0090572Y0083203D01*
X0090724Y0083160D01*
X0090875Y0083113D01*
X0091025Y0083062D01*
X0091174Y0083007D01*
X0091321Y0082949D01*
X0091467Y0082887D01*
X0091611Y0082822D01*
X0091753Y0082752D01*
X0091894Y0082680D01*
X0092033Y0082603D01*
X0092169Y0082524D01*
X0092304Y0082440D01*
X0092437Y0082354D01*
X0092567Y0082264D01*
X0092695Y0082171D01*
X0092821Y0082075D01*
X0092944Y0081975D01*
X0093065Y0081873D01*
X0093183Y0081768D01*
X0093298Y0081659D01*
X0093411Y0081548D01*
X0093521Y0081434D01*
X0093628Y0081317D01*
X0093732Y0081198D01*
X0093833Y0081076D01*
X0093930Y0080951D01*
X0094025Y0080824D01*
X0094116Y0080695D01*
X0094205Y0080564D01*
X0094289Y0080430D01*
X0094371Y0080294D01*
X0094449Y0080157D01*
X0094523Y0080017D01*
X0094594Y0079875D01*
X0094662Y0079732D01*
X0094726Y0079587D01*
X0094786Y0079441D01*
X0094842Y0079293D01*
X0094895Y0079144D01*
X0094944Y0078993D01*
X0094989Y0078841D01*
X0095030Y0078688D01*
X0095068Y0078535D01*
X0095101Y0078380D01*
X0095131Y0078224D01*
X0095157Y0078068D01*
X0095178Y0077911D01*
X0095196Y0077754D01*
X0095210Y0077596D01*
X0095220Y0077438D01*
X0095226Y0077280D01*
X0095228Y0077122D01*
X0095226Y0076964D01*
X0095220Y0076806D01*
X0095210Y0076648D01*
X0095196Y0076490D01*
X0095178Y0076333D01*
X0095157Y0076176D01*
X0095131Y0076020D01*
X0095101Y0075864D01*
X0095068Y0075709D01*
X0095030Y0075556D01*
X0094989Y0075403D01*
X0094944Y0075251D01*
X0094895Y0075100D01*
X0094842Y0074951D01*
X0094786Y0074803D01*
X0094726Y0074657D01*
X0094662Y0074512D01*
X0094594Y0074369D01*
X0094523Y0074227D01*
X0094449Y0074087D01*
X0094371Y0073950D01*
X0094289Y0073814D01*
X0094205Y0073680D01*
X0094116Y0073549D01*
X0094025Y0073420D01*
X0093930Y0073293D01*
X0093833Y0073168D01*
X0093732Y0073046D01*
X0093628Y0072927D01*
X0093521Y0072810D01*
X0093411Y0072696D01*
X0093298Y0072585D01*
X0093183Y0072476D01*
X0093065Y0072371D01*
X0092944Y0072269D01*
X0092821Y0072169D01*
X0092695Y0072073D01*
X0092567Y0071980D01*
X0092437Y0071890D01*
X0092304Y0071804D01*
X0092169Y0071720D01*
X0092033Y0071641D01*
X0091894Y0071564D01*
X0091753Y0071492D01*
X0091611Y0071422D01*
X0091467Y0071357D01*
X0091321Y0071295D01*
X0091174Y0071237D01*
X0091025Y0071182D01*
X0090875Y0071131D01*
X0090724Y0071084D01*
X0090572Y0071041D01*
X0090419Y0071002D01*
X0090264Y0070966D01*
X0090109Y0070935D01*
X0089953Y0070907D01*
X0089797Y0070883D01*
X0089640Y0070863D01*
X0089482Y0070847D01*
X0089325Y0070835D01*
X0089166Y0070827D01*
X0089008Y0070823D01*
X0088850Y0070823D01*
X0088692Y0070827D01*
X0088533Y0070835D01*
X0088376Y0070847D01*
X0088218Y0070863D01*
X0088061Y0070883D01*
X0087905Y0070907D01*
X0087749Y0070935D01*
X0087594Y0070966D01*
X0087439Y0071002D01*
X0087286Y0071041D01*
X0087134Y0071084D01*
X0086983Y0071131D01*
X0086833Y0071182D01*
X0086684Y0071237D01*
X0086537Y0071295D01*
X0086391Y0071357D01*
X0086247Y0071422D01*
X0086105Y0071492D01*
X0085964Y0071564D01*
X0085825Y0071641D01*
X0085689Y0071720D01*
X0085554Y0071804D01*
X0085421Y0071890D01*
X0085291Y0071980D01*
X0085163Y0072073D01*
X0085037Y0072169D01*
X0084914Y0072269D01*
X0084793Y0072371D01*
X0084675Y0072476D01*
X0084560Y0072585D01*
X0084447Y0072696D01*
X0084337Y0072810D01*
X0084230Y0072927D01*
X0084126Y0073046D01*
X0084025Y0073168D01*
X0083928Y0073293D01*
X0083833Y0073420D01*
X0083742Y0073549D01*
X0083653Y0073680D01*
X0083569Y0073814D01*
X0083487Y0073950D01*
X0083409Y0074087D01*
X0083335Y0074227D01*
X0083264Y0074369D01*
X0083196Y0074512D01*
X0083132Y0074657D01*
X0083072Y0074803D01*
X0083016Y0074951D01*
X0082963Y0075100D01*
X0082914Y0075251D01*
X0082869Y0075403D01*
X0082828Y0075556D01*
X0082790Y0075709D01*
X0082757Y0075864D01*
X0082727Y0076020D01*
X0082701Y0076176D01*
X0082680Y0076333D01*
X0082662Y0076490D01*
X0082648Y0076648D01*
X0082638Y0076806D01*
X0082632Y0076964D01*
X0082630Y0077122D01*
X0087630Y0267122D02*
X0087632Y0267280D01*
X0087638Y0267438D01*
X0087648Y0267596D01*
X0087662Y0267754D01*
X0087680Y0267911D01*
X0087701Y0268068D01*
X0087727Y0268224D01*
X0087757Y0268380D01*
X0087790Y0268535D01*
X0087828Y0268688D01*
X0087869Y0268841D01*
X0087914Y0268993D01*
X0087963Y0269144D01*
X0088016Y0269293D01*
X0088072Y0269441D01*
X0088132Y0269587D01*
X0088196Y0269732D01*
X0088264Y0269875D01*
X0088335Y0270017D01*
X0088409Y0270157D01*
X0088487Y0270294D01*
X0088569Y0270430D01*
X0088653Y0270564D01*
X0088742Y0270695D01*
X0088833Y0270824D01*
X0088928Y0270951D01*
X0089025Y0271076D01*
X0089126Y0271198D01*
X0089230Y0271317D01*
X0089337Y0271434D01*
X0089447Y0271548D01*
X0089560Y0271659D01*
X0089675Y0271768D01*
X0089793Y0271873D01*
X0089914Y0271975D01*
X0090037Y0272075D01*
X0090163Y0272171D01*
X0090291Y0272264D01*
X0090421Y0272354D01*
X0090554Y0272440D01*
X0090689Y0272524D01*
X0090825Y0272603D01*
X0090964Y0272680D01*
X0091105Y0272752D01*
X0091247Y0272822D01*
X0091391Y0272887D01*
X0091537Y0272949D01*
X0091684Y0273007D01*
X0091833Y0273062D01*
X0091983Y0273113D01*
X0092134Y0273160D01*
X0092286Y0273203D01*
X0092439Y0273242D01*
X0092594Y0273278D01*
X0092749Y0273309D01*
X0092905Y0273337D01*
X0093061Y0273361D01*
X0093218Y0273381D01*
X0093376Y0273397D01*
X0093533Y0273409D01*
X0093692Y0273417D01*
X0093850Y0273421D01*
X0094008Y0273421D01*
X0094166Y0273417D01*
X0094325Y0273409D01*
X0094482Y0273397D01*
X0094640Y0273381D01*
X0094797Y0273361D01*
X0094953Y0273337D01*
X0095109Y0273309D01*
X0095264Y0273278D01*
X0095419Y0273242D01*
X0095572Y0273203D01*
X0095724Y0273160D01*
X0095875Y0273113D01*
X0096025Y0273062D01*
X0096174Y0273007D01*
X0096321Y0272949D01*
X0096467Y0272887D01*
X0096611Y0272822D01*
X0096753Y0272752D01*
X0096894Y0272680D01*
X0097033Y0272603D01*
X0097169Y0272524D01*
X0097304Y0272440D01*
X0097437Y0272354D01*
X0097567Y0272264D01*
X0097695Y0272171D01*
X0097821Y0272075D01*
X0097944Y0271975D01*
X0098065Y0271873D01*
X0098183Y0271768D01*
X0098298Y0271659D01*
X0098411Y0271548D01*
X0098521Y0271434D01*
X0098628Y0271317D01*
X0098732Y0271198D01*
X0098833Y0271076D01*
X0098930Y0270951D01*
X0099025Y0270824D01*
X0099116Y0270695D01*
X0099205Y0270564D01*
X0099289Y0270430D01*
X0099371Y0270294D01*
X0099449Y0270157D01*
X0099523Y0270017D01*
X0099594Y0269875D01*
X0099662Y0269732D01*
X0099726Y0269587D01*
X0099786Y0269441D01*
X0099842Y0269293D01*
X0099895Y0269144D01*
X0099944Y0268993D01*
X0099989Y0268841D01*
X0100030Y0268688D01*
X0100068Y0268535D01*
X0100101Y0268380D01*
X0100131Y0268224D01*
X0100157Y0268068D01*
X0100178Y0267911D01*
X0100196Y0267754D01*
X0100210Y0267596D01*
X0100220Y0267438D01*
X0100226Y0267280D01*
X0100228Y0267122D01*
X0100226Y0266964D01*
X0100220Y0266806D01*
X0100210Y0266648D01*
X0100196Y0266490D01*
X0100178Y0266333D01*
X0100157Y0266176D01*
X0100131Y0266020D01*
X0100101Y0265864D01*
X0100068Y0265709D01*
X0100030Y0265556D01*
X0099989Y0265403D01*
X0099944Y0265251D01*
X0099895Y0265100D01*
X0099842Y0264951D01*
X0099786Y0264803D01*
X0099726Y0264657D01*
X0099662Y0264512D01*
X0099594Y0264369D01*
X0099523Y0264227D01*
X0099449Y0264087D01*
X0099371Y0263950D01*
X0099289Y0263814D01*
X0099205Y0263680D01*
X0099116Y0263549D01*
X0099025Y0263420D01*
X0098930Y0263293D01*
X0098833Y0263168D01*
X0098732Y0263046D01*
X0098628Y0262927D01*
X0098521Y0262810D01*
X0098411Y0262696D01*
X0098298Y0262585D01*
X0098183Y0262476D01*
X0098065Y0262371D01*
X0097944Y0262269D01*
X0097821Y0262169D01*
X0097695Y0262073D01*
X0097567Y0261980D01*
X0097437Y0261890D01*
X0097304Y0261804D01*
X0097169Y0261720D01*
X0097033Y0261641D01*
X0096894Y0261564D01*
X0096753Y0261492D01*
X0096611Y0261422D01*
X0096467Y0261357D01*
X0096321Y0261295D01*
X0096174Y0261237D01*
X0096025Y0261182D01*
X0095875Y0261131D01*
X0095724Y0261084D01*
X0095572Y0261041D01*
X0095419Y0261002D01*
X0095264Y0260966D01*
X0095109Y0260935D01*
X0094953Y0260907D01*
X0094797Y0260883D01*
X0094640Y0260863D01*
X0094482Y0260847D01*
X0094325Y0260835D01*
X0094166Y0260827D01*
X0094008Y0260823D01*
X0093850Y0260823D01*
X0093692Y0260827D01*
X0093533Y0260835D01*
X0093376Y0260847D01*
X0093218Y0260863D01*
X0093061Y0260883D01*
X0092905Y0260907D01*
X0092749Y0260935D01*
X0092594Y0260966D01*
X0092439Y0261002D01*
X0092286Y0261041D01*
X0092134Y0261084D01*
X0091983Y0261131D01*
X0091833Y0261182D01*
X0091684Y0261237D01*
X0091537Y0261295D01*
X0091391Y0261357D01*
X0091247Y0261422D01*
X0091105Y0261492D01*
X0090964Y0261564D01*
X0090825Y0261641D01*
X0090689Y0261720D01*
X0090554Y0261804D01*
X0090421Y0261890D01*
X0090291Y0261980D01*
X0090163Y0262073D01*
X0090037Y0262169D01*
X0089914Y0262269D01*
X0089793Y0262371D01*
X0089675Y0262476D01*
X0089560Y0262585D01*
X0089447Y0262696D01*
X0089337Y0262810D01*
X0089230Y0262927D01*
X0089126Y0263046D01*
X0089025Y0263168D01*
X0088928Y0263293D01*
X0088833Y0263420D01*
X0088742Y0263549D01*
X0088653Y0263680D01*
X0088569Y0263814D01*
X0088487Y0263950D01*
X0088409Y0264087D01*
X0088335Y0264227D01*
X0088264Y0264369D01*
X0088196Y0264512D01*
X0088132Y0264657D01*
X0088072Y0264803D01*
X0088016Y0264951D01*
X0087963Y0265100D01*
X0087914Y0265251D01*
X0087869Y0265403D01*
X0087828Y0265556D01*
X0087790Y0265709D01*
X0087757Y0265864D01*
X0087727Y0266020D01*
X0087701Y0266176D01*
X0087680Y0266333D01*
X0087662Y0266490D01*
X0087648Y0266648D01*
X0087638Y0266806D01*
X0087632Y0266964D01*
X0087630Y0267122D01*
X0287630Y0207122D02*
X0287632Y0207280D01*
X0287638Y0207438D01*
X0287648Y0207596D01*
X0287662Y0207754D01*
X0287680Y0207911D01*
X0287701Y0208068D01*
X0287727Y0208224D01*
X0287757Y0208380D01*
X0287790Y0208535D01*
X0287828Y0208688D01*
X0287869Y0208841D01*
X0287914Y0208993D01*
X0287963Y0209144D01*
X0288016Y0209293D01*
X0288072Y0209441D01*
X0288132Y0209587D01*
X0288196Y0209732D01*
X0288264Y0209875D01*
X0288335Y0210017D01*
X0288409Y0210157D01*
X0288487Y0210294D01*
X0288569Y0210430D01*
X0288653Y0210564D01*
X0288742Y0210695D01*
X0288833Y0210824D01*
X0288928Y0210951D01*
X0289025Y0211076D01*
X0289126Y0211198D01*
X0289230Y0211317D01*
X0289337Y0211434D01*
X0289447Y0211548D01*
X0289560Y0211659D01*
X0289675Y0211768D01*
X0289793Y0211873D01*
X0289914Y0211975D01*
X0290037Y0212075D01*
X0290163Y0212171D01*
X0290291Y0212264D01*
X0290421Y0212354D01*
X0290554Y0212440D01*
X0290689Y0212524D01*
X0290825Y0212603D01*
X0290964Y0212680D01*
X0291105Y0212752D01*
X0291247Y0212822D01*
X0291391Y0212887D01*
X0291537Y0212949D01*
X0291684Y0213007D01*
X0291833Y0213062D01*
X0291983Y0213113D01*
X0292134Y0213160D01*
X0292286Y0213203D01*
X0292439Y0213242D01*
X0292594Y0213278D01*
X0292749Y0213309D01*
X0292905Y0213337D01*
X0293061Y0213361D01*
X0293218Y0213381D01*
X0293376Y0213397D01*
X0293533Y0213409D01*
X0293692Y0213417D01*
X0293850Y0213421D01*
X0294008Y0213421D01*
X0294166Y0213417D01*
X0294325Y0213409D01*
X0294482Y0213397D01*
X0294640Y0213381D01*
X0294797Y0213361D01*
X0294953Y0213337D01*
X0295109Y0213309D01*
X0295264Y0213278D01*
X0295419Y0213242D01*
X0295572Y0213203D01*
X0295724Y0213160D01*
X0295875Y0213113D01*
X0296025Y0213062D01*
X0296174Y0213007D01*
X0296321Y0212949D01*
X0296467Y0212887D01*
X0296611Y0212822D01*
X0296753Y0212752D01*
X0296894Y0212680D01*
X0297033Y0212603D01*
X0297169Y0212524D01*
X0297304Y0212440D01*
X0297437Y0212354D01*
X0297567Y0212264D01*
X0297695Y0212171D01*
X0297821Y0212075D01*
X0297944Y0211975D01*
X0298065Y0211873D01*
X0298183Y0211768D01*
X0298298Y0211659D01*
X0298411Y0211548D01*
X0298521Y0211434D01*
X0298628Y0211317D01*
X0298732Y0211198D01*
X0298833Y0211076D01*
X0298930Y0210951D01*
X0299025Y0210824D01*
X0299116Y0210695D01*
X0299205Y0210564D01*
X0299289Y0210430D01*
X0299371Y0210294D01*
X0299449Y0210157D01*
X0299523Y0210017D01*
X0299594Y0209875D01*
X0299662Y0209732D01*
X0299726Y0209587D01*
X0299786Y0209441D01*
X0299842Y0209293D01*
X0299895Y0209144D01*
X0299944Y0208993D01*
X0299989Y0208841D01*
X0300030Y0208688D01*
X0300068Y0208535D01*
X0300101Y0208380D01*
X0300131Y0208224D01*
X0300157Y0208068D01*
X0300178Y0207911D01*
X0300196Y0207754D01*
X0300210Y0207596D01*
X0300220Y0207438D01*
X0300226Y0207280D01*
X0300228Y0207122D01*
X0300226Y0206964D01*
X0300220Y0206806D01*
X0300210Y0206648D01*
X0300196Y0206490D01*
X0300178Y0206333D01*
X0300157Y0206176D01*
X0300131Y0206020D01*
X0300101Y0205864D01*
X0300068Y0205709D01*
X0300030Y0205556D01*
X0299989Y0205403D01*
X0299944Y0205251D01*
X0299895Y0205100D01*
X0299842Y0204951D01*
X0299786Y0204803D01*
X0299726Y0204657D01*
X0299662Y0204512D01*
X0299594Y0204369D01*
X0299523Y0204227D01*
X0299449Y0204087D01*
X0299371Y0203950D01*
X0299289Y0203814D01*
X0299205Y0203680D01*
X0299116Y0203549D01*
X0299025Y0203420D01*
X0298930Y0203293D01*
X0298833Y0203168D01*
X0298732Y0203046D01*
X0298628Y0202927D01*
X0298521Y0202810D01*
X0298411Y0202696D01*
X0298298Y0202585D01*
X0298183Y0202476D01*
X0298065Y0202371D01*
X0297944Y0202269D01*
X0297821Y0202169D01*
X0297695Y0202073D01*
X0297567Y0201980D01*
X0297437Y0201890D01*
X0297304Y0201804D01*
X0297169Y0201720D01*
X0297033Y0201641D01*
X0296894Y0201564D01*
X0296753Y0201492D01*
X0296611Y0201422D01*
X0296467Y0201357D01*
X0296321Y0201295D01*
X0296174Y0201237D01*
X0296025Y0201182D01*
X0295875Y0201131D01*
X0295724Y0201084D01*
X0295572Y0201041D01*
X0295419Y0201002D01*
X0295264Y0200966D01*
X0295109Y0200935D01*
X0294953Y0200907D01*
X0294797Y0200883D01*
X0294640Y0200863D01*
X0294482Y0200847D01*
X0294325Y0200835D01*
X0294166Y0200827D01*
X0294008Y0200823D01*
X0293850Y0200823D01*
X0293692Y0200827D01*
X0293533Y0200835D01*
X0293376Y0200847D01*
X0293218Y0200863D01*
X0293061Y0200883D01*
X0292905Y0200907D01*
X0292749Y0200935D01*
X0292594Y0200966D01*
X0292439Y0201002D01*
X0292286Y0201041D01*
X0292134Y0201084D01*
X0291983Y0201131D01*
X0291833Y0201182D01*
X0291684Y0201237D01*
X0291537Y0201295D01*
X0291391Y0201357D01*
X0291247Y0201422D01*
X0291105Y0201492D01*
X0290964Y0201564D01*
X0290825Y0201641D01*
X0290689Y0201720D01*
X0290554Y0201804D01*
X0290421Y0201890D01*
X0290291Y0201980D01*
X0290163Y0202073D01*
X0290037Y0202169D01*
X0289914Y0202269D01*
X0289793Y0202371D01*
X0289675Y0202476D01*
X0289560Y0202585D01*
X0289447Y0202696D01*
X0289337Y0202810D01*
X0289230Y0202927D01*
X0289126Y0203046D01*
X0289025Y0203168D01*
X0288928Y0203293D01*
X0288833Y0203420D01*
X0288742Y0203549D01*
X0288653Y0203680D01*
X0288569Y0203814D01*
X0288487Y0203950D01*
X0288409Y0204087D01*
X0288335Y0204227D01*
X0288264Y0204369D01*
X0288196Y0204512D01*
X0288132Y0204657D01*
X0288072Y0204803D01*
X0288016Y0204951D01*
X0287963Y0205100D01*
X0287914Y0205251D01*
X0287869Y0205403D01*
X0287828Y0205556D01*
X0287790Y0205709D01*
X0287757Y0205864D01*
X0287727Y0206020D01*
X0287701Y0206176D01*
X0287680Y0206333D01*
X0287662Y0206490D01*
X0287648Y0206648D01*
X0287638Y0206806D01*
X0287632Y0206964D01*
X0287630Y0207122D01*
X0287630Y0097122D02*
X0287632Y0097280D01*
X0287638Y0097438D01*
X0287648Y0097596D01*
X0287662Y0097754D01*
X0287680Y0097911D01*
X0287701Y0098068D01*
X0287727Y0098224D01*
X0287757Y0098380D01*
X0287790Y0098535D01*
X0287828Y0098688D01*
X0287869Y0098841D01*
X0287914Y0098993D01*
X0287963Y0099144D01*
X0288016Y0099293D01*
X0288072Y0099441D01*
X0288132Y0099587D01*
X0288196Y0099732D01*
X0288264Y0099875D01*
X0288335Y0100017D01*
X0288409Y0100157D01*
X0288487Y0100294D01*
X0288569Y0100430D01*
X0288653Y0100564D01*
X0288742Y0100695D01*
X0288833Y0100824D01*
X0288928Y0100951D01*
X0289025Y0101076D01*
X0289126Y0101198D01*
X0289230Y0101317D01*
X0289337Y0101434D01*
X0289447Y0101548D01*
X0289560Y0101659D01*
X0289675Y0101768D01*
X0289793Y0101873D01*
X0289914Y0101975D01*
X0290037Y0102075D01*
X0290163Y0102171D01*
X0290291Y0102264D01*
X0290421Y0102354D01*
X0290554Y0102440D01*
X0290689Y0102524D01*
X0290825Y0102603D01*
X0290964Y0102680D01*
X0291105Y0102752D01*
X0291247Y0102822D01*
X0291391Y0102887D01*
X0291537Y0102949D01*
X0291684Y0103007D01*
X0291833Y0103062D01*
X0291983Y0103113D01*
X0292134Y0103160D01*
X0292286Y0103203D01*
X0292439Y0103242D01*
X0292594Y0103278D01*
X0292749Y0103309D01*
X0292905Y0103337D01*
X0293061Y0103361D01*
X0293218Y0103381D01*
X0293376Y0103397D01*
X0293533Y0103409D01*
X0293692Y0103417D01*
X0293850Y0103421D01*
X0294008Y0103421D01*
X0294166Y0103417D01*
X0294325Y0103409D01*
X0294482Y0103397D01*
X0294640Y0103381D01*
X0294797Y0103361D01*
X0294953Y0103337D01*
X0295109Y0103309D01*
X0295264Y0103278D01*
X0295419Y0103242D01*
X0295572Y0103203D01*
X0295724Y0103160D01*
X0295875Y0103113D01*
X0296025Y0103062D01*
X0296174Y0103007D01*
X0296321Y0102949D01*
X0296467Y0102887D01*
X0296611Y0102822D01*
X0296753Y0102752D01*
X0296894Y0102680D01*
X0297033Y0102603D01*
X0297169Y0102524D01*
X0297304Y0102440D01*
X0297437Y0102354D01*
X0297567Y0102264D01*
X0297695Y0102171D01*
X0297821Y0102075D01*
X0297944Y0101975D01*
X0298065Y0101873D01*
X0298183Y0101768D01*
X0298298Y0101659D01*
X0298411Y0101548D01*
X0298521Y0101434D01*
X0298628Y0101317D01*
X0298732Y0101198D01*
X0298833Y0101076D01*
X0298930Y0100951D01*
X0299025Y0100824D01*
X0299116Y0100695D01*
X0299205Y0100564D01*
X0299289Y0100430D01*
X0299371Y0100294D01*
X0299449Y0100157D01*
X0299523Y0100017D01*
X0299594Y0099875D01*
X0299662Y0099732D01*
X0299726Y0099587D01*
X0299786Y0099441D01*
X0299842Y0099293D01*
X0299895Y0099144D01*
X0299944Y0098993D01*
X0299989Y0098841D01*
X0300030Y0098688D01*
X0300068Y0098535D01*
X0300101Y0098380D01*
X0300131Y0098224D01*
X0300157Y0098068D01*
X0300178Y0097911D01*
X0300196Y0097754D01*
X0300210Y0097596D01*
X0300220Y0097438D01*
X0300226Y0097280D01*
X0300228Y0097122D01*
X0300226Y0096964D01*
X0300220Y0096806D01*
X0300210Y0096648D01*
X0300196Y0096490D01*
X0300178Y0096333D01*
X0300157Y0096176D01*
X0300131Y0096020D01*
X0300101Y0095864D01*
X0300068Y0095709D01*
X0300030Y0095556D01*
X0299989Y0095403D01*
X0299944Y0095251D01*
X0299895Y0095100D01*
X0299842Y0094951D01*
X0299786Y0094803D01*
X0299726Y0094657D01*
X0299662Y0094512D01*
X0299594Y0094369D01*
X0299523Y0094227D01*
X0299449Y0094087D01*
X0299371Y0093950D01*
X0299289Y0093814D01*
X0299205Y0093680D01*
X0299116Y0093549D01*
X0299025Y0093420D01*
X0298930Y0093293D01*
X0298833Y0093168D01*
X0298732Y0093046D01*
X0298628Y0092927D01*
X0298521Y0092810D01*
X0298411Y0092696D01*
X0298298Y0092585D01*
X0298183Y0092476D01*
X0298065Y0092371D01*
X0297944Y0092269D01*
X0297821Y0092169D01*
X0297695Y0092073D01*
X0297567Y0091980D01*
X0297437Y0091890D01*
X0297304Y0091804D01*
X0297169Y0091720D01*
X0297033Y0091641D01*
X0296894Y0091564D01*
X0296753Y0091492D01*
X0296611Y0091422D01*
X0296467Y0091357D01*
X0296321Y0091295D01*
X0296174Y0091237D01*
X0296025Y0091182D01*
X0295875Y0091131D01*
X0295724Y0091084D01*
X0295572Y0091041D01*
X0295419Y0091002D01*
X0295264Y0090966D01*
X0295109Y0090935D01*
X0294953Y0090907D01*
X0294797Y0090883D01*
X0294640Y0090863D01*
X0294482Y0090847D01*
X0294325Y0090835D01*
X0294166Y0090827D01*
X0294008Y0090823D01*
X0293850Y0090823D01*
X0293692Y0090827D01*
X0293533Y0090835D01*
X0293376Y0090847D01*
X0293218Y0090863D01*
X0293061Y0090883D01*
X0292905Y0090907D01*
X0292749Y0090935D01*
X0292594Y0090966D01*
X0292439Y0091002D01*
X0292286Y0091041D01*
X0292134Y0091084D01*
X0291983Y0091131D01*
X0291833Y0091182D01*
X0291684Y0091237D01*
X0291537Y0091295D01*
X0291391Y0091357D01*
X0291247Y0091422D01*
X0291105Y0091492D01*
X0290964Y0091564D01*
X0290825Y0091641D01*
X0290689Y0091720D01*
X0290554Y0091804D01*
X0290421Y0091890D01*
X0290291Y0091980D01*
X0290163Y0092073D01*
X0290037Y0092169D01*
X0289914Y0092269D01*
X0289793Y0092371D01*
X0289675Y0092476D01*
X0289560Y0092585D01*
X0289447Y0092696D01*
X0289337Y0092810D01*
X0289230Y0092927D01*
X0289126Y0093046D01*
X0289025Y0093168D01*
X0288928Y0093293D01*
X0288833Y0093420D01*
X0288742Y0093549D01*
X0288653Y0093680D01*
X0288569Y0093814D01*
X0288487Y0093950D01*
X0288409Y0094087D01*
X0288335Y0094227D01*
X0288264Y0094369D01*
X0288196Y0094512D01*
X0288132Y0094657D01*
X0288072Y0094803D01*
X0288016Y0094951D01*
X0287963Y0095100D01*
X0287914Y0095251D01*
X0287869Y0095403D01*
X0287828Y0095556D01*
X0287790Y0095709D01*
X0287757Y0095864D01*
X0287727Y0096020D01*
X0287701Y0096176D01*
X0287680Y0096333D01*
X0287662Y0096490D01*
X0287648Y0096648D01*
X0287638Y0096806D01*
X0287632Y0096964D01*
X0287630Y0097122D01*
M02*
