G75*
%MOIN*%
%OFA0B0*%
%FSLAX25Y25*%
%IPPOS*%
%LPD*%
%AMOC8*
5,1,8,0,0,1.08239X$1,22.5*
%
%ADD10R,0.04331X0.03937*%
%ADD11R,0.03937X0.04331*%
%ADD12R,0.02362X0.05906*%
%ADD13R,0.21260X0.24409*%
%ADD14R,0.03937X0.06299*%
%ADD15R,0.06024X0.06024*%
%ADD16C,0.06024*%
%ADD17R,0.07677X0.07677*%
%ADD18C,0.07677*%
%ADD19R,0.05906X0.05118*%
%ADD20R,0.03937X0.02559*%
%ADD21R,0.08858X0.02559*%
%ADD22C,0.04356*%
%ADD23R,0.03962X0.03962*%
%ADD24C,0.03962*%
%ADD25C,0.07087*%
%ADD26C,0.03569*%
%ADD27C,0.01200*%
%ADD28C,0.01600*%
%ADD29C,0.01000*%
%ADD30C,0.04000*%
%ADD31C,0.05000*%
%ADD32C,0.02400*%
D10*
X0044332Y0075872D03*
X0051025Y0075872D03*
X0098929Y0140025D03*
X0098929Y0146718D03*
X0098929Y0152525D03*
X0098929Y0159218D03*
X0106429Y0170025D03*
X0106429Y0176718D03*
X0091429Y0191275D03*
X0091429Y0197968D03*
X0107679Y0205025D03*
X0107679Y0211718D03*
X0083525Y0220872D03*
X0076832Y0220872D03*
X0162679Y0219218D03*
X0162679Y0212525D03*
X0171429Y0212525D03*
X0171429Y0219218D03*
X0171429Y0227525D03*
X0171429Y0234218D03*
X0162679Y0234218D03*
X0162679Y0227525D03*
X0178082Y0243372D03*
X0184775Y0243372D03*
X0183929Y0234218D03*
X0183929Y0227525D03*
X0183929Y0219218D03*
X0183929Y0212525D03*
X0184775Y0197122D03*
X0178082Y0197122D03*
X0183929Y0182968D03*
X0183929Y0176275D03*
X0183929Y0169218D03*
X0183929Y0162525D03*
X0171429Y0162525D03*
X0171429Y0169218D03*
X0171429Y0176275D03*
X0171429Y0182968D03*
X0162679Y0182968D03*
X0162679Y0176275D03*
X0162679Y0169218D03*
X0162679Y0162525D03*
X0120179Y0121718D03*
X0120179Y0115025D03*
X0143929Y0095468D03*
X0143929Y0088775D03*
X0161429Y0087525D03*
X0161429Y0094218D03*
X0170179Y0094218D03*
X0170179Y0087525D03*
X0183929Y0087525D03*
X0183929Y0094218D03*
X0223082Y0163372D03*
X0229775Y0163372D03*
X0238082Y0168372D03*
X0244775Y0168372D03*
X0244775Y0177122D03*
X0244775Y0185872D03*
X0238082Y0185872D03*
X0238082Y0177122D03*
X0238082Y0195872D03*
X0244775Y0195872D03*
X0229775Y0213372D03*
X0238082Y0219622D03*
X0238082Y0228372D03*
X0244775Y0228372D03*
X0244775Y0219622D03*
X0244775Y0237122D03*
X0238082Y0237122D03*
X0238082Y0247122D03*
X0244775Y0247122D03*
X0223082Y0213372D03*
D11*
X0214775Y0203372D03*
X0208082Y0203372D03*
X0199775Y0203372D03*
X0193082Y0203372D03*
X0198082Y0193372D03*
X0204775Y0193372D03*
X0213082Y0193372D03*
X0219775Y0193372D03*
X0214775Y0153372D03*
X0208082Y0153372D03*
X0199775Y0153372D03*
X0193082Y0153372D03*
X0190582Y0100872D03*
X0197275Y0100872D03*
X0260582Y0168372D03*
X0267275Y0168372D03*
X0267275Y0177122D03*
X0260582Y0177122D03*
X0260582Y0185872D03*
X0267275Y0185872D03*
X0267275Y0194622D03*
X0260582Y0194622D03*
X0260582Y0219622D03*
X0267275Y0219622D03*
X0267275Y0228372D03*
X0260582Y0228372D03*
X0260582Y0237122D03*
X0267275Y0237122D03*
X0267275Y0245872D03*
X0260582Y0245872D03*
X0219775Y0243372D03*
X0213082Y0243372D03*
X0204775Y0243372D03*
X0198082Y0243372D03*
X0108929Y0132968D03*
X0108929Y0126275D03*
X0098929Y0126275D03*
X0098929Y0132968D03*
X0081429Y0153775D03*
X0081429Y0160468D03*
X0091429Y0173775D03*
X0091429Y0180468D03*
X0065179Y0156718D03*
X0065179Y0150025D03*
D12*
X0193929Y0162545D03*
X0198929Y0162545D03*
X0203929Y0162545D03*
X0208929Y0162545D03*
X0208929Y0184199D03*
X0203929Y0184199D03*
X0198929Y0184199D03*
X0193929Y0184199D03*
X0193929Y0212545D03*
X0198929Y0212545D03*
X0203929Y0212545D03*
X0208929Y0212545D03*
X0208929Y0234199D03*
X0203929Y0234199D03*
X0198929Y0234199D03*
X0193929Y0234199D03*
D13*
X0081429Y0127279D03*
X0073929Y0179779D03*
D14*
X0072452Y0156019D03*
X0090405Y0156019D03*
X0082905Y0208519D03*
X0064952Y0208519D03*
D15*
X0107929Y0267122D03*
X0213929Y0267122D03*
X0233929Y0077122D03*
X0143929Y0077122D03*
D16*
X0153929Y0077122D03*
X0163929Y0077122D03*
X0173929Y0077122D03*
X0183929Y0077122D03*
X0193929Y0077122D03*
X0203929Y0077122D03*
X0213929Y0077122D03*
X0243929Y0077122D03*
X0253929Y0077122D03*
X0263929Y0077122D03*
X0273929Y0077122D03*
X0283929Y0077122D03*
X0283929Y0267122D03*
X0273929Y0267122D03*
X0263929Y0267122D03*
X0253929Y0267122D03*
X0243929Y0267122D03*
X0233929Y0267122D03*
X0223929Y0267122D03*
X0197929Y0267122D03*
X0187929Y0267122D03*
X0177929Y0267122D03*
X0167929Y0267122D03*
X0157929Y0267122D03*
X0147929Y0267122D03*
X0137929Y0267122D03*
X0127929Y0267122D03*
X0117929Y0267122D03*
D17*
X0040179Y0057122D03*
X0065179Y0057122D03*
X0065179Y0087122D03*
X0100179Y0057122D03*
X0043929Y0137122D03*
X0043929Y0172122D03*
X0043929Y0197122D03*
X0043929Y0242122D03*
X0043929Y0267122D03*
X0043929Y0292122D03*
X0073929Y0292122D03*
X0073929Y0267122D03*
D18*
X0073929Y0257122D03*
X0073929Y0282122D03*
X0043929Y0282122D03*
X0043929Y0257122D03*
X0043929Y0232122D03*
X0043929Y0222122D03*
X0043929Y0212122D03*
X0043929Y0187122D03*
X0043929Y0162122D03*
X0043929Y0127122D03*
X0043929Y0117122D03*
X0043929Y0107122D03*
X0043929Y0097122D03*
X0043929Y0087122D03*
X0050179Y0057122D03*
X0075179Y0057122D03*
X0075179Y0087122D03*
X0110179Y0057122D03*
D19*
X0120179Y0129632D03*
X0120179Y0137112D03*
X0106429Y0184632D03*
X0106429Y0192112D03*
D20*
X0100760Y0204612D03*
X0100760Y0212132D03*
X0092098Y0208372D03*
D21*
X0086606Y0227998D03*
X0086606Y0231935D03*
X0086606Y0235872D03*
X0086606Y0239809D03*
X0086606Y0243746D03*
X0067118Y0243746D03*
X0067118Y0239809D03*
X0067118Y0235872D03*
X0067118Y0231935D03*
X0067118Y0227998D03*
D22*
X0213929Y0089622D03*
D23*
X0202679Y0100872D03*
X0176429Y0094622D03*
X0133929Y0070872D03*
X0108929Y0110872D03*
X0111429Y0115872D03*
X0106429Y0115872D03*
X0101429Y0115872D03*
X0103929Y0110872D03*
X0098929Y0110872D03*
X0096429Y0115872D03*
X0093929Y0110872D03*
X0088929Y0110872D03*
X0083929Y0110872D03*
X0078929Y0110872D03*
X0073929Y0110872D03*
X0068929Y0110872D03*
X0063929Y0114622D03*
X0063929Y0119622D03*
X0063929Y0124622D03*
X0063929Y0129622D03*
X0063929Y0134622D03*
X0063929Y0139622D03*
X0052679Y0095872D03*
X0038929Y0077122D03*
X0072679Y0074622D03*
X0072679Y0065872D03*
X0155179Y0162122D03*
X0155179Y0175872D03*
X0162679Y0207122D03*
X0156429Y0227122D03*
X0188929Y0238372D03*
X0220179Y0203372D03*
X0230179Y0207122D03*
X0225179Y0193372D03*
X0230179Y0157122D03*
X0220179Y0153372D03*
X0188929Y0188372D03*
X0225179Y0243372D03*
X0267679Y0212122D03*
X0267679Y0200872D03*
X0267679Y0160872D03*
X0258929Y0110872D03*
X0255179Y0089622D03*
X0283929Y0110872D03*
X0273929Y0249622D03*
X0116429Y0235872D03*
X0092679Y0279622D03*
X0065179Y0258372D03*
X0052679Y0275872D03*
X0062679Y0282122D03*
D24*
X0116429Y0249651D03*
D25*
X0247748Y0144464D03*
X0247748Y0123598D03*
D26*
X0258929Y0128372D03*
X0262679Y0128372D03*
X0271429Y0128372D03*
X0275179Y0128372D03*
X0280179Y0128372D03*
X0283929Y0128372D03*
X0276429Y0102122D03*
X0276429Y0098372D03*
X0255179Y0094622D03*
X0202679Y0095872D03*
X0176429Y0089622D03*
X0155179Y0090872D03*
X0155179Y0094622D03*
X0133929Y0075872D03*
X0125179Y0084622D03*
X0121429Y0084622D03*
X0103929Y0067122D03*
X0101429Y0063372D03*
X0121429Y0054622D03*
X0141429Y0055872D03*
X0145179Y0055872D03*
X0095179Y0104622D03*
X0091429Y0104622D03*
X0098929Y0120872D03*
X0102679Y0120872D03*
X0108929Y0120872D03*
X0112679Y0120872D03*
X0120179Y0143372D03*
X0123929Y0143372D03*
X0105179Y0155872D03*
X0105179Y0159622D03*
X0095179Y0168372D03*
X0091429Y0168372D03*
X0081429Y0148372D03*
X0077679Y0148372D03*
X0065179Y0162122D03*
X0102679Y0198372D03*
X0106429Y0198372D03*
X0107679Y0217122D03*
X0111429Y0217122D03*
X0101429Y0217122D03*
X0101429Y0220872D03*
X0088929Y0220872D03*
X0088929Y0217122D03*
X0088929Y0248372D03*
X0091429Y0252122D03*
X0093929Y0248372D03*
X0096429Y0252122D03*
X0098929Y0248372D03*
X0101429Y0252122D03*
X0103929Y0248372D03*
X0106429Y0252122D03*
X0108929Y0248372D03*
X0111429Y0252122D03*
X0111429Y0273372D03*
X0115179Y0273372D03*
X0123929Y0273372D03*
X0127679Y0273372D03*
X0136429Y0273372D03*
X0140179Y0273372D03*
X0151429Y0273372D03*
X0155179Y0273372D03*
X0160179Y0273372D03*
X0163929Y0273372D03*
X0181429Y0273372D03*
X0185179Y0273372D03*
X0206429Y0279622D03*
X0210179Y0275872D03*
X0191429Y0248372D03*
X0191429Y0243372D03*
X0216429Y0218372D03*
X0216429Y0213372D03*
X0225179Y0207122D03*
X0225179Y0203372D03*
X0232679Y0195872D03*
X0232679Y0190872D03*
X0232679Y0185872D03*
X0232679Y0177122D03*
X0232679Y0173372D03*
X0237679Y0162122D03*
X0237679Y0158372D03*
X0230179Y0152122D03*
X0225179Y0153372D03*
X0216429Y0163372D03*
X0216429Y0168372D03*
X0225179Y0188372D03*
X0235179Y0213372D03*
X0238929Y0213372D03*
X0232679Y0224622D03*
X0232679Y0228372D03*
X0232679Y0237122D03*
X0232679Y0242122D03*
X0232679Y0247122D03*
X0225179Y0238372D03*
X0251429Y0237122D03*
X0253929Y0240872D03*
X0251429Y0245872D03*
X0251429Y0228372D03*
X0253929Y0223372D03*
X0251429Y0219622D03*
X0272679Y0200872D03*
X0281429Y0193372D03*
X0281429Y0189622D03*
X0281429Y0175872D03*
X0281429Y0172122D03*
X0262679Y0160872D03*
X0251429Y0168372D03*
X0253929Y0172122D03*
X0251429Y0177122D03*
X0251429Y0185872D03*
X0253929Y0189622D03*
X0251429Y0194622D03*
X0281429Y0223372D03*
X0281429Y0227122D03*
X0281429Y0240872D03*
X0281429Y0244622D03*
X0278929Y0249622D03*
X0256429Y0275872D03*
X0256429Y0279622D03*
X0187679Y0203372D03*
X0183929Y0203372D03*
X0191429Y0193372D03*
X0157679Y0207122D03*
X0156429Y0232122D03*
X0150179Y0175872D03*
X0150179Y0162122D03*
X0188929Y0147122D03*
X0192679Y0147122D03*
X0086429Y0252122D03*
X0083929Y0248372D03*
X0081429Y0252122D03*
X0078929Y0248372D03*
X0065179Y0249622D03*
X0065179Y0253372D03*
X0052679Y0267122D03*
X0047679Y0275872D03*
X0052679Y0282122D03*
X0057679Y0282122D03*
X0097679Y0279622D03*
X0055179Y0108372D03*
X0058929Y0105872D03*
X0048929Y0100872D03*
X0056429Y0083372D03*
X0060179Y0080872D03*
X0063929Y0080872D03*
X0056429Y0079622D03*
X0072679Y0079622D03*
X0077679Y0065872D03*
X0038929Y0082122D03*
D27*
X0043082Y0077122D02*
X0044332Y0075872D01*
X0051025Y0075872D02*
X0054775Y0079622D01*
X0056429Y0079622D01*
X0065083Y0107122D02*
X0055629Y0116576D01*
X0055629Y0122826D01*
X0050629Y0127826D01*
X0049633Y0128822D01*
X0048678Y0128822D01*
X0048200Y0129976D01*
X0046783Y0131393D01*
X0046083Y0131683D01*
X0047978Y0131683D01*
X0048385Y0131792D01*
X0048750Y0132003D01*
X0049048Y0132301D01*
X0049258Y0132666D01*
X0049367Y0133073D01*
X0049367Y0136522D01*
X0044529Y0136522D01*
X0044529Y0137722D01*
X0043329Y0137722D01*
X0043329Y0142560D01*
X0039880Y0142560D01*
X0039473Y0142451D01*
X0039108Y0142241D01*
X0038810Y0141943D01*
X0038599Y0141578D01*
X0038490Y0141171D01*
X0038490Y0137722D01*
X0043329Y0137722D01*
X0043329Y0136522D01*
X0038490Y0136522D01*
X0038490Y0133073D01*
X0038599Y0132666D01*
X0038810Y0132301D01*
X0039108Y0132003D01*
X0039473Y0131792D01*
X0039880Y0131683D01*
X0041775Y0131683D01*
X0041075Y0131393D01*
X0039657Y0129976D01*
X0038890Y0128124D01*
X0038890Y0126119D01*
X0039657Y0124268D01*
X0041075Y0122850D01*
X0042833Y0122122D01*
X0041075Y0121393D01*
X0039657Y0119976D01*
X0038890Y0118124D01*
X0038890Y0116119D01*
X0039657Y0114268D01*
X0041075Y0112850D01*
X0042833Y0112122D01*
X0041075Y0111393D01*
X0039657Y0109976D01*
X0038890Y0108124D01*
X0038890Y0107122D01*
X0036529Y0107122D01*
X0036529Y0143372D01*
X0095950Y0143372D01*
X0095781Y0143274D01*
X0095483Y0142976D01*
X0095273Y0142611D01*
X0095163Y0142204D01*
X0095163Y0140410D01*
X0098545Y0140410D01*
X0098545Y0139641D01*
X0099313Y0139641D01*
X0099313Y0133353D01*
X0098545Y0133353D01*
X0098545Y0136734D01*
X0098545Y0139641D01*
X0095163Y0139641D01*
X0095163Y0137846D01*
X0095273Y0137439D01*
X0095483Y0137074D01*
X0095781Y0136776D01*
X0096146Y0136566D01*
X0096211Y0136548D01*
X0095978Y0136414D01*
X0095680Y0136116D01*
X0095469Y0135751D01*
X0095360Y0135344D01*
X0095360Y0133352D01*
X0098545Y0133352D01*
X0098545Y0132584D01*
X0095360Y0132584D01*
X0095360Y0130592D01*
X0095469Y0130185D01*
X0095680Y0129820D01*
X0095978Y0129523D01*
X0096211Y0129388D01*
X0095760Y0128938D01*
X0095760Y0123613D01*
X0096463Y0122910D01*
X0096747Y0122910D01*
X0096399Y0122562D01*
X0095945Y0121465D01*
X0095945Y0120278D01*
X0096399Y0119181D01*
X0097238Y0118342D01*
X0098335Y0117887D01*
X0099522Y0117887D01*
X0100619Y0118342D01*
X0100804Y0118526D01*
X0100988Y0118342D01*
X0102085Y0117887D01*
X0103272Y0117887D01*
X0104369Y0118342D01*
X0105209Y0119181D01*
X0105663Y0120278D01*
X0105663Y0121465D01*
X0105209Y0122562D01*
X0104369Y0123402D01*
X0103272Y0123856D01*
X0102097Y0123856D01*
X0102097Y0128938D01*
X0101647Y0129388D01*
X0101880Y0129523D01*
X0102178Y0129820D01*
X0102388Y0130185D01*
X0102497Y0130592D01*
X0102497Y0132584D01*
X0099313Y0132584D01*
X0099313Y0133352D01*
X0102497Y0133352D01*
X0102497Y0135344D01*
X0102388Y0135751D01*
X0102178Y0136116D01*
X0101880Y0136414D01*
X0101647Y0136548D01*
X0101712Y0136566D01*
X0102077Y0136776D01*
X0102374Y0137074D01*
X0102585Y0137439D01*
X0102694Y0137846D01*
X0102694Y0139641D01*
X0099313Y0139641D01*
X0099313Y0140410D01*
X0102694Y0140410D01*
X0102694Y0142204D01*
X0102585Y0142611D01*
X0102374Y0142976D01*
X0102077Y0143274D01*
X0101907Y0143372D01*
X0113929Y0143372D01*
X0116579Y0140721D01*
X0116026Y0140168D01*
X0116026Y0134056D01*
X0116710Y0133372D01*
X0116026Y0132688D01*
X0116026Y0126575D01*
X0116729Y0125873D01*
X0118179Y0125873D01*
X0118179Y0124887D01*
X0117516Y0124887D01*
X0116813Y0124184D01*
X0116813Y0119253D01*
X0117516Y0118550D01*
X0117638Y0118550D01*
X0117396Y0118485D01*
X0117031Y0118274D01*
X0116733Y0117976D01*
X0116523Y0117611D01*
X0116413Y0117204D01*
X0116413Y0115410D01*
X0119795Y0115410D01*
X0119795Y0114641D01*
X0116413Y0114641D01*
X0116413Y0112846D01*
X0116523Y0112439D01*
X0116733Y0112074D01*
X0117031Y0111776D01*
X0117396Y0111566D01*
X0117803Y0111457D01*
X0118264Y0111457D01*
X0113929Y0107122D01*
X0096899Y0107122D01*
X0096869Y0107152D01*
X0095772Y0107606D01*
X0094585Y0107606D01*
X0093488Y0107152D01*
X0093458Y0107122D01*
X0093149Y0107122D01*
X0093119Y0107152D01*
X0092022Y0107606D01*
X0090835Y0107606D01*
X0089738Y0107152D01*
X0089708Y0107122D01*
X0065083Y0107122D01*
X0065054Y0107150D02*
X0089737Y0107150D01*
X0093121Y0107150D02*
X0093487Y0107150D01*
X0096871Y0107150D02*
X0113957Y0107150D01*
X0115156Y0108349D02*
X0063856Y0108349D01*
X0062657Y0109547D02*
X0116354Y0109547D01*
X0117553Y0110746D02*
X0061459Y0110746D01*
X0060260Y0111944D02*
X0116863Y0111944D01*
X0116413Y0113143D02*
X0059062Y0113143D01*
X0057863Y0114341D02*
X0069375Y0114341D01*
X0069308Y0114457D02*
X0069519Y0114092D01*
X0069816Y0113794D01*
X0070181Y0113584D01*
X0070588Y0113474D01*
X0080829Y0113474D01*
X0080829Y0126679D01*
X0082029Y0126679D01*
X0082029Y0127879D01*
X0093659Y0127879D01*
X0093659Y0139695D01*
X0093550Y0140102D01*
X0093339Y0140466D01*
X0093041Y0140764D01*
X0092676Y0140975D01*
X0092269Y0141084D01*
X0082029Y0141084D01*
X0082029Y0127879D01*
X0080829Y0127879D01*
X0080829Y0126679D01*
X0069199Y0126679D01*
X0069199Y0114864D01*
X0069308Y0114457D01*
X0069199Y0115540D02*
X0056665Y0115540D01*
X0055629Y0116738D02*
X0069199Y0116738D01*
X0069199Y0117937D02*
X0055629Y0117937D01*
X0055629Y0119135D02*
X0069199Y0119135D01*
X0069199Y0120334D02*
X0055629Y0120334D01*
X0055629Y0121532D02*
X0069199Y0121532D01*
X0069199Y0122731D02*
X0055629Y0122731D01*
X0054525Y0123929D02*
X0069199Y0123929D01*
X0069199Y0125128D02*
X0053327Y0125128D01*
X0052128Y0126326D02*
X0069199Y0126326D01*
X0069199Y0127879D02*
X0080829Y0127879D01*
X0080829Y0141084D01*
X0070588Y0141084D01*
X0070181Y0140975D01*
X0069816Y0140764D01*
X0069519Y0140466D01*
X0069308Y0140102D01*
X0069199Y0139695D01*
X0069199Y0127879D01*
X0069199Y0128723D02*
X0049731Y0128723D01*
X0050930Y0127525D02*
X0080829Y0127525D01*
X0080829Y0128723D02*
X0082029Y0128723D01*
X0082029Y0127525D02*
X0095760Y0127525D01*
X0095760Y0128723D02*
X0093659Y0128723D01*
X0093659Y0129922D02*
X0095621Y0129922D01*
X0095360Y0131121D02*
X0093659Y0131121D01*
X0093659Y0132319D02*
X0095360Y0132319D01*
X0095360Y0133518D02*
X0093659Y0133518D01*
X0093659Y0134716D02*
X0095360Y0134716D01*
X0095564Y0135915D02*
X0093659Y0135915D01*
X0093659Y0137113D02*
X0095461Y0137113D01*
X0095163Y0138312D02*
X0093659Y0138312D01*
X0093659Y0139510D02*
X0095163Y0139510D01*
X0095163Y0140709D02*
X0093097Y0140709D01*
X0095163Y0141907D02*
X0049068Y0141907D01*
X0049048Y0141943D02*
X0048750Y0142241D01*
X0048385Y0142451D01*
X0047978Y0142560D01*
X0044529Y0142560D01*
X0044529Y0137722D01*
X0049367Y0137722D01*
X0049367Y0141171D01*
X0049258Y0141578D01*
X0049048Y0141943D01*
X0049367Y0140709D02*
X0069761Y0140709D01*
X0069199Y0139510D02*
X0049367Y0139510D01*
X0049367Y0138312D02*
X0069199Y0138312D01*
X0069199Y0137113D02*
X0044529Y0137113D01*
X0044529Y0138312D02*
X0043329Y0138312D01*
X0043329Y0139510D02*
X0044529Y0139510D01*
X0044529Y0140709D02*
X0043329Y0140709D01*
X0043329Y0141907D02*
X0044529Y0141907D01*
X0043329Y0137113D02*
X0036529Y0137113D01*
X0036529Y0135915D02*
X0038490Y0135915D01*
X0038490Y0134716D02*
X0036529Y0134716D01*
X0036529Y0133518D02*
X0038490Y0133518D01*
X0038799Y0132319D02*
X0036529Y0132319D01*
X0036529Y0131121D02*
X0040802Y0131121D01*
X0039635Y0129922D02*
X0036529Y0129922D01*
X0036529Y0128723D02*
X0039139Y0128723D01*
X0038890Y0127525D02*
X0036529Y0127525D01*
X0036529Y0126326D02*
X0038890Y0126326D01*
X0039301Y0125128D02*
X0036529Y0125128D01*
X0036529Y0123929D02*
X0039995Y0123929D01*
X0041363Y0122731D02*
X0036529Y0122731D01*
X0036529Y0121532D02*
X0041411Y0121532D01*
X0040015Y0120334D02*
X0036529Y0120334D01*
X0036529Y0119135D02*
X0039309Y0119135D01*
X0038890Y0117937D02*
X0036529Y0117937D01*
X0036529Y0116738D02*
X0038890Y0116738D01*
X0039130Y0115540D02*
X0036529Y0115540D01*
X0036529Y0114341D02*
X0039627Y0114341D01*
X0040782Y0113143D02*
X0036529Y0113143D01*
X0036529Y0111944D02*
X0042405Y0111944D01*
X0040427Y0110746D02*
X0036529Y0110746D01*
X0036529Y0109547D02*
X0039480Y0109547D01*
X0038983Y0108349D02*
X0036529Y0108349D01*
X0036529Y0107150D02*
X0038890Y0107150D01*
X0048223Y0129922D02*
X0069199Y0129922D01*
X0069199Y0131121D02*
X0047056Y0131121D01*
X0049058Y0132319D02*
X0069199Y0132319D01*
X0069199Y0133518D02*
X0049367Y0133518D01*
X0049367Y0134716D02*
X0069199Y0134716D01*
X0069199Y0135915D02*
X0049367Y0135915D01*
X0038490Y0138312D02*
X0036529Y0138312D01*
X0036529Y0139510D02*
X0038490Y0139510D01*
X0038490Y0140709D02*
X0036529Y0140709D01*
X0036529Y0141907D02*
X0038789Y0141907D01*
X0036529Y0143106D02*
X0095613Y0143106D01*
X0098545Y0139510D02*
X0099313Y0139510D01*
X0099313Y0138312D02*
X0098545Y0138312D01*
X0098545Y0137113D02*
X0099313Y0137113D01*
X0099313Y0135915D02*
X0098545Y0135915D01*
X0098545Y0134716D02*
X0099313Y0134716D01*
X0099313Y0133518D02*
X0098545Y0133518D01*
X0102497Y0133518D02*
X0105360Y0133518D01*
X0105360Y0133352D02*
X0108545Y0133352D01*
X0108545Y0132584D01*
X0105360Y0132584D01*
X0105360Y0130592D01*
X0105469Y0130185D01*
X0105680Y0129820D01*
X0105978Y0129523D01*
X0106211Y0129388D01*
X0105760Y0128938D01*
X0105760Y0123613D01*
X0106463Y0122910D01*
X0106747Y0122910D01*
X0106399Y0122562D01*
X0105945Y0121465D01*
X0105945Y0120278D01*
X0106399Y0119181D01*
X0107238Y0118342D01*
X0108335Y0117887D01*
X0109522Y0117887D01*
X0110619Y0118342D01*
X0110804Y0118526D01*
X0110988Y0118342D01*
X0112085Y0117887D01*
X0113272Y0117887D01*
X0114369Y0118342D01*
X0115209Y0119181D01*
X0115663Y0120278D01*
X0115663Y0121465D01*
X0115209Y0122562D01*
X0114369Y0123402D01*
X0113272Y0123856D01*
X0112097Y0123856D01*
X0112097Y0128938D01*
X0111647Y0129388D01*
X0111880Y0129523D01*
X0112178Y0129820D01*
X0112388Y0130185D01*
X0112497Y0130592D01*
X0112497Y0132584D01*
X0109313Y0132584D01*
X0109313Y0133352D01*
X0112497Y0133352D01*
X0112497Y0135344D01*
X0112388Y0135751D01*
X0112178Y0136116D01*
X0111880Y0136414D01*
X0111515Y0136625D01*
X0111108Y0136734D01*
X0109313Y0136734D01*
X0109313Y0133353D01*
X0108545Y0133353D01*
X0108545Y0136734D01*
X0106750Y0136734D01*
X0106343Y0136625D01*
X0105978Y0136414D01*
X0105680Y0136116D01*
X0105469Y0135751D01*
X0105360Y0135344D01*
X0105360Y0133352D01*
X0105360Y0132319D02*
X0102497Y0132319D01*
X0102497Y0131121D02*
X0105360Y0131121D01*
X0105621Y0129922D02*
X0102236Y0129922D01*
X0102097Y0128723D02*
X0105760Y0128723D01*
X0105760Y0127525D02*
X0102097Y0127525D01*
X0102097Y0126326D02*
X0105760Y0126326D01*
X0105760Y0125128D02*
X0102097Y0125128D01*
X0102097Y0123929D02*
X0105760Y0123929D01*
X0105040Y0122731D02*
X0106568Y0122731D01*
X0105972Y0121532D02*
X0105635Y0121532D01*
X0105663Y0120334D02*
X0105945Y0120334D01*
X0106445Y0119135D02*
X0105163Y0119135D01*
X0103392Y0117937D02*
X0108216Y0117937D01*
X0109642Y0117937D02*
X0111966Y0117937D01*
X0113392Y0117937D02*
X0116710Y0117937D01*
X0116931Y0119135D02*
X0115163Y0119135D01*
X0115663Y0120334D02*
X0116813Y0120334D01*
X0116813Y0121532D02*
X0115635Y0121532D01*
X0115040Y0122731D02*
X0116813Y0122731D01*
X0116813Y0123929D02*
X0112097Y0123929D01*
X0112097Y0125128D02*
X0118179Y0125128D01*
X0116275Y0126326D02*
X0112097Y0126326D01*
X0112097Y0127525D02*
X0116026Y0127525D01*
X0116026Y0128723D02*
X0112097Y0128723D01*
X0112236Y0129922D02*
X0116026Y0129922D01*
X0116026Y0131121D02*
X0112497Y0131121D01*
X0112497Y0132319D02*
X0116026Y0132319D01*
X0116564Y0133518D02*
X0112497Y0133518D01*
X0112497Y0134716D02*
X0116026Y0134716D01*
X0116026Y0135915D02*
X0112294Y0135915D01*
X0109313Y0135915D02*
X0108545Y0135915D01*
X0108545Y0134716D02*
X0109313Y0134716D01*
X0109313Y0133518D02*
X0108545Y0133518D01*
X0105360Y0134716D02*
X0102497Y0134716D01*
X0102294Y0135915D02*
X0105564Y0135915D01*
X0102397Y0137113D02*
X0116026Y0137113D01*
X0116026Y0138312D02*
X0102694Y0138312D01*
X0102694Y0139510D02*
X0116026Y0139510D01*
X0116567Y0140709D02*
X0102694Y0140709D01*
X0102694Y0141907D02*
X0115393Y0141907D01*
X0114195Y0143106D02*
X0102245Y0143106D01*
X0098929Y0126275D02*
X0098929Y0120872D01*
X0096568Y0122731D02*
X0093659Y0122731D01*
X0093659Y0123929D02*
X0095760Y0123929D01*
X0095760Y0125128D02*
X0093659Y0125128D01*
X0093659Y0126326D02*
X0095760Y0126326D01*
X0093659Y0126679D02*
X0082029Y0126679D01*
X0082029Y0113474D01*
X0092269Y0113474D01*
X0092676Y0113584D01*
X0093041Y0113794D01*
X0093339Y0114092D01*
X0093550Y0114457D01*
X0093659Y0114864D01*
X0093659Y0126679D01*
X0093659Y0121532D02*
X0095972Y0121532D01*
X0095945Y0120334D02*
X0093659Y0120334D01*
X0093659Y0119135D02*
X0096445Y0119135D01*
X0098216Y0117937D02*
X0093659Y0117937D01*
X0093659Y0116738D02*
X0116413Y0116738D01*
X0116413Y0115540D02*
X0093659Y0115540D01*
X0093483Y0114341D02*
X0116413Y0114341D01*
X0108929Y0120872D02*
X0108929Y0126275D01*
X0101966Y0117937D02*
X0099642Y0117937D01*
X0082029Y0117937D02*
X0080829Y0117937D01*
X0080829Y0119135D02*
X0082029Y0119135D01*
X0082029Y0120334D02*
X0080829Y0120334D01*
X0080829Y0121532D02*
X0082029Y0121532D01*
X0082029Y0122731D02*
X0080829Y0122731D01*
X0080829Y0123929D02*
X0082029Y0123929D01*
X0082029Y0125128D02*
X0080829Y0125128D01*
X0080829Y0126326D02*
X0082029Y0126326D01*
X0082029Y0129922D02*
X0080829Y0129922D01*
X0080829Y0131121D02*
X0082029Y0131121D01*
X0082029Y0132319D02*
X0080829Y0132319D01*
X0080829Y0133518D02*
X0082029Y0133518D01*
X0082029Y0134716D02*
X0080829Y0134716D01*
X0080829Y0135915D02*
X0082029Y0135915D01*
X0082029Y0137113D02*
X0080829Y0137113D01*
X0080829Y0138312D02*
X0082029Y0138312D01*
X0082029Y0139510D02*
X0080829Y0139510D01*
X0080829Y0140709D02*
X0082029Y0140709D01*
X0082029Y0116738D02*
X0080829Y0116738D01*
X0080829Y0115540D02*
X0082029Y0115540D01*
X0082029Y0114341D02*
X0080829Y0114341D01*
X0091429Y0168372D02*
X0091429Y0173775D01*
X0090740Y0179779D02*
X0091429Y0180468D01*
X0091429Y0197968D02*
X0091429Y0207476D01*
X0092098Y0208145D01*
X0091872Y0208372D02*
X0091724Y0208519D01*
X0082905Y0208519D01*
X0100760Y0212132D02*
X0100760Y0216452D01*
X0101429Y0217122D01*
X0107679Y0217122D02*
X0107679Y0211718D01*
X0107679Y0205025D02*
X0101173Y0205025D01*
X0100760Y0204612D01*
X0107679Y0205025D02*
X0114332Y0205025D01*
X0118929Y0209622D01*
X0118929Y0222122D01*
X0157929Y0261122D01*
X0157929Y0267122D01*
X0147929Y0267122D02*
X0147679Y0267122D01*
X0147679Y0254622D01*
X0121429Y0228372D01*
X0086980Y0228372D01*
X0086606Y0227998D01*
X0086606Y0231935D02*
X0086793Y0232122D01*
X0121429Y0232122D01*
X0127929Y0238622D01*
X0127929Y0267122D01*
X0125179Y0258372D02*
X0117929Y0266872D01*
X0117929Y0267122D01*
X0107929Y0267122D02*
X0107929Y0266872D01*
X0122679Y0252122D01*
X0122679Y0245872D01*
X0120179Y0243372D01*
X0086980Y0243372D01*
X0086606Y0243746D01*
X0086606Y0239809D02*
X0086793Y0239622D01*
X0121429Y0239622D01*
X0125179Y0243372D01*
X0125179Y0258372D01*
X0116429Y0235872D02*
X0086606Y0235872D01*
X0067118Y0239809D02*
X0066931Y0239622D01*
X0066744Y0243372D02*
X0067118Y0243746D01*
X0066931Y0232122D02*
X0067118Y0231935D01*
X0066744Y0228372D02*
X0067118Y0227998D01*
X0140179Y0228372D02*
X0140179Y0179622D01*
X0150582Y0169218D01*
X0162679Y0169218D01*
X0171429Y0169218D01*
X0177236Y0169218D01*
X0183929Y0162525D01*
X0193909Y0162525D01*
X0193929Y0162545D01*
X0196429Y0158372D02*
X0196429Y0150872D01*
X0198929Y0148372D01*
X0238929Y0148372D01*
X0251429Y0160872D01*
X0251429Y0168372D01*
X0248929Y0182122D02*
X0251429Y0184622D01*
X0251429Y0185872D01*
X0244775Y0185872D01*
X0248929Y0182122D02*
X0227679Y0182122D01*
X0218304Y0172747D01*
X0209554Y0172747D01*
X0203929Y0178372D01*
X0203929Y0184199D01*
X0201429Y0188372D02*
X0204775Y0191718D01*
X0204775Y0193372D01*
X0203929Y0193372D01*
X0204775Y0193372D02*
X0208929Y0193372D01*
X0208929Y0184199D01*
X0201429Y0188372D02*
X0201429Y0178372D01*
X0198929Y0175872D01*
X0186429Y0175872D01*
X0186025Y0176275D01*
X0183929Y0176275D01*
X0183929Y0182968D02*
X0188082Y0182968D01*
X0192679Y0178372D01*
X0197679Y0178372D01*
X0198929Y0179622D01*
X0198929Y0184199D01*
X0198082Y0193372D02*
X0191429Y0193372D01*
X0187679Y0197122D01*
X0184775Y0197122D01*
X0187679Y0203372D02*
X0193082Y0203372D01*
X0196429Y0200872D02*
X0196429Y0208372D01*
X0198929Y0210872D01*
X0198929Y0212545D01*
X0196429Y0208372D02*
X0172679Y0208372D01*
X0171429Y0209622D01*
X0171429Y0212525D01*
X0171429Y0219218D02*
X0162679Y0219218D01*
X0155582Y0219218D01*
X0152679Y0222122D01*
X0152679Y0233372D01*
X0173929Y0254622D01*
X0265179Y0254622D01*
X0273929Y0263372D01*
X0273929Y0267122D01*
X0283929Y0267122D02*
X0268929Y0252122D01*
X0176429Y0252122D01*
X0171429Y0247122D01*
X0171429Y0234218D01*
X0183929Y0234218D01*
X0185582Y0234218D01*
X0191429Y0228372D01*
X0196429Y0228372D01*
X0198929Y0230872D01*
X0198929Y0234199D01*
X0203929Y0234199D02*
X0203929Y0228372D01*
X0209554Y0222747D01*
X0220179Y0233372D01*
X0248929Y0233372D01*
X0251429Y0235872D01*
X0251429Y0237122D01*
X0244775Y0237122D01*
X0251429Y0237122D02*
X0260582Y0237122D01*
X0260582Y0219622D02*
X0251429Y0219622D01*
X0230179Y0198372D01*
X0198929Y0198372D01*
X0196429Y0200872D01*
X0199775Y0203372D02*
X0203929Y0203372D01*
X0203929Y0212545D01*
X0203929Y0217122D01*
X0201832Y0219218D01*
X0183929Y0219218D01*
X0178707Y0222747D02*
X0173929Y0227525D01*
X0171429Y0227525D01*
X0171429Y0234218D02*
X0162679Y0234218D01*
X0162679Y0227525D02*
X0162275Y0227122D01*
X0156429Y0227122D01*
X0150179Y0234622D02*
X0150179Y0188372D01*
X0155582Y0182968D01*
X0162679Y0182968D01*
X0171429Y0182968D01*
X0183929Y0182968D01*
X0177054Y0172747D02*
X0173525Y0176275D01*
X0171429Y0176275D01*
X0177054Y0172747D02*
X0209554Y0172747D01*
X0203929Y0167122D02*
X0203929Y0162545D01*
X0203929Y0153372D01*
X0199775Y0153372D01*
X0203929Y0153372D02*
X0208082Y0153372D01*
X0214775Y0153372D02*
X0220179Y0153372D01*
X0230179Y0157122D02*
X0230179Y0162968D01*
X0229775Y0163372D01*
X0216429Y0163372D02*
X0209756Y0163372D01*
X0208929Y0162545D01*
X0203929Y0167122D02*
X0201832Y0169218D01*
X0183929Y0169218D01*
X0171429Y0162525D02*
X0171429Y0159622D01*
X0172679Y0158372D01*
X0196429Y0158372D01*
X0198929Y0160872D01*
X0198929Y0162545D01*
X0193082Y0153372D02*
X0192679Y0152968D01*
X0192679Y0147122D01*
X0208929Y0193372D02*
X0213082Y0193372D01*
X0219775Y0193372D02*
X0225179Y0193372D01*
X0220179Y0203372D02*
X0214775Y0203372D01*
X0208082Y0203372D02*
X0203929Y0203372D01*
X0208929Y0212545D02*
X0209756Y0213372D01*
X0216429Y0213372D01*
X0209554Y0222747D02*
X0178707Y0222747D01*
X0177236Y0219218D02*
X0171429Y0219218D01*
X0177236Y0219218D02*
X0183929Y0212525D01*
X0183949Y0212545D01*
X0193929Y0212545D01*
X0198929Y0225872D02*
X0187679Y0225872D01*
X0186025Y0227525D01*
X0183929Y0227525D01*
X0180179Y0238372D02*
X0178082Y0240468D01*
X0178082Y0243372D01*
X0180179Y0238372D02*
X0188929Y0238372D01*
X0193929Y0233372D01*
X0193929Y0234199D01*
X0193929Y0234622D01*
X0201429Y0240025D02*
X0201429Y0228372D01*
X0198929Y0225872D01*
X0208929Y0234199D02*
X0208929Y0243372D01*
X0204775Y0243372D01*
X0201429Y0240025D01*
X0208929Y0243372D02*
X0213082Y0243372D01*
X0219775Y0243372D02*
X0225179Y0243372D01*
X0244775Y0219622D02*
X0251429Y0219622D01*
X0251429Y0194622D02*
X0260582Y0194622D01*
X0260582Y0185872D02*
X0251429Y0185872D01*
X0191429Y0243372D02*
X0184775Y0243372D01*
X0172679Y0257122D02*
X0150179Y0234622D01*
X0140179Y0228372D02*
X0171429Y0259622D01*
X0250179Y0259622D01*
X0253929Y0263372D01*
X0253929Y0267122D01*
X0263929Y0267122D02*
X0263929Y0263372D01*
X0257679Y0257122D01*
X0172679Y0257122D01*
X0162679Y0212525D02*
X0162679Y0207122D01*
X0161025Y0094622D02*
X0155179Y0094622D01*
X0161025Y0094622D02*
X0161429Y0094218D01*
X0161429Y0087525D02*
X0163929Y0085025D01*
X0167679Y0085025D01*
X0170179Y0087525D01*
X0170179Y0094218D02*
X0170582Y0094622D01*
X0176429Y0094622D01*
X0163929Y0085025D02*
X0163929Y0077122D01*
X0213929Y0077122D02*
X0213929Y0089622D01*
D28*
X0237679Y0162122D02*
X0237679Y0167968D01*
X0238082Y0168372D01*
X0244775Y0168372D02*
X0251429Y0168372D01*
X0260582Y0168372D01*
X0267275Y0168372D02*
X0267275Y0177122D01*
X0260582Y0177122D02*
X0251429Y0177122D01*
X0244775Y0177122D01*
X0238082Y0177122D02*
X0232679Y0177122D01*
X0232679Y0185872D02*
X0238082Y0185872D01*
X0238082Y0195872D02*
X0232679Y0195872D01*
X0230179Y0207122D02*
X0230179Y0212968D01*
X0229775Y0213372D01*
X0238082Y0219622D02*
X0238929Y0218775D01*
X0238929Y0213372D01*
X0238082Y0228372D02*
X0232679Y0228372D01*
X0232679Y0237122D02*
X0238082Y0237122D01*
X0238082Y0247122D02*
X0232679Y0247122D01*
X0244775Y0247122D02*
X0250179Y0247122D01*
X0251429Y0245872D01*
X0260582Y0245872D01*
X0267275Y0245872D02*
X0267275Y0237122D01*
X0267275Y0245872D02*
X0271025Y0249622D01*
X0273929Y0249622D01*
X0267275Y0228372D02*
X0267275Y0219622D01*
X0267679Y0219218D01*
X0267679Y0212122D01*
X0267679Y0200872D02*
X0267679Y0195025D01*
X0267275Y0194622D02*
X0267275Y0185872D01*
X0267275Y0168372D02*
X0267679Y0167968D01*
X0267679Y0160872D01*
X0251429Y0194622D02*
X0250179Y0195872D01*
X0244775Y0195872D01*
X0223082Y0213372D02*
X0216429Y0213372D01*
X0198082Y0243372D02*
X0191429Y0243372D01*
X0178082Y0197122D02*
X0178082Y0192968D01*
X0182679Y0188372D01*
X0188929Y0188372D01*
X0193102Y0184199D01*
X0193929Y0184199D01*
X0183949Y0162545D02*
X0183929Y0162525D01*
X0162679Y0162525D02*
X0162275Y0162122D01*
X0155179Y0162122D01*
X0155179Y0175872D02*
X0162275Y0175872D01*
X0162679Y0176275D01*
X0120179Y0143372D02*
X0120179Y0137112D01*
X0120179Y0129632D02*
X0120179Y0121718D01*
X0113929Y0145872D02*
X0102494Y0145872D01*
X0102494Y0149267D01*
X0102139Y0149622D01*
X0102494Y0149977D01*
X0102494Y0154053D01*
X0103375Y0153172D01*
X0104545Y0152687D01*
X0105812Y0152687D01*
X0106983Y0153172D01*
X0107878Y0154068D01*
X0108363Y0155238D01*
X0108363Y0156505D01*
X0107878Y0157675D01*
X0107807Y0157747D01*
X0107878Y0157818D01*
X0108363Y0158988D01*
X0108363Y0160255D01*
X0107878Y0161425D01*
X0106983Y0162321D01*
X0105812Y0162806D01*
X0104545Y0162806D01*
X0103375Y0162321D01*
X0102494Y0161440D01*
X0102494Y0161767D01*
X0101674Y0162587D01*
X0096184Y0162587D01*
X0095363Y0161767D01*
X0095363Y0157548D01*
X0094840Y0158072D01*
X0093774Y0158072D01*
X0093774Y0159749D01*
X0092954Y0160569D01*
X0087857Y0160569D01*
X0087037Y0159749D01*
X0087037Y0152290D01*
X0087857Y0151470D01*
X0092954Y0151470D01*
X0093774Y0152290D01*
X0093774Y0152916D01*
X0095363Y0151326D01*
X0095363Y0149977D01*
X0095719Y0149622D01*
X0095363Y0149267D01*
X0095363Y0145872D01*
X0083432Y0145872D01*
X0084128Y0146568D01*
X0084613Y0147738D01*
X0084613Y0149005D01*
X0084128Y0150175D01*
X0084036Y0150268D01*
X0084797Y0151030D01*
X0084797Y0156521D01*
X0084473Y0156845D01*
X0084503Y0156862D01*
X0084838Y0157198D01*
X0085075Y0157608D01*
X0085197Y0158066D01*
X0085197Y0160284D01*
X0081613Y0160284D01*
X0081613Y0160652D01*
X0085197Y0160652D01*
X0085197Y0162871D01*
X0085075Y0163328D01*
X0084838Y0163739D01*
X0084503Y0164074D01*
X0084092Y0164311D01*
X0083634Y0164434D01*
X0081613Y0164434D01*
X0081613Y0160653D01*
X0081245Y0160653D01*
X0081245Y0164434D01*
X0079223Y0164434D01*
X0078766Y0164311D01*
X0078355Y0164074D01*
X0078020Y0163739D01*
X0077783Y0163328D01*
X0077660Y0162871D01*
X0077660Y0160652D01*
X0081245Y0160652D01*
X0081245Y0160284D01*
X0077660Y0160284D01*
X0077660Y0158066D01*
X0077783Y0157608D01*
X0078020Y0157198D01*
X0078355Y0156862D01*
X0078385Y0156845D01*
X0078060Y0156521D01*
X0078060Y0151556D01*
X0077045Y0151556D01*
X0075875Y0151071D01*
X0074979Y0150175D01*
X0074495Y0149005D01*
X0074495Y0147738D01*
X0074979Y0146568D01*
X0075676Y0145872D01*
X0036729Y0145872D01*
X0036729Y0209611D01*
X0038690Y0211354D01*
X0038690Y0211080D01*
X0039488Y0209154D01*
X0040961Y0207681D01*
X0042887Y0206883D01*
X0044971Y0206883D01*
X0046896Y0207681D01*
X0048370Y0209154D01*
X0049167Y0211080D01*
X0049167Y0213164D01*
X0048850Y0213931D01*
X0052040Y0217122D01*
X0062679Y0217122D01*
X0070875Y0225318D01*
X0072127Y0225318D01*
X0072947Y0226138D01*
X0072947Y0229857D01*
X0072838Y0229966D01*
X0072947Y0230075D01*
X0072947Y0233372D01*
X0078929Y0233372D01*
X0078929Y0224640D01*
X0077017Y0224640D01*
X0077017Y0221056D01*
X0076648Y0221056D01*
X0076648Y0220687D01*
X0077017Y0220687D01*
X0077017Y0217103D01*
X0078929Y0217103D01*
X0078929Y0204622D01*
X0087679Y0194622D01*
X0088096Y0194622D01*
X0087823Y0194349D01*
X0087586Y0193939D01*
X0087463Y0193481D01*
X0087463Y0191460D01*
X0091245Y0191460D01*
X0091245Y0191091D01*
X0091613Y0191091D01*
X0091613Y0187507D01*
X0093831Y0187507D01*
X0094289Y0187629D01*
X0094699Y0187866D01*
X0095035Y0188202D01*
X0095272Y0188612D01*
X0095394Y0189070D01*
X0095394Y0191091D01*
X0091613Y0191091D01*
X0091613Y0191460D01*
X0095394Y0191460D01*
X0095394Y0193481D01*
X0095272Y0193939D01*
X0095035Y0194349D01*
X0094762Y0194622D01*
X0095179Y0194622D01*
X0102076Y0187724D01*
X0102076Y0181493D01*
X0102896Y0180673D01*
X0104229Y0180673D01*
X0104229Y0180087D01*
X0103684Y0180087D01*
X0102863Y0179267D01*
X0102863Y0174170D01*
X0103438Y0173596D01*
X0103158Y0173434D01*
X0102823Y0173099D01*
X0102586Y0172689D01*
X0102463Y0172231D01*
X0102463Y0170210D01*
X0106245Y0170210D01*
X0106245Y0169841D01*
X0106613Y0169841D01*
X0106613Y0166257D01*
X0108831Y0166257D01*
X0109289Y0166379D01*
X0109699Y0166616D01*
X0110035Y0166952D01*
X0110272Y0167362D01*
X0110394Y0167820D01*
X0110394Y0169841D01*
X0106613Y0169841D01*
X0106613Y0170210D01*
X0110394Y0170210D01*
X0110394Y0172231D01*
X0110272Y0172689D01*
X0110035Y0173099D01*
X0109699Y0173434D01*
X0109420Y0173596D01*
X0109994Y0174170D01*
X0109994Y0179267D01*
X0109174Y0180087D01*
X0108629Y0180087D01*
X0108629Y0180673D01*
X0109128Y0180673D01*
X0113929Y0175872D01*
X0113929Y0145872D01*
X0113929Y0147131D02*
X0102494Y0147131D01*
X0102494Y0148729D02*
X0113929Y0148729D01*
X0113929Y0150328D02*
X0102494Y0150328D01*
X0102494Y0151926D02*
X0113929Y0151926D01*
X0113929Y0153525D02*
X0107335Y0153525D01*
X0108316Y0155123D02*
X0113929Y0155123D01*
X0113929Y0156722D02*
X0108273Y0156722D01*
X0108086Y0158321D02*
X0113929Y0158321D01*
X0113929Y0159919D02*
X0108363Y0159919D01*
X0107786Y0161518D02*
X0113929Y0161518D01*
X0113929Y0163116D02*
X0085132Y0163116D01*
X0085197Y0161518D02*
X0095363Y0161518D01*
X0095363Y0159919D02*
X0093604Y0159919D01*
X0093774Y0158321D02*
X0095363Y0158321D01*
X0093929Y0155872D02*
X0098929Y0150872D01*
X0098929Y0146718D01*
X0098929Y0152525D01*
X0102494Y0153525D02*
X0103022Y0153525D01*
X0104775Y0159218D02*
X0098929Y0159218D01*
X0102494Y0161518D02*
X0102571Y0161518D01*
X0104775Y0159218D02*
X0105179Y0159622D01*
X0106245Y0166257D02*
X0106245Y0169841D01*
X0102463Y0169841D01*
X0102463Y0167820D01*
X0102586Y0167362D01*
X0102823Y0166952D01*
X0103158Y0166616D01*
X0103569Y0166379D01*
X0104027Y0166257D01*
X0106245Y0166257D01*
X0106245Y0166313D02*
X0106613Y0166313D01*
X0106613Y0167912D02*
X0106245Y0167912D01*
X0106245Y0169510D02*
X0106613Y0169510D01*
X0109041Y0166313D02*
X0113929Y0166313D01*
X0113929Y0164715D02*
X0067089Y0164715D01*
X0066983Y0164821D02*
X0065812Y0165306D01*
X0064545Y0165306D01*
X0063375Y0164821D01*
X0062479Y0163925D01*
X0061995Y0162755D01*
X0061995Y0161488D01*
X0062479Y0160318D01*
X0062572Y0160225D01*
X0061810Y0159463D01*
X0061810Y0153973D01*
X0062135Y0153648D01*
X0062105Y0153631D01*
X0061770Y0153296D01*
X0061533Y0152885D01*
X0061410Y0152428D01*
X0061410Y0150210D01*
X0064995Y0150210D01*
X0064995Y0149841D01*
X0065363Y0149841D01*
X0065363Y0146060D01*
X0067384Y0146060D01*
X0067842Y0146183D01*
X0068253Y0146420D01*
X0068588Y0146755D01*
X0068825Y0147165D01*
X0068947Y0147623D01*
X0068947Y0149841D01*
X0065363Y0149841D01*
X0065363Y0150210D01*
X0068947Y0150210D01*
X0068947Y0151931D01*
X0069044Y0151765D01*
X0069379Y0151429D01*
X0069789Y0151192D01*
X0070247Y0151070D01*
X0072268Y0151070D01*
X0072268Y0155835D01*
X0068684Y0155835D01*
X0068684Y0153129D01*
X0068588Y0153296D01*
X0068253Y0153631D01*
X0068223Y0153648D01*
X0068547Y0153973D01*
X0068547Y0159463D01*
X0067786Y0160225D01*
X0067878Y0160318D01*
X0068363Y0161488D01*
X0068363Y0162755D01*
X0067878Y0163925D01*
X0066983Y0164821D01*
X0068214Y0163116D02*
X0077726Y0163116D01*
X0077660Y0161518D02*
X0068363Y0161518D01*
X0069379Y0160609D02*
X0069044Y0160274D01*
X0068807Y0159864D01*
X0068684Y0159406D01*
X0068684Y0156204D01*
X0072268Y0156204D01*
X0072268Y0160969D01*
X0070247Y0160969D01*
X0069789Y0160846D01*
X0069379Y0160609D01*
X0068839Y0159919D02*
X0068092Y0159919D01*
X0068547Y0158321D02*
X0068684Y0158321D01*
X0068684Y0156722D02*
X0068547Y0156722D01*
X0068547Y0155123D02*
X0068684Y0155123D01*
X0068684Y0153525D02*
X0068359Y0153525D01*
X0068947Y0151926D02*
X0068950Y0151926D01*
X0068947Y0150328D02*
X0075132Y0150328D01*
X0075116Y0151192D02*
X0075526Y0151429D01*
X0075861Y0151765D01*
X0076098Y0152175D01*
X0076221Y0152633D01*
X0076221Y0155835D01*
X0072637Y0155835D01*
X0072637Y0156204D01*
X0072268Y0156204D01*
X0072268Y0155835D01*
X0072637Y0155835D01*
X0072637Y0151070D01*
X0074658Y0151070D01*
X0075116Y0151192D01*
X0075955Y0151926D02*
X0078060Y0151926D01*
X0078060Y0153525D02*
X0076221Y0153525D01*
X0076221Y0155123D02*
X0078060Y0155123D01*
X0078262Y0156722D02*
X0076221Y0156722D01*
X0076221Y0156204D02*
X0076221Y0159406D01*
X0076098Y0159864D01*
X0075861Y0160274D01*
X0075526Y0160609D01*
X0075116Y0160846D01*
X0074658Y0160969D01*
X0072637Y0160969D01*
X0072637Y0156204D01*
X0076221Y0156204D01*
X0076221Y0158321D02*
X0077660Y0158321D01*
X0077660Y0159919D02*
X0076066Y0159919D01*
X0072637Y0159919D02*
X0072268Y0159919D01*
X0072268Y0158321D02*
X0072637Y0158321D01*
X0072637Y0156722D02*
X0072268Y0156722D01*
X0072452Y0156019D02*
X0071429Y0154996D01*
X0071429Y0154622D01*
X0071025Y0155025D01*
X0072268Y0155123D02*
X0072637Y0155123D01*
X0072637Y0153525D02*
X0072268Y0153525D01*
X0072268Y0151926D02*
X0072637Y0151926D01*
X0074495Y0148729D02*
X0068947Y0148729D01*
X0068805Y0147131D02*
X0074746Y0147131D01*
X0081429Y0148372D02*
X0081429Y0153775D01*
X0084797Y0153525D02*
X0087037Y0153525D01*
X0087037Y0155123D02*
X0084797Y0155123D01*
X0084596Y0156722D02*
X0087037Y0156722D01*
X0087037Y0158321D02*
X0085197Y0158321D01*
X0085197Y0159919D02*
X0087207Y0159919D01*
X0089625Y0165672D02*
X0090795Y0165187D01*
X0092062Y0165187D01*
X0093233Y0165672D01*
X0093304Y0165744D01*
X0093375Y0165672D01*
X0094545Y0165187D01*
X0095812Y0165187D01*
X0096983Y0165672D01*
X0097878Y0166568D01*
X0098363Y0167738D01*
X0098363Y0169005D01*
X0097878Y0170175D01*
X0096983Y0171071D01*
X0095812Y0171556D01*
X0094797Y0171556D01*
X0094797Y0176521D01*
X0094196Y0177122D01*
X0094797Y0177723D01*
X0094797Y0183213D01*
X0093977Y0184034D01*
X0088880Y0184034D01*
X0088060Y0183213D01*
X0088060Y0181979D01*
X0085959Y0181979D01*
X0085959Y0192564D01*
X0085139Y0193384D01*
X0062719Y0193384D01*
X0061899Y0192564D01*
X0061899Y0183679D01*
X0050811Y0183679D01*
X0049377Y0183085D01*
X0048280Y0181988D01*
X0043652Y0177360D01*
X0039510Y0177360D01*
X0038690Y0176540D01*
X0038690Y0167703D01*
X0039510Y0166883D01*
X0041735Y0166883D01*
X0040961Y0166563D01*
X0039488Y0165089D01*
X0038690Y0163164D01*
X0038690Y0161080D01*
X0039488Y0159154D01*
X0040961Y0157681D01*
X0042887Y0156883D01*
X0044971Y0156883D01*
X0046896Y0157681D01*
X0048370Y0159154D01*
X0049167Y0161080D01*
X0049167Y0163164D01*
X0048370Y0165089D01*
X0046896Y0166563D01*
X0046123Y0166883D01*
X0048347Y0166883D01*
X0049167Y0167703D01*
X0049167Y0171845D01*
X0053202Y0175879D01*
X0061899Y0175879D01*
X0061899Y0166995D01*
X0062719Y0166174D01*
X0085139Y0166174D01*
X0085959Y0166995D01*
X0085959Y0177579D01*
X0088204Y0177579D01*
X0088662Y0177122D01*
X0088060Y0176521D01*
X0088060Y0171030D01*
X0088822Y0170268D01*
X0088729Y0170175D01*
X0088245Y0169005D01*
X0088245Y0167738D01*
X0088729Y0166568D01*
X0089625Y0165672D01*
X0088984Y0166313D02*
X0085277Y0166313D01*
X0085959Y0167912D02*
X0088245Y0167912D01*
X0088454Y0169510D02*
X0085959Y0169510D01*
X0085959Y0171109D02*
X0088060Y0171109D01*
X0088060Y0172707D02*
X0085959Y0172707D01*
X0085959Y0174306D02*
X0088060Y0174306D01*
X0088060Y0175904D02*
X0085959Y0175904D01*
X0085959Y0177503D02*
X0088281Y0177503D01*
X0090740Y0179779D02*
X0073929Y0179779D01*
X0085959Y0182298D02*
X0088060Y0182298D01*
X0088744Y0183897D02*
X0085959Y0183897D01*
X0085959Y0185495D02*
X0102076Y0185495D01*
X0102076Y0183897D02*
X0094114Y0183897D01*
X0094797Y0182298D02*
X0102076Y0182298D01*
X0102869Y0180700D02*
X0094797Y0180700D01*
X0094797Y0179101D02*
X0102863Y0179101D01*
X0102863Y0177503D02*
X0094577Y0177503D01*
X0094797Y0175904D02*
X0102863Y0175904D01*
X0102863Y0174306D02*
X0094797Y0174306D01*
X0094797Y0172707D02*
X0102597Y0172707D01*
X0102463Y0171109D02*
X0096892Y0171109D01*
X0098154Y0169510D02*
X0102463Y0169510D01*
X0102463Y0167912D02*
X0098363Y0167912D01*
X0097623Y0166313D02*
X0103816Y0166313D01*
X0109994Y0174306D02*
X0113929Y0174306D01*
X0113896Y0175904D02*
X0109994Y0175904D01*
X0109994Y0177503D02*
X0112298Y0177503D01*
X0110699Y0179101D02*
X0109994Y0179101D01*
X0106429Y0176718D02*
X0106429Y0184632D01*
X0102076Y0187094D02*
X0085959Y0187094D01*
X0085959Y0188692D02*
X0087565Y0188692D01*
X0087586Y0188612D02*
X0087823Y0188202D01*
X0088158Y0187866D01*
X0088569Y0187629D01*
X0089027Y0187507D01*
X0091245Y0187507D01*
X0091245Y0191091D01*
X0087463Y0191091D01*
X0087463Y0189070D01*
X0087586Y0188612D01*
X0087463Y0190291D02*
X0085959Y0190291D01*
X0085959Y0191889D02*
X0087463Y0191889D01*
X0087465Y0193488D02*
X0049567Y0193488D01*
X0049567Y0193046D02*
X0049567Y0196642D01*
X0044408Y0196642D01*
X0044408Y0197601D01*
X0043449Y0197601D01*
X0043449Y0196642D01*
X0038290Y0196642D01*
X0038290Y0193046D01*
X0038413Y0192588D01*
X0038650Y0192178D01*
X0038985Y0191843D01*
X0039395Y0191606D01*
X0039853Y0191483D01*
X0040882Y0191483D01*
X0039488Y0190089D01*
X0038690Y0188164D01*
X0038690Y0186080D01*
X0039488Y0184154D01*
X0040961Y0182681D01*
X0042887Y0181883D01*
X0044971Y0181883D01*
X0046896Y0182681D01*
X0048370Y0184154D01*
X0049167Y0186080D01*
X0049167Y0188164D01*
X0048370Y0190089D01*
X0046976Y0191483D01*
X0048004Y0191483D01*
X0048462Y0191606D01*
X0048873Y0191843D01*
X0049208Y0192178D01*
X0049445Y0192588D01*
X0049567Y0193046D01*
X0048919Y0191889D02*
X0061899Y0191889D01*
X0061899Y0190291D02*
X0048168Y0190291D01*
X0048949Y0188692D02*
X0061899Y0188692D01*
X0061899Y0187094D02*
X0049167Y0187094D01*
X0048925Y0185495D02*
X0061899Y0185495D01*
X0061899Y0183897D02*
X0048112Y0183897D01*
X0048590Y0182298D02*
X0045973Y0182298D01*
X0046991Y0180700D02*
X0036729Y0180700D01*
X0036729Y0182298D02*
X0041885Y0182298D01*
X0039745Y0183897D02*
X0036729Y0183897D01*
X0036729Y0185495D02*
X0038932Y0185495D01*
X0038690Y0187094D02*
X0036729Y0187094D01*
X0036729Y0188692D02*
X0038909Y0188692D01*
X0039689Y0190291D02*
X0036729Y0190291D01*
X0036729Y0191889D02*
X0038939Y0191889D01*
X0038290Y0193488D02*
X0036729Y0193488D01*
X0036729Y0195086D02*
X0038290Y0195086D01*
X0036729Y0196685D02*
X0043449Y0196685D01*
X0043449Y0197601D02*
X0038290Y0197601D01*
X0038290Y0201197D01*
X0038413Y0201655D01*
X0038650Y0202066D01*
X0038985Y0202401D01*
X0039395Y0202638D01*
X0039853Y0202760D01*
X0043449Y0202760D01*
X0043449Y0197601D01*
X0043449Y0198283D02*
X0044408Y0198283D01*
X0044408Y0197601D02*
X0044408Y0202760D01*
X0048004Y0202760D01*
X0048462Y0202638D01*
X0048873Y0202401D01*
X0049208Y0202066D01*
X0049445Y0201655D01*
X0049567Y0201197D01*
X0049567Y0197601D01*
X0044408Y0197601D01*
X0044408Y0196685D02*
X0085874Y0196685D01*
X0087272Y0195086D02*
X0049567Y0195086D01*
X0049567Y0198283D02*
X0084475Y0198283D01*
X0083076Y0199882D02*
X0049567Y0199882D01*
X0049492Y0201480D02*
X0081678Y0201480D01*
X0080279Y0203079D02*
X0036729Y0203079D01*
X0036729Y0204677D02*
X0061306Y0204677D01*
X0061307Y0204675D02*
X0061544Y0204265D01*
X0061879Y0203929D01*
X0062289Y0203692D01*
X0062747Y0203570D01*
X0064768Y0203570D01*
X0064768Y0208335D01*
X0061184Y0208335D01*
X0061184Y0205133D01*
X0061307Y0204675D01*
X0061184Y0206276D02*
X0036729Y0206276D01*
X0036729Y0207874D02*
X0040768Y0207874D01*
X0039356Y0209473D02*
X0036729Y0209473D01*
X0038372Y0211071D02*
X0038694Y0211071D01*
X0043929Y0212122D02*
X0060179Y0228372D01*
X0066744Y0228372D01*
X0066931Y0232122D02*
X0058929Y0232122D01*
X0048929Y0222122D01*
X0043929Y0222122D01*
X0050785Y0215867D02*
X0078929Y0215867D01*
X0078929Y0214268D02*
X0049187Y0214268D01*
X0049167Y0212670D02*
X0061483Y0212670D01*
X0061544Y0212774D02*
X0061307Y0212364D01*
X0061184Y0211906D01*
X0061184Y0208704D01*
X0064768Y0208704D01*
X0064768Y0213469D01*
X0062747Y0213469D01*
X0062289Y0213346D01*
X0061879Y0213109D01*
X0061544Y0212774D01*
X0061184Y0211071D02*
X0049164Y0211071D01*
X0048502Y0209473D02*
X0061184Y0209473D01*
X0061184Y0207874D02*
X0047090Y0207874D01*
X0044408Y0201480D02*
X0043449Y0201480D01*
X0043449Y0199882D02*
X0044408Y0199882D01*
X0038290Y0199882D02*
X0036729Y0199882D01*
X0036729Y0201480D02*
X0038366Y0201480D01*
X0038290Y0198283D02*
X0036729Y0198283D01*
X0036729Y0179101D02*
X0045393Y0179101D01*
X0043794Y0177503D02*
X0036729Y0177503D01*
X0036729Y0175904D02*
X0038690Y0175904D01*
X0038690Y0174306D02*
X0036729Y0174306D01*
X0036729Y0172707D02*
X0038690Y0172707D01*
X0038690Y0171109D02*
X0036729Y0171109D01*
X0036729Y0169510D02*
X0038690Y0169510D01*
X0038690Y0167912D02*
X0036729Y0167912D01*
X0036729Y0166313D02*
X0040712Y0166313D01*
X0039333Y0164715D02*
X0036729Y0164715D01*
X0036729Y0163116D02*
X0038690Y0163116D01*
X0038690Y0161518D02*
X0036729Y0161518D01*
X0036729Y0159919D02*
X0039171Y0159919D01*
X0040322Y0158321D02*
X0036729Y0158321D01*
X0036729Y0156722D02*
X0061810Y0156722D01*
X0061810Y0158321D02*
X0047536Y0158321D01*
X0048687Y0159919D02*
X0062266Y0159919D01*
X0061995Y0161518D02*
X0049167Y0161518D01*
X0049167Y0163116D02*
X0062144Y0163116D01*
X0063268Y0164715D02*
X0048525Y0164715D01*
X0047146Y0166313D02*
X0062580Y0166313D01*
X0061899Y0167912D02*
X0049167Y0167912D01*
X0049167Y0169510D02*
X0061899Y0169510D01*
X0061899Y0171109D02*
X0049167Y0171109D01*
X0050030Y0172707D02*
X0061899Y0172707D01*
X0061899Y0174306D02*
X0051628Y0174306D01*
X0065179Y0162122D02*
X0065179Y0156718D01*
X0061810Y0155123D02*
X0036729Y0155123D01*
X0036729Y0153525D02*
X0061999Y0153525D01*
X0061410Y0151926D02*
X0036729Y0151926D01*
X0036729Y0150328D02*
X0061410Y0150328D01*
X0061410Y0149841D02*
X0061410Y0147623D01*
X0061533Y0147165D01*
X0061770Y0146755D01*
X0062105Y0146420D01*
X0062516Y0146183D01*
X0062973Y0146060D01*
X0064995Y0146060D01*
X0064995Y0149841D01*
X0061410Y0149841D01*
X0061410Y0148729D02*
X0036729Y0148729D01*
X0036729Y0147131D02*
X0061553Y0147131D01*
X0064995Y0147131D02*
X0065363Y0147131D01*
X0065363Y0148729D02*
X0064995Y0148729D01*
X0081245Y0161518D02*
X0081613Y0161518D01*
X0081613Y0163116D02*
X0081245Y0163116D01*
X0090405Y0156019D02*
X0090553Y0155872D01*
X0093929Y0155872D01*
X0093410Y0151926D02*
X0094763Y0151926D01*
X0095363Y0150328D02*
X0084095Y0150328D01*
X0084613Y0148729D02*
X0095363Y0148729D01*
X0095363Y0147131D02*
X0084361Y0147131D01*
X0084797Y0151926D02*
X0087400Y0151926D01*
X0110394Y0167912D02*
X0113929Y0167912D01*
X0113929Y0169510D02*
X0110394Y0169510D01*
X0110394Y0171109D02*
X0113929Y0171109D01*
X0113929Y0172707D02*
X0110261Y0172707D01*
X0101108Y0188692D02*
X0095293Y0188692D01*
X0095394Y0190291D02*
X0099510Y0190291D01*
X0097911Y0191889D02*
X0095394Y0191889D01*
X0095392Y0193488D02*
X0096313Y0193488D01*
X0091613Y0190291D02*
X0091245Y0190291D01*
X0091245Y0188692D02*
X0091613Y0188692D01*
X0106429Y0192112D02*
X0106429Y0198372D01*
X0092098Y0208145D02*
X0091872Y0208372D01*
X0092098Y0208372D02*
X0092098Y0208145D01*
X0088929Y0220872D02*
X0083525Y0220872D01*
X0078929Y0225458D02*
X0072267Y0225458D01*
X0072947Y0227056D02*
X0078929Y0227056D01*
X0078929Y0228655D02*
X0072947Y0228655D01*
X0072947Y0230254D02*
X0078929Y0230254D01*
X0078929Y0231852D02*
X0072947Y0231852D01*
X0073929Y0235872D02*
X0067118Y0235872D01*
X0066931Y0239622D02*
X0056429Y0239622D01*
X0048929Y0232122D01*
X0043929Y0232122D01*
X0043929Y0242122D02*
X0045179Y0243372D01*
X0066744Y0243372D01*
X0073929Y0243042D02*
X0080777Y0243042D01*
X0080777Y0241886D02*
X0080777Y0245605D01*
X0081597Y0246425D01*
X0091615Y0246425D01*
X0092435Y0245605D01*
X0092435Y0245372D01*
X0119350Y0245372D01*
X0120679Y0246700D01*
X0120679Y0251293D01*
X0117350Y0254622D01*
X0078983Y0254622D01*
X0078751Y0254166D01*
X0078230Y0253448D01*
X0077602Y0252821D01*
X0076884Y0252299D01*
X0076093Y0251896D01*
X0075249Y0251622D01*
X0074572Y0251515D01*
X0073929Y0250872D01*
X0073929Y0235872D01*
X0076429Y0235872D01*
X0080777Y0240220D01*
X0080777Y0241668D01*
X0080886Y0241777D01*
X0080777Y0241886D01*
X0080777Y0241443D02*
X0073929Y0241443D01*
X0073929Y0239845D02*
X0080402Y0239845D01*
X0078803Y0238246D02*
X0073929Y0238246D01*
X0073929Y0236648D02*
X0077205Y0236648D01*
X0073929Y0244640D02*
X0080777Y0244640D01*
X0081410Y0246239D02*
X0073929Y0246239D01*
X0073929Y0247837D02*
X0113093Y0247837D01*
X0113078Y0247860D02*
X0113492Y0247241D01*
X0114019Y0246714D01*
X0114638Y0246300D01*
X0115326Y0246015D01*
X0116056Y0245870D01*
X0116429Y0245870D01*
X0116801Y0245870D01*
X0117532Y0246015D01*
X0118220Y0246300D01*
X0118839Y0246714D01*
X0119366Y0247241D01*
X0119780Y0247860D01*
X0120065Y0248548D01*
X0120210Y0249279D01*
X0120210Y0249651D01*
X0116429Y0249651D01*
X0116429Y0245870D01*
X0116429Y0249651D01*
X0116429Y0249651D01*
X0116429Y0249651D01*
X0120210Y0249651D01*
X0120210Y0250024D01*
X0120065Y0250754D01*
X0119780Y0251442D01*
X0119366Y0252062D01*
X0118839Y0252588D01*
X0118220Y0253002D01*
X0117532Y0253287D01*
X0116801Y0253432D01*
X0116429Y0253432D01*
X0116429Y0249651D01*
X0112648Y0249651D01*
X0112648Y0249279D01*
X0112793Y0248548D01*
X0113078Y0247860D01*
X0112648Y0249436D02*
X0073929Y0249436D01*
X0074091Y0251034D02*
X0112909Y0251034D01*
X0112793Y0250754D02*
X0112648Y0250024D01*
X0112648Y0249651D01*
X0116429Y0249651D01*
X0116429Y0249651D01*
X0116429Y0249651D01*
X0116429Y0253432D01*
X0116056Y0253432D01*
X0115326Y0253287D01*
X0114638Y0253002D01*
X0114019Y0252588D01*
X0113492Y0252062D01*
X0113078Y0251442D01*
X0112793Y0250754D01*
X0114085Y0252633D02*
X0077343Y0252633D01*
X0078784Y0254231D02*
X0117741Y0254231D01*
X0118773Y0252633D02*
X0119339Y0252633D01*
X0119949Y0251034D02*
X0120679Y0251034D01*
X0120679Y0249436D02*
X0120210Y0249436D01*
X0119764Y0247837D02*
X0120679Y0247837D01*
X0120217Y0246239D02*
X0118071Y0246239D01*
X0116429Y0246239D02*
X0116429Y0246239D01*
X0116429Y0247837D02*
X0116429Y0247837D01*
X0116429Y0249436D02*
X0116429Y0249436D01*
X0116429Y0251034D02*
X0116429Y0251034D01*
X0116429Y0252633D02*
X0116429Y0252633D01*
X0114787Y0246239D02*
X0091802Y0246239D01*
X0076648Y0224640D02*
X0074430Y0224640D01*
X0073972Y0224518D01*
X0073562Y0224281D01*
X0073227Y0223945D01*
X0072990Y0223535D01*
X0072867Y0223077D01*
X0072867Y0221056D01*
X0076648Y0221056D01*
X0076648Y0224640D01*
X0076648Y0223859D02*
X0077017Y0223859D01*
X0077017Y0222261D02*
X0076648Y0222261D01*
X0076648Y0220687D02*
X0072867Y0220687D01*
X0072867Y0218666D01*
X0072990Y0218208D01*
X0073227Y0217798D01*
X0073562Y0217463D01*
X0073972Y0217226D01*
X0074430Y0217103D01*
X0076648Y0217103D01*
X0076648Y0220687D01*
X0076648Y0220662D02*
X0077017Y0220662D01*
X0077017Y0219064D02*
X0076648Y0219064D01*
X0076648Y0217465D02*
X0077017Y0217465D01*
X0073559Y0217465D02*
X0063023Y0217465D01*
X0064621Y0219064D02*
X0072867Y0219064D01*
X0072867Y0220662D02*
X0066220Y0220662D01*
X0067818Y0222261D02*
X0072867Y0222261D01*
X0073177Y0223859D02*
X0069417Y0223859D01*
X0067158Y0213469D02*
X0065137Y0213469D01*
X0065137Y0208704D01*
X0064768Y0208704D01*
X0064768Y0208335D01*
X0065137Y0208335D01*
X0065137Y0208704D01*
X0068721Y0208704D01*
X0068721Y0211906D01*
X0068598Y0212364D01*
X0068361Y0212774D01*
X0068026Y0213109D01*
X0067616Y0213346D01*
X0067158Y0213469D01*
X0068422Y0212670D02*
X0078929Y0212670D01*
X0078929Y0211071D02*
X0068721Y0211071D01*
X0068721Y0209473D02*
X0078929Y0209473D01*
X0078929Y0207874D02*
X0068721Y0207874D01*
X0068721Y0208335D02*
X0065137Y0208335D01*
X0065137Y0203570D01*
X0067158Y0203570D01*
X0067616Y0203692D01*
X0068026Y0203929D01*
X0068361Y0204265D01*
X0068598Y0204675D01*
X0068721Y0205133D01*
X0068721Y0208335D01*
X0068721Y0206276D02*
X0078929Y0206276D01*
X0078929Y0204677D02*
X0068599Y0204677D01*
X0065137Y0204677D02*
X0064768Y0204677D01*
X0064768Y0206276D02*
X0065137Y0206276D01*
X0065137Y0207874D02*
X0064768Y0207874D01*
X0064768Y0209473D02*
X0065137Y0209473D01*
X0065137Y0211071D02*
X0064768Y0211071D01*
X0064768Y0212670D02*
X0065137Y0212670D01*
X0216429Y0163372D02*
X0223082Y0163372D01*
X0244775Y0228372D02*
X0251429Y0228372D01*
X0260582Y0228372D01*
D29*
X0267679Y0195025D02*
X0267275Y0194622D01*
X0233929Y0267122D02*
X0205179Y0295872D01*
X0091429Y0295872D01*
X0087679Y0292122D01*
X0073929Y0292122D01*
X0063929Y0287122D02*
X0085179Y0287122D01*
X0091429Y0293372D01*
X0197679Y0293372D01*
X0223929Y0267122D01*
X0213929Y0267122D02*
X0190179Y0290872D01*
X0091429Y0290872D01*
X0072679Y0272122D01*
X0048929Y0272122D01*
X0043929Y0267122D01*
X0063929Y0287122D02*
X0058929Y0292122D01*
X0043929Y0292122D01*
X0073929Y0267122D02*
X0095179Y0288372D01*
X0184179Y0288372D01*
X0197929Y0274622D01*
X0197929Y0267122D01*
X0053929Y0122122D02*
X0053929Y0115872D01*
X0070179Y0099622D01*
X0092679Y0099622D01*
X0125179Y0067122D01*
X0226429Y0067122D01*
X0233929Y0073372D01*
X0233929Y0077122D01*
X0243929Y0077122D02*
X0243929Y0070872D01*
X0237679Y0064622D01*
X0123929Y0064622D01*
X0091429Y0097122D01*
X0061429Y0097122D01*
X0051429Y0107122D01*
X0051429Y0114622D01*
X0048929Y0117122D01*
X0043929Y0117122D01*
X0043929Y0127122D02*
X0048929Y0127122D01*
X0053929Y0122122D01*
X0047679Y0107122D02*
X0043929Y0107122D01*
X0047679Y0107122D02*
X0060179Y0094622D01*
X0090179Y0094622D01*
X0122679Y0062122D01*
X0246429Y0062122D01*
X0253929Y0070872D01*
X0253929Y0077122D01*
X0263929Y0077122D02*
X0263929Y0070872D01*
X0252679Y0059622D01*
X0121429Y0059622D01*
X0088929Y0092122D01*
X0048929Y0092122D01*
X0043929Y0097122D01*
X0043082Y0077122D02*
X0038929Y0077122D01*
D30*
X0143929Y0077122D02*
X0143929Y0088775D01*
X0143929Y0095468D02*
X0149332Y0100872D01*
X0182679Y0100872D01*
X0183929Y0100872D01*
X0190582Y0100872D01*
X0183929Y0100872D02*
X0183929Y0094218D01*
X0183929Y0100872D02*
X0183929Y0124622D01*
X0193929Y0134622D01*
X0237905Y0134622D01*
X0247748Y0144464D01*
X0202679Y0100872D02*
X0197275Y0100872D01*
X0183929Y0087525D02*
X0183929Y0077122D01*
D31*
X0073929Y0179779D02*
X0051586Y0179779D01*
X0043929Y0172122D01*
D32*
X0077679Y0233372D02*
X0080179Y0235872D01*
X0086606Y0235872D01*
M02*
