G75*
%MOIN*%
%OFA0B0*%
%FSLAX25Y25*%
%IPPOS*%
%LPD*%
%AMOC8*
5,1,8,0,0,1.08239X$1,22.5*
%
%ADD10R,0.06535X0.03110*%
%ADD11R,0.06024X0.06024*%
%ADD12C,0.06024*%
%ADD13R,0.07677X0.07677*%
%ADD14C,0.07677*%
%ADD15C,0.04356*%
%ADD16R,0.03962X0.03962*%
%ADD17C,0.03962*%
%ADD18R,0.03937X0.04331*%
%ADD19R,0.02559X0.03937*%
%ADD20R,0.04331X0.03937*%
%ADD21R,0.03937X0.02559*%
%ADD22C,0.07087*%
%ADD23C,0.03569*%
%ADD24C,0.01200*%
%ADD25C,0.01000*%
%ADD26C,0.01600*%
%ADD27C,0.04000*%
D10*
X0258929Y0168372D03*
X0258929Y0175458D03*
X0258929Y0185872D03*
X0258929Y0192958D03*
X0274677Y0192958D03*
X0274716Y0185872D03*
X0274677Y0175458D03*
X0274716Y0168372D03*
X0274716Y0219622D03*
X0274677Y0226708D03*
X0274716Y0237122D03*
X0274677Y0244208D03*
X0258929Y0244208D03*
X0258929Y0237122D03*
X0258929Y0226708D03*
X0258929Y0219622D03*
D11*
X0213929Y0267122D03*
X0107929Y0267122D03*
X0143929Y0077122D03*
X0233929Y0077122D03*
D12*
X0243929Y0077122D03*
X0253929Y0077122D03*
X0263929Y0077122D03*
X0273929Y0077122D03*
X0283929Y0077122D03*
X0213929Y0077122D03*
X0203929Y0077122D03*
X0193929Y0077122D03*
X0183929Y0077122D03*
X0173929Y0077122D03*
X0163929Y0077122D03*
X0153929Y0077122D03*
X0157929Y0267122D03*
X0167929Y0267122D03*
X0177929Y0267122D03*
X0187929Y0267122D03*
X0197929Y0267122D03*
X0223929Y0267122D03*
X0233929Y0267122D03*
X0243929Y0267122D03*
X0253929Y0267122D03*
X0263929Y0267122D03*
X0273929Y0267122D03*
X0283929Y0267122D03*
X0147929Y0267122D03*
X0137929Y0267122D03*
X0127929Y0267122D03*
X0117929Y0267122D03*
D13*
X0040179Y0057122D03*
X0065179Y0057122D03*
X0065179Y0087122D03*
X0100179Y0057122D03*
X0043929Y0137122D03*
X0043929Y0172122D03*
X0043929Y0197122D03*
X0043929Y0242122D03*
X0043929Y0267122D03*
X0043929Y0292122D03*
X0073929Y0292122D03*
X0073929Y0267122D03*
D14*
X0073929Y0257122D03*
X0073929Y0282122D03*
X0043929Y0282122D03*
X0043929Y0257122D03*
X0043929Y0232122D03*
X0043929Y0222122D03*
X0043929Y0212122D03*
X0043929Y0187122D03*
X0043929Y0162122D03*
X0043929Y0127122D03*
X0043929Y0117122D03*
X0043929Y0107122D03*
X0043929Y0097122D03*
X0043929Y0087122D03*
X0050179Y0057122D03*
X0075179Y0057122D03*
X0075179Y0087122D03*
X0110179Y0057122D03*
D15*
X0213929Y0089622D03*
D16*
X0202679Y0100872D03*
X0176429Y0094622D03*
X0133929Y0070872D03*
X0108929Y0110872D03*
X0111429Y0115872D03*
X0106429Y0115872D03*
X0101429Y0115872D03*
X0103929Y0110872D03*
X0098929Y0110872D03*
X0096429Y0115872D03*
X0093929Y0110872D03*
X0088929Y0110872D03*
X0083929Y0110872D03*
X0078929Y0110872D03*
X0073929Y0110872D03*
X0068929Y0110872D03*
X0063929Y0114622D03*
X0063929Y0119622D03*
X0063929Y0124622D03*
X0063929Y0129622D03*
X0063929Y0134622D03*
X0063929Y0139622D03*
X0052679Y0095872D03*
X0038929Y0077122D03*
X0072679Y0074622D03*
X0072679Y0065872D03*
X0155179Y0162122D03*
X0155179Y0175872D03*
X0162679Y0207122D03*
X0156429Y0227122D03*
X0188929Y0238372D03*
X0220179Y0203372D03*
X0230179Y0207122D03*
X0225179Y0193372D03*
X0230179Y0157122D03*
X0220179Y0153372D03*
X0188929Y0188372D03*
X0225179Y0243372D03*
X0267679Y0212122D03*
X0267679Y0200872D03*
X0267679Y0160872D03*
X0258929Y0110872D03*
X0255179Y0089622D03*
X0283929Y0110872D03*
X0273929Y0249622D03*
X0116429Y0235872D03*
X0092679Y0279622D03*
X0065179Y0258372D03*
X0052679Y0275872D03*
X0062679Y0282122D03*
D17*
X0116429Y0249651D03*
D18*
X0114775Y0279622D03*
X0120582Y0279622D03*
X0127275Y0279622D03*
X0133082Y0279622D03*
X0139775Y0279622D03*
X0148082Y0279622D03*
X0154775Y0279622D03*
X0160582Y0279622D03*
X0167275Y0279622D03*
X0178082Y0279622D03*
X0184775Y0279622D03*
X0193082Y0279622D03*
X0199775Y0279622D03*
X0244332Y0279622D03*
X0251025Y0279622D03*
X0108082Y0279622D03*
X0083929Y0286275D03*
X0083929Y0292968D03*
X0064775Y0275872D03*
X0058082Y0275872D03*
X0052679Y0287525D03*
X0052679Y0294218D03*
X0053082Y0258372D03*
X0059775Y0258372D03*
X0058082Y0095872D03*
X0064775Y0095872D03*
X0067275Y0065872D03*
X0060582Y0065872D03*
X0121832Y0069622D03*
X0128525Y0069622D03*
X0258929Y0116275D03*
X0264332Y0107122D03*
X0271025Y0107122D03*
X0283929Y0116275D03*
X0283929Y0122968D03*
X0258929Y0122968D03*
X0260582Y0089622D03*
X0267275Y0089622D03*
D19*
X0267669Y0115291D03*
X0275189Y0115291D03*
X0271429Y0123952D03*
X0115189Y0066541D03*
X0107669Y0066541D03*
X0111429Y0075202D03*
X0082679Y0096541D03*
X0086439Y0105202D03*
X0078919Y0105202D03*
X0053939Y0072702D03*
X0046419Y0072702D03*
X0050179Y0064041D03*
D20*
X0040179Y0065025D03*
X0040179Y0071718D03*
X0060582Y0074622D03*
X0067275Y0074622D03*
X0065582Y0104622D03*
X0072275Y0104622D03*
X0121832Y0078372D03*
X0128525Y0078372D03*
X0264332Y0098372D03*
X0271025Y0098372D03*
X0092679Y0286275D03*
X0092679Y0292968D03*
X0064775Y0267122D03*
X0058082Y0267122D03*
X0059775Y0249622D03*
X0053082Y0249622D03*
X0062679Y0287525D03*
X0062679Y0294218D03*
D21*
X0137010Y0063382D03*
X0137010Y0055862D03*
X0128348Y0059622D03*
D22*
X0247748Y0123598D03*
X0247748Y0144464D03*
D23*
X0237679Y0158372D03*
X0237679Y0162122D03*
X0230179Y0152122D03*
X0225179Y0153372D03*
X0216429Y0163372D03*
X0216429Y0168372D03*
X0232679Y0173372D03*
X0232679Y0177122D03*
X0232679Y0185872D03*
X0232679Y0190872D03*
X0232679Y0195872D03*
X0225179Y0203372D03*
X0225179Y0207122D03*
X0216429Y0213372D03*
X0216429Y0218372D03*
X0232679Y0224622D03*
X0232679Y0228372D03*
X0232679Y0237122D03*
X0232679Y0242122D03*
X0232679Y0247122D03*
X0225179Y0238372D03*
X0235179Y0213372D03*
X0238929Y0213372D03*
X0251429Y0219622D03*
X0253929Y0223372D03*
X0251429Y0228372D03*
X0251429Y0237122D03*
X0253929Y0240872D03*
X0251429Y0245872D03*
X0278929Y0249622D03*
X0281429Y0244622D03*
X0281429Y0240872D03*
X0281429Y0227122D03*
X0281429Y0223372D03*
X0272679Y0200872D03*
X0281429Y0193372D03*
X0281429Y0189622D03*
X0281429Y0175872D03*
X0281429Y0172122D03*
X0262679Y0160872D03*
X0251429Y0168372D03*
X0253929Y0172122D03*
X0251429Y0177122D03*
X0251429Y0185872D03*
X0253929Y0189622D03*
X0251429Y0194622D03*
X0225179Y0188372D03*
X0191429Y0193372D03*
X0187679Y0203372D03*
X0183929Y0203372D03*
X0157679Y0207122D03*
X0156429Y0232122D03*
X0191429Y0243372D03*
X0191429Y0248372D03*
X0185179Y0273372D03*
X0181429Y0273372D03*
X0163929Y0273372D03*
X0160179Y0273372D03*
X0155179Y0273372D03*
X0151429Y0273372D03*
X0140179Y0273372D03*
X0136429Y0273372D03*
X0127679Y0273372D03*
X0123929Y0273372D03*
X0115179Y0273372D03*
X0111429Y0273372D03*
X0097679Y0279622D03*
X0096429Y0252122D03*
X0098929Y0248372D03*
X0101429Y0252122D03*
X0103929Y0248372D03*
X0106429Y0252122D03*
X0108929Y0248372D03*
X0111429Y0252122D03*
X0093929Y0248372D03*
X0091429Y0252122D03*
X0088929Y0248372D03*
X0086429Y0252122D03*
X0083929Y0248372D03*
X0081429Y0252122D03*
X0078929Y0248372D03*
X0065179Y0249622D03*
X0065179Y0253372D03*
X0052679Y0267122D03*
X0047679Y0275872D03*
X0052679Y0282122D03*
X0057679Y0282122D03*
X0088929Y0220872D03*
X0088929Y0217122D03*
X0101429Y0217122D03*
X0101429Y0220872D03*
X0107679Y0217122D03*
X0111429Y0217122D03*
X0106429Y0198372D03*
X0102679Y0198372D03*
X0095179Y0168372D03*
X0091429Y0168372D03*
X0105179Y0159622D03*
X0105179Y0155872D03*
X0120179Y0143372D03*
X0123929Y0143372D03*
X0112679Y0120872D03*
X0108929Y0120872D03*
X0102679Y0120872D03*
X0098929Y0120872D03*
X0095179Y0104622D03*
X0091429Y0104622D03*
X0072679Y0079622D03*
X0063929Y0080872D03*
X0060179Y0080872D03*
X0056429Y0079622D03*
X0056429Y0083372D03*
X0048929Y0100872D03*
X0055179Y0108372D03*
X0058929Y0105872D03*
X0038929Y0082122D03*
X0077679Y0065872D03*
X0101429Y0063372D03*
X0103929Y0067122D03*
X0121429Y0054622D03*
X0133929Y0075872D03*
X0125179Y0084622D03*
X0121429Y0084622D03*
X0141429Y0055872D03*
X0145179Y0055872D03*
X0176429Y0089622D03*
X0155179Y0090872D03*
X0155179Y0094622D03*
X0202679Y0095872D03*
X0192679Y0147122D03*
X0188929Y0147122D03*
X0150179Y0162122D03*
X0150179Y0175872D03*
X0081429Y0148372D03*
X0077679Y0148372D03*
X0065179Y0162122D03*
X0206429Y0279622D03*
X0210179Y0275872D03*
X0256429Y0275872D03*
X0256429Y0279622D03*
X0258929Y0128372D03*
X0262679Y0128372D03*
X0271429Y0128372D03*
X0275179Y0128372D03*
X0280179Y0128372D03*
X0283929Y0128372D03*
X0276429Y0102122D03*
X0276429Y0098372D03*
X0255179Y0094622D03*
D24*
X0255179Y0089622D02*
X0260582Y0089622D01*
X0267275Y0089622D02*
X0273929Y0082968D01*
X0273929Y0077122D01*
X0278929Y0094622D02*
X0265179Y0094622D01*
X0263929Y0095872D01*
X0263929Y0097968D01*
X0264332Y0098372D01*
X0264332Y0107122D01*
X0258929Y0110872D02*
X0258929Y0116275D01*
X0267669Y0116275D01*
X0267669Y0115291D01*
X0274775Y0115291D02*
X0275179Y0114887D01*
X0275179Y0112122D01*
X0271025Y0107122D01*
X0274775Y0115291D02*
X0275189Y0115291D01*
X0283929Y0116275D02*
X0283929Y0110872D01*
X0283929Y0122968D02*
X0283929Y0128372D01*
X0271429Y0128372D02*
X0271429Y0123952D01*
X0258929Y0122968D02*
X0258929Y0128372D01*
X0271025Y0098372D02*
X0276429Y0098372D01*
X0271429Y0164622D02*
X0253929Y0164622D01*
X0251429Y0167122D01*
X0253929Y0182122D02*
X0251429Y0184622D01*
X0252679Y0185872D01*
X0253929Y0182122D02*
X0270966Y0182122D01*
X0274716Y0185872D01*
X0273929Y0167122D02*
X0271429Y0164622D01*
X0243929Y0267122D02*
X0243929Y0279218D01*
X0244332Y0279622D01*
X0118082Y0267122D02*
X0117929Y0267122D01*
X0092679Y0292968D02*
X0083929Y0292968D01*
X0083525Y0292122D02*
X0073929Y0292122D01*
X0078082Y0286275D02*
X0073929Y0282122D01*
X0078082Y0286275D02*
X0083929Y0286275D01*
X0073929Y0267122D02*
X0064775Y0267122D01*
X0064775Y0275872D01*
X0062679Y0282122D02*
X0062679Y0287525D01*
X0062679Y0294218D02*
X0052679Y0294218D01*
X0053525Y0292122D02*
X0043929Y0292122D01*
X0052679Y0287525D02*
X0052679Y0282122D01*
X0052679Y0275872D02*
X0058082Y0275872D01*
X0058082Y0267122D02*
X0052679Y0267122D01*
X0046429Y0267122D02*
X0053082Y0260468D01*
X0053082Y0258372D01*
X0053082Y0249622D01*
X0059775Y0249622D02*
X0065179Y0249622D01*
X0065179Y0258372D02*
X0059775Y0258372D01*
X0046429Y0267122D02*
X0043929Y0267122D01*
X0073929Y0110872D02*
X0073929Y0105025D01*
X0072275Y0104622D01*
X0078919Y0105202D02*
X0078929Y0105212D01*
X0078348Y0096541D02*
X0082679Y0096541D01*
X0078348Y0096541D02*
X0075179Y0093372D01*
X0075179Y0087122D01*
X0065179Y0087122D02*
X0065179Y0095468D01*
X0064775Y0095872D01*
X0058082Y0095872D02*
X0052679Y0095872D01*
X0060179Y0104622D02*
X0065582Y0104622D01*
X0060179Y0104622D02*
X0058929Y0105872D01*
X0038929Y0077122D02*
X0038929Y0072968D01*
X0040179Y0071718D01*
X0046419Y0072702D02*
X0046429Y0073962D01*
X0050179Y0064041D02*
X0050179Y0057122D01*
X0040179Y0057122D02*
X0040179Y0065025D01*
X0067275Y0065872D02*
X0072679Y0065872D01*
X0072679Y0074622D02*
X0067275Y0074622D01*
X0087019Y0104622D02*
X0091429Y0104622D01*
X0087019Y0104622D02*
X0086439Y0105202D01*
X0086429Y0105212D01*
X0115179Y0083372D02*
X0133929Y0102122D01*
X0161429Y0102122D01*
X0162679Y0099622D02*
X0167679Y0104622D01*
X0162679Y0099622D02*
X0142679Y0099622D01*
X0137679Y0094622D01*
X0137679Y0064051D01*
X0137010Y0063382D01*
X0128929Y0069622D02*
X0128525Y0069622D01*
X0128348Y0059622D02*
X0112679Y0059622D01*
X0110179Y0057122D01*
X0107669Y0066541D02*
X0107000Y0067122D01*
X0103929Y0067122D01*
X0115189Y0066541D02*
X0115189Y0083362D01*
X0137019Y0055872D02*
X0141429Y0055872D01*
X0137019Y0055872D02*
X0137010Y0055862D01*
D25*
X0132679Y0069622D02*
X0128525Y0069622D01*
X0132679Y0069622D02*
X0133929Y0070872D01*
X0121832Y0069622D02*
X0121832Y0065025D01*
X0118929Y0062122D01*
X0105179Y0062122D01*
X0100179Y0057122D01*
X0095179Y0067122D02*
X0132679Y0104622D01*
X0160179Y0104622D01*
X0170179Y0114622D01*
X0170179Y0259372D01*
X0177929Y0267122D01*
X0177929Y0279468D01*
X0178082Y0279622D01*
X0184775Y0279622D02*
X0185179Y0279218D01*
X0185179Y0273372D01*
X0188929Y0278372D02*
X0190179Y0279622D01*
X0193082Y0279622D01*
X0188929Y0278372D02*
X0188929Y0268122D01*
X0187929Y0267122D01*
X0187679Y0267122D01*
X0172679Y0252122D01*
X0172679Y0113372D01*
X0161429Y0102122D01*
X0158929Y0107122D02*
X0167929Y0116122D01*
X0167929Y0267122D01*
X0167929Y0278968D01*
X0167275Y0279622D01*
X0160582Y0279622D02*
X0160179Y0279218D01*
X0160179Y0273372D01*
X0155179Y0273372D02*
X0155179Y0280025D01*
X0154775Y0279622D01*
X0148082Y0279622D02*
X0147929Y0278218D01*
X0147929Y0267122D01*
X0140179Y0273372D02*
X0140179Y0280025D01*
X0139775Y0279622D01*
X0133082Y0279622D02*
X0132679Y0279218D01*
X0132679Y0272122D01*
X0127929Y0267372D01*
X0127929Y0267122D01*
X0127679Y0273372D02*
X0127679Y0280025D01*
X0127275Y0279622D01*
X0120582Y0279622D02*
X0120179Y0279218D01*
X0120179Y0269622D01*
X0117929Y0267372D01*
X0117929Y0267122D01*
X0115179Y0273372D02*
X0115179Y0280025D01*
X0114775Y0279622D01*
X0108082Y0279622D02*
X0107929Y0279468D01*
X0107929Y0267122D01*
X0092679Y0279622D02*
X0092679Y0286275D01*
X0167929Y0267122D02*
X0167929Y0266872D01*
X0175179Y0250872D02*
X0183929Y0259622D01*
X0236429Y0259622D01*
X0243929Y0267122D01*
X0253929Y0240872D02*
X0257679Y0237122D01*
X0258929Y0237122D01*
X0253929Y0223372D02*
X0257679Y0219622D01*
X0258929Y0219622D01*
X0274677Y0226708D02*
X0275090Y0227122D01*
X0281429Y0227122D01*
X0281429Y0244622D02*
X0275090Y0244622D01*
X0274677Y0244208D01*
X0275090Y0193372D02*
X0281429Y0193372D01*
X0275090Y0193372D02*
X0274677Y0192958D01*
X0258929Y0185872D02*
X0257679Y0185872D01*
X0253929Y0189622D01*
X0253929Y0172122D02*
X0257679Y0168372D01*
X0258929Y0168372D01*
X0274677Y0175458D02*
X0275090Y0175872D01*
X0281429Y0175872D01*
X0278929Y0094622D02*
X0283929Y0089622D01*
X0283929Y0077122D01*
X0175179Y0112122D02*
X0175179Y0250872D01*
X0199775Y0279622D02*
X0206429Y0279622D01*
X0175179Y0112122D02*
X0167679Y0104622D01*
X0158929Y0107122D02*
X0131429Y0107122D01*
X0125179Y0100872D01*
X0080179Y0100872D01*
X0078919Y0102132D01*
X0078919Y0105202D01*
X0060179Y0080872D02*
X0060179Y0075025D01*
X0060582Y0074622D01*
X0056429Y0079622D02*
X0053929Y0077122D01*
X0053929Y0072712D01*
X0053939Y0072702D01*
X0047679Y0069622D02*
X0080179Y0069622D01*
X0082679Y0067122D01*
X0095179Y0067122D01*
X0105179Y0074622D02*
X0087679Y0057122D01*
X0075179Y0057122D01*
X0065179Y0057122D02*
X0060582Y0061718D01*
X0060582Y0065872D01*
X0047679Y0069622D02*
X0046429Y0070872D01*
X0046429Y0073962D01*
X0105179Y0074622D02*
X0110848Y0074622D01*
X0111429Y0075202D01*
X0115189Y0083362D02*
X0115179Y0083372D01*
X0121429Y0084622D02*
X0121429Y0077525D01*
X0121832Y0078372D01*
D26*
X0128525Y0078372D02*
X0128525Y0069622D01*
X0251429Y0167122D02*
X0251429Y0168372D01*
X0258929Y0175458D02*
X0257265Y0177122D01*
X0251429Y0177122D01*
X0251429Y0184622D02*
X0251429Y0185872D01*
X0251429Y0194622D02*
X0257265Y0194622D01*
X0258929Y0192958D01*
X0255179Y0215872D02*
X0251429Y0219622D01*
X0255179Y0215872D02*
X0270966Y0215872D01*
X0274716Y0219622D01*
X0270966Y0233372D02*
X0255179Y0233372D01*
X0251429Y0237122D01*
X0251429Y0245872D02*
X0257265Y0245872D01*
X0258929Y0244208D01*
X0270966Y0233372D02*
X0274716Y0237122D01*
X0258929Y0226708D02*
X0257265Y0228372D01*
X0251429Y0228372D01*
X0251025Y0279622D02*
X0256429Y0279622D01*
X0274716Y0168372D02*
X0273929Y0167584D01*
X0273929Y0167122D01*
X0083525Y0292122D02*
X0083929Y0292968D01*
X0053525Y0292122D02*
X0052679Y0294218D01*
X0052679Y0250468D02*
X0053082Y0249622D01*
D27*
X0143929Y0077122D02*
X0153929Y0077122D01*
X0153929Y0073372D01*
X0156429Y0070872D01*
X0171429Y0070872D01*
X0173929Y0073372D01*
X0173929Y0077122D01*
M02*
