G75*
%MOIN*%
%OFA0B0*%
%FSLAX25Y25*%
%IPPOS*%
%LPD*%
%AMOC8*
5,1,8,0,0,1.08239X$1,22.5*
%
%ADD10C,0.13198*%
%ADD11R,0.04931X0.04537*%
%ADD12R,0.04537X0.04931*%
%ADD13R,0.02962X0.06506*%
%ADD14R,0.21860X0.25009*%
%ADD15R,0.04537X0.06899*%
%ADD16R,0.06624X0.06624*%
%ADD17C,0.06624*%
%ADD18R,0.08277X0.08277*%
%ADD19C,0.08277*%
%ADD20R,0.06506X0.05718*%
%ADD21R,0.04537X0.03159*%
%ADD22R,0.09458X0.03159*%
%ADD23C,0.04956*%
%ADD24R,0.04562X0.04562*%
%ADD25C,0.04562*%
%ADD26C,0.07687*%
%ADD27C,0.04169*%
D10*
X0088929Y0077122D03*
X0093929Y0267122D03*
X0293929Y0207122D03*
X0293929Y0097122D03*
D11*
X0244775Y0168372D03*
X0238082Y0168372D03*
X0229775Y0163372D03*
X0223082Y0163372D03*
X0238082Y0177122D03*
X0238082Y0185872D03*
X0244775Y0185872D03*
X0244775Y0177122D03*
X0244775Y0195872D03*
X0238082Y0195872D03*
X0229775Y0213372D03*
X0238082Y0219622D03*
X0238082Y0228372D03*
X0244775Y0228372D03*
X0244775Y0219622D03*
X0244775Y0237122D03*
X0238082Y0237122D03*
X0238082Y0247122D03*
X0244775Y0247122D03*
X0223082Y0213372D03*
X0183929Y0212525D03*
X0183929Y0219218D03*
X0183929Y0227525D03*
X0183929Y0234218D03*
X0184775Y0243372D03*
X0178082Y0243372D03*
X0171429Y0234218D03*
X0171429Y0227525D03*
X0171429Y0219218D03*
X0171429Y0212525D03*
X0162679Y0212525D03*
X0162679Y0219218D03*
X0162679Y0227525D03*
X0162679Y0234218D03*
X0178082Y0197122D03*
X0184775Y0197122D03*
X0183929Y0182968D03*
X0183929Y0176275D03*
X0183929Y0169218D03*
X0183929Y0162525D03*
X0171429Y0162525D03*
X0171429Y0169218D03*
X0171429Y0176275D03*
X0171429Y0182968D03*
X0162679Y0182968D03*
X0162679Y0176275D03*
X0162679Y0169218D03*
X0162679Y0162525D03*
X0120179Y0121718D03*
X0120179Y0115025D03*
X0143929Y0095468D03*
X0143929Y0088775D03*
X0161429Y0087525D03*
X0161429Y0094218D03*
X0170179Y0094218D03*
X0170179Y0087525D03*
X0183929Y0087525D03*
X0183929Y0094218D03*
X0106429Y0170025D03*
X0106429Y0176718D03*
X0091429Y0191275D03*
X0091429Y0197968D03*
X0107679Y0205025D03*
X0107679Y0211718D03*
X0083525Y0220872D03*
X0076832Y0220872D03*
X0098929Y0159218D03*
X0098929Y0152525D03*
X0098929Y0146718D03*
X0098929Y0140025D03*
X0051025Y0075872D03*
X0044332Y0075872D03*
D12*
X0098929Y0126275D03*
X0098929Y0132968D03*
X0108929Y0132968D03*
X0108929Y0126275D03*
X0081429Y0153775D03*
X0081429Y0160468D03*
X0091429Y0173775D03*
X0091429Y0180468D03*
X0065179Y0156718D03*
X0065179Y0150025D03*
X0190582Y0100872D03*
X0197275Y0100872D03*
X0199775Y0153372D03*
X0193082Y0153372D03*
X0208082Y0153372D03*
X0214775Y0153372D03*
X0213082Y0193372D03*
X0219775Y0193372D03*
X0214775Y0203372D03*
X0208082Y0203372D03*
X0199775Y0203372D03*
X0193082Y0203372D03*
X0198082Y0193372D03*
X0204775Y0193372D03*
X0204775Y0243372D03*
X0198082Y0243372D03*
X0213082Y0243372D03*
X0219775Y0243372D03*
X0260582Y0245872D03*
X0267275Y0245872D03*
X0267275Y0237122D03*
X0260582Y0237122D03*
X0260582Y0228372D03*
X0267275Y0228372D03*
X0267275Y0219622D03*
X0260582Y0219622D03*
X0260582Y0194622D03*
X0267275Y0194622D03*
X0267275Y0185872D03*
X0260582Y0185872D03*
X0260582Y0177122D03*
X0267275Y0177122D03*
X0267275Y0168372D03*
X0260582Y0168372D03*
D13*
X0208929Y0162545D03*
X0203929Y0162545D03*
X0198929Y0162545D03*
X0193929Y0162545D03*
X0193929Y0184199D03*
X0198929Y0184199D03*
X0203929Y0184199D03*
X0208929Y0184199D03*
X0208929Y0212545D03*
X0203929Y0212545D03*
X0198929Y0212545D03*
X0193929Y0212545D03*
X0193929Y0234199D03*
X0198929Y0234199D03*
X0203929Y0234199D03*
X0208929Y0234199D03*
D14*
X0081429Y0127279D03*
X0073929Y0179779D03*
D15*
X0072452Y0156019D03*
X0090405Y0156019D03*
X0082905Y0208519D03*
X0064952Y0208519D03*
D16*
X0107929Y0267122D03*
X0213929Y0267122D03*
X0233929Y0077122D03*
X0143929Y0077122D03*
D17*
X0153929Y0077122D03*
X0163929Y0077122D03*
X0173929Y0077122D03*
X0183929Y0077122D03*
X0193929Y0077122D03*
X0203929Y0077122D03*
X0213929Y0077122D03*
X0243929Y0077122D03*
X0253929Y0077122D03*
X0263929Y0077122D03*
X0273929Y0077122D03*
X0283929Y0077122D03*
X0283929Y0267122D03*
X0273929Y0267122D03*
X0263929Y0267122D03*
X0253929Y0267122D03*
X0243929Y0267122D03*
X0233929Y0267122D03*
X0223929Y0267122D03*
X0197929Y0267122D03*
X0187929Y0267122D03*
X0177929Y0267122D03*
X0167929Y0267122D03*
X0157929Y0267122D03*
X0147929Y0267122D03*
X0137929Y0267122D03*
X0127929Y0267122D03*
X0117929Y0267122D03*
D18*
X0040179Y0057122D03*
X0065179Y0057122D03*
X0065179Y0087122D03*
X0100179Y0057122D03*
X0043929Y0137122D03*
X0043929Y0172122D03*
X0043929Y0197122D03*
X0043929Y0242122D03*
X0043929Y0267122D03*
X0043929Y0292122D03*
X0073929Y0292122D03*
X0073929Y0267122D03*
D19*
X0073929Y0257122D03*
X0073929Y0282122D03*
X0043929Y0282122D03*
X0043929Y0257122D03*
X0043929Y0232122D03*
X0043929Y0222122D03*
X0043929Y0212122D03*
X0043929Y0187122D03*
X0043929Y0162122D03*
X0043929Y0127122D03*
X0043929Y0117122D03*
X0043929Y0107122D03*
X0043929Y0097122D03*
X0043929Y0087122D03*
X0050179Y0057122D03*
X0075179Y0057122D03*
X0075179Y0087122D03*
X0110179Y0057122D03*
D20*
X0120179Y0129632D03*
X0120179Y0137112D03*
X0106429Y0184632D03*
X0106429Y0192112D03*
D21*
X0100760Y0204612D03*
X0100760Y0212132D03*
X0092098Y0208372D03*
D22*
X0086606Y0227998D03*
X0086606Y0231935D03*
X0086606Y0235872D03*
X0086606Y0239809D03*
X0086606Y0243746D03*
X0067118Y0243746D03*
X0067118Y0239809D03*
X0067118Y0235872D03*
X0067118Y0231935D03*
X0067118Y0227998D03*
D23*
X0213929Y0089622D03*
D24*
X0202679Y0100872D03*
X0176429Y0094622D03*
X0133929Y0070872D03*
X0108929Y0110872D03*
X0111429Y0115872D03*
X0106429Y0115872D03*
X0101429Y0115872D03*
X0103929Y0110872D03*
X0098929Y0110872D03*
X0096429Y0115872D03*
X0093929Y0110872D03*
X0088929Y0110872D03*
X0083929Y0110872D03*
X0078929Y0110872D03*
X0073929Y0110872D03*
X0068929Y0110872D03*
X0063929Y0114622D03*
X0063929Y0119622D03*
X0063929Y0124622D03*
X0063929Y0129622D03*
X0063929Y0134622D03*
X0063929Y0139622D03*
X0052679Y0095872D03*
X0038929Y0077122D03*
X0072679Y0074622D03*
X0072679Y0065872D03*
X0155179Y0162122D03*
X0155179Y0175872D03*
X0162679Y0207122D03*
X0156429Y0227122D03*
X0188929Y0238372D03*
X0220179Y0203372D03*
X0230179Y0207122D03*
X0225179Y0193372D03*
X0230179Y0157122D03*
X0220179Y0153372D03*
X0188929Y0188372D03*
X0225179Y0243372D03*
X0267679Y0212122D03*
X0267679Y0200872D03*
X0267679Y0160872D03*
X0258929Y0110872D03*
X0255179Y0089622D03*
X0283929Y0110872D03*
X0273929Y0249622D03*
X0116429Y0235872D03*
X0092679Y0279622D03*
X0065179Y0258372D03*
X0052679Y0275872D03*
X0062679Y0282122D03*
D25*
X0116429Y0249651D03*
D26*
X0247748Y0144464D03*
X0247748Y0123598D03*
D27*
X0258929Y0128372D03*
X0262679Y0128372D03*
X0271429Y0128372D03*
X0275179Y0128372D03*
X0280179Y0128372D03*
X0283929Y0128372D03*
X0276429Y0102122D03*
X0276429Y0098372D03*
X0255179Y0094622D03*
X0202679Y0095872D03*
X0176429Y0089622D03*
X0155179Y0090872D03*
X0155179Y0094622D03*
X0133929Y0075872D03*
X0125179Y0084622D03*
X0121429Y0084622D03*
X0103929Y0067122D03*
X0101429Y0063372D03*
X0121429Y0054622D03*
X0141429Y0055872D03*
X0145179Y0055872D03*
X0095179Y0104622D03*
X0091429Y0104622D03*
X0098929Y0120872D03*
X0102679Y0120872D03*
X0108929Y0120872D03*
X0112679Y0120872D03*
X0120179Y0143372D03*
X0123929Y0143372D03*
X0105179Y0155872D03*
X0105179Y0159622D03*
X0095179Y0168372D03*
X0091429Y0168372D03*
X0081429Y0148372D03*
X0077679Y0148372D03*
X0065179Y0162122D03*
X0102679Y0198372D03*
X0106429Y0198372D03*
X0107679Y0217122D03*
X0111429Y0217122D03*
X0101429Y0217122D03*
X0101429Y0220872D03*
X0088929Y0220872D03*
X0088929Y0217122D03*
X0088929Y0248372D03*
X0091429Y0252122D03*
X0093929Y0248372D03*
X0096429Y0252122D03*
X0098929Y0248372D03*
X0101429Y0252122D03*
X0103929Y0248372D03*
X0106429Y0252122D03*
X0108929Y0248372D03*
X0111429Y0252122D03*
X0111429Y0273372D03*
X0115179Y0273372D03*
X0123929Y0273372D03*
X0127679Y0273372D03*
X0136429Y0273372D03*
X0140179Y0273372D03*
X0151429Y0273372D03*
X0155179Y0273372D03*
X0160179Y0273372D03*
X0163929Y0273372D03*
X0181429Y0273372D03*
X0185179Y0273372D03*
X0206429Y0279622D03*
X0210179Y0275872D03*
X0191429Y0248372D03*
X0191429Y0243372D03*
X0216429Y0218372D03*
X0216429Y0213372D03*
X0225179Y0207122D03*
X0225179Y0203372D03*
X0232679Y0195872D03*
X0232679Y0190872D03*
X0232679Y0185872D03*
X0232679Y0177122D03*
X0232679Y0173372D03*
X0237679Y0162122D03*
X0237679Y0158372D03*
X0230179Y0152122D03*
X0225179Y0153372D03*
X0216429Y0163372D03*
X0216429Y0168372D03*
X0225179Y0188372D03*
X0235179Y0213372D03*
X0238929Y0213372D03*
X0232679Y0224622D03*
X0232679Y0228372D03*
X0232679Y0237122D03*
X0232679Y0242122D03*
X0232679Y0247122D03*
X0225179Y0238372D03*
X0251429Y0237122D03*
X0253929Y0240872D03*
X0251429Y0245872D03*
X0251429Y0228372D03*
X0253929Y0223372D03*
X0251429Y0219622D03*
X0272679Y0200872D03*
X0281429Y0193372D03*
X0281429Y0189622D03*
X0281429Y0175872D03*
X0281429Y0172122D03*
X0262679Y0160872D03*
X0251429Y0168372D03*
X0253929Y0172122D03*
X0251429Y0177122D03*
X0251429Y0185872D03*
X0253929Y0189622D03*
X0251429Y0194622D03*
X0281429Y0223372D03*
X0281429Y0227122D03*
X0281429Y0240872D03*
X0281429Y0244622D03*
X0278929Y0249622D03*
X0256429Y0275872D03*
X0256429Y0279622D03*
X0187679Y0203372D03*
X0183929Y0203372D03*
X0191429Y0193372D03*
X0157679Y0207122D03*
X0156429Y0232122D03*
X0150179Y0175872D03*
X0150179Y0162122D03*
X0188929Y0147122D03*
X0192679Y0147122D03*
X0086429Y0252122D03*
X0083929Y0248372D03*
X0081429Y0252122D03*
X0078929Y0248372D03*
X0065179Y0249622D03*
X0065179Y0253372D03*
X0052679Y0267122D03*
X0047679Y0275872D03*
X0052679Y0282122D03*
X0057679Y0282122D03*
X0097679Y0279622D03*
X0055179Y0108372D03*
X0058929Y0105872D03*
X0048929Y0100872D03*
X0056429Y0083372D03*
X0060179Y0080872D03*
X0063929Y0080872D03*
X0056429Y0079622D03*
X0072679Y0079622D03*
X0077679Y0065872D03*
X0038929Y0082122D03*
M02*
