G75*
%MOIN*%
%OFA0B0*%
%FSLAX25Y25*%
%IPPOS*%
%LPD*%
%AMOC8*
5,1,8,0,0,1.08239X$1,22.5*
%
%ADD10C,0.13198*%
%ADD11R,0.04931X0.04537*%
%ADD12R,0.04537X0.04931*%
%ADD13R,0.02962X0.06506*%
%ADD14R,0.25009X0.21860*%
%ADD15R,0.06899X0.04537*%
%ADD16R,0.06624X0.06624*%
%ADD17C,0.06624*%
%ADD18C,0.04956*%
%ADD19R,0.08277X0.08277*%
%ADD20C,0.08277*%
%ADD21R,0.06506X0.05718*%
%ADD22R,0.21860X0.25009*%
%ADD23R,0.04537X0.06899*%
%ADD24R,0.04537X0.03159*%
%ADD25R,0.09458X0.03159*%
%ADD26R,0.04562X0.04562*%
%ADD27C,0.04562*%
%ADD28C,0.04169*%
D10*
X0056800Y0013978D03*
X0261800Y0033978D03*
X0261800Y0143978D03*
X0061800Y0203978D03*
D11*
X0068454Y0148978D03*
X0075146Y0148978D03*
X0077646Y0133978D03*
X0070954Y0133978D03*
X0086800Y0122325D03*
X0086800Y0115632D03*
X0121800Y0118132D03*
X0121800Y0124825D03*
X0120550Y0133132D03*
X0120550Y0139825D03*
X0131800Y0139825D03*
X0131800Y0133132D03*
X0131800Y0124825D03*
X0131800Y0118132D03*
X0144300Y0118132D03*
X0144300Y0124825D03*
X0144300Y0133132D03*
X0144300Y0139825D03*
X0145146Y0148978D03*
X0138454Y0148978D03*
X0183454Y0118978D03*
X0190146Y0118978D03*
X0205954Y0122728D03*
X0212646Y0122728D03*
X0212646Y0131478D03*
X0205954Y0131478D03*
X0205954Y0140228D03*
X0212646Y0140228D03*
X0212646Y0113978D03*
X0205954Y0113978D03*
X0205954Y0105228D03*
X0212646Y0105228D03*
X0212646Y0096478D03*
X0205954Y0096478D03*
X0205954Y0087728D03*
X0212646Y0087728D03*
X0212646Y0078978D03*
X0205954Y0078978D03*
X0190146Y0068978D03*
X0183454Y0068978D03*
X0145146Y0098978D03*
X0138454Y0098978D03*
X0144300Y0088575D03*
X0144300Y0081882D03*
X0144300Y0074825D03*
X0144300Y0068132D03*
X0131800Y0068132D03*
X0131800Y0074825D03*
X0131800Y0081882D03*
X0131800Y0088575D03*
X0121800Y0088575D03*
X0121800Y0081882D03*
X0121800Y0074825D03*
X0121800Y0068132D03*
X0080146Y0071478D03*
X0073454Y0071478D03*
X0073454Y0081478D03*
X0080146Y0081478D03*
X0051396Y0037728D03*
X0044704Y0037728D03*
X0044704Y0028978D03*
X0051396Y0028978D03*
X0081800Y0025632D03*
X0081800Y0032325D03*
X0091800Y0032325D03*
X0091800Y0025632D03*
X0241800Y0028132D03*
X0241800Y0034825D03*
D12*
X0235146Y0078978D03*
X0228454Y0078978D03*
X0228454Y0087728D03*
X0235146Y0087728D03*
X0235146Y0096478D03*
X0228454Y0096478D03*
X0228454Y0105228D03*
X0235146Y0105228D03*
X0235146Y0113978D03*
X0228454Y0113978D03*
X0228454Y0122728D03*
X0235146Y0122728D03*
X0235146Y0131478D03*
X0228454Y0131478D03*
X0228454Y0140228D03*
X0235146Y0140228D03*
X0180146Y0148978D03*
X0173454Y0148978D03*
X0165146Y0148978D03*
X0158454Y0148978D03*
X0160146Y0108978D03*
X0153454Y0108978D03*
X0158454Y0098978D03*
X0165146Y0098978D03*
X0173454Y0098978D03*
X0180146Y0098978D03*
X0175146Y0108978D03*
X0168454Y0108978D03*
X0168454Y0058978D03*
X0175146Y0058978D03*
X0160146Y0058978D03*
X0153454Y0058978D03*
X0152204Y0026478D03*
X0158896Y0026478D03*
X0142646Y0026478D03*
X0135954Y0026478D03*
X0127646Y0026478D03*
X0120954Y0026478D03*
X0110146Y0026478D03*
X0103454Y0026478D03*
X0056396Y0071478D03*
X0049704Y0071478D03*
X0049704Y0081478D03*
X0056396Y0081478D03*
X0069704Y0105228D03*
X0076396Y0105228D03*
D13*
X0154300Y0118152D03*
X0159300Y0118152D03*
X0164300Y0118152D03*
X0169300Y0118152D03*
X0169300Y0139805D03*
X0164300Y0139805D03*
X0159300Y0139805D03*
X0154300Y0139805D03*
X0154300Y0089805D03*
X0159300Y0089805D03*
X0164300Y0089805D03*
X0169300Y0089805D03*
X0169300Y0068152D03*
X0164300Y0068152D03*
X0159300Y0068152D03*
X0154300Y0068152D03*
D14*
X0079143Y0053978D03*
D15*
X0050402Y0045002D03*
X0050402Y0062955D03*
D16*
X0111800Y0013978D03*
X0201800Y0013978D03*
X0181800Y0203978D03*
X0075800Y0203978D03*
D17*
X0085800Y0203978D03*
X0095800Y0203978D03*
X0105800Y0203978D03*
X0115800Y0203978D03*
X0125800Y0203978D03*
X0135800Y0203978D03*
X0145800Y0203978D03*
X0155800Y0203978D03*
X0165800Y0203978D03*
X0191800Y0203978D03*
X0201800Y0203978D03*
X0211800Y0203978D03*
X0221800Y0203978D03*
X0231800Y0203978D03*
X0241800Y0203978D03*
X0251800Y0203978D03*
X0251800Y0013978D03*
X0241800Y0013978D03*
X0231800Y0013978D03*
X0221800Y0013978D03*
X0211800Y0013978D03*
X0181800Y0013978D03*
X0171800Y0013978D03*
X0161800Y0013978D03*
X0151800Y0013978D03*
X0141800Y0013978D03*
X0131800Y0013978D03*
X0121800Y0013978D03*
D18*
X0181800Y0026478D03*
X0264300Y0013978D03*
X0211800Y0191478D03*
X0201800Y0191478D03*
X0191800Y0191478D03*
X0181800Y0191478D03*
X0165800Y0191478D03*
X0155800Y0191478D03*
X0145800Y0191478D03*
X0135800Y0191478D03*
D19*
X0021800Y0188978D03*
X0021800Y0133978D03*
X0021800Y0098978D03*
X0021800Y0023978D03*
D20*
X0021800Y0013978D03*
X0021800Y0048978D03*
X0021800Y0058978D03*
X0021800Y0068978D03*
X0021800Y0078978D03*
X0021800Y0088978D03*
X0021800Y0123978D03*
X0021800Y0158978D03*
X0021800Y0168978D03*
X0021800Y0178978D03*
D21*
X0081800Y0017719D03*
X0081800Y0010238D03*
X0091800Y0010238D03*
X0091800Y0017719D03*
D22*
X0051800Y0133821D03*
D23*
X0042824Y0105081D03*
X0060776Y0105081D03*
D24*
X0072469Y0118978D03*
X0081131Y0115238D03*
X0081131Y0122719D03*
D25*
X0064477Y0154854D03*
X0064477Y0158791D03*
X0064477Y0162728D03*
X0064477Y0166665D03*
X0064477Y0170602D03*
X0044989Y0170602D03*
X0044989Y0166665D03*
X0044989Y0162728D03*
X0044989Y0158791D03*
X0044989Y0154854D03*
D26*
X0091800Y0163978D03*
D27*
X0091800Y0177758D03*
D28*
X0084300Y0180228D03*
X0084300Y0175228D03*
X0079300Y0175228D03*
X0074300Y0175228D03*
X0069300Y0175228D03*
X0064300Y0175228D03*
X0059300Y0175228D03*
X0054300Y0170228D03*
X0064300Y0180228D03*
X0069300Y0180228D03*
X0074300Y0180228D03*
X0079300Y0180228D03*
X0081800Y0148978D03*
X0083050Y0133978D03*
X0086800Y0108978D03*
X0061800Y0081478D03*
X0089300Y0076478D03*
X0096800Y0058978D03*
X0096800Y0053978D03*
X0096800Y0048978D03*
X0096800Y0043978D03*
X0115550Y0026478D03*
X0099300Y0010228D03*
X0074300Y0010228D03*
X0039300Y0028978D03*
X0039300Y0037728D03*
X0144300Y0058978D03*
X0176800Y0068978D03*
X0183675Y0078353D03*
X0199300Y0082728D03*
X0209300Y0068978D03*
X0219300Y0078978D03*
X0219300Y0087728D03*
X0219300Y0096478D03*
X0219300Y0105228D03*
X0219300Y0113978D03*
X0219300Y0122728D03*
X0219300Y0131478D03*
X0219300Y0140228D03*
X0199300Y0135228D03*
X0189925Y0129603D03*
X0199300Y0117728D03*
X0185550Y0103978D03*
X0199300Y0100228D03*
X0176800Y0118978D03*
X0151800Y0098978D03*
X0144300Y0108978D03*
X0151800Y0148978D03*
M02*
