G75*
%MOIN*%
%OFA0B0*%
%FSLAX25Y25*%
%IPPOS*%
%LPD*%
%AMOC8*
5,1,8,0,0,1.08239X$1,22.5*
%
%ADD10R,0.06535X0.03110*%
%ADD11R,0.06024X0.06024*%
%ADD12C,0.06024*%
%ADD13C,0.04356*%
%ADD14R,0.07677X0.07677*%
%ADD15C,0.07677*%
%ADD16R,0.03962X0.03962*%
%ADD17C,0.03962*%
%ADD18C,0.01600*%
%ADD19C,0.03569*%
%ADD20C,0.01200*%
D10*
X0226800Y0078978D03*
X0226800Y0086065D03*
X0226800Y0096478D03*
X0226800Y0103565D03*
X0226800Y0113978D03*
X0226800Y0121065D03*
X0226800Y0131478D03*
X0226800Y0138565D03*
X0242548Y0138565D03*
X0242587Y0131478D03*
X0242548Y0121065D03*
X0242587Y0113978D03*
X0242548Y0103565D03*
X0242587Y0096478D03*
X0242548Y0086065D03*
X0242587Y0078978D03*
D11*
X0201800Y0013978D03*
X0111800Y0013978D03*
X0075800Y0203978D03*
X0181800Y0203978D03*
D12*
X0191800Y0203978D03*
X0201800Y0203978D03*
X0211800Y0203978D03*
X0221800Y0203978D03*
X0231800Y0203978D03*
X0241800Y0203978D03*
X0251800Y0203978D03*
X0165800Y0203978D03*
X0155800Y0203978D03*
X0145800Y0203978D03*
X0135800Y0203978D03*
X0125800Y0203978D03*
X0115800Y0203978D03*
X0105800Y0203978D03*
X0095800Y0203978D03*
X0085800Y0203978D03*
X0121800Y0013978D03*
X0131800Y0013978D03*
X0141800Y0013978D03*
X0151800Y0013978D03*
X0161800Y0013978D03*
X0171800Y0013978D03*
X0181800Y0013978D03*
X0211800Y0013978D03*
X0221800Y0013978D03*
X0231800Y0013978D03*
X0241800Y0013978D03*
X0251800Y0013978D03*
D13*
X0264300Y0013978D03*
X0181800Y0026478D03*
X0181800Y0191478D03*
X0191800Y0191478D03*
X0201800Y0191478D03*
X0211800Y0191478D03*
X0165800Y0191478D03*
X0155800Y0191478D03*
X0145800Y0191478D03*
X0135800Y0191478D03*
D14*
X0021800Y0188978D03*
X0021800Y0133978D03*
X0021800Y0098978D03*
X0021800Y0023978D03*
D15*
X0021800Y0013978D03*
X0021800Y0048978D03*
X0021800Y0058978D03*
X0021800Y0068978D03*
X0021800Y0078978D03*
X0021800Y0088978D03*
X0021800Y0123978D03*
X0021800Y0158978D03*
X0021800Y0168978D03*
X0021800Y0178978D03*
D16*
X0091800Y0163978D03*
D17*
X0091800Y0177758D03*
D18*
X0004600Y0211178D02*
X0004600Y0006778D01*
X0051132Y0006778D01*
X0049086Y0008824D01*
X0047701Y0012169D01*
X0047701Y0015788D01*
X0049086Y0019133D01*
X0051646Y0021692D01*
X0054990Y0023078D01*
X0058610Y0023078D01*
X0061954Y0021692D01*
X0064514Y0019133D01*
X0065899Y0015788D01*
X0065899Y0012169D01*
X0064514Y0008824D01*
X0062468Y0006778D01*
X0269000Y0006778D01*
X0269000Y0028310D01*
X0266954Y0026265D01*
X0263610Y0024879D01*
X0259990Y0024879D01*
X0256646Y0026265D01*
X0254086Y0028824D01*
X0252701Y0032169D01*
X0252701Y0035788D01*
X0254086Y0039133D01*
X0256646Y0041692D01*
X0259990Y0043078D01*
X0263610Y0043078D01*
X0266954Y0041692D01*
X0269000Y0039647D01*
X0269000Y0138310D01*
X0266954Y0136265D01*
X0263610Y0134879D01*
X0259990Y0134879D01*
X0256646Y0136265D01*
X0254086Y0138824D01*
X0252701Y0142169D01*
X0252701Y0145788D01*
X0254086Y0149133D01*
X0256646Y0151692D01*
X0259990Y0153078D01*
X0263610Y0153078D01*
X0266954Y0151692D01*
X0269000Y0149647D01*
X0269000Y0211178D01*
X0067468Y0211178D01*
X0069514Y0209133D01*
X0070899Y0205788D01*
X0070899Y0202169D01*
X0069514Y0198824D01*
X0066954Y0196265D01*
X0063610Y0194879D01*
X0059990Y0194879D01*
X0056646Y0196265D01*
X0054086Y0198824D01*
X0052701Y0202169D01*
X0052701Y0205788D01*
X0054086Y0209133D01*
X0056132Y0211178D01*
X0004600Y0211178D01*
X0004600Y0210186D02*
X0055140Y0210186D01*
X0053860Y0208588D02*
X0004600Y0208588D01*
X0004600Y0206989D02*
X0053198Y0206989D01*
X0052701Y0205391D02*
X0004600Y0205391D01*
X0004600Y0203792D02*
X0052701Y0203792D01*
X0052701Y0202194D02*
X0004600Y0202194D01*
X0004600Y0200595D02*
X0053352Y0200595D01*
X0054015Y0198997D02*
X0004600Y0198997D01*
X0004600Y0197398D02*
X0055512Y0197398D01*
X0057768Y0195800D02*
X0004600Y0195800D01*
X0004600Y0194201D02*
X0017366Y0194201D01*
X0017382Y0194217D02*
X0016561Y0193397D01*
X0016561Y0184560D01*
X0017382Y0183740D01*
X0019606Y0183740D01*
X0018833Y0183420D01*
X0017359Y0181946D01*
X0016561Y0180020D01*
X0016561Y0177936D01*
X0017359Y0176011D01*
X0018833Y0174537D01*
X0020182Y0173978D01*
X0018833Y0173420D01*
X0017359Y0171946D01*
X0016561Y0170020D01*
X0016561Y0167936D01*
X0017359Y0166011D01*
X0018833Y0164537D01*
X0020182Y0163978D01*
X0018833Y0163420D01*
X0017359Y0161946D01*
X0016561Y0160020D01*
X0016561Y0157936D01*
X0017359Y0156011D01*
X0018833Y0154537D01*
X0020758Y0153740D01*
X0022842Y0153740D01*
X0024767Y0154537D01*
X0026241Y0156011D01*
X0027039Y0157936D01*
X0027039Y0160020D01*
X0026241Y0161946D01*
X0024767Y0163420D01*
X0023418Y0163978D01*
X0024767Y0164537D01*
X0026241Y0166011D01*
X0027039Y0167936D01*
X0027039Y0170020D01*
X0026241Y0171946D01*
X0024767Y0173420D01*
X0023418Y0173978D01*
X0024767Y0174537D01*
X0026241Y0176011D01*
X0027039Y0177936D01*
X0027039Y0180020D01*
X0026241Y0181946D01*
X0024767Y0183420D01*
X0023994Y0183740D01*
X0026218Y0183740D01*
X0027039Y0184560D01*
X0027039Y0193397D01*
X0026218Y0194217D01*
X0017382Y0194217D01*
X0016561Y0192603D02*
X0004600Y0192603D01*
X0004600Y0191004D02*
X0016561Y0191004D01*
X0016561Y0189406D02*
X0004600Y0189406D01*
X0004600Y0187807D02*
X0016561Y0187807D01*
X0016561Y0186209D02*
X0004600Y0186209D01*
X0004600Y0184610D02*
X0016561Y0184610D01*
X0018425Y0183012D02*
X0004600Y0183012D01*
X0004600Y0181413D02*
X0017138Y0181413D01*
X0016561Y0179815D02*
X0004600Y0179815D01*
X0004600Y0178216D02*
X0016561Y0178216D01*
X0017108Y0176618D02*
X0004600Y0176618D01*
X0004600Y0175019D02*
X0018351Y0175019D01*
X0018835Y0173421D02*
X0004600Y0173421D01*
X0004600Y0171822D02*
X0017308Y0171822D01*
X0016646Y0170224D02*
X0004600Y0170224D01*
X0004600Y0168625D02*
X0016561Y0168625D01*
X0016938Y0167027D02*
X0004600Y0167027D01*
X0004600Y0165428D02*
X0017942Y0165428D01*
X0019823Y0163830D02*
X0004600Y0163830D01*
X0004600Y0162231D02*
X0017644Y0162231D01*
X0016815Y0160633D02*
X0004600Y0160633D01*
X0004600Y0159034D02*
X0016561Y0159034D01*
X0016769Y0157436D02*
X0004600Y0157436D01*
X0004600Y0155837D02*
X0017533Y0155837D01*
X0019554Y0154239D02*
X0004600Y0154239D01*
X0004600Y0152640D02*
X0258933Y0152640D01*
X0255995Y0151041D02*
X0004600Y0151041D01*
X0004600Y0149443D02*
X0254396Y0149443D01*
X0253552Y0147844D02*
X0004600Y0147844D01*
X0004600Y0146246D02*
X0252890Y0146246D01*
X0252701Y0144647D02*
X0004600Y0144647D01*
X0004600Y0143049D02*
X0217788Y0143049D01*
X0217496Y0142928D02*
X0216601Y0142032D01*
X0216116Y0140862D01*
X0216116Y0139595D01*
X0216601Y0138425D01*
X0217496Y0137529D01*
X0218667Y0137044D01*
X0219933Y0137044D01*
X0221104Y0137529D01*
X0221603Y0138028D01*
X0222132Y0138028D01*
X0222132Y0136430D01*
X0222952Y0135610D01*
X0230648Y0135610D01*
X0231468Y0136430D01*
X0231468Y0140700D01*
X0230648Y0141520D01*
X0226956Y0141520D01*
X0226048Y0142428D01*
X0221603Y0142428D01*
X0221104Y0142928D01*
X0219933Y0143413D01*
X0218667Y0143413D01*
X0217496Y0142928D01*
X0216360Y0141450D02*
X0004600Y0141450D01*
X0004600Y0139852D02*
X0216116Y0139852D01*
X0216772Y0138253D02*
X0027039Y0138253D01*
X0027039Y0138397D02*
X0026218Y0139217D01*
X0017382Y0139217D01*
X0016561Y0138397D01*
X0016561Y0129560D01*
X0017382Y0128740D01*
X0018761Y0128740D01*
X0018127Y0128279D01*
X0017499Y0127652D01*
X0016977Y0126934D01*
X0016575Y0126143D01*
X0016300Y0125299D01*
X0016167Y0124458D01*
X0021320Y0124458D01*
X0021320Y0123499D01*
X0016167Y0123499D01*
X0016300Y0122658D01*
X0016575Y0121814D01*
X0016977Y0121023D01*
X0017499Y0120305D01*
X0018127Y0119678D01*
X0018845Y0119156D01*
X0019636Y0118753D01*
X0020480Y0118479D01*
X0021320Y0118346D01*
X0021320Y0123499D01*
X0022280Y0123499D01*
X0022280Y0124458D01*
X0027433Y0124458D01*
X0027300Y0125299D01*
X0027025Y0126143D01*
X0026623Y0126934D01*
X0026101Y0127652D01*
X0025473Y0128279D01*
X0024839Y0128740D01*
X0026218Y0128740D01*
X0027039Y0129560D01*
X0027039Y0138397D01*
X0027039Y0136655D02*
X0222132Y0136655D01*
X0222837Y0134711D02*
X0223295Y0134834D01*
X0226800Y0134834D01*
X0226800Y0131479D01*
X0226800Y0131479D01*
X0226800Y0134834D01*
X0230305Y0134834D01*
X0230762Y0134711D01*
X0231173Y0134474D01*
X0231508Y0134139D01*
X0231745Y0133728D01*
X0231868Y0133271D01*
X0231868Y0131479D01*
X0226800Y0131479D01*
X0226800Y0131478D01*
X0231868Y0131478D01*
X0231868Y0129928D01*
X0237920Y0129928D01*
X0237920Y0133613D01*
X0238740Y0134434D01*
X0246435Y0134434D01*
X0247255Y0133613D01*
X0247255Y0129343D01*
X0246435Y0128523D01*
X0242744Y0128523D01*
X0241037Y0126817D01*
X0239749Y0125528D01*
X0220889Y0125528D01*
X0219159Y0127259D01*
X0217628Y0125728D01*
X0190972Y0125728D01*
X0190281Y0126419D01*
X0189292Y0126419D01*
X0188121Y0126904D01*
X0187226Y0127800D01*
X0186741Y0128970D01*
X0186741Y0130237D01*
X0187226Y0131407D01*
X0188121Y0132303D01*
X0189292Y0132788D01*
X0190558Y0132788D01*
X0191729Y0132303D01*
X0192624Y0131407D01*
X0193109Y0130237D01*
X0193109Y0129728D01*
X0215972Y0129728D01*
X0216401Y0130157D01*
X0216116Y0130845D01*
X0216116Y0132112D01*
X0216601Y0133282D01*
X0217496Y0134178D01*
X0218667Y0134663D01*
X0219933Y0134663D01*
X0221104Y0134178D01*
X0221791Y0133490D01*
X0221855Y0133728D01*
X0222092Y0134139D01*
X0222427Y0134474D01*
X0222837Y0134711D01*
X0226800Y0133458D02*
X0226800Y0133458D01*
X0226800Y0131859D02*
X0226800Y0131859D01*
X0221800Y0127728D02*
X0219300Y0130228D01*
X0219300Y0131478D01*
X0216358Y0130261D02*
X0193099Y0130261D01*
X0192172Y0131859D02*
X0216116Y0131859D01*
X0216776Y0133458D02*
X0027039Y0133458D01*
X0027039Y0135056D02*
X0259562Y0135056D01*
X0256255Y0136655D02*
X0247584Y0136655D01*
X0247616Y0136773D02*
X0247616Y0138565D01*
X0242548Y0138565D01*
X0242548Y0138565D01*
X0242548Y0135210D01*
X0239043Y0135210D01*
X0238586Y0135333D01*
X0238175Y0135570D01*
X0237840Y0135905D01*
X0237603Y0136315D01*
X0237480Y0136773D01*
X0237480Y0138565D01*
X0242548Y0138565D01*
X0242548Y0135210D01*
X0246053Y0135210D01*
X0246511Y0135333D01*
X0246921Y0135570D01*
X0247256Y0135905D01*
X0247493Y0136315D01*
X0247616Y0136773D01*
X0247616Y0138253D02*
X0254657Y0138253D01*
X0253660Y0139852D02*
X0247616Y0139852D01*
X0247616Y0140357D02*
X0247493Y0140815D01*
X0247256Y0141225D01*
X0246921Y0141561D01*
X0246511Y0141798D01*
X0246053Y0141920D01*
X0242548Y0141920D01*
X0239043Y0141920D01*
X0238586Y0141798D01*
X0238175Y0141561D01*
X0237840Y0141225D01*
X0237603Y0140815D01*
X0237480Y0140357D01*
X0237480Y0138565D01*
X0242548Y0138565D01*
X0242548Y0138565D01*
X0242548Y0138565D01*
X0247616Y0138565D01*
X0247616Y0140357D01*
X0247031Y0141450D02*
X0252998Y0141450D01*
X0252701Y0143049D02*
X0220812Y0143049D01*
X0219300Y0140228D02*
X0225137Y0140228D01*
X0226800Y0138565D01*
X0231468Y0138253D02*
X0237480Y0138253D01*
X0237512Y0136655D02*
X0231468Y0136655D01*
X0231818Y0133458D02*
X0237920Y0133458D01*
X0237920Y0131859D02*
X0231868Y0131859D01*
X0231868Y0130261D02*
X0237920Y0130261D01*
X0238837Y0127728D02*
X0221800Y0127728D01*
X0221013Y0125465D02*
X0269000Y0125465D01*
X0269000Y0123867D02*
X0247115Y0123867D01*
X0247256Y0123725D02*
X0246921Y0124061D01*
X0246511Y0124298D01*
X0246053Y0124420D01*
X0242548Y0124420D01*
X0239043Y0124420D01*
X0238586Y0124298D01*
X0238175Y0124061D01*
X0237840Y0123725D01*
X0237603Y0123315D01*
X0237480Y0122857D01*
X0237480Y0121065D01*
X0237480Y0119273D01*
X0237603Y0118815D01*
X0237840Y0118405D01*
X0238175Y0118070D01*
X0238586Y0117833D01*
X0239043Y0117710D01*
X0242548Y0117710D01*
X0242548Y0121065D01*
X0242548Y0121065D01*
X0242548Y0117710D01*
X0246053Y0117710D01*
X0246511Y0117833D01*
X0246921Y0118070D01*
X0247256Y0118405D01*
X0247493Y0118815D01*
X0247616Y0119273D01*
X0247616Y0121065D01*
X0242548Y0121065D01*
X0237480Y0121065D01*
X0242548Y0121065D01*
X0242548Y0121065D01*
X0242548Y0121065D01*
X0247616Y0121065D01*
X0247616Y0122857D01*
X0247493Y0123315D01*
X0247256Y0123725D01*
X0247616Y0122268D02*
X0269000Y0122268D01*
X0269000Y0120670D02*
X0247616Y0120670D01*
X0247562Y0119071D02*
X0269000Y0119071D01*
X0269000Y0117473D02*
X0004600Y0117473D01*
X0004600Y0119071D02*
X0019011Y0119071D01*
X0021320Y0119071D02*
X0022280Y0119071D01*
X0022280Y0118346D02*
X0023120Y0118479D01*
X0023964Y0118753D01*
X0024755Y0119156D01*
X0025473Y0119678D01*
X0026101Y0120305D01*
X0026623Y0121023D01*
X0027025Y0121814D01*
X0027300Y0122658D01*
X0027433Y0123499D01*
X0022280Y0123499D01*
X0022280Y0118346D01*
X0022280Y0120670D02*
X0021320Y0120670D01*
X0021320Y0122268D02*
X0022280Y0122268D01*
X0022280Y0123867D02*
X0216325Y0123867D01*
X0216116Y0123362D02*
X0216601Y0124532D01*
X0217496Y0125428D01*
X0218667Y0125913D01*
X0219933Y0125913D01*
X0221104Y0125428D01*
X0221603Y0124928D01*
X0226048Y0124928D01*
X0226956Y0124020D01*
X0230648Y0124020D01*
X0231468Y0123200D01*
X0231468Y0118930D01*
X0230648Y0118110D01*
X0222952Y0118110D01*
X0222132Y0118930D01*
X0222132Y0120528D01*
X0221603Y0120528D01*
X0221104Y0120029D01*
X0219933Y0119544D01*
X0218667Y0119544D01*
X0217496Y0120029D01*
X0216601Y0120925D01*
X0216116Y0122095D01*
X0216116Y0123362D01*
X0216116Y0122268D02*
X0027173Y0122268D01*
X0026366Y0120670D02*
X0216855Y0120670D01*
X0219300Y0122728D02*
X0225137Y0122728D01*
X0226800Y0121065D01*
X0222132Y0119071D02*
X0024589Y0119071D01*
X0021320Y0123867D02*
X0004600Y0123867D01*
X0004600Y0125465D02*
X0016354Y0125465D01*
X0017072Y0127064D02*
X0004600Y0127064D01*
X0004600Y0128662D02*
X0018654Y0128662D01*
X0016561Y0130261D02*
X0004600Y0130261D01*
X0004600Y0131859D02*
X0016561Y0131859D01*
X0016561Y0133458D02*
X0004600Y0133458D01*
X0004600Y0135056D02*
X0016561Y0135056D01*
X0016561Y0136655D02*
X0004600Y0136655D01*
X0004600Y0138253D02*
X0016561Y0138253D01*
X0027039Y0131859D02*
X0187678Y0131859D01*
X0186751Y0130261D02*
X0027039Y0130261D01*
X0024946Y0128662D02*
X0186868Y0128662D01*
X0187961Y0127064D02*
X0026528Y0127064D01*
X0027246Y0125465D02*
X0217587Y0125465D01*
X0218964Y0127064D02*
X0219353Y0127064D01*
X0219933Y0117163D02*
X0218667Y0117163D01*
X0217496Y0116678D01*
X0216601Y0115782D01*
X0216116Y0114612D01*
X0216116Y0113345D01*
X0216401Y0112657D01*
X0215972Y0112228D01*
X0190972Y0112228D01*
X0185906Y0107163D01*
X0184917Y0107163D01*
X0183746Y0106678D01*
X0182851Y0105782D01*
X0182366Y0104612D01*
X0182366Y0103345D01*
X0182851Y0102175D01*
X0183746Y0101279D01*
X0184917Y0100794D01*
X0186183Y0100794D01*
X0187354Y0101279D01*
X0188249Y0102175D01*
X0188734Y0103345D01*
X0188734Y0104334D01*
X0192628Y0108228D01*
X0217628Y0108228D01*
X0218800Y0109400D01*
X0219159Y0109759D01*
X0220889Y0108028D01*
X0239749Y0108028D01*
X0241037Y0109317D01*
X0241037Y0109317D01*
X0242744Y0111023D01*
X0246435Y0111023D01*
X0247255Y0111843D01*
X0247255Y0116113D01*
X0246435Y0116934D01*
X0238740Y0116934D01*
X0237920Y0116113D01*
X0237920Y0112428D01*
X0231868Y0112428D01*
X0231868Y0113978D01*
X0226800Y0113978D01*
X0226800Y0113979D01*
X0226800Y0117334D01*
X0223295Y0117334D01*
X0222837Y0117211D01*
X0222427Y0116974D01*
X0222092Y0116639D01*
X0221855Y0116228D01*
X0221791Y0115990D01*
X0221104Y0116678D01*
X0219933Y0117163D01*
X0219300Y0113978D02*
X0219300Y0112728D01*
X0221800Y0110228D01*
X0238837Y0110228D01*
X0242587Y0113978D01*
X0237920Y0114276D02*
X0231868Y0114276D01*
X0231868Y0113979D02*
X0231868Y0115771D01*
X0231745Y0116228D01*
X0231508Y0116639D01*
X0231173Y0116974D01*
X0230762Y0117211D01*
X0230305Y0117334D01*
X0226800Y0117334D01*
X0226800Y0113979D01*
X0226800Y0113979D01*
X0231868Y0113979D01*
X0231868Y0112677D02*
X0237920Y0112677D01*
X0237920Y0115874D02*
X0231840Y0115874D01*
X0231468Y0119071D02*
X0237534Y0119071D01*
X0237480Y0120670D02*
X0231468Y0120670D01*
X0231468Y0122268D02*
X0237480Y0122268D01*
X0237981Y0123867D02*
X0230801Y0123867D01*
X0238837Y0127728D02*
X0242587Y0131478D01*
X0241284Y0127064D02*
X0269000Y0127064D01*
X0269000Y0128662D02*
X0246574Y0128662D01*
X0247255Y0130261D02*
X0269000Y0130261D01*
X0269000Y0131859D02*
X0247255Y0131859D01*
X0247255Y0133458D02*
X0269000Y0133458D01*
X0269000Y0135056D02*
X0264038Y0135056D01*
X0267345Y0136655D02*
X0269000Y0136655D01*
X0269000Y0138253D02*
X0268943Y0138253D01*
X0269000Y0151041D02*
X0267605Y0151041D01*
X0269000Y0152640D02*
X0264667Y0152640D01*
X0269000Y0154239D02*
X0024046Y0154239D01*
X0026067Y0155837D02*
X0269000Y0155837D01*
X0269000Y0157436D02*
X0026831Y0157436D01*
X0027039Y0159034D02*
X0269000Y0159034D01*
X0269000Y0160633D02*
X0094396Y0160633D01*
X0094361Y0160597D02*
X0095181Y0161417D01*
X0095181Y0166539D01*
X0094361Y0167360D01*
X0089239Y0167360D01*
X0088419Y0166539D01*
X0088419Y0161417D01*
X0089239Y0160597D01*
X0094361Y0160597D01*
X0095181Y0162231D02*
X0269000Y0162231D01*
X0269000Y0163830D02*
X0095181Y0163830D01*
X0095181Y0165428D02*
X0269000Y0165428D01*
X0269000Y0167027D02*
X0094694Y0167027D01*
X0088906Y0167027D02*
X0026662Y0167027D01*
X0027039Y0168625D02*
X0269000Y0168625D01*
X0269000Y0170224D02*
X0026954Y0170224D01*
X0026292Y0171822D02*
X0269000Y0171822D01*
X0269000Y0173421D02*
X0024765Y0173421D01*
X0025249Y0175019D02*
X0089192Y0175019D01*
X0089390Y0174821D02*
X0090009Y0174407D01*
X0090697Y0174122D01*
X0091428Y0173977D01*
X0091800Y0173977D01*
X0092172Y0173977D01*
X0092903Y0174122D01*
X0093591Y0174407D01*
X0094210Y0174821D01*
X0094737Y0175348D01*
X0095151Y0175967D01*
X0095436Y0176655D01*
X0095581Y0177386D01*
X0095581Y0177758D01*
X0095581Y0178130D01*
X0095436Y0178861D01*
X0095151Y0179549D01*
X0094737Y0180168D01*
X0094210Y0180695D01*
X0093591Y0181109D01*
X0092903Y0181394D01*
X0092172Y0181539D01*
X0091800Y0181539D01*
X0091800Y0177758D01*
X0091800Y0177758D01*
X0095581Y0177758D01*
X0091800Y0177758D01*
X0091800Y0177758D01*
X0091800Y0181539D01*
X0091428Y0181539D01*
X0090697Y0181394D01*
X0090009Y0181109D01*
X0089390Y0180695D01*
X0088863Y0180168D01*
X0088449Y0179549D01*
X0088164Y0178861D01*
X0088019Y0178130D01*
X0088019Y0177758D01*
X0091800Y0177758D01*
X0091800Y0177758D01*
X0091800Y0173977D01*
X0091800Y0177758D01*
X0091800Y0177758D01*
X0088019Y0177758D01*
X0088019Y0177386D01*
X0088164Y0176655D01*
X0088449Y0175967D01*
X0088863Y0175348D01*
X0089390Y0174821D01*
X0088180Y0176618D02*
X0026492Y0176618D01*
X0027039Y0178216D02*
X0088036Y0178216D01*
X0088627Y0179815D02*
X0027039Y0179815D01*
X0026462Y0181413D02*
X0090795Y0181413D01*
X0091800Y0181413D02*
X0091800Y0181413D01*
X0092805Y0181413D02*
X0269000Y0181413D01*
X0269000Y0179815D02*
X0094973Y0179815D01*
X0095564Y0178216D02*
X0269000Y0178216D01*
X0269000Y0176618D02*
X0095420Y0176618D01*
X0094408Y0175019D02*
X0269000Y0175019D01*
X0269000Y0183012D02*
X0025175Y0183012D01*
X0027039Y0184610D02*
X0269000Y0184610D01*
X0269000Y0186209D02*
X0027039Y0186209D01*
X0027039Y0187807D02*
X0269000Y0187807D01*
X0269000Y0189406D02*
X0214787Y0189406D01*
X0214833Y0189452D02*
X0215378Y0190767D01*
X0215378Y0192190D01*
X0214833Y0193505D01*
X0213827Y0194512D01*
X0212512Y0195056D01*
X0211088Y0195056D01*
X0209773Y0194512D01*
X0208767Y0193505D01*
X0208222Y0192190D01*
X0208222Y0190767D01*
X0208767Y0189452D01*
X0209773Y0188445D01*
X0211088Y0187901D01*
X0212512Y0187901D01*
X0213827Y0188445D01*
X0214833Y0189452D01*
X0215378Y0191004D02*
X0269000Y0191004D01*
X0269000Y0192603D02*
X0215207Y0192603D01*
X0214137Y0194201D02*
X0269000Y0194201D01*
X0269000Y0195800D02*
X0065832Y0195800D01*
X0068088Y0197398D02*
X0269000Y0197398D01*
X0269000Y0198997D02*
X0069585Y0198997D01*
X0070248Y0200595D02*
X0071388Y0200595D01*
X0071388Y0200387D02*
X0072208Y0199567D01*
X0079392Y0199567D01*
X0080212Y0200387D01*
X0080212Y0207570D01*
X0079392Y0208390D01*
X0072208Y0208390D01*
X0071388Y0207570D01*
X0071388Y0200387D01*
X0071388Y0202194D02*
X0070899Y0202194D01*
X0070899Y0203792D02*
X0071388Y0203792D01*
X0071388Y0205391D02*
X0070899Y0205391D01*
X0071388Y0206989D02*
X0070402Y0206989D01*
X0069740Y0208588D02*
X0104415Y0208588D01*
X0104673Y0208672D02*
X0103953Y0208438D01*
X0103278Y0208094D01*
X0102665Y0207649D01*
X0102130Y0207113D01*
X0101685Y0206500D01*
X0101341Y0205826D01*
X0101107Y0205105D01*
X0100988Y0204357D01*
X0100988Y0204182D01*
X0105596Y0204182D01*
X0105596Y0203774D01*
X0106004Y0203774D01*
X0106004Y0199167D01*
X0106179Y0199167D01*
X0106927Y0199285D01*
X0107647Y0199519D01*
X0108322Y0199863D01*
X0108935Y0200308D01*
X0109470Y0200844D01*
X0109915Y0201457D01*
X0110259Y0202131D01*
X0110493Y0202852D01*
X0110612Y0203600D01*
X0110612Y0203774D01*
X0106004Y0203774D01*
X0106004Y0204182D01*
X0110612Y0204182D01*
X0110612Y0204357D01*
X0110493Y0205105D01*
X0110259Y0205826D01*
X0109915Y0206500D01*
X0109470Y0207113D01*
X0108935Y0207649D01*
X0108322Y0208094D01*
X0107647Y0208438D01*
X0106927Y0208672D01*
X0106179Y0208790D01*
X0106004Y0208790D01*
X0106004Y0204182D01*
X0105596Y0204182D01*
X0105596Y0208790D01*
X0105421Y0208790D01*
X0104673Y0208672D01*
X0105596Y0208588D02*
X0106004Y0208588D01*
X0107185Y0208588D02*
X0269000Y0208588D01*
X0269000Y0210186D02*
X0068460Y0210186D01*
X0080212Y0206989D02*
X0082572Y0206989D01*
X0082060Y0206478D02*
X0083301Y0207719D01*
X0084922Y0208390D01*
X0086678Y0208390D01*
X0088299Y0207719D01*
X0089540Y0206478D01*
X0090212Y0204856D01*
X0090212Y0203101D01*
X0089540Y0201479D01*
X0088299Y0200238D01*
X0086678Y0199567D01*
X0084922Y0199567D01*
X0083301Y0200238D01*
X0082060Y0201479D01*
X0081388Y0203101D01*
X0081388Y0204856D01*
X0082060Y0206478D01*
X0081610Y0205391D02*
X0080212Y0205391D01*
X0080212Y0203792D02*
X0081388Y0203792D01*
X0081764Y0202194D02*
X0080212Y0202194D01*
X0080212Y0200595D02*
X0082944Y0200595D01*
X0088656Y0200595D02*
X0092944Y0200595D01*
X0093301Y0200238D02*
X0092060Y0201479D01*
X0091388Y0203101D01*
X0091388Y0204856D01*
X0092060Y0206478D01*
X0093301Y0207719D01*
X0094922Y0208390D01*
X0096678Y0208390D01*
X0098299Y0207719D01*
X0099540Y0206478D01*
X0100212Y0204856D01*
X0100212Y0203101D01*
X0099540Y0201479D01*
X0098299Y0200238D01*
X0096678Y0199567D01*
X0094922Y0199567D01*
X0093301Y0200238D01*
X0091764Y0202194D02*
X0089836Y0202194D01*
X0090212Y0203792D02*
X0091388Y0203792D01*
X0091610Y0205391D02*
X0089990Y0205391D01*
X0089028Y0206989D02*
X0092572Y0206989D01*
X0099028Y0206989D02*
X0102040Y0206989D01*
X0101199Y0205391D02*
X0099990Y0205391D01*
X0100212Y0203792D02*
X0105596Y0203792D01*
X0105596Y0203774D02*
X0100988Y0203774D01*
X0100988Y0203600D01*
X0101107Y0202852D01*
X0101341Y0202131D01*
X0101685Y0201457D01*
X0102130Y0200844D01*
X0102665Y0200308D01*
X0103278Y0199863D01*
X0103953Y0199519D01*
X0104673Y0199285D01*
X0105421Y0199167D01*
X0105596Y0199167D01*
X0105596Y0203774D01*
X0106004Y0203792D02*
X0111388Y0203792D01*
X0111388Y0203101D02*
X0112060Y0201479D01*
X0113301Y0200238D01*
X0114922Y0199567D01*
X0116678Y0199567D01*
X0118299Y0200238D01*
X0119540Y0201479D01*
X0120212Y0203101D01*
X0120212Y0204856D01*
X0119540Y0206478D01*
X0118299Y0207719D01*
X0116678Y0208390D01*
X0114922Y0208390D01*
X0113301Y0207719D01*
X0112060Y0206478D01*
X0111388Y0204856D01*
X0111388Y0203101D01*
X0111764Y0202194D02*
X0110280Y0202194D01*
X0109222Y0200595D02*
X0112944Y0200595D01*
X0111610Y0205391D02*
X0110401Y0205391D01*
X0109560Y0206989D02*
X0112572Y0206989D01*
X0119028Y0206989D02*
X0122572Y0206989D01*
X0122060Y0206478D02*
X0121388Y0204856D01*
X0121388Y0203101D01*
X0122060Y0201479D01*
X0123301Y0200238D01*
X0124922Y0199567D01*
X0126678Y0199567D01*
X0128299Y0200238D01*
X0129540Y0201479D01*
X0130212Y0203101D01*
X0130212Y0204856D01*
X0129540Y0206478D01*
X0128299Y0207719D01*
X0126678Y0208390D01*
X0124922Y0208390D01*
X0123301Y0207719D01*
X0122060Y0206478D01*
X0121610Y0205391D02*
X0119990Y0205391D01*
X0120212Y0203792D02*
X0121388Y0203792D01*
X0121764Y0202194D02*
X0119836Y0202194D01*
X0118656Y0200595D02*
X0122944Y0200595D01*
X0128656Y0200595D02*
X0132944Y0200595D01*
X0133301Y0200238D02*
X0134922Y0199567D01*
X0136678Y0199567D01*
X0138299Y0200238D01*
X0139540Y0201479D01*
X0140212Y0203101D01*
X0140212Y0204856D01*
X0139540Y0206478D01*
X0138299Y0207719D01*
X0136678Y0208390D01*
X0134922Y0208390D01*
X0133301Y0207719D01*
X0132060Y0206478D01*
X0131388Y0204856D01*
X0131388Y0203101D01*
X0132060Y0201479D01*
X0133301Y0200238D01*
X0131764Y0202194D02*
X0129836Y0202194D01*
X0130212Y0203792D02*
X0131388Y0203792D01*
X0131610Y0205391D02*
X0129990Y0205391D01*
X0129028Y0206989D02*
X0132572Y0206989D01*
X0139028Y0206989D02*
X0142572Y0206989D01*
X0142060Y0206478D02*
X0143301Y0207719D01*
X0144922Y0208390D01*
X0146678Y0208390D01*
X0148299Y0207719D01*
X0149540Y0206478D01*
X0150212Y0204856D01*
X0150212Y0203101D01*
X0149540Y0201479D01*
X0148299Y0200238D01*
X0146678Y0199567D01*
X0144922Y0199567D01*
X0143301Y0200238D01*
X0142060Y0201479D01*
X0141388Y0203101D01*
X0141388Y0204856D01*
X0142060Y0206478D01*
X0141610Y0205391D02*
X0139990Y0205391D01*
X0140212Y0203792D02*
X0141388Y0203792D01*
X0141764Y0202194D02*
X0139836Y0202194D01*
X0138656Y0200595D02*
X0142944Y0200595D01*
X0148656Y0200595D02*
X0152944Y0200595D01*
X0153301Y0200238D02*
X0152060Y0201479D01*
X0151388Y0203101D01*
X0151388Y0204856D01*
X0152060Y0206478D01*
X0153301Y0207719D01*
X0154922Y0208390D01*
X0156678Y0208390D01*
X0158299Y0207719D01*
X0159540Y0206478D01*
X0160212Y0204856D01*
X0160212Y0203101D01*
X0159540Y0201479D01*
X0158299Y0200238D01*
X0156678Y0199567D01*
X0154922Y0199567D01*
X0153301Y0200238D01*
X0151764Y0202194D02*
X0149836Y0202194D01*
X0150212Y0203792D02*
X0151388Y0203792D01*
X0151610Y0205391D02*
X0149990Y0205391D01*
X0149028Y0206989D02*
X0152572Y0206989D01*
X0159028Y0206989D02*
X0162572Y0206989D01*
X0162060Y0206478D02*
X0163301Y0207719D01*
X0164922Y0208390D01*
X0166678Y0208390D01*
X0168299Y0207719D01*
X0169540Y0206478D01*
X0170212Y0204856D01*
X0170212Y0203101D01*
X0169540Y0201479D01*
X0168299Y0200238D01*
X0166678Y0199567D01*
X0164922Y0199567D01*
X0163301Y0200238D01*
X0162060Y0201479D01*
X0161388Y0203101D01*
X0161388Y0204856D01*
X0162060Y0206478D01*
X0161610Y0205391D02*
X0159990Y0205391D01*
X0160212Y0203792D02*
X0161388Y0203792D01*
X0161764Y0202194D02*
X0159836Y0202194D01*
X0158656Y0200595D02*
X0162944Y0200595D01*
X0168656Y0200595D02*
X0177388Y0200595D01*
X0177388Y0200387D02*
X0178208Y0199567D01*
X0185392Y0199567D01*
X0186212Y0200387D01*
X0186212Y0207570D01*
X0185392Y0208390D01*
X0178208Y0208390D01*
X0177388Y0207570D01*
X0177388Y0200387D01*
X0177388Y0202194D02*
X0169836Y0202194D01*
X0170212Y0203792D02*
X0177388Y0203792D01*
X0177388Y0205391D02*
X0169990Y0205391D01*
X0169028Y0206989D02*
X0177388Y0206989D01*
X0186212Y0206989D02*
X0188572Y0206989D01*
X0188060Y0206478D02*
X0187388Y0204856D01*
X0187388Y0203101D01*
X0188060Y0201479D01*
X0189301Y0200238D01*
X0190922Y0199567D01*
X0192678Y0199567D01*
X0194299Y0200238D01*
X0195540Y0201479D01*
X0196212Y0203101D01*
X0196212Y0204856D01*
X0195540Y0206478D01*
X0194299Y0207719D01*
X0192678Y0208390D01*
X0190922Y0208390D01*
X0189301Y0207719D01*
X0188060Y0206478D01*
X0187610Y0205391D02*
X0186212Y0205391D01*
X0186212Y0203792D02*
X0187388Y0203792D01*
X0187764Y0202194D02*
X0186212Y0202194D01*
X0186212Y0200595D02*
X0188944Y0200595D01*
X0194656Y0200595D02*
X0198944Y0200595D01*
X0199301Y0200238D02*
X0200922Y0199567D01*
X0202678Y0199567D01*
X0204299Y0200238D01*
X0205540Y0201479D01*
X0206212Y0203101D01*
X0206212Y0204856D01*
X0205540Y0206478D01*
X0204299Y0207719D01*
X0202678Y0208390D01*
X0200922Y0208390D01*
X0199301Y0207719D01*
X0198060Y0206478D01*
X0197388Y0204856D01*
X0197388Y0203101D01*
X0198060Y0201479D01*
X0199301Y0200238D01*
X0197764Y0202194D02*
X0195836Y0202194D01*
X0196212Y0203792D02*
X0197388Y0203792D01*
X0197610Y0205391D02*
X0195990Y0205391D01*
X0195028Y0206989D02*
X0198572Y0206989D01*
X0205028Y0206989D02*
X0208572Y0206989D01*
X0208060Y0206478D02*
X0209301Y0207719D01*
X0210922Y0208390D01*
X0212678Y0208390D01*
X0214299Y0207719D01*
X0215540Y0206478D01*
X0216212Y0204856D01*
X0216212Y0203101D01*
X0215540Y0201479D01*
X0214299Y0200238D01*
X0212678Y0199567D01*
X0210922Y0199567D01*
X0209301Y0200238D01*
X0208060Y0201479D01*
X0207388Y0203101D01*
X0207388Y0204856D01*
X0208060Y0206478D01*
X0207610Y0205391D02*
X0205990Y0205391D01*
X0206212Y0203792D02*
X0207388Y0203792D01*
X0207764Y0202194D02*
X0205836Y0202194D01*
X0204656Y0200595D02*
X0208944Y0200595D01*
X0214656Y0200595D02*
X0218944Y0200595D01*
X0219301Y0200238D02*
X0220922Y0199567D01*
X0222678Y0199567D01*
X0224299Y0200238D01*
X0225540Y0201479D01*
X0226212Y0203101D01*
X0226212Y0204856D01*
X0225540Y0206478D01*
X0224299Y0207719D01*
X0222678Y0208390D01*
X0220922Y0208390D01*
X0219301Y0207719D01*
X0218060Y0206478D01*
X0217388Y0204856D01*
X0217388Y0203101D01*
X0218060Y0201479D01*
X0219301Y0200238D01*
X0217764Y0202194D02*
X0215836Y0202194D01*
X0216212Y0203792D02*
X0217388Y0203792D01*
X0217610Y0205391D02*
X0215990Y0205391D01*
X0215028Y0206989D02*
X0218572Y0206989D01*
X0225028Y0206989D02*
X0228572Y0206989D01*
X0228060Y0206478D02*
X0229301Y0207719D01*
X0230922Y0208390D01*
X0232678Y0208390D01*
X0234299Y0207719D01*
X0235540Y0206478D01*
X0236212Y0204856D01*
X0236212Y0203101D01*
X0235540Y0201479D01*
X0234299Y0200238D01*
X0232678Y0199567D01*
X0230922Y0199567D01*
X0229301Y0200238D01*
X0228060Y0201479D01*
X0227388Y0203101D01*
X0227388Y0204856D01*
X0228060Y0206478D01*
X0227610Y0205391D02*
X0225990Y0205391D01*
X0226212Y0203792D02*
X0227388Y0203792D01*
X0227764Y0202194D02*
X0225836Y0202194D01*
X0224656Y0200595D02*
X0228944Y0200595D01*
X0234656Y0200595D02*
X0238944Y0200595D01*
X0239301Y0200238D02*
X0240922Y0199567D01*
X0242678Y0199567D01*
X0244299Y0200238D01*
X0245540Y0201479D01*
X0246212Y0203101D01*
X0246212Y0204856D01*
X0245540Y0206478D01*
X0244299Y0207719D01*
X0242678Y0208390D01*
X0240922Y0208390D01*
X0239301Y0207719D01*
X0238060Y0206478D01*
X0237388Y0204856D01*
X0237388Y0203101D01*
X0238060Y0201479D01*
X0239301Y0200238D01*
X0237764Y0202194D02*
X0235836Y0202194D01*
X0236212Y0203792D02*
X0237388Y0203792D01*
X0237610Y0205391D02*
X0235990Y0205391D01*
X0235028Y0206989D02*
X0238572Y0206989D01*
X0245028Y0206989D02*
X0248572Y0206989D01*
X0248060Y0206478D02*
X0247388Y0204856D01*
X0247388Y0203101D01*
X0248060Y0201479D01*
X0249301Y0200238D01*
X0250922Y0199567D01*
X0252678Y0199567D01*
X0254299Y0200238D01*
X0255540Y0201479D01*
X0256212Y0203101D01*
X0256212Y0204856D01*
X0255540Y0206478D01*
X0254299Y0207719D01*
X0252678Y0208390D01*
X0250922Y0208390D01*
X0249301Y0207719D01*
X0248060Y0206478D01*
X0247610Y0205391D02*
X0245990Y0205391D01*
X0246212Y0203792D02*
X0247388Y0203792D01*
X0247764Y0202194D02*
X0245836Y0202194D01*
X0244656Y0200595D02*
X0248944Y0200595D01*
X0254656Y0200595D02*
X0269000Y0200595D01*
X0269000Y0202194D02*
X0255836Y0202194D01*
X0256212Y0203792D02*
X0269000Y0203792D01*
X0269000Y0205391D02*
X0255990Y0205391D01*
X0255028Y0206989D02*
X0269000Y0206989D01*
X0209463Y0194201D02*
X0204137Y0194201D01*
X0203827Y0194512D02*
X0202512Y0195056D01*
X0201088Y0195056D01*
X0199773Y0194512D01*
X0198767Y0193505D01*
X0198222Y0192190D01*
X0198222Y0190767D01*
X0198767Y0189452D01*
X0199773Y0188445D01*
X0201088Y0187901D01*
X0202512Y0187901D01*
X0203827Y0188445D01*
X0204833Y0189452D01*
X0205378Y0190767D01*
X0205378Y0192190D01*
X0204833Y0193505D01*
X0203827Y0194512D01*
X0205207Y0192603D02*
X0208393Y0192603D01*
X0208222Y0191004D02*
X0205378Y0191004D01*
X0204787Y0189406D02*
X0208813Y0189406D01*
X0198813Y0189406D02*
X0194787Y0189406D01*
X0194833Y0189452D02*
X0195378Y0190767D01*
X0195378Y0192190D01*
X0194833Y0193505D01*
X0193827Y0194512D01*
X0192512Y0195056D01*
X0191088Y0195056D01*
X0189773Y0194512D01*
X0188767Y0193505D01*
X0188222Y0192190D01*
X0188222Y0190767D01*
X0188767Y0189452D01*
X0189773Y0188445D01*
X0191088Y0187901D01*
X0192512Y0187901D01*
X0193827Y0188445D01*
X0194833Y0189452D01*
X0195378Y0191004D02*
X0198222Y0191004D01*
X0198393Y0192603D02*
X0195207Y0192603D01*
X0194137Y0194201D02*
X0199463Y0194201D01*
X0189463Y0194201D02*
X0184137Y0194201D01*
X0183827Y0194512D02*
X0182512Y0195056D01*
X0181088Y0195056D01*
X0179773Y0194512D01*
X0178767Y0193505D01*
X0178222Y0192190D01*
X0178222Y0190767D01*
X0178767Y0189452D01*
X0179773Y0188445D01*
X0181088Y0187901D01*
X0182512Y0187901D01*
X0183827Y0188445D01*
X0184833Y0189452D01*
X0185378Y0190767D01*
X0185378Y0192190D01*
X0184833Y0193505D01*
X0183827Y0194512D01*
X0185207Y0192603D02*
X0188393Y0192603D01*
X0188222Y0191004D02*
X0185378Y0191004D01*
X0184787Y0189406D02*
X0188813Y0189406D01*
X0178813Y0189406D02*
X0168787Y0189406D01*
X0168833Y0189452D02*
X0169378Y0190767D01*
X0169378Y0192190D01*
X0168833Y0193505D01*
X0167827Y0194512D01*
X0166512Y0195056D01*
X0165088Y0195056D01*
X0163773Y0194512D01*
X0162767Y0193505D01*
X0162222Y0192190D01*
X0162222Y0190767D01*
X0162767Y0189452D01*
X0163773Y0188445D01*
X0165088Y0187901D01*
X0166512Y0187901D01*
X0167827Y0188445D01*
X0168833Y0189452D01*
X0169378Y0191004D02*
X0178222Y0191004D01*
X0178393Y0192603D02*
X0169207Y0192603D01*
X0168137Y0194201D02*
X0179463Y0194201D01*
X0163463Y0194201D02*
X0158137Y0194201D01*
X0157827Y0194512D02*
X0156512Y0195056D01*
X0155088Y0195056D01*
X0153773Y0194512D01*
X0152767Y0193505D01*
X0152222Y0192190D01*
X0152222Y0190767D01*
X0152767Y0189452D01*
X0153773Y0188445D01*
X0155088Y0187901D01*
X0156512Y0187901D01*
X0157827Y0188445D01*
X0158833Y0189452D01*
X0159378Y0190767D01*
X0159378Y0192190D01*
X0158833Y0193505D01*
X0157827Y0194512D01*
X0159207Y0192603D02*
X0162393Y0192603D01*
X0162222Y0191004D02*
X0159378Y0191004D01*
X0158787Y0189406D02*
X0162813Y0189406D01*
X0153463Y0194201D02*
X0148137Y0194201D01*
X0147827Y0194512D02*
X0146512Y0195056D01*
X0145088Y0195056D01*
X0143773Y0194512D01*
X0142767Y0193505D01*
X0142222Y0192190D01*
X0142222Y0190767D01*
X0142767Y0189452D01*
X0143773Y0188445D01*
X0145088Y0187901D01*
X0146512Y0187901D01*
X0147827Y0188445D01*
X0148833Y0189452D01*
X0149378Y0190767D01*
X0149378Y0192190D01*
X0148833Y0193505D01*
X0147827Y0194512D01*
X0149207Y0192603D02*
X0152393Y0192603D01*
X0152222Y0191004D02*
X0149378Y0191004D01*
X0148787Y0189406D02*
X0152813Y0189406D01*
X0142813Y0189406D02*
X0138787Y0189406D01*
X0138833Y0189452D02*
X0139378Y0190767D01*
X0139378Y0192190D01*
X0138833Y0193505D01*
X0137827Y0194512D01*
X0136512Y0195056D01*
X0135088Y0195056D01*
X0133773Y0194512D01*
X0132767Y0193505D01*
X0132222Y0192190D01*
X0132222Y0190767D01*
X0132767Y0189452D01*
X0133773Y0188445D01*
X0135088Y0187901D01*
X0136512Y0187901D01*
X0137827Y0188445D01*
X0138833Y0189452D01*
X0139378Y0191004D02*
X0142222Y0191004D01*
X0142393Y0192603D02*
X0139207Y0192603D01*
X0138137Y0194201D02*
X0143463Y0194201D01*
X0133463Y0194201D02*
X0026234Y0194201D01*
X0027039Y0192603D02*
X0132393Y0192603D01*
X0132222Y0191004D02*
X0027039Y0191004D01*
X0027039Y0189406D02*
X0132813Y0189406D01*
X0106004Y0200595D02*
X0105596Y0200595D01*
X0105596Y0202194D02*
X0106004Y0202194D01*
X0106004Y0205391D02*
X0105596Y0205391D01*
X0105596Y0206989D02*
X0106004Y0206989D01*
X0101320Y0202194D02*
X0099836Y0202194D01*
X0098656Y0200595D02*
X0102378Y0200595D01*
X0091800Y0179815D02*
X0091800Y0179815D01*
X0091800Y0178216D02*
X0091800Y0178216D01*
X0091800Y0176618D02*
X0091800Y0176618D01*
X0091800Y0175019D02*
X0091800Y0175019D01*
X0088419Y0165428D02*
X0025658Y0165428D01*
X0023777Y0163830D02*
X0088419Y0163830D01*
X0088419Y0162231D02*
X0025956Y0162231D01*
X0026785Y0160633D02*
X0089204Y0160633D01*
X0027039Y0103397D02*
X0026218Y0104217D01*
X0017382Y0104217D01*
X0016561Y0103397D01*
X0016561Y0094560D01*
X0017382Y0093740D01*
X0019606Y0093740D01*
X0018833Y0093420D01*
X0017359Y0091946D01*
X0016561Y0090020D01*
X0016561Y0087936D01*
X0017359Y0086011D01*
X0018833Y0084537D01*
X0020182Y0083978D01*
X0018833Y0083420D01*
X0017359Y0081946D01*
X0016561Y0080020D01*
X0016561Y0077936D01*
X0017359Y0076011D01*
X0018833Y0074537D01*
X0020182Y0073978D01*
X0018833Y0073420D01*
X0017359Y0071946D01*
X0016561Y0070020D01*
X0016561Y0067936D01*
X0017359Y0066011D01*
X0018833Y0064537D01*
X0020182Y0063978D01*
X0018833Y0063420D01*
X0017359Y0061946D01*
X0016561Y0060020D01*
X0016561Y0057936D01*
X0017359Y0056011D01*
X0018833Y0054537D01*
X0019637Y0054204D01*
X0019636Y0054204D01*
X0018845Y0053801D01*
X0018127Y0053279D01*
X0017499Y0052652D01*
X0016977Y0051934D01*
X0016575Y0051143D01*
X0016300Y0050299D01*
X0016167Y0049458D01*
X0021320Y0049458D01*
X0021320Y0048499D01*
X0016167Y0048499D01*
X0016300Y0047658D01*
X0016575Y0046814D01*
X0016977Y0046023D01*
X0017499Y0045305D01*
X0018127Y0044678D01*
X0018845Y0044156D01*
X0019636Y0043753D01*
X0020480Y0043479D01*
X0021320Y0043346D01*
X0021320Y0048499D01*
X0022280Y0048499D01*
X0022280Y0049458D01*
X0027433Y0049458D01*
X0027300Y0050299D01*
X0027267Y0050400D01*
X0034600Y0043067D01*
X0035889Y0041778D01*
X0094497Y0041778D01*
X0094996Y0041279D01*
X0096167Y0040794D01*
X0097433Y0040794D01*
X0098604Y0041279D01*
X0099499Y0042175D01*
X0099984Y0043345D01*
X0099984Y0044612D01*
X0099499Y0045782D01*
X0098803Y0046478D01*
X0099499Y0047175D01*
X0099984Y0048345D01*
X0099984Y0049612D01*
X0099499Y0050782D01*
X0098803Y0051478D01*
X0099499Y0052175D01*
X0099984Y0053345D01*
X0099984Y0054612D01*
X0099499Y0055782D01*
X0098803Y0056478D01*
X0099499Y0057175D01*
X0099984Y0058345D01*
X0099984Y0059612D01*
X0099499Y0060782D01*
X0098604Y0061678D01*
X0097433Y0062163D01*
X0096167Y0062163D01*
X0094996Y0061678D01*
X0094497Y0061178D01*
X0052711Y0061178D01*
X0026721Y0087169D01*
X0027039Y0087936D01*
X0027039Y0090020D01*
X0026241Y0091946D01*
X0024767Y0093420D01*
X0023994Y0093740D01*
X0026218Y0093740D01*
X0027039Y0094560D01*
X0027039Y0103397D01*
X0027039Y0103086D02*
X0182473Y0103086D01*
X0182396Y0104685D02*
X0004600Y0104685D01*
X0004600Y0106283D02*
X0183352Y0106283D01*
X0186625Y0107882D02*
X0004600Y0107882D01*
X0004600Y0109480D02*
X0188223Y0109480D01*
X0189822Y0111079D02*
X0004600Y0111079D01*
X0004600Y0112677D02*
X0216392Y0112677D01*
X0216116Y0114276D02*
X0004600Y0114276D01*
X0004600Y0115874D02*
X0216693Y0115874D01*
X0218880Y0109480D02*
X0219437Y0109480D01*
X0219933Y0108413D02*
X0218667Y0108413D01*
X0217496Y0107928D01*
X0216601Y0107032D01*
X0216116Y0105862D01*
X0216116Y0104595D01*
X0216601Y0103425D01*
X0217496Y0102529D01*
X0218667Y0102044D01*
X0219933Y0102044D01*
X0221104Y0102529D01*
X0221603Y0103028D01*
X0222132Y0103028D01*
X0222132Y0101430D01*
X0222952Y0100610D01*
X0230648Y0100610D01*
X0231468Y0101430D01*
X0231468Y0105700D01*
X0230648Y0106520D01*
X0226956Y0106520D01*
X0226048Y0107428D01*
X0221603Y0107428D01*
X0221104Y0107928D01*
X0219933Y0108413D01*
X0221150Y0107882D02*
X0269000Y0107882D01*
X0269000Y0109480D02*
X0241200Y0109480D01*
X0242548Y0106920D02*
X0239043Y0106920D01*
X0238586Y0106798D01*
X0238175Y0106561D01*
X0237840Y0106225D01*
X0237603Y0105815D01*
X0237480Y0105357D01*
X0237480Y0103565D01*
X0237480Y0101773D01*
X0237603Y0101315D01*
X0237840Y0100905D01*
X0238175Y0100570D01*
X0238586Y0100333D01*
X0239043Y0100210D01*
X0242548Y0100210D01*
X0242548Y0103565D01*
X0242548Y0103565D01*
X0242548Y0100210D01*
X0246053Y0100210D01*
X0246511Y0100333D01*
X0246921Y0100570D01*
X0247256Y0100905D01*
X0247493Y0101315D01*
X0247616Y0101773D01*
X0247616Y0103565D01*
X0242548Y0103565D01*
X0237480Y0103565D01*
X0242548Y0103565D01*
X0242548Y0103565D01*
X0242548Y0103565D01*
X0247616Y0103565D01*
X0247616Y0105357D01*
X0247493Y0105815D01*
X0247256Y0106225D01*
X0246921Y0106561D01*
X0246511Y0106798D01*
X0246053Y0106920D01*
X0242548Y0106920D01*
X0242548Y0103565D01*
X0242548Y0103565D01*
X0242548Y0106920D01*
X0242548Y0106283D02*
X0242548Y0106283D01*
X0242548Y0104685D02*
X0242548Y0104685D01*
X0242548Y0103086D02*
X0242548Y0103086D01*
X0242548Y0101488D02*
X0242548Y0101488D01*
X0238740Y0099434D02*
X0237920Y0098613D01*
X0237920Y0094728D01*
X0231868Y0094728D01*
X0231868Y0096478D01*
X0226800Y0096478D01*
X0226800Y0096479D01*
X0226800Y0099834D01*
X0223295Y0099834D01*
X0222837Y0099711D01*
X0222427Y0099474D01*
X0222092Y0099139D01*
X0221855Y0098728D01*
X0221791Y0098490D01*
X0221104Y0099178D01*
X0219933Y0099663D01*
X0218667Y0099663D01*
X0217496Y0099178D01*
X0216601Y0098282D01*
X0216116Y0097112D01*
X0216116Y0095845D01*
X0216401Y0095157D01*
X0215972Y0094728D01*
X0197222Y0094728D01*
X0196050Y0093557D01*
X0184031Y0081538D01*
X0183042Y0081538D01*
X0181871Y0081053D01*
X0180976Y0080157D01*
X0180491Y0078987D01*
X0180491Y0077720D01*
X0180976Y0076550D01*
X0181871Y0075654D01*
X0183042Y0075169D01*
X0184308Y0075169D01*
X0185479Y0075654D01*
X0186374Y0076550D01*
X0186859Y0077720D01*
X0186859Y0078709D01*
X0198878Y0090728D01*
X0217628Y0090728D01*
X0219300Y0092400D01*
X0220972Y0090728D01*
X0239666Y0090728D01*
X0240837Y0091900D01*
X0242461Y0093523D01*
X0246435Y0093523D01*
X0247255Y0094343D01*
X0247255Y0098613D01*
X0246435Y0099434D01*
X0238740Y0099434D01*
X0237920Y0098291D02*
X0231862Y0098291D01*
X0231868Y0098271D02*
X0231745Y0098728D01*
X0231508Y0099139D01*
X0231173Y0099474D01*
X0230762Y0099711D01*
X0230305Y0099834D01*
X0226800Y0099834D01*
X0226800Y0096479D01*
X0226800Y0096479D01*
X0231868Y0096479D01*
X0231868Y0098271D01*
X0231868Y0096692D02*
X0237920Y0096692D01*
X0237920Y0095094D02*
X0231868Y0095094D01*
X0226800Y0096692D02*
X0226800Y0096692D01*
X0226800Y0098291D02*
X0226800Y0098291D01*
X0231468Y0101488D02*
X0237557Y0101488D01*
X0237480Y0103086D02*
X0231468Y0103086D01*
X0231468Y0104685D02*
X0237480Y0104685D01*
X0237898Y0106283D02*
X0230885Y0106283D01*
X0226800Y0103565D02*
X0225137Y0105228D01*
X0219300Y0105228D01*
X0216939Y0103086D02*
X0188627Y0103086D01*
X0189085Y0104685D02*
X0216116Y0104685D01*
X0216290Y0106283D02*
X0190683Y0106283D01*
X0192282Y0107882D02*
X0217450Y0107882D01*
X0222132Y0101488D02*
X0187562Y0101488D01*
X0183538Y0101488D02*
X0027039Y0101488D01*
X0027039Y0099889D02*
X0269000Y0099889D01*
X0269000Y0098291D02*
X0247255Y0098291D01*
X0247255Y0096692D02*
X0269000Y0096692D01*
X0269000Y0095094D02*
X0247255Y0095094D01*
X0242432Y0093495D02*
X0269000Y0093495D01*
X0269000Y0091897D02*
X0240834Y0091897D01*
X0242548Y0089420D02*
X0239043Y0089420D01*
X0238586Y0089298D01*
X0238175Y0089061D01*
X0237840Y0088725D01*
X0237603Y0088315D01*
X0237480Y0087857D01*
X0237480Y0086065D01*
X0237480Y0084273D01*
X0237603Y0083815D01*
X0237840Y0083405D01*
X0238175Y0083070D01*
X0238586Y0082833D01*
X0239043Y0082710D01*
X0242548Y0082710D01*
X0242548Y0086065D01*
X0242548Y0086065D01*
X0242548Y0082710D01*
X0246053Y0082710D01*
X0246511Y0082833D01*
X0246921Y0083070D01*
X0247256Y0083405D01*
X0247493Y0083815D01*
X0247616Y0084273D01*
X0247616Y0086065D01*
X0242548Y0086065D01*
X0237480Y0086065D01*
X0242548Y0086065D01*
X0242548Y0086065D01*
X0242548Y0086065D01*
X0247616Y0086065D01*
X0247616Y0087857D01*
X0247493Y0088315D01*
X0247256Y0088725D01*
X0246921Y0089061D01*
X0246511Y0089298D01*
X0246053Y0089420D01*
X0242548Y0089420D01*
X0242548Y0086065D01*
X0242548Y0086065D01*
X0242548Y0089420D01*
X0242548Y0088700D02*
X0242548Y0088700D01*
X0242548Y0087101D02*
X0242548Y0087101D01*
X0242548Y0085503D02*
X0242548Y0085503D01*
X0242548Y0083904D02*
X0242548Y0083904D01*
X0238740Y0081934D02*
X0237920Y0081113D01*
X0237920Y0077228D01*
X0231868Y0077228D01*
X0231868Y0078978D01*
X0226800Y0078978D01*
X0226800Y0078979D01*
X0226800Y0082334D01*
X0230305Y0082334D01*
X0230762Y0082211D01*
X0231173Y0081974D01*
X0231508Y0081639D01*
X0231745Y0081228D01*
X0231868Y0080771D01*
X0231868Y0078979D01*
X0226800Y0078979D01*
X0226800Y0078979D01*
X0226800Y0082334D01*
X0223295Y0082334D01*
X0222837Y0082211D01*
X0222427Y0081974D01*
X0222092Y0081639D01*
X0221855Y0081228D01*
X0221791Y0080990D01*
X0221104Y0081678D01*
X0219933Y0082163D01*
X0218667Y0082163D01*
X0217496Y0081678D01*
X0216601Y0080782D01*
X0216116Y0079612D01*
X0216116Y0078623D01*
X0209656Y0072163D01*
X0208667Y0072163D01*
X0207496Y0071678D01*
X0206601Y0070782D01*
X0206116Y0069612D01*
X0206116Y0068345D01*
X0206601Y0067175D01*
X0207496Y0066279D01*
X0208667Y0065794D01*
X0209933Y0065794D01*
X0211104Y0066279D01*
X0211999Y0067175D01*
X0212484Y0068345D01*
X0212484Y0069334D01*
X0218675Y0075525D01*
X0220972Y0073228D01*
X0240128Y0073228D01*
X0241300Y0074400D01*
X0242428Y0075528D01*
X0242711Y0075528D01*
X0243206Y0076023D01*
X0246435Y0076023D01*
X0247255Y0076843D01*
X0247255Y0081113D01*
X0246435Y0081934D01*
X0238740Y0081934D01*
X0237920Y0080707D02*
X0231868Y0080707D01*
X0231868Y0079108D02*
X0237920Y0079108D01*
X0237920Y0077510D02*
X0231868Y0077510D01*
X0230409Y0082306D02*
X0269000Y0082306D01*
X0269000Y0083904D02*
X0247517Y0083904D01*
X0247616Y0085503D02*
X0269000Y0085503D01*
X0269000Y0087101D02*
X0247616Y0087101D01*
X0247271Y0088700D02*
X0269000Y0088700D01*
X0269000Y0090298D02*
X0221234Y0090298D01*
X0221104Y0090428D02*
X0219933Y0090913D01*
X0218667Y0090913D01*
X0217496Y0090428D01*
X0216601Y0089532D01*
X0216116Y0088362D01*
X0216116Y0087095D01*
X0216601Y0085925D01*
X0217496Y0085029D01*
X0218667Y0084544D01*
X0219933Y0084544D01*
X0221104Y0085029D01*
X0221603Y0085528D01*
X0222132Y0085528D01*
X0222132Y0083930D01*
X0222952Y0083110D01*
X0230648Y0083110D01*
X0231468Y0083930D01*
X0231468Y0088200D01*
X0230648Y0089020D01*
X0226956Y0089020D01*
X0226048Y0089928D01*
X0221603Y0089928D01*
X0221104Y0090428D01*
X0219803Y0091897D02*
X0218797Y0091897D01*
X0217366Y0090298D02*
X0198448Y0090298D01*
X0196850Y0088700D02*
X0216256Y0088700D01*
X0216116Y0087101D02*
X0195251Y0087101D01*
X0193652Y0085503D02*
X0217023Y0085503D01*
X0219300Y0087728D02*
X0225137Y0087728D01*
X0226800Y0086065D01*
X0226800Y0082306D02*
X0226800Y0082306D01*
X0226800Y0080707D02*
X0226800Y0080707D01*
X0226800Y0079108D02*
X0226800Y0079108D01*
X0223191Y0082306D02*
X0190455Y0082306D01*
X0192054Y0083904D02*
X0222158Y0083904D01*
X0222132Y0085503D02*
X0221577Y0085503D01*
X0216569Y0080707D02*
X0188857Y0080707D01*
X0187258Y0079108D02*
X0216116Y0079108D01*
X0215003Y0077510D02*
X0186772Y0077510D01*
X0185736Y0075911D02*
X0213405Y0075911D01*
X0211806Y0074313D02*
X0039577Y0074313D01*
X0041175Y0072714D02*
X0210208Y0072714D01*
X0206934Y0071116D02*
X0042774Y0071116D01*
X0044372Y0069517D02*
X0206116Y0069517D01*
X0206292Y0067919D02*
X0045971Y0067919D01*
X0047569Y0066320D02*
X0207455Y0066320D01*
X0211145Y0066320D02*
X0269000Y0066320D01*
X0269000Y0064722D02*
X0049168Y0064722D01*
X0050766Y0063123D02*
X0269000Y0063123D01*
X0269000Y0061525D02*
X0098757Y0061525D01*
X0099854Y0059926D02*
X0269000Y0059926D01*
X0269000Y0058328D02*
X0099977Y0058328D01*
X0099054Y0056729D02*
X0269000Y0056729D01*
X0269000Y0055131D02*
X0099769Y0055131D01*
X0099984Y0053532D02*
X0269000Y0053532D01*
X0269000Y0051934D02*
X0099259Y0051934D01*
X0099685Y0050335D02*
X0269000Y0050335D01*
X0269000Y0048737D02*
X0099984Y0048737D01*
X0099463Y0047138D02*
X0269000Y0047138D01*
X0269000Y0045540D02*
X0099600Y0045540D01*
X0099984Y0043941D02*
X0269000Y0043941D01*
X0269000Y0042343D02*
X0265384Y0042343D01*
X0267902Y0040744D02*
X0269000Y0040744D01*
X0258216Y0042343D02*
X0099569Y0042343D01*
X0096800Y0043978D02*
X0036800Y0043978D01*
X0021800Y0058978D01*
X0017061Y0056729D02*
X0004600Y0056729D01*
X0004600Y0055131D02*
X0018239Y0055131D01*
X0018475Y0053532D02*
X0004600Y0053532D01*
X0004600Y0051934D02*
X0016978Y0051934D01*
X0016312Y0050335D02*
X0004600Y0050335D01*
X0004600Y0048737D02*
X0021320Y0048737D01*
X0022280Y0048737D02*
X0028930Y0048737D01*
X0027433Y0048499D02*
X0022280Y0048499D01*
X0022280Y0043346D01*
X0023120Y0043479D01*
X0023964Y0043753D01*
X0024755Y0044156D01*
X0025473Y0044678D01*
X0026101Y0045305D01*
X0026623Y0046023D01*
X0027025Y0046814D01*
X0027300Y0047658D01*
X0027433Y0048499D01*
X0027131Y0047138D02*
X0030529Y0047138D01*
X0032127Y0045540D02*
X0026271Y0045540D01*
X0024334Y0043941D02*
X0033726Y0043941D01*
X0035324Y0042343D02*
X0004600Y0042343D01*
X0004600Y0043941D02*
X0019266Y0043941D01*
X0021320Y0043941D02*
X0022280Y0043941D01*
X0022280Y0045540D02*
X0021320Y0045540D01*
X0021320Y0047138D02*
X0022280Y0047138D01*
X0027288Y0050335D02*
X0027332Y0050335D01*
X0017329Y0045540D02*
X0004600Y0045540D01*
X0004600Y0047138D02*
X0016469Y0047138D01*
X0016561Y0058328D02*
X0004600Y0058328D01*
X0004600Y0059926D02*
X0016561Y0059926D01*
X0017185Y0061525D02*
X0004600Y0061525D01*
X0004600Y0063123D02*
X0018536Y0063123D01*
X0018648Y0064722D02*
X0004600Y0064722D01*
X0004600Y0066320D02*
X0017231Y0066320D01*
X0016569Y0067919D02*
X0004600Y0067919D01*
X0004600Y0069517D02*
X0016561Y0069517D01*
X0017015Y0071116D02*
X0004600Y0071116D01*
X0004600Y0072714D02*
X0018128Y0072714D01*
X0019374Y0074313D02*
X0004600Y0074313D01*
X0004600Y0075911D02*
X0017459Y0075911D01*
X0016738Y0077510D02*
X0004600Y0077510D01*
X0004600Y0079108D02*
X0016561Y0079108D01*
X0016846Y0080707D02*
X0004600Y0080707D01*
X0004600Y0082306D02*
X0017719Y0082306D01*
X0020002Y0083904D02*
X0004600Y0083904D01*
X0004600Y0085503D02*
X0017867Y0085503D01*
X0016907Y0087101D02*
X0004600Y0087101D01*
X0004600Y0088700D02*
X0016561Y0088700D01*
X0016676Y0090298D02*
X0004600Y0090298D01*
X0004600Y0091897D02*
X0017339Y0091897D01*
X0019015Y0093495D02*
X0004600Y0093495D01*
X0004600Y0095094D02*
X0016561Y0095094D01*
X0016561Y0096692D02*
X0004600Y0096692D01*
X0004600Y0098291D02*
X0016561Y0098291D01*
X0016561Y0099889D02*
X0004600Y0099889D01*
X0004600Y0101488D02*
X0016561Y0101488D01*
X0016561Y0103086D02*
X0004600Y0103086D01*
X0021800Y0088978D02*
X0051800Y0058978D01*
X0096800Y0058978D01*
X0094843Y0061525D02*
X0052365Y0061525D01*
X0046800Y0053978D02*
X0096800Y0053978D01*
X0096800Y0048978D02*
X0041800Y0048978D01*
X0021800Y0068978D01*
X0021800Y0078978D02*
X0046800Y0053978D01*
X0037978Y0075911D02*
X0181614Y0075911D01*
X0180578Y0077510D02*
X0036380Y0077510D01*
X0034781Y0079108D02*
X0180541Y0079108D01*
X0181525Y0080707D02*
X0033183Y0080707D01*
X0031584Y0082306D02*
X0184799Y0082306D01*
X0186397Y0083904D02*
X0029986Y0083904D01*
X0028387Y0085503D02*
X0187996Y0085503D01*
X0189594Y0087101D02*
X0026789Y0087101D01*
X0027039Y0088700D02*
X0191193Y0088700D01*
X0192791Y0090298D02*
X0026924Y0090298D01*
X0026261Y0091897D02*
X0194390Y0091897D01*
X0195988Y0093495D02*
X0024585Y0093495D01*
X0027039Y0095094D02*
X0216337Y0095094D01*
X0216116Y0096692D02*
X0027039Y0096692D01*
X0027039Y0098291D02*
X0216609Y0098291D01*
X0219300Y0096478D02*
X0219300Y0095228D01*
X0230968Y0088700D02*
X0237825Y0088700D01*
X0237480Y0087101D02*
X0231468Y0087101D01*
X0231468Y0085503D02*
X0237480Y0085503D01*
X0237579Y0083904D02*
X0231442Y0083904D01*
X0241800Y0078191D02*
X0241800Y0077728D01*
X0241800Y0078191D02*
X0242587Y0078978D01*
X0243094Y0075911D02*
X0269000Y0075911D01*
X0269000Y0074313D02*
X0241213Y0074313D01*
X0247255Y0077510D02*
X0269000Y0077510D01*
X0269000Y0079108D02*
X0247255Y0079108D01*
X0247255Y0080707D02*
X0269000Y0080707D01*
X0269000Y0072714D02*
X0215864Y0072714D01*
X0214266Y0071116D02*
X0269000Y0071116D01*
X0269000Y0069517D02*
X0212667Y0069517D01*
X0212308Y0067919D02*
X0269000Y0067919D01*
X0255698Y0040744D02*
X0004600Y0040744D01*
X0004600Y0039146D02*
X0254099Y0039146D01*
X0253429Y0037547D02*
X0004600Y0037547D01*
X0004600Y0035949D02*
X0252767Y0035949D01*
X0252701Y0034350D02*
X0004600Y0034350D01*
X0004600Y0032752D02*
X0252701Y0032752D01*
X0253121Y0031153D02*
X0004600Y0031153D01*
X0004600Y0029555D02*
X0179877Y0029555D01*
X0179773Y0029512D02*
X0178767Y0028505D01*
X0178222Y0027190D01*
X0178222Y0025767D01*
X0178767Y0024452D01*
X0179773Y0023445D01*
X0181088Y0022901D01*
X0182512Y0022901D01*
X0183827Y0023445D01*
X0184833Y0024452D01*
X0185378Y0025767D01*
X0185378Y0027190D01*
X0184833Y0028505D01*
X0183827Y0029512D01*
X0182512Y0030056D01*
X0181088Y0030056D01*
X0179773Y0029512D01*
X0178539Y0027956D02*
X0027039Y0027956D01*
X0027039Y0028397D02*
X0026218Y0029217D01*
X0017382Y0029217D01*
X0016561Y0028397D01*
X0016561Y0019560D01*
X0017382Y0018740D01*
X0018761Y0018740D01*
X0018127Y0018279D01*
X0017499Y0017652D01*
X0016977Y0016934D01*
X0016575Y0016143D01*
X0016300Y0015299D01*
X0016167Y0014458D01*
X0021320Y0014458D01*
X0021320Y0013499D01*
X0016167Y0013499D01*
X0016300Y0012658D01*
X0016575Y0011814D01*
X0016977Y0011023D01*
X0017499Y0010305D01*
X0018127Y0009678D01*
X0018845Y0009156D01*
X0019636Y0008753D01*
X0020480Y0008479D01*
X0021320Y0008346D01*
X0021320Y0013499D01*
X0022280Y0013499D01*
X0022280Y0014458D01*
X0027433Y0014458D01*
X0027300Y0015299D01*
X0027025Y0016143D01*
X0026623Y0016934D01*
X0026101Y0017652D01*
X0025473Y0018279D01*
X0024839Y0018740D01*
X0026218Y0018740D01*
X0027039Y0019560D01*
X0027039Y0028397D01*
X0027039Y0026358D02*
X0178222Y0026358D01*
X0178639Y0024759D02*
X0027039Y0024759D01*
X0027039Y0023161D02*
X0180460Y0023161D01*
X0183140Y0023161D02*
X0269000Y0023161D01*
X0269000Y0024759D02*
X0184961Y0024759D01*
X0185378Y0026358D02*
X0256553Y0026358D01*
X0254954Y0027956D02*
X0185061Y0027956D01*
X0183723Y0029555D02*
X0253783Y0029555D01*
X0252678Y0018390D02*
X0250922Y0018390D01*
X0249301Y0017719D01*
X0248060Y0016478D01*
X0247388Y0014856D01*
X0247388Y0013101D01*
X0248060Y0011479D01*
X0249301Y0010238D01*
X0250922Y0009567D01*
X0252678Y0009567D01*
X0254299Y0010238D01*
X0255540Y0011479D01*
X0256212Y0013101D01*
X0256212Y0014856D01*
X0255540Y0016478D01*
X0254299Y0017719D01*
X0252678Y0018390D01*
X0252738Y0018365D02*
X0269000Y0018365D01*
X0269000Y0016767D02*
X0266572Y0016767D01*
X0266327Y0017012D02*
X0267333Y0016005D01*
X0267878Y0014690D01*
X0267878Y0013267D01*
X0267333Y0011952D01*
X0266327Y0010945D01*
X0265012Y0010401D01*
X0263588Y0010401D01*
X0262273Y0010945D01*
X0261267Y0011952D01*
X0260722Y0013267D01*
X0260722Y0014690D01*
X0261267Y0016005D01*
X0262273Y0017012D01*
X0263588Y0017556D01*
X0265012Y0017556D01*
X0266327Y0017012D01*
X0267680Y0015168D02*
X0269000Y0015168D01*
X0269000Y0013570D02*
X0267878Y0013570D01*
X0267341Y0011971D02*
X0269000Y0011971D01*
X0269000Y0010373D02*
X0254433Y0010373D01*
X0255744Y0011971D02*
X0261259Y0011971D01*
X0260722Y0013570D02*
X0256212Y0013570D01*
X0256083Y0015168D02*
X0260920Y0015168D01*
X0262028Y0016767D02*
X0255251Y0016767D01*
X0250862Y0018365D02*
X0242738Y0018365D01*
X0242678Y0018390D02*
X0240922Y0018390D01*
X0239301Y0017719D01*
X0238060Y0016478D01*
X0237388Y0014856D01*
X0237388Y0013101D01*
X0238060Y0011479D01*
X0239301Y0010238D01*
X0240922Y0009567D01*
X0242678Y0009567D01*
X0244299Y0010238D01*
X0245540Y0011479D01*
X0246212Y0013101D01*
X0246212Y0014856D01*
X0245540Y0016478D01*
X0244299Y0017719D01*
X0242678Y0018390D01*
X0240862Y0018365D02*
X0232738Y0018365D01*
X0232678Y0018390D02*
X0230922Y0018390D01*
X0229301Y0017719D01*
X0228060Y0016478D01*
X0227388Y0014856D01*
X0227388Y0013101D01*
X0228060Y0011479D01*
X0229301Y0010238D01*
X0230922Y0009567D01*
X0232678Y0009567D01*
X0234299Y0010238D01*
X0235540Y0011479D01*
X0236212Y0013101D01*
X0236212Y0014856D01*
X0235540Y0016478D01*
X0234299Y0017719D01*
X0232678Y0018390D01*
X0230862Y0018365D02*
X0222738Y0018365D01*
X0222678Y0018390D02*
X0220922Y0018390D01*
X0219301Y0017719D01*
X0218060Y0016478D01*
X0217388Y0014856D01*
X0217388Y0013101D01*
X0218060Y0011479D01*
X0219301Y0010238D01*
X0220922Y0009567D01*
X0222678Y0009567D01*
X0224299Y0010238D01*
X0225540Y0011479D01*
X0226212Y0013101D01*
X0226212Y0014856D01*
X0225540Y0016478D01*
X0224299Y0017719D01*
X0222678Y0018390D01*
X0220862Y0018365D02*
X0212738Y0018365D01*
X0212678Y0018390D02*
X0210922Y0018390D01*
X0209301Y0017719D01*
X0208060Y0016478D01*
X0207388Y0014856D01*
X0207388Y0013101D01*
X0208060Y0011479D01*
X0209301Y0010238D01*
X0210922Y0009567D01*
X0212678Y0009567D01*
X0214299Y0010238D01*
X0215540Y0011479D01*
X0216212Y0013101D01*
X0216212Y0014856D01*
X0215540Y0016478D01*
X0214299Y0017719D01*
X0212678Y0018390D01*
X0210862Y0018365D02*
X0205417Y0018365D01*
X0205392Y0018390D02*
X0206212Y0017570D01*
X0206212Y0010387D01*
X0205392Y0009567D01*
X0198208Y0009567D01*
X0197388Y0010387D01*
X0197388Y0017570D01*
X0198208Y0018390D01*
X0205392Y0018390D01*
X0206212Y0016767D02*
X0208349Y0016767D01*
X0207517Y0015168D02*
X0206212Y0015168D01*
X0206212Y0013570D02*
X0207388Y0013570D01*
X0207856Y0011971D02*
X0206212Y0011971D01*
X0206198Y0010373D02*
X0209167Y0010373D01*
X0214433Y0010373D02*
X0219167Y0010373D01*
X0217856Y0011971D02*
X0215744Y0011971D01*
X0216212Y0013570D02*
X0217388Y0013570D01*
X0217517Y0015168D02*
X0216083Y0015168D01*
X0215251Y0016767D02*
X0218349Y0016767D01*
X0225251Y0016767D02*
X0228349Y0016767D01*
X0227517Y0015168D02*
X0226083Y0015168D01*
X0226212Y0013570D02*
X0227388Y0013570D01*
X0227856Y0011971D02*
X0225744Y0011971D01*
X0224433Y0010373D02*
X0229167Y0010373D01*
X0234433Y0010373D02*
X0239167Y0010373D01*
X0237856Y0011971D02*
X0235744Y0011971D01*
X0236212Y0013570D02*
X0237388Y0013570D01*
X0237517Y0015168D02*
X0236083Y0015168D01*
X0235251Y0016767D02*
X0238349Y0016767D01*
X0245251Y0016767D02*
X0248349Y0016767D01*
X0247517Y0015168D02*
X0246083Y0015168D01*
X0246212Y0013570D02*
X0247388Y0013570D01*
X0247856Y0011971D02*
X0245744Y0011971D01*
X0244433Y0010373D02*
X0249167Y0010373D01*
X0267047Y0026358D02*
X0269000Y0026358D01*
X0269000Y0027956D02*
X0268646Y0027956D01*
X0269000Y0021562D02*
X0062085Y0021562D01*
X0063683Y0019964D02*
X0269000Y0019964D01*
X0269000Y0008774D02*
X0064464Y0008774D01*
X0065155Y0010373D02*
X0107402Y0010373D01*
X0107388Y0010387D02*
X0108208Y0009567D01*
X0115392Y0009567D01*
X0116212Y0010387D01*
X0116212Y0017570D01*
X0115392Y0018390D01*
X0108208Y0018390D01*
X0107388Y0017570D01*
X0107388Y0010387D01*
X0107388Y0011971D02*
X0065817Y0011971D01*
X0065899Y0013570D02*
X0107388Y0013570D01*
X0107388Y0015168D02*
X0065899Y0015168D01*
X0065494Y0016767D02*
X0107388Y0016767D01*
X0108183Y0018365D02*
X0064832Y0018365D01*
X0062865Y0007175D02*
X0269000Y0007175D01*
X0197402Y0010373D02*
X0184433Y0010373D01*
X0184299Y0010238D02*
X0185540Y0011479D01*
X0186212Y0013101D01*
X0186212Y0014856D01*
X0185540Y0016478D01*
X0184299Y0017719D01*
X0182678Y0018390D01*
X0180922Y0018390D01*
X0179301Y0017719D01*
X0178060Y0016478D01*
X0177388Y0014856D01*
X0177388Y0013101D01*
X0178060Y0011479D01*
X0179301Y0010238D01*
X0180922Y0009567D01*
X0182678Y0009567D01*
X0184299Y0010238D01*
X0185744Y0011971D02*
X0197388Y0011971D01*
X0197388Y0013570D02*
X0186212Y0013570D01*
X0186083Y0015168D02*
X0197388Y0015168D01*
X0197388Y0016767D02*
X0185251Y0016767D01*
X0182738Y0018365D02*
X0198183Y0018365D01*
X0180862Y0018365D02*
X0173790Y0018365D01*
X0173647Y0018438D02*
X0172927Y0018672D01*
X0172179Y0018790D01*
X0172004Y0018790D01*
X0172004Y0014182D01*
X0176612Y0014182D01*
X0176612Y0014357D01*
X0176493Y0015105D01*
X0176259Y0015826D01*
X0175915Y0016500D01*
X0175470Y0017113D01*
X0174935Y0017649D01*
X0174322Y0018094D01*
X0173647Y0018438D01*
X0172004Y0018365D02*
X0171596Y0018365D01*
X0171596Y0018790D02*
X0171421Y0018790D01*
X0170673Y0018672D01*
X0169953Y0018438D01*
X0169278Y0018094D01*
X0168665Y0017649D01*
X0168130Y0017113D01*
X0167685Y0016500D01*
X0167341Y0015826D01*
X0167107Y0015105D01*
X0166988Y0014357D01*
X0166988Y0014182D01*
X0171596Y0014182D01*
X0171596Y0013774D01*
X0172004Y0013774D01*
X0172004Y0009167D01*
X0172179Y0009167D01*
X0172927Y0009285D01*
X0173647Y0009519D01*
X0174322Y0009863D01*
X0174935Y0010308D01*
X0175470Y0010844D01*
X0175915Y0011457D01*
X0176259Y0012131D01*
X0176493Y0012852D01*
X0176612Y0013600D01*
X0176612Y0013774D01*
X0172004Y0013774D01*
X0172004Y0014182D01*
X0171596Y0014182D01*
X0171596Y0018790D01*
X0169810Y0018365D02*
X0163790Y0018365D01*
X0163647Y0018438D02*
X0162927Y0018672D01*
X0162179Y0018790D01*
X0162004Y0018790D01*
X0162004Y0014182D01*
X0166612Y0014182D01*
X0166612Y0014357D01*
X0166493Y0015105D01*
X0166259Y0015826D01*
X0165915Y0016500D01*
X0165470Y0017113D01*
X0164935Y0017649D01*
X0164322Y0018094D01*
X0163647Y0018438D01*
X0162004Y0018365D02*
X0161596Y0018365D01*
X0161596Y0018790D02*
X0161421Y0018790D01*
X0160673Y0018672D01*
X0159953Y0018438D01*
X0159278Y0018094D01*
X0158665Y0017649D01*
X0158130Y0017113D01*
X0157685Y0016500D01*
X0157341Y0015826D01*
X0157107Y0015105D01*
X0156988Y0014357D01*
X0156988Y0014182D01*
X0161596Y0014182D01*
X0161596Y0013774D01*
X0162004Y0013774D01*
X0162004Y0009167D01*
X0162179Y0009167D01*
X0162927Y0009285D01*
X0163647Y0009519D01*
X0164322Y0009863D01*
X0164935Y0010308D01*
X0165470Y0010844D01*
X0165915Y0011457D01*
X0166259Y0012131D01*
X0166493Y0012852D01*
X0166612Y0013600D01*
X0166612Y0013774D01*
X0162004Y0013774D01*
X0162004Y0014182D01*
X0161596Y0014182D01*
X0161596Y0018790D01*
X0159810Y0018365D02*
X0152738Y0018365D01*
X0152678Y0018390D02*
X0150922Y0018390D01*
X0149301Y0017719D01*
X0148060Y0016478D01*
X0147388Y0014856D01*
X0147388Y0013101D01*
X0148060Y0011479D01*
X0149301Y0010238D01*
X0150922Y0009567D01*
X0152678Y0009567D01*
X0154299Y0010238D01*
X0155540Y0011479D01*
X0156212Y0013101D01*
X0156212Y0014856D01*
X0155540Y0016478D01*
X0154299Y0017719D01*
X0152678Y0018390D01*
X0150862Y0018365D02*
X0142738Y0018365D01*
X0142678Y0018390D02*
X0140922Y0018390D01*
X0139301Y0017719D01*
X0138060Y0016478D01*
X0137388Y0014856D01*
X0137388Y0013101D01*
X0138060Y0011479D01*
X0139301Y0010238D01*
X0140922Y0009567D01*
X0142678Y0009567D01*
X0144299Y0010238D01*
X0145540Y0011479D01*
X0146212Y0013101D01*
X0146212Y0014856D01*
X0145540Y0016478D01*
X0144299Y0017719D01*
X0142678Y0018390D01*
X0140862Y0018365D02*
X0132738Y0018365D01*
X0132678Y0018390D02*
X0130922Y0018390D01*
X0129301Y0017719D01*
X0128060Y0016478D01*
X0127388Y0014856D01*
X0127388Y0013101D01*
X0128060Y0011479D01*
X0129301Y0010238D01*
X0130922Y0009567D01*
X0132678Y0009567D01*
X0134299Y0010238D01*
X0135540Y0011479D01*
X0136212Y0013101D01*
X0136212Y0014856D01*
X0135540Y0016478D01*
X0134299Y0017719D01*
X0132678Y0018390D01*
X0130862Y0018365D02*
X0122738Y0018365D01*
X0122678Y0018390D02*
X0120922Y0018390D01*
X0119301Y0017719D01*
X0118060Y0016478D01*
X0117388Y0014856D01*
X0117388Y0013101D01*
X0118060Y0011479D01*
X0119301Y0010238D01*
X0120922Y0009567D01*
X0122678Y0009567D01*
X0124299Y0010238D01*
X0125540Y0011479D01*
X0126212Y0013101D01*
X0126212Y0014856D01*
X0125540Y0016478D01*
X0124299Y0017719D01*
X0122678Y0018390D01*
X0120862Y0018365D02*
X0115417Y0018365D01*
X0116212Y0016767D02*
X0118349Y0016767D01*
X0117517Y0015168D02*
X0116212Y0015168D01*
X0116212Y0013570D02*
X0117388Y0013570D01*
X0117856Y0011971D02*
X0116212Y0011971D01*
X0116198Y0010373D02*
X0119167Y0010373D01*
X0124433Y0010373D02*
X0129167Y0010373D01*
X0127856Y0011971D02*
X0125744Y0011971D01*
X0126212Y0013570D02*
X0127388Y0013570D01*
X0127517Y0015168D02*
X0126083Y0015168D01*
X0125251Y0016767D02*
X0128349Y0016767D01*
X0135251Y0016767D02*
X0138349Y0016767D01*
X0137517Y0015168D02*
X0136083Y0015168D01*
X0136212Y0013570D02*
X0137388Y0013570D01*
X0137856Y0011971D02*
X0135744Y0011971D01*
X0134433Y0010373D02*
X0139167Y0010373D01*
X0144433Y0010373D02*
X0149167Y0010373D01*
X0147856Y0011971D02*
X0145744Y0011971D01*
X0146212Y0013570D02*
X0147388Y0013570D01*
X0147517Y0015168D02*
X0146083Y0015168D01*
X0145251Y0016767D02*
X0148349Y0016767D01*
X0155251Y0016767D02*
X0157878Y0016767D01*
X0157127Y0015168D02*
X0156083Y0015168D01*
X0156212Y0013570D02*
X0156993Y0013570D01*
X0156988Y0013600D02*
X0157107Y0012852D01*
X0157341Y0012131D01*
X0157685Y0011457D01*
X0158130Y0010844D01*
X0158665Y0010308D01*
X0159278Y0009863D01*
X0159953Y0009519D01*
X0160673Y0009285D01*
X0161421Y0009167D01*
X0161596Y0009167D01*
X0161596Y0013774D01*
X0156988Y0013774D01*
X0156988Y0013600D01*
X0157422Y0011971D02*
X0155744Y0011971D01*
X0154433Y0010373D02*
X0158601Y0010373D01*
X0161596Y0010373D02*
X0162004Y0010373D01*
X0162004Y0011971D02*
X0161596Y0011971D01*
X0161596Y0013570D02*
X0162004Y0013570D01*
X0162004Y0015168D02*
X0161596Y0015168D01*
X0161596Y0016767D02*
X0162004Y0016767D01*
X0165722Y0016767D02*
X0167878Y0016767D01*
X0167127Y0015168D02*
X0166473Y0015168D01*
X0166988Y0013774D02*
X0166988Y0013600D01*
X0167107Y0012852D01*
X0167341Y0012131D01*
X0167685Y0011457D01*
X0168130Y0010844D01*
X0168665Y0010308D01*
X0169278Y0009863D01*
X0169953Y0009519D01*
X0170673Y0009285D01*
X0171421Y0009167D01*
X0171596Y0009167D01*
X0171596Y0013774D01*
X0166988Y0013774D01*
X0166993Y0013570D02*
X0166607Y0013570D01*
X0166178Y0011971D02*
X0167422Y0011971D01*
X0168601Y0010373D02*
X0164999Y0010373D01*
X0171596Y0010373D02*
X0172004Y0010373D01*
X0172004Y0011971D02*
X0171596Y0011971D01*
X0171596Y0013570D02*
X0172004Y0013570D01*
X0172004Y0015168D02*
X0171596Y0015168D01*
X0171596Y0016767D02*
X0172004Y0016767D01*
X0175722Y0016767D02*
X0178349Y0016767D01*
X0177517Y0015168D02*
X0176473Y0015168D01*
X0176607Y0013570D02*
X0177388Y0013570D01*
X0177856Y0011971D02*
X0176178Y0011971D01*
X0174999Y0010373D02*
X0179167Y0010373D01*
X0217463Y0074313D02*
X0219887Y0074313D01*
X0219300Y0077728D02*
X0219300Y0078978D01*
X0247539Y0101488D02*
X0269000Y0101488D01*
X0269000Y0103086D02*
X0247616Y0103086D01*
X0247616Y0104685D02*
X0269000Y0104685D01*
X0269000Y0106283D02*
X0247198Y0106283D01*
X0246490Y0111079D02*
X0269000Y0111079D01*
X0269000Y0112677D02*
X0247255Y0112677D01*
X0247255Y0114276D02*
X0269000Y0114276D01*
X0269000Y0115874D02*
X0247255Y0115874D01*
X0242548Y0119071D02*
X0242548Y0119071D01*
X0242548Y0120670D02*
X0242548Y0120670D01*
X0242548Y0121065D02*
X0242548Y0124420D01*
X0242548Y0121065D01*
X0242548Y0121065D01*
X0242548Y0122268D02*
X0242548Y0122268D01*
X0242548Y0123867D02*
X0242548Y0123867D01*
X0242548Y0136655D02*
X0242548Y0136655D01*
X0242548Y0138253D02*
X0242548Y0138253D01*
X0242548Y0138565D02*
X0242548Y0141920D01*
X0242548Y0138565D01*
X0242548Y0138565D01*
X0242548Y0139852D02*
X0242548Y0139852D01*
X0242548Y0141450D02*
X0242548Y0141450D01*
X0238065Y0141450D02*
X0230717Y0141450D01*
X0231468Y0139852D02*
X0237480Y0139852D01*
X0226800Y0115874D02*
X0226800Y0115874D01*
X0226800Y0114276D02*
X0226800Y0114276D01*
X0051515Y0021562D02*
X0027039Y0021562D01*
X0027039Y0019964D02*
X0049917Y0019964D01*
X0048768Y0018365D02*
X0025355Y0018365D01*
X0026708Y0016767D02*
X0048106Y0016767D01*
X0047701Y0015168D02*
X0027320Y0015168D01*
X0027433Y0013499D02*
X0022280Y0013499D01*
X0022280Y0008346D01*
X0023120Y0008479D01*
X0023964Y0008753D01*
X0024755Y0009156D01*
X0025473Y0009678D01*
X0026101Y0010305D01*
X0026623Y0011023D01*
X0027025Y0011814D01*
X0027300Y0012658D01*
X0027433Y0013499D01*
X0027076Y0011971D02*
X0047783Y0011971D01*
X0047701Y0013570D02*
X0022280Y0013570D01*
X0021320Y0013570D02*
X0004600Y0013570D01*
X0004600Y0015168D02*
X0016280Y0015168D01*
X0016892Y0016767D02*
X0004600Y0016767D01*
X0004600Y0018365D02*
X0018245Y0018365D01*
X0016561Y0019964D02*
X0004600Y0019964D01*
X0004600Y0021562D02*
X0016561Y0021562D01*
X0016561Y0023161D02*
X0004600Y0023161D01*
X0004600Y0024759D02*
X0016561Y0024759D01*
X0016561Y0026358D02*
X0004600Y0026358D01*
X0004600Y0027956D02*
X0016561Y0027956D01*
X0016523Y0011971D02*
X0004600Y0011971D01*
X0004600Y0010373D02*
X0017450Y0010373D01*
X0019594Y0008774D02*
X0004600Y0008774D01*
X0004600Y0007175D02*
X0050735Y0007175D01*
X0049136Y0008774D02*
X0024006Y0008774D01*
X0022280Y0008774D02*
X0021320Y0008774D01*
X0021320Y0010373D02*
X0022280Y0010373D01*
X0022280Y0011971D02*
X0021320Y0011971D01*
X0026150Y0010373D02*
X0048445Y0010373D01*
X0017234Y0120670D02*
X0004600Y0120670D01*
X0004600Y0122268D02*
X0016427Y0122268D01*
D19*
X0061800Y0081478D03*
X0089300Y0076478D03*
X0096800Y0058978D03*
X0096800Y0053978D03*
X0096800Y0048978D03*
X0096800Y0043978D03*
X0115550Y0026478D03*
X0099300Y0010228D03*
X0074300Y0010228D03*
X0039300Y0028978D03*
X0039300Y0037728D03*
X0086800Y0108978D03*
X0083050Y0133978D03*
X0084300Y0153978D03*
X0084300Y0175228D03*
X0079300Y0175228D03*
X0074300Y0175228D03*
X0069300Y0175228D03*
X0064300Y0175228D03*
X0059300Y0175228D03*
X0054300Y0170228D03*
X0064300Y0180228D03*
X0069300Y0180228D03*
X0074300Y0180228D03*
X0079300Y0180228D03*
X0084300Y0180228D03*
X0151800Y0148978D03*
X0176800Y0118978D03*
X0189925Y0129603D03*
X0199300Y0135228D03*
X0199300Y0117728D03*
X0185550Y0103978D03*
X0199300Y0100228D03*
X0199300Y0082728D03*
X0183675Y0078353D03*
X0176800Y0068978D03*
X0209300Y0068978D03*
X0219300Y0078978D03*
X0219300Y0087728D03*
X0219300Y0096478D03*
X0219300Y0105228D03*
X0219300Y0113978D03*
X0219300Y0122728D03*
X0219300Y0131478D03*
X0219300Y0140228D03*
X0151800Y0098978D03*
X0144300Y0108978D03*
X0144300Y0058978D03*
D20*
X0183675Y0078353D02*
X0198050Y0092728D01*
X0216800Y0092728D01*
X0219300Y0095228D01*
X0220550Y0096478D01*
X0219300Y0095228D02*
X0221800Y0092728D01*
X0238837Y0092728D01*
X0242587Y0096478D01*
X0241800Y0077728D02*
X0239300Y0075228D01*
X0221800Y0075228D01*
X0219300Y0077728D01*
X0219300Y0078978D02*
X0209300Y0068978D01*
X0185550Y0103978D02*
X0191800Y0110228D01*
X0216800Y0110228D01*
X0219300Y0112728D01*
X0216800Y0127728D02*
X0219300Y0130228D01*
X0216800Y0127728D02*
X0191800Y0127728D01*
X0189925Y0129603D01*
M02*
