G75*
%MOIN*%
%OFA0B0*%
%FSLAX25Y25*%
%IPPOS*%
%LPD*%
%AMOC8*
5,1,8,0,0,1.08239X$1,22.5*
%
%ADD10R,0.05906X0.05118*%
%ADD11R,0.05118X0.05906*%
%ADD12R,0.01378X0.04724*%
%ADD13R,0.02362X0.05906*%
%ADD14R,0.07677X0.07677*%
%ADD15C,0.07677*%
%ADD16C,0.04356*%
%ADD17C,0.03962*%
%ADD18C,0.01600*%
D10*
X0041800Y0020560D03*
X0041800Y0028040D03*
X0054300Y0028060D03*
X0054300Y0035540D03*
X0066800Y0035540D03*
X0066800Y0028060D03*
X0074300Y0053060D03*
X0074300Y0060540D03*
X0066800Y0078060D03*
X0066800Y0085540D03*
X0054300Y0085540D03*
X0054300Y0078060D03*
X0041800Y0085560D03*
X0041800Y0093040D03*
X0129300Y0090540D03*
X0129300Y0083060D03*
X0146800Y0060540D03*
X0146800Y0053060D03*
X0124300Y0030540D03*
X0124300Y0023060D03*
D11*
X0135560Y0021800D03*
X0143040Y0021800D03*
X0143040Y0031800D03*
X0135560Y0031800D03*
X0085540Y0031800D03*
X0078060Y0031800D03*
X0080560Y0081800D03*
X0088040Y0081800D03*
X0140560Y0081800D03*
X0148040Y0081800D03*
X0148040Y0091800D03*
X0140560Y0091800D03*
D12*
X0090639Y0068316D03*
X0088080Y0068316D03*
X0085520Y0068316D03*
X0082961Y0068316D03*
X0082961Y0045284D03*
X0085520Y0045284D03*
X0088080Y0045284D03*
X0090639Y0045284D03*
D13*
X0124300Y0045973D03*
X0129300Y0045973D03*
X0134300Y0045973D03*
X0139300Y0045973D03*
X0139300Y0067627D03*
X0134300Y0067627D03*
X0129300Y0067627D03*
X0124300Y0067627D03*
D14*
X0171800Y0076800D03*
D15*
X0171800Y0066800D03*
X0171800Y0056800D03*
X0171800Y0046800D03*
D16*
X0184300Y0046800D03*
X0184300Y0056800D03*
X0184300Y0066800D03*
X0184300Y0076800D03*
D17*
X0154300Y0081800D03*
X0146800Y0068050D03*
X0114300Y0083050D03*
X0106800Y0071800D03*
X0074300Y0044300D03*
X0096800Y0036800D03*
X0106800Y0041800D03*
X0114300Y0030550D03*
X0149300Y0031800D03*
X0061800Y0060550D03*
X0054300Y0066800D03*
X0046800Y0066800D03*
X0041800Y0076800D03*
X0049300Y0093050D03*
X0046800Y0099300D03*
X0046800Y0054300D03*
X0046800Y0041800D03*
X0046800Y0034300D03*
X0049300Y0019300D03*
X0041800Y0011800D03*
D18*
X0004600Y0004600D02*
X0004600Y0114000D01*
X0189000Y0114000D01*
X0189000Y0004600D01*
X0004600Y0004600D01*
X0004600Y0004997D02*
X0189000Y0004997D01*
X0189000Y0006596D02*
X0004600Y0006596D01*
X0004600Y0008194D02*
X0173470Y0008194D01*
X0174965Y0007575D02*
X0178635Y0007575D01*
X0182026Y0008979D01*
X0184621Y0011574D01*
X0186025Y0014965D01*
X0186025Y0018635D01*
X0184621Y0022026D01*
X0182026Y0024621D01*
X0178635Y0026025D01*
X0174965Y0026025D01*
X0171574Y0024621D01*
X0168979Y0022026D01*
X0167575Y0018635D01*
X0167575Y0014965D01*
X0168979Y0011574D01*
X0171574Y0008979D01*
X0174965Y0007575D01*
X0170761Y0009793D02*
X0044574Y0009793D01*
X0044666Y0009885D02*
X0045181Y0011127D01*
X0045181Y0012473D01*
X0044666Y0013715D01*
X0044000Y0014382D01*
X0044000Y0016601D01*
X0045333Y0016601D01*
X0046153Y0017421D01*
X0046153Y0023699D01*
X0045552Y0024300D01*
X0046153Y0024901D01*
X0046153Y0025860D01*
X0049947Y0025860D01*
X0049947Y0024921D01*
X0050767Y0024101D01*
X0052100Y0024101D01*
X0052100Y0020889D01*
X0057100Y0015889D01*
X0058389Y0014600D01*
X0087711Y0014600D01*
X0092711Y0019600D01*
X0094000Y0020889D01*
X0094000Y0034818D01*
X0094885Y0033934D01*
X0096127Y0033419D01*
X0097473Y0033419D01*
X0098715Y0033934D01*
X0099666Y0034885D01*
X0100181Y0036127D01*
X0100181Y0037473D01*
X0099666Y0038715D01*
X0098715Y0039666D01*
X0097473Y0040181D01*
X0096530Y0040181D01*
X0092839Y0043873D01*
X0092839Y0046196D01*
X0092728Y0046307D01*
X0092728Y0047761D01*
X0100889Y0039600D01*
X0104218Y0039600D01*
X0104885Y0038934D01*
X0106127Y0038419D01*
X0107473Y0038419D01*
X0108715Y0038934D01*
X0109382Y0039600D01*
X0112711Y0039600D01*
X0121719Y0048608D01*
X0121719Y0042441D01*
X0122100Y0042059D01*
X0122100Y0034499D01*
X0120767Y0034499D01*
X0119947Y0033679D01*
X0119947Y0032741D01*
X0116886Y0032746D01*
X0116215Y0033416D01*
X0114973Y0033931D01*
X0113627Y0033931D01*
X0112385Y0033416D01*
X0111434Y0032465D01*
X0110919Y0031223D01*
X0110919Y0029877D01*
X0111434Y0028635D01*
X0112385Y0027684D01*
X0113627Y0027169D01*
X0114973Y0027169D01*
X0116215Y0027684D01*
X0116878Y0028346D01*
X0119627Y0028342D01*
X0119629Y0028340D01*
X0119947Y0028340D01*
X0119947Y0027401D01*
X0120548Y0026800D01*
X0119947Y0026199D01*
X0119947Y0019921D01*
X0120767Y0019101D01*
X0127833Y0019101D01*
X0128332Y0019600D01*
X0131601Y0019600D01*
X0131601Y0018267D01*
X0132421Y0017447D01*
X0138699Y0017447D01*
X0139023Y0017772D01*
X0139041Y0017742D01*
X0139376Y0017407D01*
X0139786Y0017170D01*
X0140244Y0017047D01*
X0142561Y0017047D01*
X0142561Y0021320D01*
X0143520Y0021320D01*
X0143520Y0017047D01*
X0145836Y0017047D01*
X0146294Y0017170D01*
X0146704Y0017407D01*
X0147040Y0017742D01*
X0147277Y0018152D01*
X0147399Y0018610D01*
X0147399Y0021320D01*
X0143520Y0021320D01*
X0143520Y0022280D01*
X0142561Y0022280D01*
X0142561Y0026553D01*
X0140244Y0026553D01*
X0139786Y0026430D01*
X0139376Y0026193D01*
X0139041Y0025858D01*
X0139023Y0025828D01*
X0138699Y0026153D01*
X0137760Y0026153D01*
X0137760Y0027447D01*
X0138699Y0027447D01*
X0139300Y0028048D01*
X0139901Y0027447D01*
X0146179Y0027447D01*
X0146999Y0028267D01*
X0146999Y0029319D01*
X0147385Y0028934D01*
X0148627Y0028419D01*
X0149973Y0028419D01*
X0151215Y0028934D01*
X0152166Y0029885D01*
X0152681Y0031127D01*
X0152681Y0032473D01*
X0152166Y0033715D01*
X0151215Y0034666D01*
X0149973Y0035181D01*
X0148627Y0035181D01*
X0147385Y0034666D01*
X0146999Y0034281D01*
X0146999Y0035333D01*
X0146179Y0036153D01*
X0145250Y0036153D01*
X0145250Y0037711D01*
X0141500Y0041461D01*
X0141500Y0042059D01*
X0141881Y0042441D01*
X0141881Y0049506D01*
X0141061Y0050326D01*
X0137539Y0050326D01*
X0136800Y0049587D01*
X0136061Y0050326D01*
X0132539Y0050326D01*
X0131800Y0049587D01*
X0131500Y0049887D01*
X0131500Y0050211D01*
X0129000Y0052711D01*
X0127711Y0054000D01*
X0120889Y0054000D01*
X0110889Y0044000D01*
X0109382Y0044000D01*
X0108715Y0044666D01*
X0107473Y0045181D01*
X0106127Y0045181D01*
X0104885Y0044666D01*
X0104218Y0044000D01*
X0102711Y0044000D01*
X0094000Y0052711D01*
X0092711Y0054000D01*
X0083389Y0054000D01*
X0082050Y0052661D01*
X0080761Y0051373D01*
X0080761Y0043873D01*
X0074600Y0037711D01*
X0074600Y0035832D01*
X0074101Y0035333D01*
X0074101Y0028267D01*
X0074921Y0027447D01*
X0081199Y0027447D01*
X0081800Y0028048D01*
X0082401Y0027447D01*
X0083340Y0027447D01*
X0083340Y0026451D01*
X0080889Y0024000D01*
X0070211Y0024000D01*
X0070110Y0024101D01*
X0070333Y0024101D01*
X0071153Y0024921D01*
X0071153Y0031199D01*
X0070552Y0031800D01*
X0071153Y0032401D01*
X0071153Y0038679D01*
X0070333Y0039499D01*
X0069000Y0039499D01*
X0069000Y0056461D01*
X0067711Y0057750D01*
X0065181Y0060280D01*
X0065181Y0060820D01*
X0069000Y0064639D01*
X0069000Y0074101D01*
X0070333Y0074101D01*
X0071153Y0074921D01*
X0071153Y0081199D01*
X0070552Y0081800D01*
X0071153Y0082401D01*
X0071153Y0088679D01*
X0070333Y0089499D01*
X0070110Y0089499D01*
X0070211Y0089600D01*
X0083389Y0089600D01*
X0085840Y0087149D01*
X0085840Y0086153D01*
X0084901Y0086153D01*
X0084300Y0085552D01*
X0083699Y0086153D01*
X0077421Y0086153D01*
X0076601Y0085333D01*
X0076601Y0078267D01*
X0077421Y0077447D01*
X0078041Y0077447D01*
X0083011Y0072478D01*
X0082961Y0072478D01*
X0082035Y0072478D01*
X0081578Y0072355D01*
X0081167Y0072118D01*
X0080832Y0071783D01*
X0080595Y0071373D01*
X0080472Y0070915D01*
X0080472Y0068316D01*
X0082961Y0068316D01*
X0082961Y0068316D01*
X0082961Y0072478D01*
X0082961Y0068316D01*
X0082961Y0068316D01*
X0080472Y0068316D01*
X0080472Y0065717D01*
X0080595Y0065259D01*
X0080832Y0064848D01*
X0081167Y0064513D01*
X0081578Y0064276D01*
X0082035Y0064154D01*
X0082961Y0064154D01*
X0082961Y0068316D01*
X0082961Y0068316D01*
X0082961Y0064154D01*
X0083320Y0064154D01*
X0083320Y0062168D01*
X0084609Y0060880D01*
X0085889Y0059600D01*
X0092711Y0059600D01*
X0094000Y0060889D01*
X0102711Y0069600D01*
X0104218Y0069600D01*
X0104885Y0068934D01*
X0106127Y0068419D01*
X0107473Y0068419D01*
X0108715Y0068934D01*
X0109382Y0069600D01*
X0110889Y0069600D01*
X0120889Y0059600D01*
X0132711Y0059600D01*
X0134000Y0060889D01*
X0136500Y0063389D01*
X0136500Y0063713D01*
X0136800Y0064013D01*
X0137539Y0063274D01*
X0141061Y0063274D01*
X0141881Y0064094D01*
X0141881Y0071159D01*
X0141500Y0071541D01*
X0141500Y0077447D01*
X0143699Y0077447D01*
X0144300Y0078048D01*
X0144901Y0077447D01*
X0151179Y0077447D01*
X0151999Y0078267D01*
X0151999Y0079319D01*
X0152385Y0078934D01*
X0153627Y0078419D01*
X0154973Y0078419D01*
X0156215Y0078934D01*
X0157166Y0079885D01*
X0157681Y0081127D01*
X0157681Y0082473D01*
X0157166Y0083715D01*
X0156215Y0084666D01*
X0154973Y0085181D01*
X0153627Y0085181D01*
X0152385Y0084666D01*
X0151999Y0084281D01*
X0151999Y0085333D01*
X0151179Y0086153D01*
X0144901Y0086153D01*
X0144300Y0085552D01*
X0143699Y0086153D01*
X0142760Y0086153D01*
X0142760Y0087447D01*
X0143699Y0087447D01*
X0144023Y0087772D01*
X0144041Y0087742D01*
X0144376Y0087407D01*
X0144786Y0087170D01*
X0145244Y0087047D01*
X0147561Y0087047D01*
X0147561Y0091320D01*
X0148520Y0091320D01*
X0148520Y0087047D01*
X0150836Y0087047D01*
X0151294Y0087170D01*
X0151704Y0087407D01*
X0152040Y0087742D01*
X0152277Y0088152D01*
X0152399Y0088610D01*
X0152399Y0091320D01*
X0148520Y0091320D01*
X0148520Y0092280D01*
X0147561Y0092280D01*
X0147561Y0096553D01*
X0145244Y0096553D01*
X0144786Y0096430D01*
X0144376Y0096193D01*
X0144041Y0095858D01*
X0144023Y0095828D01*
X0143699Y0096153D01*
X0137421Y0096153D01*
X0136601Y0095333D01*
X0136601Y0094000D01*
X0133332Y0094000D01*
X0132833Y0094499D01*
X0125767Y0094499D01*
X0124947Y0093679D01*
X0124947Y0087401D01*
X0125548Y0086800D01*
X0124947Y0086199D01*
X0124947Y0085260D01*
X0118948Y0085260D01*
X0118946Y0085262D01*
X0118039Y0085260D01*
X0117129Y0085260D01*
X0117126Y0085257D01*
X0116875Y0085257D01*
X0116215Y0085916D01*
X0114973Y0086431D01*
X0113627Y0086431D01*
X0112385Y0085916D01*
X0111434Y0084965D01*
X0110919Y0083723D01*
X0110919Y0082377D01*
X0111434Y0081135D01*
X0112385Y0080184D01*
X0113627Y0079669D01*
X0114973Y0079669D01*
X0116215Y0080184D01*
X0116888Y0080857D01*
X0118041Y0080860D01*
X0124947Y0080860D01*
X0124947Y0079921D01*
X0125767Y0079101D01*
X0127100Y0079101D01*
X0127100Y0071541D01*
X0127040Y0071480D01*
X0126921Y0071685D01*
X0126586Y0072020D01*
X0126176Y0072257D01*
X0125718Y0072380D01*
X0124300Y0072380D01*
X0122882Y0072380D01*
X0122424Y0072257D01*
X0122014Y0072020D01*
X0121679Y0071685D01*
X0121442Y0071274D01*
X0121319Y0070816D01*
X0121319Y0067627D01*
X0124300Y0067627D01*
X0124300Y0067627D01*
X0124300Y0072380D01*
X0124300Y0067627D01*
X0124300Y0067627D01*
X0121319Y0067627D01*
X0121319Y0065392D01*
X0112711Y0074000D01*
X0109382Y0074000D01*
X0108715Y0074666D01*
X0107473Y0075181D01*
X0106127Y0075181D01*
X0104885Y0074666D01*
X0104218Y0074000D01*
X0100889Y0074000D01*
X0092728Y0065839D01*
X0092728Y0067293D01*
X0092839Y0067404D01*
X0092839Y0072227D01*
X0096500Y0075889D01*
X0096500Y0095211D01*
X0095211Y0096500D01*
X0092711Y0099000D01*
X0058389Y0099000D01*
X0057100Y0097711D01*
X0052681Y0093292D01*
X0052681Y0093723D01*
X0052166Y0094965D01*
X0051215Y0095916D01*
X0049973Y0096431D01*
X0048627Y0096431D01*
X0047385Y0095916D01*
X0046715Y0095247D01*
X0046153Y0095246D01*
X0046153Y0096179D01*
X0045333Y0096999D01*
X0038267Y0096999D01*
X0037447Y0096179D01*
X0037447Y0089901D01*
X0038048Y0089300D01*
X0037447Y0088699D01*
X0037447Y0082421D01*
X0038267Y0081601D01*
X0045333Y0081601D01*
X0046153Y0082421D01*
X0046153Y0083340D01*
X0049947Y0083340D01*
X0049947Y0082401D01*
X0050548Y0081800D01*
X0049947Y0081199D01*
X0049947Y0074921D01*
X0050767Y0074101D01*
X0052100Y0074101D01*
X0052100Y0069382D01*
X0051434Y0068715D01*
X0050919Y0067473D01*
X0050919Y0066127D01*
X0051434Y0064885D01*
X0052385Y0063934D01*
X0053627Y0063419D01*
X0054973Y0063419D01*
X0056215Y0063934D01*
X0057166Y0064885D01*
X0057681Y0066127D01*
X0057681Y0067473D01*
X0057166Y0068715D01*
X0056500Y0069382D01*
X0056500Y0074101D01*
X0057833Y0074101D01*
X0058653Y0074921D01*
X0058653Y0081199D01*
X0058052Y0081800D01*
X0058653Y0082401D01*
X0058653Y0088679D01*
X0057833Y0089499D01*
X0056500Y0089499D01*
X0056500Y0090889D01*
X0060211Y0094600D01*
X0090889Y0094600D01*
X0092100Y0093389D01*
X0092100Y0077711D01*
X0090240Y0075851D01*
X0090240Y0077447D01*
X0091179Y0077447D01*
X0091999Y0078267D01*
X0091999Y0085333D01*
X0091179Y0086153D01*
X0090240Y0086153D01*
X0090240Y0088971D01*
X0088951Y0090260D01*
X0085211Y0094000D01*
X0068389Y0094000D01*
X0067100Y0092711D01*
X0064600Y0090211D01*
X0064600Y0089499D01*
X0063267Y0089499D01*
X0062447Y0088679D01*
X0062447Y0082401D01*
X0063048Y0081800D01*
X0062447Y0081199D01*
X0062447Y0074921D01*
X0063267Y0074101D01*
X0064600Y0074101D01*
X0064600Y0066461D01*
X0062070Y0063931D01*
X0061127Y0063931D01*
X0059885Y0063416D01*
X0058934Y0062465D01*
X0058419Y0061223D01*
X0058419Y0059877D01*
X0058934Y0058635D01*
X0059885Y0057684D01*
X0061127Y0057169D01*
X0062070Y0057169D01*
X0064600Y0054639D01*
X0064600Y0039499D01*
X0063267Y0039499D01*
X0062447Y0038679D01*
X0062447Y0032401D01*
X0063048Y0031800D01*
X0062447Y0031199D01*
X0062447Y0024921D01*
X0063267Y0024101D01*
X0064600Y0024101D01*
X0064600Y0023389D01*
X0067100Y0020889D01*
X0068389Y0019600D01*
X0082711Y0019600D01*
X0086451Y0023340D01*
X0087740Y0024629D01*
X0087740Y0027447D01*
X0088679Y0027447D01*
X0089499Y0028267D01*
X0089499Y0035333D01*
X0088679Y0036153D01*
X0087720Y0036153D01*
X0087720Y0037768D01*
X0089600Y0035889D01*
X0089600Y0022711D01*
X0085889Y0019000D01*
X0060211Y0019000D01*
X0056500Y0022711D01*
X0056500Y0024101D01*
X0057833Y0024101D01*
X0058653Y0024921D01*
X0058653Y0031199D01*
X0058052Y0031800D01*
X0058653Y0032401D01*
X0058653Y0038679D01*
X0057833Y0039499D01*
X0056500Y0039499D01*
X0056500Y0040211D01*
X0054000Y0042711D01*
X0052711Y0044000D01*
X0049382Y0044000D01*
X0048715Y0044666D01*
X0047473Y0045181D01*
X0046127Y0045181D01*
X0044885Y0044666D01*
X0043934Y0043715D01*
X0043419Y0042473D01*
X0043419Y0041127D01*
X0043934Y0039885D01*
X0044885Y0038934D01*
X0046127Y0038419D01*
X0047473Y0038419D01*
X0048715Y0038934D01*
X0049382Y0039600D01*
X0050889Y0039600D01*
X0050990Y0039499D01*
X0050767Y0039499D01*
X0049947Y0038679D01*
X0049947Y0032401D01*
X0050548Y0031800D01*
X0049947Y0031199D01*
X0049947Y0030260D01*
X0046153Y0030260D01*
X0046153Y0031179D01*
X0045333Y0031999D01*
X0038267Y0031999D01*
X0037447Y0031179D01*
X0037447Y0024901D01*
X0038048Y0024300D01*
X0037447Y0023699D01*
X0037447Y0017421D01*
X0038267Y0016601D01*
X0039600Y0016601D01*
X0039600Y0014382D01*
X0038934Y0013715D01*
X0038419Y0012473D01*
X0038419Y0011127D01*
X0038934Y0009885D01*
X0039885Y0008934D01*
X0041127Y0008419D01*
X0042473Y0008419D01*
X0043715Y0008934D01*
X0044666Y0009885D01*
X0045181Y0011391D02*
X0169163Y0011391D01*
X0168393Y0012990D02*
X0044967Y0012990D01*
X0044000Y0014588D02*
X0167731Y0014588D01*
X0167575Y0016187D02*
X0089298Y0016187D01*
X0090896Y0017785D02*
X0132083Y0017785D01*
X0131601Y0019384D02*
X0128115Y0019384D01*
X0125560Y0021800D02*
X0135560Y0021800D01*
X0135560Y0031800D01*
X0134300Y0033060D01*
X0134300Y0045973D01*
X0139300Y0045973D02*
X0139300Y0040550D01*
X0143050Y0036800D01*
X0143050Y0031810D01*
X0143040Y0031800D01*
X0149300Y0031800D01*
X0152452Y0030573D02*
X0189000Y0030573D01*
X0189000Y0032172D02*
X0152681Y0032172D01*
X0152111Y0033770D02*
X0189000Y0033770D01*
X0189000Y0035369D02*
X0146963Y0035369D01*
X0145250Y0036967D02*
X0189000Y0036967D01*
X0189000Y0038566D02*
X0144395Y0038566D01*
X0142797Y0040164D02*
X0189000Y0040164D01*
X0189000Y0041763D02*
X0173328Y0041763D01*
X0172842Y0041561D02*
X0174767Y0042359D01*
X0176241Y0043833D01*
X0177039Y0045758D01*
X0177039Y0047842D01*
X0176241Y0049767D01*
X0174767Y0051241D01*
X0173418Y0051800D01*
X0174767Y0052359D01*
X0176241Y0053833D01*
X0177039Y0055758D01*
X0177039Y0057842D01*
X0176241Y0059767D01*
X0174767Y0061241D01*
X0173418Y0061800D01*
X0174767Y0062359D01*
X0176241Y0063833D01*
X0177039Y0065758D01*
X0177039Y0067842D01*
X0176241Y0069767D01*
X0174847Y0071161D01*
X0175876Y0071161D01*
X0176333Y0071284D01*
X0176744Y0071521D01*
X0177079Y0071856D01*
X0177316Y0072267D01*
X0177439Y0072724D01*
X0177439Y0076320D01*
X0172280Y0076320D01*
X0172280Y0077280D01*
X0177439Y0077280D01*
X0177439Y0080876D01*
X0177316Y0081333D01*
X0177079Y0081744D01*
X0176744Y0082079D01*
X0176333Y0082316D01*
X0175876Y0082439D01*
X0172280Y0082439D01*
X0172280Y0077280D01*
X0171320Y0077280D01*
X0171320Y0082439D01*
X0167724Y0082439D01*
X0167267Y0082316D01*
X0166856Y0082079D01*
X0166521Y0081744D01*
X0166284Y0081333D01*
X0166161Y0080876D01*
X0166161Y0077280D01*
X0171320Y0077280D01*
X0171320Y0076320D01*
X0166161Y0076320D01*
X0166161Y0072724D01*
X0166284Y0072267D01*
X0166521Y0071856D01*
X0166856Y0071521D01*
X0167267Y0071284D01*
X0167724Y0071161D01*
X0168753Y0071161D01*
X0167359Y0069767D01*
X0166561Y0067842D01*
X0166561Y0065758D01*
X0167359Y0063833D01*
X0168833Y0062359D01*
X0170182Y0061800D01*
X0168833Y0061241D01*
X0167359Y0059767D01*
X0166561Y0057842D01*
X0166561Y0055758D01*
X0167359Y0053833D01*
X0168833Y0052359D01*
X0170182Y0051800D01*
X0168833Y0051241D01*
X0167359Y0049767D01*
X0166561Y0047842D01*
X0166561Y0045758D01*
X0167359Y0043833D01*
X0168833Y0042359D01*
X0170758Y0041561D01*
X0172842Y0041561D01*
X0170272Y0041763D02*
X0141500Y0041763D01*
X0141881Y0043361D02*
X0167830Y0043361D01*
X0166892Y0044960D02*
X0141881Y0044960D01*
X0141881Y0046558D02*
X0166561Y0046558D01*
X0166692Y0048157D02*
X0141881Y0048157D01*
X0142742Y0049060D02*
X0143152Y0048823D01*
X0143610Y0048701D01*
X0146320Y0048701D01*
X0146320Y0052580D01*
X0142047Y0052580D01*
X0142047Y0050264D01*
X0142170Y0049806D01*
X0142407Y0049396D01*
X0142742Y0049060D01*
X0142199Y0049755D02*
X0141632Y0049755D01*
X0142047Y0051354D02*
X0130357Y0051354D01*
X0131632Y0049755D02*
X0131968Y0049755D01*
X0129300Y0049300D02*
X0126800Y0051800D01*
X0121800Y0051800D01*
X0111800Y0041800D01*
X0106800Y0041800D01*
X0101800Y0041800D01*
X0091800Y0051800D01*
X0084300Y0051800D01*
X0082961Y0050461D01*
X0082961Y0045284D01*
X0082961Y0042961D01*
X0076800Y0036800D01*
X0076800Y0033060D01*
X0078060Y0031800D01*
X0074101Y0032172D02*
X0070923Y0032172D01*
X0071153Y0033770D02*
X0074101Y0033770D01*
X0074137Y0035369D02*
X0071153Y0035369D01*
X0071153Y0036967D02*
X0074600Y0036967D01*
X0075454Y0038566D02*
X0071153Y0038566D01*
X0069000Y0040164D02*
X0077053Y0040164D01*
X0076215Y0041434D02*
X0074973Y0040919D01*
X0073627Y0040919D01*
X0072385Y0041434D01*
X0071434Y0042385D01*
X0070919Y0043627D01*
X0070919Y0044973D01*
X0071434Y0046215D01*
X0072100Y0046882D01*
X0072100Y0049101D01*
X0070767Y0049101D01*
X0069947Y0049921D01*
X0069947Y0056199D01*
X0070272Y0056523D01*
X0070242Y0056541D01*
X0069907Y0056876D01*
X0069670Y0057286D01*
X0069547Y0057744D01*
X0069547Y0060061D01*
X0073820Y0060061D01*
X0073820Y0061020D01*
X0069547Y0061020D01*
X0069547Y0063336D01*
X0069670Y0063794D01*
X0069907Y0064204D01*
X0070242Y0064540D01*
X0070652Y0064777D01*
X0071110Y0064899D01*
X0073820Y0064899D01*
X0073820Y0061020D01*
X0074780Y0061020D01*
X0079053Y0061020D01*
X0079053Y0063336D01*
X0078930Y0063794D01*
X0078693Y0064204D01*
X0078358Y0064540D01*
X0077948Y0064777D01*
X0077490Y0064899D01*
X0074780Y0064899D01*
X0074780Y0061020D01*
X0074780Y0060061D01*
X0079053Y0060061D01*
X0079053Y0057744D01*
X0078930Y0057286D01*
X0078693Y0056876D01*
X0078358Y0056541D01*
X0078328Y0056523D01*
X0078653Y0056199D01*
X0078653Y0049921D01*
X0077833Y0049101D01*
X0076500Y0049101D01*
X0076500Y0046882D01*
X0077166Y0046215D01*
X0077681Y0044973D01*
X0077681Y0043627D01*
X0077166Y0042385D01*
X0076215Y0041434D01*
X0076544Y0041763D02*
X0078652Y0041763D01*
X0077571Y0043361D02*
X0080250Y0043361D01*
X0080761Y0044960D02*
X0077681Y0044960D01*
X0076823Y0046558D02*
X0080761Y0046558D01*
X0080761Y0048157D02*
X0076500Y0048157D01*
X0078487Y0049755D02*
X0080761Y0049755D01*
X0080761Y0051354D02*
X0078653Y0051354D01*
X0078653Y0052952D02*
X0082341Y0052952D01*
X0078653Y0054551D02*
X0097747Y0054551D01*
X0097575Y0054965D02*
X0098979Y0051574D01*
X0101574Y0048979D01*
X0104965Y0047575D01*
X0108635Y0047575D01*
X0112026Y0048979D01*
X0114621Y0051574D01*
X0116025Y0054965D01*
X0116025Y0058635D01*
X0114621Y0062026D01*
X0112026Y0064621D01*
X0108635Y0066025D01*
X0104965Y0066025D01*
X0101574Y0064621D01*
X0098979Y0062026D01*
X0097575Y0058635D01*
X0097575Y0054965D01*
X0097575Y0056149D02*
X0078653Y0056149D01*
X0079053Y0057748D02*
X0097575Y0057748D01*
X0097870Y0059346D02*
X0079053Y0059346D01*
X0079053Y0062543D02*
X0083320Y0062543D01*
X0083320Y0064142D02*
X0078729Y0064142D01*
X0080472Y0065740D02*
X0069000Y0065740D01*
X0068503Y0064142D02*
X0069871Y0064142D01*
X0069547Y0062543D02*
X0066905Y0062543D01*
X0065306Y0060945D02*
X0073820Y0060945D01*
X0074780Y0060945D02*
X0084544Y0060945D01*
X0085520Y0063080D02*
X0085520Y0068316D01*
X0085520Y0073080D01*
X0079300Y0079300D01*
X0079300Y0080540D01*
X0080560Y0081800D01*
X0076601Y0081726D02*
X0070626Y0081726D01*
X0071153Y0083324D02*
X0076601Y0083324D01*
X0076601Y0084923D02*
X0071153Y0084923D01*
X0071153Y0086521D02*
X0085840Y0086521D01*
X0084869Y0088120D02*
X0071153Y0088120D01*
X0069300Y0091800D02*
X0066800Y0089300D01*
X0066800Y0085540D01*
X0062447Y0084923D02*
X0058653Y0084923D01*
X0058653Y0086521D02*
X0062447Y0086521D01*
X0062447Y0088120D02*
X0058653Y0088120D01*
X0056500Y0089718D02*
X0064600Y0089718D01*
X0065705Y0091317D02*
X0056928Y0091317D01*
X0058526Y0092915D02*
X0067304Y0092915D01*
X0069300Y0091800D02*
X0084300Y0091800D01*
X0088040Y0088060D01*
X0088040Y0081800D01*
X0088040Y0068355D01*
X0088080Y0068316D01*
X0090639Y0068316D02*
X0090639Y0073139D01*
X0094300Y0076800D01*
X0094300Y0094300D01*
X0091800Y0096800D01*
X0059300Y0096800D01*
X0054300Y0091800D01*
X0054300Y0085540D01*
X0041820Y0085540D01*
X0041800Y0085560D01*
X0037447Y0084923D02*
X0004600Y0084923D01*
X0004600Y0086521D02*
X0037447Y0086521D01*
X0037447Y0088120D02*
X0004600Y0088120D01*
X0004600Y0089718D02*
X0037630Y0089718D01*
X0037447Y0091317D02*
X0004600Y0091317D01*
X0004600Y0092915D02*
X0037447Y0092915D01*
X0037447Y0094514D02*
X0004600Y0094514D01*
X0004600Y0096112D02*
X0037447Y0096112D01*
X0041800Y0093040D02*
X0049300Y0093050D01*
X0047858Y0096112D02*
X0046153Y0096112D01*
X0050742Y0096112D02*
X0055501Y0096112D01*
X0053902Y0094514D02*
X0052353Y0094514D01*
X0057099Y0097711D02*
X0004600Y0097711D01*
X0004600Y0099309D02*
X0167847Y0099309D01*
X0167575Y0099965D02*
X0168979Y0096574D01*
X0171574Y0093979D01*
X0174965Y0092575D01*
X0178635Y0092575D01*
X0182026Y0093979D01*
X0184621Y0096574D01*
X0186025Y0099965D01*
X0186025Y0103635D01*
X0184621Y0107026D01*
X0182026Y0109621D01*
X0178635Y0111025D01*
X0174965Y0111025D01*
X0171574Y0109621D01*
X0168979Y0107026D01*
X0167575Y0103635D01*
X0167575Y0099965D01*
X0167575Y0100908D02*
X0004600Y0100908D01*
X0004600Y0102506D02*
X0167575Y0102506D01*
X0167770Y0104105D02*
X0004600Y0104105D01*
X0004600Y0105703D02*
X0168432Y0105703D01*
X0169256Y0107302D02*
X0004600Y0107302D01*
X0004600Y0108900D02*
X0170854Y0108900D01*
X0173695Y0110499D02*
X0004600Y0110499D01*
X0004600Y0112097D02*
X0189000Y0112097D01*
X0189000Y0113696D02*
X0004600Y0113696D01*
X0004600Y0083324D02*
X0037447Y0083324D01*
X0038143Y0081726D02*
X0004600Y0081726D01*
X0004600Y0080127D02*
X0049947Y0080127D01*
X0049947Y0078529D02*
X0004600Y0078529D01*
X0004600Y0076930D02*
X0049947Y0076930D01*
X0049947Y0075332D02*
X0004600Y0075332D01*
X0004600Y0073733D02*
X0052100Y0073733D01*
X0052100Y0072134D02*
X0004600Y0072134D01*
X0004600Y0070536D02*
X0052100Y0070536D01*
X0051656Y0068937D02*
X0004600Y0068937D01*
X0004600Y0067339D02*
X0050919Y0067339D01*
X0051079Y0065740D02*
X0004600Y0065740D01*
X0004600Y0064142D02*
X0052176Y0064142D01*
X0054300Y0066800D02*
X0054300Y0078060D01*
X0058653Y0078529D02*
X0062447Y0078529D01*
X0062447Y0080127D02*
X0058653Y0080127D01*
X0058126Y0081726D02*
X0062974Y0081726D01*
X0062447Y0083324D02*
X0058653Y0083324D01*
X0050474Y0081726D02*
X0045457Y0081726D01*
X0046153Y0083324D02*
X0049947Y0083324D01*
X0058653Y0076930D02*
X0062447Y0076930D01*
X0062447Y0075332D02*
X0058653Y0075332D01*
X0056500Y0073733D02*
X0064600Y0073733D01*
X0064600Y0072134D02*
X0056500Y0072134D01*
X0056500Y0070536D02*
X0064600Y0070536D01*
X0064600Y0068937D02*
X0056944Y0068937D01*
X0057681Y0067339D02*
X0064600Y0067339D01*
X0063879Y0065740D02*
X0057521Y0065740D01*
X0056424Y0064142D02*
X0062281Y0064142D01*
X0061800Y0060550D02*
X0066800Y0065550D01*
X0066800Y0078060D01*
X0071153Y0078529D02*
X0076601Y0078529D01*
X0076601Y0080127D02*
X0071153Y0080127D01*
X0071153Y0076930D02*
X0078559Y0076930D01*
X0080157Y0075332D02*
X0071153Y0075332D01*
X0069000Y0073733D02*
X0081756Y0073733D01*
X0081195Y0072134D02*
X0069000Y0072134D01*
X0069000Y0070536D02*
X0080472Y0070536D01*
X0080472Y0068937D02*
X0069000Y0068937D01*
X0069000Y0067339D02*
X0080472Y0067339D01*
X0082961Y0067339D02*
X0082961Y0067339D01*
X0082961Y0068937D02*
X0082961Y0068937D01*
X0082961Y0070536D02*
X0082961Y0070536D01*
X0082961Y0072134D02*
X0082961Y0072134D01*
X0090240Y0076930D02*
X0091319Y0076930D01*
X0091999Y0078529D02*
X0092100Y0078529D01*
X0092100Y0080127D02*
X0091999Y0080127D01*
X0091999Y0081726D02*
X0092100Y0081726D01*
X0092100Y0083324D02*
X0091999Y0083324D01*
X0091999Y0084923D02*
X0092100Y0084923D01*
X0092100Y0086521D02*
X0090240Y0086521D01*
X0090240Y0088120D02*
X0092100Y0088120D01*
X0092100Y0089718D02*
X0089493Y0089718D01*
X0087895Y0091317D02*
X0092100Y0091317D01*
X0092100Y0092915D02*
X0086296Y0092915D01*
X0090975Y0094514D02*
X0060125Y0094514D01*
X0094001Y0097711D02*
X0168509Y0097711D01*
X0169442Y0096112D02*
X0151785Y0096112D01*
X0151704Y0096193D02*
X0151294Y0096430D01*
X0150836Y0096553D01*
X0148520Y0096553D01*
X0148520Y0092280D01*
X0152399Y0092280D01*
X0152399Y0094990D01*
X0152277Y0095448D01*
X0152040Y0095858D01*
X0151704Y0096193D01*
X0148520Y0096112D02*
X0147561Y0096112D01*
X0147561Y0094514D02*
X0148520Y0094514D01*
X0148520Y0092915D02*
X0147561Y0092915D01*
X0147561Y0091317D02*
X0148520Y0091317D01*
X0148520Y0089718D02*
X0147561Y0089718D01*
X0147561Y0088120D02*
X0148520Y0088120D01*
X0152258Y0088120D02*
X0189000Y0088120D01*
X0189000Y0086521D02*
X0142760Y0086521D01*
X0140560Y0081800D02*
X0139300Y0080540D01*
X0139300Y0067627D01*
X0141881Y0067339D02*
X0143435Y0067339D01*
X0143419Y0067377D02*
X0143934Y0066135D01*
X0144600Y0065468D01*
X0144600Y0064499D01*
X0143267Y0064499D01*
X0142447Y0063679D01*
X0142447Y0057401D01*
X0142772Y0057077D01*
X0142742Y0057059D01*
X0142407Y0056724D01*
X0142170Y0056314D01*
X0142047Y0055856D01*
X0142047Y0053539D01*
X0146320Y0053539D01*
X0146320Y0052580D01*
X0147280Y0052580D01*
X0147280Y0053539D01*
X0151553Y0053539D01*
X0151553Y0055856D01*
X0151430Y0056314D01*
X0151193Y0056724D01*
X0150858Y0057059D01*
X0150828Y0057077D01*
X0151153Y0057401D01*
X0151153Y0063679D01*
X0150333Y0064499D01*
X0149000Y0064499D01*
X0149000Y0065468D01*
X0149666Y0066135D01*
X0150181Y0067377D01*
X0150181Y0068723D01*
X0149666Y0069965D01*
X0148715Y0070916D01*
X0147473Y0071431D01*
X0146127Y0071431D01*
X0144885Y0070916D01*
X0143934Y0069965D01*
X0143419Y0068723D01*
X0143419Y0067377D01*
X0143508Y0068937D02*
X0141881Y0068937D01*
X0141881Y0070536D02*
X0144504Y0070536D01*
X0146800Y0068050D02*
X0146800Y0060540D01*
X0151153Y0060945D02*
X0168536Y0060945D01*
X0168648Y0062543D02*
X0151153Y0062543D01*
X0150690Y0064142D02*
X0167231Y0064142D01*
X0166569Y0065740D02*
X0149272Y0065740D01*
X0150165Y0067339D02*
X0166561Y0067339D01*
X0167015Y0068937D02*
X0150092Y0068937D01*
X0149096Y0070536D02*
X0168128Y0070536D01*
X0166360Y0072134D02*
X0141500Y0072134D01*
X0141500Y0073733D02*
X0166161Y0073733D01*
X0166161Y0075332D02*
X0141500Y0075332D01*
X0141500Y0076930D02*
X0171320Y0076930D01*
X0172280Y0076930D02*
X0180322Y0076930D01*
X0180322Y0076800D02*
X0184300Y0076800D01*
X0188278Y0076800D01*
X0188278Y0077192D01*
X0188125Y0077960D01*
X0187825Y0078684D01*
X0187390Y0079336D01*
X0186836Y0079890D01*
X0186184Y0080325D01*
X0185460Y0080625D01*
X0184692Y0080778D01*
X0184300Y0080778D01*
X0184300Y0076800D01*
X0184300Y0076800D01*
X0184300Y0076800D01*
X0188278Y0076800D01*
X0188278Y0076408D01*
X0188125Y0075640D01*
X0187825Y0074916D01*
X0187390Y0074264D01*
X0186836Y0073710D01*
X0186184Y0073275D01*
X0185460Y0072975D01*
X0184692Y0072822D01*
X0184300Y0072822D01*
X0184300Y0076800D01*
X0184300Y0076800D01*
X0184300Y0076800D01*
X0184300Y0080778D01*
X0183908Y0080778D01*
X0183140Y0080625D01*
X0182416Y0080325D01*
X0181764Y0079890D01*
X0181210Y0079336D01*
X0180775Y0078684D01*
X0180475Y0077960D01*
X0180322Y0077192D01*
X0180322Y0076800D01*
X0180322Y0076408D01*
X0180475Y0075640D01*
X0180775Y0074916D01*
X0181210Y0074264D01*
X0181764Y0073710D01*
X0182416Y0073275D01*
X0183140Y0072975D01*
X0183908Y0072822D01*
X0184300Y0072822D01*
X0184300Y0076800D01*
X0180322Y0076800D01*
X0180603Y0075332D02*
X0177439Y0075332D01*
X0177439Y0073733D02*
X0181741Y0073733D01*
X0184300Y0073733D02*
X0184300Y0073733D01*
X0186859Y0073733D02*
X0189000Y0073733D01*
X0189000Y0072134D02*
X0177240Y0072134D01*
X0175472Y0070536D02*
X0189000Y0070536D01*
X0189000Y0068937D02*
X0187222Y0068937D01*
X0187333Y0068827D02*
X0186327Y0069833D01*
X0185012Y0070378D01*
X0183588Y0070378D01*
X0182273Y0069833D01*
X0181267Y0068827D01*
X0180722Y0067512D01*
X0180722Y0066088D01*
X0181267Y0064773D01*
X0182273Y0063767D01*
X0183588Y0063222D01*
X0185012Y0063222D01*
X0186327Y0063767D01*
X0187333Y0064773D01*
X0187878Y0066088D01*
X0187878Y0067512D01*
X0187333Y0068827D01*
X0187878Y0067339D02*
X0189000Y0067339D01*
X0189000Y0065740D02*
X0187734Y0065740D01*
X0186702Y0064142D02*
X0189000Y0064142D01*
X0189000Y0062543D02*
X0174952Y0062543D01*
X0175064Y0060945D02*
X0189000Y0060945D01*
X0189000Y0059346D02*
X0186814Y0059346D01*
X0186327Y0059833D02*
X0185012Y0060378D01*
X0183588Y0060378D01*
X0182273Y0059833D01*
X0181267Y0058827D01*
X0180722Y0057512D01*
X0180722Y0056088D01*
X0181267Y0054773D01*
X0182273Y0053767D01*
X0183588Y0053222D01*
X0185012Y0053222D01*
X0186327Y0053767D01*
X0187333Y0054773D01*
X0187878Y0056088D01*
X0187878Y0057512D01*
X0187333Y0058827D01*
X0186327Y0059833D01*
X0187780Y0057748D02*
X0189000Y0057748D01*
X0189000Y0056149D02*
X0187878Y0056149D01*
X0187111Y0054551D02*
X0189000Y0054551D01*
X0189000Y0052952D02*
X0175361Y0052952D01*
X0176539Y0054551D02*
X0181489Y0054551D01*
X0180722Y0056149D02*
X0177039Y0056149D01*
X0177039Y0057748D02*
X0180820Y0057748D01*
X0181786Y0059346D02*
X0176415Y0059346D01*
X0176369Y0064142D02*
X0181898Y0064142D01*
X0180866Y0065740D02*
X0177031Y0065740D01*
X0177039Y0067339D02*
X0180722Y0067339D01*
X0181377Y0068937D02*
X0176585Y0068937D01*
X0184300Y0075332D02*
X0184300Y0075332D01*
X0184300Y0076930D02*
X0184300Y0076930D01*
X0184300Y0078529D02*
X0184300Y0078529D01*
X0184300Y0080127D02*
X0184300Y0080127D01*
X0182119Y0080127D02*
X0177439Y0080127D01*
X0177439Y0078529D02*
X0180710Y0078529D01*
X0177089Y0081726D02*
X0189000Y0081726D01*
X0189000Y0083324D02*
X0157328Y0083324D01*
X0157681Y0081726D02*
X0166511Y0081726D01*
X0166161Y0080127D02*
X0157267Y0080127D01*
X0155237Y0078529D02*
X0166161Y0078529D01*
X0171320Y0078529D02*
X0172280Y0078529D01*
X0172280Y0080127D02*
X0171320Y0080127D01*
X0171320Y0081726D02*
X0172280Y0081726D01*
X0186481Y0080127D02*
X0189000Y0080127D01*
X0189000Y0078529D02*
X0187890Y0078529D01*
X0188278Y0076930D02*
X0189000Y0076930D01*
X0189000Y0075332D02*
X0187997Y0075332D01*
X0189000Y0084923D02*
X0155597Y0084923D01*
X0153003Y0084923D02*
X0151999Y0084923D01*
X0154300Y0081800D02*
X0148040Y0081800D01*
X0151999Y0078529D02*
X0153363Y0078529D01*
X0140560Y0081800D02*
X0140560Y0091800D01*
X0130560Y0091800D01*
X0129300Y0090540D01*
X0124947Y0091317D02*
X0096500Y0091317D01*
X0096500Y0092915D02*
X0124947Y0092915D01*
X0124947Y0089718D02*
X0096500Y0089718D01*
X0096500Y0088120D02*
X0124947Y0088120D01*
X0125270Y0086521D02*
X0096500Y0086521D01*
X0096500Y0084923D02*
X0111416Y0084923D01*
X0110919Y0083324D02*
X0096500Y0083324D01*
X0096500Y0081726D02*
X0111189Y0081726D01*
X0112521Y0080127D02*
X0096500Y0080127D01*
X0096500Y0078529D02*
X0127100Y0078529D01*
X0127100Y0076930D02*
X0096500Y0076930D01*
X0095943Y0075332D02*
X0127100Y0075332D01*
X0127100Y0073733D02*
X0112978Y0073733D01*
X0114577Y0072134D02*
X0122212Y0072134D01*
X0121319Y0070536D02*
X0116175Y0070536D01*
X0117774Y0068937D02*
X0121319Y0068937D01*
X0121319Y0067339D02*
X0119372Y0067339D01*
X0120971Y0065740D02*
X0121319Y0065740D01*
X0117945Y0062543D02*
X0114103Y0062543D01*
X0115068Y0060945D02*
X0119544Y0060945D01*
X0121800Y0061800D02*
X0111800Y0071800D01*
X0106800Y0071800D01*
X0101800Y0071800D01*
X0091800Y0061800D01*
X0086800Y0061800D01*
X0085520Y0063080D01*
X0082961Y0065740D02*
X0082961Y0065740D01*
X0074780Y0064142D02*
X0073820Y0064142D01*
X0073820Y0062543D02*
X0074780Y0062543D01*
X0069547Y0059346D02*
X0066115Y0059346D01*
X0067713Y0057748D02*
X0069547Y0057748D01*
X0069947Y0056149D02*
X0069000Y0056149D01*
X0069000Y0054551D02*
X0069947Y0054551D01*
X0069947Y0052952D02*
X0069000Y0052952D01*
X0069000Y0051354D02*
X0069947Y0051354D01*
X0070113Y0049755D02*
X0069000Y0049755D01*
X0069000Y0048157D02*
X0072100Y0048157D01*
X0071777Y0046558D02*
X0069000Y0046558D01*
X0069000Y0044960D02*
X0070919Y0044960D01*
X0071029Y0043361D02*
X0069000Y0043361D01*
X0069000Y0041763D02*
X0072056Y0041763D01*
X0074300Y0044300D02*
X0074300Y0053060D01*
X0066800Y0055550D02*
X0066800Y0035540D01*
X0062447Y0035369D02*
X0058653Y0035369D01*
X0058653Y0033770D02*
X0062447Y0033770D01*
X0062677Y0032172D02*
X0058423Y0032172D01*
X0058653Y0030573D02*
X0062447Y0030573D01*
X0062447Y0028975D02*
X0058653Y0028975D01*
X0058653Y0027376D02*
X0062447Y0027376D01*
X0062447Y0025778D02*
X0058653Y0025778D01*
X0057911Y0024179D02*
X0063189Y0024179D01*
X0065408Y0022581D02*
X0056631Y0022581D01*
X0054300Y0021800D02*
X0059300Y0016800D01*
X0086800Y0016800D01*
X0091800Y0021800D01*
X0091800Y0036800D01*
X0088080Y0040520D01*
X0088080Y0045284D01*
X0090639Y0045284D02*
X0090639Y0042961D01*
X0096800Y0036800D01*
X0099867Y0035369D02*
X0122100Y0035369D01*
X0120038Y0033770D02*
X0115361Y0033770D01*
X0113239Y0033770D02*
X0098321Y0033770D01*
X0095279Y0033770D02*
X0094000Y0033770D01*
X0094000Y0032172D02*
X0111312Y0032172D01*
X0110919Y0030573D02*
X0094000Y0030573D01*
X0094000Y0028975D02*
X0111293Y0028975D01*
X0113127Y0027376D02*
X0094000Y0027376D01*
X0094000Y0025778D02*
X0119947Y0025778D01*
X0119972Y0027376D02*
X0115473Y0027376D01*
X0114300Y0030550D02*
X0120540Y0030540D01*
X0124300Y0030540D01*
X0123040Y0031800D01*
X0124300Y0030540D02*
X0124300Y0045973D01*
X0121719Y0046558D02*
X0119670Y0046558D01*
X0121268Y0048157D02*
X0121719Y0048157D01*
X0121719Y0044960D02*
X0118071Y0044960D01*
X0116473Y0043361D02*
X0121719Y0043361D01*
X0122100Y0041763D02*
X0114874Y0041763D01*
X0113276Y0040164D02*
X0122100Y0040164D01*
X0122100Y0038566D02*
X0107827Y0038566D01*
X0105773Y0038566D02*
X0099728Y0038566D01*
X0100181Y0036967D02*
X0122100Y0036967D01*
X0129300Y0045973D02*
X0129300Y0049300D01*
X0128759Y0052952D02*
X0146320Y0052952D01*
X0147280Y0052952D02*
X0168239Y0052952D01*
X0167061Y0054551D02*
X0151553Y0054551D01*
X0151474Y0056149D02*
X0166561Y0056149D01*
X0166561Y0057748D02*
X0151153Y0057748D01*
X0151153Y0059346D02*
X0167185Y0059346D01*
X0169105Y0051354D02*
X0151553Y0051354D01*
X0151553Y0050264D02*
X0151553Y0052580D01*
X0147280Y0052580D01*
X0147280Y0048701D01*
X0149990Y0048701D01*
X0150448Y0048823D01*
X0150858Y0049060D01*
X0151193Y0049396D01*
X0151430Y0049806D01*
X0151553Y0050264D01*
X0151401Y0049755D02*
X0167354Y0049755D01*
X0174495Y0051354D02*
X0189000Y0051354D01*
X0189000Y0049755D02*
X0186405Y0049755D01*
X0186327Y0049833D02*
X0185012Y0050378D01*
X0183588Y0050378D01*
X0182273Y0049833D01*
X0181267Y0048827D01*
X0180722Y0047512D01*
X0180722Y0046088D01*
X0181267Y0044773D01*
X0182273Y0043767D01*
X0183588Y0043222D01*
X0185012Y0043222D01*
X0186327Y0043767D01*
X0187333Y0044773D01*
X0187878Y0046088D01*
X0187878Y0047512D01*
X0187333Y0048827D01*
X0186327Y0049833D01*
X0187611Y0048157D02*
X0189000Y0048157D01*
X0189000Y0046558D02*
X0187878Y0046558D01*
X0187410Y0044960D02*
X0189000Y0044960D01*
X0189000Y0043361D02*
X0185348Y0043361D01*
X0183252Y0043361D02*
X0175770Y0043361D01*
X0176708Y0044960D02*
X0181189Y0044960D01*
X0180722Y0046558D02*
X0177039Y0046558D01*
X0176908Y0048157D02*
X0180989Y0048157D01*
X0182195Y0049755D02*
X0176246Y0049755D01*
X0147280Y0049755D02*
X0146320Y0049755D01*
X0146320Y0051354D02*
X0147280Y0051354D01*
X0142047Y0054551D02*
X0115853Y0054551D01*
X0116025Y0056149D02*
X0142126Y0056149D01*
X0142447Y0057748D02*
X0116025Y0057748D01*
X0115730Y0059346D02*
X0142447Y0059346D01*
X0142447Y0060945D02*
X0134056Y0060945D01*
X0135655Y0062543D02*
X0142447Y0062543D01*
X0142910Y0064142D02*
X0141881Y0064142D01*
X0141881Y0065740D02*
X0144328Y0065740D01*
X0134300Y0064300D02*
X0131800Y0061800D01*
X0121800Y0061800D01*
X0116347Y0064142D02*
X0112504Y0064142D01*
X0114748Y0065740D02*
X0109322Y0065740D01*
X0113150Y0067339D02*
X0100450Y0067339D01*
X0102049Y0068937D02*
X0104881Y0068937D01*
X0108719Y0068937D02*
X0111551Y0068937D01*
X0104278Y0065740D02*
X0098852Y0065740D01*
X0097253Y0064142D02*
X0101096Y0064142D01*
X0099497Y0062543D02*
X0095655Y0062543D01*
X0094056Y0060945D02*
X0098532Y0060945D01*
X0094228Y0067339D02*
X0092773Y0067339D01*
X0092839Y0068937D02*
X0095826Y0068937D01*
X0097425Y0070536D02*
X0092839Y0070536D01*
X0092839Y0072134D02*
X0099023Y0072134D01*
X0100622Y0073733D02*
X0094344Y0073733D01*
X0114300Y0083050D02*
X0118040Y0083060D01*
X0129300Y0083060D01*
X0129300Y0067627D01*
X0124300Y0068937D02*
X0124300Y0068937D01*
X0124300Y0070536D02*
X0124300Y0070536D01*
X0124300Y0072134D02*
X0124300Y0072134D01*
X0126388Y0072134D02*
X0127100Y0072134D01*
X0134300Y0067627D02*
X0134300Y0064300D01*
X0119841Y0052952D02*
X0115191Y0052952D01*
X0114400Y0051354D02*
X0118243Y0051354D01*
X0116644Y0049755D02*
X0112801Y0049755D01*
X0115046Y0048157D02*
X0110040Y0048157D01*
X0113447Y0046558D02*
X0100153Y0046558D01*
X0101751Y0044960D02*
X0105593Y0044960D01*
X0108007Y0044960D02*
X0111849Y0044960D01*
X0103560Y0048157D02*
X0098554Y0048157D01*
X0096956Y0049755D02*
X0100799Y0049755D01*
X0099200Y0051354D02*
X0095357Y0051354D01*
X0093759Y0052952D02*
X0098409Y0052952D01*
X0093930Y0046558D02*
X0092728Y0046558D01*
X0092839Y0044960D02*
X0095529Y0044960D01*
X0097127Y0043361D02*
X0093350Y0043361D01*
X0094948Y0041763D02*
X0098726Y0041763D01*
X0097513Y0040164D02*
X0100324Y0040164D01*
X0089600Y0035369D02*
X0089463Y0035369D01*
X0089499Y0033770D02*
X0089600Y0033770D01*
X0089600Y0032172D02*
X0089499Y0032172D01*
X0089499Y0030573D02*
X0089600Y0030573D01*
X0089600Y0028975D02*
X0089499Y0028975D01*
X0089600Y0027376D02*
X0087740Y0027376D01*
X0087740Y0025778D02*
X0089600Y0025778D01*
X0089600Y0024179D02*
X0087290Y0024179D01*
X0085540Y0025540D02*
X0085540Y0031800D01*
X0085520Y0031820D01*
X0085520Y0045284D01*
X0087720Y0036967D02*
X0088521Y0036967D01*
X0074101Y0030573D02*
X0071153Y0030573D01*
X0071153Y0028975D02*
X0074101Y0028975D01*
X0071153Y0027376D02*
X0083340Y0027376D01*
X0082666Y0025778D02*
X0071153Y0025778D01*
X0070411Y0024179D02*
X0081068Y0024179D01*
X0081800Y0021800D02*
X0085540Y0025540D01*
X0085692Y0022581D02*
X0089469Y0022581D01*
X0087871Y0020982D02*
X0084093Y0020982D01*
X0086272Y0019384D02*
X0059828Y0019384D01*
X0058229Y0020982D02*
X0067007Y0020982D01*
X0069300Y0021800D02*
X0081800Y0021800D01*
X0092495Y0019384D02*
X0120484Y0019384D01*
X0119947Y0020982D02*
X0094000Y0020982D01*
X0094000Y0022581D02*
X0119947Y0022581D01*
X0119947Y0024179D02*
X0094000Y0024179D01*
X0069300Y0021800D02*
X0066800Y0024300D01*
X0066800Y0028060D01*
X0054300Y0028060D02*
X0054300Y0021800D01*
X0052100Y0022581D02*
X0046153Y0022581D01*
X0045672Y0024179D02*
X0050689Y0024179D01*
X0049947Y0025778D02*
X0046153Y0025778D01*
X0041820Y0028060D02*
X0054300Y0028060D01*
X0049947Y0030573D02*
X0046153Y0030573D01*
X0050177Y0032172D02*
X0004600Y0032172D01*
X0004600Y0033770D02*
X0049947Y0033770D01*
X0049947Y0035369D02*
X0004600Y0035369D01*
X0004600Y0036967D02*
X0049947Y0036967D01*
X0049947Y0038566D02*
X0047827Y0038566D01*
X0045773Y0038566D02*
X0004600Y0038566D01*
X0004600Y0040164D02*
X0043818Y0040164D01*
X0043419Y0041763D02*
X0004600Y0041763D01*
X0004600Y0043361D02*
X0043787Y0043361D01*
X0045593Y0044960D02*
X0004600Y0044960D01*
X0004600Y0046558D02*
X0064600Y0046558D01*
X0064600Y0044960D02*
X0048007Y0044960D01*
X0053350Y0043361D02*
X0064600Y0043361D01*
X0064600Y0041763D02*
X0054948Y0041763D01*
X0056500Y0040164D02*
X0064600Y0040164D01*
X0062447Y0038566D02*
X0058653Y0038566D01*
X0058653Y0036967D02*
X0062447Y0036967D01*
X0054300Y0035540D02*
X0054300Y0039300D01*
X0051800Y0041800D01*
X0046800Y0041800D01*
X0037447Y0030573D02*
X0004600Y0030573D01*
X0004600Y0028975D02*
X0037447Y0028975D01*
X0037447Y0027376D02*
X0004600Y0027376D01*
X0004600Y0025778D02*
X0037447Y0025778D01*
X0037928Y0024179D02*
X0004600Y0024179D01*
X0004600Y0022581D02*
X0037447Y0022581D01*
X0037447Y0020982D02*
X0004600Y0020982D01*
X0004600Y0019384D02*
X0037447Y0019384D01*
X0037447Y0017785D02*
X0004600Y0017785D01*
X0004600Y0016187D02*
X0039600Y0016187D01*
X0039600Y0014588D02*
X0004600Y0014588D01*
X0004600Y0012990D02*
X0038633Y0012990D01*
X0038419Y0011391D02*
X0004600Y0011391D01*
X0004600Y0009793D02*
X0039026Y0009793D01*
X0041800Y0011800D02*
X0041800Y0020560D01*
X0046153Y0020982D02*
X0052100Y0020982D01*
X0053605Y0019384D02*
X0046153Y0019384D01*
X0046153Y0017785D02*
X0055204Y0017785D01*
X0056802Y0016187D02*
X0044000Y0016187D01*
X0041800Y0028040D02*
X0041820Y0028060D01*
X0064600Y0048157D02*
X0004600Y0048157D01*
X0004600Y0049755D02*
X0064600Y0049755D01*
X0064600Y0051354D02*
X0004600Y0051354D01*
X0004600Y0052952D02*
X0064600Y0052952D01*
X0064600Y0054551D02*
X0004600Y0054551D01*
X0004600Y0056149D02*
X0063089Y0056149D01*
X0059820Y0057748D02*
X0004600Y0057748D01*
X0004600Y0059346D02*
X0058639Y0059346D01*
X0058419Y0060945D02*
X0004600Y0060945D01*
X0004600Y0062543D02*
X0059012Y0062543D01*
X0061800Y0060550D02*
X0066800Y0055550D01*
X0116079Y0080127D02*
X0124947Y0080127D01*
X0136601Y0094514D02*
X0096500Y0094514D01*
X0095599Y0096112D02*
X0137380Y0096112D01*
X0143739Y0096112D02*
X0144295Y0096112D01*
X0152399Y0094514D02*
X0171040Y0094514D01*
X0174144Y0092915D02*
X0152399Y0092915D01*
X0152399Y0091317D02*
X0189000Y0091317D01*
X0189000Y0092915D02*
X0179456Y0092915D01*
X0182560Y0094514D02*
X0189000Y0094514D01*
X0189000Y0096112D02*
X0184158Y0096112D01*
X0185091Y0097711D02*
X0189000Y0097711D01*
X0189000Y0099309D02*
X0185753Y0099309D01*
X0186025Y0100908D02*
X0189000Y0100908D01*
X0189000Y0102506D02*
X0186025Y0102506D01*
X0185830Y0104105D02*
X0189000Y0104105D01*
X0189000Y0105703D02*
X0185168Y0105703D01*
X0184344Y0107302D02*
X0189000Y0107302D01*
X0189000Y0108900D02*
X0182746Y0108900D01*
X0179905Y0110499D02*
X0189000Y0110499D01*
X0189000Y0089718D02*
X0152399Y0089718D01*
X0136968Y0049755D02*
X0136632Y0049755D01*
X0146999Y0028975D02*
X0147344Y0028975D01*
X0146294Y0026430D02*
X0145836Y0026553D01*
X0143520Y0026553D01*
X0143520Y0022280D01*
X0147399Y0022280D01*
X0147399Y0024990D01*
X0147277Y0025448D01*
X0147040Y0025858D01*
X0146704Y0026193D01*
X0146294Y0026430D01*
X0147086Y0025778D02*
X0174368Y0025778D01*
X0171133Y0024179D02*
X0147399Y0024179D01*
X0147399Y0022581D02*
X0169535Y0022581D01*
X0168547Y0020982D02*
X0147399Y0020982D01*
X0147399Y0019384D02*
X0167885Y0019384D01*
X0167575Y0017785D02*
X0147064Y0017785D01*
X0143520Y0017785D02*
X0142561Y0017785D01*
X0142561Y0019384D02*
X0143520Y0019384D01*
X0143520Y0020982D02*
X0142561Y0020982D01*
X0142561Y0022581D02*
X0143520Y0022581D01*
X0143520Y0024179D02*
X0142561Y0024179D01*
X0142561Y0025778D02*
X0143520Y0025778D01*
X0137760Y0027376D02*
X0189000Y0027376D01*
X0189000Y0025778D02*
X0179232Y0025778D01*
X0182467Y0024179D02*
X0189000Y0024179D01*
X0189000Y0022581D02*
X0184065Y0022581D01*
X0185053Y0020982D02*
X0189000Y0020982D01*
X0189000Y0019384D02*
X0185715Y0019384D01*
X0186025Y0017785D02*
X0189000Y0017785D01*
X0189000Y0016187D02*
X0186025Y0016187D01*
X0185869Y0014588D02*
X0189000Y0014588D01*
X0189000Y0012990D02*
X0185207Y0012990D01*
X0184437Y0011391D02*
X0189000Y0011391D01*
X0189000Y0009793D02*
X0182839Y0009793D01*
X0180129Y0008194D02*
X0189000Y0008194D01*
X0189000Y0028975D02*
X0151256Y0028975D01*
X0125560Y0021800D02*
X0124300Y0023060D01*
M02*
