G75*
%MOIN*%
%OFA0B0*%
%FSLAX25Y25*%
%IPPOS*%
%LPD*%
%AMOC8*
5,1,8,0,0,1.08239X$1,22.5*
%
%ADD10C,0.13450*%
%ADD11R,0.06506X0.05718*%
%ADD12R,0.05718X0.06506*%
%ADD13R,0.01978X0.05324*%
%ADD14R,0.02962X0.06506*%
%ADD15R,0.08277X0.08277*%
%ADD16C,0.08277*%
%ADD17C,0.04956*%
%ADD18C,0.04562*%
D10*
X0106800Y0056800D03*
X0176800Y0016800D03*
X0176800Y0101800D03*
D11*
X0129300Y0090540D03*
X0129300Y0083060D03*
X0146800Y0060540D03*
X0146800Y0053060D03*
X0124300Y0030540D03*
X0124300Y0023060D03*
X0074300Y0053060D03*
X0074300Y0060540D03*
X0066800Y0078060D03*
X0066800Y0085540D03*
X0054300Y0085540D03*
X0054300Y0078060D03*
X0041800Y0085560D03*
X0041800Y0093040D03*
X0054300Y0035540D03*
X0054300Y0028060D03*
X0066800Y0028060D03*
X0066800Y0035540D03*
X0041800Y0028040D03*
X0041800Y0020560D03*
D12*
X0078060Y0031800D03*
X0085540Y0031800D03*
X0135560Y0031800D03*
X0143040Y0031800D03*
X0143040Y0021800D03*
X0135560Y0021800D03*
X0140560Y0081800D03*
X0148040Y0081800D03*
X0148040Y0091800D03*
X0140560Y0091800D03*
X0088040Y0081800D03*
X0080560Y0081800D03*
D13*
X0082961Y0068316D03*
X0085520Y0068316D03*
X0088080Y0068316D03*
X0090639Y0068316D03*
X0090639Y0045284D03*
X0088080Y0045284D03*
X0085520Y0045284D03*
X0082961Y0045284D03*
D14*
X0124300Y0045973D03*
X0129300Y0045973D03*
X0134300Y0045973D03*
X0139300Y0045973D03*
X0139300Y0067627D03*
X0134300Y0067627D03*
X0129300Y0067627D03*
X0124300Y0067627D03*
D15*
X0171800Y0076800D03*
D16*
X0171800Y0066800D03*
X0171800Y0056800D03*
X0171800Y0046800D03*
D17*
X0184300Y0046800D03*
X0184300Y0056800D03*
X0184300Y0066800D03*
X0184300Y0076800D03*
D18*
X0041800Y0011800D03*
X0049300Y0019300D03*
X0046800Y0034300D03*
X0046800Y0041800D03*
X0046800Y0054300D03*
X0061800Y0060550D03*
X0054300Y0066800D03*
X0046800Y0066800D03*
X0041800Y0076800D03*
X0049300Y0093050D03*
X0046800Y0099300D03*
X0106800Y0071800D03*
X0114300Y0083050D03*
X0146800Y0068050D03*
X0154300Y0081800D03*
X0106800Y0041800D03*
X0096800Y0036800D03*
X0114300Y0030550D03*
X0149300Y0031800D03*
X0074300Y0044300D03*
M02*
