G75*
%MOIN*%
%OFA0B0*%
%FSLAX25Y25*%
%IPPOS*%
%LPD*%
%AMOC8*
5,1,8,0,0,1.08239X$1,22.5*
%
%ADD10C,0.00000*%
D10*
X0019102Y0001800D02*
X0019102Y0116800D01*
X0209102Y0116800D01*
X0209102Y0001800D01*
X0019102Y0001800D01*
X0117677Y0056800D02*
X0117679Y0056960D01*
X0117685Y0057120D01*
X0117695Y0057280D01*
X0117709Y0057440D01*
X0117727Y0057599D01*
X0117749Y0057758D01*
X0117775Y0057916D01*
X0117804Y0058073D01*
X0117838Y0058230D01*
X0117876Y0058385D01*
X0117917Y0058540D01*
X0117962Y0058694D01*
X0118012Y0058846D01*
X0118064Y0058997D01*
X0118121Y0059147D01*
X0118182Y0059296D01*
X0118246Y0059443D01*
X0118313Y0059588D01*
X0118385Y0059731D01*
X0118459Y0059873D01*
X0118538Y0060013D01*
X0118620Y0060150D01*
X0118705Y0060286D01*
X0118793Y0060419D01*
X0118885Y0060551D01*
X0118980Y0060679D01*
X0119079Y0060806D01*
X0119180Y0060930D01*
X0119285Y0061051D01*
X0119392Y0061170D01*
X0119503Y0061286D01*
X0119616Y0061399D01*
X0119732Y0061510D01*
X0119851Y0061617D01*
X0119972Y0061722D01*
X0120096Y0061823D01*
X0120223Y0061922D01*
X0120351Y0062017D01*
X0120483Y0062109D01*
X0120616Y0062197D01*
X0120752Y0062282D01*
X0120890Y0062364D01*
X0121029Y0062443D01*
X0121171Y0062517D01*
X0121314Y0062589D01*
X0121459Y0062656D01*
X0121606Y0062720D01*
X0121755Y0062781D01*
X0121905Y0062838D01*
X0122056Y0062890D01*
X0122208Y0062940D01*
X0122362Y0062985D01*
X0122517Y0063026D01*
X0122672Y0063064D01*
X0122829Y0063098D01*
X0122986Y0063127D01*
X0123144Y0063153D01*
X0123303Y0063175D01*
X0123462Y0063193D01*
X0123622Y0063207D01*
X0123782Y0063217D01*
X0123942Y0063223D01*
X0124102Y0063225D01*
X0124262Y0063223D01*
X0124422Y0063217D01*
X0124582Y0063207D01*
X0124742Y0063193D01*
X0124901Y0063175D01*
X0125060Y0063153D01*
X0125218Y0063127D01*
X0125375Y0063098D01*
X0125532Y0063064D01*
X0125687Y0063026D01*
X0125842Y0062985D01*
X0125996Y0062940D01*
X0126148Y0062890D01*
X0126299Y0062838D01*
X0126449Y0062781D01*
X0126598Y0062720D01*
X0126745Y0062656D01*
X0126890Y0062589D01*
X0127033Y0062517D01*
X0127175Y0062443D01*
X0127315Y0062364D01*
X0127452Y0062282D01*
X0127588Y0062197D01*
X0127721Y0062109D01*
X0127853Y0062017D01*
X0127981Y0061922D01*
X0128108Y0061823D01*
X0128232Y0061722D01*
X0128353Y0061617D01*
X0128472Y0061510D01*
X0128588Y0061399D01*
X0128701Y0061286D01*
X0128812Y0061170D01*
X0128919Y0061051D01*
X0129024Y0060930D01*
X0129125Y0060806D01*
X0129224Y0060679D01*
X0129319Y0060551D01*
X0129411Y0060419D01*
X0129499Y0060286D01*
X0129584Y0060150D01*
X0129666Y0060012D01*
X0129745Y0059873D01*
X0129819Y0059731D01*
X0129891Y0059588D01*
X0129958Y0059443D01*
X0130022Y0059296D01*
X0130083Y0059147D01*
X0130140Y0058997D01*
X0130192Y0058846D01*
X0130242Y0058694D01*
X0130287Y0058540D01*
X0130328Y0058385D01*
X0130366Y0058230D01*
X0130400Y0058073D01*
X0130429Y0057916D01*
X0130455Y0057758D01*
X0130477Y0057599D01*
X0130495Y0057440D01*
X0130509Y0057280D01*
X0130519Y0057120D01*
X0130525Y0056960D01*
X0130527Y0056800D01*
X0130525Y0056640D01*
X0130519Y0056480D01*
X0130509Y0056320D01*
X0130495Y0056160D01*
X0130477Y0056001D01*
X0130455Y0055842D01*
X0130429Y0055684D01*
X0130400Y0055527D01*
X0130366Y0055370D01*
X0130328Y0055215D01*
X0130287Y0055060D01*
X0130242Y0054906D01*
X0130192Y0054754D01*
X0130140Y0054603D01*
X0130083Y0054453D01*
X0130022Y0054304D01*
X0129958Y0054157D01*
X0129891Y0054012D01*
X0129819Y0053869D01*
X0129745Y0053727D01*
X0129666Y0053587D01*
X0129584Y0053450D01*
X0129499Y0053314D01*
X0129411Y0053181D01*
X0129319Y0053049D01*
X0129224Y0052921D01*
X0129125Y0052794D01*
X0129024Y0052670D01*
X0128919Y0052549D01*
X0128812Y0052430D01*
X0128701Y0052314D01*
X0128588Y0052201D01*
X0128472Y0052090D01*
X0128353Y0051983D01*
X0128232Y0051878D01*
X0128108Y0051777D01*
X0127981Y0051678D01*
X0127853Y0051583D01*
X0127721Y0051491D01*
X0127588Y0051403D01*
X0127452Y0051318D01*
X0127314Y0051236D01*
X0127175Y0051157D01*
X0127033Y0051083D01*
X0126890Y0051011D01*
X0126745Y0050944D01*
X0126598Y0050880D01*
X0126449Y0050819D01*
X0126299Y0050762D01*
X0126148Y0050710D01*
X0125996Y0050660D01*
X0125842Y0050615D01*
X0125687Y0050574D01*
X0125532Y0050536D01*
X0125375Y0050502D01*
X0125218Y0050473D01*
X0125060Y0050447D01*
X0124901Y0050425D01*
X0124742Y0050407D01*
X0124582Y0050393D01*
X0124422Y0050383D01*
X0124262Y0050377D01*
X0124102Y0050375D01*
X0123942Y0050377D01*
X0123782Y0050383D01*
X0123622Y0050393D01*
X0123462Y0050407D01*
X0123303Y0050425D01*
X0123144Y0050447D01*
X0122986Y0050473D01*
X0122829Y0050502D01*
X0122672Y0050536D01*
X0122517Y0050574D01*
X0122362Y0050615D01*
X0122208Y0050660D01*
X0122056Y0050710D01*
X0121905Y0050762D01*
X0121755Y0050819D01*
X0121606Y0050880D01*
X0121459Y0050944D01*
X0121314Y0051011D01*
X0121171Y0051083D01*
X0121029Y0051157D01*
X0120889Y0051236D01*
X0120752Y0051318D01*
X0120616Y0051403D01*
X0120483Y0051491D01*
X0120351Y0051583D01*
X0120223Y0051678D01*
X0120096Y0051777D01*
X0119972Y0051878D01*
X0119851Y0051983D01*
X0119732Y0052090D01*
X0119616Y0052201D01*
X0119503Y0052314D01*
X0119392Y0052430D01*
X0119285Y0052549D01*
X0119180Y0052670D01*
X0119079Y0052794D01*
X0118980Y0052921D01*
X0118885Y0053049D01*
X0118793Y0053181D01*
X0118705Y0053314D01*
X0118620Y0053450D01*
X0118538Y0053588D01*
X0118459Y0053727D01*
X0118385Y0053869D01*
X0118313Y0054012D01*
X0118246Y0054157D01*
X0118182Y0054304D01*
X0118121Y0054453D01*
X0118064Y0054603D01*
X0118012Y0054754D01*
X0117962Y0054906D01*
X0117917Y0055060D01*
X0117876Y0055215D01*
X0117838Y0055370D01*
X0117804Y0055527D01*
X0117775Y0055684D01*
X0117749Y0055842D01*
X0117727Y0056001D01*
X0117709Y0056160D01*
X0117695Y0056320D01*
X0117685Y0056480D01*
X0117679Y0056640D01*
X0117677Y0056800D01*
X0187677Y0016800D02*
X0187679Y0016960D01*
X0187685Y0017120D01*
X0187695Y0017280D01*
X0187709Y0017440D01*
X0187727Y0017599D01*
X0187749Y0017758D01*
X0187775Y0017916D01*
X0187804Y0018073D01*
X0187838Y0018230D01*
X0187876Y0018385D01*
X0187917Y0018540D01*
X0187962Y0018694D01*
X0188012Y0018846D01*
X0188064Y0018997D01*
X0188121Y0019147D01*
X0188182Y0019296D01*
X0188246Y0019443D01*
X0188313Y0019588D01*
X0188385Y0019731D01*
X0188459Y0019873D01*
X0188538Y0020013D01*
X0188620Y0020150D01*
X0188705Y0020286D01*
X0188793Y0020419D01*
X0188885Y0020551D01*
X0188980Y0020679D01*
X0189079Y0020806D01*
X0189180Y0020930D01*
X0189285Y0021051D01*
X0189392Y0021170D01*
X0189503Y0021286D01*
X0189616Y0021399D01*
X0189732Y0021510D01*
X0189851Y0021617D01*
X0189972Y0021722D01*
X0190096Y0021823D01*
X0190223Y0021922D01*
X0190351Y0022017D01*
X0190483Y0022109D01*
X0190616Y0022197D01*
X0190752Y0022282D01*
X0190890Y0022364D01*
X0191029Y0022443D01*
X0191171Y0022517D01*
X0191314Y0022589D01*
X0191459Y0022656D01*
X0191606Y0022720D01*
X0191755Y0022781D01*
X0191905Y0022838D01*
X0192056Y0022890D01*
X0192208Y0022940D01*
X0192362Y0022985D01*
X0192517Y0023026D01*
X0192672Y0023064D01*
X0192829Y0023098D01*
X0192986Y0023127D01*
X0193144Y0023153D01*
X0193303Y0023175D01*
X0193462Y0023193D01*
X0193622Y0023207D01*
X0193782Y0023217D01*
X0193942Y0023223D01*
X0194102Y0023225D01*
X0194262Y0023223D01*
X0194422Y0023217D01*
X0194582Y0023207D01*
X0194742Y0023193D01*
X0194901Y0023175D01*
X0195060Y0023153D01*
X0195218Y0023127D01*
X0195375Y0023098D01*
X0195532Y0023064D01*
X0195687Y0023026D01*
X0195842Y0022985D01*
X0195996Y0022940D01*
X0196148Y0022890D01*
X0196299Y0022838D01*
X0196449Y0022781D01*
X0196598Y0022720D01*
X0196745Y0022656D01*
X0196890Y0022589D01*
X0197033Y0022517D01*
X0197175Y0022443D01*
X0197315Y0022364D01*
X0197452Y0022282D01*
X0197588Y0022197D01*
X0197721Y0022109D01*
X0197853Y0022017D01*
X0197981Y0021922D01*
X0198108Y0021823D01*
X0198232Y0021722D01*
X0198353Y0021617D01*
X0198472Y0021510D01*
X0198588Y0021399D01*
X0198701Y0021286D01*
X0198812Y0021170D01*
X0198919Y0021051D01*
X0199024Y0020930D01*
X0199125Y0020806D01*
X0199224Y0020679D01*
X0199319Y0020551D01*
X0199411Y0020419D01*
X0199499Y0020286D01*
X0199584Y0020150D01*
X0199666Y0020012D01*
X0199745Y0019873D01*
X0199819Y0019731D01*
X0199891Y0019588D01*
X0199958Y0019443D01*
X0200022Y0019296D01*
X0200083Y0019147D01*
X0200140Y0018997D01*
X0200192Y0018846D01*
X0200242Y0018694D01*
X0200287Y0018540D01*
X0200328Y0018385D01*
X0200366Y0018230D01*
X0200400Y0018073D01*
X0200429Y0017916D01*
X0200455Y0017758D01*
X0200477Y0017599D01*
X0200495Y0017440D01*
X0200509Y0017280D01*
X0200519Y0017120D01*
X0200525Y0016960D01*
X0200527Y0016800D01*
X0200525Y0016640D01*
X0200519Y0016480D01*
X0200509Y0016320D01*
X0200495Y0016160D01*
X0200477Y0016001D01*
X0200455Y0015842D01*
X0200429Y0015684D01*
X0200400Y0015527D01*
X0200366Y0015370D01*
X0200328Y0015215D01*
X0200287Y0015060D01*
X0200242Y0014906D01*
X0200192Y0014754D01*
X0200140Y0014603D01*
X0200083Y0014453D01*
X0200022Y0014304D01*
X0199958Y0014157D01*
X0199891Y0014012D01*
X0199819Y0013869D01*
X0199745Y0013727D01*
X0199666Y0013587D01*
X0199584Y0013450D01*
X0199499Y0013314D01*
X0199411Y0013181D01*
X0199319Y0013049D01*
X0199224Y0012921D01*
X0199125Y0012794D01*
X0199024Y0012670D01*
X0198919Y0012549D01*
X0198812Y0012430D01*
X0198701Y0012314D01*
X0198588Y0012201D01*
X0198472Y0012090D01*
X0198353Y0011983D01*
X0198232Y0011878D01*
X0198108Y0011777D01*
X0197981Y0011678D01*
X0197853Y0011583D01*
X0197721Y0011491D01*
X0197588Y0011403D01*
X0197452Y0011318D01*
X0197314Y0011236D01*
X0197175Y0011157D01*
X0197033Y0011083D01*
X0196890Y0011011D01*
X0196745Y0010944D01*
X0196598Y0010880D01*
X0196449Y0010819D01*
X0196299Y0010762D01*
X0196148Y0010710D01*
X0195996Y0010660D01*
X0195842Y0010615D01*
X0195687Y0010574D01*
X0195532Y0010536D01*
X0195375Y0010502D01*
X0195218Y0010473D01*
X0195060Y0010447D01*
X0194901Y0010425D01*
X0194742Y0010407D01*
X0194582Y0010393D01*
X0194422Y0010383D01*
X0194262Y0010377D01*
X0194102Y0010375D01*
X0193942Y0010377D01*
X0193782Y0010383D01*
X0193622Y0010393D01*
X0193462Y0010407D01*
X0193303Y0010425D01*
X0193144Y0010447D01*
X0192986Y0010473D01*
X0192829Y0010502D01*
X0192672Y0010536D01*
X0192517Y0010574D01*
X0192362Y0010615D01*
X0192208Y0010660D01*
X0192056Y0010710D01*
X0191905Y0010762D01*
X0191755Y0010819D01*
X0191606Y0010880D01*
X0191459Y0010944D01*
X0191314Y0011011D01*
X0191171Y0011083D01*
X0191029Y0011157D01*
X0190889Y0011236D01*
X0190752Y0011318D01*
X0190616Y0011403D01*
X0190483Y0011491D01*
X0190351Y0011583D01*
X0190223Y0011678D01*
X0190096Y0011777D01*
X0189972Y0011878D01*
X0189851Y0011983D01*
X0189732Y0012090D01*
X0189616Y0012201D01*
X0189503Y0012314D01*
X0189392Y0012430D01*
X0189285Y0012549D01*
X0189180Y0012670D01*
X0189079Y0012794D01*
X0188980Y0012921D01*
X0188885Y0013049D01*
X0188793Y0013181D01*
X0188705Y0013314D01*
X0188620Y0013450D01*
X0188538Y0013588D01*
X0188459Y0013727D01*
X0188385Y0013869D01*
X0188313Y0014012D01*
X0188246Y0014157D01*
X0188182Y0014304D01*
X0188121Y0014453D01*
X0188064Y0014603D01*
X0188012Y0014754D01*
X0187962Y0014906D01*
X0187917Y0015060D01*
X0187876Y0015215D01*
X0187838Y0015370D01*
X0187804Y0015527D01*
X0187775Y0015684D01*
X0187749Y0015842D01*
X0187727Y0016001D01*
X0187709Y0016160D01*
X0187695Y0016320D01*
X0187685Y0016480D01*
X0187679Y0016640D01*
X0187677Y0016800D01*
X0187677Y0101800D02*
X0187679Y0101960D01*
X0187685Y0102120D01*
X0187695Y0102280D01*
X0187709Y0102440D01*
X0187727Y0102599D01*
X0187749Y0102758D01*
X0187775Y0102916D01*
X0187804Y0103073D01*
X0187838Y0103230D01*
X0187876Y0103385D01*
X0187917Y0103540D01*
X0187962Y0103694D01*
X0188012Y0103846D01*
X0188064Y0103997D01*
X0188121Y0104147D01*
X0188182Y0104296D01*
X0188246Y0104443D01*
X0188313Y0104588D01*
X0188385Y0104731D01*
X0188459Y0104873D01*
X0188538Y0105013D01*
X0188620Y0105150D01*
X0188705Y0105286D01*
X0188793Y0105419D01*
X0188885Y0105551D01*
X0188980Y0105679D01*
X0189079Y0105806D01*
X0189180Y0105930D01*
X0189285Y0106051D01*
X0189392Y0106170D01*
X0189503Y0106286D01*
X0189616Y0106399D01*
X0189732Y0106510D01*
X0189851Y0106617D01*
X0189972Y0106722D01*
X0190096Y0106823D01*
X0190223Y0106922D01*
X0190351Y0107017D01*
X0190483Y0107109D01*
X0190616Y0107197D01*
X0190752Y0107282D01*
X0190890Y0107364D01*
X0191029Y0107443D01*
X0191171Y0107517D01*
X0191314Y0107589D01*
X0191459Y0107656D01*
X0191606Y0107720D01*
X0191755Y0107781D01*
X0191905Y0107838D01*
X0192056Y0107890D01*
X0192208Y0107940D01*
X0192362Y0107985D01*
X0192517Y0108026D01*
X0192672Y0108064D01*
X0192829Y0108098D01*
X0192986Y0108127D01*
X0193144Y0108153D01*
X0193303Y0108175D01*
X0193462Y0108193D01*
X0193622Y0108207D01*
X0193782Y0108217D01*
X0193942Y0108223D01*
X0194102Y0108225D01*
X0194262Y0108223D01*
X0194422Y0108217D01*
X0194582Y0108207D01*
X0194742Y0108193D01*
X0194901Y0108175D01*
X0195060Y0108153D01*
X0195218Y0108127D01*
X0195375Y0108098D01*
X0195532Y0108064D01*
X0195687Y0108026D01*
X0195842Y0107985D01*
X0195996Y0107940D01*
X0196148Y0107890D01*
X0196299Y0107838D01*
X0196449Y0107781D01*
X0196598Y0107720D01*
X0196745Y0107656D01*
X0196890Y0107589D01*
X0197033Y0107517D01*
X0197175Y0107443D01*
X0197315Y0107364D01*
X0197452Y0107282D01*
X0197588Y0107197D01*
X0197721Y0107109D01*
X0197853Y0107017D01*
X0197981Y0106922D01*
X0198108Y0106823D01*
X0198232Y0106722D01*
X0198353Y0106617D01*
X0198472Y0106510D01*
X0198588Y0106399D01*
X0198701Y0106286D01*
X0198812Y0106170D01*
X0198919Y0106051D01*
X0199024Y0105930D01*
X0199125Y0105806D01*
X0199224Y0105679D01*
X0199319Y0105551D01*
X0199411Y0105419D01*
X0199499Y0105286D01*
X0199584Y0105150D01*
X0199666Y0105012D01*
X0199745Y0104873D01*
X0199819Y0104731D01*
X0199891Y0104588D01*
X0199958Y0104443D01*
X0200022Y0104296D01*
X0200083Y0104147D01*
X0200140Y0103997D01*
X0200192Y0103846D01*
X0200242Y0103694D01*
X0200287Y0103540D01*
X0200328Y0103385D01*
X0200366Y0103230D01*
X0200400Y0103073D01*
X0200429Y0102916D01*
X0200455Y0102758D01*
X0200477Y0102599D01*
X0200495Y0102440D01*
X0200509Y0102280D01*
X0200519Y0102120D01*
X0200525Y0101960D01*
X0200527Y0101800D01*
X0200525Y0101640D01*
X0200519Y0101480D01*
X0200509Y0101320D01*
X0200495Y0101160D01*
X0200477Y0101001D01*
X0200455Y0100842D01*
X0200429Y0100684D01*
X0200400Y0100527D01*
X0200366Y0100370D01*
X0200328Y0100215D01*
X0200287Y0100060D01*
X0200242Y0099906D01*
X0200192Y0099754D01*
X0200140Y0099603D01*
X0200083Y0099453D01*
X0200022Y0099304D01*
X0199958Y0099157D01*
X0199891Y0099012D01*
X0199819Y0098869D01*
X0199745Y0098727D01*
X0199666Y0098587D01*
X0199584Y0098450D01*
X0199499Y0098314D01*
X0199411Y0098181D01*
X0199319Y0098049D01*
X0199224Y0097921D01*
X0199125Y0097794D01*
X0199024Y0097670D01*
X0198919Y0097549D01*
X0198812Y0097430D01*
X0198701Y0097314D01*
X0198588Y0097201D01*
X0198472Y0097090D01*
X0198353Y0096983D01*
X0198232Y0096878D01*
X0198108Y0096777D01*
X0197981Y0096678D01*
X0197853Y0096583D01*
X0197721Y0096491D01*
X0197588Y0096403D01*
X0197452Y0096318D01*
X0197314Y0096236D01*
X0197175Y0096157D01*
X0197033Y0096083D01*
X0196890Y0096011D01*
X0196745Y0095944D01*
X0196598Y0095880D01*
X0196449Y0095819D01*
X0196299Y0095762D01*
X0196148Y0095710D01*
X0195996Y0095660D01*
X0195842Y0095615D01*
X0195687Y0095574D01*
X0195532Y0095536D01*
X0195375Y0095502D01*
X0195218Y0095473D01*
X0195060Y0095447D01*
X0194901Y0095425D01*
X0194742Y0095407D01*
X0194582Y0095393D01*
X0194422Y0095383D01*
X0194262Y0095377D01*
X0194102Y0095375D01*
X0193942Y0095377D01*
X0193782Y0095383D01*
X0193622Y0095393D01*
X0193462Y0095407D01*
X0193303Y0095425D01*
X0193144Y0095447D01*
X0192986Y0095473D01*
X0192829Y0095502D01*
X0192672Y0095536D01*
X0192517Y0095574D01*
X0192362Y0095615D01*
X0192208Y0095660D01*
X0192056Y0095710D01*
X0191905Y0095762D01*
X0191755Y0095819D01*
X0191606Y0095880D01*
X0191459Y0095944D01*
X0191314Y0096011D01*
X0191171Y0096083D01*
X0191029Y0096157D01*
X0190889Y0096236D01*
X0190752Y0096318D01*
X0190616Y0096403D01*
X0190483Y0096491D01*
X0190351Y0096583D01*
X0190223Y0096678D01*
X0190096Y0096777D01*
X0189972Y0096878D01*
X0189851Y0096983D01*
X0189732Y0097090D01*
X0189616Y0097201D01*
X0189503Y0097314D01*
X0189392Y0097430D01*
X0189285Y0097549D01*
X0189180Y0097670D01*
X0189079Y0097794D01*
X0188980Y0097921D01*
X0188885Y0098049D01*
X0188793Y0098181D01*
X0188705Y0098314D01*
X0188620Y0098450D01*
X0188538Y0098588D01*
X0188459Y0098727D01*
X0188385Y0098869D01*
X0188313Y0099012D01*
X0188246Y0099157D01*
X0188182Y0099304D01*
X0188121Y0099453D01*
X0188064Y0099603D01*
X0188012Y0099754D01*
X0187962Y0099906D01*
X0187917Y0100060D01*
X0187876Y0100215D01*
X0187838Y0100370D01*
X0187804Y0100527D01*
X0187775Y0100684D01*
X0187749Y0100842D01*
X0187727Y0101001D01*
X0187709Y0101160D01*
X0187695Y0101320D01*
X0187685Y0101480D01*
X0187679Y0101640D01*
X0187677Y0101800D01*
M02*
