G75*
%MOIN*%
%OFA0B0*%
%FSLAX25Y25*%
%IPPOS*%
%LPD*%
%AMOC8*
5,1,8,0,0,1.08239X$1,22.5*
%
%ADD10C,0.13450*%
%ADD11R,0.05718X0.06506*%
%ADD12R,0.07135X0.03710*%
%ADD13R,0.08277X0.08277*%
%ADD14C,0.08277*%
%ADD15C,0.04956*%
%ADD16C,0.04562*%
D10*
X0124102Y0056800D03*
X0194102Y0016800D03*
X0194102Y0101800D03*
D11*
X0131592Y0096800D03*
X0124112Y0096800D03*
X0087842Y0096800D03*
X0080362Y0096800D03*
X0060342Y0096800D03*
X0052862Y0096800D03*
X0055362Y0084300D03*
X0062842Y0084300D03*
X0062842Y0066800D03*
X0055362Y0066800D03*
X0055362Y0054300D03*
X0062842Y0054300D03*
X0060342Y0031800D03*
X0052862Y0031800D03*
X0055362Y0019300D03*
X0062842Y0019300D03*
X0080362Y0016800D03*
X0087842Y0016800D03*
X0124112Y0016800D03*
X0131592Y0016800D03*
D12*
X0028354Y0024713D03*
X0028315Y0031800D03*
X0044102Y0031800D03*
X0044102Y0024713D03*
X0044102Y0057213D03*
X0044102Y0064300D03*
X0028315Y0064300D03*
X0028354Y0057213D03*
X0028354Y0089713D03*
X0028315Y0096800D03*
X0044102Y0096800D03*
X0044102Y0089713D03*
D13*
X0189102Y0076800D03*
D14*
X0189102Y0066800D03*
X0189102Y0056800D03*
X0189102Y0046800D03*
D15*
X0201602Y0046800D03*
X0201602Y0056800D03*
X0201602Y0066800D03*
X0201602Y0076800D03*
D16*
X0171602Y0081800D03*
X0164102Y0068050D03*
X0131602Y0083050D03*
X0124102Y0071800D03*
X0084102Y0060550D03*
X0069102Y0054300D03*
X0071602Y0046800D03*
X0060352Y0038050D03*
X0069102Y0019300D03*
X0059102Y0011800D03*
X0091602Y0044300D03*
X0114102Y0036800D03*
X0124102Y0041800D03*
X0131602Y0030550D03*
X0166602Y0031800D03*
X0071602Y0071800D03*
X0069102Y0066800D03*
X0062852Y0078050D03*
X0066602Y0093050D03*
X0066602Y0099300D03*
M02*
