G75*
%MOIN*%
%OFA0B0*%
%FSLAX25Y25*%
%IPPOS*%
%LPD*%
%AMOC8*
5,1,8,0,0,1.08239X$1,22.5*
%
%ADD10R,0.05906X0.05118*%
%ADD11R,0.05118X0.05906*%
%ADD12R,0.01378X0.04724*%
%ADD13R,0.07677X0.07677*%
%ADD14C,0.07677*%
%ADD15C,0.04356*%
%ADD16R,0.02362X0.05906*%
%ADD17C,0.03962*%
%ADD18C,0.01600*%
D10*
X0059102Y0020560D03*
X0059102Y0028040D03*
X0071602Y0028060D03*
X0071602Y0035540D03*
X0084102Y0035540D03*
X0084102Y0028060D03*
X0091602Y0053060D03*
X0091602Y0060540D03*
X0084102Y0078060D03*
X0084102Y0085540D03*
X0071602Y0085540D03*
X0071602Y0078060D03*
X0059102Y0085560D03*
X0059102Y0093040D03*
X0146602Y0090540D03*
X0146602Y0083060D03*
X0164102Y0060540D03*
X0164102Y0053060D03*
X0141602Y0030540D03*
X0141602Y0023060D03*
D11*
X0152862Y0021800D03*
X0160342Y0021800D03*
X0160342Y0031800D03*
X0152862Y0031800D03*
X0131592Y0016800D03*
X0124112Y0016800D03*
X0102842Y0031800D03*
X0095362Y0031800D03*
X0097862Y0081800D03*
X0105342Y0081800D03*
X0124112Y0096800D03*
X0131592Y0096800D03*
X0157862Y0091800D03*
X0165342Y0091800D03*
X0165342Y0081800D03*
X0157862Y0081800D03*
D12*
X0107941Y0068316D03*
X0105382Y0068316D03*
X0102823Y0068316D03*
X0100263Y0068316D03*
X0100263Y0045284D03*
X0102823Y0045284D03*
X0105382Y0045284D03*
X0107941Y0045284D03*
D13*
X0189102Y0076800D03*
D14*
X0189102Y0066800D03*
X0189102Y0056800D03*
X0189102Y0046800D03*
D15*
X0201602Y0046800D03*
X0201602Y0056800D03*
X0201602Y0066800D03*
X0201602Y0076800D03*
D16*
X0156602Y0067627D03*
X0151602Y0067627D03*
X0146602Y0067627D03*
X0141602Y0067627D03*
X0141602Y0045973D03*
X0146602Y0045973D03*
X0151602Y0045973D03*
X0156602Y0045973D03*
D17*
X0166602Y0031800D03*
X0131602Y0030550D03*
X0124102Y0041800D03*
X0114102Y0036800D03*
X0091602Y0044300D03*
X0071602Y0046800D03*
X0069102Y0054300D03*
X0084102Y0060550D03*
X0069102Y0066800D03*
X0071602Y0071800D03*
X0062852Y0078050D03*
X0066602Y0093050D03*
X0066602Y0099300D03*
X0124102Y0071800D03*
X0131602Y0083050D03*
X0164102Y0068050D03*
X0171602Y0081800D03*
X0069102Y0019300D03*
X0059102Y0011800D03*
X0060352Y0038050D03*
D18*
X0021902Y0004600D02*
X0021902Y0114000D01*
X0206302Y0114000D01*
X0206302Y0004600D01*
X0021902Y0004600D01*
X0021902Y0004997D02*
X0206302Y0004997D01*
X0206302Y0006596D02*
X0021902Y0006596D01*
X0021902Y0008194D02*
X0190773Y0008194D01*
X0192267Y0007575D02*
X0195937Y0007575D01*
X0199328Y0008979D01*
X0201923Y0011574D01*
X0203327Y0014965D01*
X0203327Y0018635D01*
X0201923Y0022026D01*
X0199328Y0024621D01*
X0195937Y0026025D01*
X0192267Y0026025D01*
X0188877Y0024621D01*
X0186281Y0022026D01*
X0184877Y0018635D01*
X0184877Y0014965D01*
X0186281Y0011574D01*
X0188877Y0008979D01*
X0192267Y0007575D01*
X0188063Y0009793D02*
X0061876Y0009793D01*
X0061968Y0009885D02*
X0062483Y0011127D01*
X0062483Y0012473D01*
X0061968Y0013715D01*
X0061302Y0014382D01*
X0061302Y0016601D01*
X0062635Y0016601D01*
X0063455Y0017421D01*
X0063455Y0023699D01*
X0062854Y0024300D01*
X0063455Y0024901D01*
X0063455Y0025860D01*
X0067249Y0025860D01*
X0067249Y0024921D01*
X0068069Y0024101D01*
X0069402Y0024101D01*
X0069402Y0020889D01*
X0074402Y0015889D01*
X0075691Y0014600D01*
X0105013Y0014600D01*
X0110013Y0019600D01*
X0111302Y0020889D01*
X0111302Y0034818D01*
X0112187Y0033934D01*
X0113430Y0033419D01*
X0114775Y0033419D01*
X0116017Y0033934D01*
X0116968Y0034885D01*
X0117483Y0036127D01*
X0117483Y0037473D01*
X0116968Y0038715D01*
X0116017Y0039666D01*
X0114775Y0040181D01*
X0113832Y0040181D01*
X0110141Y0043873D01*
X0110141Y0046196D01*
X0110030Y0046307D01*
X0110030Y0047761D01*
X0118191Y0039600D01*
X0121520Y0039600D01*
X0122187Y0038934D01*
X0123430Y0038419D01*
X0124775Y0038419D01*
X0126017Y0038934D01*
X0126684Y0039600D01*
X0130013Y0039600D01*
X0139021Y0048608D01*
X0139021Y0042441D01*
X0139402Y0042059D01*
X0139402Y0034499D01*
X0138069Y0034499D01*
X0137249Y0033679D01*
X0137249Y0032741D01*
X0134188Y0032746D01*
X0133517Y0033416D01*
X0132275Y0033931D01*
X0130930Y0033931D01*
X0129687Y0033416D01*
X0128736Y0032465D01*
X0128221Y0031223D01*
X0128221Y0029877D01*
X0128736Y0028635D01*
X0129402Y0027968D01*
X0129402Y0026810D01*
X0129397Y0021153D01*
X0128453Y0021153D01*
X0128129Y0020828D01*
X0128111Y0020858D01*
X0127776Y0021193D01*
X0127366Y0021430D01*
X0126908Y0021553D01*
X0124591Y0021553D01*
X0124591Y0017280D01*
X0123632Y0017280D01*
X0123632Y0021553D01*
X0121316Y0021553D01*
X0120858Y0021430D01*
X0120448Y0021193D01*
X0120112Y0020858D01*
X0119876Y0020448D01*
X0119753Y0019990D01*
X0119753Y0017280D01*
X0123632Y0017280D01*
X0123632Y0016320D01*
X0124591Y0016320D01*
X0124591Y0012047D01*
X0126908Y0012047D01*
X0127366Y0012170D01*
X0127776Y0012407D01*
X0128111Y0012742D01*
X0128129Y0012772D01*
X0128453Y0012447D01*
X0134731Y0012447D01*
X0135551Y0013267D01*
X0135551Y0020333D01*
X0134731Y0021153D01*
X0133796Y0021153D01*
X0133801Y0025898D01*
X0133802Y0025899D01*
X0133802Y0026806D01*
X0133803Y0027719D01*
X0133802Y0027720D01*
X0133802Y0027968D01*
X0134180Y0028346D01*
X0136930Y0028342D01*
X0136931Y0028340D01*
X0137249Y0028340D01*
X0137249Y0027401D01*
X0137851Y0026800D01*
X0137249Y0026199D01*
X0137249Y0019921D01*
X0138069Y0019101D01*
X0145135Y0019101D01*
X0145634Y0019600D01*
X0148903Y0019600D01*
X0148903Y0018267D01*
X0149723Y0017447D01*
X0156001Y0017447D01*
X0156326Y0017772D01*
X0156343Y0017742D01*
X0156678Y0017407D01*
X0157088Y0017170D01*
X0157546Y0017047D01*
X0159863Y0017047D01*
X0159863Y0021320D01*
X0160822Y0021320D01*
X0160822Y0017047D01*
X0163138Y0017047D01*
X0163596Y0017170D01*
X0164006Y0017407D01*
X0164342Y0017742D01*
X0164579Y0018152D01*
X0164701Y0018610D01*
X0164701Y0021320D01*
X0160822Y0021320D01*
X0160822Y0022280D01*
X0159863Y0022280D01*
X0159863Y0026553D01*
X0157546Y0026553D01*
X0157088Y0026430D01*
X0156678Y0026193D01*
X0156343Y0025858D01*
X0156326Y0025828D01*
X0156001Y0026153D01*
X0155062Y0026153D01*
X0155062Y0027447D01*
X0156001Y0027447D01*
X0156602Y0028048D01*
X0157203Y0027447D01*
X0163481Y0027447D01*
X0164301Y0028267D01*
X0164301Y0029319D01*
X0164687Y0028934D01*
X0165930Y0028419D01*
X0167275Y0028419D01*
X0168517Y0028934D01*
X0169468Y0029885D01*
X0169983Y0031127D01*
X0169983Y0032473D01*
X0169468Y0033715D01*
X0168517Y0034666D01*
X0167275Y0035181D01*
X0165930Y0035181D01*
X0164687Y0034666D01*
X0164301Y0034281D01*
X0164301Y0035333D01*
X0163481Y0036153D01*
X0162552Y0036153D01*
X0162552Y0037711D01*
X0158802Y0041461D01*
X0158802Y0042059D01*
X0159183Y0042441D01*
X0159183Y0049506D01*
X0158363Y0050326D01*
X0154841Y0050326D01*
X0154102Y0049587D01*
X0153363Y0050326D01*
X0149841Y0050326D01*
X0149102Y0049587D01*
X0148802Y0049887D01*
X0148802Y0050211D01*
X0147513Y0051500D01*
X0146302Y0052711D01*
X0146302Y0052711D01*
X0145013Y0054000D01*
X0138191Y0054000D01*
X0128191Y0044000D01*
X0126684Y0044000D01*
X0126017Y0044666D01*
X0124775Y0045181D01*
X0123430Y0045181D01*
X0122187Y0044666D01*
X0121520Y0044000D01*
X0120013Y0044000D01*
X0111302Y0052711D01*
X0110013Y0054000D01*
X0100691Y0054000D01*
X0099352Y0052661D01*
X0098063Y0051373D01*
X0098063Y0043873D01*
X0091902Y0037711D01*
X0091902Y0035832D01*
X0091403Y0035333D01*
X0091403Y0028267D01*
X0092223Y0027447D01*
X0098501Y0027447D01*
X0099102Y0028048D01*
X0099703Y0027447D01*
X0100642Y0027447D01*
X0100642Y0026451D01*
X0098191Y0024000D01*
X0087513Y0024000D01*
X0087413Y0024101D01*
X0087635Y0024101D01*
X0088455Y0024921D01*
X0088455Y0031199D01*
X0087854Y0031800D01*
X0088455Y0032401D01*
X0088455Y0038679D01*
X0087635Y0039499D01*
X0086302Y0039499D01*
X0086302Y0057968D01*
X0086849Y0058516D01*
X0086849Y0057744D01*
X0086972Y0057286D01*
X0087209Y0056876D01*
X0087544Y0056541D01*
X0087574Y0056523D01*
X0087249Y0056199D01*
X0087249Y0049921D01*
X0088069Y0049101D01*
X0089402Y0049101D01*
X0089402Y0046882D01*
X0088736Y0046215D01*
X0088221Y0044973D01*
X0088221Y0043627D01*
X0088736Y0042385D01*
X0089687Y0041434D01*
X0090930Y0040919D01*
X0092275Y0040919D01*
X0093517Y0041434D01*
X0094468Y0042385D01*
X0094983Y0043627D01*
X0094983Y0044973D01*
X0094468Y0046215D01*
X0093802Y0046882D01*
X0093802Y0049101D01*
X0095135Y0049101D01*
X0095955Y0049921D01*
X0095955Y0056199D01*
X0095630Y0056523D01*
X0095660Y0056541D01*
X0095995Y0056876D01*
X0096232Y0057286D01*
X0096355Y0057744D01*
X0096355Y0060061D01*
X0092082Y0060061D01*
X0092082Y0061020D01*
X0096355Y0061020D01*
X0096355Y0063336D01*
X0096232Y0063794D01*
X0095995Y0064204D01*
X0095660Y0064540D01*
X0095250Y0064777D01*
X0094792Y0064899D01*
X0092082Y0064899D01*
X0092082Y0061020D01*
X0091123Y0061020D01*
X0091123Y0064899D01*
X0088412Y0064899D01*
X0087955Y0064777D01*
X0087544Y0064540D01*
X0087209Y0064204D01*
X0086972Y0063794D01*
X0086849Y0063336D01*
X0086849Y0062584D01*
X0086302Y0063132D01*
X0086302Y0074101D01*
X0087635Y0074101D01*
X0088455Y0074921D01*
X0088455Y0081199D01*
X0087854Y0081800D01*
X0088455Y0082401D01*
X0088455Y0088679D01*
X0087635Y0089499D01*
X0087413Y0089499D01*
X0087513Y0089600D01*
X0100691Y0089600D01*
X0103142Y0087149D01*
X0103142Y0086153D01*
X0102203Y0086153D01*
X0101602Y0085552D01*
X0101001Y0086153D01*
X0094723Y0086153D01*
X0093903Y0085333D01*
X0093903Y0078267D01*
X0094723Y0077447D01*
X0095344Y0077447D01*
X0100313Y0072478D01*
X0100264Y0072478D01*
X0100264Y0068316D01*
X0100263Y0068316D01*
X0100263Y0068316D01*
X0097775Y0068316D01*
X0097775Y0070915D01*
X0097897Y0071373D01*
X0098134Y0071783D01*
X0098469Y0072118D01*
X0098880Y0072355D01*
X0099338Y0072478D01*
X0100263Y0072478D01*
X0100263Y0068316D01*
X0097775Y0068316D01*
X0097775Y0065717D01*
X0097897Y0065259D01*
X0098134Y0064848D01*
X0098469Y0064513D01*
X0098880Y0064276D01*
X0099338Y0064154D01*
X0100263Y0064154D01*
X0100263Y0068316D01*
X0100264Y0068316D01*
X0100264Y0064154D01*
X0100623Y0064154D01*
X0100623Y0062168D01*
X0101911Y0060880D01*
X0103191Y0059600D01*
X0110013Y0059600D01*
X0111302Y0060889D01*
X0120013Y0069600D01*
X0121520Y0069600D01*
X0122187Y0068934D01*
X0123430Y0068419D01*
X0124775Y0068419D01*
X0126017Y0068934D01*
X0126684Y0069600D01*
X0128191Y0069600D01*
X0138191Y0059600D01*
X0150013Y0059600D01*
X0151302Y0060889D01*
X0152513Y0062100D01*
X0152513Y0062100D01*
X0153802Y0063389D01*
X0153802Y0063713D01*
X0154102Y0064013D01*
X0154841Y0063274D01*
X0158363Y0063274D01*
X0159183Y0064094D01*
X0159183Y0071159D01*
X0158802Y0071541D01*
X0158802Y0077129D01*
X0159120Y0077447D01*
X0161001Y0077447D01*
X0161602Y0078048D01*
X0162203Y0077447D01*
X0168481Y0077447D01*
X0169301Y0078267D01*
X0169301Y0079319D01*
X0169687Y0078934D01*
X0170930Y0078419D01*
X0172275Y0078419D01*
X0173517Y0078934D01*
X0174468Y0079885D01*
X0174983Y0081127D01*
X0174983Y0082473D01*
X0174468Y0083715D01*
X0173517Y0084666D01*
X0172275Y0085181D01*
X0170930Y0085181D01*
X0169687Y0084666D01*
X0169301Y0084281D01*
X0169301Y0085333D01*
X0168481Y0086153D01*
X0162203Y0086153D01*
X0161602Y0085552D01*
X0161001Y0086153D01*
X0160062Y0086153D01*
X0160062Y0087447D01*
X0161001Y0087447D01*
X0161326Y0087772D01*
X0161343Y0087742D01*
X0161678Y0087407D01*
X0162088Y0087170D01*
X0162546Y0087047D01*
X0164863Y0087047D01*
X0164863Y0091320D01*
X0165822Y0091320D01*
X0165822Y0087047D01*
X0168138Y0087047D01*
X0168596Y0087170D01*
X0169006Y0087407D01*
X0169342Y0087742D01*
X0169579Y0088152D01*
X0169701Y0088610D01*
X0169701Y0091320D01*
X0165822Y0091320D01*
X0165822Y0092280D01*
X0164863Y0092280D01*
X0164863Y0096553D01*
X0162546Y0096553D01*
X0162088Y0096430D01*
X0161678Y0096193D01*
X0161343Y0095858D01*
X0161326Y0095828D01*
X0161001Y0096153D01*
X0154723Y0096153D01*
X0153903Y0095333D01*
X0153903Y0094000D01*
X0150634Y0094000D01*
X0150135Y0094499D01*
X0143069Y0094499D01*
X0142249Y0093679D01*
X0142249Y0087401D01*
X0142851Y0086800D01*
X0142249Y0086199D01*
X0142249Y0085260D01*
X0136250Y0085260D01*
X0136248Y0085262D01*
X0135341Y0085260D01*
X0134431Y0085260D01*
X0134429Y0085257D01*
X0134177Y0085257D01*
X0133802Y0085632D01*
X0133802Y0092132D01*
X0133804Y0092135D01*
X0133804Y0092447D01*
X0134731Y0092447D01*
X0135551Y0093267D01*
X0135551Y0100333D01*
X0134731Y0101153D01*
X0128453Y0101153D01*
X0128129Y0100828D01*
X0128111Y0100858D01*
X0127776Y0101193D01*
X0127366Y0101430D01*
X0126908Y0101553D01*
X0124591Y0101553D01*
X0124591Y0097280D01*
X0123632Y0097280D01*
X0123632Y0101553D01*
X0121316Y0101553D01*
X0120858Y0101430D01*
X0120448Y0101193D01*
X0120112Y0100858D01*
X0119876Y0100448D01*
X0119753Y0099990D01*
X0119753Y0097280D01*
X0123632Y0097280D01*
X0123632Y0096320D01*
X0124591Y0096320D01*
X0124591Y0092047D01*
X0126908Y0092047D01*
X0127366Y0092170D01*
X0127776Y0092407D01*
X0128111Y0092742D01*
X0128129Y0092772D01*
X0128453Y0092447D01*
X0129402Y0092447D01*
X0129402Y0085632D01*
X0128736Y0084965D01*
X0128221Y0083723D01*
X0128221Y0082377D01*
X0128736Y0081135D01*
X0129687Y0080184D01*
X0130930Y0079669D01*
X0132275Y0079669D01*
X0133517Y0080184D01*
X0134190Y0080857D01*
X0135343Y0080860D01*
X0142249Y0080860D01*
X0142249Y0079921D01*
X0143069Y0079101D01*
X0144402Y0079101D01*
X0144402Y0071541D01*
X0144342Y0071480D01*
X0144224Y0071685D01*
X0143888Y0072020D01*
X0143478Y0072257D01*
X0143020Y0072380D01*
X0141602Y0072380D01*
X0140184Y0072380D01*
X0139726Y0072257D01*
X0139316Y0072020D01*
X0138981Y0071685D01*
X0138744Y0071274D01*
X0138621Y0070816D01*
X0138621Y0067627D01*
X0141602Y0067627D01*
X0141602Y0072380D01*
X0141602Y0067627D01*
X0141602Y0067627D01*
X0141602Y0067627D01*
X0138621Y0067627D01*
X0138621Y0065392D01*
X0130013Y0074000D01*
X0126684Y0074000D01*
X0126017Y0074666D01*
X0124775Y0075181D01*
X0123430Y0075181D01*
X0122187Y0074666D01*
X0121520Y0074000D01*
X0118191Y0074000D01*
X0110030Y0065839D01*
X0110030Y0067293D01*
X0110141Y0067404D01*
X0110141Y0072227D01*
X0112513Y0074600D01*
X0112513Y0074600D01*
X0113802Y0075889D01*
X0113802Y0095211D01*
X0112513Y0096500D01*
X0110013Y0099000D01*
X0075691Y0099000D01*
X0070691Y0094000D01*
X0069983Y0093292D01*
X0069983Y0093723D01*
X0069468Y0094965D01*
X0068517Y0095916D01*
X0067275Y0096431D01*
X0065930Y0096431D01*
X0064687Y0095916D01*
X0064017Y0095247D01*
X0063455Y0095246D01*
X0063455Y0096179D01*
X0062635Y0096999D01*
X0055569Y0096999D01*
X0054749Y0096179D01*
X0054749Y0089901D01*
X0055351Y0089300D01*
X0054749Y0088699D01*
X0054749Y0082421D01*
X0055569Y0081601D01*
X0062635Y0081601D01*
X0063455Y0082421D01*
X0063455Y0083360D01*
X0067249Y0083360D01*
X0067249Y0082401D01*
X0067851Y0081800D01*
X0067249Y0081199D01*
X0067249Y0074921D01*
X0068069Y0074101D01*
X0069121Y0074101D01*
X0068736Y0073715D01*
X0068221Y0072473D01*
X0068221Y0071127D01*
X0068736Y0069885D01*
X0069687Y0068934D01*
X0070930Y0068419D01*
X0072275Y0068419D01*
X0073517Y0068934D01*
X0074468Y0069885D01*
X0074983Y0071127D01*
X0074983Y0072473D01*
X0074468Y0073715D01*
X0074083Y0074101D01*
X0075135Y0074101D01*
X0075955Y0074921D01*
X0075955Y0081199D01*
X0075354Y0081800D01*
X0075955Y0082401D01*
X0075955Y0084321D01*
X0076282Y0084649D01*
X0076282Y0084659D01*
X0076290Y0084666D01*
X0076282Y0085569D01*
X0076282Y0086471D01*
X0076275Y0086478D01*
X0076275Y0086489D01*
X0075955Y0086804D01*
X0075955Y0088679D01*
X0075135Y0089499D01*
X0073802Y0089499D01*
X0073802Y0090889D01*
X0077513Y0094600D01*
X0108191Y0094600D01*
X0109402Y0093389D01*
X0109402Y0077711D01*
X0107542Y0075851D01*
X0107542Y0077447D01*
X0108481Y0077447D01*
X0109301Y0078267D01*
X0109301Y0085333D01*
X0108481Y0086153D01*
X0107542Y0086153D01*
X0107542Y0088971D01*
X0106253Y0090260D01*
X0102513Y0094000D01*
X0085691Y0094000D01*
X0084402Y0092711D01*
X0081902Y0090211D01*
X0081902Y0089499D01*
X0080569Y0089499D01*
X0079749Y0088679D01*
X0079749Y0082401D01*
X0080351Y0081800D01*
X0079749Y0081199D01*
X0079749Y0074921D01*
X0080569Y0074101D01*
X0081902Y0074101D01*
X0081902Y0063132D01*
X0081236Y0062465D01*
X0080721Y0061223D01*
X0080721Y0059877D01*
X0081236Y0058635D01*
X0081902Y0057968D01*
X0081902Y0039499D01*
X0080569Y0039499D01*
X0079749Y0038679D01*
X0079749Y0032401D01*
X0080351Y0031800D01*
X0079749Y0031199D01*
X0079749Y0024921D01*
X0080569Y0024101D01*
X0081902Y0024101D01*
X0081902Y0023389D01*
X0084402Y0020889D01*
X0085691Y0019600D01*
X0100013Y0019600D01*
X0103753Y0023340D01*
X0105042Y0024629D01*
X0105042Y0027447D01*
X0105981Y0027447D01*
X0106801Y0028267D01*
X0106801Y0035333D01*
X0105981Y0036153D01*
X0105023Y0036153D01*
X0105023Y0037768D01*
X0106902Y0035889D01*
X0106902Y0022711D01*
X0103191Y0019000D01*
X0077513Y0019000D01*
X0073802Y0022711D01*
X0073802Y0024101D01*
X0075135Y0024101D01*
X0075955Y0024921D01*
X0075955Y0031199D01*
X0075354Y0031800D01*
X0075955Y0032401D01*
X0075955Y0038679D01*
X0075135Y0039499D01*
X0073802Y0039499D01*
X0073802Y0044218D01*
X0074468Y0044885D01*
X0074983Y0046127D01*
X0074983Y0047473D01*
X0074468Y0048715D01*
X0073517Y0049666D01*
X0072275Y0050181D01*
X0070930Y0050181D01*
X0069687Y0049666D01*
X0068736Y0048715D01*
X0068221Y0047473D01*
X0068221Y0046127D01*
X0068736Y0044885D01*
X0069402Y0044218D01*
X0069402Y0039499D01*
X0068069Y0039499D01*
X0067249Y0038679D01*
X0067249Y0032401D01*
X0067851Y0031800D01*
X0067249Y0031199D01*
X0067249Y0030260D01*
X0063455Y0030260D01*
X0063455Y0031179D01*
X0062635Y0031999D01*
X0055569Y0031999D01*
X0054749Y0031179D01*
X0054749Y0024901D01*
X0055351Y0024300D01*
X0054749Y0023699D01*
X0054749Y0017421D01*
X0055569Y0016601D01*
X0056902Y0016601D01*
X0056902Y0014382D01*
X0056236Y0013715D01*
X0055721Y0012473D01*
X0055721Y0011127D01*
X0056236Y0009885D01*
X0057187Y0008934D01*
X0058430Y0008419D01*
X0059775Y0008419D01*
X0061017Y0008934D01*
X0061968Y0009885D01*
X0062483Y0011391D02*
X0186465Y0011391D01*
X0185695Y0012990D02*
X0135274Y0012990D01*
X0135551Y0014588D02*
X0185033Y0014588D01*
X0184877Y0016187D02*
X0135551Y0016187D01*
X0135551Y0017785D02*
X0149385Y0017785D01*
X0148903Y0019384D02*
X0145418Y0019384D01*
X0142862Y0021800D02*
X0152862Y0021800D01*
X0152862Y0031800D01*
X0152862Y0033050D01*
X0151602Y0033050D01*
X0151602Y0045973D01*
X0146602Y0045973D02*
X0146602Y0049300D01*
X0144102Y0051800D01*
X0139102Y0051800D01*
X0129102Y0041800D01*
X0124102Y0041800D01*
X0119102Y0041800D01*
X0109102Y0051800D01*
X0101602Y0051800D01*
X0100263Y0050461D01*
X0100263Y0045284D01*
X0100263Y0042961D01*
X0094102Y0036800D01*
X0094102Y0033060D01*
X0095362Y0031800D01*
X0091403Y0032172D02*
X0088225Y0032172D01*
X0088455Y0033770D02*
X0091403Y0033770D01*
X0091439Y0035369D02*
X0088455Y0035369D01*
X0088455Y0036967D02*
X0091902Y0036967D01*
X0092757Y0038566D02*
X0088455Y0038566D01*
X0086302Y0040164D02*
X0094355Y0040164D01*
X0093846Y0041763D02*
X0095954Y0041763D01*
X0094873Y0043361D02*
X0097552Y0043361D01*
X0098063Y0044960D02*
X0094983Y0044960D01*
X0094125Y0046558D02*
X0098063Y0046558D01*
X0098063Y0048157D02*
X0093802Y0048157D01*
X0095789Y0049755D02*
X0098063Y0049755D01*
X0098063Y0051354D02*
X0095955Y0051354D01*
X0095955Y0052952D02*
X0099643Y0052952D01*
X0095955Y0054551D02*
X0115049Y0054551D01*
X0114877Y0054965D02*
X0116281Y0051574D01*
X0118877Y0048979D01*
X0122267Y0047575D01*
X0125937Y0047575D01*
X0129328Y0048979D01*
X0131923Y0051574D01*
X0133327Y0054965D01*
X0133327Y0058635D01*
X0131923Y0062026D01*
X0129328Y0064621D01*
X0125937Y0066025D01*
X0122267Y0066025D01*
X0118877Y0064621D01*
X0116281Y0062026D01*
X0114877Y0058635D01*
X0114877Y0054965D01*
X0114877Y0056149D02*
X0095955Y0056149D01*
X0096355Y0057748D02*
X0114877Y0057748D01*
X0115172Y0059346D02*
X0096355Y0059346D01*
X0096355Y0062543D02*
X0100623Y0062543D01*
X0100623Y0064142D02*
X0096031Y0064142D01*
X0097775Y0065740D02*
X0086302Y0065740D01*
X0086302Y0064142D02*
X0087173Y0064142D01*
X0091123Y0064142D02*
X0092082Y0064142D01*
X0092082Y0062543D02*
X0091123Y0062543D01*
X0092082Y0060945D02*
X0101846Y0060945D01*
X0102823Y0063080D02*
X0102823Y0068316D01*
X0102823Y0073080D01*
X0096602Y0079300D01*
X0096602Y0080540D01*
X0097862Y0081800D01*
X0093903Y0081726D02*
X0087928Y0081726D01*
X0088455Y0083324D02*
X0093903Y0083324D01*
X0093903Y0084923D02*
X0088455Y0084923D01*
X0088455Y0086521D02*
X0103142Y0086521D01*
X0102171Y0088120D02*
X0088455Y0088120D01*
X0086602Y0091800D02*
X0084102Y0089300D01*
X0084102Y0085540D01*
X0079749Y0084923D02*
X0076288Y0084923D01*
X0076242Y0086521D02*
X0079749Y0086521D01*
X0079749Y0088120D02*
X0075955Y0088120D01*
X0073802Y0089718D02*
X0081902Y0089718D01*
X0083007Y0091317D02*
X0074230Y0091317D01*
X0075828Y0092915D02*
X0084606Y0092915D01*
X0086602Y0091800D02*
X0101602Y0091800D01*
X0105342Y0088060D01*
X0105342Y0081800D01*
X0105342Y0068355D01*
X0105382Y0068316D01*
X0107941Y0068316D02*
X0107941Y0073139D01*
X0111602Y0076800D01*
X0111602Y0094300D01*
X0109102Y0096800D01*
X0076602Y0096800D01*
X0071602Y0091800D01*
X0071602Y0085540D01*
X0074082Y0085560D01*
X0059102Y0085560D01*
X0054749Y0084923D02*
X0021902Y0084923D01*
X0021902Y0086521D02*
X0054749Y0086521D01*
X0054749Y0088120D02*
X0021902Y0088120D01*
X0021902Y0089718D02*
X0054932Y0089718D01*
X0054749Y0091317D02*
X0021902Y0091317D01*
X0021902Y0092915D02*
X0054749Y0092915D01*
X0054749Y0094514D02*
X0021902Y0094514D01*
X0021902Y0096112D02*
X0054749Y0096112D01*
X0059102Y0093040D02*
X0066602Y0093050D01*
X0065160Y0096112D02*
X0063455Y0096112D01*
X0068045Y0096112D02*
X0072803Y0096112D01*
X0071204Y0094514D02*
X0069655Y0094514D01*
X0074401Y0097711D02*
X0021902Y0097711D01*
X0021902Y0099309D02*
X0119753Y0099309D01*
X0119753Y0097711D02*
X0111303Y0097711D01*
X0112901Y0096112D02*
X0119753Y0096112D01*
X0119753Y0096320D02*
X0119753Y0093610D01*
X0119876Y0093152D01*
X0120112Y0092742D01*
X0120448Y0092407D01*
X0120858Y0092170D01*
X0121316Y0092047D01*
X0123632Y0092047D01*
X0123632Y0096320D01*
X0119753Y0096320D01*
X0123632Y0096112D02*
X0124591Y0096112D01*
X0124591Y0094514D02*
X0123632Y0094514D01*
X0123632Y0092915D02*
X0124591Y0092915D01*
X0120013Y0092915D02*
X0113802Y0092915D01*
X0113802Y0091317D02*
X0129402Y0091317D01*
X0129402Y0089718D02*
X0113802Y0089718D01*
X0113802Y0088120D02*
X0129402Y0088120D01*
X0129402Y0086521D02*
X0113802Y0086521D01*
X0113802Y0084923D02*
X0128718Y0084923D01*
X0128221Y0083324D02*
X0113802Y0083324D01*
X0113802Y0081726D02*
X0128491Y0081726D01*
X0131602Y0083050D02*
X0131602Y0093040D01*
X0131592Y0096800D01*
X0135551Y0096112D02*
X0154682Y0096112D01*
X0153903Y0094514D02*
X0135551Y0094514D01*
X0135199Y0092915D02*
X0142249Y0092915D01*
X0142249Y0091317D02*
X0133802Y0091317D01*
X0133802Y0089718D02*
X0142249Y0089718D01*
X0142249Y0088120D02*
X0133802Y0088120D01*
X0133802Y0086521D02*
X0142572Y0086521D01*
X0146602Y0083060D02*
X0146602Y0067627D01*
X0151602Y0067627D02*
X0151602Y0064300D01*
X0149102Y0061800D01*
X0139102Y0061800D01*
X0129102Y0071800D01*
X0124102Y0071800D01*
X0119102Y0071800D01*
X0109102Y0061800D01*
X0104102Y0061800D01*
X0102823Y0063080D01*
X0100263Y0065740D02*
X0100264Y0065740D01*
X0100263Y0067339D02*
X0100264Y0067339D01*
X0100263Y0068937D02*
X0100264Y0068937D01*
X0100263Y0070536D02*
X0100264Y0070536D01*
X0100263Y0072134D02*
X0100264Y0072134D01*
X0098497Y0072134D02*
X0086302Y0072134D01*
X0086302Y0070536D02*
X0097775Y0070536D01*
X0097775Y0068937D02*
X0086302Y0068937D01*
X0086302Y0067339D02*
X0097775Y0067339D01*
X0099058Y0073733D02*
X0086302Y0073733D01*
X0088455Y0075332D02*
X0097459Y0075332D01*
X0095861Y0076930D02*
X0088455Y0076930D01*
X0088455Y0078529D02*
X0093903Y0078529D01*
X0093903Y0080127D02*
X0088455Y0080127D01*
X0084102Y0078060D02*
X0084102Y0060550D01*
X0084102Y0035540D01*
X0079749Y0035369D02*
X0075955Y0035369D01*
X0075955Y0033770D02*
X0079749Y0033770D01*
X0079979Y0032172D02*
X0075725Y0032172D01*
X0075955Y0030573D02*
X0079749Y0030573D01*
X0079749Y0028975D02*
X0075955Y0028975D01*
X0075955Y0027376D02*
X0079749Y0027376D01*
X0079749Y0025778D02*
X0075955Y0025778D01*
X0075213Y0024179D02*
X0080491Y0024179D01*
X0082710Y0022581D02*
X0073933Y0022581D01*
X0075531Y0020982D02*
X0084309Y0020982D01*
X0086602Y0021800D02*
X0099102Y0021800D01*
X0102842Y0025540D01*
X0102842Y0031800D01*
X0102823Y0031820D01*
X0102823Y0045284D01*
X0105382Y0045284D02*
X0105382Y0040520D01*
X0109102Y0036800D01*
X0109102Y0021800D01*
X0104102Y0016800D01*
X0076602Y0016800D01*
X0071602Y0021800D01*
X0071602Y0028060D01*
X0059122Y0028060D01*
X0059102Y0028040D01*
X0054749Y0027376D02*
X0021902Y0027376D01*
X0021902Y0025778D02*
X0054749Y0025778D01*
X0055230Y0024179D02*
X0021902Y0024179D01*
X0021902Y0022581D02*
X0054749Y0022581D01*
X0054749Y0020982D02*
X0021902Y0020982D01*
X0021902Y0019384D02*
X0054749Y0019384D01*
X0054749Y0017785D02*
X0021902Y0017785D01*
X0021902Y0016187D02*
X0056902Y0016187D01*
X0056902Y0014588D02*
X0021902Y0014588D01*
X0021902Y0012990D02*
X0055935Y0012990D01*
X0055721Y0011391D02*
X0021902Y0011391D01*
X0021902Y0009793D02*
X0056328Y0009793D01*
X0059102Y0011800D02*
X0059102Y0020560D01*
X0063455Y0020982D02*
X0069402Y0020982D01*
X0070907Y0019384D02*
X0063455Y0019384D01*
X0063455Y0017785D02*
X0072506Y0017785D01*
X0074104Y0016187D02*
X0061302Y0016187D01*
X0061302Y0014588D02*
X0119753Y0014588D01*
X0119753Y0013610D02*
X0119876Y0013152D01*
X0120112Y0012742D01*
X0120448Y0012407D01*
X0120858Y0012170D01*
X0121316Y0012047D01*
X0123632Y0012047D01*
X0123632Y0016320D01*
X0119753Y0016320D01*
X0119753Y0013610D01*
X0119970Y0012990D02*
X0062269Y0012990D01*
X0077130Y0019384D02*
X0103574Y0019384D01*
X0105173Y0020982D02*
X0101395Y0020982D01*
X0102994Y0022581D02*
X0106771Y0022581D01*
X0106902Y0024179D02*
X0104592Y0024179D01*
X0105042Y0025778D02*
X0106902Y0025778D01*
X0106902Y0027376D02*
X0105042Y0027376D01*
X0106801Y0028975D02*
X0106902Y0028975D01*
X0106902Y0030573D02*
X0106801Y0030573D01*
X0106801Y0032172D02*
X0106902Y0032172D01*
X0106902Y0033770D02*
X0106801Y0033770D01*
X0106765Y0035369D02*
X0106902Y0035369D01*
X0105824Y0036967D02*
X0105023Y0036967D01*
X0111302Y0033770D02*
X0112581Y0033770D01*
X0111302Y0032172D02*
X0128614Y0032172D01*
X0128221Y0030573D02*
X0111302Y0030573D01*
X0111302Y0028975D02*
X0128595Y0028975D01*
X0129402Y0027376D02*
X0111302Y0027376D01*
X0111302Y0025778D02*
X0129401Y0025778D01*
X0129399Y0024179D02*
X0111302Y0024179D01*
X0111302Y0022581D02*
X0129398Y0022581D01*
X0128283Y0020982D02*
X0127987Y0020982D01*
X0124591Y0020982D02*
X0123632Y0020982D01*
X0123632Y0019384D02*
X0124591Y0019384D01*
X0124591Y0017785D02*
X0123632Y0017785D01*
X0123632Y0016187D02*
X0124591Y0016187D01*
X0124591Y0014588D02*
X0123632Y0014588D01*
X0119753Y0016187D02*
X0106600Y0016187D01*
X0108198Y0017785D02*
X0119753Y0017785D01*
X0119753Y0019384D02*
X0109797Y0019384D01*
X0111302Y0020982D02*
X0120237Y0020982D01*
X0131592Y0016800D02*
X0131602Y0026810D01*
X0131602Y0030550D01*
X0137842Y0030540D01*
X0141602Y0030540D01*
X0140342Y0031800D01*
X0141602Y0033060D01*
X0141602Y0045973D01*
X0139021Y0046558D02*
X0136972Y0046558D01*
X0138570Y0048157D02*
X0139021Y0048157D01*
X0139021Y0044960D02*
X0135373Y0044960D01*
X0133775Y0043361D02*
X0139021Y0043361D01*
X0139402Y0041763D02*
X0132176Y0041763D01*
X0130578Y0040164D02*
X0139402Y0040164D01*
X0139402Y0038566D02*
X0125129Y0038566D01*
X0123075Y0038566D02*
X0117030Y0038566D01*
X0117483Y0036967D02*
X0139402Y0036967D01*
X0139402Y0035369D02*
X0117169Y0035369D01*
X0115623Y0033770D02*
X0130541Y0033770D01*
X0132663Y0033770D02*
X0137340Y0033770D01*
X0137274Y0027376D02*
X0133803Y0027376D01*
X0133801Y0025778D02*
X0137249Y0025778D01*
X0137249Y0024179D02*
X0133799Y0024179D01*
X0133798Y0022581D02*
X0137249Y0022581D01*
X0137249Y0020982D02*
X0134902Y0020982D01*
X0135551Y0019384D02*
X0137787Y0019384D01*
X0141602Y0023060D02*
X0142862Y0021800D01*
X0155062Y0027376D02*
X0206302Y0027376D01*
X0206302Y0025778D02*
X0196534Y0025778D01*
X0199769Y0024179D02*
X0206302Y0024179D01*
X0206302Y0022581D02*
X0201368Y0022581D01*
X0202355Y0020982D02*
X0206302Y0020982D01*
X0206302Y0019384D02*
X0203017Y0019384D01*
X0203327Y0017785D02*
X0206302Y0017785D01*
X0206302Y0016187D02*
X0203327Y0016187D01*
X0203171Y0014588D02*
X0206302Y0014588D01*
X0206302Y0012990D02*
X0202509Y0012990D01*
X0201739Y0011391D02*
X0206302Y0011391D01*
X0206302Y0009793D02*
X0200141Y0009793D01*
X0197432Y0008194D02*
X0206302Y0008194D01*
X0184877Y0017785D02*
X0164367Y0017785D01*
X0164701Y0019384D02*
X0185187Y0019384D01*
X0185849Y0020982D02*
X0164701Y0020982D01*
X0164701Y0022280D02*
X0160822Y0022280D01*
X0160822Y0026553D01*
X0163138Y0026553D01*
X0163596Y0026430D01*
X0164006Y0026193D01*
X0164342Y0025858D01*
X0164579Y0025448D01*
X0164701Y0024990D01*
X0164701Y0022280D01*
X0164701Y0022581D02*
X0186837Y0022581D01*
X0188435Y0024179D02*
X0164701Y0024179D01*
X0164388Y0025778D02*
X0191670Y0025778D01*
X0206302Y0028975D02*
X0168558Y0028975D01*
X0169754Y0030573D02*
X0206302Y0030573D01*
X0206302Y0032172D02*
X0169983Y0032172D01*
X0169413Y0033770D02*
X0206302Y0033770D01*
X0206302Y0035369D02*
X0164265Y0035369D01*
X0162552Y0036967D02*
X0206302Y0036967D01*
X0206302Y0038566D02*
X0161698Y0038566D01*
X0160099Y0040164D02*
X0206302Y0040164D01*
X0206302Y0041763D02*
X0190630Y0041763D01*
X0190144Y0041561D02*
X0192069Y0042359D01*
X0193543Y0043833D01*
X0194341Y0045758D01*
X0194341Y0047842D01*
X0193543Y0049767D01*
X0192069Y0051241D01*
X0190720Y0051800D01*
X0192069Y0052359D01*
X0193543Y0053833D01*
X0194341Y0055758D01*
X0194341Y0057842D01*
X0193543Y0059767D01*
X0192069Y0061241D01*
X0190720Y0061800D01*
X0192069Y0062359D01*
X0193543Y0063833D01*
X0194341Y0065758D01*
X0194341Y0067842D01*
X0193543Y0069767D01*
X0192149Y0071161D01*
X0193178Y0071161D01*
X0193635Y0071284D01*
X0194046Y0071521D01*
X0194381Y0071856D01*
X0194618Y0072267D01*
X0194741Y0072724D01*
X0194741Y0076320D01*
X0189582Y0076320D01*
X0189582Y0077280D01*
X0188623Y0077280D01*
X0188623Y0082439D01*
X0185027Y0082439D01*
X0184569Y0082316D01*
X0184158Y0082079D01*
X0183823Y0081744D01*
X0183586Y0081333D01*
X0183463Y0080876D01*
X0183463Y0077280D01*
X0188622Y0077280D01*
X0188622Y0076320D01*
X0183463Y0076320D01*
X0183463Y0072724D01*
X0183586Y0072267D01*
X0183823Y0071856D01*
X0184158Y0071521D01*
X0184569Y0071284D01*
X0185027Y0071161D01*
X0186055Y0071161D01*
X0184661Y0069767D01*
X0183863Y0067842D01*
X0183863Y0065758D01*
X0184661Y0063833D01*
X0186135Y0062359D01*
X0187484Y0061800D01*
X0186135Y0061241D01*
X0184661Y0059767D01*
X0183863Y0057842D01*
X0183863Y0055758D01*
X0184661Y0053833D01*
X0186135Y0052359D01*
X0187484Y0051800D01*
X0186135Y0051241D01*
X0184661Y0049767D01*
X0183863Y0047842D01*
X0183863Y0045758D01*
X0184661Y0043833D01*
X0186135Y0042359D01*
X0188060Y0041561D01*
X0190144Y0041561D01*
X0187574Y0041763D02*
X0158802Y0041763D01*
X0159183Y0043361D02*
X0185132Y0043361D01*
X0184194Y0044960D02*
X0159183Y0044960D01*
X0159183Y0046558D02*
X0183863Y0046558D01*
X0183994Y0048157D02*
X0159183Y0048157D01*
X0160044Y0049060D02*
X0160455Y0048823D01*
X0160912Y0048701D01*
X0163623Y0048701D01*
X0163623Y0052580D01*
X0164582Y0052580D01*
X0164582Y0053539D01*
X0168855Y0053539D01*
X0168855Y0055856D01*
X0168732Y0056314D01*
X0168495Y0056724D01*
X0168160Y0057059D01*
X0168130Y0057077D01*
X0168455Y0057401D01*
X0168455Y0063679D01*
X0167635Y0064499D01*
X0166302Y0064499D01*
X0166302Y0065468D01*
X0166968Y0066135D01*
X0167483Y0067377D01*
X0167483Y0068723D01*
X0166968Y0069965D01*
X0166017Y0070916D01*
X0164775Y0071431D01*
X0163430Y0071431D01*
X0162187Y0070916D01*
X0161236Y0069965D01*
X0160721Y0068723D01*
X0160721Y0067377D01*
X0161236Y0066135D01*
X0161902Y0065468D01*
X0161902Y0064499D01*
X0160569Y0064499D01*
X0159749Y0063679D01*
X0159749Y0057401D01*
X0160074Y0057077D01*
X0160044Y0057059D01*
X0159709Y0056724D01*
X0159472Y0056314D01*
X0159349Y0055856D01*
X0159349Y0053539D01*
X0163622Y0053539D01*
X0163622Y0052580D01*
X0159349Y0052580D01*
X0159349Y0050264D01*
X0159472Y0049806D01*
X0159709Y0049396D01*
X0160044Y0049060D01*
X0159501Y0049755D02*
X0158934Y0049755D01*
X0159349Y0051354D02*
X0147659Y0051354D01*
X0147513Y0051500D02*
X0147513Y0051500D01*
X0146061Y0052952D02*
X0163622Y0052952D01*
X0164582Y0052952D02*
X0185541Y0052952D01*
X0184363Y0054551D02*
X0168855Y0054551D01*
X0168776Y0056149D02*
X0183863Y0056149D01*
X0183863Y0057748D02*
X0168455Y0057748D01*
X0168455Y0059346D02*
X0184487Y0059346D01*
X0185839Y0060945D02*
X0168455Y0060945D01*
X0168455Y0062543D02*
X0185950Y0062543D01*
X0184533Y0064142D02*
X0167992Y0064142D01*
X0166574Y0065740D02*
X0183871Y0065740D01*
X0183863Y0067339D02*
X0167467Y0067339D01*
X0167394Y0068937D02*
X0184317Y0068937D01*
X0185430Y0070536D02*
X0166398Y0070536D01*
X0164102Y0068050D02*
X0164102Y0060540D01*
X0159749Y0060945D02*
X0151358Y0060945D01*
X0152957Y0062543D02*
X0159749Y0062543D01*
X0160212Y0064142D02*
X0159183Y0064142D01*
X0159183Y0065740D02*
X0161630Y0065740D01*
X0160737Y0067339D02*
X0159183Y0067339D01*
X0159183Y0068937D02*
X0160810Y0068937D01*
X0161806Y0070536D02*
X0159183Y0070536D01*
X0158802Y0072134D02*
X0183662Y0072134D01*
X0183463Y0073733D02*
X0158802Y0073733D01*
X0158802Y0075332D02*
X0183463Y0075332D01*
X0183463Y0078529D02*
X0172539Y0078529D01*
X0170665Y0078529D02*
X0169301Y0078529D01*
X0171602Y0081800D02*
X0165342Y0081800D01*
X0169301Y0084923D02*
X0170305Y0084923D01*
X0172899Y0084923D02*
X0206302Y0084923D01*
X0206302Y0086521D02*
X0160062Y0086521D01*
X0164863Y0088120D02*
X0165822Y0088120D01*
X0165822Y0089718D02*
X0164863Y0089718D01*
X0164863Y0091317D02*
X0165822Y0091317D01*
X0165822Y0092280D02*
X0169701Y0092280D01*
X0169701Y0094990D01*
X0169579Y0095448D01*
X0169342Y0095858D01*
X0169006Y0096193D01*
X0168596Y0096430D01*
X0168138Y0096553D01*
X0165822Y0096553D01*
X0165822Y0092280D01*
X0165822Y0092915D02*
X0164863Y0092915D01*
X0164863Y0094514D02*
X0165822Y0094514D01*
X0165822Y0096112D02*
X0164863Y0096112D01*
X0161597Y0096112D02*
X0161041Y0096112D01*
X0157862Y0091800D02*
X0157862Y0081800D01*
X0157862Y0079300D01*
X0156602Y0079300D01*
X0156602Y0067627D01*
X0159749Y0059346D02*
X0133032Y0059346D01*
X0132370Y0060945D02*
X0136846Y0060945D01*
X0135247Y0062543D02*
X0131405Y0062543D01*
X0129806Y0064142D02*
X0133649Y0064142D01*
X0132050Y0065740D02*
X0126624Y0065740D01*
X0130452Y0067339D02*
X0117752Y0067339D01*
X0119351Y0068937D02*
X0122183Y0068937D01*
X0126021Y0068937D02*
X0128853Y0068937D01*
X0131879Y0072134D02*
X0139514Y0072134D01*
X0138621Y0070536D02*
X0133477Y0070536D01*
X0135076Y0068937D02*
X0138621Y0068937D01*
X0138621Y0067339D02*
X0136674Y0067339D01*
X0138273Y0065740D02*
X0138621Y0065740D01*
X0141602Y0068937D02*
X0141602Y0068937D01*
X0141602Y0070536D02*
X0141602Y0070536D01*
X0141602Y0072134D02*
X0141602Y0072134D01*
X0143690Y0072134D02*
X0144402Y0072134D01*
X0144402Y0073733D02*
X0130280Y0073733D01*
X0129823Y0080127D02*
X0113802Y0080127D01*
X0113802Y0078529D02*
X0144402Y0078529D01*
X0144402Y0076930D02*
X0113802Y0076930D01*
X0113245Y0075332D02*
X0144402Y0075332D01*
X0142249Y0080127D02*
X0133381Y0080127D01*
X0131602Y0083050D02*
X0135342Y0083060D01*
X0146602Y0083060D01*
X0146602Y0090540D02*
X0147862Y0091800D01*
X0157862Y0091800D01*
X0169087Y0096112D02*
X0186744Y0096112D01*
X0186281Y0096574D02*
X0188877Y0093979D01*
X0192267Y0092575D01*
X0195937Y0092575D01*
X0199328Y0093979D01*
X0201923Y0096574D01*
X0203327Y0099965D01*
X0203327Y0103635D01*
X0201923Y0107026D01*
X0199328Y0109621D01*
X0195937Y0111025D01*
X0192267Y0111025D01*
X0188877Y0109621D01*
X0186281Y0107026D01*
X0184877Y0103635D01*
X0184877Y0099965D01*
X0186281Y0096574D01*
X0185811Y0097711D02*
X0135551Y0097711D01*
X0135551Y0099309D02*
X0185149Y0099309D01*
X0184877Y0100908D02*
X0134976Y0100908D01*
X0128208Y0100908D02*
X0128062Y0100908D01*
X0124591Y0100908D02*
X0123632Y0100908D01*
X0123632Y0099309D02*
X0124591Y0099309D01*
X0124591Y0097711D02*
X0123632Y0097711D01*
X0120162Y0100908D02*
X0021902Y0100908D01*
X0021902Y0102506D02*
X0184877Y0102506D01*
X0185072Y0104105D02*
X0021902Y0104105D01*
X0021902Y0105703D02*
X0185734Y0105703D01*
X0186558Y0107302D02*
X0021902Y0107302D01*
X0021902Y0108900D02*
X0188156Y0108900D01*
X0190997Y0110499D02*
X0021902Y0110499D01*
X0021902Y0112097D02*
X0206302Y0112097D01*
X0206302Y0113696D02*
X0021902Y0113696D01*
X0021902Y0083324D02*
X0054749Y0083324D01*
X0055445Y0081726D02*
X0021902Y0081726D01*
X0021902Y0080127D02*
X0067249Y0080127D01*
X0067249Y0078529D02*
X0021902Y0078529D01*
X0021902Y0076930D02*
X0067249Y0076930D01*
X0067249Y0075332D02*
X0021902Y0075332D01*
X0021902Y0073733D02*
X0068753Y0073733D01*
X0068221Y0072134D02*
X0021902Y0072134D01*
X0021902Y0070536D02*
X0068466Y0070536D01*
X0069683Y0068937D02*
X0021902Y0068937D01*
X0021902Y0067339D02*
X0081902Y0067339D01*
X0081902Y0068937D02*
X0073521Y0068937D01*
X0074738Y0070536D02*
X0081902Y0070536D01*
X0081902Y0072134D02*
X0074983Y0072134D01*
X0074451Y0073733D02*
X0081902Y0073733D01*
X0079749Y0075332D02*
X0075955Y0075332D01*
X0075955Y0076930D02*
X0079749Y0076930D01*
X0079749Y0078529D02*
X0075955Y0078529D01*
X0075955Y0080127D02*
X0079749Y0080127D01*
X0080276Y0081726D02*
X0075428Y0081726D01*
X0075955Y0083324D02*
X0079749Y0083324D01*
X0071602Y0078060D02*
X0071602Y0071800D01*
X0081902Y0065740D02*
X0021902Y0065740D01*
X0021902Y0064142D02*
X0081902Y0064142D01*
X0081314Y0062543D02*
X0021902Y0062543D01*
X0021902Y0060945D02*
X0080721Y0060945D01*
X0080941Y0059346D02*
X0021902Y0059346D01*
X0021902Y0057748D02*
X0081902Y0057748D01*
X0081902Y0056149D02*
X0021902Y0056149D01*
X0021902Y0054551D02*
X0081902Y0054551D01*
X0081902Y0052952D02*
X0021902Y0052952D01*
X0021902Y0051354D02*
X0081902Y0051354D01*
X0081902Y0049755D02*
X0073302Y0049755D01*
X0074700Y0048157D02*
X0081902Y0048157D01*
X0081902Y0046558D02*
X0074983Y0046558D01*
X0074499Y0044960D02*
X0081902Y0044960D01*
X0081902Y0043361D02*
X0073802Y0043361D01*
X0073802Y0041763D02*
X0081902Y0041763D01*
X0081902Y0040164D02*
X0073802Y0040164D01*
X0075955Y0038566D02*
X0079749Y0038566D01*
X0079749Y0036967D02*
X0075955Y0036967D01*
X0071602Y0035540D02*
X0071602Y0046800D01*
X0068504Y0048157D02*
X0021902Y0048157D01*
X0021902Y0049755D02*
X0069902Y0049755D01*
X0068221Y0046558D02*
X0021902Y0046558D01*
X0021902Y0044960D02*
X0068705Y0044960D01*
X0069402Y0043361D02*
X0021902Y0043361D01*
X0021902Y0041763D02*
X0069402Y0041763D01*
X0069402Y0040164D02*
X0021902Y0040164D01*
X0021902Y0038566D02*
X0067249Y0038566D01*
X0067249Y0036967D02*
X0021902Y0036967D01*
X0021902Y0035369D02*
X0067249Y0035369D01*
X0067249Y0033770D02*
X0021902Y0033770D01*
X0021902Y0032172D02*
X0067479Y0032172D01*
X0067249Y0030573D02*
X0063455Y0030573D01*
X0063455Y0025778D02*
X0067249Y0025778D01*
X0067991Y0024179D02*
X0062974Y0024179D01*
X0063455Y0022581D02*
X0069402Y0022581D01*
X0054749Y0028975D02*
X0021902Y0028975D01*
X0021902Y0030573D02*
X0054749Y0030573D01*
X0084102Y0028060D02*
X0084102Y0024300D01*
X0086602Y0021800D01*
X0087713Y0024179D02*
X0098370Y0024179D01*
X0099968Y0025778D02*
X0088455Y0025778D01*
X0088455Y0027376D02*
X0100642Y0027376D01*
X0091403Y0028975D02*
X0088455Y0028975D01*
X0088455Y0030573D02*
X0091403Y0030573D01*
X0089358Y0041763D02*
X0086302Y0041763D01*
X0086302Y0043361D02*
X0088331Y0043361D01*
X0088221Y0044960D02*
X0086302Y0044960D01*
X0086302Y0046558D02*
X0089079Y0046558D01*
X0089402Y0048157D02*
X0086302Y0048157D01*
X0086302Y0049755D02*
X0087415Y0049755D01*
X0087249Y0051354D02*
X0086302Y0051354D01*
X0086302Y0052952D02*
X0087249Y0052952D01*
X0087249Y0054551D02*
X0086302Y0054551D01*
X0086302Y0056149D02*
X0087249Y0056149D01*
X0086849Y0057748D02*
X0086302Y0057748D01*
X0091602Y0053060D02*
X0091602Y0044300D01*
X0107941Y0045284D02*
X0107941Y0042961D01*
X0114102Y0036800D01*
X0114815Y0040164D02*
X0117627Y0040164D01*
X0116028Y0041763D02*
X0112251Y0041763D01*
X0110652Y0043361D02*
X0114429Y0043361D01*
X0112831Y0044960D02*
X0110141Y0044960D01*
X0110030Y0046558D02*
X0111232Y0046558D01*
X0114258Y0049755D02*
X0118101Y0049755D01*
X0116502Y0051354D02*
X0112659Y0051354D01*
X0111061Y0052952D02*
X0115711Y0052952D01*
X0115856Y0048157D02*
X0120862Y0048157D01*
X0117455Y0046558D02*
X0130749Y0046558D01*
X0129151Y0044960D02*
X0125309Y0044960D01*
X0122895Y0044960D02*
X0119054Y0044960D01*
X0127342Y0048157D02*
X0132348Y0048157D01*
X0133946Y0049755D02*
X0130104Y0049755D01*
X0131702Y0051354D02*
X0135545Y0051354D01*
X0137143Y0052952D02*
X0132493Y0052952D01*
X0133155Y0054551D02*
X0159349Y0054551D01*
X0159428Y0056149D02*
X0133327Y0056149D01*
X0133327Y0057748D02*
X0159749Y0057748D01*
X0164582Y0052580D02*
X0164582Y0048701D01*
X0167292Y0048701D01*
X0167750Y0048823D01*
X0168160Y0049060D01*
X0168495Y0049396D01*
X0168732Y0049806D01*
X0168855Y0050264D01*
X0168855Y0052580D01*
X0164582Y0052580D01*
X0164582Y0051354D02*
X0163623Y0051354D01*
X0163623Y0049755D02*
X0164582Y0049755D01*
X0168703Y0049755D02*
X0184656Y0049755D01*
X0186407Y0051354D02*
X0168855Y0051354D01*
X0156602Y0045973D02*
X0156602Y0040550D01*
X0160352Y0036800D01*
X0160352Y0031810D01*
X0160342Y0031800D01*
X0166602Y0031800D01*
X0164646Y0028975D02*
X0164301Y0028975D01*
X0160822Y0025778D02*
X0159863Y0025778D01*
X0159863Y0024179D02*
X0160822Y0024179D01*
X0160822Y0022581D02*
X0159863Y0022581D01*
X0159863Y0020982D02*
X0160822Y0020982D01*
X0160822Y0019384D02*
X0159863Y0019384D01*
X0159863Y0017785D02*
X0160822Y0017785D01*
X0152862Y0031800D02*
X0151602Y0033060D01*
X0149270Y0049755D02*
X0148934Y0049755D01*
X0153934Y0049755D02*
X0154270Y0049755D01*
X0121580Y0065740D02*
X0116154Y0065740D01*
X0114555Y0064142D02*
X0118398Y0064142D01*
X0116799Y0062543D02*
X0112957Y0062543D01*
X0111358Y0060945D02*
X0115834Y0060945D01*
X0111530Y0067339D02*
X0110075Y0067339D01*
X0110141Y0068937D02*
X0113128Y0068937D01*
X0114727Y0070536D02*
X0110141Y0070536D01*
X0110141Y0072134D02*
X0116325Y0072134D01*
X0117924Y0073733D02*
X0111646Y0073733D01*
X0108621Y0076930D02*
X0107542Y0076930D01*
X0109301Y0078529D02*
X0109402Y0078529D01*
X0109402Y0080127D02*
X0109301Y0080127D01*
X0109301Y0081726D02*
X0109402Y0081726D01*
X0109402Y0083324D02*
X0109301Y0083324D01*
X0109301Y0084923D02*
X0109402Y0084923D01*
X0109402Y0086521D02*
X0107542Y0086521D01*
X0107542Y0088120D02*
X0109402Y0088120D01*
X0109402Y0089718D02*
X0106795Y0089718D01*
X0105197Y0091317D02*
X0109402Y0091317D01*
X0109402Y0092915D02*
X0103598Y0092915D01*
X0108277Y0094514D02*
X0077427Y0094514D01*
X0067249Y0083324D02*
X0063455Y0083324D01*
X0062759Y0081726D02*
X0067776Y0081726D01*
X0113802Y0094514D02*
X0119753Y0094514D01*
X0156602Y0080540D02*
X0157862Y0081800D01*
X0158802Y0076930D02*
X0188622Y0076930D01*
X0189582Y0076930D02*
X0197624Y0076930D01*
X0197624Y0076800D02*
X0201602Y0076800D01*
X0201602Y0076800D01*
X0197624Y0076800D01*
X0197624Y0077192D01*
X0197777Y0077960D01*
X0198077Y0078684D01*
X0198512Y0079336D01*
X0199066Y0079890D01*
X0199718Y0080325D01*
X0200442Y0080625D01*
X0201210Y0080778D01*
X0201602Y0080778D01*
X0201602Y0076800D01*
X0201602Y0076800D01*
X0201602Y0076800D01*
X0201602Y0072822D01*
X0201210Y0072822D01*
X0200442Y0072975D01*
X0199718Y0073275D01*
X0199066Y0073710D01*
X0198512Y0074264D01*
X0198077Y0074916D01*
X0197777Y0075640D01*
X0197624Y0076408D01*
X0197624Y0076800D01*
X0197905Y0075332D02*
X0194741Y0075332D01*
X0194741Y0077280D02*
X0194741Y0080876D01*
X0194618Y0081333D01*
X0194381Y0081744D01*
X0194046Y0082079D01*
X0193635Y0082316D01*
X0193178Y0082439D01*
X0189582Y0082439D01*
X0189582Y0077280D01*
X0194741Y0077280D01*
X0194741Y0078529D02*
X0198012Y0078529D01*
X0199421Y0080127D02*
X0194741Y0080127D01*
X0194392Y0081726D02*
X0206302Y0081726D01*
X0206302Y0083324D02*
X0174630Y0083324D01*
X0174983Y0081726D02*
X0183813Y0081726D01*
X0183463Y0080127D02*
X0174569Y0080127D01*
X0169560Y0088120D02*
X0206302Y0088120D01*
X0206302Y0089718D02*
X0169701Y0089718D01*
X0169701Y0091317D02*
X0206302Y0091317D01*
X0206302Y0092915D02*
X0196758Y0092915D01*
X0199862Y0094514D02*
X0206302Y0094514D01*
X0206302Y0096112D02*
X0201460Y0096112D01*
X0202393Y0097711D02*
X0206302Y0097711D01*
X0206302Y0099309D02*
X0203055Y0099309D01*
X0203327Y0100908D02*
X0206302Y0100908D01*
X0206302Y0102506D02*
X0203327Y0102506D01*
X0203132Y0104105D02*
X0206302Y0104105D01*
X0206302Y0105703D02*
X0202470Y0105703D01*
X0201646Y0107302D02*
X0206302Y0107302D01*
X0206302Y0108900D02*
X0200048Y0108900D01*
X0197207Y0110499D02*
X0206302Y0110499D01*
X0188342Y0094514D02*
X0169701Y0094514D01*
X0169701Y0092915D02*
X0191446Y0092915D01*
X0189582Y0081726D02*
X0188623Y0081726D01*
X0188623Y0080127D02*
X0189582Y0080127D01*
X0189582Y0078529D02*
X0188623Y0078529D01*
X0194741Y0073733D02*
X0199043Y0073733D01*
X0201602Y0073733D02*
X0201602Y0073733D01*
X0201602Y0072822D02*
X0201994Y0072822D01*
X0202762Y0072975D01*
X0203486Y0073275D01*
X0204138Y0073710D01*
X0204692Y0074264D01*
X0205127Y0074916D01*
X0205427Y0075640D01*
X0205580Y0076408D01*
X0205580Y0076800D01*
X0205580Y0077192D01*
X0205427Y0077960D01*
X0205127Y0078684D01*
X0204692Y0079336D01*
X0204138Y0079890D01*
X0203486Y0080325D01*
X0202762Y0080625D01*
X0201994Y0080778D01*
X0201602Y0080778D01*
X0201602Y0076800D01*
X0201602Y0072822D01*
X0201602Y0075332D02*
X0201602Y0075332D01*
X0201602Y0076800D02*
X0201602Y0076800D01*
X0205580Y0076800D01*
X0201602Y0076800D01*
X0201602Y0076930D02*
X0201602Y0076930D01*
X0201602Y0078529D02*
X0201602Y0078529D01*
X0201602Y0080127D02*
X0201602Y0080127D01*
X0203783Y0080127D02*
X0206302Y0080127D01*
X0206302Y0078529D02*
X0205192Y0078529D01*
X0205580Y0076930D02*
X0206302Y0076930D01*
X0206302Y0075332D02*
X0205299Y0075332D01*
X0206302Y0073733D02*
X0204161Y0073733D01*
X0206302Y0072134D02*
X0194542Y0072134D01*
X0192775Y0070536D02*
X0206302Y0070536D01*
X0206302Y0068937D02*
X0204525Y0068937D01*
X0204635Y0068827D02*
X0203629Y0069833D01*
X0202314Y0070378D01*
X0200890Y0070378D01*
X0199575Y0069833D01*
X0198569Y0068827D01*
X0198024Y0067512D01*
X0198024Y0066088D01*
X0198569Y0064773D01*
X0199575Y0063767D01*
X0200890Y0063222D01*
X0202314Y0063222D01*
X0203629Y0063767D01*
X0204635Y0064773D01*
X0205180Y0066088D01*
X0205180Y0067512D01*
X0204635Y0068827D01*
X0205180Y0067339D02*
X0206302Y0067339D01*
X0206302Y0065740D02*
X0205036Y0065740D01*
X0204004Y0064142D02*
X0206302Y0064142D01*
X0206302Y0062543D02*
X0192254Y0062543D01*
X0192366Y0060945D02*
X0206302Y0060945D01*
X0206302Y0059346D02*
X0204116Y0059346D01*
X0203629Y0059833D02*
X0204635Y0058827D01*
X0205180Y0057512D01*
X0205180Y0056088D01*
X0204635Y0054773D01*
X0203629Y0053767D01*
X0202314Y0053222D01*
X0200890Y0053222D01*
X0199575Y0053767D01*
X0198569Y0054773D01*
X0198024Y0056088D01*
X0198024Y0057512D01*
X0198569Y0058827D01*
X0199575Y0059833D01*
X0200890Y0060378D01*
X0202314Y0060378D01*
X0203629Y0059833D01*
X0205082Y0057748D02*
X0206302Y0057748D01*
X0206302Y0056149D02*
X0205180Y0056149D01*
X0204413Y0054551D02*
X0206302Y0054551D01*
X0206302Y0052952D02*
X0192663Y0052952D01*
X0193841Y0054551D02*
X0198791Y0054551D01*
X0198024Y0056149D02*
X0194341Y0056149D01*
X0194341Y0057748D02*
X0198122Y0057748D01*
X0199088Y0059346D02*
X0193718Y0059346D01*
X0193671Y0064142D02*
X0199200Y0064142D01*
X0198168Y0065740D02*
X0194333Y0065740D01*
X0194341Y0067339D02*
X0198024Y0067339D01*
X0198680Y0068937D02*
X0193887Y0068937D01*
X0191797Y0051354D02*
X0206302Y0051354D01*
X0206302Y0049755D02*
X0203707Y0049755D01*
X0203629Y0049833D02*
X0202314Y0050378D01*
X0200890Y0050378D01*
X0199575Y0049833D01*
X0198569Y0048827D01*
X0198024Y0047512D01*
X0198024Y0046088D01*
X0198569Y0044773D01*
X0199575Y0043767D01*
X0200890Y0043222D01*
X0202314Y0043222D01*
X0203629Y0043767D01*
X0204635Y0044773D01*
X0205180Y0046088D01*
X0205180Y0047512D01*
X0204635Y0048827D01*
X0203629Y0049833D01*
X0204913Y0048157D02*
X0206302Y0048157D01*
X0206302Y0046558D02*
X0205180Y0046558D01*
X0204713Y0044960D02*
X0206302Y0044960D01*
X0206302Y0043361D02*
X0202650Y0043361D01*
X0200554Y0043361D02*
X0193072Y0043361D01*
X0194010Y0044960D02*
X0198492Y0044960D01*
X0198024Y0046558D02*
X0194341Y0046558D01*
X0194210Y0048157D02*
X0198291Y0048157D01*
X0199497Y0049755D02*
X0193548Y0049755D01*
X0124591Y0012990D02*
X0123632Y0012990D01*
M02*
