G75*
%MOIN*%
%OFA0B0*%
%FSLAX25Y25*%
%IPPOS*%
%LPD*%
%AMOC8*
5,1,8,0,0,1.08239X$1,22.5*
%
%ADD10C,0.13450*%
%ADD11R,0.06506X0.05718*%
%ADD12R,0.05718X0.06506*%
%ADD13R,0.01978X0.05324*%
%ADD14R,0.08277X0.08277*%
%ADD15C,0.08277*%
%ADD16C,0.04956*%
%ADD17R,0.02962X0.06506*%
%ADD18C,0.04562*%
D10*
X0124102Y0056800D03*
X0194102Y0016800D03*
X0194102Y0101800D03*
D11*
X0146602Y0090540D03*
X0146602Y0083060D03*
X0164102Y0060540D03*
X0164102Y0053060D03*
X0141602Y0030540D03*
X0141602Y0023060D03*
X0091602Y0053060D03*
X0091602Y0060540D03*
X0084102Y0078060D03*
X0084102Y0085540D03*
X0071602Y0085540D03*
X0071602Y0078060D03*
X0059102Y0085560D03*
X0059102Y0093040D03*
X0071602Y0035540D03*
X0071602Y0028060D03*
X0059102Y0028040D03*
X0059102Y0020560D03*
X0084102Y0028060D03*
X0084102Y0035540D03*
D12*
X0095362Y0031800D03*
X0102842Y0031800D03*
X0124112Y0016800D03*
X0131592Y0016800D03*
X0152862Y0021800D03*
X0160342Y0021800D03*
X0160342Y0031800D03*
X0152862Y0031800D03*
X0157862Y0081800D03*
X0165342Y0081800D03*
X0165342Y0091800D03*
X0157862Y0091800D03*
X0131592Y0096800D03*
X0124112Y0096800D03*
X0105342Y0081800D03*
X0097862Y0081800D03*
D13*
X0100263Y0068316D03*
X0102823Y0068316D03*
X0105382Y0068316D03*
X0107941Y0068316D03*
X0107941Y0045284D03*
X0105382Y0045284D03*
X0102823Y0045284D03*
X0100263Y0045284D03*
D14*
X0189102Y0076800D03*
D15*
X0189102Y0066800D03*
X0189102Y0056800D03*
X0189102Y0046800D03*
D16*
X0201602Y0046800D03*
X0201602Y0056800D03*
X0201602Y0066800D03*
X0201602Y0076800D03*
D17*
X0156602Y0067627D03*
X0151602Y0067627D03*
X0146602Y0067627D03*
X0141602Y0067627D03*
X0141602Y0045973D03*
X0146602Y0045973D03*
X0151602Y0045973D03*
X0156602Y0045973D03*
D18*
X0059102Y0011800D03*
X0069102Y0019300D03*
X0060352Y0038050D03*
X0071602Y0046800D03*
X0069102Y0054300D03*
X0084102Y0060550D03*
X0069102Y0066800D03*
X0071602Y0071800D03*
X0062852Y0078050D03*
X0066602Y0093050D03*
X0066602Y0099300D03*
X0124102Y0071800D03*
X0131602Y0083050D03*
X0164102Y0068050D03*
X0171602Y0081800D03*
X0124102Y0041800D03*
X0114102Y0036800D03*
X0131602Y0030550D03*
X0166602Y0031800D03*
X0091602Y0044300D03*
M02*
