G75*
%MOIN*%
%OFA0B0*%
%FSLAX25Y25*%
%IPPOS*%
%LPD*%
%AMOC8*
5,1,8,0,0,1.08239X$1,22.5*
%
%ADD10C,0.11230*%
%ADD11R,0.07135X0.03710*%
%ADD12R,0.08277X0.08277*%
%ADD13C,0.08277*%
%ADD14C,0.04169*%
D10*
X0016435Y0012375D03*
X0016435Y0077375D03*
X0127685Y0077375D03*
X0127685Y0012375D03*
D11*
X0090972Y0021125D03*
X0090933Y0028212D03*
X0075185Y0028212D03*
X0075185Y0021125D03*
X0075185Y0061125D03*
X0075185Y0068212D03*
X0090933Y0068212D03*
X0090972Y0061125D03*
D12*
X0022685Y0029875D03*
D13*
X0022685Y0039875D03*
X0022685Y0049875D03*
X0022685Y0059875D03*
D14*
X0016435Y0049875D03*
X0016435Y0039875D03*
X0035185Y0048000D03*
X0039560Y0048000D03*
X0055810Y0061750D03*
X0060185Y0061750D03*
X0067060Y0066125D03*
X0067060Y0070500D03*
X0067060Y0074875D03*
X0060185Y0078000D03*
X0056435Y0078000D03*
X0051435Y0078000D03*
X0047060Y0078000D03*
X0041435Y0076125D03*
X0041435Y0080500D03*
X0067060Y0079250D03*
X0083310Y0078625D03*
X0083310Y0074875D03*
X0097060Y0066125D03*
X0100185Y0062375D03*
X0107685Y0061125D03*
X0118310Y0066125D03*
X0128310Y0063000D03*
X0128310Y0058625D03*
X0107685Y0054250D03*
X0107685Y0049875D03*
X0107685Y0041125D03*
X0107685Y0036750D03*
X0110185Y0028625D03*
X0103935Y0028625D03*
X0100185Y0028625D03*
X0090185Y0034875D03*
X0086435Y0034875D03*
X0082685Y0034875D03*
X0092685Y0047375D03*
X0090810Y0054875D03*
X0087060Y0054875D03*
X0128310Y0036750D03*
X0128310Y0032375D03*
X0122685Y0026125D03*
X0118935Y0025500D03*
X0105185Y0016125D03*
X0105185Y0012375D03*
X0093310Y0009875D03*
X0088935Y0009875D03*
X0073935Y0011125D03*
X0073935Y0015500D03*
X0066435Y0011125D03*
X0062060Y0011125D03*
X0054560Y0011125D03*
X0050185Y0011125D03*
X0041435Y0010500D03*
X0041435Y0014875D03*
X0039560Y0031750D03*
X0035810Y0031750D03*
M02*
