G75*
%MOIN*%
%OFA0B0*%
%FSLAX25Y25*%
%IPPOS*%
%LPD*%
%AMOC8*
5,1,8,0,0,1.08239X$1,22.5*
%
%ADD10R,0.06535X0.03110*%
%ADD11R,0.07677X0.07677*%
%ADD12C,0.07677*%
%ADD13C,0.03569*%
%ADD14C,0.01200*%
D10*
X0075185Y0021125D03*
X0075185Y0028212D03*
X0090933Y0028212D03*
X0090972Y0021125D03*
X0090972Y0061125D03*
X0090933Y0068212D03*
X0075185Y0068212D03*
X0075185Y0061125D03*
D11*
X0022685Y0029875D03*
D12*
X0022685Y0039875D03*
X0022685Y0049875D03*
X0022685Y0059875D03*
D13*
X0041435Y0010500D03*
X0041435Y0014875D03*
X0050185Y0011125D03*
X0054560Y0011125D03*
X0062060Y0011125D03*
X0066435Y0011125D03*
X0073935Y0011125D03*
X0073935Y0015500D03*
X0088935Y0009875D03*
X0093310Y0009875D03*
X0105185Y0012375D03*
X0105185Y0016125D03*
X0118935Y0025500D03*
X0122685Y0026125D03*
X0128310Y0032375D03*
X0128310Y0036750D03*
X0110185Y0028625D03*
X0103935Y0028625D03*
X0100185Y0028625D03*
X0090185Y0034875D03*
X0086435Y0034875D03*
X0082685Y0034875D03*
X0092685Y0047375D03*
X0090810Y0054875D03*
X0087060Y0054875D03*
X0100185Y0062375D03*
X0097060Y0066125D03*
X0107685Y0061125D03*
X0118310Y0066125D03*
X0128310Y0063000D03*
X0128310Y0058625D03*
X0107685Y0054250D03*
X0107685Y0049875D03*
X0107685Y0041125D03*
X0107685Y0036750D03*
X0067060Y0066125D03*
X0067060Y0070500D03*
X0067060Y0074875D03*
X0060185Y0078000D03*
X0056435Y0078000D03*
X0051435Y0078000D03*
X0047060Y0078000D03*
X0041435Y0076125D03*
X0041435Y0080500D03*
X0067060Y0079250D03*
X0083310Y0078625D03*
X0083310Y0074875D03*
X0060185Y0061750D03*
X0055810Y0061750D03*
X0039560Y0048000D03*
X0035185Y0048000D03*
X0016435Y0049875D03*
X0016435Y0039875D03*
X0035810Y0031750D03*
X0039560Y0031750D03*
D14*
X0073935Y0015500D02*
X0075185Y0016750D01*
X0075185Y0021125D01*
X0075185Y0028212D02*
X0076435Y0029462D01*
X0076435Y0037375D01*
X0080185Y0041125D01*
X0107685Y0041125D01*
X0107685Y0049875D02*
X0102222Y0049875D01*
X0090972Y0061125D01*
X0097060Y0066125D02*
X0094973Y0068212D01*
X0090933Y0068212D01*
X0091435Y0068335D01*
X0086435Y0072375D02*
X0096435Y0072375D01*
X0107685Y0061125D01*
X0087060Y0054875D02*
X0080810Y0061125D01*
X0075185Y0061125D01*
X0075185Y0068212D02*
X0082272Y0068212D01*
X0086435Y0072375D01*
X0090185Y0034875D02*
X0090185Y0028960D01*
X0090933Y0028212D01*
X0090972Y0021125D02*
X0102685Y0021125D01*
X0110185Y0028625D01*
M02*
