  0
SECTION
  2
HEADER
  9
$ACADVER
  1
AC1009
  9
$FILLMODE
 70
0
  9
$EXTMIN
 10
-0.054350
 20
-0.032500
 30
0.000000
  9
$EXTMAX
 10
1.516022
 20
0.858000
 30
0.000000
  0
ENDSEC
  0
SECTION
  2
TABLES
  0
TABLE
  2
LTYPE
 70
1
  0
LTYPE
  2
CONTINUOUS
 70
64
  3
Solid line
 72
65
 73
0
 40
0
  0
ENDTAB
  0
TABLE
  2
LAYER
 70
255
  0
LAYER
  2
1
 70
64
 62
22
  6
CONTINUOUS
  0
LAYER
  2
16
 70
64
 62
175
  6
CONTINUOUS
  0
LAYER
  2
17
 70
64
 62
82
  6
CONTINUOUS
  0
LAYER
  2
18
 70
64
 62
82
  6
CONTINUOUS
  0
LAYER
  2
19
 70
64
 62
53
  6
CONTINUOUS
  0
LAYER
  2
20
 70
64
 62
7
  6
CONTINUOUS
  0
LAYER
  2
21
 70
64
 62
253
  6
CONTINUOUS
  0
LAYER
  2
22
 70
64
 62
253
  6
CONTINUOUS
  0
LAYER
  2
23
 70
64
 62
7
  6
CONTINUOUS
  0
LAYER
  2
24
 70
64
 62
7
  6
CONTINUOUS
  0
LAYER
  2
25
 70
64
 62
253
  6
CONTINUOUS
  0
LAYER
  2
26
 70
64
 62
253
  6
CONTINUOUS
  0
LAYER
  2
31
 70
64
 62
253
  6
CONTINUOUS
  0
LAYER
  2
32
 70
64
 62
253
  6
CONTINUOUS
  0
LAYER
  2
33
 70
64
 62
53
  6
CONTINUOUS
  0
LAYER
  2
34
 70
64
 62
53
  6
CONTINUOUS
  0
LAYER
  2
35
 70
64
 62
253
  6
CONTINUOUS
  0
LAYER
  2
36
 70
64
 62
253
  6
CONTINUOUS
  0
LAYER
  2
37
 70
64
 62
253
  6
CONTINUOUS
  0
LAYER
  2
38
 70
64
 62
253
  6
CONTINUOUS
  0
LAYER
  2
39
 70
64
 62
22
  6
CONTINUOUS
  0
LAYER
  2
40
 70
64
 62
175
  6
CONTINUOUS
  0
LAYER
  2
41
 70
64
 62
22
  6
CONTINUOUS
  0
LAYER
  2
42
 70
64
 62
175
  6
CONTINUOUS
  0
LAYER
  2
43
 70
64
 62
82
  6
CONTINUOUS
  0
LAYER
  2
44
 70
64
 62
253
  6
CONTINUOUS
  0
LAYER
  2
45
 70
64
 62
253
  6
CONTINUOUS
  0
LAYER
  2
46
 70
64
 62
140
  6
CONTINUOUS
  0
LAYER
  2
47
 70
64
 62
253
  6
CONTINUOUS
  0
LAYER
  2
48
 70
64
 62
253
  6
CONTINUOUS
  0
LAYER
  2
49
 70
64
 62
253
  6
CONTINUOUS
  0
LAYER
  2
51
 70
64
 62
253
  6
CONTINUOUS
  0
LAYER
  2
52
 70
64
 62
253
  6
CONTINUOUS
  0
ENDTAB
  0
ENDSEC
  0
SECTION
  2
BLOCKS
  0
BLOCK
  8
0
  2
RECT
 70
64
 10
0.000000
 20
0.000000
 30
0.000000
  3
RECT
  0
SOLID
  8
0
 10
-0.500000
 20
-0.500000
 30
0.000000
 11
0.500000
 21
-0.500000
 31
0.000000
 12
-0.500000
 22
0.500000
 32
0.000000
 13
0.500000
 23
0.500000
 33
0.000000
  0
ENDBLK
  8
0
  0
BLOCK
  8
0
  2
PIE
 70
64
 10
0.000000
 20
0.000000
 30
0.000000
  3
PIE
  0
CIRCLE
  8
0
 10
0.000000
 20
0.000000
 30
0.000000
 40
0.500000
  0
ENDBLK
  8
0
  0
BLOCK
  8
0
  2
OCTAGONP
 70
64
 10
0.000000
 20
0.000000
 30
0.000000
  3
OCTAGONP
  0
POLYLINE
  8
0
 66
1
 10
0.000000
 20
0.000000
 30
0.000000
 40
0.000000
 41
0.000000
 70
1
  0
VERTEX
  8
0
 10
-0.500000
 20
-0.207107
 30
0.000000
  0
VERTEX
  8
0
 10
-0.500000
 20
0.207107
 30
0.000000
  0
VERTEX
  8
0
 10
-0.207107
 20
0.500000
 30
0.000000
  0
VERTEX
  8
0
 10
0.207107
 20
0.500000
 30
0.000000
  0
VERTEX
  8
0
 10
0.500000
 20
0.207107
 30
0.000000
  0
VERTEX
  8
0
 10
0.500000
 20
-0.207107
 30
0.000000
  0
VERTEX
  8
0
 10
0.207107
 20
-0.500000
 30
0.000000
  0
VERTEX
  8
0
 10
-0.207107
 20
-0.500000
 30
0.000000
  0
SEQEND
  8
0
  0
ENDBLK
  8
0
  0
BLOCK
  8
0
  2
SQUAREP
 70
64
 10
0.000000
 20
0.000000
 30
0.000000
  3
SQUAREP
  0
SOLID
  8
0
 10
-0.500000
 20
-0.500000
 30
0.000000
 11
0.500000
 21
-0.500000
 31
0.000000
 12
-0.500000
 22
0.500000
 32
0.000000
 13
0.500000
 23
0.500000
 33
0.000000
  0
ENDBLK
  8
0
  0
BLOCK
  8
0
  2
ROUNDP
 70
64
 10
0.000000
 20
0.000000
 30
0.000000
  3
ROUNDP
  0
CIRCLE
  8
0
 10
0.000000
 20
0.000000
 30
0.000000
 40
0.500000
  0
ENDBLK
  8
0
  0
BLOCK
  8
0
  2
ANNULUSP
 70
64
 10
0.000000
 20
0.000000
 30
0.000000
  3
ANNULUSP
  0
CIRCLE
  8
0
 10
0.000000
 20
0.000000
 30
0.000000
 40
0.500000
  0
ENDBLK
  8
0
  0
BLOCK
  8
0
  2
THERMALP
 70
64
 10
0.000000
 20
0.000000
 30
0.000000
  3
THERMALP
  0
LINE
  8
0
 10
-0.237868
 20
0.450000
 30
0.000000
 11
0.237868
 21
0.450000
 31
0.000000
  0
LINE
  8
0
 10
0.450000
 20
0.237868
 30
0.000000
 11
0.450000
 21
-0.237868
 31
0.000000
  0
LINE
  8
0
 10
0.237868
 20
-0.450000
 30
0.000000
 11
-0.237868
 21
-0.450000
 31
0.000000
  0
LINE
  8
0
 10
-0.450000
 20
-0.237868
 30
0.000000
 11
-0.450000
 21
0.237868
 31
0.000000
  0
ENDBLK
  8
0
  0
BLOCK
  8
0
  2
OCTAGONV
 70
64
 10
0.000000
 20
0.000000
 30
0.000000
  3
OCTAGONV
  0
POLYLINE
  8
0
 66
1
 10
0.000000
 20
0.000000
 30
0.000000
 40
0.000000
 41
0.000000
 70
1
  0
VERTEX
  8
0
 10
-0.500000
 20
-0.207107
 30
0.000000
  0
VERTEX
  8
0
 10
-0.500000
 20
0.207107
 30
0.000000
  0
VERTEX
  8
0
 10
-0.207107
 20
0.500000
 30
0.000000
  0
VERTEX
  8
0
 10
0.207107
 20
0.500000
 30
0.000000
  0
VERTEX
  8
0
 10
0.500000
 20
0.207107
 30
0.000000
  0
VERTEX
  8
0
 10
0.500000
 20
-0.207107
 30
0.000000
  0
VERTEX
  8
0
 10
0.207107
 20
-0.500000
 30
0.000000
  0
VERTEX
  8
0
 10
-0.207107
 20
-0.500000
 30
0.000000
  0
SEQEND
  8
0
  0
ENDBLK
  8
0
  0
BLOCK
  8
0
  2
SQUAREV
 70
64
 10
0.000000
 20
0.000000
 30
0.000000
  3
SQUAREV
  0
SOLID
  8
0
 10
-0.500000
 20
-0.500000
 30
0.000000
 11
0.500000
 21
-0.500000
 31
0.000000
 12
-0.500000
 22
0.500000
 32
0.000000
 13
0.500000
 23
0.500000
 33
0.000000
  0
ENDBLK
  8
0
  0
BLOCK
  8
0
  2
ROUNDV
 70
64
 10
0.000000
 20
0.000000
 30
0.000000
  3
ROUNDV
  0
CIRCLE
  8
0
 10
0.000000
 20
0.000000
 30
0.000000
 40
0.500000
  0
ENDBLK
  8
0
  0
BLOCK
  8
0
  2
ANNULUSV
 70
64
 10
0.000000
 20
0.000000
 30
0.000000
  3
ANNULUSV
  0
CIRCLE
  8
0
 10
0.000000
 20
0.000000
 30
0.000000
 40
0.500000
  0
ENDBLK
  8
0
  0
BLOCK
  8
0
  2
THERMALV
 70
64
 10
0.000000
 20
0.000000
 30
0.000000
  3
THERMALV
  0
LINE
  8
0
 10
-0.237868
 20
0.450000
 30
0.000000
 11
0.237868
 21
0.450000
 31
0.000000
  0
LINE
  8
0
 10
0.450000
 20
0.237868
 30
0.000000
 11
0.450000
 21
-0.237868
 31
0.000000
  0
LINE
  8
0
 10
0.237868
 20
-0.450000
 30
0.000000
 11
-0.237868
 21
-0.450000
 31
0.000000
  0
LINE
  8
0
 10
-0.450000
 20
-0.237868
 30
0.000000
 11
-0.450000
 21
0.237868
 31
0.000000
  0
ENDBLK
  8
0
  0
ENDSEC
  0
SECTION
  2
ENTITIES
  0
LINE
  8
20
 10
0.000000
 20
0.000000
 30
0.000000
 11
1.312500
 21
0.000000
 31
0.000000
  0
LINE
  8
20
 10
1.312500
 20
0.000000
 30
0.000000
 11
1.312500
 21
0.850000
 31
0.000000
  0
LINE
  8
20
 10
1.312500
 20
0.850000
 30
0.000000
 11
0.000000
 21
0.850000
 31
0.000000
  0
LINE
  8
20
 10
0.000000
 20
0.850000
 30
0.000000
 11
0.000000
 21
0.000000
 31
0.000000
  0
LINE
  8
21
 10
0.408563
 20
0.823039
 30
0.000000
 11
0.408563
 21
0.792346
 31
0.000000
  0
LINE
  8
21
 10
0.408563
 20
0.792346
 30
0.000000
 11
0.423910
 21
0.777000
 31
0.000000
  0
LINE
  8
21
 10
0.423910
 20
0.777000
 30
0.000000
 11
0.439256
 21
0.792346
 31
0.000000
  0
LINE
  8
21
 10
0.439256
 20
0.792346
 30
0.000000
 11
0.439256
 21
0.823039
 31
0.000000
  0
LINE
  8
21
 10
0.477622
 20
0.777000
 30
0.000000
 11
0.462276
 21
0.777000
 31
0.000000
  0
LINE
  8
21
 10
0.462276
 20
0.777000
 30
0.000000
 11
0.454603
 21
0.784673
 31
0.000000
  0
LINE
  8
21
 10
0.454603
 20
0.784673
 30
0.000000
 11
0.454603
 21
0.800020
 31
0.000000
  0
LINE
  8
21
 10
0.454603
 20
0.800020
 30
0.000000
 11
0.462276
 21
0.807693
 31
0.000000
  0
LINE
  8
21
 10
0.462276
 20
0.807693
 30
0.000000
 11
0.477622
 21
0.807693
 31
0.000000
  0
LINE
  8
21
 10
0.477622
 20
0.807693
 30
0.000000
 11
0.485295
 21
0.800020
 31
0.000000
  0
LINE
  8
21
 10
0.485295
 20
0.800020
 30
0.000000
 11
0.485295
 21
0.792346
 31
0.000000
  0
LINE
  8
21
 10
0.485295
 20
0.792346
 30
0.000000
 11
0.454603
 21
0.792346
 31
0.000000
  0
LINE
  8
21
 10
0.500642
 20
0.823039
 30
0.000000
 11
0.508315
 21
0.823039
 31
0.000000
  0
LINE
  8
21
 10
0.508315
 20
0.823039
 30
0.000000
 11
0.508315
 21
0.777000
 31
0.000000
  0
LINE
  8
21
 10
0.500642
 20
0.777000
 30
0.000000
 11
0.515988
 21
0.777000
 31
0.000000
  0
LINE
  8
21
 10
0.539008
 20
0.777000
 30
0.000000
 11
0.554354
 21
0.777000
 31
0.000000
  0
LINE
  8
21
 10
0.554354
 20
0.777000
 30
0.000000
 11
0.562027
 21
0.784673
 31
0.000000
  0
LINE
  8
21
 10
0.562027
 20
0.784673
 30
0.000000
 11
0.562027
 21
0.800020
 31
0.000000
  0
LINE
  8
21
 10
0.562027
 20
0.800020
 30
0.000000
 11
0.554354
 21
0.807693
 31
0.000000
  0
LINE
  8
21
 10
0.554354
 20
0.807693
 30
0.000000
 11
0.539008
 21
0.807693
 31
0.000000
  0
LINE
  8
21
 10
0.539008
 20
0.807693
 30
0.000000
 11
0.531335
 21
0.800020
 31
0.000000
  0
LINE
  8
21
 10
0.531335
 20
0.800020
 30
0.000000
 11
0.531335
 21
0.784673
 31
0.000000
  0
LINE
  8
21
 10
0.531335
 20
0.784673
 30
0.000000
 11
0.539008
 21
0.777000
 31
0.000000
  0
LINE
  8
21
 10
0.608067
 20
0.807693
 30
0.000000
 11
0.585047
 21
0.807693
 31
0.000000
  0
LINE
  8
21
 10
0.585047
 20
0.807693
 30
0.000000
 11
0.577374
 21
0.800020
 31
0.000000
  0
LINE
  8
21
 10
0.577374
 20
0.800020
 30
0.000000
 11
0.577374
 21
0.784673
 31
0.000000
  0
LINE
  8
21
 10
0.577374
 20
0.784673
 30
0.000000
 11
0.585047
 21
0.777000
 31
0.000000
  0
LINE
  8
21
 10
0.585047
 20
0.777000
 30
0.000000
 11
0.608067
 21
0.777000
 31
0.000000
  0
LINE
  8
21
 10
0.623413
 20
0.807693
 30
0.000000
 11
0.631086
 21
0.807693
 31
0.000000
  0
LINE
  8
21
 10
0.631086
 20
0.807693
 30
0.000000
 11
0.631086
 21
0.777000
 31
0.000000
  0
LINE
  8
21
 10
0.623413
 20
0.777000
 30
0.000000
 11
0.638759
 21
0.777000
 31
0.000000
  0
LINE
  8
21
 10
0.631086
 20
0.830712
 30
0.000000
 11
0.631086
 21
0.823039
 31
0.000000
  0
LINE
  8
21
 10
0.661779
 20
0.815366
 30
0.000000
 11
0.661779
 21
0.784673
 31
0.000000
  0
LINE
  8
21
 10
0.661779
 20
0.784673
 30
0.000000
 11
0.669452
 21
0.777000
 31
0.000000
  0
LINE
  8
21
 10
0.654106
 20
0.807693
 30
0.000000
 11
0.669452
 21
0.807693
 31
0.000000
  0
LINE
  8
21
 10
0.684799
 20
0.807693
 30
0.000000
 11
0.684799
 21
0.784673
 31
0.000000
  0
LINE
  8
21
 10
0.684799
 20
0.784673
 30
0.000000
 11
0.692472
 21
0.777000
 31
0.000000
  0
LINE
  8
21
 10
0.692472
 20
0.777000
 30
0.000000
 11
0.715492
 21
0.777000
 31
0.000000
  0
LINE
  8
21
 10
0.715492
 20
0.807693
 30
0.000000
 11
0.715492
 21
0.769327
 31
0.000000
  0
LINE
  8
21
 10
0.715492
 20
0.769327
 30
0.000000
 11
0.707818
 21
0.761654
 31
0.000000
  0
LINE
  8
21
 10
0.707818
 20
0.761654
 30
0.000000
 11
0.700145
 21
0.761654
 31
0.000000
  0
LINE
  8
21
 10
0.776877
 20
0.777000
 30
0.000000
 11
0.776877
 21
0.823039
 31
0.000000
  0
LINE
  8
21
 10
0.776877
 20
0.823039
 30
0.000000
 11
0.799897
 21
0.823039
 31
0.000000
  0
LINE
  8
21
 10
0.799897
 20
0.823039
 30
0.000000
 11
0.807570
 21
0.815366
 31
0.000000
  0
LINE
  8
21
 10
0.807570
 20
0.815366
 30
0.000000
 11
0.807570
 21
0.800020
 31
0.000000
  0
LINE
  8
21
 10
0.807570
 20
0.800020
 30
0.000000
 11
0.799897
 21
0.792346
 31
0.000000
  0
LINE
  8
21
 10
0.799897
 20
0.792346
 30
0.000000
 11
0.776877
 21
0.792346
 31
0.000000
  0
LINE
  8
21
 10
0.792224
 20
0.792346
 30
0.000000
 11
0.807570
 21
0.777000
 31
0.000000
  0
LINE
  8
21
 10
0.830590
 20
0.777000
 30
0.000000
 11
0.845936
 21
0.777000
 31
0.000000
  0
LINE
  8
21
 10
0.845936
 20
0.777000
 30
0.000000
 11
0.853609
 21
0.784673
 31
0.000000
  0
LINE
  8
21
 10
0.853609
 20
0.784673
 30
0.000000
 11
0.853609
 21
0.800020
 31
0.000000
  0
LINE
  8
21
 10
0.853609
 20
0.800020
 30
0.000000
 11
0.845936
 21
0.807693
 31
0.000000
  0
LINE
  8
21
 10
0.845936
 20
0.807693
 30
0.000000
 11
0.830590
 21
0.807693
 31
0.000000
  0
LINE
  8
21
 10
0.830590
 20
0.807693
 30
0.000000
 11
0.822916
 21
0.800020
 31
0.000000
  0
LINE
  8
21
 10
0.822916
 20
0.800020
 30
0.000000
 11
0.822916
 21
0.784673
 31
0.000000
  0
LINE
  8
21
 10
0.822916
 20
0.784673
 30
0.000000
 11
0.830590
 21
0.777000
 31
0.000000
  0
LINE
  8
21
 10
0.868956
 20
0.823039
 30
0.000000
 11
0.868956
 21
0.777000
 31
0.000000
  0
LINE
  8
21
 10
0.868956
 20
0.777000
 30
0.000000
 11
0.891975
 21
0.777000
 31
0.000000
  0
LINE
  8
21
 10
0.891975
 20
0.777000
 30
0.000000
 11
0.899648
 21
0.784673
 31
0.000000
  0
LINE
  8
21
 10
0.899648
 20
0.784673
 30
0.000000
 11
0.899648
 21
0.800020
 31
0.000000
  0
LINE
  8
21
 10
0.899648
 20
0.800020
 30
0.000000
 11
0.891975
 21
0.807693
 31
0.000000
  0
LINE
  8
21
 10
0.891975
 20
0.807693
 30
0.000000
 11
0.868956
 21
0.807693
 31
0.000000
  0
LINE
  8
21
 10
0.922668
 20
0.777000
 30
0.000000
 11
0.938015
 21
0.777000
 31
0.000000
  0
LINE
  8
21
 10
0.938015
 20
0.777000
 30
0.000000
 11
0.945688
 21
0.784673
 31
0.000000
  0
LINE
  8
21
 10
0.945688
 20
0.784673
 30
0.000000
 11
0.945688
 21
0.800020
 31
0.000000
  0
LINE
  8
21
 10
0.945688
 20
0.800020
 30
0.000000
 11
0.938015
 21
0.807693
 31
0.000000
  0
LINE
  8
21
 10
0.938015
 20
0.807693
 30
0.000000
 11
0.922668
 21
0.807693
 31
0.000000
  0
LINE
  8
21
 10
0.922668
 20
0.807693
 30
0.000000
 11
0.914995
 21
0.800020
 31
0.000000
  0
LINE
  8
21
 10
0.914995
 20
0.800020
 30
0.000000
 11
0.914995
 21
0.784673
 31
0.000000
  0
LINE
  8
21
 10
0.914995
 20
0.784673
 30
0.000000
 11
0.922668
 21
0.777000
 31
0.000000
  0
LINE
  8
21
 10
0.968707
 20
0.815366
 30
0.000000
 11
0.968707
 21
0.784673
 31
0.000000
  0
LINE
  8
21
 10
0.968707
 20
0.784673
 30
0.000000
 11
0.976381
 21
0.777000
 31
0.000000
  0
LINE
  8
21
 10
0.961034
 20
0.807693
 30
0.000000
 11
0.976381
 21
0.807693
 31
0.000000
  0
LINE
  8
21
 10
0.991727
 20
0.807693
 30
0.000000
 11
0.999400
 21
0.807693
 31
0.000000
  0
LINE
  8
21
 10
0.999400
 20
0.807693
 30
0.000000
 11
0.999400
 21
0.777000
 31
0.000000
  0
LINE
  8
21
 10
0.991727
 20
0.777000
 30
0.000000
 11
1.007073
 21
0.777000
 31
0.000000
  0
LINE
  8
21
 10
0.999400
 20
0.830712
 30
0.000000
 11
0.999400
 21
0.823039
 31
0.000000
  0
LINE
  8
21
 10
1.053113
 20
0.807693
 30
0.000000
 11
1.030093
 21
0.807693
 31
0.000000
  0
LINE
  8
21
 10
1.030093
 20
0.807693
 30
0.000000
 11
1.022420
 21
0.800020
 31
0.000000
  0
LINE
  8
21
 10
1.022420
 20
0.800020
 30
0.000000
 11
1.022420
 21
0.784673
 31
0.000000
  0
LINE
  8
21
 10
1.022420
 20
0.784673
 30
0.000000
 11
1.030093
 21
0.777000
 31
0.000000
  0
LINE
  8
21
 10
1.030093
 20
0.777000
 30
0.000000
 11
1.053113
 21
0.777000
 31
0.000000
  0
LINE
  8
21
 10
1.068459
 20
0.777000
 30
0.000000
 11
1.091479
 21
0.777000
 31
0.000000
  0
LINE
  8
21
 10
1.091479
 20
0.777000
 30
0.000000
 11
1.099152
 21
0.784673
 31
0.000000
  0
LINE
  8
21
 10
1.099152
 20
0.784673
 30
0.000000
 11
1.091479
 21
0.792346
 31
0.000000
  0
LINE
  8
21
 10
1.091479
 20
0.792346
 30
0.000000
 11
1.076132
 21
0.792346
 31
0.000000
  0
LINE
  8
21
 10
1.076132
 20
0.792346
 30
0.000000
 11
1.068459
 21
0.800020
 31
0.000000
  0
LINE
  8
21
 10
1.068459
 20
0.800020
 30
0.000000
 11
1.076132
 21
0.807693
 31
0.000000
  0
LINE
  8
21
 10
1.076132
 20
0.807693
 30
0.000000
 11
1.099152
 21
0.807693
 31
0.000000
  0
LINE
  8
21
 10
0.383286
 20
0.061032
 30
0.000000
 11
0.383286
 21
0.024000
 31
0.000000
  0
LINE
  8
21
 10
0.383286
 20
0.024000
 30
0.000000
 11
0.401802
 21
0.024000
 31
0.000000
  0
LINE
  8
21
 10
0.401802
 20
0.024000
 30
0.000000
 11
0.407974
 21
0.030172
 31
0.000000
  0
LINE
  8
21
 10
0.407974
 20
0.030172
 30
0.000000
 11
0.407974
 21
0.054860
 31
0.000000
  0
LINE
  8
21
 10
0.407974
 20
0.054860
 30
0.000000
 11
0.401802
 21
0.061032
 31
0.000000
  0
LINE
  8
21
 10
0.401802
 20
0.061032
 30
0.000000
 11
0.383286
 21
0.061032
 31
0.000000
  0
LINE
  8
21
 10
0.420118
 20
0.061032
 30
0.000000
 11
0.420118
 21
0.030172
 31
0.000000
  0
LINE
  8
21
 10
0.420118
 20
0.030172
 30
0.000000
 11
0.426289
 21
0.024000
 31
0.000000
  0
LINE
  8
21
 10
0.426289
 20
0.024000
 30
0.000000
 11
0.438633
 21
0.024000
 31
0.000000
  0
LINE
  8
21
 10
0.438633
 20
0.024000
 30
0.000000
 11
0.444805
 21
0.030172
 31
0.000000
  0
LINE
  8
21
 10
0.444805
 20
0.030172
 30
0.000000
 11
0.444805
 21
0.061032
 31
0.000000
  0
LINE
  8
21
 10
0.456949
 20
0.024000
 30
0.000000
 11
0.456949
 21
0.048688
 31
0.000000
  0
LINE
  8
21
 10
0.456949
 20
0.048688
 30
0.000000
 11
0.469293
 21
0.061032
 31
0.000000
  0
LINE
  8
21
 10
0.469293
 20
0.061032
 30
0.000000
 11
0.481637
 21
0.048688
 31
0.000000
  0
LINE
  8
21
 10
0.481637
 20
0.048688
 30
0.000000
 11
0.481637
 21
0.024000
 31
0.000000
  0
LINE
  8
21
 10
0.456949
 20
0.042516
 30
0.000000
 11
0.481637
 21
0.042516
 31
0.000000
  0
LINE
  8
21
 10
0.493781
 20
0.061032
 30
0.000000
 11
0.493781
 21
0.024000
 31
0.000000
  0
LINE
  8
21
 10
0.493781
 20
0.024000
 30
0.000000
 11
0.518468
 21
0.024000
 31
0.000000
  0
LINE
  8
21
 10
0.592131
 20
0.061032
 30
0.000000
 11
0.567443
 21
0.061032
 31
0.000000
  0
LINE
  8
21
 10
0.567443
 20
0.061032
 30
0.000000
 11
0.567443
 21
0.024000
 31
0.000000
  0
LINE
  8
21
 10
0.567443
 20
0.024000
 30
0.000000
 11
0.592131
 21
0.024000
 31
0.000000
  0
LINE
  8
21
 10
0.567443
 20
0.042516
 30
0.000000
 11
0.579787
 21
0.042516
 31
0.000000
  0
LINE
  8
21
 10
0.604275
 20
0.024000
 30
0.000000
 11
0.604275
 21
0.061032
 31
0.000000
  0
LINE
  8
21
 10
0.604275
 20
0.061032
 30
0.000000
 11
0.628963
 21
0.024000
 31
0.000000
  0
LINE
  8
21
 10
0.628963
 20
0.024000
 30
0.000000
 11
0.628963
 21
0.061032
 31
0.000000
  0
LINE
  8
21
 10
0.641106
 20
0.061032
 30
0.000000
 11
0.641106
 21
0.024000
 31
0.000000
  0
LINE
  8
21
 10
0.641106
 20
0.024000
 30
0.000000
 11
0.659622
 21
0.024000
 31
0.000000
  0
LINE
  8
21
 10
0.659622
 20
0.024000
 30
0.000000
 11
0.665794
 21
0.030172
 31
0.000000
  0
LINE
  8
21
 10
0.665794
 20
0.030172
 30
0.000000
 11
0.665794
 21
0.054860
 31
0.000000
  0
LINE
  8
21
 10
0.665794
 20
0.054860
 30
0.000000
 11
0.659622
 21
0.061032
 31
0.000000
  0
LINE
  8
21
 10
0.659622
 20
0.061032
 30
0.000000
 11
0.641106
 21
0.061032
 31
0.000000
  0
LINE
  8
21
 10
0.696453
 20
0.061032
 30
0.000000
 11
0.684110
 21
0.061032
 31
0.000000
  0
LINE
  8
21
 10
0.684110
 20
0.061032
 30
0.000000
 11
0.677938
 21
0.054860
 31
0.000000
  0
LINE
  8
21
 10
0.677938
 20
0.054860
 30
0.000000
 11
0.677938
 21
0.030172
 31
0.000000
  0
LINE
  8
21
 10
0.677938
 20
0.030172
 30
0.000000
 11
0.684110
 21
0.024000
 31
0.000000
  0
LINE
  8
21
 10
0.684110
 20
0.024000
 30
0.000000
 11
0.696453
 21
0.024000
 31
0.000000
  0
LINE
  8
21
 10
0.696453
 20
0.024000
 30
0.000000
 11
0.702625
 21
0.030172
 31
0.000000
  0
LINE
  8
21
 10
0.702625
 20
0.030172
 30
0.000000
 11
0.702625
 21
0.054860
 31
0.000000
  0
LINE
  8
21
 10
0.702625
 20
0.054860
 30
0.000000
 11
0.696453
 21
0.061032
 31
0.000000
  0
LINE
  8
21
 10
0.714769
 20
0.061032
 30
0.000000
 11
0.714769
 21
0.024000
 31
0.000000
  0
LINE
  8
21
 10
0.714769
 20
0.024000
 30
0.000000
 11
0.733285
 21
0.024000
 31
0.000000
  0
LINE
  8
21
 10
0.733285
 20
0.024000
 30
0.000000
 11
0.739457
 21
0.030172
 31
0.000000
  0
LINE
  8
21
 10
0.739457
 20
0.030172
 30
0.000000
 11
0.739457
 21
0.054860
 31
0.000000
  0
LINE
  8
21
 10
0.739457
 20
0.054860
 30
0.000000
 11
0.733285
 21
0.061032
 31
0.000000
  0
LINE
  8
21
 10
0.733285
 20
0.061032
 30
0.000000
 11
0.714769
 21
0.061032
 31
0.000000
  0
LINE
  8
21
 10
0.776288
 20
0.061032
 30
0.000000
 11
0.751601
 21
0.061032
 31
0.000000
  0
LINE
  8
21
 10
0.751601
 20
0.061032
 30
0.000000
 11
0.751601
 21
0.024000
 31
0.000000
  0
LINE
  8
21
 10
0.751601
 20
0.024000
 30
0.000000
 11
0.776288
 21
0.024000
 31
0.000000
  0
LINE
  8
21
 10
0.751601
 20
0.042516
 30
0.000000
 11
0.763945
 21
0.042516
 31
0.000000
  0
LINE
  8
21
 10
0.788432
 20
0.024000
 30
0.000000
 11
0.788432
 21
0.061032
 31
0.000000
  0
LINE
  8
21
 10
0.788432
 20
0.061032
 30
0.000000
 11
0.806948
 21
0.061032
 31
0.000000
  0
LINE
  8
21
 10
0.806948
 20
0.061032
 30
0.000000
 11
0.813120
 21
0.054860
 31
0.000000
  0
LINE
  8
21
 10
0.813120
 20
0.054860
 30
0.000000
 11
0.813120
 21
0.042516
 31
0.000000
  0
LINE
  8
21
 10
0.813120
 20
0.042516
 30
0.000000
 11
0.806948
 21
0.036344
 31
0.000000
  0
LINE
  8
21
 10
0.806948
 20
0.036344
 30
0.000000
 11
0.788432
 21
0.036344
 31
0.000000
  0
LINE
  8
21
 10
0.800776
 20
0.036344
 30
0.000000
 11
0.813120
 21
0.024000
 31
0.000000
  0
LINE
  8
21
 10
0.825264
 20
0.024000
 30
0.000000
 11
0.825264
 21
0.030172
 31
0.000000
  0
LINE
  8
21
 10
0.825264
 20
0.030172
 30
0.000000
 11
0.831435
 21
0.030172
 31
0.000000
  0
LINE
  8
21
 10
0.831435
 20
0.030172
 30
0.000000
 11
0.831435
 21
0.024000
 31
0.000000
  0
LINE
  8
21
 10
0.831435
 20
0.024000
 30
0.000000
 11
0.825264
 21
0.024000
 31
0.000000
  0
LINE
  8
21
 10
0.880511
 20
0.024000
 30
0.000000
 11
0.880511
 21
0.061032
 31
0.000000
  0
LINE
  8
21
 10
0.880511
 20
0.061032
 30
0.000000
 11
0.899026
 21
0.061032
 31
0.000000
  0
LINE
  8
21
 10
0.899026
 20
0.061032
 30
0.000000
 11
0.905198
 21
0.054860
 31
0.000000
  0
LINE
  8
21
 10
0.905198
 20
0.054860
 30
0.000000
 11
0.905198
 21
0.042516
 31
0.000000
  0
LINE
  8
21
 10
0.905198
 20
0.042516
 30
0.000000
 11
0.899026
 21
0.036344
 31
0.000000
  0
LINE
  8
21
 10
0.899026
 20
0.036344
 30
0.000000
 11
0.880511
 21
0.036344
 31
0.000000
  0
LINE
  8
21
 10
0.892855
 20
0.036344
 30
0.000000
 11
0.905198
 21
0.024000
 31
0.000000
  0
LINE
  8
21
 10
0.942030
 20
0.061032
 30
0.000000
 11
0.917342
 21
0.061032
 31
0.000000
  0
LINE
  8
21
 10
0.917342
 20
0.061032
 30
0.000000
 11
0.917342
 21
0.024000
 31
0.000000
  0
LINE
  8
21
 10
0.917342
 20
0.024000
 30
0.000000
 11
0.942030
 21
0.024000
 31
0.000000
  0
LINE
  8
21
 10
0.917342
 20
0.042516
 30
0.000000
 11
0.929686
 21
0.042516
 31
0.000000
  0
LINE
  8
21
 10
0.954174
 20
0.061032
 30
0.000000
 11
0.954174
 21
0.036344
 31
0.000000
  0
LINE
  8
21
 10
0.954174
 20
0.036344
 30
0.000000
 11
0.966517
 21
0.024000
 31
0.000000
  0
LINE
  8
21
 10
0.966517
 20
0.024000
 30
0.000000
 11
0.978861
 21
0.036344
 31
0.000000
  0
LINE
  8
21
 10
0.978861
 20
0.036344
 30
0.000000
 11
0.978861
 21
0.061032
 31
0.000000
  0
LINE
  8
21
 10
0.991005
 20
0.024000
 30
0.000000
 11
0.991005
 21
0.030172
 31
0.000000
  0
LINE
  8
21
 10
0.991005
 20
0.030172
 30
0.000000
 11
0.997177
 21
0.030172
 31
0.000000
  0
LINE
  8
21
 10
0.997177
 20
0.030172
 30
0.000000
 11
0.997177
 21
0.024000
 31
0.000000
  0
LINE
  8
21
 10
0.997177
 20
0.024000
 30
0.000000
 11
0.991005
 21
0.024000
 31
0.000000
  0
LINE
  8
21
 10
1.070940
 20
0.024000
 30
0.000000
 11
1.046252
 21
0.024000
 31
0.000000
  0
LINE
  8
21
 10
1.046252
 20
0.024000
 30
0.000000
 11
1.070940
 21
0.048688
 31
0.000000
  0
LINE
  8
21
 10
1.070940
 20
0.048688
 30
0.000000
 11
1.070940
 21
0.054860
 31
0.000000
  0
LINE
  8
21
 10
1.070940
 20
0.054860
 30
0.000000
 11
1.064768
 21
0.061032
 31
0.000000
  0
LINE
  8
21
 10
1.064768
 20
0.061032
 30
0.000000
 11
1.052424
 21
0.061032
 31
0.000000
  0
LINE
  8
21
 10
1.052424
 20
0.061032
 30
0.000000
 11
1.046252
 21
0.054860
 31
0.000000
  0
LINE
  8
21
 10
1.083084
 20
0.024000
 30
0.000000
 11
1.083084
 21
0.030172
 31
0.000000
  0
LINE
  8
21
 10
1.083084
 20
0.030172
 30
0.000000
 11
1.089256
 21
0.030172
 31
0.000000
  0
LINE
  8
21
 10
1.089256
 20
0.030172
 30
0.000000
 11
1.089256
 21
0.024000
 31
0.000000
  0
LINE
  8
21
 10
1.089256
 20
0.024000
 30
0.000000
 11
1.083084
 21
0.024000
 31
0.000000
  0
LINE
  8
21
 10
1.275663
 20
0.251500
 30
0.000000
 11
1.256313
 21
0.251500
 31
0.000000
  0
LINE
  8
21
 10
1.256313
 20
0.251500
 30
0.000000
 11
1.251475
 21
0.256337
 31
0.000000
  0
LINE
  8
21
 10
1.251475
 20
0.256337
 30
0.000000
 11
1.251475
 21
0.266012
 31
0.000000
  0
LINE
  8
21
 10
1.251475
 20
0.266012
 30
0.000000
 11
1.256313
 21
0.270850
 31
0.000000
  0
LINE
  8
21
 10
1.256313
 20
0.270850
 30
0.000000
 11
1.275663
 21
0.270850
 31
0.000000
  0
LINE
  8
21
 10
1.275663
 20
0.270850
 30
0.000000
 11
1.280500
 21
0.266012
 31
0.000000
  0
LINE
  8
21
 10
1.280500
 20
0.266012
 30
0.000000
 11
1.280500
 21
0.256337
 31
0.000000
  0
LINE
  8
21
 10
1.280500
 20
0.256337
 30
0.000000
 11
1.275663
 21
0.251500
 31
0.000000
  0
LINE
  8
21
 10
1.275663
 20
0.251500
 30
0.000000
 11
1.256313
 21
0.270850
 31
0.000000
  0
LINE
  8
21
 10
1.261150
 20
0.280965
 30
0.000000
 11
1.280500
 21
0.300315
 31
0.000000
  0
LINE
  8
21
 10
1.280500
 20
0.280965
 30
0.000000
 11
1.261150
 21
0.300315
 31
0.000000
  0
LINE
  8
21
 10
1.261150
 20
0.310430
 30
0.000000
 11
1.251475
 21
0.320105
 31
0.000000
  0
LINE
  8
21
 10
1.251475
 20
0.320105
 30
0.000000
 11
1.280500
 21
0.320105
 31
0.000000
  0
LINE
  8
21
 10
1.280500
 20
0.310430
 30
0.000000
 11
1.280500
 21
0.329780
 31
0.000000
  0
LINE
  8
21
 10
1.275663
 20
0.339896
 30
0.000000
 11
1.256313
 21
0.339896
 31
0.000000
  0
LINE
  8
21
 10
1.256313
 20
0.339896
 30
0.000000
 11
1.251475
 21
0.344733
 31
0.000000
  0
LINE
  8
21
 10
1.251475
 20
0.344733
 30
0.000000
 11
1.251475
 21
0.354408
 31
0.000000
  0
LINE
  8
21
 10
1.251475
 20
0.354408
 30
0.000000
 11
1.256313
 21
0.359245
 31
0.000000
  0
LINE
  8
21
 10
1.256313
 20
0.359245
 30
0.000000
 11
1.275663
 21
0.359245
 31
0.000000
  0
LINE
  8
21
 10
1.275663
 20
0.359245
 30
0.000000
 11
1.280500
 21
0.354408
 31
0.000000
  0
LINE
  8
21
 10
1.280500
 20
0.354408
 30
0.000000
 11
1.280500
 21
0.344733
 31
0.000000
  0
LINE
  8
21
 10
1.280500
 20
0.344733
 30
0.000000
 11
1.275663
 21
0.339896
 31
0.000000
  0
LINE
  8
21
 10
1.275663
 20
0.339896
 30
0.000000
 11
1.256313
 21
0.359245
 31
0.000000
  0
LINE
  8
21
 10
1.280500
 20
0.369361
 30
0.000000
 11
1.251475
 21
0.369361
 31
0.000000
  0
LINE
  8
21
 10
1.251475
 20
0.369361
 30
0.000000
 11
1.251475
 21
0.383873
 31
0.000000
  0
LINE
  8
21
 10
1.251475
 20
0.383873
 30
0.000000
 11
1.256313
 21
0.388711
 31
0.000000
  0
LINE
  8
21
 10
1.256313
 20
0.388711
 30
0.000000
 11
1.261150
 21
0.388711
 31
0.000000
  0
LINE
  8
21
 10
1.261150
 20
0.388711
 30
0.000000
 11
1.265988
 21
0.383873
 31
0.000000
  0
LINE
  8
21
 10
1.265988
 20
0.383873
 30
0.000000
 11
1.270825
 21
0.388711
 31
0.000000
  0
LINE
  8
21
 10
1.270825
 20
0.388711
 30
0.000000
 11
1.275663
 21
0.388711
 31
0.000000
  0
LINE
  8
21
 10
1.275663
 20
0.388711
 30
0.000000
 11
1.280500
 21
0.383873
 31
0.000000
  0
LINE
  8
21
 10
1.280500
 20
0.383873
 30
0.000000
 11
1.280500
 21
0.369361
 31
0.000000
  0
LINE
  8
21
 10
1.265988
 20
0.369361
 30
0.000000
 11
1.265988
 21
0.383873
 31
0.000000
  0
LINE
  8
21
 10
1.256313
 20
0.398826
 30
0.000000
 11
1.251475
 21
0.403663
 31
0.000000
  0
LINE
  8
21
 10
1.251475
 20
0.403663
 30
0.000000
 11
1.251475
 21
0.413338
 31
0.000000
  0
LINE
  8
21
 10
1.251475
 20
0.413338
 30
0.000000
 11
1.256313
 21
0.418176
 31
0.000000
  0
LINE
  8
21
 10
1.256313
 20
0.418176
 30
0.000000
 11
1.261150
 21
0.418176
 31
0.000000
  0
LINE
  8
21
 10
1.261150
 20
0.418176
 30
0.000000
 11
1.265988
 21
0.413338
 31
0.000000
  0
LINE
  8
21
 10
1.265988
 20
0.413338
 30
0.000000
 11
1.265988
 21
0.408501
 31
0.000000
  0
LINE
  8
21
 10
1.265988
 20
0.413338
 30
0.000000
 11
1.270825
 21
0.418176
 31
0.000000
  0
LINE
  8
21
 10
1.270825
 20
0.418176
 30
0.000000
 11
1.275663
 21
0.418176
 31
0.000000
  0
LINE
  8
21
 10
1.275663
 20
0.418176
 30
0.000000
 11
1.280500
 21
0.413338
 31
0.000000
  0
LINE
  8
21
 10
1.280500
 20
0.413338
 30
0.000000
 11
1.280500
 21
0.403663
 31
0.000000
  0
LINE
  8
21
 10
1.280500
 20
0.403663
 30
0.000000
 11
1.275663
 21
0.398826
 31
0.000000
  0
LINE
  8
21
 10
1.256313
 20
0.428291
 30
0.000000
 11
1.251475
 21
0.433128
 31
0.000000
  0
LINE
  8
21
 10
1.251475
 20
0.433128
 30
0.000000
 11
1.251475
 21
0.442803
 31
0.000000
  0
LINE
  8
21
 10
1.251475
 20
0.442803
 30
0.000000
 11
1.256313
 21
0.447641
 31
0.000000
  0
LINE
  8
21
 10
1.256313
 20
0.447641
 30
0.000000
 11
1.261150
 21
0.447641
 31
0.000000
  0
LINE
  8
21
 10
1.261150
 20
0.447641
 30
0.000000
 11
1.265988
 21
0.442803
 31
0.000000
  0
LINE
  8
21
 10
1.265988
 20
0.442803
 30
0.000000
 11
1.265988
 21
0.437966
 31
0.000000
  0
LINE
  8
21
 10
1.265988
 20
0.442803
 30
0.000000
 11
1.270825
 21
0.447641
 31
0.000000
  0
LINE
  8
21
 10
1.270825
 20
0.447641
 30
0.000000
 11
1.275663
 21
0.447641
 31
0.000000
  0
LINE
  8
21
 10
1.275663
 20
0.447641
 30
0.000000
 11
1.280500
 21
0.442803
 31
0.000000
  0
LINE
  8
21
 10
1.280500
 20
0.442803
 30
0.000000
 11
1.280500
 21
0.433128
 31
0.000000
  0
LINE
  8
21
 10
1.280500
 20
0.433128
 30
0.000000
 11
1.275663
 21
0.428291
 31
0.000000
  0
LINE
  8
21
 10
1.275663
 20
0.457756
 30
0.000000
 11
1.280500
 21
0.462594
 31
0.000000
  0
LINE
  8
21
 10
1.280500
 20
0.462594
 30
0.000000
 11
1.280500
 21
0.472269
 31
0.000000
  0
LINE
  8
21
 10
1.280500
 20
0.472269
 30
0.000000
 11
1.275663
 21
0.477106
 31
0.000000
  0
LINE
  8
21
 10
1.275663
 20
0.477106
 30
0.000000
 11
1.256313
 21
0.477106
 31
0.000000
  0
LINE
  8
21
 10
1.256313
 20
0.477106
 30
0.000000
 11
1.251475
 21
0.472269
 31
0.000000
  0
LINE
  8
21
 10
1.251475
 20
0.472269
 30
0.000000
 11
1.251475
 21
0.462594
 31
0.000000
  0
LINE
  8
21
 10
1.251475
 20
0.462594
 30
0.000000
 11
1.256313
 21
0.457756
 31
0.000000
  0
LINE
  8
21
 10
1.256313
 20
0.457756
 30
0.000000
 11
1.261150
 21
0.457756
 31
0.000000
  0
LINE
  8
21
 10
1.261150
 20
0.457756
 30
0.000000
 11
1.265988
 21
0.462594
 31
0.000000
  0
LINE
  8
21
 10
1.265988
 20
0.462594
 30
0.000000
 11
1.265988
 21
0.477106
 31
0.000000
  0
LINE
  8
21
 10
1.275663
 20
0.487221
 30
0.000000
 11
1.256313
 21
0.487221
 31
0.000000
  0
LINE
  8
21
 10
1.256313
 20
0.487221
 30
0.000000
 11
1.251475
 21
0.492059
 31
0.000000
  0
LINE
  8
21
 10
1.251475
 20
0.492059
 30
0.000000
 11
1.251475
 21
0.501734
 31
0.000000
  0
LINE
  8
21
 10
1.251475
 20
0.501734
 30
0.000000
 11
1.256313
 21
0.506571
 31
0.000000
  0
LINE
  8
21
 10
1.256313
 20
0.506571
 30
0.000000
 11
1.275663
 21
0.506571
 31
0.000000
  0
LINE
  8
21
 10
1.275663
 20
0.506571
 30
0.000000
 11
1.280500
 21
0.501734
 31
0.000000
  0
LINE
  8
21
 10
1.280500
 20
0.501734
 30
0.000000
 11
1.280500
 21
0.492059
 31
0.000000
  0
LINE
  8
21
 10
1.280500
 20
0.492059
 30
0.000000
 11
1.275663
 21
0.487221
 31
0.000000
  0
LINE
  8
21
 10
1.275663
 20
0.487221
 30
0.000000
 11
1.256313
 21
0.506571
 31
0.000000
  0
LINE
  8
21
 10
1.261150
 20
0.516687
 30
0.000000
 11
1.251475
 21
0.526361
 31
0.000000
  0
LINE
  8
21
 10
1.251475
 20
0.526361
 30
0.000000
 11
1.280500
 21
0.526361
 31
0.000000
  0
LINE
  8
21
 10
1.280500
 20
0.516687
 30
0.000000
 11
1.280500
 21
0.536036
 31
0.000000
  0
LINE
  8
21
 10
0.911427
 20
0.748532
 30
0.000000
 11
0.911427
 21
0.711500
 31
0.000000
  0
LINE
  8
21
 10
0.911427
 20
0.711500
 30
0.000000
 11
0.929943
 21
0.711500
 31
0.000000
  0
LINE
  8
21
 10
0.929943
 20
0.711500
 30
0.000000
 11
0.936115
 21
0.717672
 31
0.000000
  0
LINE
  8
21
 10
0.936115
 20
0.717672
 30
0.000000
 11
0.936115
 21
0.742360
 31
0.000000
  0
LINE
  8
21
 10
0.936115
 20
0.742360
 30
0.000000
 11
0.929943
 21
0.748532
 31
0.000000
  0
LINE
  8
21
 10
0.929943
 20
0.748532
 30
0.000000
 11
0.911427
 21
0.748532
 31
0.000000
  0
LINE
  8
21
 10
0.948258
 20
0.711500
 30
0.000000
 11
0.948258
 21
0.748532
 31
0.000000
  0
LINE
  8
21
 10
0.948258
 20
0.748532
 30
0.000000
 11
0.966774
 21
0.748532
 31
0.000000
  0
LINE
  8
21
 10
0.966774
 20
0.748532
 30
0.000000
 11
0.972946
 21
0.742360
 31
0.000000
  0
LINE
  8
21
 10
0.972946
 20
0.742360
 30
0.000000
 11
0.972946
 21
0.730016
 31
0.000000
  0
LINE
  8
21
 10
0.972946
 20
0.730016
 30
0.000000
 11
0.966774
 21
0.723844
 31
0.000000
  0
LINE
  8
21
 10
0.966774
 20
0.723844
 30
0.000000
 11
0.948258
 21
0.723844
 31
0.000000
  0
LINE
  8
21
 10
0.960602
 20
0.723844
 30
0.000000
 11
0.972946
 21
0.711500
 31
0.000000
  0
LINE
  8
21
 10
0.985090
 20
0.748532
 30
0.000000
 11
0.985090
 21
0.711500
 31
0.000000
  0
LINE
  8
21
 10
0.985090
 20
0.723844
 30
0.000000
 11
1.009778
 21
0.748532
 31
0.000000
  0
LINE
  8
21
 10
0.991262
 20
0.730016
 30
0.000000
 11
1.009778
 21
0.711500
 31
0.000000
  0
LINE
  8
21
 10
1.021921
 20
0.730016
 30
0.000000
 11
1.046609
 21
0.730016
 31
0.000000
  0
LINE
  8
21
 10
1.058753
 20
0.736188
 30
0.000000
 11
1.071097
 21
0.748532
 31
0.000000
  0
LINE
  8
21
 10
1.071097
 20
0.748532
 30
0.000000
 11
1.071097
 21
0.711500
 31
0.000000
  0
LINE
  8
21
 10
1.058753
 20
0.711500
 30
0.000000
 11
1.083440
 21
0.711500
 31
0.000000
  0
LINE
  8
21
 10
1.095584
 20
0.711500
 30
0.000000
 11
1.095584
 21
0.717672
 31
0.000000
  0
LINE
  8
21
 10
1.095584
 20
0.717672
 30
0.000000
 11
1.101756
 21
0.717672
 31
0.000000
  0
LINE
  8
21
 10
1.101756
 20
0.717672
 30
0.000000
 11
1.101756
 21
0.711500
 31
0.000000
  0
LINE
  8
21
 10
1.101756
 20
0.711500
 30
0.000000
 11
1.095584
 21
0.711500
 31
0.000000
  0
CIRCLE
  8
20
 10
1.212500
 20
0.750000
 30
0.000000
 40
0.062992
  0
CIRCLE
  8
20
 10
1.212500
 20
0.100000
 30
0.000000
 40
0.062992
  0
CIRCLE
  8
20
 10
0.100000
 20
0.750000
 30
0.000000
 40
0.062992
  0
CIRCLE
  8
20
 10
0.100000
 20
0.100000
 30
0.000000
 40
0.062992
  0
POINT
  8
23
 10
0.537500
 20
0.650000
 30
0.000000
  0
LINE
  8
39
 10
0.498799
 20
0.592008
 30
0.000000
 11
0.498799
 21
0.707992
 31
0.000000
  0
LINE
  8
39
 10
0.498799
 20
0.707992
 30
0.000000
 11
0.576201
 21
0.707992
 31
0.000000
  0
LINE
  8
39
 10
0.576201
 20
0.707992
 30
0.000000
 11
0.576201
 21
0.592008
 31
0.000000
  0
LINE
  8
39
 10
0.576201
 20
0.592008
 30
0.000000
 11
0.498799
 21
0.592008
 31
0.000000
  0
LINE
  8
51
 10
0.520492
 20
0.635984
 30
0.000000
 11
0.520492
 21
0.664016
 31
0.000000
  0
LINE
  8
51
 10
0.553996
 20
0.635984
 30
0.000000
 11
0.553996
 21
0.664016
 31
0.000000
  0
INSERT
  8
51
  2
RECT
 10
0.537299
 20
0.626844
 30
0.000000
 41
0.019689
 42
0.037402
 43
1.000000
 50
90.000000
  0
INSERT
  8
51
  2
RECT
 10
0.537299
 20
0.672844
 30
0.000000
 41
0.019689
 42
0.037402
 43
1.000000
 50
90.000000
  0
INSERT
  8
35
  2
RECT
 10
0.537500
 20
0.650000
 30
0.000000
 41
0.015740
 42
0.023622
 43
1.000000
 50
90.000000
  0
INSERT
  8
1
  2
RECT
 10
0.537500
 20
0.616535
 30
0.000000
 41
0.043307
 42
0.039370
 43
1.000000
 50
90.000000
  0
INSERT
  8
31
  2
RECT
 10
0.537500
 20
0.616535
 30
0.000000
 41
0.043307
 42
0.039370
 43
1.000000
 50
90.000000
  0
INSERT
  8
1
  2
RECT
 10
0.537500
 20
0.683465
 30
0.000000
 41
0.043307
 42
0.039370
 43
1.000000
 50
90.000000
  0
INSERT
  8
31
  2
RECT
 10
0.537500
 20
0.683465
 30
0.000000
 41
0.043307
 42
0.039370
 43
1.000000
 50
90.000000
  0
LINE
  8
25
 10
0.486813
 20
0.620850
 30
0.000000
 11
0.481975
 21
0.616012
 31
0.000000
  0
LINE
  8
25
 10
0.481975
 20
0.616012
 30
0.000000
 11
0.481975
 21
0.606337
 31
0.000000
  0
LINE
  8
25
 10
0.481975
 20
0.606337
 30
0.000000
 11
0.486813
 21
0.601500
 31
0.000000
  0
LINE
  8
25
 10
0.486813
 20
0.601500
 30
0.000000
 11
0.506163
 21
0.601500
 31
0.000000
  0
LINE
  8
25
 10
0.506163
 20
0.601500
 30
0.000000
 11
0.511000
 21
0.606337
 31
0.000000
  0
LINE
  8
25
 10
0.511000
 20
0.606337
 30
0.000000
 11
0.511000
 21
0.616012
 31
0.000000
  0
LINE
  8
25
 10
0.511000
 20
0.616012
 30
0.000000
 11
0.506163
 21
0.620850
 31
0.000000
  0
LINE
  8
25
 10
0.491650
 20
0.630965
 30
0.000000
 11
0.481975
 21
0.640640
 31
0.000000
  0
LINE
  8
25
 10
0.481975
 20
0.640640
 30
0.000000
 11
0.511000
 21
0.640640
 31
0.000000
  0
LINE
  8
25
 10
0.511000
 20
0.630965
 30
0.000000
 11
0.511000
 21
0.650315
 31
0.000000
  0
POINT
  8
23
 10
0.800000
 20
0.412500
 30
0.000000
  0
LINE
  8
39
 10
0.838701
 20
0.470492
 30
0.000000
 11
0.838701
 21
0.354508
 31
0.000000
  0
LINE
  8
39
 10
0.838701
 20
0.354508
 30
0.000000
 11
0.761299
 21
0.354508
 31
0.000000
  0
LINE
  8
39
 10
0.761299
 20
0.354508
 30
0.000000
 11
0.761299
 21
0.470492
 31
0.000000
  0
LINE
  8
39
 10
0.761299
 20
0.470492
 30
0.000000
 11
0.838701
 21
0.470492
 31
0.000000
  0
LINE
  8
51
 10
0.817008
 20
0.426516
 30
0.000000
 11
0.817008
 21
0.398484
 31
0.000000
  0
LINE
  8
51
 10
0.783504
 20
0.426516
 30
0.000000
 11
0.783504
 21
0.398484
 31
0.000000
  0
INSERT
  8
51
  2
RECT
 10
0.800201
 20
0.435656
 30
0.000000
 41
0.019689
 42
0.037402
 43
1.000000
 50
270.000000
  0
INSERT
  8
51
  2
RECT
 10
0.800201
 20
0.389656
 30
0.000000
 41
0.019689
 42
0.037402
 43
1.000000
 50
270.000000
  0
INSERT
  8
35
  2
RECT
 10
0.800000
 20
0.412500
 30
0.000000
 41
0.015740
 42
0.023622
 43
1.000000
 50
270.000000
  0
INSERT
  8
1
  2
RECT
 10
0.800000
 20
0.445965
 30
0.000000
 41
0.043307
 42
0.039370
 43
1.000000
 50
270.000000
  0
INSERT
  8
31
  2
RECT
 10
0.800000
 20
0.445965
 30
0.000000
 41
0.043307
 42
0.039370
 43
1.000000
 50
270.000000
  0
INSERT
  8
1
  2
RECT
 10
0.800000
 20
0.379035
 30
0.000000
 41
0.043307
 42
0.039370
 43
1.000000
 50
270.000000
  0
INSERT
  8
31
  2
RECT
 10
0.800000
 20
0.379035
 30
0.000000
 41
0.043307
 42
0.039370
 43
1.000000
 50
270.000000
  0
LINE
  8
25
 10
0.831313
 20
0.424419
 30
0.000000
 11
0.826475
 21
0.419582
 31
0.000000
  0
LINE
  8
25
 10
0.826475
 20
0.419582
 30
0.000000
 11
0.826475
 21
0.409907
 31
0.000000
  0
LINE
  8
25
 10
0.826475
 20
0.409907
 30
0.000000
 11
0.831313
 21
0.405070
 31
0.000000
  0
LINE
  8
25
 10
0.831313
 20
0.405070
 30
0.000000
 11
0.850663
 21
0.405070
 31
0.000000
  0
LINE
  8
25
 10
0.850663
 20
0.405070
 30
0.000000
 11
0.855500
 21
0.409907
 31
0.000000
  0
LINE
  8
25
 10
0.855500
 20
0.409907
 30
0.000000
 11
0.855500
 21
0.419582
 31
0.000000
  0
LINE
  8
25
 10
0.855500
 20
0.419582
 30
0.000000
 11
0.850663
 21
0.424419
 31
0.000000
  0
LINE
  8
25
 10
0.855500
 20
0.453885
 30
0.000000
 11
0.855500
 21
0.434535
 31
0.000000
  0
LINE
  8
25
 10
0.855500
 20
0.434535
 30
0.000000
 11
0.836150
 21
0.453885
 31
0.000000
  0
LINE
  8
25
 10
0.836150
 20
0.453885
 30
0.000000
 11
0.831313
 21
0.453885
 31
0.000000
  0
LINE
  8
25
 10
0.831313
 20
0.453885
 30
0.000000
 11
0.826475
 21
0.449047
 31
0.000000
  0
LINE
  8
25
 10
0.826475
 20
0.449047
 30
0.000000
 11
0.826475
 21
0.439372
 31
0.000000
  0
LINE
  8
25
 10
0.826475
 20
0.439372
 30
0.000000
 11
0.831313
 21
0.434535
 31
0.000000
  0
POINT
  8
23
 10
0.937500
 20
0.350000
 30
0.000000
  0
LINE
  8
39
 10
0.976201
 20
0.407992
 30
0.000000
 11
0.976201
 21
0.292008
 31
0.000000
  0
LINE
  8
39
 10
0.976201
 20
0.292008
 30
0.000000
 11
0.898799
 21
0.292008
 31
0.000000
  0
LINE
  8
39
 10
0.898799
 20
0.292008
 30
0.000000
 11
0.898799
 21
0.407992
 31
0.000000
  0
LINE
  8
39
 10
0.898799
 20
0.407992
 30
0.000000
 11
0.976201
 21
0.407992
 31
0.000000
  0
LINE
  8
51
 10
0.954508
 20
0.364016
 30
0.000000
 11
0.954508
 21
0.335984
 31
0.000000
  0
LINE
  8
51
 10
0.921004
 20
0.364016
 30
0.000000
 11
0.921004
 21
0.335984
 31
0.000000
  0
INSERT
  8
51
  2
RECT
 10
0.937701
 20
0.373156
 30
0.000000
 41
0.019689
 42
0.037402
 43
1.000000
 50
270.000000
  0
INSERT
  8
51
  2
RECT
 10
0.937701
 20
0.327156
 30
0.000000
 41
0.019689
 42
0.037402
 43
1.000000
 50
270.000000
  0
INSERT
  8
35
  2
RECT
 10
0.937500
 20
0.350000
 30
0.000000
 41
0.015740
 42
0.023622
 43
1.000000
 50
270.000000
  0
INSERT
  8
1
  2
RECT
 10
0.937500
 20
0.383465
 30
0.000000
 41
0.043307
 42
0.039370
 43
1.000000
 50
270.000000
  0
INSERT
  8
31
  2
RECT
 10
0.937500
 20
0.383465
 30
0.000000
 41
0.043307
 42
0.039370
 43
1.000000
 50
270.000000
  0
INSERT
  8
1
  2
RECT
 10
0.937500
 20
0.316535
 30
0.000000
 41
0.043307
 42
0.039370
 43
1.000000
 50
270.000000
  0
INSERT
  8
31
  2
RECT
 10
0.937500
 20
0.316535
 30
0.000000
 41
0.043307
 42
0.039370
 43
1.000000
 50
270.000000
  0
LINE
  8
25
 10
0.886813
 20
0.320850
 30
0.000000
 11
0.881975
 21
0.316012
 31
0.000000
  0
LINE
  8
25
 10
0.881975
 20
0.316012
 30
0.000000
 11
0.881975
 21
0.306337
 31
0.000000
  0
LINE
  8
25
 10
0.881975
 20
0.306337
 30
0.000000
 11
0.886813
 21
0.301500
 31
0.000000
  0
LINE
  8
25
 10
0.886813
 20
0.301500
 30
0.000000
 11
0.906163
 21
0.301500
 31
0.000000
  0
LINE
  8
25
 10
0.906163
 20
0.301500
 30
0.000000
 11
0.911000
 21
0.306337
 31
0.000000
  0
LINE
  8
25
 10
0.911000
 20
0.306337
 30
0.000000
 11
0.911000
 21
0.316012
 31
0.000000
  0
LINE
  8
25
 10
0.911000
 20
0.316012
 30
0.000000
 11
0.906163
 21
0.320850
 31
0.000000
  0
LINE
  8
25
 10
0.886813
 20
0.330965
 30
0.000000
 11
0.881975
 21
0.335803
 31
0.000000
  0
LINE
  8
25
 10
0.881975
 20
0.335803
 30
0.000000
 11
0.881975
 21
0.345477
 31
0.000000
  0
LINE
  8
25
 10
0.881975
 20
0.345477
 30
0.000000
 11
0.886813
 21
0.350315
 31
0.000000
  0
LINE
  8
25
 10
0.886813
 20
0.350315
 30
0.000000
 11
0.891650
 21
0.350315
 31
0.000000
  0
LINE
  8
25
 10
0.891650
 20
0.350315
 30
0.000000
 11
0.896488
 21
0.345477
 31
0.000000
  0
LINE
  8
25
 10
0.896488
 20
0.345477
 30
0.000000
 11
0.896488
 21
0.340640
 31
0.000000
  0
LINE
  8
25
 10
0.896488
 20
0.345477
 30
0.000000
 11
0.901325
 21
0.350315
 31
0.000000
  0
LINE
  8
25
 10
0.901325
 20
0.350315
 30
0.000000
 11
0.906163
 21
0.350315
 31
0.000000
  0
LINE
  8
25
 10
0.906163
 20
0.350315
 30
0.000000
 11
0.911000
 21
0.345477
 31
0.000000
  0
LINE
  8
25
 10
0.911000
 20
0.345477
 30
0.000000
 11
0.911000
 21
0.335803
 31
0.000000
  0
LINE
  8
25
 10
0.911000
 20
0.335803
 30
0.000000
 11
0.906163
 21
0.330965
 31
0.000000
  0
POINT
  8
23
 10
1.037500
 20
0.650000
 30
0.000000
  0
LINE
  8
39
 10
0.979508
 20
0.688701
 30
0.000000
 11
1.095492
 21
0.688701
 31
0.000000
  0
LINE
  8
39
 10
1.095492
 20
0.688701
 30
0.000000
 11
1.095492
 21
0.611299
 31
0.000000
  0
LINE
  8
39
 10
1.095492
 20
0.611299
 30
0.000000
 11
0.979508
 21
0.611299
 31
0.000000
  0
LINE
  8
39
 10
0.979508
 20
0.611299
 30
0.000000
 11
0.979508
 21
0.688701
 31
0.000000
  0
LINE
  8
51
 10
1.023484
 20
0.667008
 30
0.000000
 11
1.051516
 21
0.667008
 31
0.000000
  0
LINE
  8
51
 10
1.023484
 20
0.633504
 30
0.000000
 11
1.051516
 21
0.633504
 31
0.000000
  0
INSERT
  8
51
  2
RECT
 10
1.014344
 20
0.650201
 30
0.000000
 41
0.019689
 42
0.037402
 43
1.000000
 50
0.000000
  0
INSERT
  8
51
  2
RECT
 10
1.060344
 20
0.650201
 30
0.000000
 41
0.019689
 42
0.037402
 43
1.000000
 50
0.000000
  0
INSERT
  8
35
  2
RECT
 10
1.037500
 20
0.650000
 30
0.000000
 41
0.015740
 42
0.023622
 43
1.000000
 50
0.000000
  0
INSERT
  8
1
  2
RECT
 10
1.004035
 20
0.650000
 30
0.000000
 41
0.043307
 42
0.039370
 43
1.000000
 50
0.000000
  0
INSERT
  8
31
  2
RECT
 10
1.004035
 20
0.650000
 30
0.000000
 41
0.043307
 42
0.039370
 43
1.000000
 50
0.000000
  0
INSERT
  8
1
  2
RECT
 10
1.070965
 20
0.650000
 30
0.000000
 41
0.043307
 42
0.039370
 43
1.000000
 50
0.000000
  0
INSERT
  8
31
  2
RECT
 10
1.070965
 20
0.650000
 30
0.000000
 41
0.043307
 42
0.039370
 43
1.000000
 50
0.000000
  0
LINE
  8
25
 10
1.008350
 20
0.700687
 30
0.000000
 11
1.003512
 21
0.705525
 31
0.000000
  0
LINE
  8
25
 10
1.003512
 20
0.705525
 30
0.000000
 11
0.993837
 21
0.705525
 31
0.000000
  0
LINE
  8
25
 10
0.993837
 20
0.705525
 30
0.000000
 11
0.989000
 21
0.700687
 31
0.000000
  0
LINE
  8
25
 10
0.989000
 20
0.700687
 30
0.000000
 11
0.989000
 21
0.681337
 31
0.000000
  0
LINE
  8
25
 10
0.989000
 20
0.681337
 30
0.000000
 11
0.993837
 21
0.676500
 31
0.000000
  0
LINE
  8
25
 10
0.993837
 20
0.676500
 30
0.000000
 11
1.003512
 21
0.676500
 31
0.000000
  0
LINE
  8
25
 10
1.003512
 20
0.676500
 30
0.000000
 11
1.008350
 21
0.681337
 31
0.000000
  0
LINE
  8
25
 10
1.032977
 20
0.676500
 30
0.000000
 11
1.032977
 21
0.705525
 31
0.000000
  0
LINE
  8
25
 10
1.032977
 20
0.705525
 30
0.000000
 11
1.018465
 21
0.691012
 31
0.000000
  0
LINE
  8
25
 10
1.018465
 20
0.691012
 30
0.000000
 11
1.037815
 21
0.691012
 31
0.000000
  0
POINT
  8
23
 10
1.037500
 20
0.200000
 30
0.000000
  0
LINE
  8
39
 10
0.979508
 20
0.238701
 30
0.000000
 11
1.095492
 21
0.238701
 31
0.000000
  0
LINE
  8
39
 10
1.095492
 20
0.238701
 30
0.000000
 11
1.095492
 21
0.161299
 31
0.000000
  0
LINE
  8
39
 10
1.095492
 20
0.161299
 30
0.000000
 11
0.979508
 21
0.161299
 31
0.000000
  0
LINE
  8
39
 10
0.979508
 20
0.161299
 30
0.000000
 11
0.979508
 21
0.238701
 31
0.000000
  0
LINE
  8
51
 10
1.023484
 20
0.217008
 30
0.000000
 11
1.051516
 21
0.217008
 31
0.000000
  0
LINE
  8
51
 10
1.023484
 20
0.183504
 30
0.000000
 11
1.051516
 21
0.183504
 31
0.000000
  0
INSERT
  8
51
  2
RECT
 10
1.014344
 20
0.200201
 30
0.000000
 41
0.019689
 42
0.037402
 43
1.000000
 50
0.000000
  0
INSERT
  8
51
  2
RECT
 10
1.060344
 20
0.200201
 30
0.000000
 41
0.019689
 42
0.037402
 43
1.000000
 50
0.000000
  0
INSERT
  8
35
  2
RECT
 10
1.037500
 20
0.200000
 30
0.000000
 41
0.015740
 42
0.023622
 43
1.000000
 50
0.000000
  0
INSERT
  8
1
  2
RECT
 10
1.004035
 20
0.200000
 30
0.000000
 41
0.043307
 42
0.039370
 43
1.000000
 50
0.000000
  0
INSERT
  8
31
  2
RECT
 10
1.004035
 20
0.200000
 30
0.000000
 41
0.043307
 42
0.039370
 43
1.000000
 50
0.000000
  0
INSERT
  8
1
  2
RECT
 10
1.070965
 20
0.200000
 30
0.000000
 41
0.043307
 42
0.039370
 43
1.000000
 50
0.000000
  0
INSERT
  8
31
  2
RECT
 10
1.070965
 20
0.200000
 30
0.000000
 41
0.043307
 42
0.039370
 43
1.000000
 50
0.000000
  0
LINE
  8
25
 10
1.008350
 20
0.250687
 30
0.000000
 11
1.003512
 21
0.255525
 31
0.000000
  0
LINE
  8
25
 10
1.003512
 20
0.255525
 30
0.000000
 11
0.993837
 21
0.255525
 31
0.000000
  0
LINE
  8
25
 10
0.993837
 20
0.255525
 30
0.000000
 11
0.989000
 21
0.250687
 31
0.000000
  0
LINE
  8
25
 10
0.989000
 20
0.250687
 30
0.000000
 11
0.989000
 21
0.231337
 31
0.000000
  0
LINE
  8
25
 10
0.989000
 20
0.231337
 30
0.000000
 11
0.993837
 21
0.226500
 31
0.000000
  0
LINE
  8
25
 10
0.993837
 20
0.226500
 30
0.000000
 11
1.003512
 21
0.226500
 31
0.000000
  0
LINE
  8
25
 10
1.003512
 20
0.226500
 30
0.000000
 11
1.008350
 21
0.231337
 31
0.000000
  0
LINE
  8
25
 10
1.037815
 20
0.255525
 30
0.000000
 11
1.018465
 21
0.255525
 31
0.000000
  0
LINE
  8
25
 10
1.018465
 20
0.255525
 30
0.000000
 11
1.018465
 21
0.241012
 31
0.000000
  0
LINE
  8
25
 10
1.018465
 20
0.241012
 30
0.000000
 11
1.028140
 21
0.245850
 31
0.000000
  0
LINE
  8
25
 10
1.028140
 20
0.245850
 30
0.000000
 11
1.032977
 21
0.245850
 31
0.000000
  0
LINE
  8
25
 10
1.032977
 20
0.245850
 30
0.000000
 11
1.037815
 21
0.241012
 31
0.000000
  0
LINE
  8
25
 10
1.037815
 20
0.241012
 30
0.000000
 11
1.037815
 21
0.231337
 31
0.000000
  0
LINE
  8
25
 10
1.037815
 20
0.231337
 30
0.000000
 11
1.032977
 21
0.226500
 31
0.000000
  0
LINE
  8
25
 10
1.032977
 20
0.226500
 30
0.000000
 11
1.023303
 21
0.226500
 31
0.000000
  0
LINE
  8
25
 10
1.023303
 20
0.226500
 30
0.000000
 11
1.018465
 21
0.231337
 31
0.000000
  0
POINT
  8
23
 10
0.937500
 20
0.512500
 30
0.000000
  0
LINE
  8
39
 10
0.898799
 20
0.454508
 30
0.000000
 11
0.898799
 21
0.570492
 31
0.000000
  0
LINE
  8
39
 10
0.898799
 20
0.570492
 30
0.000000
 11
0.976201
 21
0.570492
 31
0.000000
  0
LINE
  8
39
 10
0.976201
 20
0.570492
 30
0.000000
 11
0.976201
 21
0.454508
 31
0.000000
  0
LINE
  8
39
 10
0.976201
 20
0.454508
 30
0.000000
 11
0.898799
 21
0.454508
 31
0.000000
  0
LINE
  8
51
 10
0.920492
 20
0.498484
 30
0.000000
 11
0.920492
 21
0.526516
 31
0.000000
  0
LINE
  8
51
 10
0.953996
 20
0.498484
 30
0.000000
 11
0.953996
 21
0.526516
 31
0.000000
  0
INSERT
  8
51
  2
RECT
 10
0.937299
 20
0.489344
 30
0.000000
 41
0.019689
 42
0.037402
 43
1.000000
 50
90.000000
  0
INSERT
  8
51
  2
RECT
 10
0.937299
 20
0.535344
 30
0.000000
 41
0.019689
 42
0.037402
 43
1.000000
 50
90.000000
  0
INSERT
  8
35
  2
RECT
 10
0.937500
 20
0.512500
 30
0.000000
 41
0.015740
 42
0.023622
 43
1.000000
 50
90.000000
  0
INSERT
  8
1
  2
RECT
 10
0.937500
 20
0.479035
 30
0.000000
 41
0.043307
 42
0.039370
 43
1.000000
 50
90.000000
  0
INSERT
  8
31
  2
RECT
 10
0.937500
 20
0.479035
 30
0.000000
 41
0.043307
 42
0.039370
 43
1.000000
 50
90.000000
  0
INSERT
  8
1
  2
RECT
 10
0.937500
 20
0.545965
 30
0.000000
 41
0.043307
 42
0.039370
 43
1.000000
 50
90.000000
  0
INSERT
  8
31
  2
RECT
 10
0.937500
 20
0.545965
 30
0.000000
 41
0.043307
 42
0.039370
 43
1.000000
 50
90.000000
  0
LINE
  8
25
 10
0.968813
 20
0.524419
 30
0.000000
 11
0.963975
 21
0.519582
 31
0.000000
  0
LINE
  8
25
 10
0.963975
 20
0.519582
 30
0.000000
 11
0.963975
 21
0.509907
 31
0.000000
  0
LINE
  8
25
 10
0.963975
 20
0.509907
 30
0.000000
 11
0.968813
 21
0.505070
 31
0.000000
  0
LINE
  8
25
 10
0.968813
 20
0.505070
 30
0.000000
 11
0.988163
 21
0.505070
 31
0.000000
  0
LINE
  8
25
 10
0.988163
 20
0.505070
 30
0.000000
 11
0.993000
 21
0.509907
 31
0.000000
  0
LINE
  8
25
 10
0.993000
 20
0.509907
 30
0.000000
 11
0.993000
 21
0.519582
 31
0.000000
  0
LINE
  8
25
 10
0.993000
 20
0.519582
 30
0.000000
 11
0.988163
 21
0.524419
 31
0.000000
  0
LINE
  8
25
 10
0.963975
 20
0.553885
 30
0.000000
 11
0.968813
 21
0.544210
 31
0.000000
  0
LINE
  8
25
 10
0.968813
 20
0.544210
 30
0.000000
 11
0.978488
 21
0.534535
 31
0.000000
  0
LINE
  8
25
 10
0.978488
 20
0.534535
 30
0.000000
 11
0.988163
 21
0.534535
 31
0.000000
  0
LINE
  8
25
 10
0.988163
 20
0.534535
 30
0.000000
 11
0.993000
 21
0.539372
 31
0.000000
  0
LINE
  8
25
 10
0.993000
 20
0.539372
 30
0.000000
 11
0.993000
 21
0.549047
 31
0.000000
  0
LINE
  8
25
 10
0.993000
 20
0.549047
 30
0.000000
 11
0.988163
 21
0.553885
 31
0.000000
  0
LINE
  8
25
 10
0.988163
 20
0.553885
 30
0.000000
 11
0.983325
 21
0.553885
 31
0.000000
  0
LINE
  8
25
 10
0.983325
 20
0.553885
 30
0.000000
 11
0.978488
 21
0.549047
 31
0.000000
  0
LINE
  8
25
 10
0.978488
 20
0.549047
 30
0.000000
 11
0.978488
 21
0.534535
 31
0.000000
  0
POINT
  8
23
 10
0.331250
 20
0.375000
 30
0.000000
  0
LINE
  8
39
 10
0.369951
 20
0.432992
 30
0.000000
 11
0.369951
 21
0.317008
 31
0.000000
  0
LINE
  8
39
 10
0.369951
 20
0.317008
 30
0.000000
 11
0.292549
 21
0.317008
 31
0.000000
  0
LINE
  8
39
 10
0.292549
 20
0.317008
 30
0.000000
 11
0.292549
 21
0.432992
 31
0.000000
  0
LINE
  8
39
 10
0.292549
 20
0.432992
 30
0.000000
 11
0.369951
 21
0.432992
 31
0.000000
  0
LINE
  8
51
 10
0.348258
 20
0.389016
 30
0.000000
 11
0.348258
 21
0.360984
 31
0.000000
  0
LINE
  8
51
 10
0.314754
 20
0.389016
 30
0.000000
 11
0.314754
 21
0.360984
 31
0.000000
  0
INSERT
  8
51
  2
RECT
 10
0.331451
 20
0.398156
 30
0.000000
 41
0.019689
 42
0.037402
 43
1.000000
 50
270.000000
  0
INSERT
  8
51
  2
RECT
 10
0.331451
 20
0.352156
 30
0.000000
 41
0.019689
 42
0.037402
 43
1.000000
 50
270.000000
  0
INSERT
  8
35
  2
RECT
 10
0.331250
 20
0.375000
 30
0.000000
 41
0.015740
 42
0.023622
 43
1.000000
 50
270.000000
  0
INSERT
  8
1
  2
RECT
 10
0.331250
 20
0.408465
 30
0.000000
 41
0.043307
 42
0.039370
 43
1.000000
 50
270.000000
  0
INSERT
  8
31
  2
RECT
 10
0.331250
 20
0.408465
 30
0.000000
 41
0.043307
 42
0.039370
 43
1.000000
 50
270.000000
  0
INSERT
  8
1
  2
RECT
 10
0.331250
 20
0.341535
 30
0.000000
 41
0.043307
 42
0.039370
 43
1.000000
 50
270.000000
  0
INSERT
  8
31
  2
RECT
 10
0.331250
 20
0.341535
 30
0.000000
 41
0.043307
 42
0.039370
 43
1.000000
 50
270.000000
  0
LINE
  8
25
 10
0.362563
 20
0.386919
 30
0.000000
 11
0.357725
 21
0.382082
 31
0.000000
  0
LINE
  8
25
 10
0.357725
 20
0.382082
 30
0.000000
 11
0.357725
 21
0.372407
 31
0.000000
  0
LINE
  8
25
 10
0.357725
 20
0.372407
 30
0.000000
 11
0.362563
 21
0.367570
 31
0.000000
  0
LINE
  8
25
 10
0.362563
 20
0.367570
 30
0.000000
 11
0.381913
 21
0.367570
 31
0.000000
  0
LINE
  8
25
 10
0.381913
 20
0.367570
 30
0.000000
 11
0.386750
 21
0.372407
 31
0.000000
  0
LINE
  8
25
 10
0.386750
 20
0.372407
 30
0.000000
 11
0.386750
 21
0.382082
 31
0.000000
  0
LINE
  8
25
 10
0.386750
 20
0.382082
 30
0.000000
 11
0.381913
 21
0.386919
 31
0.000000
  0
LINE
  8
25
 10
0.357725
 20
0.397035
 30
0.000000
 11
0.357725
 21
0.416385
 31
0.000000
  0
LINE
  8
25
 10
0.357725
 20
0.416385
 30
0.000000
 11
0.362563
 21
0.416385
 31
0.000000
  0
LINE
  8
25
 10
0.362563
 20
0.416385
 30
0.000000
 11
0.381913
 21
0.397035
 31
0.000000
  0
LINE
  8
25
 10
0.381913
 20
0.397035
 30
0.000000
 11
0.386750
 21
0.397035
 31
0.000000
  0
POINT
  8
23
 10
0.650000
 20
0.712500
 30
0.000000
  0
LINE
  8
39
 10
0.592008
 20
0.751201
 30
0.000000
 11
0.707992
 21
0.751201
 31
0.000000
  0
LINE
  8
39
 10
0.707992
 20
0.751201
 30
0.000000
 11
0.707992
 21
0.673799
 31
0.000000
  0
LINE
  8
39
 10
0.707992
 20
0.673799
 30
0.000000
 11
0.592008
 21
0.673799
 31
0.000000
  0
LINE
  8
39
 10
0.592008
 20
0.673799
 30
0.000000
 11
0.592008
 21
0.751201
 31
0.000000
  0
LINE
  8
51
 10
0.635984
 20
0.729508
 30
0.000000
 11
0.664016
 21
0.729508
 31
0.000000
  0
LINE
  8
51
 10
0.635984
 20
0.696004
 30
0.000000
 11
0.664016
 21
0.696004
 31
0.000000
  0
INSERT
  8
51
  2
RECT
 10
0.626844
 20
0.712701
 30
0.000000
 41
0.019689
 42
0.037402
 43
1.000000
 50
0.000000
  0
INSERT
  8
51
  2
RECT
 10
0.672844
 20
0.712701
 30
0.000000
 41
0.019689
 42
0.037402
 43
1.000000
 50
0.000000
  0
INSERT
  8
35
  2
RECT
 10
0.650000
 20
0.712500
 30
0.000000
 41
0.015740
 42
0.023622
 43
1.000000
 50
0.000000
  0
INSERT
  8
1
  2
RECT
 10
0.616535
 20
0.712500
 30
0.000000
 41
0.043307
 42
0.039370
 43
1.000000
 50
0.000000
  0
INSERT
  8
31
  2
RECT
 10
0.616535
 20
0.712500
 30
0.000000
 41
0.043307
 42
0.039370
 43
1.000000
 50
0.000000
  0
INSERT
  8
1
  2
RECT
 10
0.683465
 20
0.712500
 30
0.000000
 41
0.043307
 42
0.039370
 43
1.000000
 50
0.000000
  0
INSERT
  8
31
  2
RECT
 10
0.683465
 20
0.712500
 30
0.000000
 41
0.043307
 42
0.039370
 43
1.000000
 50
0.000000
  0
LINE
  8
25
 10
0.783350
 20
0.725687
 30
0.000000
 11
0.778512
 21
0.730525
 31
0.000000
  0
LINE
  8
25
 10
0.778512
 20
0.730525
 30
0.000000
 11
0.768837
 21
0.730525
 31
0.000000
  0
LINE
  8
25
 10
0.768837
 20
0.730525
 30
0.000000
 11
0.764000
 21
0.725687
 31
0.000000
  0
LINE
  8
25
 10
0.764000
 20
0.725687
 30
0.000000
 11
0.764000
 21
0.706337
 31
0.000000
  0
LINE
  8
25
 10
0.764000
 20
0.706337
 30
0.000000
 11
0.768837
 21
0.701500
 31
0.000000
  0
LINE
  8
25
 10
0.768837
 20
0.701500
 30
0.000000
 11
0.778512
 21
0.701500
 31
0.000000
  0
LINE
  8
25
 10
0.778512
 20
0.701500
 30
0.000000
 11
0.783350
 21
0.706337
 31
0.000000
  0
LINE
  8
25
 10
0.793465
 20
0.725687
 30
0.000000
 11
0.798303
 21
0.730525
 31
0.000000
  0
LINE
  8
25
 10
0.798303
 20
0.730525
 30
0.000000
 11
0.807977
 21
0.730525
 31
0.000000
  0
LINE
  8
25
 10
0.807977
 20
0.730525
 30
0.000000
 11
0.812815
 21
0.725687
 31
0.000000
  0
LINE
  8
25
 10
0.812815
 20
0.725687
 30
0.000000
 11
0.812815
 21
0.720850
 31
0.000000
  0
LINE
  8
25
 10
0.812815
 20
0.720850
 30
0.000000
 11
0.807977
 21
0.716012
 31
0.000000
  0
LINE
  8
25
 10
0.807977
 20
0.716012
 30
0.000000
 11
0.812815
 21
0.711175
 31
0.000000
  0
LINE
  8
25
 10
0.812815
 20
0.711175
 30
0.000000
 11
0.812815
 21
0.706337
 31
0.000000
  0
LINE
  8
25
 10
0.812815
 20
0.706337
 30
0.000000
 11
0.807977
 21
0.701500
 31
0.000000
  0
LINE
  8
25
 10
0.807977
 20
0.701500
 30
0.000000
 11
0.798303
 21
0.701500
 31
0.000000
  0
LINE
  8
25
 10
0.798303
 20
0.701500
 30
0.000000
 11
0.793465
 21
0.706337
 31
0.000000
  0
LINE
  8
25
 10
0.793465
 20
0.706337
 30
0.000000
 11
0.793465
 21
0.711175
 31
0.000000
  0
LINE
  8
25
 10
0.793465
 20
0.711175
 30
0.000000
 11
0.798303
 21
0.716012
 31
0.000000
  0
LINE
  8
25
 10
0.798303
 20
0.716012
 30
0.000000
 11
0.793465
 21
0.720850
 31
0.000000
  0
LINE
  8
25
 10
0.793465
 20
0.720850
 30
0.000000
 11
0.793465
 21
0.725687
 31
0.000000
  0
LINE
  8
25
 10
0.798303
 20
0.716012
 30
0.000000
 11
0.807977
 21
0.716012
 31
0.000000
  0
POINT
  8
23
 10
0.262500
 20
0.062500
 30
0.000000
  0
LINE
  8
39
 10
0.204508
 20
0.101201
 30
0.000000
 11
0.320492
 21
0.101201
 31
0.000000
  0
LINE
  8
39
 10
0.320492
 20
0.101201
 30
0.000000
 11
0.320492
 21
0.023799
 31
0.000000
  0
LINE
  8
39
 10
0.320492
 20
0.023799
 30
0.000000
 11
0.204508
 21
0.023799
 31
0.000000
  0
LINE
  8
39
 10
0.204508
 20
0.023799
 30
0.000000
 11
0.204508
 21
0.101201
 31
0.000000
  0
LINE
  8
51
 10
0.248484
 20
0.079508
 30
0.000000
 11
0.276516
 21
0.079508
 31
0.000000
  0
LINE
  8
51
 10
0.248484
 20
0.046004
 30
0.000000
 11
0.276516
 21
0.046004
 31
0.000000
  0
INSERT
  8
51
  2
RECT
 10
0.239344
 20
0.062701
 30
0.000000
 41
0.019689
 42
0.037402
 43
1.000000
 50
0.000000
  0
INSERT
  8
51
  2
RECT
 10
0.285344
 20
0.062701
 30
0.000000
 41
0.019689
 42
0.037402
 43
1.000000
 50
0.000000
  0
INSERT
  8
35
  2
RECT
 10
0.262500
 20
0.062500
 30
0.000000
 41
0.015740
 42
0.023622
 43
1.000000
 50
0.000000
  0
INSERT
  8
1
  2
RECT
 10
0.229035
 20
0.062500
 30
0.000000
 41
0.043307
 42
0.039370
 43
1.000000
 50
0.000000
  0
INSERT
  8
31
  2
RECT
 10
0.229035
 20
0.062500
 30
0.000000
 41
0.043307
 42
0.039370
 43
1.000000
 50
0.000000
  0
INSERT
  8
1
  2
RECT
 10
0.295965
 20
0.062500
 30
0.000000
 41
0.043307
 42
0.039370
 43
1.000000
 50
0.000000
  0
INSERT
  8
31
  2
RECT
 10
0.295965
 20
0.062500
 30
0.000000
 41
0.043307
 42
0.039370
 43
1.000000
 50
0.000000
  0
LINE
  8
25
 10
0.224419
 20
0.031187
 30
0.000000
 11
0.219582
 21
0.036025
 31
0.000000
  0
LINE
  8
25
 10
0.219582
 20
0.036025
 30
0.000000
 11
0.209907
 21
0.036025
 31
0.000000
  0
LINE
  8
25
 10
0.209907
 20
0.036025
 30
0.000000
 11
0.205070
 21
0.031187
 31
0.000000
  0
LINE
  8
25
 10
0.205070
 20
0.031187
 30
0.000000
 11
0.205070
 21
0.011837
 31
0.000000
  0
LINE
  8
25
 10
0.205070
 20
0.011837
 30
0.000000
 11
0.209907
 21
0.007000
 31
0.000000
  0
LINE
  8
25
 10
0.209907
 20
0.007000
 30
0.000000
 11
0.219582
 21
0.007000
 31
0.000000
  0
LINE
  8
25
 10
0.219582
 20
0.007000
 30
0.000000
 11
0.224419
 21
0.011837
 31
0.000000
  0
LINE
  8
25
 10
0.234535
 20
0.011837
 30
0.000000
 11
0.239372
 21
0.007000
 31
0.000000
  0
LINE
  8
25
 10
0.239372
 20
0.007000
 30
0.000000
 11
0.249047
 21
0.007000
 31
0.000000
  0
LINE
  8
25
 10
0.249047
 20
0.007000
 30
0.000000
 11
0.253885
 21
0.011837
 31
0.000000
  0
LINE
  8
25
 10
0.253885
 20
0.011837
 30
0.000000
 11
0.253885
 21
0.031187
 31
0.000000
  0
LINE
  8
25
 10
0.253885
 20
0.031187
 30
0.000000
 11
0.249047
 21
0.036025
 31
0.000000
  0
LINE
  8
25
 10
0.249047
 20
0.036025
 30
0.000000
 11
0.239372
 21
0.036025
 31
0.000000
  0
LINE
  8
25
 10
0.239372
 20
0.036025
 30
0.000000
 11
0.234535
 21
0.031187
 31
0.000000
  0
LINE
  8
25
 10
0.234535
 20
0.031187
 30
0.000000
 11
0.234535
 21
0.026350
 31
0.000000
  0
LINE
  8
25
 10
0.234535
 20
0.026350
 30
0.000000
 11
0.239372
 21
0.021512
 31
0.000000
  0
LINE
  8
25
 10
0.239372
 20
0.021512
 30
0.000000
 11
0.253885
 21
0.021512
 31
0.000000
  0
POINT
  8
23
 10
0.262500
 20
0.787500
 30
0.000000
  0
LINE
  8
39
 10
0.204508
 20
0.826201
 30
0.000000
 11
0.320492
 21
0.826201
 31
0.000000
  0
LINE
  8
39
 10
0.320492
 20
0.826201
 30
0.000000
 11
0.320492
 21
0.748799
 31
0.000000
  0
LINE
  8
39
 10
0.320492
 20
0.748799
 30
0.000000
 11
0.204508
 21
0.748799
 31
0.000000
  0
LINE
  8
39
 10
0.204508
 20
0.748799
 30
0.000000
 11
0.204508
 21
0.826201
 31
0.000000
  0
LINE
  8
51
 10
0.248484
 20
0.804508
 30
0.000000
 11
0.276516
 21
0.804508
 31
0.000000
  0
LINE
  8
51
 10
0.248484
 20
0.771004
 30
0.000000
 11
0.276516
 21
0.771004
 31
0.000000
  0
INSERT
  8
51
  2
RECT
 10
0.239344
 20
0.787701
 30
0.000000
 41
0.019689
 42
0.037402
 43
1.000000
 50
0.000000
  0
INSERT
  8
51
  2
RECT
 10
0.285344
 20
0.787701
 30
0.000000
 41
0.019689
 42
0.037402
 43
1.000000
 50
0.000000
  0
INSERT
  8
35
  2
RECT
 10
0.262500
 20
0.787500
 30
0.000000
 41
0.015740
 42
0.023622
 43
1.000000
 50
0.000000
  0
INSERT
  8
1
  2
RECT
 10
0.229035
 20
0.787500
 30
0.000000
 41
0.043307
 42
0.039370
 43
1.000000
 50
0.000000
  0
INSERT
  8
31
  2
RECT
 10
0.229035
 20
0.787500
 30
0.000000
 41
0.043307
 42
0.039370
 43
1.000000
 50
0.000000
  0
INSERT
  8
1
  2
RECT
 10
0.295965
 20
0.787500
 30
0.000000
 41
0.043307
 42
0.039370
 43
1.000000
 50
0.000000
  0
INSERT
  8
31
  2
RECT
 10
0.295965
 20
0.787500
 30
0.000000
 41
0.043307
 42
0.039370
 43
1.000000
 50
0.000000
  0
LINE
  8
25
 10
0.233350
 20
0.838187
 30
0.000000
 11
0.228512
 21
0.843025
 31
0.000000
  0
LINE
  8
25
 10
0.228512
 20
0.843025
 30
0.000000
 11
0.218837
 21
0.843025
 31
0.000000
  0
LINE
  8
25
 10
0.218837
 20
0.843025
 30
0.000000
 11
0.214000
 21
0.838187
 31
0.000000
  0
LINE
  8
25
 10
0.214000
 20
0.838187
 30
0.000000
 11
0.214000
 21
0.818837
 31
0.000000
  0
LINE
  8
25
 10
0.214000
 20
0.818837
 30
0.000000
 11
0.218837
 21
0.814000
 31
0.000000
  0
LINE
  8
25
 10
0.218837
 20
0.814000
 30
0.000000
 11
0.228512
 21
0.814000
 31
0.000000
  0
LINE
  8
25
 10
0.228512
 20
0.814000
 30
0.000000
 11
0.233350
 21
0.818837
 31
0.000000
  0
LINE
  8
25
 10
0.243465
 20
0.833350
 30
0.000000
 11
0.253140
 21
0.843025
 31
0.000000
  0
LINE
  8
25
 10
0.253140
 20
0.843025
 30
0.000000
 11
0.253140
 21
0.814000
 31
0.000000
  0
LINE
  8
25
 10
0.243465
 20
0.814000
 30
0.000000
 11
0.262815
 21
0.814000
 31
0.000000
  0
LINE
  8
25
 10
0.272930
 20
0.818837
 30
0.000000
 11
0.272930
 21
0.838187
 31
0.000000
  0
LINE
  8
25
 10
0.272930
 20
0.838187
 30
0.000000
 11
0.277768
 21
0.843025
 31
0.000000
  0
LINE
  8
25
 10
0.277768
 20
0.843025
 30
0.000000
 11
0.287443
 21
0.843025
 31
0.000000
  0
LINE
  8
25
 10
0.287443
 20
0.843025
 30
0.000000
 11
0.292280
 21
0.838187
 31
0.000000
  0
LINE
  8
25
 10
0.292280
 20
0.838187
 30
0.000000
 11
0.292280
 21
0.818837
 31
0.000000
  0
LINE
  8
25
 10
0.292280
 20
0.818837
 30
0.000000
 11
0.287443
 21
0.814000
 31
0.000000
  0
LINE
  8
25
 10
0.287443
 20
0.814000
 30
0.000000
 11
0.277768
 21
0.814000
 31
0.000000
  0
LINE
  8
25
 10
0.277768
 20
0.814000
 30
0.000000
 11
0.272930
 21
0.818837
 31
0.000000
  0
LINE
  8
25
 10
0.272930
 20
0.818837
 30
0.000000
 11
0.292280
 21
0.838187
 31
0.000000
  0
POINT
  8
23
 10
0.587500
 20
0.150000
 30
0.000000
  0
LINE
  8
39
 10
0.529508
 20
0.188701
 30
0.000000
 11
0.645492
 21
0.188701
 31
0.000000
  0
LINE
  8
39
 10
0.645492
 20
0.188701
 30
0.000000
 11
0.645492
 21
0.111299
 31
0.000000
  0
LINE
  8
39
 10
0.645492
 20
0.111299
 30
0.000000
 11
0.529508
 21
0.111299
 31
0.000000
  0
LINE
  8
39
 10
0.529508
 20
0.111299
 30
0.000000
 11
0.529508
 21
0.188701
 31
0.000000
  0
LINE
  8
51
 10
0.573484
 20
0.167008
 30
0.000000
 11
0.601516
 21
0.167008
 31
0.000000
  0
LINE
  8
51
 10
0.573484
 20
0.133504
 30
0.000000
 11
0.601516
 21
0.133504
 31
0.000000
  0
INSERT
  8
51
  2
RECT
 10
0.564344
 20
0.150201
 30
0.000000
 41
0.019689
 42
0.037402
 43
1.000000
 50
0.000000
  0
INSERT
  8
51
  2
RECT
 10
0.610344
 20
0.150201
 30
0.000000
 41
0.019689
 42
0.037402
 43
1.000000
 50
0.000000
  0
INSERT
  8
35
  2
RECT
 10
0.587500
 20
0.150000
 30
0.000000
 41
0.015740
 42
0.023622
 43
1.000000
 50
0.000000
  0
INSERT
  8
1
  2
RECT
 10
0.554035
 20
0.150000
 30
0.000000
 41
0.043307
 42
0.039370
 43
1.000000
 50
0.000000
  0
INSERT
  8
31
  2
RECT
 10
0.554035
 20
0.150000
 30
0.000000
 41
0.043307
 42
0.039370
 43
1.000000
 50
0.000000
  0
INSERT
  8
1
  2
RECT
 10
0.620965
 20
0.150000
 30
0.000000
 41
0.043307
 42
0.039370
 43
1.000000
 50
0.000000
  0
INSERT
  8
31
  2
RECT
 10
0.620965
 20
0.150000
 30
0.000000
 41
0.043307
 42
0.039370
 43
1.000000
 50
0.000000
  0
LINE
  8
25
 10
0.558350
 20
0.200687
 30
0.000000
 11
0.553512
 21
0.205525
 31
0.000000
  0
LINE
  8
25
 10
0.553512
 20
0.205525
 30
0.000000
 11
0.543837
 21
0.205525
 31
0.000000
  0
LINE
  8
25
 10
0.543837
 20
0.205525
 30
0.000000
 11
0.539000
 21
0.200687
 31
0.000000
  0
LINE
  8
25
 10
0.539000
 20
0.200687
 30
0.000000
 11
0.539000
 21
0.181337
 31
0.000000
  0
LINE
  8
25
 10
0.539000
 20
0.181337
 30
0.000000
 11
0.543837
 21
0.176500
 31
0.000000
  0
LINE
  8
25
 10
0.543837
 20
0.176500
 30
0.000000
 11
0.553512
 21
0.176500
 31
0.000000
  0
LINE
  8
25
 10
0.553512
 20
0.176500
 30
0.000000
 11
0.558350
 21
0.181337
 31
0.000000
  0
LINE
  8
25
 10
0.568465
 20
0.195850
 30
0.000000
 11
0.578140
 21
0.205525
 31
0.000000
  0
LINE
  8
25
 10
0.578140
 20
0.205525
 30
0.000000
 11
0.578140
 21
0.176500
 31
0.000000
  0
LINE
  8
25
 10
0.568465
 20
0.176500
 30
0.000000
 11
0.587815
 21
0.176500
 31
0.000000
  0
LINE
  8
25
 10
0.597930
 20
0.195850
 30
0.000000
 11
0.607605
 21
0.205525
 31
0.000000
  0
LINE
  8
25
 10
0.607605
 20
0.205525
 30
0.000000
 11
0.607605
 21
0.176500
 31
0.000000
  0
LINE
  8
25
 10
0.597930
 20
0.176500
 30
0.000000
 11
0.617280
 21
0.176500
 31
0.000000
  0
POINT
  8
23
 10
0.893750
 20
0.137500
 30
0.000000
  0
LINE
  8
51
 10
0.877608
 20
0.162500
 30
0.000000
 11
0.909892
 21
0.162500
 31
0.000000
  0
LINE
  8
51
 10
0.877608
 20
0.112500
 30
0.000000
 11
0.909892
 21
0.112500
 31
0.000000
  0
LINE
  8
39
 10
0.816073
 20
0.176201
 30
0.000000
 11
0.971427
 21
0.176201
 31
0.000000
  0
LINE
  8
39
 10
0.971427
 20
0.176201
 30
0.000000
 11
0.971427
 21
0.098799
 31
0.000000
  0
LINE
  8
39
 10
0.971427
 20
0.098799
 30
0.000000
 11
0.816073
 21
0.098799
 31
0.000000
  0
LINE
  8
39
 10
0.816073
 20
0.098799
 30
0.000000
 11
0.816073
 21
0.176201
 31
0.000000
  0
LINE
  8
21
 10
0.853750
 20
0.172500
 30
0.000000
 11
0.818750
 21
0.172500
 31
0.000000
  0
LINE
  8
21
 10
0.818750
 20
0.172500
 30
0.000000
 11
0.818750
 21
0.102500
 31
0.000000
  0
LINE
  8
21
 10
0.818750
 20
0.102500
 30
0.000000
 11
0.853750
 21
0.102500
 31
0.000000
  0
LINE
  8
25
 10
0.870750
 20
0.235539
 30
0.000000
 11
0.870750
 21
0.189500
 31
0.000000
  0
LINE
  8
25
 10
0.870750
 20
0.189500
 30
0.000000
 11
0.893770
 21
0.189500
 31
0.000000
  0
LINE
  8
25
 10
0.893770
 20
0.189500
 30
0.000000
 11
0.901443
 21
0.197173
 31
0.000000
  0
LINE
  8
25
 10
0.901443
 20
0.197173
 30
0.000000
 11
0.901443
 21
0.227866
 31
0.000000
  0
LINE
  8
25
 10
0.901443
 20
0.227866
 30
0.000000
 11
0.893770
 21
0.235539
 31
0.000000
  0
LINE
  8
25
 10
0.893770
 20
0.235539
 30
0.000000
 11
0.870750
 21
0.235539
 31
0.000000
  0
LINE
  8
25
 10
0.916789
 20
0.220193
 30
0.000000
 11
0.932136
 21
0.235539
 31
0.000000
  0
LINE
  8
25
 10
0.932136
 20
0.235539
 30
0.000000
 11
0.932136
 21
0.189500
 31
0.000000
  0
LINE
  8
25
 10
0.916789
 20
0.189500
 30
0.000000
 11
0.947482
 21
0.189500
 31
0.000000
  0
INSERT
  8
51
  2
RECT
 10
0.922545
 20
0.137559
 30
0.000000
 41
0.025591
 42
0.055118
 43
1.000000
 50
0.000000
  0
INSERT
  8
51
  2
RECT
 10
0.864545
 20
0.137559
 30
0.000000
 41
0.025591
 42
0.055118
 43
1.000000
 50
0.000000
  0
INSERT
  8
35
  2
RECT
 10
0.893750
 20
0.137500
 30
0.000000
 41
0.015740
 42
0.039378
 43
1.000000
 50
0.000000
  0
INSERT
  8
1
  2
RECT
 10
0.856348
 20
0.137500
 30
0.000000
 41
0.051181
 42
0.059055
 43
1.000000
 50
0.000000
  0
INSERT
  8
31
  2
RECT
 10
0.856348
 20
0.137500
 30
0.000000
 41
0.051181
 42
0.059055
 43
1.000000
 50
0.000000
  0
INSERT
  8
1
  2
RECT
 10
0.931152
 20
0.137500
 30
0.000000
 41
0.051181
 42
0.059055
 43
1.000000
 50
0.000000
  0
INSERT
  8
31
  2
RECT
 10
0.931152
 20
0.137500
 30
0.000000
 41
0.051181
 42
0.059055
 43
1.000000
 50
0.000000
  0
POINT
  8
23
 10
0.162500
 20
0.275000
 30
0.000000
  0
LINE
  8
21
 10
0.024705
 20
0.215945
 30
0.000000
 11
0.024705
 21
0.649016
 31
0.000000
  0
LINE
  8
21
 10
0.024705
 20
0.649016
 30
0.000000
 11
0.300295
 21
0.649016
 31
0.000000
  0
LINE
  8
21
 10
0.300295
 20
0.649016
 30
0.000000
 11
0.300295
 21
0.215945
 31
0.000000
  0
LINE
  8
21
 10
0.300295
 20
0.215945
 30
0.000000
 11
0.024705
 21
0.215945
 31
0.000000
  0
INSERT
  8
17
  2
SQUAREP
 10
0.162500
 20
0.275000
 30
0.000000
 41
0.076772
 42
0.076772
 43
1.000000
 50
180.000000
  0
INSERT
  8
17
  2
SQUAREP
 10
0.162500
 20
0.275000
 30
0.000000
 41
0.076772
 42
0.076772
 43
1.000000
 50
180.000000
  0
CIRCLE
  8
44
 10
0.162500
 20
0.275000
 30
0.000000
 40
0.025591
  0
INSERT
  8
17
  2
ROUNDP
 10
0.162500
 20
0.375000
 30
0.000000
 41
0.076772
 42
0.076772
 43
1.000000
 50
180.000000
  0
INSERT
  8
17
  2
ROUNDP
 10
0.162500
 20
0.375000
 30
0.000000
 41
0.076772
 42
0.076772
 43
1.000000
 50
180.000000
  0
CIRCLE
  8
44
 10
0.162500
 20
0.375000
 30
0.000000
 40
0.025591
  0
INSERT
  8
17
  2
ROUNDP
 10
0.162500
 20
0.475000
 30
0.000000
 41
0.076772
 42
0.076772
 43
1.000000
 50
180.000000
  0
INSERT
  8
17
  2
ROUNDP
 10
0.162500
 20
0.475000
 30
0.000000
 41
0.076772
 42
0.076772
 43
1.000000
 50
180.000000
  0
CIRCLE
  8
44
 10
0.162500
 20
0.475000
 30
0.000000
 40
0.025591
  0
INSERT
  8
17
  2
ROUNDP
 10
0.162500
 20
0.575000
 30
0.000000
 41
0.076772
 42
0.076772
 43
1.000000
 50
180.000000
  0
INSERT
  8
17
  2
ROUNDP
 10
0.162500
 20
0.575000
 30
0.000000
 41
0.076772
 42
0.076772
 43
1.000000
 50
180.000000
  0
CIRCLE
  8
44
 10
0.162500
 20
0.575000
 30
0.000000
 40
0.025591
  0
LINE
  8
25
 10
0.022169
 20
0.176318
 30
0.000000
 11
0.027007
 21
0.171480
 31
0.000000
  0
LINE
  8
25
 10
0.027007
 20
0.171480
 30
0.000000
 11
0.031844
 21
0.171480
 31
0.000000
  0
LINE
  8
25
 10
0.031844
 20
0.171480
 30
0.000000
 11
0.036682
 21
0.176318
 31
0.000000
  0
LINE
  8
25
 10
0.036682
 20
0.176318
 30
0.000000
 11
0.036682
 21
0.200505
 31
0.000000
  0
LINE
  8
25
 10
0.031844
 20
0.200505
 30
0.000000
 11
0.041519
 21
0.200505
 31
0.000000
  0
LINE
  8
25
 10
0.051634
 20
0.190830
 30
0.000000
 11
0.061309
 21
0.200505
 31
0.000000
  0
LINE
  8
25
 10
0.061309
 20
0.200505
 30
0.000000
 11
0.061309
 21
0.171480
 31
0.000000
  0
LINE
  8
25
 10
0.051634
 20
0.171480
 30
0.000000
 11
0.070984
 21
0.171480
 31
0.000000
  0
POINT
  8
23
 10
0.262500
 20
0.143750
 30
0.000000
  0
LINE
  8
51
 10
0.245492
 20
0.129734
 30
0.000000
 11
0.279508
 21
0.129734
 31
0.000000
  0
LINE
  8
51
 10
0.279508
 20
0.157766
 30
0.000000
 11
0.245492
 21
0.157766
 31
0.000000
  0
LINE
  8
39
 10
0.204508
 20
0.182451
 30
0.000000
 11
0.320492
 21
0.182451
 31
0.000000
  0
LINE
  8
39
 10
0.320492
 20
0.182451
 30
0.000000
 11
0.320492
 21
0.105049
 31
0.000000
  0
LINE
  8
39
 10
0.320492
 20
0.105049
 30
0.000000
 11
0.204508
 21
0.105049
 31
0.000000
  0
LINE
  8
39
 10
0.204508
 20
0.105049
 30
0.000000
 11
0.204508
 21
0.182451
 31
0.000000
  0
INSERT
  8
51
  2
RECT
 10
0.287500
 20
0.143750
 30
0.000000
 41
0.016000
 42
0.034000
 43
1.000000
 50
0.000000
  0
INSERT
  8
51
  2
RECT
 10
0.237500
 20
0.143750
 30
0.000000
 41
0.016000
 42
0.034000
 43
1.000000
 50
0.000000
  0
INSERT
  8
35
  2
RECT
 10
0.262500
 20
0.143750
 30
0.000000
 41
0.015740
 42
0.031504
 43
1.000000
 50
0.000000
  0
INSERT
  8
1
  2
RECT
 10
0.229035
 20
0.143750
 30
0.000000
 41
0.039370
 42
0.043307
 43
1.000000
 50
0.000000
  0
INSERT
  8
31
  2
RECT
 10
0.229035
 20
0.143750
 30
0.000000
 41
0.039370
 42
0.043307
 43
1.000000
 50
0.000000
  0
INSERT
  8
1
  2
RECT
 10
0.295965
 20
0.143750
 30
0.000000
 41
0.039370
 42
0.043307
 43
1.000000
 50
0.000000
  0
INSERT
  8
31
  2
RECT
 10
0.295965
 20
0.143750
 30
0.000000
 41
0.039370
 42
0.043307
 43
1.000000
 50
0.000000
  0
LINE
  8
25
 10
0.205070
 20
0.088250
 30
0.000000
 11
0.205070
 21
0.117275
 31
0.000000
  0
LINE
  8
25
 10
0.205070
 20
0.117275
 30
0.000000
 11
0.219582
 21
0.117275
 31
0.000000
  0
LINE
  8
25
 10
0.219582
 20
0.117275
 30
0.000000
 11
0.224419
 21
0.112437
 31
0.000000
  0
LINE
  8
25
 10
0.224419
 20
0.112437
 30
0.000000
 11
0.224419
 21
0.102762
 31
0.000000
  0
LINE
  8
25
 10
0.224419
 20
0.102762
 30
0.000000
 11
0.219582
 21
0.097925
 31
0.000000
  0
LINE
  8
25
 10
0.219582
 20
0.097925
 30
0.000000
 11
0.205070
 21
0.097925
 31
0.000000
  0
LINE
  8
25
 10
0.214744
 20
0.097925
 30
0.000000
 11
0.224419
 21
0.088250
 31
0.000000
  0
LINE
  8
25
 10
0.234535
 20
0.107600
 30
0.000000
 11
0.244210
 21
0.117275
 31
0.000000
  0
LINE
  8
25
 10
0.244210
 20
0.117275
 30
0.000000
 11
0.244210
 21
0.088250
 31
0.000000
  0
LINE
  8
25
 10
0.234535
 20
0.088250
 30
0.000000
 11
0.253885
 21
0.088250
 31
0.000000
  0
POINT
  8
23
 10
0.262500
 20
0.700000
 30
0.000000
  0
LINE
  8
51
 10
0.245492
 20
0.685984
 30
0.000000
 11
0.279508
 21
0.685984
 31
0.000000
  0
LINE
  8
51
 10
0.279508
 20
0.714016
 30
0.000000
 11
0.245492
 21
0.714016
 31
0.000000
  0
LINE
  8
39
 10
0.204508
 20
0.738701
 30
0.000000
 11
0.320492
 21
0.738701
 31
0.000000
  0
LINE
  8
39
 10
0.320492
 20
0.738701
 30
0.000000
 11
0.320492
 21
0.661299
 31
0.000000
  0
LINE
  8
39
 10
0.320492
 20
0.661299
 30
0.000000
 11
0.204508
 21
0.661299
 31
0.000000
  0
LINE
  8
39
 10
0.204508
 20
0.661299
 30
0.000000
 11
0.204508
 21
0.738701
 31
0.000000
  0
INSERT
  8
51
  2
RECT
 10
0.287500
 20
0.700000
 30
0.000000
 41
0.016000
 42
0.034000
 43
1.000000
 50
0.000000
  0
INSERT
  8
51
  2
RECT
 10
0.237500
 20
0.700000
 30
0.000000
 41
0.016000
 42
0.034000
 43
1.000000
 50
0.000000
  0
INSERT
  8
35
  2
RECT
 10
0.262500
 20
0.700000
 30
0.000000
 41
0.015740
 42
0.031504
 43
1.000000
 50
0.000000
  0
INSERT
  8
1
  2
RECT
 10
0.229035
 20
0.700000
 30
0.000000
 41
0.039370
 42
0.043307
 43
1.000000
 50
0.000000
  0
INSERT
  8
31
  2
RECT
 10
0.229035
 20
0.700000
 30
0.000000
 41
0.039370
 42
0.043307
 43
1.000000
 50
0.000000
  0
INSERT
  8
1
  2
RECT
 10
0.295965
 20
0.700000
 30
0.000000
 41
0.039370
 42
0.043307
 43
1.000000
 50
0.000000
  0
INSERT
  8
31
  2
RECT
 10
0.295965
 20
0.700000
 30
0.000000
 41
0.039370
 42
0.043307
 43
1.000000
 50
0.000000
  0
LINE
  8
25
 10
0.214000
 20
0.726500
 30
0.000000
 11
0.214000
 21
0.755525
 31
0.000000
  0
LINE
  8
25
 10
0.214000
 20
0.755525
 30
0.000000
 11
0.228512
 21
0.755525
 31
0.000000
  0
LINE
  8
25
 10
0.228512
 20
0.755525
 30
0.000000
 11
0.233350
 21
0.750687
 31
0.000000
  0
LINE
  8
25
 10
0.233350
 20
0.750687
 30
0.000000
 11
0.233350
 21
0.741012
 31
0.000000
  0
LINE
  8
25
 10
0.233350
 20
0.741012
 30
0.000000
 11
0.228512
 21
0.736175
 31
0.000000
  0
LINE
  8
25
 10
0.228512
 20
0.736175
 30
0.000000
 11
0.214000
 21
0.736175
 31
0.000000
  0
LINE
  8
25
 10
0.223675
 20
0.736175
 30
0.000000
 11
0.233350
 21
0.726500
 31
0.000000
  0
LINE
  8
25
 10
0.262815
 20
0.726500
 30
0.000000
 11
0.243465
 21
0.726500
 31
0.000000
  0
LINE
  8
25
 10
0.243465
 20
0.726500
 30
0.000000
 11
0.262815
 21
0.745850
 31
0.000000
  0
LINE
  8
25
 10
0.262815
 20
0.745850
 30
0.000000
 11
0.262815
 21
0.750687
 31
0.000000
  0
LINE
  8
25
 10
0.262815
 20
0.750687
 30
0.000000
 11
0.257977
 21
0.755525
 31
0.000000
  0
LINE
  8
25
 10
0.257977
 20
0.755525
 30
0.000000
 11
0.248303
 21
0.755525
 31
0.000000
  0
LINE
  8
25
 10
0.248303
 20
0.755525
 30
0.000000
 11
0.243465
 21
0.750687
 31
0.000000
  0
POINT
  8
23
 10
0.762500
 20
0.125000
 30
0.000000
  0
LINE
  8
51
 10
0.776516
 20
0.107992
 30
0.000000
 11
0.776516
 21
0.142008
 31
0.000000
  0
LINE
  8
51
 10
0.748484
 20
0.142008
 30
0.000000
 11
0.748484
 21
0.107992
 31
0.000000
  0
LINE
  8
39
 10
0.723799
 20
0.067008
 30
0.000000
 11
0.723799
 21
0.182992
 31
0.000000
  0
LINE
  8
39
 10
0.723799
 20
0.182992
 30
0.000000
 11
0.801201
 21
0.182992
 31
0.000000
  0
LINE
  8
39
 10
0.801201
 20
0.182992
 30
0.000000
 11
0.801201
 21
0.067008
 31
0.000000
  0
LINE
  8
39
 10
0.801201
 20
0.067008
 30
0.000000
 11
0.723799
 21
0.067008
 31
0.000000
  0
INSERT
  8
51
  2
RECT
 10
0.762500
 20
0.150000
 30
0.000000
 41
0.016000
 42
0.034000
 43
1.000000
 50
90.000000
  0
INSERT
  8
51
  2
RECT
 10
0.762500
 20
0.100000
 30
0.000000
 41
0.016000
 42
0.034000
 43
1.000000
 50
90.000000
  0
INSERT
  8
35
  2
RECT
 10
0.762500
 20
0.125000
 30
0.000000
 41
0.015740
 42
0.031504
 43
1.000000
 50
90.000000
  0
INSERT
  8
1
  2
RECT
 10
0.762500
 20
0.091535
 30
0.000000
 41
0.039370
 42
0.043307
 43
1.000000
 50
90.000000
  0
INSERT
  8
31
  2
RECT
 10
0.762500
 20
0.091535
 30
0.000000
 41
0.039370
 42
0.043307
 43
1.000000
 50
90.000000
  0
INSERT
  8
1
  2
RECT
 10
0.762500
 20
0.158465
 30
0.000000
 41
0.039370
 42
0.043307
 43
1.000000
 50
90.000000
  0
INSERT
  8
31
  2
RECT
 10
0.762500
 20
0.158465
 30
0.000000
 41
0.039370
 42
0.043307
 43
1.000000
 50
90.000000
  0
LINE
  8
25
 10
0.736000
 20
0.089000
 30
0.000000
 11
0.706975
 21
0.089000
 31
0.000000
  0
LINE
  8
25
 10
0.706975
 20
0.089000
 30
0.000000
 11
0.706975
 21
0.103512
 31
0.000000
  0
LINE
  8
25
 10
0.706975
 20
0.103512
 30
0.000000
 11
0.711813
 21
0.108350
 31
0.000000
  0
LINE
  8
25
 10
0.711813
 20
0.108350
 30
0.000000
 11
0.721488
 21
0.108350
 31
0.000000
  0
LINE
  8
25
 10
0.721488
 20
0.108350
 30
0.000000
 11
0.726325
 21
0.103512
 31
0.000000
  0
LINE
  8
25
 10
0.726325
 20
0.103512
 30
0.000000
 11
0.726325
 21
0.089000
 31
0.000000
  0
LINE
  8
25
 10
0.726325
 20
0.098675
 30
0.000000
 11
0.736000
 21
0.108350
 31
0.000000
  0
LINE
  8
25
 10
0.711813
 20
0.118465
 30
0.000000
 11
0.706975
 21
0.123303
 31
0.000000
  0
LINE
  8
25
 10
0.706975
 20
0.123303
 30
0.000000
 11
0.706975
 21
0.132977
 31
0.000000
  0
LINE
  8
25
 10
0.706975
 20
0.132977
 30
0.000000
 11
0.711813
 21
0.137815
 31
0.000000
  0
LINE
  8
25
 10
0.711813
 20
0.137815
 30
0.000000
 11
0.716650
 21
0.137815
 31
0.000000
  0
LINE
  8
25
 10
0.716650
 20
0.137815
 30
0.000000
 11
0.721488
 21
0.132977
 31
0.000000
  0
LINE
  8
25
 10
0.721488
 20
0.132977
 30
0.000000
 11
0.721488
 21
0.128140
 31
0.000000
  0
LINE
  8
25
 10
0.721488
 20
0.132977
 30
0.000000
 11
0.726325
 21
0.137815
 31
0.000000
  0
LINE
  8
25
 10
0.726325
 20
0.137815
 30
0.000000
 11
0.731163
 21
0.137815
 31
0.000000
  0
LINE
  8
25
 10
0.731163
 20
0.137815
 30
0.000000
 11
0.736000
 21
0.132977
 31
0.000000
  0
LINE
  8
25
 10
0.736000
 20
0.132977
 30
0.000000
 11
0.736000
 21
0.123303
 31
0.000000
  0
LINE
  8
25
 10
0.736000
 20
0.123303
 30
0.000000
 11
0.731163
 21
0.118465
 31
0.000000
  0
POINT
  8
23
 10
0.475000
 20
0.350000
 30
0.000000
  0
LINE
  8
51
 10
0.489016
 20
0.332992
 30
0.000000
 11
0.489016
 21
0.367008
 31
0.000000
  0
LINE
  8
51
 10
0.460984
 20
0.367008
 30
0.000000
 11
0.460984
 21
0.332992
 31
0.000000
  0
LINE
  8
39
 10
0.436299
 20
0.292008
 30
0.000000
 11
0.436299
 21
0.407992
 31
0.000000
  0
LINE
  8
39
 10
0.436299
 20
0.407992
 30
0.000000
 11
0.513701
 21
0.407992
 31
0.000000
  0
LINE
  8
39
 10
0.513701
 20
0.407992
 30
0.000000
 11
0.513701
 21
0.292008
 31
0.000000
  0
LINE
  8
39
 10
0.513701
 20
0.292008
 30
0.000000
 11
0.436299
 21
0.292008
 31
0.000000
  0
INSERT
  8
51
  2
RECT
 10
0.475000
 20
0.375000
 30
0.000000
 41
0.016000
 42
0.034000
 43
1.000000
 50
90.000000
  0
INSERT
  8
51
  2
RECT
 10
0.475000
 20
0.325000
 30
0.000000
 41
0.016000
 42
0.034000
 43
1.000000
 50
90.000000
  0
INSERT
  8
35
  2
RECT
 10
0.475000
 20
0.350000
 30
0.000000
 41
0.015740
 42
0.031504
 43
1.000000
 50
90.000000
  0
INSERT
  8
1
  2
RECT
 10
0.475000
 20
0.316535
 30
0.000000
 41
0.039370
 42
0.043307
 43
1.000000
 50
90.000000
  0
INSERT
  8
31
  2
RECT
 10
0.475000
 20
0.316535
 30
0.000000
 41
0.039370
 42
0.043307
 43
1.000000
 50
90.000000
  0
INSERT
  8
1
  2
RECT
 10
0.475000
 20
0.383465
 30
0.000000
 41
0.039370
 42
0.043307
 43
1.000000
 50
90.000000
  0
INSERT
  8
31
  2
RECT
 10
0.475000
 20
0.383465
 30
0.000000
 41
0.039370
 42
0.043307
 43
1.000000
 50
90.000000
  0
LINE
  8
25
 10
0.448500
 20
0.301500
 30
0.000000
 11
0.419475
 21
0.301500
 31
0.000000
  0
LINE
  8
25
 10
0.419475
 20
0.301500
 30
0.000000
 11
0.419475
 21
0.316012
 31
0.000000
  0
LINE
  8
25
 10
0.419475
 20
0.316012
 30
0.000000
 11
0.424313
 21
0.320850
 31
0.000000
  0
LINE
  8
25
 10
0.424313
 20
0.320850
 30
0.000000
 11
0.433988
 21
0.320850
 31
0.000000
  0
LINE
  8
25
 10
0.433988
 20
0.320850
 30
0.000000
 11
0.438825
 21
0.316012
 31
0.000000
  0
LINE
  8
25
 10
0.438825
 20
0.316012
 30
0.000000
 11
0.438825
 21
0.301500
 31
0.000000
  0
LINE
  8
25
 10
0.438825
 20
0.311175
 30
0.000000
 11
0.448500
 21
0.320850
 31
0.000000
  0
LINE
  8
25
 10
0.429150
 20
0.330965
 30
0.000000
 11
0.419475
 21
0.340640
 31
0.000000
  0
LINE
  8
25
 10
0.419475
 20
0.340640
 30
0.000000
 11
0.448500
 21
0.340640
 31
0.000000
  0
LINE
  8
25
 10
0.448500
 20
0.330965
 30
0.000000
 11
0.448500
 21
0.350315
 31
0.000000
  0
LINE
  8
25
 10
0.429150
 20
0.360430
 30
0.000000
 11
0.419475
 21
0.370105
 31
0.000000
  0
LINE
  8
25
 10
0.419475
 20
0.370105
 30
0.000000
 11
0.448500
 21
0.370105
 31
0.000000
  0
LINE
  8
25
 10
0.448500
 20
0.360430
 30
0.000000
 11
0.448500
 21
0.379780
 31
0.000000
  0
POINT
  8
23
 10
0.587500
 20
0.237500
 30
0.000000
  0
LINE
  8
51
 10
0.570492
 20
0.223484
 30
0.000000
 11
0.604508
 21
0.223484
 31
0.000000
  0
LINE
  8
51
 10
0.604508
 20
0.251516
 30
0.000000
 11
0.570492
 21
0.251516
 31
0.000000
  0
LINE
  8
39
 10
0.529508
 20
0.276201
 30
0.000000
 11
0.645492
 21
0.276201
 31
0.000000
  0
LINE
  8
39
 10
0.645492
 20
0.276201
 30
0.000000
 11
0.645492
 21
0.198799
 31
0.000000
  0
LINE
  8
39
 10
0.645492
 20
0.198799
 30
0.000000
 11
0.529508
 21
0.198799
 31
0.000000
  0
LINE
  8
39
 10
0.529508
 20
0.198799
 30
0.000000
 11
0.529508
 21
0.276201
 31
0.000000
  0
INSERT
  8
51
  2
RECT
 10
0.612500
 20
0.237500
 30
0.000000
 41
0.016000
 42
0.034000
 43
1.000000
 50
0.000000
  0
INSERT
  8
51
  2
RECT
 10
0.562500
 20
0.237500
 30
0.000000
 41
0.016000
 42
0.034000
 43
1.000000
 50
0.000000
  0
INSERT
  8
35
  2
RECT
 10
0.587500
 20
0.237500
 30
0.000000
 41
0.015740
 42
0.031504
 43
1.000000
 50
0.000000
  0
INSERT
  8
1
  2
RECT
 10
0.554035
 20
0.237500
 30
0.000000
 41
0.039370
 42
0.043307
 43
1.000000
 50
0.000000
  0
INSERT
  8
31
  2
RECT
 10
0.554035
 20
0.237500
 30
0.000000
 41
0.039370
 42
0.043307
 43
1.000000
 50
0.000000
  0
INSERT
  8
1
  2
RECT
 10
0.620965
 20
0.237500
 30
0.000000
 41
0.039370
 42
0.043307
 43
1.000000
 50
0.000000
  0
INSERT
  8
31
  2
RECT
 10
0.620965
 20
0.237500
 30
0.000000
 41
0.039370
 42
0.043307
 43
1.000000
 50
0.000000
  0
LINE
  8
25
 10
0.539000
 20
0.264000
 30
0.000000
 11
0.539000
 21
0.293025
 31
0.000000
  0
LINE
  8
25
 10
0.539000
 20
0.293025
 30
0.000000
 11
0.553512
 21
0.293025
 31
0.000000
  0
LINE
  8
25
 10
0.553512
 20
0.293025
 30
0.000000
 11
0.558350
 21
0.288187
 31
0.000000
  0
LINE
  8
25
 10
0.558350
 20
0.288187
 30
0.000000
 11
0.558350
 21
0.278512
 31
0.000000
  0
LINE
  8
25
 10
0.558350
 20
0.278512
 30
0.000000
 11
0.553512
 21
0.273675
 31
0.000000
  0
LINE
  8
25
 10
0.553512
 20
0.273675
 30
0.000000
 11
0.539000
 21
0.273675
 31
0.000000
  0
LINE
  8
25
 10
0.548675
 20
0.273675
 30
0.000000
 11
0.558350
 21
0.264000
 31
0.000000
  0
LINE
  8
25
 10
0.568465
 20
0.283350
 30
0.000000
 11
0.578140
 21
0.293025
 31
0.000000
  0
LINE
  8
25
 10
0.578140
 20
0.293025
 30
0.000000
 11
0.578140
 21
0.264000
 31
0.000000
  0
LINE
  8
25
 10
0.568465
 20
0.264000
 30
0.000000
 11
0.587815
 21
0.264000
 31
0.000000
  0
LINE
  8
25
 10
0.617280
 20
0.264000
 30
0.000000
 11
0.597930
 21
0.264000
 31
0.000000
  0
LINE
  8
25
 10
0.597930
 20
0.264000
 30
0.000000
 11
0.617280
 21
0.283350
 31
0.000000
  0
LINE
  8
25
 10
0.617280
 20
0.283350
 30
0.000000
 11
0.617280
 21
0.288187
 31
0.000000
  0
LINE
  8
25
 10
0.617280
 20
0.288187
 30
0.000000
 11
0.612443
 21
0.293025
 31
0.000000
  0
LINE
  8
25
 10
0.612443
 20
0.293025
 30
0.000000
 11
0.602768
 21
0.293025
 31
0.000000
  0
LINE
  8
25
 10
0.602768
 20
0.293025
 30
0.000000
 11
0.597930
 21
0.288187
 31
0.000000
  0
POINT
  8
23
 10
0.762500
 20
0.237500
 30
0.000000
  0
LINE
  8
51
 10
0.745492
 20
0.223484
 30
0.000000
 11
0.779508
 21
0.223484
 31
0.000000
  0
LINE
  8
51
 10
0.779508
 20
0.251516
 30
0.000000
 11
0.745492
 21
0.251516
 31
0.000000
  0
LINE
  8
39
 10
0.704508
 20
0.276201
 30
0.000000
 11
0.820492
 21
0.276201
 31
0.000000
  0
LINE
  8
39
 10
0.820492
 20
0.276201
 30
0.000000
 11
0.820492
 21
0.198799
 31
0.000000
  0
LINE
  8
39
 10
0.820492
 20
0.198799
 30
0.000000
 11
0.704508
 21
0.198799
 31
0.000000
  0
LINE
  8
39
 10
0.704508
 20
0.198799
 30
0.000000
 11
0.704508
 21
0.276201
 31
0.000000
  0
INSERT
  8
51
  2
RECT
 10
0.787500
 20
0.237500
 30
0.000000
 41
0.016000
 42
0.034000
 43
1.000000
 50
0.000000
  0
INSERT
  8
51
  2
RECT
 10
0.737500
 20
0.237500
 30
0.000000
 41
0.016000
 42
0.034000
 43
1.000000
 50
0.000000
  0
INSERT
  8
35
  2
RECT
 10
0.762500
 20
0.237500
 30
0.000000
 41
0.015740
 42
0.031504
 43
1.000000
 50
0.000000
  0
INSERT
  8
1
  2
RECT
 10
0.729035
 20
0.237500
 30
0.000000
 41
0.039370
 42
0.043307
 43
1.000000
 50
0.000000
  0
INSERT
  8
31
  2
RECT
 10
0.729035
 20
0.237500
 30
0.000000
 41
0.039370
 42
0.043307
 43
1.000000
 50
0.000000
  0
INSERT
  8
1
  2
RECT
 10
0.795965
 20
0.237500
 30
0.000000
 41
0.039370
 42
0.043307
 43
1.000000
 50
0.000000
  0
INSERT
  8
31
  2
RECT
 10
0.795965
 20
0.237500
 30
0.000000
 41
0.039370
 42
0.043307
 43
1.000000
 50
0.000000
  0
LINE
  8
25
 10
0.714000
 20
0.264000
 30
0.000000
 11
0.714000
 21
0.293025
 31
0.000000
  0
LINE
  8
25
 10
0.714000
 20
0.293025
 30
0.000000
 11
0.728512
 21
0.293025
 31
0.000000
  0
LINE
  8
25
 10
0.728512
 20
0.293025
 30
0.000000
 11
0.733350
 21
0.288187
 31
0.000000
  0
LINE
  8
25
 10
0.733350
 20
0.288187
 30
0.000000
 11
0.733350
 21
0.278512
 31
0.000000
  0
LINE
  8
25
 10
0.733350
 20
0.278512
 30
0.000000
 11
0.728512
 21
0.273675
 31
0.000000
  0
LINE
  8
25
 10
0.728512
 20
0.273675
 30
0.000000
 11
0.714000
 21
0.273675
 31
0.000000
  0
LINE
  8
25
 10
0.723675
 20
0.273675
 30
0.000000
 11
0.733350
 21
0.264000
 31
0.000000
  0
LINE
  8
25
 10
0.743465
 20
0.283350
 30
0.000000
 11
0.753140
 21
0.293025
 31
0.000000
  0
LINE
  8
25
 10
0.753140
 20
0.293025
 30
0.000000
 11
0.753140
 21
0.264000
 31
0.000000
  0
LINE
  8
25
 10
0.743465
 20
0.264000
 30
0.000000
 11
0.762815
 21
0.264000
 31
0.000000
  0
LINE
  8
25
 10
0.772930
 20
0.288187
 30
0.000000
 11
0.777768
 21
0.293025
 31
0.000000
  0
LINE
  8
25
 10
0.777768
 20
0.293025
 30
0.000000
 11
0.787443
 21
0.293025
 31
0.000000
  0
LINE
  8
25
 10
0.787443
 20
0.293025
 30
0.000000
 11
0.792280
 21
0.288187
 31
0.000000
  0
LINE
  8
25
 10
0.792280
 20
0.288187
 30
0.000000
 11
0.792280
 21
0.283350
 31
0.000000
  0
LINE
  8
25
 10
0.792280
 20
0.283350
 30
0.000000
 11
0.787443
 21
0.278512
 31
0.000000
  0
LINE
  8
25
 10
0.787443
 20
0.278512
 30
0.000000
 11
0.782605
 21
0.278512
 31
0.000000
  0
LINE
  8
25
 10
0.787443
 20
0.278512
 30
0.000000
 11
0.792280
 21
0.273675
 31
0.000000
  0
LINE
  8
25
 10
0.792280
 20
0.273675
 30
0.000000
 11
0.792280
 21
0.268837
 31
0.000000
  0
LINE
  8
25
 10
0.792280
 20
0.268837
 30
0.000000
 11
0.787443
 21
0.264000
 31
0.000000
  0
LINE
  8
25
 10
0.787443
 20
0.264000
 30
0.000000
 11
0.777768
 21
0.264000
 31
0.000000
  0
LINE
  8
25
 10
0.777768
 20
0.264000
 30
0.000000
 11
0.772930
 21
0.268837
 31
0.000000
  0
POINT
  8
23
 10
0.450000
 20
0.237500
 30
0.000000
  0
LINE
  8
51
 10
0.432992
 20
0.223484
 30
0.000000
 11
0.467008
 21
0.223484
 31
0.000000
  0
LINE
  8
51
 10
0.467008
 20
0.251516
 30
0.000000
 11
0.432992
 21
0.251516
 31
0.000000
  0
LINE
  8
39
 10
0.392008
 20
0.276201
 30
0.000000
 11
0.507992
 21
0.276201
 31
0.000000
  0
LINE
  8
39
 10
0.507992
 20
0.276201
 30
0.000000
 11
0.507992
 21
0.198799
 31
0.000000
  0
LINE
  8
39
 10
0.507992
 20
0.198799
 30
0.000000
 11
0.392008
 21
0.198799
 31
0.000000
  0
LINE
  8
39
 10
0.392008
 20
0.198799
 30
0.000000
 11
0.392008
 21
0.276201
 31
0.000000
  0
INSERT
  8
51
  2
RECT
 10
0.475000
 20
0.237500
 30
0.000000
 41
0.016000
 42
0.034000
 43
1.000000
 50
0.000000
  0
INSERT
  8
51
  2
RECT
 10
0.425000
 20
0.237500
 30
0.000000
 41
0.016000
 42
0.034000
 43
1.000000
 50
0.000000
  0
INSERT
  8
35
  2
RECT
 10
0.450000
 20
0.237500
 30
0.000000
 41
0.015740
 42
0.031504
 43
1.000000
 50
0.000000
  0
INSERT
  8
1
  2
RECT
 10
0.416535
 20
0.237500
 30
0.000000
 41
0.039370
 42
0.043307
 43
1.000000
 50
0.000000
  0
INSERT
  8
31
  2
RECT
 10
0.416535
 20
0.237500
 30
0.000000
 41
0.039370
 42
0.043307
 43
1.000000
 50
0.000000
  0
INSERT
  8
1
  2
RECT
 10
0.483465
 20
0.237500
 30
0.000000
 41
0.039370
 42
0.043307
 43
1.000000
 50
0.000000
  0
INSERT
  8
31
  2
RECT
 10
0.483465
 20
0.237500
 30
0.000000
 41
0.039370
 42
0.043307
 43
1.000000
 50
0.000000
  0
LINE
  8
25
 10
0.401500
 20
0.264000
 30
0.000000
 11
0.401500
 21
0.293025
 31
0.000000
  0
LINE
  8
25
 10
0.401500
 20
0.293025
 30
0.000000
 11
0.416012
 21
0.293025
 31
0.000000
  0
LINE
  8
25
 10
0.416012
 20
0.293025
 30
0.000000
 11
0.420850
 21
0.288187
 31
0.000000
  0
LINE
  8
25
 10
0.420850
 20
0.288187
 30
0.000000
 11
0.420850
 21
0.278512
 31
0.000000
  0
LINE
  8
25
 10
0.420850
 20
0.278512
 30
0.000000
 11
0.416012
 21
0.273675
 31
0.000000
  0
LINE
  8
25
 10
0.416012
 20
0.273675
 30
0.000000
 11
0.401500
 21
0.273675
 31
0.000000
  0
LINE
  8
25
 10
0.411175
 20
0.273675
 30
0.000000
 11
0.420850
 21
0.264000
 31
0.000000
  0
LINE
  8
25
 10
0.430965
 20
0.283350
 30
0.000000
 11
0.440640
 21
0.293025
 31
0.000000
  0
LINE
  8
25
 10
0.440640
 20
0.293025
 30
0.000000
 11
0.440640
 21
0.264000
 31
0.000000
  0
LINE
  8
25
 10
0.430965
 20
0.264000
 30
0.000000
 11
0.450315
 21
0.264000
 31
0.000000
  0
LINE
  8
25
 10
0.474943
 20
0.264000
 30
0.000000
 11
0.474943
 21
0.293025
 31
0.000000
  0
LINE
  8
25
 10
0.474943
 20
0.293025
 30
0.000000
 11
0.460430
 21
0.278512
 31
0.000000
  0
LINE
  8
25
 10
0.460430
 20
0.278512
 30
0.000000
 11
0.479780
 21
0.278512
 31
0.000000
  0
POINT
  8
23
 10
0.475000
 20
0.512500
 30
0.000000
  0
LINE
  8
51
 10
0.460984
 20
0.529508
 30
0.000000
 11
0.460984
 21
0.495492
 31
0.000000
  0
LINE
  8
51
 10
0.489016
 20
0.495492
 30
0.000000
 11
0.489016
 21
0.529508
 31
0.000000
  0
LINE
  8
39
 10
0.513701
 20
0.570492
 30
0.000000
 11
0.513701
 21
0.454508
 31
0.000000
  0
LINE
  8
39
 10
0.513701
 20
0.454508
 30
0.000000
 11
0.436299
 21
0.454508
 31
0.000000
  0
LINE
  8
39
 10
0.436299
 20
0.454508
 30
0.000000
 11
0.436299
 21
0.570492
 31
0.000000
  0
LINE
  8
39
 10
0.436299
 20
0.570492
 30
0.000000
 11
0.513701
 21
0.570492
 31
0.000000
  0
INSERT
  8
51
  2
RECT
 10
0.475000
 20
0.487500
 30
0.000000
 41
0.016000
 42
0.034000
 43
1.000000
 50
270.000000
  0
INSERT
  8
51
  2
RECT
 10
0.475000
 20
0.537500
 30
0.000000
 41
0.016000
 42
0.034000
 43
1.000000
 50
270.000000
  0
INSERT
  8
35
  2
RECT
 10
0.475000
 20
0.512500
 30
0.000000
 41
0.015740
 42
0.031504
 43
1.000000
 50
270.000000
  0
INSERT
  8
1
  2
RECT
 10
0.475000
 20
0.545965
 30
0.000000
 41
0.039370
 42
0.043307
 43
1.000000
 50
270.000000
  0
INSERT
  8
31
  2
RECT
 10
0.475000
 20
0.545965
 30
0.000000
 41
0.039370
 42
0.043307
 43
1.000000
 50
270.000000
  0
INSERT
  8
1
  2
RECT
 10
0.475000
 20
0.479035
 30
0.000000
 41
0.039370
 42
0.043307
 43
1.000000
 50
270.000000
  0
INSERT
  8
31
  2
RECT
 10
0.475000
 20
0.479035
 30
0.000000
 41
0.039370
 42
0.043307
 43
1.000000
 50
270.000000
  0
LINE
  8
25
 10
0.448500
 20
0.464000
 30
0.000000
 11
0.419475
 21
0.464000
 31
0.000000
  0
LINE
  8
25
 10
0.419475
 20
0.464000
 30
0.000000
 11
0.419475
 21
0.478512
 31
0.000000
  0
LINE
  8
25
 10
0.419475
 20
0.478512
 30
0.000000
 11
0.424313
 21
0.483350
 31
0.000000
  0
LINE
  8
25
 10
0.424313
 20
0.483350
 30
0.000000
 11
0.433988
 21
0.483350
 31
0.000000
  0
LINE
  8
25
 10
0.433988
 20
0.483350
 30
0.000000
 11
0.438825
 21
0.478512
 31
0.000000
  0
LINE
  8
25
 10
0.438825
 20
0.478512
 30
0.000000
 11
0.438825
 21
0.464000
 31
0.000000
  0
LINE
  8
25
 10
0.438825
 20
0.473675
 30
0.000000
 11
0.448500
 21
0.483350
 31
0.000000
  0
LINE
  8
25
 10
0.429150
 20
0.493465
 30
0.000000
 11
0.419475
 21
0.503140
 31
0.000000
  0
LINE
  8
25
 10
0.419475
 20
0.503140
 30
0.000000
 11
0.448500
 21
0.503140
 31
0.000000
  0
LINE
  8
25
 10
0.448500
 20
0.493465
 30
0.000000
 11
0.448500
 21
0.512815
 31
0.000000
  0
LINE
  8
25
 10
0.419475
 20
0.542280
 30
0.000000
 11
0.419475
 21
0.522930
 31
0.000000
  0
LINE
  8
25
 10
0.419475
 20
0.522930
 30
0.000000
 11
0.433988
 21
0.522930
 31
0.000000
  0
LINE
  8
25
 10
0.433988
 20
0.522930
 30
0.000000
 11
0.429150
 21
0.532605
 31
0.000000
  0
LINE
  8
25
 10
0.429150
 20
0.532605
 30
0.000000
 11
0.429150
 21
0.537443
 31
0.000000
  0
LINE
  8
25
 10
0.429150
 20
0.537443
 30
0.000000
 11
0.433988
 21
0.542280
 31
0.000000
  0
LINE
  8
25
 10
0.433988
 20
0.542280
 30
0.000000
 11
0.443663
 21
0.542280
 31
0.000000
  0
LINE
  8
25
 10
0.443663
 20
0.542280
 30
0.000000
 11
0.448500
 21
0.537443
 31
0.000000
  0
LINE
  8
25
 10
0.448500
 20
0.537443
 30
0.000000
 11
0.448500
 21
0.527768
 31
0.000000
  0
LINE
  8
25
 10
0.448500
 20
0.527768
 30
0.000000
 11
0.443663
 21
0.522930
 31
0.000000
  0
POINT
  8
23
 10
0.800000
 20
0.625000
 30
0.000000
  0
LINE
  8
51
 10
0.782992
 20
0.610984
 30
0.000000
 11
0.817008
 21
0.610984
 31
0.000000
  0
LINE
  8
51
 10
0.817008
 20
0.639016
 30
0.000000
 11
0.782992
 21
0.639016
 31
0.000000
  0
LINE
  8
39
 10
0.742008
 20
0.663701
 30
0.000000
 11
0.857992
 21
0.663701
 31
0.000000
  0
LINE
  8
39
 10
0.857992
 20
0.663701
 30
0.000000
 11
0.857992
 21
0.586299
 31
0.000000
  0
LINE
  8
39
 10
0.857992
 20
0.586299
 30
0.000000
 11
0.742008
 21
0.586299
 31
0.000000
  0
LINE
  8
39
 10
0.742008
 20
0.586299
 30
0.000000
 11
0.742008
 21
0.663701
 31
0.000000
  0
INSERT
  8
51
  2
RECT
 10
0.825000
 20
0.625000
 30
0.000000
 41
0.016000
 42
0.034000
 43
1.000000
 50
0.000000
  0
INSERT
  8
51
  2
RECT
 10
0.775000
 20
0.625000
 30
0.000000
 41
0.016000
 42
0.034000
 43
1.000000
 50
0.000000
  0
INSERT
  8
35
  2
RECT
 10
0.800000
 20
0.625000
 30
0.000000
 41
0.015740
 42
0.031504
 43
1.000000
 50
0.000000
  0
INSERT
  8
1
  2
RECT
 10
0.766535
 20
0.625000
 30
0.000000
 41
0.039370
 42
0.043307
 43
1.000000
 50
0.000000
  0
INSERT
  8
31
  2
RECT
 10
0.766535
 20
0.625000
 30
0.000000
 41
0.039370
 42
0.043307
 43
1.000000
 50
0.000000
  0
INSERT
  8
1
  2
RECT
 10
0.833465
 20
0.625000
 30
0.000000
 41
0.039370
 42
0.043307
 43
1.000000
 50
0.000000
  0
INSERT
  8
31
  2
RECT
 10
0.833465
 20
0.625000
 30
0.000000
 41
0.039370
 42
0.043307
 43
1.000000
 50
0.000000
  0
LINE
  8
25
 10
0.751500
 20
0.651500
 30
0.000000
 11
0.751500
 21
0.680525
 31
0.000000
  0
LINE
  8
25
 10
0.751500
 20
0.680525
 30
0.000000
 11
0.766012
 21
0.680525
 31
0.000000
  0
LINE
  8
25
 10
0.766012
 20
0.680525
 30
0.000000
 11
0.770850
 21
0.675687
 31
0.000000
  0
LINE
  8
25
 10
0.770850
 20
0.675687
 30
0.000000
 11
0.770850
 21
0.666012
 31
0.000000
  0
LINE
  8
25
 10
0.770850
 20
0.666012
 30
0.000000
 11
0.766012
 21
0.661175
 31
0.000000
  0
LINE
  8
25
 10
0.766012
 20
0.661175
 30
0.000000
 11
0.751500
 21
0.661175
 31
0.000000
  0
LINE
  8
25
 10
0.761175
 20
0.661175
 30
0.000000
 11
0.770850
 21
0.651500
 31
0.000000
  0
LINE
  8
25
 10
0.780965
 20
0.670850
 30
0.000000
 11
0.790640
 21
0.680525
 31
0.000000
  0
LINE
  8
25
 10
0.790640
 20
0.680525
 30
0.000000
 11
0.790640
 21
0.651500
 31
0.000000
  0
LINE
  8
25
 10
0.780965
 20
0.651500
 30
0.000000
 11
0.800315
 21
0.651500
 31
0.000000
  0
LINE
  8
25
 10
0.829780
 20
0.680525
 30
0.000000
 11
0.820105
 21
0.675687
 31
0.000000
  0
LINE
  8
25
 10
0.820105
 20
0.675687
 30
0.000000
 11
0.810430
 21
0.666012
 31
0.000000
  0
LINE
  8
25
 10
0.810430
 20
0.666012
 30
0.000000
 11
0.810430
 21
0.656337
 31
0.000000
  0
LINE
  8
25
 10
0.810430
 20
0.656337
 30
0.000000
 11
0.815268
 21
0.651500
 31
0.000000
  0
LINE
  8
25
 10
0.815268
 20
0.651500
 30
0.000000
 11
0.824943
 21
0.651500
 31
0.000000
  0
LINE
  8
25
 10
0.824943
 20
0.651500
 30
0.000000
 11
0.829780
 21
0.656337
 31
0.000000
  0
LINE
  8
25
 10
0.829780
 20
0.656337
 30
0.000000
 11
0.829780
 21
0.661175
 31
0.000000
  0
LINE
  8
25
 10
0.829780
 20
0.661175
 30
0.000000
 11
0.824943
 21
0.666012
 31
0.000000
  0
LINE
  8
25
 10
0.824943
 20
0.666012
 30
0.000000
 11
0.810430
 21
0.666012
 31
0.000000
  0
POINT
  8
23
 10
0.650000
 20
0.625000
 30
0.000000
  0
LINE
  8
51
 10
0.632992
 20
0.610984
 30
0.000000
 11
0.667008
 21
0.610984
 31
0.000000
  0
LINE
  8
51
 10
0.667008
 20
0.639016
 30
0.000000
 11
0.632992
 21
0.639016
 31
0.000000
  0
LINE
  8
39
 10
0.592008
 20
0.663701
 30
0.000000
 11
0.707992
 21
0.663701
 31
0.000000
  0
LINE
  8
39
 10
0.707992
 20
0.663701
 30
0.000000
 11
0.707992
 21
0.586299
 31
0.000000
  0
LINE
  8
39
 10
0.707992
 20
0.586299
 30
0.000000
 11
0.592008
 21
0.586299
 31
0.000000
  0
LINE
  8
39
 10
0.592008
 20
0.586299
 30
0.000000
 11
0.592008
 21
0.663701
 31
0.000000
  0
INSERT
  8
51
  2
RECT
 10
0.675000
 20
0.625000
 30
0.000000
 41
0.016000
 42
0.034000
 43
1.000000
 50
0.000000
  0
INSERT
  8
51
  2
RECT
 10
0.625000
 20
0.625000
 30
0.000000
 41
0.016000
 42
0.034000
 43
1.000000
 50
0.000000
  0
INSERT
  8
35
  2
RECT
 10
0.650000
 20
0.625000
 30
0.000000
 41
0.015740
 42
0.031504
 43
1.000000
 50
0.000000
  0
INSERT
  8
1
  2
RECT
 10
0.616535
 20
0.625000
 30
0.000000
 41
0.039370
 42
0.043307
 43
1.000000
 50
0.000000
  0
INSERT
  8
31
  2
RECT
 10
0.616535
 20
0.625000
 30
0.000000
 41
0.039370
 42
0.043307
 43
1.000000
 50
0.000000
  0
INSERT
  8
1
  2
RECT
 10
0.683465
 20
0.625000
 30
0.000000
 41
0.039370
 42
0.043307
 43
1.000000
 50
0.000000
  0
INSERT
  8
31
  2
RECT
 10
0.683465
 20
0.625000
 30
0.000000
 41
0.039370
 42
0.043307
 43
1.000000
 50
0.000000
  0
LINE
  8
25
 10
0.601500
 20
0.651500
 30
0.000000
 11
0.601500
 21
0.680525
 31
0.000000
  0
LINE
  8
25
 10
0.601500
 20
0.680525
 30
0.000000
 11
0.616012
 21
0.680525
 31
0.000000
  0
LINE
  8
25
 10
0.616012
 20
0.680525
 30
0.000000
 11
0.620850
 21
0.675687
 31
0.000000
  0
LINE
  8
25
 10
0.620850
 20
0.675687
 30
0.000000
 11
0.620850
 21
0.666012
 31
0.000000
  0
LINE
  8
25
 10
0.620850
 20
0.666012
 30
0.000000
 11
0.616012
 21
0.661175
 31
0.000000
  0
LINE
  8
25
 10
0.616012
 20
0.661175
 30
0.000000
 11
0.601500
 21
0.661175
 31
0.000000
  0
LINE
  8
25
 10
0.611175
 20
0.661175
 30
0.000000
 11
0.620850
 21
0.651500
 31
0.000000
  0
LINE
  8
25
 10
0.630965
 20
0.670850
 30
0.000000
 11
0.640640
 21
0.680525
 31
0.000000
  0
LINE
  8
25
 10
0.640640
 20
0.680525
 30
0.000000
 11
0.640640
 21
0.651500
 31
0.000000
  0
LINE
  8
25
 10
0.630965
 20
0.651500
 30
0.000000
 11
0.650315
 21
0.651500
 31
0.000000
  0
LINE
  8
25
 10
0.660430
 20
0.680525
 30
0.000000
 11
0.679780
 21
0.680525
 31
0.000000
  0
LINE
  8
25
 10
0.679780
 20
0.680525
 30
0.000000
 11
0.679780
 21
0.675687
 31
0.000000
  0
LINE
  8
25
 10
0.679780
 20
0.675687
 30
0.000000
 11
0.660430
 21
0.656337
 31
0.000000
  0
LINE
  8
25
 10
0.660430
 20
0.656337
 30
0.000000
 11
0.660430
 21
0.651500
 31
0.000000
  0
POINT
  8
23
 10
0.387500
 20
0.512500
 30
0.000000
  0
LINE
  8
51
 10
0.373484
 20
0.529508
 30
0.000000
 11
0.373484
 21
0.495492
 31
0.000000
  0
LINE
  8
51
 10
0.401516
 20
0.495492
 30
0.000000
 11
0.401516
 21
0.529508
 31
0.000000
  0
LINE
  8
39
 10
0.426201
 20
0.570492
 30
0.000000
 11
0.426201
 21
0.454508
 31
0.000000
  0
LINE
  8
39
 10
0.426201
 20
0.454508
 30
0.000000
 11
0.348799
 21
0.454508
 31
0.000000
  0
LINE
  8
39
 10
0.348799
 20
0.454508
 30
0.000000
 11
0.348799
 21
0.570492
 31
0.000000
  0
LINE
  8
39
 10
0.348799
 20
0.570492
 30
0.000000
 11
0.426201
 21
0.570492
 31
0.000000
  0
INSERT
  8
51
  2
RECT
 10
0.387500
 20
0.487500
 30
0.000000
 41
0.016000
 42
0.034000
 43
1.000000
 50
270.000000
  0
INSERT
  8
51
  2
RECT
 10
0.387500
 20
0.537500
 30
0.000000
 41
0.016000
 42
0.034000
 43
1.000000
 50
270.000000
  0
INSERT
  8
35
  2
RECT
 10
0.387500
 20
0.512500
 30
0.000000
 41
0.015740
 42
0.031504
 43
1.000000
 50
270.000000
  0
INSERT
  8
1
  2
RECT
 10
0.387500
 20
0.545965
 30
0.000000
 41
0.039370
 42
0.043307
 43
1.000000
 50
270.000000
  0
INSERT
  8
31
  2
RECT
 10
0.387500
 20
0.545965
 30
0.000000
 41
0.039370
 42
0.043307
 43
1.000000
 50
270.000000
  0
INSERT
  8
1
  2
RECT
 10
0.387500
 20
0.479035
 30
0.000000
 41
0.039370
 42
0.043307
 43
1.000000
 50
270.000000
  0
INSERT
  8
31
  2
RECT
 10
0.387500
 20
0.479035
 30
0.000000
 41
0.039370
 42
0.043307
 43
1.000000
 50
270.000000
  0
LINE
  8
25
 10
0.361000
 20
0.464000
 30
0.000000
 11
0.331975
 21
0.464000
 31
0.000000
  0
LINE
  8
25
 10
0.331975
 20
0.464000
 30
0.000000
 11
0.331975
 21
0.478512
 31
0.000000
  0
LINE
  8
25
 10
0.331975
 20
0.478512
 30
0.000000
 11
0.336813
 21
0.483350
 31
0.000000
  0
LINE
  8
25
 10
0.336813
 20
0.483350
 30
0.000000
 11
0.346488
 21
0.483350
 31
0.000000
  0
LINE
  8
25
 10
0.346488
 20
0.483350
 30
0.000000
 11
0.351325
 21
0.478512
 31
0.000000
  0
LINE
  8
25
 10
0.351325
 20
0.478512
 30
0.000000
 11
0.351325
 21
0.464000
 31
0.000000
  0
LINE
  8
25
 10
0.351325
 20
0.473675
 30
0.000000
 11
0.361000
 21
0.483350
 31
0.000000
  0
LINE
  8
25
 10
0.341650
 20
0.493465
 30
0.000000
 11
0.331975
 21
0.503140
 31
0.000000
  0
LINE
  8
25
 10
0.331975
 20
0.503140
 30
0.000000
 11
0.361000
 21
0.503140
 31
0.000000
  0
LINE
  8
25
 10
0.361000
 20
0.493465
 30
0.000000
 11
0.361000
 21
0.512815
 31
0.000000
  0
LINE
  8
25
 10
0.336813
 20
0.522930
 30
0.000000
 11
0.331975
 21
0.527768
 31
0.000000
  0
LINE
  8
25
 10
0.331975
 20
0.527768
 30
0.000000
 11
0.331975
 21
0.537443
 31
0.000000
  0
LINE
  8
25
 10
0.331975
 20
0.537443
 30
0.000000
 11
0.336813
 21
0.542280
 31
0.000000
  0
LINE
  8
25
 10
0.336813
 20
0.542280
 30
0.000000
 11
0.341650
 21
0.542280
 31
0.000000
  0
LINE
  8
25
 10
0.341650
 20
0.542280
 30
0.000000
 11
0.346488
 21
0.537443
 31
0.000000
  0
LINE
  8
25
 10
0.346488
 20
0.537443
 30
0.000000
 11
0.351325
 21
0.542280
 31
0.000000
  0
LINE
  8
25
 10
0.351325
 20
0.542280
 30
0.000000
 11
0.356163
 21
0.542280
 31
0.000000
  0
LINE
  8
25
 10
0.356163
 20
0.542280
 30
0.000000
 11
0.361000
 21
0.537443
 31
0.000000
  0
LINE
  8
25
 10
0.361000
 20
0.537443
 30
0.000000
 11
0.361000
 21
0.527768
 31
0.000000
  0
LINE
  8
25
 10
0.361000
 20
0.527768
 30
0.000000
 11
0.356163
 21
0.522930
 31
0.000000
  0
LINE
  8
25
 10
0.356163
 20
0.522930
 30
0.000000
 11
0.351325
 21
0.522930
 31
0.000000
  0
LINE
  8
25
 10
0.351325
 20
0.522930
 30
0.000000
 11
0.346488
 21
0.527768
 31
0.000000
  0
LINE
  8
25
 10
0.346488
 20
0.527768
 30
0.000000
 11
0.341650
 21
0.522930
 31
0.000000
  0
LINE
  8
25
 10
0.341650
 20
0.522930
 30
0.000000
 11
0.336813
 21
0.522930
 31
0.000000
  0
LINE
  8
25
 10
0.346488
 20
0.527768
 30
0.000000
 11
0.346488
 21
0.537443
 31
0.000000
  0
POINT
  8
23
 10
1.137500
 20
0.387500
 30
0.000000
  0
LINE
  8
51
 10
1.120492
 20
0.373484
 30
0.000000
 11
1.154508
 21
0.373484
 31
0.000000
  0
LINE
  8
51
 10
1.154508
 20
0.401516
 30
0.000000
 11
1.120492
 21
0.401516
 31
0.000000
  0
LINE
  8
39
 10
1.079508
 20
0.426201
 30
0.000000
 11
1.195492
 21
0.426201
 31
0.000000
  0
LINE
  8
39
 10
1.195492
 20
0.426201
 30
0.000000
 11
1.195492
 21
0.348799
 31
0.000000
  0
LINE
  8
39
 10
1.195492
 20
0.348799
 30
0.000000
 11
1.079508
 21
0.348799
 31
0.000000
  0
LINE
  8
39
 10
1.079508
 20
0.348799
 30
0.000000
 11
1.079508
 21
0.426201
 31
0.000000
  0
INSERT
  8
51
  2
RECT
 10
1.162500
 20
0.387500
 30
0.000000
 41
0.016000
 42
0.034000
 43
1.000000
 50
0.000000
  0
INSERT
  8
51
  2
RECT
 10
1.112500
 20
0.387500
 30
0.000000
 41
0.016000
 42
0.034000
 43
1.000000
 50
0.000000
  0
INSERT
  8
35
  2
RECT
 10
1.137500
 20
0.387500
 30
0.000000
 41
0.015740
 42
0.031504
 43
1.000000
 50
0.000000
  0
INSERT
  8
1
  2
RECT
 10
1.104035
 20
0.387500
 30
0.000000
 41
0.039370
 42
0.043307
 43
1.000000
 50
0.000000
  0
INSERT
  8
31
  2
RECT
 10
1.104035
 20
0.387500
 30
0.000000
 41
0.039370
 42
0.043307
 43
1.000000
 50
0.000000
  0
INSERT
  8
1
  2
RECT
 10
1.170965
 20
0.387500
 30
0.000000
 41
0.039370
 42
0.043307
 43
1.000000
 50
0.000000
  0
INSERT
  8
31
  2
RECT
 10
1.170965
 20
0.387500
 30
0.000000
 41
0.039370
 42
0.043307
 43
1.000000
 50
0.000000
  0
LINE
  8
25
 10
1.089000
 20
0.414000
 30
0.000000
 11
1.089000
 21
0.443025
 31
0.000000
  0
LINE
  8
25
 10
1.089000
 20
0.443025
 30
0.000000
 11
1.103512
 21
0.443025
 31
0.000000
  0
LINE
  8
25
 10
1.103512
 20
0.443025
 30
0.000000
 11
1.108350
 21
0.438187
 31
0.000000
  0
LINE
  8
25
 10
1.108350
 20
0.438187
 30
0.000000
 11
1.108350
 21
0.428512
 31
0.000000
  0
LINE
  8
25
 10
1.108350
 20
0.428512
 30
0.000000
 11
1.103512
 21
0.423675
 31
0.000000
  0
LINE
  8
25
 10
1.103512
 20
0.423675
 30
0.000000
 11
1.089000
 21
0.423675
 31
0.000000
  0
LINE
  8
25
 10
1.098675
 20
0.423675
 30
0.000000
 11
1.108350
 21
0.414000
 31
0.000000
  0
LINE
  8
25
 10
1.118465
 20
0.433350
 30
0.000000
 11
1.128140
 21
0.443025
 31
0.000000
  0
LINE
  8
25
 10
1.128140
 20
0.443025
 30
0.000000
 11
1.128140
 21
0.414000
 31
0.000000
  0
LINE
  8
25
 10
1.118465
 20
0.414000
 30
0.000000
 11
1.137815
 21
0.414000
 31
0.000000
  0
LINE
  8
25
 10
1.147930
 20
0.418837
 30
0.000000
 11
1.152768
 21
0.414000
 31
0.000000
  0
LINE
  8
25
 10
1.152768
 20
0.414000
 30
0.000000
 11
1.162443
 21
0.414000
 31
0.000000
  0
LINE
  8
25
 10
1.162443
 20
0.414000
 30
0.000000
 11
1.167280
 21
0.418837
 31
0.000000
  0
LINE
  8
25
 10
1.167280
 20
0.418837
 30
0.000000
 11
1.167280
 21
0.438187
 31
0.000000
  0
LINE
  8
25
 10
1.167280
 20
0.438187
 30
0.000000
 11
1.162443
 21
0.443025
 31
0.000000
  0
LINE
  8
25
 10
1.162443
 20
0.443025
 30
0.000000
 11
1.152768
 21
0.443025
 31
0.000000
  0
LINE
  8
25
 10
1.152768
 20
0.443025
 30
0.000000
 11
1.147930
 21
0.438187
 31
0.000000
  0
LINE
  8
25
 10
1.147930
 20
0.438187
 30
0.000000
 11
1.147930
 21
0.433350
 31
0.000000
  0
LINE
  8
25
 10
1.147930
 20
0.433350
 30
0.000000
 11
1.152768
 21
0.428512
 31
0.000000
  0
LINE
  8
25
 10
1.152768
 20
0.428512
 30
0.000000
 11
1.167280
 21
0.428512
 31
0.000000
  0
POINT
  8
23
 10
1.137500
 20
0.300000
 30
0.000000
  0
LINE
  8
51
 10
1.120492
 20
0.285984
 30
0.000000
 11
1.154508
 21
0.285984
 31
0.000000
  0
LINE
  8
51
 10
1.154508
 20
0.314016
 30
0.000000
 11
1.120492
 21
0.314016
 31
0.000000
  0
LINE
  8
39
 10
1.079508
 20
0.338701
 30
0.000000
 11
1.195492
 21
0.338701
 31
0.000000
  0
LINE
  8
39
 10
1.195492
 20
0.338701
 30
0.000000
 11
1.195492
 21
0.261299
 31
0.000000
  0
LINE
  8
39
 10
1.195492
 20
0.261299
 30
0.000000
 11
1.079508
 21
0.261299
 31
0.000000
  0
LINE
  8
39
 10
1.079508
 20
0.261299
 30
0.000000
 11
1.079508
 21
0.338701
 31
0.000000
  0
INSERT
  8
51
  2
RECT
 10
1.162500
 20
0.300000
 30
0.000000
 41
0.016000
 42
0.034000
 43
1.000000
 50
0.000000
  0
INSERT
  8
51
  2
RECT
 10
1.112500
 20
0.300000
 30
0.000000
 41
0.016000
 42
0.034000
 43
1.000000
 50
0.000000
  0
INSERT
  8
35
  2
RECT
 10
1.137500
 20
0.300000
 30
0.000000
 41
0.015740
 42
0.031504
 43
1.000000
 50
0.000000
  0
INSERT
  8
1
  2
RECT
 10
1.104035
 20
0.300000
 30
0.000000
 41
0.039370
 42
0.043307
 43
1.000000
 50
0.000000
  0
INSERT
  8
31
  2
RECT
 10
1.104035
 20
0.300000
 30
0.000000
 41
0.039370
 42
0.043307
 43
1.000000
 50
0.000000
  0
INSERT
  8
1
  2
RECT
 10
1.170965
 20
0.300000
 30
0.000000
 41
0.039370
 42
0.043307
 43
1.000000
 50
0.000000
  0
INSERT
  8
31
  2
RECT
 10
1.170965
 20
0.300000
 30
0.000000
 41
0.039370
 42
0.043307
 43
1.000000
 50
0.000000
  0
LINE
  8
25
 10
1.089000
 20
0.326500
 30
0.000000
 11
1.089000
 21
0.355525
 31
0.000000
  0
LINE
  8
25
 10
1.089000
 20
0.355525
 30
0.000000
 11
1.103512
 21
0.355525
 31
0.000000
  0
LINE
  8
25
 10
1.103512
 20
0.355525
 30
0.000000
 11
1.108350
 21
0.350687
 31
0.000000
  0
LINE
  8
25
 10
1.108350
 20
0.350687
 30
0.000000
 11
1.108350
 21
0.341012
 31
0.000000
  0
LINE
  8
25
 10
1.108350
 20
0.341012
 30
0.000000
 11
1.103512
 21
0.336175
 31
0.000000
  0
LINE
  8
25
 10
1.103512
 20
0.336175
 30
0.000000
 11
1.089000
 21
0.336175
 31
0.000000
  0
LINE
  8
25
 10
1.098675
 20
0.336175
 30
0.000000
 11
1.108350
 21
0.326500
 31
0.000000
  0
LINE
  8
25
 10
1.137815
 20
0.326500
 30
0.000000
 11
1.118465
 21
0.326500
 31
0.000000
  0
LINE
  8
25
 10
1.118465
 20
0.326500
 30
0.000000
 11
1.137815
 21
0.345850
 31
0.000000
  0
LINE
  8
25
 10
1.137815
 20
0.345850
 30
0.000000
 11
1.137815
 21
0.350687
 31
0.000000
  0
LINE
  8
25
 10
1.137815
 20
0.350687
 30
0.000000
 11
1.132977
 21
0.355525
 31
0.000000
  0
LINE
  8
25
 10
1.132977
 20
0.355525
 30
0.000000
 11
1.123303
 21
0.355525
 31
0.000000
  0
LINE
  8
25
 10
1.123303
 20
0.355525
 30
0.000000
 11
1.118465
 21
0.350687
 31
0.000000
  0
LINE
  8
25
 10
1.147930
 20
0.331337
 30
0.000000
 11
1.147930
 21
0.350687
 31
0.000000
  0
LINE
  8
25
 10
1.147930
 20
0.350687
 30
0.000000
 11
1.152768
 21
0.355525
 31
0.000000
  0
LINE
  8
25
 10
1.152768
 20
0.355525
 30
0.000000
 11
1.162443
 21
0.355525
 31
0.000000
  0
LINE
  8
25
 10
1.162443
 20
0.355525
 30
0.000000
 11
1.167280
 21
0.350687
 31
0.000000
  0
LINE
  8
25
 10
1.167280
 20
0.350687
 30
0.000000
 11
1.167280
 21
0.331337
 31
0.000000
  0
LINE
  8
25
 10
1.167280
 20
0.331337
 30
0.000000
 11
1.162443
 21
0.326500
 31
0.000000
  0
LINE
  8
25
 10
1.162443
 20
0.326500
 30
0.000000
 11
1.152768
 21
0.326500
 31
0.000000
  0
LINE
  8
25
 10
1.152768
 20
0.326500
 30
0.000000
 11
1.147930
 21
0.331337
 31
0.000000
  0
LINE
  8
25
 10
1.147930
 20
0.331337
 30
0.000000
 11
1.167280
 21
0.350687
 31
0.000000
  0
POINT
  8
23
 10
1.137500
 20
0.562500
 30
0.000000
  0
LINE
  8
51
 10
1.120492
 20
0.548484
 30
0.000000
 11
1.154508
 21
0.548484
 31
0.000000
  0
LINE
  8
51
 10
1.154508
 20
0.576516
 30
0.000000
 11
1.120492
 21
0.576516
 31
0.000000
  0
LINE
  8
39
 10
1.079508
 20
0.601201
 30
0.000000
 11
1.195492
 21
0.601201
 31
0.000000
  0
LINE
  8
39
 10
1.195492
 20
0.601201
 30
0.000000
 11
1.195492
 21
0.523799
 31
0.000000
  0
LINE
  8
39
 10
1.195492
 20
0.523799
 30
0.000000
 11
1.079508
 21
0.523799
 31
0.000000
  0
LINE
  8
39
 10
1.079508
 20
0.523799
 30
0.000000
 11
1.079508
 21
0.601201
 31
0.000000
  0
INSERT
  8
51
  2
RECT
 10
1.162500
 20
0.562500
 30
0.000000
 41
0.016000
 42
0.034000
 43
1.000000
 50
0.000000
  0
INSERT
  8
51
  2
RECT
 10
1.112500
 20
0.562500
 30
0.000000
 41
0.016000
 42
0.034000
 43
1.000000
 50
0.000000
  0
INSERT
  8
35
  2
RECT
 10
1.137500
 20
0.562500
 30
0.000000
 41
0.015740
 42
0.031504
 43
1.000000
 50
0.000000
  0
INSERT
  8
1
  2
RECT
 10
1.104035
 20
0.562500
 30
0.000000
 41
0.039370
 42
0.043307
 43
1.000000
 50
0.000000
  0
INSERT
  8
31
  2
RECT
 10
1.104035
 20
0.562500
 30
0.000000
 41
0.039370
 42
0.043307
 43
1.000000
 50
0.000000
  0
INSERT
  8
1
  2
RECT
 10
1.170965
 20
0.562500
 30
0.000000
 41
0.039370
 42
0.043307
 43
1.000000
 50
0.000000
  0
INSERT
  8
31
  2
RECT
 10
1.170965
 20
0.562500
 30
0.000000
 41
0.039370
 42
0.043307
 43
1.000000
 50
0.000000
  0
LINE
  8
25
 10
1.089000
 20
0.589000
 30
0.000000
 11
1.089000
 21
0.618025
 31
0.000000
  0
LINE
  8
25
 10
1.089000
 20
0.618025
 30
0.000000
 11
1.103512
 21
0.618025
 31
0.000000
  0
LINE
  8
25
 10
1.103512
 20
0.618025
 30
0.000000
 11
1.108350
 21
0.613187
 31
0.000000
  0
LINE
  8
25
 10
1.108350
 20
0.613187
 30
0.000000
 11
1.108350
 21
0.603512
 31
0.000000
  0
LINE
  8
25
 10
1.108350
 20
0.603512
 30
0.000000
 11
1.103512
 21
0.598675
 31
0.000000
  0
LINE
  8
25
 10
1.103512
 20
0.598675
 30
0.000000
 11
1.089000
 21
0.598675
 31
0.000000
  0
LINE
  8
25
 10
1.098675
 20
0.598675
 30
0.000000
 11
1.108350
 21
0.589000
 31
0.000000
  0
LINE
  8
25
 10
1.137815
 20
0.589000
 30
0.000000
 11
1.118465
 21
0.589000
 31
0.000000
  0
LINE
  8
25
 10
1.118465
 20
0.589000
 30
0.000000
 11
1.137815
 21
0.608350
 31
0.000000
  0
LINE
  8
25
 10
1.137815
 20
0.608350
 30
0.000000
 11
1.137815
 21
0.613187
 31
0.000000
  0
LINE
  8
25
 10
1.137815
 20
0.613187
 30
0.000000
 11
1.132977
 21
0.618025
 31
0.000000
  0
LINE
  8
25
 10
1.132977
 20
0.618025
 30
0.000000
 11
1.123303
 21
0.618025
 31
0.000000
  0
LINE
  8
25
 10
1.123303
 20
0.618025
 30
0.000000
 11
1.118465
 21
0.613187
 31
0.000000
  0
LINE
  8
25
 10
1.147930
 20
0.608350
 30
0.000000
 11
1.157605
 21
0.618025
 31
0.000000
  0
LINE
  8
25
 10
1.157605
 20
0.618025
 30
0.000000
 11
1.157605
 21
0.589000
 31
0.000000
  0
LINE
  8
25
 10
1.147930
 20
0.589000
 30
0.000000
 11
1.167280
 21
0.589000
 31
0.000000
  0
POINT
  8
23
 10
1.137500
 20
0.475000
 30
0.000000
  0
LINE
  8
51
 10
1.120492
 20
0.460984
 30
0.000000
 11
1.154508
 21
0.460984
 31
0.000000
  0
LINE
  8
51
 10
1.154508
 20
0.489016
 30
0.000000
 11
1.120492
 21
0.489016
 31
0.000000
  0
LINE
  8
39
 10
1.079508
 20
0.513701
 30
0.000000
 11
1.195492
 21
0.513701
 31
0.000000
  0
LINE
  8
39
 10
1.195492
 20
0.513701
 30
0.000000
 11
1.195492
 21
0.436299
 31
0.000000
  0
LINE
  8
39
 10
1.195492
 20
0.436299
 30
0.000000
 11
1.079508
 21
0.436299
 31
0.000000
  0
LINE
  8
39
 10
1.079508
 20
0.436299
 30
0.000000
 11
1.079508
 21
0.513701
 31
0.000000
  0
INSERT
  8
51
  2
RECT
 10
1.162500
 20
0.475000
 30
0.000000
 41
0.016000
 42
0.034000
 43
1.000000
 50
0.000000
  0
INSERT
  8
51
  2
RECT
 10
1.112500
 20
0.475000
 30
0.000000
 41
0.016000
 42
0.034000
 43
1.000000
 50
0.000000
  0
INSERT
  8
35
  2
RECT
 10
1.137500
 20
0.475000
 30
0.000000
 41
0.015740
 42
0.031504
 43
1.000000
 50
0.000000
  0
INSERT
  8
1
  2
RECT
 10
1.104035
 20
0.475000
 30
0.000000
 41
0.039370
 42
0.043307
 43
1.000000
 50
0.000000
  0
INSERT
  8
31
  2
RECT
 10
1.104035
 20
0.475000
 30
0.000000
 41
0.039370
 42
0.043307
 43
1.000000
 50
0.000000
  0
INSERT
  8
1
  2
RECT
 10
1.170965
 20
0.475000
 30
0.000000
 41
0.039370
 42
0.043307
 43
1.000000
 50
0.000000
  0
INSERT
  8
31
  2
RECT
 10
1.170965
 20
0.475000
 30
0.000000
 41
0.039370
 42
0.043307
 43
1.000000
 50
0.000000
  0
LINE
  8
25
 10
1.089000
 20
0.501500
 30
0.000000
 11
1.089000
 21
0.530525
 31
0.000000
  0
LINE
  8
25
 10
1.089000
 20
0.530525
 30
0.000000
 11
1.103512
 21
0.530525
 31
0.000000
  0
LINE
  8
25
 10
1.103512
 20
0.530525
 30
0.000000
 11
1.108350
 21
0.525687
 31
0.000000
  0
LINE
  8
25
 10
1.108350
 20
0.525687
 30
0.000000
 11
1.108350
 21
0.516012
 31
0.000000
  0
LINE
  8
25
 10
1.108350
 20
0.516012
 30
0.000000
 11
1.103512
 21
0.511175
 31
0.000000
  0
LINE
  8
25
 10
1.103512
 20
0.511175
 30
0.000000
 11
1.089000
 21
0.511175
 31
0.000000
  0
LINE
  8
25
 10
1.098675
 20
0.511175
 30
0.000000
 11
1.108350
 21
0.501500
 31
0.000000
  0
LINE
  8
25
 10
1.137815
 20
0.501500
 30
0.000000
 11
1.118465
 21
0.501500
 31
0.000000
  0
LINE
  8
25
 10
1.118465
 20
0.501500
 30
0.000000
 11
1.137815
 21
0.520850
 31
0.000000
  0
LINE
  8
25
 10
1.137815
 20
0.520850
 30
0.000000
 11
1.137815
 21
0.525687
 31
0.000000
  0
LINE
  8
25
 10
1.137815
 20
0.525687
 30
0.000000
 11
1.132977
 21
0.530525
 31
0.000000
  0
LINE
  8
25
 10
1.132977
 20
0.530525
 30
0.000000
 11
1.123303
 21
0.530525
 31
0.000000
  0
LINE
  8
25
 10
1.123303
 20
0.530525
 30
0.000000
 11
1.118465
 21
0.525687
 31
0.000000
  0
LINE
  8
25
 10
1.167280
 20
0.501500
 30
0.000000
 11
1.147930
 21
0.501500
 31
0.000000
  0
LINE
  8
25
 10
1.147930
 20
0.501500
 30
0.000000
 11
1.167280
 21
0.520850
 31
0.000000
  0
LINE
  8
25
 10
1.167280
 20
0.520850
 30
0.000000
 11
1.167280
 21
0.525687
 31
0.000000
  0
LINE
  8
25
 10
1.167280
 20
0.525687
 30
0.000000
 11
1.162443
 21
0.530525
 31
0.000000
  0
LINE
  8
25
 10
1.162443
 20
0.530525
 30
0.000000
 11
1.152768
 21
0.530525
 31
0.000000
  0
LINE
  8
25
 10
1.152768
 20
0.530525
 30
0.000000
 11
1.147930
 21
0.525687
 31
0.000000
  0
POINT
  8
23
 10
0.450000
 20
0.150000
 30
0.000000
  0
LINE
  8
51
 10
0.432992
 20
0.135984
 30
0.000000
 11
0.467008
 21
0.135984
 31
0.000000
  0
LINE
  8
51
 10
0.467008
 20
0.164016
 30
0.000000
 11
0.432992
 21
0.164016
 31
0.000000
  0
LINE
  8
39
 10
0.392008
 20
0.188701
 30
0.000000
 11
0.507992
 21
0.188701
 31
0.000000
  0
LINE
  8
39
 10
0.507992
 20
0.188701
 30
0.000000
 11
0.507992
 21
0.111299
 31
0.000000
  0
LINE
  8
39
 10
0.507992
 20
0.111299
 30
0.000000
 11
0.392008
 21
0.111299
 31
0.000000
  0
LINE
  8
39
 10
0.392008
 20
0.111299
 30
0.000000
 11
0.392008
 21
0.188701
 31
0.000000
  0
INSERT
  8
51
  2
RECT
 10
0.475000
 20
0.150000
 30
0.000000
 41
0.016000
 42
0.034000
 43
1.000000
 50
0.000000
  0
INSERT
  8
51
  2
RECT
 10
0.425000
 20
0.150000
 30
0.000000
 41
0.016000
 42
0.034000
 43
1.000000
 50
0.000000
  0
INSERT
  8
35
  2
RECT
 10
0.450000
 20
0.150000
 30
0.000000
 41
0.015740
 42
0.031504
 43
1.000000
 50
0.000000
  0
INSERT
  8
1
  2
RECT
 10
0.416535
 20
0.150000
 30
0.000000
 41
0.039370
 42
0.043307
 43
1.000000
 50
0.000000
  0
INSERT
  8
31
  2
RECT
 10
0.416535
 20
0.150000
 30
0.000000
 41
0.039370
 42
0.043307
 43
1.000000
 50
0.000000
  0
INSERT
  8
1
  2
RECT
 10
0.483465
 20
0.150000
 30
0.000000
 41
0.039370
 42
0.043307
 43
1.000000
 50
0.000000
  0
INSERT
  8
31
  2
RECT
 10
0.483465
 20
0.150000
 30
0.000000
 41
0.039370
 42
0.043307
 43
1.000000
 50
0.000000
  0
LINE
  8
25
 10
0.401500
 20
0.176500
 30
0.000000
 11
0.401500
 21
0.205525
 31
0.000000
  0
LINE
  8
25
 10
0.401500
 20
0.205525
 30
0.000000
 11
0.416012
 21
0.205525
 31
0.000000
  0
LINE
  8
25
 10
0.416012
 20
0.205525
 30
0.000000
 11
0.420850
 21
0.200687
 31
0.000000
  0
LINE
  8
25
 10
0.420850
 20
0.200687
 30
0.000000
 11
0.420850
 21
0.191012
 31
0.000000
  0
LINE
  8
25
 10
0.420850
 20
0.191012
 30
0.000000
 11
0.416012
 21
0.186175
 31
0.000000
  0
LINE
  8
25
 10
0.416012
 20
0.186175
 30
0.000000
 11
0.401500
 21
0.186175
 31
0.000000
  0
LINE
  8
25
 10
0.411175
 20
0.186175
 30
0.000000
 11
0.420850
 21
0.176500
 31
0.000000
  0
LINE
  8
25
 10
0.450315
 20
0.176500
 30
0.000000
 11
0.430965
 21
0.176500
 31
0.000000
  0
LINE
  8
25
 10
0.430965
 20
0.176500
 30
0.000000
 11
0.450315
 21
0.195850
 31
0.000000
  0
LINE
  8
25
 10
0.450315
 20
0.195850
 30
0.000000
 11
0.450315
 21
0.200687
 31
0.000000
  0
LINE
  8
25
 10
0.450315
 20
0.200687
 30
0.000000
 11
0.445477
 21
0.205525
 31
0.000000
  0
LINE
  8
25
 10
0.445477
 20
0.205525
 30
0.000000
 11
0.435803
 21
0.205525
 31
0.000000
  0
LINE
  8
25
 10
0.435803
 20
0.205525
 30
0.000000
 11
0.430965
 21
0.200687
 31
0.000000
  0
LINE
  8
25
 10
0.479780
 20
0.205525
 30
0.000000
 11
0.460430
 21
0.205525
 31
0.000000
  0
LINE
  8
25
 10
0.460430
 20
0.205525
 30
0.000000
 11
0.460430
 21
0.191012
 31
0.000000
  0
LINE
  8
25
 10
0.460430
 20
0.191012
 30
0.000000
 11
0.470105
 21
0.195850
 31
0.000000
  0
LINE
  8
25
 10
0.470105
 20
0.195850
 30
0.000000
 11
0.474943
 21
0.195850
 31
0.000000
  0
LINE
  8
25
 10
0.474943
 20
0.195850
 30
0.000000
 11
0.479780
 21
0.191012
 31
0.000000
  0
LINE
  8
25
 10
0.479780
 20
0.191012
 30
0.000000
 11
0.479780
 21
0.181337
 31
0.000000
  0
LINE
  8
25
 10
0.479780
 20
0.181337
 30
0.000000
 11
0.474943
 21
0.176500
 31
0.000000
  0
LINE
  8
25
 10
0.474943
 20
0.176500
 30
0.000000
 11
0.465268
 21
0.176500
 31
0.000000
  0
LINE
  8
25
 10
0.465268
 20
0.176500
 30
0.000000
 11
0.460430
 21
0.181337
 31
0.000000
  0
POINT
  8
23
 10
0.450000
 20
0.650000
 30
0.000000
  0
LINE
  8
51
 10
0.464016
 20
0.632992
 30
0.000000
 11
0.464016
 21
0.667008
 31
0.000000
  0
LINE
  8
51
 10
0.435984
 20
0.667008
 30
0.000000
 11
0.435984
 21
0.632992
 31
0.000000
  0
LINE
  8
39
 10
0.411299
 20
0.592008
 30
0.000000
 11
0.411299
 21
0.707992
 31
0.000000
  0
LINE
  8
39
 10
0.411299
 20
0.707992
 30
0.000000
 11
0.488701
 21
0.707992
 31
0.000000
  0
LINE
  8
39
 10
0.488701
 20
0.707992
 30
0.000000
 11
0.488701
 21
0.592008
 31
0.000000
  0
LINE
  8
39
 10
0.488701
 20
0.592008
 30
0.000000
 11
0.411299
 21
0.592008
 31
0.000000
  0
INSERT
  8
51
  2
RECT
 10
0.450000
 20
0.675000
 30
0.000000
 41
0.016000
 42
0.034000
 43
1.000000
 50
90.000000
  0
INSERT
  8
51
  2
RECT
 10
0.450000
 20
0.625000
 30
0.000000
 41
0.016000
 42
0.034000
 43
1.000000
 50
90.000000
  0
INSERT
  8
35
  2
RECT
 10
0.450000
 20
0.650000
 30
0.000000
 41
0.015740
 42
0.031504
 43
1.000000
 50
90.000000
  0
INSERT
  8
1
  2
RECT
 10
0.450000
 20
0.616535
 30
0.000000
 41
0.039370
 42
0.043307
 43
1.000000
 50
90.000000
  0
INSERT
  8
31
  2
RECT
 10
0.450000
 20
0.616535
 30
0.000000
 41
0.039370
 42
0.043307
 43
1.000000
 50
90.000000
  0
INSERT
  8
1
  2
RECT
 10
0.450000
 20
0.683465
 30
0.000000
 41
0.039370
 42
0.043307
 43
1.000000
 50
90.000000
  0
INSERT
  8
31
  2
RECT
 10
0.450000
 20
0.683465
 30
0.000000
 41
0.039370
 42
0.043307
 43
1.000000
 50
90.000000
  0
LINE
  8
25
 10
0.423500
 20
0.601500
 30
0.000000
 11
0.394475
 21
0.601500
 31
0.000000
  0
LINE
  8
25
 10
0.394475
 20
0.601500
 30
0.000000
 11
0.394475
 21
0.616012
 31
0.000000
  0
LINE
  8
25
 10
0.394475
 20
0.616012
 30
0.000000
 11
0.399313
 21
0.620850
 31
0.000000
  0
LINE
  8
25
 10
0.399313
 20
0.620850
 30
0.000000
 11
0.408988
 21
0.620850
 31
0.000000
  0
LINE
  8
25
 10
0.408988
 20
0.620850
 30
0.000000
 11
0.413825
 21
0.616012
 31
0.000000
  0
LINE
  8
25
 10
0.413825
 20
0.616012
 30
0.000000
 11
0.413825
 21
0.601500
 31
0.000000
  0
LINE
  8
25
 10
0.413825
 20
0.611175
 30
0.000000
 11
0.423500
 21
0.620850
 31
0.000000
  0
LINE
  8
25
 10
0.423500
 20
0.650315
 30
0.000000
 11
0.423500
 21
0.630965
 31
0.000000
  0
LINE
  8
25
 10
0.423500
 20
0.630965
 30
0.000000
 11
0.404150
 21
0.650315
 31
0.000000
  0
LINE
  8
25
 10
0.404150
 20
0.650315
 30
0.000000
 11
0.399313
 21
0.650315
 31
0.000000
  0
LINE
  8
25
 10
0.399313
 20
0.650315
 30
0.000000
 11
0.394475
 21
0.645477
 31
0.000000
  0
LINE
  8
25
 10
0.394475
 20
0.645477
 30
0.000000
 11
0.394475
 21
0.635803
 31
0.000000
  0
LINE
  8
25
 10
0.394475
 20
0.635803
 30
0.000000
 11
0.399313
 21
0.630965
 31
0.000000
  0
LINE
  8
25
 10
0.394475
 20
0.679780
 30
0.000000
 11
0.399313
 21
0.670105
 31
0.000000
  0
LINE
  8
25
 10
0.399313
 20
0.670105
 30
0.000000
 11
0.408988
 21
0.660430
 31
0.000000
  0
LINE
  8
25
 10
0.408988
 20
0.660430
 30
0.000000
 11
0.418663
 21
0.660430
 31
0.000000
  0
LINE
  8
25
 10
0.418663
 20
0.660430
 30
0.000000
 11
0.423500
 21
0.665268
 31
0.000000
  0
LINE
  8
25
 10
0.423500
 20
0.665268
 30
0.000000
 11
0.423500
 21
0.674943
 31
0.000000
  0
LINE
  8
25
 10
0.423500
 20
0.674943
 30
0.000000
 11
0.418663
 21
0.679780
 31
0.000000
  0
LINE
  8
25
 10
0.418663
 20
0.679780
 30
0.000000
 11
0.413825
 21
0.679780
 31
0.000000
  0
LINE
  8
25
 10
0.413825
 20
0.679780
 30
0.000000
 11
0.408988
 21
0.674943
 31
0.000000
  0
LINE
  8
25
 10
0.408988
 20
0.674943
 30
0.000000
 11
0.408988
 21
0.660430
 31
0.000000
  0
POINT
  8
23
 10
0.650000
 20
0.437500
 30
0.000000
  0
LINE
  8
21
 10
0.744488
 20
0.512303
 30
0.000000
 11
0.744488
 21
0.382382
 31
0.000000
  0
LINE
  8
21
 10
0.744488
 20
0.382382
 30
0.000000
 11
0.744488
 21
0.362697
 31
0.000000
  0
LINE
  8
51
 10
0.744488
 20
0.362697
 30
0.000000
 11
0.555512
 21
0.362697
 31
0.000000
  0
LINE
  8
21
 10
0.555512
 20
0.362697
 30
0.000000
 11
0.555512
 21
0.382382
 31
0.000000
  0
LINE
  8
21
 10
0.555512
 20
0.382382
 30
0.000000
 11
0.555512
 21
0.512303
 31
0.000000
  0
LINE
  8
51
 10
0.555512
 20
0.512303
 30
0.000000
 11
0.744488
 21
0.512303
 31
0.000000
  0
LINE
  8
21
 10
0.744488
 20
0.382382
 30
0.000000
 11
0.555512
 21
0.382382
 31
0.000000
  0
INSERT
  8
51
  2
RECT
 10
0.575000
 20
0.337106
 30
0.000000
 41
0.019291
 42
0.043307
 43
1.000000
 50
0.000000
  0
INSERT
  8
51
  2
RECT
 10
0.625000
 20
0.337106
 30
0.000000
 41
0.019291
 42
0.043307
 43
1.000000
 50
0.000000
  0
INSERT
  8
51
  2
RECT
 10
0.675000
 20
0.337106
 30
0.000000
 41
0.019291
 42
0.043307
 43
1.000000
 50
0.000000
  0
INSERT
  8
51
  2
RECT
 10
0.725000
 20
0.337106
 30
0.000000
 41
0.019291
 42
0.043307
 43
1.000000
 50
0.000000
  0
INSERT
  8
51
  2
RECT
 10
0.725000
 20
0.537894
 30
0.000000
 41
0.019291
 42
0.043307
 43
1.000000
 50
0.000000
  0
INSERT
  8
51
  2
RECT
 10
0.675000
 20
0.537894
 30
0.000000
 41
0.019291
 42
0.043307
 43
1.000000
 50
0.000000
  0
INSERT
  8
51
  2
RECT
 10
0.625000
 20
0.537894
 30
0.000000
 41
0.019291
 42
0.043307
 43
1.000000
 50
0.000000
  0
INSERT
  8
51
  2
RECT
 10
0.575000
 20
0.537894
 30
0.000000
 41
0.019291
 42
0.043307
 43
1.000000
 50
0.000000
  0
INSERT
  8
1
  2
RECT
 10
0.575000
 20
0.329232
 30
0.000000
 41
0.023622
 42
0.059055
 43
1.000000
 50
0.000000
  0
INSERT
  8
31
  2
RECT
 10
0.575000
 20
0.329232
 30
0.000000
 41
0.023622
 42
0.059055
 43
1.000000
 50
0.000000
  0
INSERT
  8
1
  2
RECT
 10
0.625000
 20
0.329232
 30
0.000000
 41
0.023622
 42
0.059055
 43
1.000000
 50
0.000000
  0
INSERT
  8
31
  2
RECT
 10
0.625000
 20
0.329232
 30
0.000000
 41
0.023622
 42
0.059055
 43
1.000000
 50
0.000000
  0
INSERT
  8
1
  2
RECT
 10
0.675000
 20
0.329232
 30
0.000000
 41
0.023622
 42
0.059055
 43
1.000000
 50
0.000000
  0
INSERT
  8
31
  2
RECT
 10
0.675000
 20
0.329232
 30
0.000000
 41
0.023622
 42
0.059055
 43
1.000000
 50
0.000000
  0
INSERT
  8
1
  2
RECT
 10
0.725000
 20
0.329232
 30
0.000000
 41
0.023622
 42
0.059055
 43
1.000000
 50
0.000000
  0
INSERT
  8
31
  2
RECT
 10
0.725000
 20
0.329232
 30
0.000000
 41
0.023622
 42
0.059055
 43
1.000000
 50
0.000000
  0
INSERT
  8
1
  2
RECT
 10
0.725000
 20
0.545768
 30
0.000000
 41
0.023622
 42
0.059055
 43
1.000000
 50
0.000000
  0
INSERT
  8
31
  2
RECT
 10
0.725000
 20
0.545768
 30
0.000000
 41
0.023622
 42
0.059055
 43
1.000000
 50
0.000000
  0
INSERT
  8
1
  2
RECT
 10
0.675000
 20
0.545768
 30
0.000000
 41
0.023622
 42
0.059055
 43
1.000000
 50
0.000000
  0
INSERT
  8
31
  2
RECT
 10
0.675000
 20
0.545768
 30
0.000000
 41
0.023622
 42
0.059055
 43
1.000000
 50
0.000000
  0
INSERT
  8
1
  2
RECT
 10
0.625000
 20
0.545768
 30
0.000000
 41
0.023622
 42
0.059055
 43
1.000000
 50
0.000000
  0
INSERT
  8
31
  2
RECT
 10
0.625000
 20
0.545768
 30
0.000000
 41
0.023622
 42
0.059055
 43
1.000000
 50
0.000000
  0
INSERT
  8
1
  2
RECT
 10
0.575000
 20
0.545768
 30
0.000000
 41
0.023622
 42
0.059055
 43
1.000000
 50
0.000000
  0
INSERT
  8
31
  2
RECT
 10
0.575000
 20
0.545768
 30
0.000000
 41
0.023622
 42
0.059055
 43
1.000000
 50
0.000000
  0
LINE
  8
25
 10
0.514475
 20
0.364000
 30
0.000000
 11
0.538663
 21
0.364000
 31
0.000000
  0
LINE
  8
25
 10
0.538663
 20
0.364000
 30
0.000000
 11
0.543500
 21
0.368837
 31
0.000000
  0
LINE
  8
25
 10
0.543500
 20
0.368837
 30
0.000000
 11
0.543500
 21
0.378512
 31
0.000000
  0
LINE
  8
25
 10
0.543500
 20
0.378512
 30
0.000000
 11
0.538663
 21
0.383350
 31
0.000000
  0
LINE
  8
25
 10
0.538663
 20
0.383350
 30
0.000000
 11
0.514475
 21
0.383350
 31
0.000000
  0
LINE
  8
25
 10
0.543500
 20
0.412815
 30
0.000000
 11
0.543500
 21
0.393465
 31
0.000000
  0
LINE
  8
25
 10
0.543500
 20
0.393465
 30
0.000000
 11
0.524150
 21
0.412815
 31
0.000000
  0
LINE
  8
25
 10
0.524150
 20
0.412815
 30
0.000000
 11
0.519313
 21
0.412815
 31
0.000000
  0
LINE
  8
25
 10
0.519313
 20
0.412815
 30
0.000000
 11
0.514475
 21
0.407977
 31
0.000000
  0
LINE
  8
25
 10
0.514475
 20
0.407977
 30
0.000000
 11
0.514475
 21
0.398303
 31
0.000000
  0
LINE
  8
25
 10
0.514475
 20
0.398303
 30
0.000000
 11
0.519313
 21
0.393465
 31
0.000000
  0
POINT
  8
24
 10
1.087500
 20
0.300000
 30
0.000000
  0
LINE
  8
22
 10
1.107185
 20
0.351181
 30
0.000000
 11
1.107185
 21
0.319685
 31
0.000000
  0
LINE
  8
22
 10
1.107185
 20
0.280315
 30
0.000000
 11
1.107185
 21
0.264567
 31
0.000000
  0
LINE
  8
22
 10
1.107185
 20
0.264567
 30
0.000000
 11
1.225295
 21
0.264567
 31
0.000000
  0
LINE
  8
22
 10
1.225295
 20
0.264567
 30
0.000000
 11
1.225295
 21
0.280315
 31
0.000000
  0
LINE
  8
22
 10
1.225295
 20
0.319685
 30
0.000000
 11
1.225295
 21
0.351181
 31
0.000000
  0
LINE
  8
22
 10
1.225295
 20
0.390551
 30
0.000000
 11
1.225295
 21
0.406299
 31
0.000000
  0
LINE
  8
22
 10
1.225295
 20
0.406299
 30
0.000000
 11
1.122933
 21
0.406299
 31
0.000000
  0
LINE
  8
22
 10
1.122933
 20
0.406299
 30
0.000000
 11
1.107185
 21
0.390551
 31
0.000000
  0
INSERT
  8
16
  2
RECT
 10
1.087500
 20
0.370866
 30
0.000000
 41
0.065354
 42
0.031102
 43
1.000000
 50
0.000000
  0
INSERT
  8
32
  2
RECT
 10
1.087500
 20
0.370866
 30
0.000000
 41
0.065354
 42
0.031102
 43
1.000000
 50
0.000000
  0
INSERT
  8
16
  2
RECT
 10
1.244980
 20
0.370866
 30
0.000000
 41
0.065354
 42
0.031102
 43
1.000000
 50
0.000000
  0
INSERT
  8
32
  2
RECT
 10
1.244980
 20
0.370866
 30
0.000000
 41
0.065354
 42
0.031102
 43
1.000000
 50
0.000000
  0
INSERT
  8
16
  2
RECT
 10
1.245374
 20
0.300000
 30
0.000000
 41
0.065354
 42
0.031102
 43
1.000000
 50
0.000000
  0
INSERT
  8
32
  2
RECT
 10
1.245374
 20
0.300000
 30
0.000000
 41
0.065354
 42
0.031102
 43
1.000000
 50
0.000000
  0
INSERT
  8
16
  2
RECT
 10
1.087500
 20
0.300000
 30
0.000000
 41
0.065354
 42
0.031102
 43
1.000000
 50
0.000000
  0
INSERT
  8
32
  2
RECT
 10
1.087500
 20
0.300000
 30
0.000000
 41
0.065354
 42
0.031102
 43
1.000000
 50
0.000000
  0
LINE
  8
25
 10
1.170250
 20
0.257887
 30
0.000000
 11
1.170250
 21
0.233700
 31
0.000000
  0
LINE
  8
25
 10
1.170250
 20
0.233700
 30
0.000000
 11
1.175087
 21
0.228862
 31
0.000000
  0
LINE
  8
25
 10
1.175087
 20
0.228862
 30
0.000000
 11
1.184762
 21
0.228862
 31
0.000000
  0
LINE
  8
25
 10
1.184762
 20
0.228862
 30
0.000000
 11
1.189600
 21
0.233700
 31
0.000000
  0
LINE
  8
25
 10
1.189600
 20
0.233700
 30
0.000000
 11
1.189600
 21
0.257887
 31
0.000000
  0
LINE
  8
25
 10
1.199715
 20
0.253049
 30
0.000000
 11
1.204553
 21
0.257887
 31
0.000000
  0
LINE
  8
25
 10
1.204553
 20
0.257887
 30
0.000000
 11
1.214227
 21
0.257887
 31
0.000000
  0
LINE
  8
25
 10
1.214227
 20
0.257887
 30
0.000000
 11
1.219065
 21
0.253049
 31
0.000000
  0
LINE
  8
25
 10
1.219065
 20
0.253049
 30
0.000000
 11
1.219065
 21
0.248212
 31
0.000000
  0
LINE
  8
25
 10
1.219065
 20
0.248212
 30
0.000000
 11
1.214227
 21
0.243375
 31
0.000000
  0
LINE
  8
25
 10
1.214227
 20
0.243375
 30
0.000000
 11
1.209390
 21
0.243375
 31
0.000000
  0
LINE
  8
25
 10
1.214227
 20
0.243375
 30
0.000000
 11
1.219065
 21
0.238537
 31
0.000000
  0
LINE
  8
25
 10
1.219065
 20
0.238537
 30
0.000000
 11
1.219065
 21
0.233700
 31
0.000000
  0
LINE
  8
25
 10
1.219065
 20
0.233700
 30
0.000000
 11
1.214227
 21
0.228862
 31
0.000000
  0
LINE
  8
25
 10
1.214227
 20
0.228862
 30
0.000000
 11
1.204553
 21
0.228862
 31
0.000000
  0
LINE
  8
25
 10
1.204553
 20
0.228862
 30
0.000000
 11
1.199715
 21
0.233700
 31
0.000000
  0
POINT
  8
24
 10
1.087500
 20
0.475000
 30
0.000000
  0
LINE
  8
22
 10
1.107185
 20
0.526181
 30
0.000000
 11
1.107185
 21
0.494685
 31
0.000000
  0
LINE
  8
22
 10
1.107185
 20
0.455315
 30
0.000000
 11
1.107185
 21
0.439567
 31
0.000000
  0
LINE
  8
22
 10
1.107185
 20
0.439567
 30
0.000000
 11
1.225295
 21
0.439567
 31
0.000000
  0
LINE
  8
22
 10
1.225295
 20
0.439567
 30
0.000000
 11
1.225295
 21
0.455315
 31
0.000000
  0
LINE
  8
22
 10
1.225295
 20
0.494685
 30
0.000000
 11
1.225295
 21
0.526181
 31
0.000000
  0
LINE
  8
22
 10
1.225295
 20
0.565551
 30
0.000000
 11
1.225295
 21
0.581299
 31
0.000000
  0
LINE
  8
22
 10
1.225295
 20
0.581299
 30
0.000000
 11
1.122933
 21
0.581299
 31
0.000000
  0
LINE
  8
22
 10
1.122933
 20
0.581299
 30
0.000000
 11
1.107185
 21
0.565551
 31
0.000000
  0
INSERT
  8
16
  2
RECT
 10
1.087500
 20
0.545866
 30
0.000000
 41
0.065354
 42
0.031102
 43
1.000000
 50
0.000000
  0
INSERT
  8
32
  2
RECT
 10
1.087500
 20
0.545866
 30
0.000000
 41
0.065354
 42
0.031102
 43
1.000000
 50
0.000000
  0
INSERT
  8
16
  2
RECT
 10
1.244980
 20
0.545866
 30
0.000000
 41
0.065354
 42
0.031102
 43
1.000000
 50
0.000000
  0
INSERT
  8
32
  2
RECT
 10
1.244980
 20
0.545866
 30
0.000000
 41
0.065354
 42
0.031102
 43
1.000000
 50
0.000000
  0
INSERT
  8
16
  2
RECT
 10
1.245374
 20
0.475000
 30
0.000000
 41
0.065354
 42
0.031102
 43
1.000000
 50
0.000000
  0
INSERT
  8
32
  2
RECT
 10
1.245374
 20
0.475000
 30
0.000000
 41
0.065354
 42
0.031102
 43
1.000000
 50
0.000000
  0
INSERT
  8
16
  2
RECT
 10
1.087500
 20
0.475000
 30
0.000000
 41
0.065354
 42
0.031102
 43
1.000000
 50
0.000000
  0
INSERT
  8
32
  2
RECT
 10
1.087500
 20
0.475000
 30
0.000000
 41
0.065354
 42
0.031102
 43
1.000000
 50
0.000000
  0
LINE
  8
25
 10
1.170250
 20
0.632887
 30
0.000000
 11
1.170250
 21
0.608700
 31
0.000000
  0
LINE
  8
25
 10
1.170250
 20
0.608700
 30
0.000000
 11
1.175087
 21
0.603862
 31
0.000000
  0
LINE
  8
25
 10
1.175087
 20
0.603862
 30
0.000000
 11
1.184762
 21
0.603862
 31
0.000000
  0
LINE
  8
25
 10
1.184762
 20
0.603862
 30
0.000000
 11
1.189600
 21
0.608700
 31
0.000000
  0
LINE
  8
25
 10
1.189600
 20
0.608700
 30
0.000000
 11
1.189600
 21
0.632887
 31
0.000000
  0
LINE
  8
25
 10
1.214227
 20
0.603862
 30
0.000000
 11
1.214227
 21
0.632887
 31
0.000000
  0
LINE
  8
25
 10
1.214227
 20
0.632887
 30
0.000000
 11
1.199715
 21
0.618375
 31
0.000000
  0
LINE
  8
25
 10
1.199715
 20
0.618375
 30
0.000000
 11
1.219065
 21
0.618375
 31
0.000000
  0
LINE
  8
16
 10
0.000000
 20
0.000000
 30
0.000000
 11
0.000000
 21
0.850000
 31
0.000000
  0
LINE
  8
16
 10
0.000000
 20
0.850000
 30
0.000000
 11
1.312500
 21
0.850000
 31
0.000000
  0
LINE
  8
16
 10
1.312500
 20
0.850000
 30
0.000000
 11
1.312500
 21
0.000000
 31
0.000000
  0
LINE
  8
16
 10
1.312500
 20
0.000000
 30
0.000000
 11
0.000000
 21
0.000000
 31
0.000000
  0
LINE
  8
1
 10
1.070965
 20
0.650000
 30
0.000000
 11
1.118750
 21
0.650000
 31
0.000000
  0
LINE
  8
1
 10
0.937500
 20
0.545965
 30
0.000000
 11
0.937500
 21
0.600000
 31
0.000000
  0
LINE
  8
1
 10
0.937500
 20
0.316535
 30
0.000000
 11
0.937500
 21
0.262500
 31
0.000000
  0
LINE
  8
1
 10
1.070965
 20
0.200000
 30
0.000000
 11
1.125000
 21
0.200000
 31
0.000000
  0
LINE
  8
1
 10
0.850000
 20
0.237500
 30
0.000000
 11
0.795965
 21
0.237500
 31
0.000000
  0
LINE
  8
1
 10
0.331250
 20
0.293750
 30
0.000000
 11
0.331250
 21
0.341535
 31
0.000000
  0
LINE
  8
1
 10
0.737500
 20
0.712500
 30
0.000000
 11
0.683465
 21
0.712500
 31
0.000000
  0
LINE
  8
1
 10
0.800000
 20
0.379035
 30
0.000000
 11
0.800000
 21
0.325000
 31
0.000000
  0
LINE
  8
1
 10
0.725000
 20
0.329232
 30
0.000000
 11
0.729232
 21
0.325000
 31
0.000000
  0
LINE
  8
1
 10
0.729232
 20
0.325000
 30
0.000000
 11
0.762500
 21
0.325000
 31
0.000000
  0
LINE
  8
1
 10
0.295965
 20
0.062500
 30
0.000000
 11
0.350000
 21
0.062500
 31
0.000000
  0
LINE
  8
1
 10
0.833465
 20
0.625000
 30
0.000000
 11
0.837500
 21
0.620965
 31
0.000000
  0
LINE
  8
1
 10
0.837500
 20
0.620965
 30
0.000000
 11
0.837500
 21
0.575000
 31
0.000000
  0
LINE
  8
1
 10
0.620965
 20
0.150000
 30
0.000000
 11
0.675000
 21
0.150000
 31
0.000000
  0
LINE
  8
1
 10
0.350000
 20
0.787500
 30
0.000000
 11
0.295965
 21
0.787500
 31
0.000000
  0
LINE
  8
1
 10
0.537500
 20
0.683465
 30
0.000000
 11
0.537500
 21
0.737500
 31
0.000000
  0
LINE
  8
1
 10
0.931152
 20
0.137500
 30
0.000000
 11
0.987500
 21
0.137500
 31
0.000000
  0
INSERT
  8
18
  2
ROUNDV
 10
1.118750
 20
0.650000
 30
0.000000
 41
0.035685
 42
0.035685
 43
1.000000
 50
0.000000
  0
INSERT
  8
18
  2
ROUNDV
 10
1.118750
 20
0.650000
 30
0.000000
 41
0.035685
 42
0.035685
 43
1.000000
 50
0.000000
  0
CIRCLE
  8
44
 10
1.118750
 20
0.650000
 30
0.000000
 40
0.009843
  0
INSERT
  8
18
  2
ROUNDV
 10
0.937500
 20
0.600000
 30
0.000000
 41
0.035685
 42
0.035685
 43
1.000000
 50
0.000000
  0
INSERT
  8
18
  2
ROUNDV
 10
0.937500
 20
0.600000
 30
0.000000
 41
0.035685
 42
0.035685
 43
1.000000
 50
0.000000
  0
CIRCLE
  8
44
 10
0.937500
 20
0.600000
 30
0.000000
 40
0.009843
  0
INSERT
  8
18
  2
ROUNDV
 10
0.937500
 20
0.262500
 30
0.000000
 41
0.035685
 42
0.035685
 43
1.000000
 50
0.000000
  0
INSERT
  8
18
  2
ROUNDV
 10
0.937500
 20
0.262500
 30
0.000000
 41
0.035685
 42
0.035685
 43
1.000000
 50
0.000000
  0
CIRCLE
  8
44
 10
0.937500
 20
0.262500
 30
0.000000
 40
0.009843
  0
INSERT
  8
18
  2
ROUNDV
 10
1.125000
 20
0.200000
 30
0.000000
 41
0.035685
 42
0.035685
 43
1.000000
 50
0.000000
  0
INSERT
  8
18
  2
ROUNDV
 10
1.125000
 20
0.200000
 30
0.000000
 41
0.035685
 42
0.035685
 43
1.000000
 50
0.000000
  0
CIRCLE
  8
44
 10
1.125000
 20
0.200000
 30
0.000000
 40
0.009843
  0
INSERT
  8
18
  2
ROUNDV
 10
0.850000
 20
0.237500
 30
0.000000
 41
0.035685
 42
0.035685
 43
1.000000
 50
0.000000
  0
INSERT
  8
18
  2
ROUNDV
 10
0.850000
 20
0.237500
 30
0.000000
 41
0.035685
 42
0.035685
 43
1.000000
 50
0.000000
  0
CIRCLE
  8
44
 10
0.850000
 20
0.237500
 30
0.000000
 40
0.009843
  0
INSERT
  8
18
  2
ROUNDV
 10
0.837500
 20
0.575000
 30
0.000000
 41
0.035685
 42
0.035685
 43
1.000000
 50
0.000000
  0
INSERT
  8
18
  2
ROUNDV
 10
0.837500
 20
0.575000
 30
0.000000
 41
0.035685
 42
0.035685
 43
1.000000
 50
0.000000
  0
CIRCLE
  8
44
 10
0.837500
 20
0.575000
 30
0.000000
 40
0.009843
  0
INSERT
  8
18
  2
ROUNDV
 10
0.537500
 20
0.737500
 30
0.000000
 41
0.035685
 42
0.035685
 43
1.000000
 50
0.000000
  0
INSERT
  8
18
  2
ROUNDV
 10
0.537500
 20
0.737500
 30
0.000000
 41
0.035685
 42
0.035685
 43
1.000000
 50
0.000000
  0
CIRCLE
  8
44
 10
0.537500
 20
0.737500
 30
0.000000
 40
0.009843
  0
INSERT
  8
18
  2
ROUNDV
 10
0.331250
 20
0.293750
 30
0.000000
 41
0.035685
 42
0.035685
 43
1.000000
 50
0.000000
  0
INSERT
  8
18
  2
ROUNDV
 10
0.331250
 20
0.293750
 30
0.000000
 41
0.035685
 42
0.035685
 43
1.000000
 50
0.000000
  0
CIRCLE
  8
44
 10
0.331250
 20
0.293750
 30
0.000000
 40
0.009843
  0
INSERT
  8
18
  2
ROUNDV
 10
0.737500
 20
0.712500
 30
0.000000
 41
0.035685
 42
0.035685
 43
1.000000
 50
0.000000
  0
INSERT
  8
18
  2
ROUNDV
 10
0.737500
 20
0.712500
 30
0.000000
 41
0.035685
 42
0.035685
 43
1.000000
 50
0.000000
  0
CIRCLE
  8
44
 10
0.737500
 20
0.712500
 30
0.000000
 40
0.009843
  0
INSERT
  8
18
  2
ROUNDV
 10
0.762500
 20
0.325000
 30
0.000000
 41
0.035685
 42
0.035685
 43
1.000000
 50
0.000000
  0
INSERT
  8
18
  2
ROUNDV
 10
0.762500
 20
0.325000
 30
0.000000
 41
0.035685
 42
0.035685
 43
1.000000
 50
0.000000
  0
CIRCLE
  8
44
 10
0.762500
 20
0.325000
 30
0.000000
 40
0.009843
  0
INSERT
  8
18
  2
ROUNDV
 10
0.800000
 20
0.325000
 30
0.000000
 41
0.035685
 42
0.035685
 43
1.000000
 50
0.000000
  0
INSERT
  8
18
  2
ROUNDV
 10
0.800000
 20
0.325000
 30
0.000000
 41
0.035685
 42
0.035685
 43
1.000000
 50
0.000000
  0
CIRCLE
  8
44
 10
0.800000
 20
0.325000
 30
0.000000
 40
0.009843
  0
INSERT
  8
18
  2
ROUNDV
 10
0.800000
 20
0.575000
 30
0.000000
 41
0.035685
 42
0.035685
 43
1.000000
 50
0.000000
  0
INSERT
  8
18
  2
ROUNDV
 10
0.800000
 20
0.575000
 30
0.000000
 41
0.035685
 42
0.035685
 43
1.000000
 50
0.000000
  0
CIRCLE
  8
44
 10
0.800000
 20
0.575000
 30
0.000000
 40
0.009843
  0
INSERT
  8
18
  2
ROUNDV
 10
0.900000
 20
0.600000
 30
0.000000
 41
0.035685
 42
0.035685
 43
1.000000
 50
0.000000
  0
INSERT
  8
18
  2
ROUNDV
 10
0.900000
 20
0.600000
 30
0.000000
 41
0.035685
 42
0.035685
 43
1.000000
 50
0.000000
  0
CIRCLE
  8
44
 10
0.900000
 20
0.600000
 30
0.000000
 40
0.009843
  0
INSERT
  8
18
  2
ROUNDV
 10
0.850000
 20
0.275000
 30
0.000000
 41
0.035685
 42
0.035685
 43
1.000000
 50
0.000000
  0
INSERT
  8
18
  2
ROUNDV
 10
0.850000
 20
0.275000
 30
0.000000
 41
0.035685
 42
0.035685
 43
1.000000
 50
0.000000
  0
CIRCLE
  8
44
 10
0.850000
 20
0.275000
 30
0.000000
 40
0.009843
  0
INSERT
  8
18
  2
ROUNDV
 10
0.900000
 20
0.262500
 30
0.000000
 41
0.035685
 42
0.035685
 43
1.000000
 50
0.000000
  0
INSERT
  8
18
  2
ROUNDV
 10
0.900000
 20
0.262500
 30
0.000000
 41
0.035685
 42
0.035685
 43
1.000000
 50
0.000000
  0
CIRCLE
  8
44
 10
0.900000
 20
0.262500
 30
0.000000
 40
0.009843
  0
INSERT
  8
18
  2
ROUNDV
 10
0.293750
 20
0.293750
 30
0.000000
 41
0.035685
 42
0.035685
 43
1.000000
 50
0.000000
  0
INSERT
  8
18
  2
ROUNDV
 10
0.293750
 20
0.293750
 30
0.000000
 41
0.035685
 42
0.035685
 43
1.000000
 50
0.000000
  0
CIRCLE
  8
44
 10
0.293750
 20
0.293750
 30
0.000000
 40
0.009843
  0
INSERT
  8
18
  2
ROUNDV
 10
0.500000
 20
0.743750
 30
0.000000
 41
0.035685
 42
0.035685
 43
1.000000
 50
0.000000
  0
INSERT
  8
18
  2
ROUNDV
 10
0.500000
 20
0.743750
 30
0.000000
 41
0.035685
 42
0.035685
 43
1.000000
 50
0.000000
  0
CIRCLE
  8
44
 10
0.500000
 20
0.743750
 30
0.000000
 40
0.009843
  0
INSERT
  8
18
  2
ROUNDV
 10
0.737500
 20
0.750000
 30
0.000000
 41
0.035685
 42
0.035685
 43
1.000000
 50
0.000000
  0
INSERT
  8
18
  2
ROUNDV
 10
0.737500
 20
0.750000
 30
0.000000
 41
0.035685
 42
0.035685
 43
1.000000
 50
0.000000
  0
CIRCLE
  8
44
 10
0.737500
 20
0.750000
 30
0.000000
 40
0.009843
  0
INSERT
  8
18
  2
ROUNDV
 10
1.156250
 20
0.637500
 30
0.000000
 41
0.035685
 42
0.035685
 43
1.000000
 50
0.000000
  0
INSERT
  8
18
  2
ROUNDV
 10
1.156250
 20
0.637500
 30
0.000000
 41
0.035685
 42
0.035685
 43
1.000000
 50
0.000000
  0
CIRCLE
  8
44
 10
1.156250
 20
0.637500
 30
0.000000
 40
0.009843
  0
INSERT
  8
18
  2
ROUNDV
 10
0.837500
 20
0.325000
 30
0.000000
 41
0.035685
 42
0.035685
 43
1.000000
 50
0.000000
  0
INSERT
  8
18
  2
ROUNDV
 10
0.837500
 20
0.325000
 30
0.000000
 41
0.035685
 42
0.035685
 43
1.000000
 50
0.000000
  0
CIRCLE
  8
44
 10
0.837500
 20
0.325000
 30
0.000000
 40
0.009843
  0
INSERT
  8
18
  2
ROUNDV
 10
1.012500
 20
0.518750
 30
0.000000
 41
0.035685
 42
0.035685
 43
1.000000
 50
0.000000
  0
INSERT
  8
18
  2
ROUNDV
 10
1.012500
 20
0.518750
 30
0.000000
 41
0.035685
 42
0.035685
 43
1.000000
 50
0.000000
  0
CIRCLE
  8
44
 10
1.012500
 20
0.518750
 30
0.000000
 40
0.009843
  0
INSERT
  8
18
  2
ROUNDV
 10
1.012500
 20
0.343750
 30
0.000000
 41
0.035685
 42
0.035685
 43
1.000000
 50
0.000000
  0
INSERT
  8
18
  2
ROUNDV
 10
1.012500
 20
0.343750
 30
0.000000
 41
0.035685
 42
0.035685
 43
1.000000
 50
0.000000
  0
CIRCLE
  8
44
 10
1.012500
 20
0.343750
 30
0.000000
 40
0.009843
  0
INSERT
  8
18
  2
ROUNDV
 10
0.975000
 20
0.262500
 30
0.000000
 41
0.035685
 42
0.035685
 43
1.000000
 50
0.000000
  0
INSERT
  8
18
  2
ROUNDV
 10
0.975000
 20
0.262500
 30
0.000000
 41
0.035685
 42
0.035685
 43
1.000000
 50
0.000000
  0
CIRCLE
  8
44
 10
0.975000
 20
0.262500
 30
0.000000
 40
0.009843
  0
INSERT
  8
18
  2
ROUNDV
 10
0.350000
 20
0.062500
 30
0.000000
 41
0.035685
 42
0.035685
 43
1.000000
 50
0.000000
  0
INSERT
  8
18
  2
ROUNDV
 10
0.350000
 20
0.062500
 30
0.000000
 41
0.035685
 42
0.035685
 43
1.000000
 50
0.000000
  0
CIRCLE
  8
44
 10
0.350000
 20
0.062500
 30
0.000000
 40
0.009843
  0
INSERT
  8
18
  2
ROUNDV
 10
0.350000
 20
0.100000
 30
0.000000
 41
0.035685
 42
0.035685
 43
1.000000
 50
0.000000
  0
INSERT
  8
18
  2
ROUNDV
 10
0.350000
 20
0.100000
 30
0.000000
 41
0.035685
 42
0.035685
 43
1.000000
 50
0.000000
  0
CIRCLE
  8
44
 10
0.350000
 20
0.100000
 30
0.000000
 40
0.009843
  0
INSERT
  8
18
  2
ROUNDV
 10
0.350000
 20
0.787500
 30
0.000000
 41
0.035685
 42
0.035685
 43
1.000000
 50
0.000000
  0
INSERT
  8
18
  2
ROUNDV
 10
0.350000
 20
0.787500
 30
0.000000
 41
0.035685
 42
0.035685
 43
1.000000
 50
0.000000
  0
CIRCLE
  8
44
 10
0.350000
 20
0.787500
 30
0.000000
 40
0.009843
  0
INSERT
  8
18
  2
ROUNDV
 10
0.350000
 20
0.750000
 30
0.000000
 41
0.035685
 42
0.035685
 43
1.000000
 50
0.000000
  0
INSERT
  8
18
  2
ROUNDV
 10
0.350000
 20
0.750000
 30
0.000000
 41
0.035685
 42
0.035685
 43
1.000000
 50
0.000000
  0
CIRCLE
  8
44
 10
0.350000
 20
0.750000
 30
0.000000
 40
0.009843
  0
INSERT
  8
18
  2
ROUNDV
 10
0.675000
 20
0.150000
 30
0.000000
 41
0.035685
 42
0.035685
 43
1.000000
 50
0.000000
  0
INSERT
  8
18
  2
ROUNDV
 10
0.675000
 20
0.150000
 30
0.000000
 41
0.035685
 42
0.035685
 43
1.000000
 50
0.000000
  0
CIRCLE
  8
44
 10
0.675000
 20
0.150000
 30
0.000000
 40
0.009843
  0
INSERT
  8
18
  2
ROUNDV
 10
0.675000
 20
0.112500
 30
0.000000
 41
0.035685
 42
0.035685
 43
1.000000
 50
0.000000
  0
INSERT
  8
18
  2
ROUNDV
 10
0.675000
 20
0.112500
 30
0.000000
 41
0.035685
 42
0.035685
 43
1.000000
 50
0.000000
  0
CIRCLE
  8
44
 10
0.675000
 20
0.112500
 30
0.000000
 40
0.009843
  0
INSERT
  8
18
  2
ROUNDV
 10
0.987500
 20
0.137500
 30
0.000000
 41
0.035685
 42
0.035685
 43
1.000000
 50
0.000000
  0
INSERT
  8
18
  2
ROUNDV
 10
0.987500
 20
0.137500
 30
0.000000
 41
0.035685
 42
0.035685
 43
1.000000
 50
0.000000
  0
CIRCLE
  8
44
 10
0.987500
 20
0.137500
 30
0.000000
 40
0.009843
  0
INSERT
  8
18
  2
ROUNDV
 10
0.987500
 20
0.100000
 30
0.000000
 41
0.035685
 42
0.035685
 43
1.000000
 50
0.000000
  0
INSERT
  8
18
  2
ROUNDV
 10
0.987500
 20
0.100000
 30
0.000000
 41
0.035685
 42
0.035685
 43
1.000000
 50
0.000000
  0
CIRCLE
  8
44
 10
0.987500
 20
0.100000
 30
0.000000
 40
0.009843
  0
INSERT
  8
18
  2
ROUNDV
 10
1.156250
 20
0.225000
 30
0.000000
 41
0.035685
 42
0.035685
 43
1.000000
 50
0.000000
  0
INSERT
  8
18
  2
ROUNDV
 10
1.156250
 20
0.225000
 30
0.000000
 41
0.035685
 42
0.035685
 43
1.000000
 50
0.000000
  0
CIRCLE
  8
44
 10
1.156250
 20
0.225000
 30
0.000000
 40
0.009843
  0
INSERT
  8
18
  2
ROUNDV
 10
0.343750
 20
0.587500
 30
0.000000
 41
0.035685
 42
0.035685
 43
1.000000
 50
0.000000
  0
INSERT
  8
18
  2
ROUNDV
 10
0.343750
 20
0.587500
 30
0.000000
 41
0.035685
 42
0.035685
 43
1.000000
 50
0.000000
  0
CIRCLE
  8
44
 10
0.343750
 20
0.587500
 30
0.000000
 40
0.009843
  0
INSERT
  8
18
  2
ROUNDV
 10
0.331250
 20
0.656250
 30
0.000000
 41
0.035685
 42
0.035685
 43
1.000000
 50
0.000000
  0
INSERT
  8
18
  2
ROUNDV
 10
0.331250
 20
0.656250
 30
0.000000
 41
0.035685
 42
0.035685
 43
1.000000
 50
0.000000
  0
CIRCLE
  8
44
 10
0.331250
 20
0.656250
 30
0.000000
 40
0.009843
  0
INSERT
  8
18
  2
ROUNDV
 10
0.237500
 20
0.650000
 30
0.000000
 41
0.035685
 42
0.035685
 43
1.000000
 50
0.000000
  0
INSERT
  8
18
  2
ROUNDV
 10
0.237500
 20
0.650000
 30
0.000000
 41
0.035685
 42
0.035685
 43
1.000000
 50
0.000000
  0
CIRCLE
  8
44
 10
0.237500
 20
0.650000
 30
0.000000
 40
0.009843
  0
INSERT
  8
18
  2
ROUNDV
 10
0.881250
 20
0.443750
 30
0.000000
 41
0.035685
 42
0.035685
 43
1.000000
 50
0.000000
  0
INSERT
  8
18
  2
ROUNDV
 10
0.881250
 20
0.443750
 30
0.000000
 41
0.035685
 42
0.035685
 43
1.000000
 50
0.000000
  0
CIRCLE
  8
44
 10
0.881250
 20
0.443750
 30
0.000000
 40
0.009843
  0
INSERT
  8
18
  2
ROUNDV
 10
0.262500
 20
0.231250
 30
0.000000
 41
0.035685
 42
0.035685
 43
1.000000
 50
0.000000
  0
INSERT
  8
18
  2
ROUNDV
 10
0.262500
 20
0.231250
 30
0.000000
 41
0.035685
 42
0.035685
 43
1.000000
 50
0.000000
  0
CIRCLE
  8
44
 10
0.262500
 20
0.231250
 30
0.000000
 40
0.009843
  0
INSERT
  8
18
  2
ROUNDV
 10
0.368750
 20
0.193750
 30
0.000000
 41
0.035685
 42
0.035685
 43
1.000000
 50
0.000000
  0
INSERT
  8
18
  2
ROUNDV
 10
0.368750
 20
0.193750
 30
0.000000
 41
0.035685
 42
0.035685
 43
1.000000
 50
0.000000
  0
CIRCLE
  8
44
 10
0.368750
 20
0.193750
 30
0.000000
 40
0.009843
  0
INSERT
  8
18
  2
ROUNDV
 10
0.693750
 20
0.450000
 30
0.000000
 41
0.035685
 42
0.035685
 43
1.000000
 50
0.000000
  0
INSERT
  8
18
  2
ROUNDV
 10
0.693750
 20
0.450000
 30
0.000000
 41
0.035685
 42
0.035685
 43
1.000000
 50
0.000000
  0
CIRCLE
  8
44
 10
0.693750
 20
0.450000
 30
0.000000
 40
0.009843
  0
INSERT
  8
18
  2
ROUNDV
 10
0.231250
 20
0.375000
 30
0.000000
 41
0.035685
 42
0.035685
 43
1.000000
 50
0.000000
  0
INSERT
  8
18
  2
ROUNDV
 10
0.231250
 20
0.375000
 30
0.000000
 41
0.035685
 42
0.035685
 43
1.000000
 50
0.000000
  0
CIRCLE
  8
44
 10
0.231250
 20
0.375000
 30
0.000000
 40
0.009843
  0
INSERT
  8
18
  2
ROUNDV
 10
0.231250
 20
0.475000
 30
0.000000
 41
0.035685
 42
0.035685
 43
1.000000
 50
0.000000
  0
INSERT
  8
18
  2
ROUNDV
 10
0.231250
 20
0.475000
 30
0.000000
 41
0.035685
 42
0.035685
 43
1.000000
 50
0.000000
  0
CIRCLE
  8
44
 10
0.231250
 20
0.475000
 30
0.000000
 40
0.009843
  0
LINE
  8
1
 10
0.229035
 20
0.062500
 30
0.000000
 11
0.229035
 21
0.143750
 31
0.000000
  0
LINE
  8
1
 10
0.229035
 20
0.143750
 30
0.000000
 11
0.229035
 21
0.193750
 31
0.000000
  0
LINE
  8
16
 10
0.229035
 20
0.193750
 30
0.000000
 11
0.112500
 21
0.193750
 31
0.000000
  0
LINE
  8
16
 10
0.112500
 20
0.193750
 30
0.000000
 11
0.075000
 21
0.225000
 31
0.000000
  0
LINE
  8
16
 10
0.075000
 20
0.225000
 30
0.000000
 11
0.075000
 21
0.337500
 31
0.000000
  0
LINE
  8
16
 10
0.075000
 20
0.337500
 30
0.000000
 11
0.112500
 21
0.375000
 31
0.000000
  0
LINE
  8
16
 10
0.112500
 20
0.375000
 30
0.000000
 11
0.162500
 21
0.375000
 31
0.000000
  0
INSERT
  8
18
  2
ROUNDV
 10
0.229035
 20
0.193750
 30
0.000000
 41
0.035685
 42
0.035685
 43
1.000000
 50
0.000000
  0
INSERT
  8
18
  2
ROUNDV
 10
0.229035
 20
0.193750
 30
0.000000
 41
0.035685
 42
0.035685
 43
1.000000
 50
0.000000
  0
CIRCLE
  8
44
 10
0.229035
 20
0.193750
 30
0.000000
 40
0.009843
  0
LINE
  8
1
 10
0.229035
 20
0.787500
 30
0.000000
 11
0.229035
 21
0.700000
 31
0.000000
  0
LINE
  8
1
 10
0.229035
 20
0.700000
 30
0.000000
 11
0.191535
 21
0.662500
 31
0.000000
  0
LINE
  8
16
 10
0.191535
 20
0.662500
 30
0.000000
 11
0.112500
 21
0.662500
 31
0.000000
  0
LINE
  8
16
 10
0.112500
 20
0.662500
 30
0.000000
 11
0.075000
 21
0.625000
 31
0.000000
  0
LINE
  8
16
 10
0.075000
 20
0.625000
 30
0.000000
 11
0.075000
 21
0.512500
 31
0.000000
  0
LINE
  8
16
 10
0.075000
 20
0.512500
 30
0.000000
 11
0.112500
 21
0.475000
 31
0.000000
  0
LINE
  8
16
 10
0.112500
 20
0.475000
 30
0.000000
 11
0.162500
 21
0.475000
 31
0.000000
  0
INSERT
  8
18
  2
ROUNDV
 10
0.191535
 20
0.662500
 30
0.000000
 41
0.035685
 42
0.035685
 43
1.000000
 50
0.000000
  0
INSERT
  8
18
  2
ROUNDV
 10
0.191535
 20
0.662500
 30
0.000000
 41
0.035685
 42
0.035685
 43
1.000000
 50
0.000000
  0
CIRCLE
  8
44
 10
0.191535
 20
0.662500
 30
0.000000
 40
0.009843
  0
LINE
  8
1
 10
0.856348
 20
0.137500
 30
0.000000
 11
0.818750
 21
0.137500
 31
0.000000
  0
LINE
  8
1
 10
0.818750
 20
0.137500
 30
0.000000
 11
0.797785
 21
0.158465
 31
0.000000
  0
LINE
  8
1
 10
0.797785
 20
0.158465
 30
0.000000
 11
0.762500
 21
0.158465
 31
0.000000
  0
LINE
  8
1
 10
0.620965
 20
0.237500
 30
0.000000
 11
0.675000
 21
0.237500
 31
0.000000
  0
LINE
  8
1
 10
0.675000
 20
0.237500
 30
0.000000
 11
0.729035
 21
0.237500
 31
0.000000
  0
LINE
  8
1
 10
0.675000
 20
0.329232
 30
0.000000
 11
0.675000
 21
0.237500
 31
0.000000
  0
LINE
  8
1
 10
0.675000
 20
0.329232
 30
0.000000
 11
0.675000
 21
0.362500
 31
0.000000
  0
LINE
  8
1
 10
0.675000
 20
0.362500
 30
0.000000
 11
0.654035
 21
0.383465
 31
0.000000
  0
LINE
  8
1
 10
0.654035
 20
0.383465
 30
0.000000
 11
0.475000
 21
0.383465
 31
0.000000
  0
LINE
  8
1
 10
0.575000
 20
0.329232
 30
0.000000
 11
0.574803
 21
0.316535
 31
0.000000
  0
LINE
  8
1
 10
0.574803
 20
0.316535
 30
0.000000
 11
0.475000
 21
0.316535
 31
0.000000
  0
LINE
  8
1
 10
0.475000
 20
0.316535
 30
0.000000
 11
0.470965
 21
0.325000
 31
0.000000
  0
LINE
  8
1
 10
0.416535
 20
0.237500
 30
0.000000
 11
0.416535
 21
0.150000
 31
0.000000
  0
LINE
  8
1
 10
0.470965
 20
0.325000
 30
0.000000
 11
0.462500
 21
0.316535
 31
0.000000
  0
LINE
  8
1
 10
0.462500
 20
0.316535
 30
0.000000
 11
0.445571
 21
0.316535
 31
0.000000
  0
LINE
  8
1
 10
0.416535
 20
0.287500
 30
0.000000
 11
0.416535
 21
0.237500
 31
0.000000
  0
LINE
  8
1
 10
0.416535
 20
0.287500
 30
0.000000
 11
0.445571
 21
0.316535
 31
0.000000
  0
LINE
  8
1
 10
0.462500
 20
0.316535
 30
0.000000
 11
0.475000
 21
0.316535
 31
0.000000
  0
LINE
  8
1
 10
0.295965
 20
0.143750
 30
0.000000
 11
0.300000
 21
0.154035
 31
0.000000
  0
LINE
  8
1
 10
0.300000
 20
0.154035
 30
0.000000
 11
0.300000
 21
0.193750
 31
0.000000
  0
LINE
  8
1
 10
0.362500
 20
0.237500
 30
0.000000
 11
0.416535
 21
0.237500
 31
0.000000
  0
LINE
  8
16
 10
0.300000
 20
0.193750
 30
0.000000
 11
0.300000
 21
0.225000
 31
0.000000
  0
LINE
  8
16
 10
0.300000
 20
0.225000
 30
0.000000
 11
0.312500
 21
0.237500
 31
0.000000
  0
LINE
  8
16
 10
0.312500
 20
0.237500
 30
0.000000
 11
0.362500
 21
0.237500
 31
0.000000
  0
INSERT
  8
18
  2
ROUNDV
 10
0.300000
 20
0.193750
 30
0.000000
 41
0.035685
 42
0.035685
 43
1.000000
 50
0.000000
  0
INSERT
  8
18
  2
ROUNDV
 10
0.300000
 20
0.193750
 30
0.000000
 41
0.035685
 42
0.035685
 43
1.000000
 50
0.000000
  0
CIRCLE
  8
44
 10
0.300000
 20
0.193750
 30
0.000000
 40
0.009843
  0
INSERT
  8
18
  2
ROUNDV
 10
0.362500
 20
0.237500
 30
0.000000
 41
0.035685
 42
0.035685
 43
1.000000
 50
0.000000
  0
INSERT
  8
18
  2
ROUNDV
 10
0.362500
 20
0.237500
 30
0.000000
 41
0.035685
 42
0.035685
 43
1.000000
 50
0.000000
  0
CIRCLE
  8
44
 10
0.362500
 20
0.237500
 30
0.000000
 40
0.009843
  0
LINE
  8
16
 10
1.087500
 20
0.370866
 30
0.000000
 11
1.070866
 21
0.387500
 31
0.000000
  0
LINE
  8
16
 10
1.070866
 20
0.387500
 30
0.000000
 11
1.012500
 21
0.387500
 31
0.000000
  0
LINE
  8
1
 10
1.104035
 20
0.387500
 30
0.000000
 11
1.012500
 21
0.387500
 31
0.000000
  0
LINE
  8
1
 10
1.012500
 20
0.387500
 30
0.000000
 11
1.008465
 21
0.383465
 31
0.000000
  0
LINE
  8
1
 10
1.008465
 20
0.383465
 30
0.000000
 11
0.937500
 21
0.383465
 31
0.000000
  0
INSERT
  8
18
  2
ROUNDV
 10
1.012500
 20
0.387500
 30
0.000000
 41
0.035685
 42
0.035685
 43
1.000000
 50
0.000000
  0
INSERT
  8
18
  2
ROUNDV
 10
1.012500
 20
0.387500
 30
0.000000
 41
0.035685
 42
0.035685
 43
1.000000
 50
0.000000
  0
CIRCLE
  8
44
 10
1.012500
 20
0.387500
 30
0.000000
 40
0.009843
  0
LINE
  8
1
 10
0.766535
 20
0.625000
 30
0.000000
 11
0.725000
 21
0.625000
 31
0.000000
  0
LINE
  8
1
 10
0.725000
 20
0.625000
 30
0.000000
 11
0.683465
 21
0.625000
 31
0.000000
  0
LINE
  8
1
 10
0.725000
 20
0.545768
 30
0.000000
 11
0.725000
 21
0.625000
 31
0.000000
  0
LINE
  8
1
 10
0.683465
 20
0.625000
 30
0.000000
 11
0.650000
 21
0.591535
 31
0.000000
  0
LINE
  8
1
 10
0.650000
 20
0.591535
 30
0.000000
 11
0.650000
 21
0.506250
 31
0.000000
  0
LINE
  8
1
 10
0.650000
 20
0.506250
 30
0.000000
 11
0.622785
 21
0.479035
 31
0.000000
  0
LINE
  8
1
 10
0.622785
 20
0.479035
 30
0.000000
 11
0.475000
 21
0.479035
 31
0.000000
  0
LINE
  8
1
 10
0.625000
 20
0.545768
 30
0.000000
 11
0.625000
 21
0.512500
 31
0.000000
  0
LINE
  8
1
 10
0.625000
 20
0.512500
 30
0.000000
 11
0.612500
 21
0.500000
 31
0.000000
  0
LINE
  8
1
 10
0.475000
 20
0.545965
 30
0.000000
 11
0.387500
 21
0.545965
 31
0.000000
  0
LINE
  8
1
 10
0.612500
 20
0.500000
 30
0.000000
 11
0.550000
 21
0.500000
 31
0.000000
  0
LINE
  8
1
 10
0.550000
 20
0.500000
 30
0.000000
 11
0.504035
 21
0.545965
 31
0.000000
  0
LINE
  8
1
 10
0.504035
 20
0.545965
 30
0.000000
 11
0.475000
 21
0.545965
 31
0.000000
  0
LINE
  8
1
 10
0.387500
 20
0.545965
 30
0.000000
 11
0.387500
 21
0.600000
 31
0.000000
  0
LINE
  8
1
 10
0.387500
 20
0.600000
 30
0.000000
 11
0.404035
 21
0.616535
 31
0.000000
  0
LINE
  8
1
 10
0.404035
 20
0.616535
 30
0.000000
 11
0.450000
 21
0.616535
 31
0.000000
  0
LINE
  8
16
 10
0.387500
 20
0.600000
 30
0.000000
 11
0.387500
 21
0.662500
 31
0.000000
  0
LINE
  8
16
 10
0.387500
 20
0.662500
 30
0.000000
 11
0.350000
 21
0.700000
 31
0.000000
  0
LINE
  8
1
 10
0.350000
 20
0.700000
 30
0.000000
 11
0.295965
 21
0.700000
 31
0.000000
  0
INSERT
  8
18
  2
ROUNDV
 10
0.387500
 20
0.600000
 30
0.000000
 41
0.035685
 42
0.035685
 43
1.000000
 50
0.000000
  0
INSERT
  8
18
  2
ROUNDV
 10
0.387500
 20
0.600000
 30
0.000000
 41
0.035685
 42
0.035685
 43
1.000000
 50
0.000000
  0
CIRCLE
  8
44
 10
0.387500
 20
0.600000
 30
0.000000
 40
0.009843
  0
INSERT
  8
18
  2
ROUNDV
 10
0.350000
 20
0.700000
 30
0.000000
 41
0.035685
 42
0.035685
 43
1.000000
 50
0.000000
  0
INSERT
  8
18
  2
ROUNDV
 10
0.350000
 20
0.700000
 30
0.000000
 41
0.035685
 42
0.035685
 43
1.000000
 50
0.000000
  0
CIRCLE
  8
44
 10
0.350000
 20
0.700000
 30
0.000000
 40
0.009843
  0
LINE
  8
16
 10
1.087500
 20
0.545866
 30
0.000000
 11
1.070866
 21
0.562500
 31
0.000000
  0
LINE
  8
16
 10
1.070866
 20
0.562500
 30
0.000000
 11
1.012500
 21
0.562500
 31
0.000000
  0
LINE
  8
1
 10
1.104035
 20
0.562500
 30
0.000000
 11
1.012500
 21
0.562500
 31
0.000000
  0
LINE
  8
1
 10
1.004035
 20
0.650000
 30
0.000000
 11
1.012500
 21
0.641535
 31
0.000000
  0
LINE
  8
1
 10
1.012500
 20
0.641535
 30
0.000000
 11
1.012500
 21
0.562500
 31
0.000000
  0
INSERT
  8
18
  2
ROUNDV
 10
1.012500
 20
0.562500
 30
0.000000
 41
0.035685
 42
0.035685
 43
1.000000
 50
0.000000
  0
INSERT
  8
18
  2
ROUNDV
 10
1.012500
 20
0.562500
 30
0.000000
 41
0.035685
 42
0.035685
 43
1.000000
 50
0.000000
  0
CIRCLE
  8
44
 10
1.012500
 20
0.562500
 30
0.000000
 40
0.009843
  0
LINE
  8
1
 10
0.000000
 20
0.850000
 30
0.000000
 11
1.312500
 21
0.850000
 31
0.000000
  0
LINE
  8
1
 10
1.312500
 20
0.850000
 30
0.000000
 11
1.312500
 21
0.000000
 31
0.000000
  0
LINE
  8
1
 10
1.312500
 20
0.000000
 30
0.000000
 11
0.000000
 21
0.000000
 31
0.000000
  0
LINE
  8
1
 10
0.000000
 20
0.000000
 30
0.000000
 11
0.000000
 21
0.850000
 31
0.000000
  0
LINE
  8
1
 10
0.562500
 20
0.575000
 30
0.000000
 11
0.562500
 21
0.600000
 31
0.000000
  0
LINE
  8
1
 10
0.562500
 20
0.600000
 30
0.000000
 11
0.587500
 21
0.600000
 31
0.000000
  0
LINE
  8
1
 10
0.587500
 20
0.600000
 30
0.000000
 11
0.587500
 21
0.550000
 31
0.000000
  0
LINE
  8
1
 10
0.587500
 20
0.550000
 30
0.000000
 11
0.562500
 21
0.550000
 31
0.000000
  0
LINE
  8
1
 10
0.562500
 20
0.550000
 30
0.000000
 11
0.562500
 21
0.575000
 31
0.000000
  0
LINE
  8
16
 10
1.245374
 20
0.300000
 30
0.000000
 11
1.207874
 21
0.262500
 31
0.000000
  0
LINE
  8
16
 10
1.207874
 20
0.262500
 30
0.000000
 11
1.037500
 21
0.262500
 31
0.000000
  0
LINE
  8
16
 10
1.037500
 20
0.262500
 30
0.000000
 11
1.012500
 21
0.287500
 31
0.000000
  0
LINE
  8
16
 10
1.012500
 20
0.287500
 30
0.000000
 11
1.012500
 21
0.300000
 31
0.000000
  0
LINE
  8
1
 10
1.104035
 20
0.300000
 30
0.000000
 11
1.012500
 21
0.300000
 31
0.000000
  0
LINE
  8
1
 10
1.004035
 20
0.200000
 30
0.000000
 11
0.600000
 21
0.200000
 31
0.000000
  0
LINE
  8
1
 10
0.600000
 20
0.200000
 30
0.000000
 11
0.587500
 21
0.212500
 31
0.000000
  0
LINE
  8
1
 10
0.587500
 20
0.212500
 30
0.000000
 11
0.587500
 21
0.275000
 31
0.000000
  0
LINE
  8
1
 10
0.587500
 20
0.275000
 30
0.000000
 11
0.625000
 21
0.312500
 31
0.000000
  0
LINE
  8
1
 10
0.625000
 20
0.312500
 30
0.000000
 11
0.625000
 21
0.329232
 31
0.000000
  0
LINE
  8
1
 10
0.587500
 20
0.275000
 30
0.000000
 11
0.500000
 21
0.275000
 31
0.000000
  0
LINE
  8
1
 10
0.500000
 20
0.275000
 30
0.000000
 11
0.483465
 21
0.258465
 31
0.000000
  0
LINE
  8
1
 10
0.483465
 20
0.258465
 30
0.000000
 11
0.483465
 21
0.237500
 31
0.000000
  0
LINE
  8
1
 10
1.004035
 20
0.200000
 30
0.000000
 11
1.012500
 21
0.208465
 31
0.000000
  0
LINE
  8
1
 10
1.012500
 20
0.208465
 30
0.000000
 11
1.012500
 21
0.300000
 31
0.000000
  0
INSERT
  8
18
  2
ROUNDV
 10
1.012500
 20
0.300000
 30
0.000000
 41
0.035685
 42
0.035685
 43
1.000000
 50
0.000000
  0
INSERT
  8
18
  2
ROUNDV
 10
1.012500
 20
0.300000
 30
0.000000
 41
0.035685
 42
0.035685
 43
1.000000
 50
0.000000
  0
CIRCLE
  8
44
 10
1.012500
 20
0.300000
 30
0.000000
 40
0.009843
  0
LINE
  8
16
 10
1.245374
 20
0.475000
 30
0.000000
 11
1.207874
 21
0.437500
 31
0.000000
  0
LINE
  8
16
 10
1.207874
 20
0.437500
 30
0.000000
 11
1.037500
 21
0.437500
 31
0.000000
  0
LINE
  8
16
 10
1.037500
 20
0.437500
 30
0.000000
 11
1.012500
 21
0.462500
 31
0.000000
  0
LINE
  8
16
 10
1.012500
 20
0.462500
 30
0.000000
 11
1.012500
 21
0.475000
 31
0.000000
  0
LINE
  8
1
 10
1.104035
 20
0.475000
 30
0.000000
 11
1.012500
 21
0.475000
 31
0.000000
  0
LINE
  8
1
 10
0.675000
 20
0.487500
 30
0.000000
 11
0.675000
 21
0.545768
 31
0.000000
  0
LINE
  8
1
 10
0.675000
 20
0.487500
 30
0.000000
 11
0.631250
 21
0.443750
 31
0.000000
  0
LINE
  8
1
 10
0.631250
 20
0.443750
 30
0.000000
 11
0.406250
 21
0.443750
 31
0.000000
  0
LINE
  8
1
 10
0.406250
 20
0.443750
 30
0.000000
 11
0.387500
 21
0.462500
 31
0.000000
  0
LINE
  8
1
 10
0.387500
 20
0.462500
 30
0.000000
 11
0.387500
 21
0.479035
 31
0.000000
  0
LINE
  8
1
 10
1.012500
 20
0.475000
 30
0.000000
 11
1.008465
 21
0.479035
 31
0.000000
  0
LINE
  8
1
 10
1.008465
 20
0.479035
 30
0.000000
 11
0.937500
 21
0.479035
 31
0.000000
  0
LINE
  8
16
 10
0.879035
 20
0.487500
 30
0.000000
 11
0.675000
 21
0.487500
 31
0.000000
  0
LINE
  8
1
 10
0.937500
 20
0.479035
 30
0.000000
 11
0.929035
 21
0.487500
 31
0.000000
  0
LINE
  8
1
 10
0.929035
 20
0.487500
 30
0.000000
 11
0.879035
 21
0.487500
 31
0.000000
  0
INSERT
  8
18
  2
ROUNDV
 10
1.012500
 20
0.475000
 30
0.000000
 41
0.035685
 42
0.035685
 43
1.000000
 50
0.000000
  0
INSERT
  8
18
  2
ROUNDV
 10
1.012500
 20
0.475000
 30
0.000000
 41
0.035685
 42
0.035685
 43
1.000000
 50
0.000000
  0
CIRCLE
  8
44
 10
1.012500
 20
0.475000
 30
0.000000
 40
0.009843
  0
INSERT
  8
18
  2
ROUNDV
 10
0.879035
 20
0.487500
 30
0.000000
 41
0.035685
 42
0.035685
 43
1.000000
 50
0.000000
  0
INSERT
  8
18
  2
ROUNDV
 10
0.879035
 20
0.487500
 30
0.000000
 41
0.035685
 42
0.035685
 43
1.000000
 50
0.000000
  0
CIRCLE
  8
44
 10
0.879035
 20
0.487500
 30
0.000000
 40
0.009843
  0
INSERT
  8
18
  2
ROUNDV
 10
0.675000
 20
0.487500
 30
0.000000
 41
0.035685
 42
0.035685
 43
1.000000
 50
0.000000
  0
INSERT
  8
18
  2
ROUNDV
 10
0.675000
 20
0.487500
 30
0.000000
 41
0.035685
 42
0.035685
 43
1.000000
 50
0.000000
  0
CIRCLE
  8
44
 10
0.675000
 20
0.487500
 30
0.000000
 40
0.009843
  0
ENDSEC
  0
EOF
