  0
SECTION
  2
HEADER
  9
$ACADVER
  1
AC1009
  9
$FILLMODE
 70
0
  9
$EXTMIN
 10
-1.3805
 20
-0.8255
 30
0.0000
  9
$EXTMAX
 10
38.5070
 20
21.7932
 30
0.0000
  0
ENDSEC
  0
SECTION
  2
TABLES
  0
TABLE
  2
LTYPE
 70
1
  0
LTYPE
  2
CONTINUOUS
 70
64
  3
Solid line
 72
65
 73
0
 40
0
  0
ENDTAB
  0
TABLE
  2
LAYER
 70
255
  0
LAYER
  2
1
 70
64
 62
22
  6
CONTINUOUS
  0
LAYER
  2
16
 70
64
 62
175
  6
CONTINUOUS
  0
LAYER
  2
17
 70
64
 62
82
  6
CONTINUOUS
  0
LAYER
  2
18
 70
64
 62
82
  6
CONTINUOUS
  0
LAYER
  2
19
 70
64
 62
53
  6
CONTINUOUS
  0
LAYER
  2
20
 70
64
 62
7
  6
CONTINUOUS
  0
LAYER
  2
21
 70
64
 62
253
  6
CONTINUOUS
  0
LAYER
  2
22
 70
64
 62
253
  6
CONTINUOUS
  0
LAYER
  2
23
 70
64
 62
7
  6
CONTINUOUS
  0
LAYER
  2
24
 70
64
 62
7
  6
CONTINUOUS
  0
LAYER
  2
25
 70
64
 62
253
  6
CONTINUOUS
  0
LAYER
  2
26
 70
64
 62
253
  6
CONTINUOUS
  0
LAYER
  2
31
 70
64
 62
253
  6
CONTINUOUS
  0
LAYER
  2
32
 70
64
 62
253
  6
CONTINUOUS
  0
LAYER
  2
33
 70
64
 62
53
  6
CONTINUOUS
  0
LAYER
  2
34
 70
64
 62
53
  6
CONTINUOUS
  0
LAYER
  2
35
 70
64
 62
253
  6
CONTINUOUS
  0
LAYER
  2
36
 70
64
 62
253
  6
CONTINUOUS
  0
LAYER
  2
37
 70
64
 62
253
  6
CONTINUOUS
  0
LAYER
  2
38
 70
64
 62
253
  6
CONTINUOUS
  0
LAYER
  2
39
 70
64
 62
22
  6
CONTINUOUS
  0
LAYER
  2
40
 70
64
 62
175
  6
CONTINUOUS
  0
LAYER
  2
41
 70
64
 62
22
  6
CONTINUOUS
  0
LAYER
  2
42
 70
64
 62
175
  6
CONTINUOUS
  0
LAYER
  2
43
 70
64
 62
82
  6
CONTINUOUS
  0
LAYER
  2
44
 70
64
 62
253
  6
CONTINUOUS
  0
LAYER
  2
45
 70
64
 62
253
  6
CONTINUOUS
  0
LAYER
  2
46
 70
64
 62
140
  6
CONTINUOUS
  0
LAYER
  2
47
 70
64
 62
253
  6
CONTINUOUS
  0
LAYER
  2
48
 70
64
 62
253
  6
CONTINUOUS
  0
LAYER
  2
49
 70
64
 62
253
  6
CONTINUOUS
  0
LAYER
  2
51
 70
64
 62
253
  6
CONTINUOUS
  0
LAYER
  2
52
 70
64
 62
253
  6
CONTINUOUS
  0
ENDTAB
  0
ENDSEC
  0
SECTION
  2
BLOCKS
  0
BLOCK
  8
0
  2
RECT
 70
64
 10
0.0000
 20
0.0000
 30
0.0000
  3
RECT
  0
SOLID
  8
0
 10
-0.5000
 20
-0.5000
 30
0.0000
 11
0.5000
 21
-0.5000
 31
0.0000
 12
-0.5000
 22
0.5000
 32
0.0000
 13
0.5000
 23
0.5000
 33
0.0000
  0
ENDBLK
  8
0
  0
BLOCK
  8
0
  2
PIE
 70
64
 10
0.0000
 20
0.0000
 30
0.0000
  3
PIE
  0
CIRCLE
  8
0
 10
0.0000
 20
0.0000
 30
0.0000
 40
0.5000
  0
ENDBLK
  8
0
  0
BLOCK
  8
0
  2
OCTAGONP
 70
64
 10
0.0000
 20
0.0000
 30
0.0000
  3
OCTAGONP
  0
POLYLINE
  8
0
 66
1
 10
0.0000
 20
0.0000
 30
0.0000
 40
0.0000
 41
0.0000
 70
1
  0
VERTEX
  8
0
 10
-0.5000
 20
-0.2071
 30
0.0000
  0
VERTEX
  8
0
 10
-0.5000
 20
0.2071
 30
0.0000
  0
VERTEX
  8
0
 10
-0.2071
 20
0.5000
 30
0.0000
  0
VERTEX
  8
0
 10
0.2071
 20
0.5000
 30
0.0000
  0
VERTEX
  8
0
 10
0.5000
 20
0.2071
 30
0.0000
  0
VERTEX
  8
0
 10
0.5000
 20
-0.2071
 30
0.0000
  0
VERTEX
  8
0
 10
0.2071
 20
-0.5000
 30
0.0000
  0
VERTEX
  8
0
 10
-0.2071
 20
-0.5000
 30
0.0000
  0
SEQEND
  8
0
  0
ENDBLK
  8
0
  0
BLOCK
  8
0
  2
SQUAREP
 70
64
 10
0.0000
 20
0.0000
 30
0.0000
  3
SQUAREP
  0
SOLID
  8
0
 10
-0.5000
 20
-0.5000
 30
0.0000
 11
0.5000
 21
-0.5000
 31
0.0000
 12
-0.5000
 22
0.5000
 32
0.0000
 13
0.5000
 23
0.5000
 33
0.0000
  0
ENDBLK
  8
0
  0
BLOCK
  8
0
  2
ROUNDP
 70
64
 10
0.0000
 20
0.0000
 30
0.0000
  3
ROUNDP
  0
CIRCLE
  8
0
 10
0.0000
 20
0.0000
 30
0.0000
 40
0.5000
  0
ENDBLK
  8
0
  0
BLOCK
  8
0
  2
ANNULUSP
 70
64
 10
0.0000
 20
0.0000
 30
0.0000
  3
ANNULUSP
  0
CIRCLE
  8
0
 10
0.0000
 20
0.0000
 30
0.0000
 40
0.5000
  0
ENDBLK
  8
0
  0
BLOCK
  8
0
  2
THERMALP
 70
64
 10
0.0000
 20
0.0000
 30
0.0000
  3
THERMALP
  0
LINE
  8
0
 10
-0.2379
 20
0.4500
 30
0.0000
 11
0.2379
 21
0.4500
 31
0.0000
  0
LINE
  8
0
 10
0.4500
 20
0.2379
 30
0.0000
 11
0.4500
 21
-0.2379
 31
0.0000
  0
LINE
  8
0
 10
0.2379
 20
-0.4500
 30
0.0000
 11
-0.2379
 21
-0.4500
 31
0.0000
  0
LINE
  8
0
 10
-0.4500
 20
-0.2379
 30
0.0000
 11
-0.4500
 21
0.2379
 31
0.0000
  0
ENDBLK
  8
0
  0
BLOCK
  8
0
  2
OCTAGONV
 70
64
 10
0.0000
 20
0.0000
 30
0.0000
  3
OCTAGONV
  0
POLYLINE
  8
0
 66
1
 10
0.0000
 20
0.0000
 30
0.0000
 40
0.0000
 41
0.0000
 70
1
  0
VERTEX
  8
0
 10
-0.5000
 20
-0.2071
 30
0.0000
  0
VERTEX
  8
0
 10
-0.5000
 20
0.2071
 30
0.0000
  0
VERTEX
  8
0
 10
-0.2071
 20
0.5000
 30
0.0000
  0
VERTEX
  8
0
 10
0.2071
 20
0.5000
 30
0.0000
  0
VERTEX
  8
0
 10
0.5000
 20
0.2071
 30
0.0000
  0
VERTEX
  8
0
 10
0.5000
 20
-0.2071
 30
0.0000
  0
VERTEX
  8
0
 10
0.2071
 20
-0.5000
 30
0.0000
  0
VERTEX
  8
0
 10
-0.2071
 20
-0.5000
 30
0.0000
  0
SEQEND
  8
0
  0
ENDBLK
  8
0
  0
BLOCK
  8
0
  2
SQUAREV
 70
64
 10
0.0000
 20
0.0000
 30
0.0000
  3
SQUAREV
  0
SOLID
  8
0
 10
-0.5000
 20
-0.5000
 30
0.0000
 11
0.5000
 21
-0.5000
 31
0.0000
 12
-0.5000
 22
0.5000
 32
0.0000
 13
0.5000
 23
0.5000
 33
0.0000
  0
ENDBLK
  8
0
  0
BLOCK
  8
0
  2
ROUNDV
 70
64
 10
0.0000
 20
0.0000
 30
0.0000
  3
ROUNDV
  0
CIRCLE
  8
0
 10
0.0000
 20
0.0000
 30
0.0000
 40
0.5000
  0
ENDBLK
  8
0
  0
BLOCK
  8
0
  2
ANNULUSV
 70
64
 10
0.0000
 20
0.0000
 30
0.0000
  3
ANNULUSV
  0
CIRCLE
  8
0
 10
0.0000
 20
0.0000
 30
0.0000
 40
0.5000
  0
ENDBLK
  8
0
  0
BLOCK
  8
0
  2
THERMALV
 70
64
 10
0.0000
 20
0.0000
 30
0.0000
  3
THERMALV
  0
LINE
  8
0
 10
-0.2379
 20
0.4500
 30
0.0000
 11
0.2379
 21
0.4500
 31
0.0000
  0
LINE
  8
0
 10
0.4500
 20
0.2379
 30
0.0000
 11
0.4500
 21
-0.2379
 31
0.0000
  0
LINE
  8
0
 10
0.2379
 20
-0.4500
 30
0.0000
 11
-0.2379
 21
-0.4500
 31
0.0000
  0
LINE
  8
0
 10
-0.4500
 20
-0.2379
 30
0.0000
 11
-0.4500
 21
0.2379
 31
0.0000
  0
ENDBLK
  8
0
  0
ENDSEC
  0
SECTION
  2
ENTITIES
  0
LINE
  8
20
 10
0.0000
 20
0.0000
 30
0.0000
 11
33.3375
 21
0.0000
 31
0.0000
  0
LINE
  8
20
 10
33.3375
 20
0.0000
 30
0.0000
 11
33.3375
 21
21.5900
 31
0.0000
  0
LINE
  8
20
 10
33.3375
 20
21.5900
 30
0.0000
 11
0.0000
 21
21.5900
 31
0.0000
  0
LINE
  8
20
 10
0.0000
 20
21.5900
 30
0.0000
 11
0.0000
 21
0.0000
 31
0.0000
  0
LINE
  8
21
 10
10.3775
 20
20.9052
 30
0.0000
 11
10.3775
 21
20.1256
 31
0.0000
  0
LINE
  8
21
 10
10.3775
 20
20.1256
 30
0.0000
 11
10.7673
 21
19.7358
 31
0.0000
  0
LINE
  8
21
 10
10.7673
 20
19.7358
 30
0.0000
 11
11.1571
 21
20.1256
 31
0.0000
  0
LINE
  8
21
 10
11.1571
 20
20.1256
 30
0.0000
 11
11.1571
 21
20.9052
 31
0.0000
  0
LINE
  8
21
 10
12.1316
 20
19.7358
 30
0.0000
 11
11.7418
 21
19.7358
 31
0.0000
  0
LINE
  8
21
 10
11.7418
 20
19.7358
 30
0.0000
 11
11.5469
 21
19.9307
 31
0.0000
  0
LINE
  8
21
 10
11.5469
 20
19.9307
 30
0.0000
 11
11.5469
 21
20.3205
 31
0.0000
  0
LINE
  8
21
 10
11.5469
 20
20.3205
 30
0.0000
 11
11.7418
 21
20.5154
 31
0.0000
  0
LINE
  8
21
 10
11.7418
 20
20.5154
 30
0.0000
 11
12.1316
 21
20.5154
 31
0.0000
  0
LINE
  8
21
 10
12.1316
 20
20.5154
 30
0.0000
 11
12.3265
 21
20.3205
 31
0.0000
  0
LINE
  8
21
 10
12.3265
 20
20.3205
 30
0.0000
 11
12.3265
 21
20.1256
 31
0.0000
  0
LINE
  8
21
 10
12.3265
 20
20.1256
 30
0.0000
 11
11.5469
 21
20.1256
 31
0.0000
  0
LINE
  8
21
 10
12.7163
 20
20.9052
 30
0.0000
 11
12.9112
 21
20.9052
 31
0.0000
  0
LINE
  8
21
 10
12.9112
 20
20.9052
 30
0.0000
 11
12.9112
 21
19.7358
 31
0.0000
  0
LINE
  8
21
 10
12.7163
 20
19.7358
 30
0.0000
 11
13.1061
 21
19.7358
 31
0.0000
  0
LINE
  8
21
 10
13.6908
 20
19.7358
 30
0.0000
 11
14.0806
 21
19.7358
 31
0.0000
  0
LINE
  8
21
 10
14.0806
 20
19.7358
 30
0.0000
 11
14.2755
 21
19.9307
 31
0.0000
  0
LINE
  8
21
 10
14.2755
 20
19.9307
 30
0.0000
 11
14.2755
 21
20.3205
 31
0.0000
  0
LINE
  8
21
 10
14.2755
 20
20.3205
 30
0.0000
 11
14.0806
 21
20.5154
 31
0.0000
  0
LINE
  8
21
 10
14.0806
 20
20.5154
 30
0.0000
 11
13.6908
 21
20.5154
 31
0.0000
  0
LINE
  8
21
 10
13.6908
 20
20.5154
 30
0.0000
 11
13.4959
 21
20.3205
 31
0.0000
  0
LINE
  8
21
 10
13.4959
 20
20.3205
 30
0.0000
 11
13.4959
 21
19.9307
 31
0.0000
  0
LINE
  8
21
 10
13.4959
 20
19.9307
 30
0.0000
 11
13.6908
 21
19.7358
 31
0.0000
  0
LINE
  8
21
 10
15.4449
 20
20.5154
 30
0.0000
 11
14.8602
 21
20.5154
 31
0.0000
  0
LINE
  8
21
 10
14.8602
 20
20.5154
 30
0.0000
 11
14.6653
 21
20.3205
 31
0.0000
  0
LINE
  8
21
 10
14.6653
 20
20.3205
 30
0.0000
 11
14.6653
 21
19.9307
 31
0.0000
  0
LINE
  8
21
 10
14.6653
 20
19.9307
 30
0.0000
 11
14.8602
 21
19.7358
 31
0.0000
  0
LINE
  8
21
 10
14.8602
 20
19.7358
 30
0.0000
 11
15.4449
 21
19.7358
 31
0.0000
  0
LINE
  8
21
 10
15.8347
 20
20.5154
 30
0.0000
 11
16.0296
 21
20.5154
 31
0.0000
  0
LINE
  8
21
 10
16.0296
 20
20.5154
 30
0.0000
 11
16.0296
 21
19.7358
 31
0.0000
  0
LINE
  8
21
 10
15.8347
 20
19.7358
 30
0.0000
 11
16.2245
 21
19.7358
 31
0.0000
  0
LINE
  8
21
 10
16.0296
 20
21.1001
 30
0.0000
 11
16.0296
 21
20.9052
 31
0.0000
  0
LINE
  8
21
 10
16.8092
 20
20.7103
 30
0.0000
 11
16.8092
 21
19.9307
 31
0.0000
  0
LINE
  8
21
 10
16.8092
 20
19.9307
 30
0.0000
 11
17.0041
 21
19.7358
 31
0.0000
  0
LINE
  8
21
 10
16.6143
 20
20.5154
 30
0.0000
 11
17.0041
 21
20.5154
 31
0.0000
  0
LINE
  8
21
 10
17.3939
 20
20.5154
 30
0.0000
 11
17.3939
 21
19.9307
 31
0.0000
  0
LINE
  8
21
 10
17.3939
 20
19.9307
 30
0.0000
 11
17.5888
 21
19.7358
 31
0.0000
  0
LINE
  8
21
 10
17.5888
 20
19.7358
 30
0.0000
 11
18.1735
 21
19.7358
 31
0.0000
  0
LINE
  8
21
 10
18.1735
 20
20.5154
 30
0.0000
 11
18.1735
 21
19.5409
 31
0.0000
  0
LINE
  8
21
 10
18.1735
 20
19.5409
 30
0.0000
 11
17.9786
 21
19.3460
 31
0.0000
  0
LINE
  8
21
 10
17.9786
 20
19.3460
 30
0.0000
 11
17.7837
 21
19.3460
 31
0.0000
  0
LINE
  8
21
 10
19.7327
 20
19.7358
 30
0.0000
 11
19.7327
 21
20.9052
 31
0.0000
  0
LINE
  8
21
 10
19.7327
 20
20.9052
 30
0.0000
 11
20.3174
 21
20.9052
 31
0.0000
  0
LINE
  8
21
 10
20.3174
 20
20.9052
 30
0.0000
 11
20.5123
 21
20.7103
 31
0.0000
  0
LINE
  8
21
 10
20.5123
 20
20.7103
 30
0.0000
 11
20.5123
 21
20.3205
 31
0.0000
  0
LINE
  8
21
 10
20.5123
 20
20.3205
 30
0.0000
 11
20.3174
 21
20.1256
 31
0.0000
  0
LINE
  8
21
 10
20.3174
 20
20.1256
 30
0.0000
 11
19.7327
 21
20.1256
 31
0.0000
  0
LINE
  8
21
 10
20.1225
 20
20.1256
 30
0.0000
 11
20.5123
 21
19.7358
 31
0.0000
  0
LINE
  8
21
 10
21.0970
 20
19.7358
 30
0.0000
 11
21.4868
 21
19.7358
 31
0.0000
  0
LINE
  8
21
 10
21.4868
 20
19.7358
 30
0.0000
 11
21.6817
 21
19.9307
 31
0.0000
  0
LINE
  8
21
 10
21.6817
 20
19.9307
 30
0.0000
 11
21.6817
 21
20.3205
 31
0.0000
  0
LINE
  8
21
 10
21.6817
 20
20.3205
 30
0.0000
 11
21.4868
 21
20.5154
 31
0.0000
  0
LINE
  8
21
 10
21.4868
 20
20.5154
 30
0.0000
 11
21.0970
 21
20.5154
 31
0.0000
  0
LINE
  8
21
 10
21.0970
 20
20.5154
 30
0.0000
 11
20.9021
 21
20.3205
 31
0.0000
  0
LINE
  8
21
 10
20.9021
 20
20.3205
 30
0.0000
 11
20.9021
 21
19.9307
 31
0.0000
  0
LINE
  8
21
 10
20.9021
 20
19.9307
 30
0.0000
 11
21.0970
 21
19.7358
 31
0.0000
  0
LINE
  8
21
 10
22.0715
 20
20.9052
 30
0.0000
 11
22.0715
 21
19.7358
 31
0.0000
  0
LINE
  8
21
 10
22.0715
 20
19.7358
 30
0.0000
 11
22.6562
 21
19.7358
 31
0.0000
  0
LINE
  8
21
 10
22.6562
 20
19.7358
 30
0.0000
 11
22.8511
 21
19.9307
 31
0.0000
  0
LINE
  8
21
 10
22.8511
 20
19.9307
 30
0.0000
 11
22.8511
 21
20.3205
 31
0.0000
  0
LINE
  8
21
 10
22.8511
 20
20.3205
 30
0.0000
 11
22.6562
 21
20.5154
 31
0.0000
  0
LINE
  8
21
 10
22.6562
 20
20.5154
 30
0.0000
 11
22.0715
 21
20.5154
 31
0.0000
  0
LINE
  8
21
 10
23.4358
 20
19.7358
 30
0.0000
 11
23.8256
 21
19.7358
 31
0.0000
  0
LINE
  8
21
 10
23.8256
 20
19.7358
 30
0.0000
 11
24.0205
 21
19.9307
 31
0.0000
  0
LINE
  8
21
 10
24.0205
 20
19.9307
 30
0.0000
 11
24.0205
 21
20.3205
 31
0.0000
  0
LINE
  8
21
 10
24.0205
 20
20.3205
 30
0.0000
 11
23.8256
 21
20.5154
 31
0.0000
  0
LINE
  8
21
 10
23.8256
 20
20.5154
 30
0.0000
 11
23.4358
 21
20.5154
 31
0.0000
  0
LINE
  8
21
 10
23.4358
 20
20.5154
 30
0.0000
 11
23.2409
 21
20.3205
 31
0.0000
  0
LINE
  8
21
 10
23.2409
 20
20.3205
 30
0.0000
 11
23.2409
 21
19.9307
 31
0.0000
  0
LINE
  8
21
 10
23.2409
 20
19.9307
 30
0.0000
 11
23.4358
 21
19.7358
 31
0.0000
  0
LINE
  8
21
 10
24.6052
 20
20.7103
 30
0.0000
 11
24.6052
 21
19.9307
 31
0.0000
  0
LINE
  8
21
 10
24.6052
 20
19.9307
 30
0.0000
 11
24.8001
 21
19.7358
 31
0.0000
  0
LINE
  8
21
 10
24.4103
 20
20.5154
 30
0.0000
 11
24.8001
 21
20.5154
 31
0.0000
  0
LINE
  8
21
 10
25.1899
 20
20.5154
 30
0.0000
 11
25.3848
 21
20.5154
 31
0.0000
  0
LINE
  8
21
 10
25.3848
 20
20.5154
 30
0.0000
 11
25.3848
 21
19.7358
 31
0.0000
  0
LINE
  8
21
 10
25.1899
 20
19.7358
 30
0.0000
 11
25.5797
 21
19.7358
 31
0.0000
  0
LINE
  8
21
 10
25.3848
 20
21.1001
 30
0.0000
 11
25.3848
 21
20.9052
 31
0.0000
  0
LINE
  8
21
 10
26.7491
 20
20.5154
 30
0.0000
 11
26.1644
 21
20.5154
 31
0.0000
  0
LINE
  8
21
 10
26.1644
 20
20.5154
 30
0.0000
 11
25.9695
 21
20.3205
 31
0.0000
  0
LINE
  8
21
 10
25.9695
 20
20.3205
 30
0.0000
 11
25.9695
 21
19.9307
 31
0.0000
  0
LINE
  8
21
 10
25.9695
 20
19.9307
 30
0.0000
 11
26.1644
 21
19.7358
 31
0.0000
  0
LINE
  8
21
 10
26.1644
 20
19.7358
 30
0.0000
 11
26.7491
 21
19.7358
 31
0.0000
  0
LINE
  8
21
 10
27.1389
 20
19.7358
 30
0.0000
 11
27.7236
 21
19.7358
 31
0.0000
  0
LINE
  8
21
 10
27.7236
 20
19.7358
 30
0.0000
 11
27.9185
 21
19.9307
 31
0.0000
  0
LINE
  8
21
 10
27.9185
 20
19.9307
 30
0.0000
 11
27.7236
 21
20.1256
 31
0.0000
  0
LINE
  8
21
 10
27.7236
 20
20.1256
 30
0.0000
 11
27.3338
 21
20.1256
 31
0.0000
  0
LINE
  8
21
 10
27.3338
 20
20.1256
 30
0.0000
 11
27.1389
 21
20.3205
 31
0.0000
  0
LINE
  8
21
 10
27.1389
 20
20.3205
 30
0.0000
 11
27.3338
 21
20.5154
 31
0.0000
  0
LINE
  8
21
 10
27.3338
 20
20.5154
 30
0.0000
 11
27.9185
 21
20.5154
 31
0.0000
  0
LINE
  8
21
 10
9.7355
 20
1.5502
 30
0.0000
 11
9.7355
 21
0.6096
 31
0.0000
  0
LINE
  8
21
 10
9.7355
 20
0.6096
 30
0.0000
 11
10.2058
 21
0.6096
 31
0.0000
  0
LINE
  8
21
 10
10.2058
 20
0.6096
 30
0.0000
 11
10.3625
 21
0.7664
 31
0.0000
  0
LINE
  8
21
 10
10.3625
 20
0.7664
 30
0.0000
 11
10.3625
 21
1.3934
 31
0.0000
  0
LINE
  8
21
 10
10.3625
 20
1.3934
 30
0.0000
 11
10.2058
 21
1.5502
 31
0.0000
  0
LINE
  8
21
 10
10.2058
 20
1.5502
 30
0.0000
 11
9.7355
 21
1.5502
 31
0.0000
  0
LINE
  8
21
 10
10.6710
 20
1.5502
 30
0.0000
 11
10.6710
 21
0.7664
 31
0.0000
  0
LINE
  8
21
 10
10.6710
 20
0.7664
 30
0.0000
 11
10.8278
 21
0.6096
 31
0.0000
  0
LINE
  8
21
 10
10.8278
 20
0.6096
 30
0.0000
 11
11.1413
 21
0.6096
 31
0.0000
  0
LINE
  8
21
 10
11.1413
 20
0.6096
 30
0.0000
 11
11.2981
 21
0.7664
 31
0.0000
  0
LINE
  8
21
 10
11.2981
 20
0.7664
 30
0.0000
 11
11.2981
 21
1.5502
 31
0.0000
  0
LINE
  8
21
 10
11.6065
 20
0.6096
 30
0.0000
 11
11.6065
 21
1.2367
 31
0.0000
  0
LINE
  8
21
 10
11.6065
 20
1.2367
 30
0.0000
 11
11.9200
 21
1.5502
 31
0.0000
  0
LINE
  8
21
 10
11.9200
 20
1.5502
 30
0.0000
 11
12.2336
 21
1.2367
 31
0.0000
  0
LINE
  8
21
 10
12.2336
 20
1.2367
 30
0.0000
 11
12.2336
 21
0.6096
 31
0.0000
  0
LINE
  8
21
 10
11.6065
 20
1.0799
 30
0.0000
 11
12.2336
 21
1.0799
 31
0.0000
  0
LINE
  8
21
 10
12.5420
 20
1.5502
 30
0.0000
 11
12.5420
 21
0.6096
 31
0.0000
  0
LINE
  8
21
 10
12.5420
 20
0.6096
 30
0.0000
 11
13.1691
 21
0.6096
 31
0.0000
  0
LINE
  8
21
 10
15.0401
 20
1.5502
 30
0.0000
 11
14.4131
 21
1.5502
 31
0.0000
  0
LINE
  8
21
 10
14.4131
 20
1.5502
 30
0.0000
 11
14.4131
 21
0.6096
 31
0.0000
  0
LINE
  8
21
 10
14.4131
 20
0.6096
 30
0.0000
 11
15.0401
 21
0.6096
 31
0.0000
  0
LINE
  8
21
 10
14.4131
 20
1.0799
 30
0.0000
 11
14.7266
 21
1.0799
 31
0.0000
  0
LINE
  8
21
 10
15.3486
 20
0.6096
 30
0.0000
 11
15.3486
 21
1.5502
 31
0.0000
  0
LINE
  8
21
 10
15.3486
 20
1.5502
 30
0.0000
 11
15.9756
 21
0.6096
 31
0.0000
  0
LINE
  8
21
 10
15.9756
 20
0.6096
 30
0.0000
 11
15.9756
 21
1.5502
 31
0.0000
  0
LINE
  8
21
 10
16.2841
 20
1.5502
 30
0.0000
 11
16.2841
 21
0.6096
 31
0.0000
  0
LINE
  8
21
 10
16.2841
 20
0.6096
 30
0.0000
 11
16.7544
 21
0.6096
 31
0.0000
  0
LINE
  8
21
 10
16.7544
 20
0.6096
 30
0.0000
 11
16.9112
 21
0.7664
 31
0.0000
  0
LINE
  8
21
 10
16.9112
 20
0.7664
 30
0.0000
 11
16.9112
 21
1.3934
 31
0.0000
  0
LINE
  8
21
 10
16.9112
 20
1.3934
 30
0.0000
 11
16.7544
 21
1.5502
 31
0.0000
  0
LINE
  8
21
 10
16.7544
 20
1.5502
 30
0.0000
 11
16.2841
 21
1.5502
 31
0.0000
  0
LINE
  8
21
 10
17.6899
 20
1.5502
 30
0.0000
 11
17.3764
 21
1.5502
 31
0.0000
  0
LINE
  8
21
 10
17.3764
 20
1.5502
 30
0.0000
 11
17.2196
 21
1.3934
 31
0.0000
  0
LINE
  8
21
 10
17.2196
 20
1.3934
 30
0.0000
 11
17.2196
 21
0.7664
 31
0.0000
  0
LINE
  8
21
 10
17.2196
 20
0.7664
 30
0.0000
 11
17.3764
 21
0.6096
 31
0.0000
  0
LINE
  8
21
 10
17.3764
 20
0.6096
 30
0.0000
 11
17.6899
 21
0.6096
 31
0.0000
  0
LINE
  8
21
 10
17.6899
 20
0.6096
 30
0.0000
 11
17.8467
 21
0.7664
 31
0.0000
  0
LINE
  8
21
 10
17.8467
 20
0.7664
 30
0.0000
 11
17.8467
 21
1.3934
 31
0.0000
  0
LINE
  8
21
 10
17.8467
 20
1.3934
 30
0.0000
 11
17.6899
 21
1.5502
 31
0.0000
  0
LINE
  8
21
 10
18.1551
 20
1.5502
 30
0.0000
 11
18.1551
 21
0.6096
 31
0.0000
  0
LINE
  8
21
 10
18.1551
 20
0.6096
 30
0.0000
 11
18.6254
 21
0.6096
 31
0.0000
  0
LINE
  8
21
 10
18.6254
 20
0.6096
 30
0.0000
 11
18.7822
 21
0.7664
 31
0.0000
  0
LINE
  8
21
 10
18.7822
 20
0.7664
 30
0.0000
 11
18.7822
 21
1.3934
 31
0.0000
  0
LINE
  8
21
 10
18.7822
 20
1.3934
 30
0.0000
 11
18.6254
 21
1.5502
 31
0.0000
  0
LINE
  8
21
 10
18.6254
 20
1.5502
 30
0.0000
 11
18.1551
 21
1.5502
 31
0.0000
  0
LINE
  8
21
 10
19.7177
 20
1.5502
 30
0.0000
 11
19.0907
 21
1.5502
 31
0.0000
  0
LINE
  8
21
 10
19.0907
 20
1.5502
 30
0.0000
 11
19.0907
 21
0.6096
 31
0.0000
  0
LINE
  8
21
 10
19.0907
 20
0.6096
 30
0.0000
 11
19.7177
 21
0.6096
 31
0.0000
  0
LINE
  8
21
 10
19.0907
 20
1.0799
 30
0.0000
 11
19.4042
 21
1.0799
 31
0.0000
  0
LINE
  8
21
 10
20.0262
 20
0.6096
 30
0.0000
 11
20.0262
 21
1.5502
 31
0.0000
  0
LINE
  8
21
 10
20.0262
 20
1.5502
 30
0.0000
 11
20.4965
 21
1.5502
 31
0.0000
  0
LINE
  8
21
 10
20.4965
 20
1.5502
 30
0.0000
 11
20.6532
 21
1.3934
 31
0.0000
  0
LINE
  8
21
 10
20.6532
 20
1.3934
 30
0.0000
 11
20.6532
 21
1.0799
 31
0.0000
  0
LINE
  8
21
 10
20.6532
 20
1.0799
 30
0.0000
 11
20.4965
 21
0.9231
 31
0.0000
  0
LINE
  8
21
 10
20.4965
 20
0.9231
 30
0.0000
 11
20.0262
 21
0.9231
 31
0.0000
  0
LINE
  8
21
 10
20.3397
 20
0.9231
 30
0.0000
 11
20.6532
 21
0.6096
 31
0.0000
  0
LINE
  8
21
 10
20.9617
 20
0.6096
 30
0.0000
 11
20.9617
 21
0.7664
 31
0.0000
  0
LINE
  8
21
 10
20.9617
 20
0.7664
 30
0.0000
 11
21.1185
 21
0.7664
 31
0.0000
  0
LINE
  8
21
 10
21.1185
 20
0.7664
 30
0.0000
 11
21.1185
 21
0.6096
 31
0.0000
  0
LINE
  8
21
 10
21.1185
 20
0.6096
 30
0.0000
 11
20.9617
 21
0.6096
 31
0.0000
  0
LINE
  8
21
 10
22.3650
 20
0.6096
 30
0.0000
 11
22.3650
 21
1.5502
 31
0.0000
  0
LINE
  8
21
 10
22.3650
 20
1.5502
 30
0.0000
 11
22.8353
 21
1.5502
 31
0.0000
  0
LINE
  8
21
 10
22.8353
 20
1.5502
 30
0.0000
 11
22.9920
 21
1.3934
 31
0.0000
  0
LINE
  8
21
 10
22.9920
 20
1.3934
 30
0.0000
 11
22.9920
 21
1.0799
 31
0.0000
  0
LINE
  8
21
 10
22.9920
 20
1.0799
 30
0.0000
 11
22.8353
 21
0.9231
 31
0.0000
  0
LINE
  8
21
 10
22.8353
 20
0.9231
 30
0.0000
 11
22.3650
 21
0.9231
 31
0.0000
  0
LINE
  8
21
 10
22.6785
 20
0.9231
 30
0.0000
 11
22.9920
 21
0.6096
 31
0.0000
  0
LINE
  8
21
 10
23.9276
 20
1.5502
 30
0.0000
 11
23.3005
 21
1.5502
 31
0.0000
  0
LINE
  8
21
 10
23.3005
 20
1.5502
 30
0.0000
 11
23.3005
 21
0.6096
 31
0.0000
  0
LINE
  8
21
 10
23.3005
 20
0.6096
 30
0.0000
 11
23.9276
 21
0.6096
 31
0.0000
  0
LINE
  8
21
 10
23.3005
 20
1.0799
 30
0.0000
 11
23.6140
 21
1.0799
 31
0.0000
  0
LINE
  8
21
 10
24.2360
 20
1.5502
 30
0.0000
 11
24.2360
 21
0.9231
 31
0.0000
  0
LINE
  8
21
 10
24.2360
 20
0.9231
 30
0.0000
 11
24.5495
 21
0.6096
 31
0.0000
  0
LINE
  8
21
 10
24.5495
 20
0.6096
 30
0.0000
 11
24.8631
 21
0.9231
 31
0.0000
  0
LINE
  8
21
 10
24.8631
 20
0.9231
 30
0.0000
 11
24.8631
 21
1.5502
 31
0.0000
  0
LINE
  8
21
 10
25.1715
 20
0.6096
 30
0.0000
 11
25.1715
 21
0.7664
 31
0.0000
  0
LINE
  8
21
 10
25.1715
 20
0.7664
 30
0.0000
 11
25.3283
 21
0.7664
 31
0.0000
  0
LINE
  8
21
 10
25.3283
 20
0.7664
 30
0.0000
 11
25.3283
 21
0.6096
 31
0.0000
  0
LINE
  8
21
 10
25.3283
 20
0.6096
 30
0.0000
 11
25.1715
 21
0.6096
 31
0.0000
  0
LINE
  8
21
 10
27.2019
 20
0.6096
 30
0.0000
 11
26.5748
 21
0.6096
 31
0.0000
  0
LINE
  8
21
 10
26.5748
 20
0.6096
 30
0.0000
 11
27.2019
 21
1.2367
 31
0.0000
  0
LINE
  8
21
 10
27.2019
 20
1.2367
 30
0.0000
 11
27.2019
 21
1.3934
 31
0.0000
  0
LINE
  8
21
 10
27.2019
 20
1.3934
 30
0.0000
 11
27.0451
 21
1.5502
 31
0.0000
  0
LINE
  8
21
 10
27.0451
 20
1.5502
 30
0.0000
 11
26.7316
 21
1.5502
 31
0.0000
  0
LINE
  8
21
 10
26.7316
 20
1.5502
 30
0.0000
 11
26.5748
 21
1.3934
 31
0.0000
  0
LINE
  8
21
 10
27.5103
 20
0.6096
 30
0.0000
 11
27.5103
 21
0.7664
 31
0.0000
  0
LINE
  8
21
 10
27.5103
 20
0.7664
 30
0.0000
 11
27.6671
 21
0.7664
 31
0.0000
  0
LINE
  8
21
 10
27.6671
 20
0.7664
 30
0.0000
 11
27.6671
 21
0.6096
 31
0.0000
  0
LINE
  8
21
 10
27.6671
 20
0.6096
 30
0.0000
 11
27.5103
 21
0.6096
 31
0.0000
  0
LINE
  8
21
 10
32.4018
 20
6.3881
 30
0.0000
 11
31.9103
 21
6.3881
 31
0.0000
  0
LINE
  8
21
 10
31.9103
 20
6.3881
 30
0.0000
 11
31.7875
 21
6.5110
 31
0.0000
  0
LINE
  8
21
 10
31.7875
 20
6.5110
 30
0.0000
 11
31.7875
 21
6.7567
 31
0.0000
  0
LINE
  8
21
 10
31.7875
 20
6.7567
 30
0.0000
 11
31.9103
 21
6.8796
 31
0.0000
  0
LINE
  8
21
 10
31.9103
 20
6.8796
 30
0.0000
 11
32.4018
 21
6.8796
 31
0.0000
  0
LINE
  8
21
 10
32.4018
 20
6.8796
 30
0.0000
 11
32.5247
 21
6.7567
 31
0.0000
  0
LINE
  8
21
 10
32.5247
 20
6.7567
 30
0.0000
 11
32.5247
 21
6.5110
 31
0.0000
  0
LINE
  8
21
 10
32.5247
 20
6.5110
 30
0.0000
 11
32.4018
 21
6.3881
 31
0.0000
  0
LINE
  8
21
 10
32.4018
 20
6.3881
 30
0.0000
 11
31.9103
 21
6.8796
 31
0.0000
  0
LINE
  8
21
 10
32.0332
 20
7.1365
 30
0.0000
 11
32.5247
 21
7.6280
 31
0.0000
  0
LINE
  8
21
 10
32.5247
 20
7.1365
 30
0.0000
 11
32.0332
 21
7.6280
 31
0.0000
  0
LINE
  8
21
 10
32.0332
 20
7.8849
 30
0.0000
 11
31.7875
 21
8.1307
 31
0.0000
  0
LINE
  8
21
 10
31.7875
 20
8.1307
 30
0.0000
 11
32.5247
 21
8.1307
 31
0.0000
  0
LINE
  8
21
 10
32.5247
 20
7.8849
 30
0.0000
 11
32.5247
 21
8.3764
 31
0.0000
  0
LINE
  8
21
 10
32.4018
 20
8.6333
 30
0.0000
 11
31.9103
 21
8.6333
 31
0.0000
  0
LINE
  8
21
 10
31.9103
 20
8.6333
 30
0.0000
 11
31.7875
 21
8.7562
 31
0.0000
  0
LINE
  8
21
 10
31.7875
 20
8.7562
 30
0.0000
 11
31.7875
 21
9.0020
 31
0.0000
  0
LINE
  8
21
 10
31.7875
 20
9.0020
 30
0.0000
 11
31.9103
 21
9.1248
 31
0.0000
  0
LINE
  8
21
 10
31.9103
 20
9.1248
 30
0.0000
 11
32.4018
 21
9.1248
 31
0.0000
  0
LINE
  8
21
 10
32.4018
 20
9.1248
 30
0.0000
 11
32.5247
 21
9.0020
 31
0.0000
  0
LINE
  8
21
 10
32.5247
 20
9.0020
 30
0.0000
 11
32.5247
 21
8.7562
 31
0.0000
  0
LINE
  8
21
 10
32.5247
 20
8.7562
 30
0.0000
 11
32.4018
 21
8.6333
 31
0.0000
  0
LINE
  8
21
 10
32.4018
 20
8.6333
 30
0.0000
 11
31.9103
 21
9.1248
 31
0.0000
  0
LINE
  8
21
 10
32.5247
 20
9.3818
 30
0.0000
 11
31.7875
 21
9.3818
 31
0.0000
  0
LINE
  8
21
 10
31.7875
 20
9.3818
 30
0.0000
 11
31.7875
 21
9.7504
 31
0.0000
  0
LINE
  8
21
 10
31.7875
 20
9.7504
 30
0.0000
 11
31.9103
 21
9.8732
 31
0.0000
  0
LINE
  8
21
 10
31.9103
 20
9.8732
 30
0.0000
 11
32.0332
 21
9.8732
 31
0.0000
  0
LINE
  8
21
 10
32.0332
 20
9.8732
 30
0.0000
 11
32.1561
 21
9.7504
 31
0.0000
  0
LINE
  8
21
 10
32.1561
 20
9.7504
 30
0.0000
 11
32.2790
 21
9.8732
 31
0.0000
  0
LINE
  8
21
 10
32.2790
 20
9.8732
 30
0.0000
 11
32.4018
 21
9.8732
 31
0.0000
  0
LINE
  8
21
 10
32.4018
 20
9.8732
 30
0.0000
 11
32.5247
 21
9.7504
 31
0.0000
  0
LINE
  8
21
 10
32.5247
 20
9.7504
 30
0.0000
 11
32.5247
 21
9.3818
 31
0.0000
  0
LINE
  8
21
 10
32.1561
 20
9.3818
 30
0.0000
 11
32.1561
 21
9.7504
 31
0.0000
  0
LINE
  8
21
 10
31.9103
 20
10.1302
 30
0.0000
 11
31.7875
 21
10.2530
 31
0.0000
  0
LINE
  8
21
 10
31.7875
 20
10.2530
 30
0.0000
 11
31.7875
 21
10.4988
 31
0.0000
  0
LINE
  8
21
 10
31.7875
 20
10.4988
 30
0.0000
 11
31.9103
 21
10.6217
 31
0.0000
  0
LINE
  8
21
 10
31.9103
 20
10.6217
 30
0.0000
 11
32.0332
 21
10.6217
 31
0.0000
  0
LINE
  8
21
 10
32.0332
 20
10.6217
 30
0.0000
 11
32.1561
 21
10.4988
 31
0.0000
  0
LINE
  8
21
 10
32.1561
 20
10.4988
 30
0.0000
 11
32.1561
 21
10.3759
 31
0.0000
  0
LINE
  8
21
 10
32.1561
 20
10.4988
 30
0.0000
 11
32.2790
 21
10.6217
 31
0.0000
  0
LINE
  8
21
 10
32.2790
 20
10.6217
 30
0.0000
 11
32.4018
 21
10.6217
 31
0.0000
  0
LINE
  8
21
 10
32.4018
 20
10.6217
 30
0.0000
 11
32.5247
 21
10.4988
 31
0.0000
  0
LINE
  8
21
 10
32.5247
 20
10.4988
 30
0.0000
 11
32.5247
 21
10.2530
 31
0.0000
  0
LINE
  8
21
 10
32.5247
 20
10.2530
 30
0.0000
 11
32.4018
 21
10.1302
 31
0.0000
  0
LINE
  8
21
 10
31.9103
 20
10.8786
 30
0.0000
 11
31.7875
 21
11.0015
 31
0.0000
  0
LINE
  8
21
 10
31.7875
 20
11.0015
 30
0.0000
 11
31.7875
 21
11.2472
 31
0.0000
  0
LINE
  8
21
 10
31.7875
 20
11.2472
 30
0.0000
 11
31.9103
 21
11.3701
 31
0.0000
  0
LINE
  8
21
 10
31.9103
 20
11.3701
 30
0.0000
 11
32.0332
 21
11.3701
 31
0.0000
  0
LINE
  8
21
 10
32.0332
 20
11.3701
 30
0.0000
 11
32.1561
 21
11.2472
 31
0.0000
  0
LINE
  8
21
 10
32.1561
 20
11.2472
 30
0.0000
 11
32.1561
 21
11.1243
 31
0.0000
  0
LINE
  8
21
 10
32.1561
 20
11.2472
 30
0.0000
 11
32.2790
 21
11.3701
 31
0.0000
  0
LINE
  8
21
 10
32.2790
 20
11.3701
 30
0.0000
 11
32.4018
 21
11.3701
 31
0.0000
  0
LINE
  8
21
 10
32.4018
 20
11.3701
 30
0.0000
 11
32.5247
 21
11.2472
 31
0.0000
  0
LINE
  8
21
 10
32.5247
 20
11.2472
 30
0.0000
 11
32.5247
 21
11.0015
 31
0.0000
  0
LINE
  8
21
 10
32.5247
 20
11.0015
 30
0.0000
 11
32.4018
 21
10.8786
 31
0.0000
  0
LINE
  8
21
 10
32.4018
 20
11.6270
 30
0.0000
 11
32.5247
 21
11.7499
 31
0.0000
  0
LINE
  8
21
 10
32.5247
 20
11.7499
 30
0.0000
 11
32.5247
 21
11.9956
 31
0.0000
  0
LINE
  8
21
 10
32.5247
 20
11.9956
 30
0.0000
 11
32.4018
 21
12.1185
 31
0.0000
  0
LINE
  8
21
 10
32.4018
 20
12.1185
 30
0.0000
 11
31.9103
 21
12.1185
 31
0.0000
  0
LINE
  8
21
 10
31.9103
 20
12.1185
 30
0.0000
 11
31.7875
 21
11.9956
 31
0.0000
  0
LINE
  8
21
 10
31.7875
 20
11.9956
 30
0.0000
 11
31.7875
 21
11.7499
 31
0.0000
  0
LINE
  8
21
 10
31.7875
 20
11.7499
 30
0.0000
 11
31.9103
 21
11.6270
 31
0.0000
  0
LINE
  8
21
 10
31.9103
 20
11.6270
 30
0.0000
 11
32.0332
 21
11.6270
 31
0.0000
  0
LINE
  8
21
 10
32.0332
 20
11.6270
 30
0.0000
 11
32.1561
 21
11.7499
 31
0.0000
  0
LINE
  8
21
 10
32.1561
 20
11.7499
 30
0.0000
 11
32.1561
 21
12.1185
 31
0.0000
  0
LINE
  8
21
 10
32.4018
 20
12.3754
 30
0.0000
 11
31.9103
 21
12.3754
 31
0.0000
  0
LINE
  8
21
 10
31.9103
 20
12.3754
 30
0.0000
 11
31.7875
 21
12.4983
 31
0.0000
  0
LINE
  8
21
 10
31.7875
 20
12.4983
 30
0.0000
 11
31.7875
 21
12.7440
 31
0.0000
  0
LINE
  8
21
 10
31.7875
 20
12.7440
 30
0.0000
 11
31.9103
 21
12.8669
 31
0.0000
  0
LINE
  8
21
 10
31.9103
 20
12.8669
 30
0.0000
 11
32.4018
 21
12.8669
 31
0.0000
  0
LINE
  8
21
 10
32.4018
 20
12.8669
 30
0.0000
 11
32.5247
 21
12.7440
 31
0.0000
  0
LINE
  8
21
 10
32.5247
 20
12.7440
 30
0.0000
 11
32.5247
 21
12.4983
 31
0.0000
  0
LINE
  8
21
 10
32.5247
 20
12.4983
 30
0.0000
 11
32.4018
 21
12.3754
 31
0.0000
  0
LINE
  8
21
 10
32.4018
 20
12.3754
 30
0.0000
 11
31.9103
 21
12.8669
 31
0.0000
  0
LINE
  8
21
 10
32.0332
 20
13.1238
 30
0.0000
 11
31.7875
 21
13.3696
 31
0.0000
  0
LINE
  8
21
 10
31.7875
 20
13.3696
 30
0.0000
 11
32.5247
 21
13.3696
 31
0.0000
  0
LINE
  8
21
 10
32.5247
 20
13.1238
 30
0.0000
 11
32.5247
 21
13.6153
 31
0.0000
  0
LINE
  8
21
 10
23.1502
 20
19.0127
 30
0.0000
 11
23.1502
 21
18.0721
 31
0.0000
  0
LINE
  8
21
 10
23.1502
 20
18.0721
 30
0.0000
 11
23.6205
 21
18.0721
 31
0.0000
  0
LINE
  8
21
 10
23.6205
 20
18.0721
 30
0.0000
 11
23.7773
 21
18.2289
 31
0.0000
  0
LINE
  8
21
 10
23.7773
 20
18.2289
 30
0.0000
 11
23.7773
 21
18.8559
 31
0.0000
  0
LINE
  8
21
 10
23.7773
 20
18.8559
 30
0.0000
 11
23.6205
 21
19.0127
 31
0.0000
  0
LINE
  8
21
 10
23.6205
 20
19.0127
 30
0.0000
 11
23.1502
 21
19.0127
 31
0.0000
  0
LINE
  8
21
 10
24.0858
 20
18.0721
 30
0.0000
 11
24.0858
 21
19.0127
 31
0.0000
  0
LINE
  8
21
 10
24.0858
 20
19.0127
 30
0.0000
 11
24.5561
 21
19.0127
 31
0.0000
  0
LINE
  8
21
 10
24.5561
 20
19.0127
 30
0.0000
 11
24.7128
 21
18.8559
 31
0.0000
  0
LINE
  8
21
 10
24.7128
 20
18.8559
 30
0.0000
 11
24.7128
 21
18.5424
 31
0.0000
  0
LINE
  8
21
 10
24.7128
 20
18.5424
 30
0.0000
 11
24.5561
 21
18.3856
 31
0.0000
  0
LINE
  8
21
 10
24.5561
 20
18.3856
 30
0.0000
 11
24.0858
 21
18.3856
 31
0.0000
  0
LINE
  8
21
 10
24.3993
 20
18.3856
 30
0.0000
 11
24.7128
 21
18.0721
 31
0.0000
  0
LINE
  8
21
 10
25.0213
 20
19.0127
 30
0.0000
 11
25.0213
 21
18.0721
 31
0.0000
  0
LINE
  8
21
 10
25.0213
 20
18.3856
 30
0.0000
 11
25.6484
 21
19.0127
 31
0.0000
  0
LINE
  8
21
 10
25.1780
 20
18.5424
 30
0.0000
 11
25.6484
 21
18.0721
 31
0.0000
  0
LINE
  8
21
 10
25.9568
 20
18.5424
 30
0.0000
 11
26.5839
 21
18.5424
 31
0.0000
  0
LINE
  8
21
 10
26.8923
 20
18.6992
 30
0.0000
 11
27.2059
 21
19.0127
 31
0.0000
  0
LINE
  8
21
 10
27.2059
 20
19.0127
 30
0.0000
 11
27.2059
 21
18.0721
 31
0.0000
  0
LINE
  8
21
 10
26.8923
 20
18.0721
 30
0.0000
 11
27.5194
 21
18.0721
 31
0.0000
  0
LINE
  8
21
 10
27.8278
 20
18.0721
 30
0.0000
 11
27.8278
 21
18.2289
 31
0.0000
  0
LINE
  8
21
 10
27.8278
 20
18.2289
 30
0.0000
 11
27.9846
 21
18.2289
 31
0.0000
  0
LINE
  8
21
 10
27.9846
 20
18.2289
 30
0.0000
 11
27.9846
 21
18.0721
 31
0.0000
  0
LINE
  8
21
 10
27.9846
 20
18.0721
 30
0.0000
 11
27.8278
 21
18.0721
 31
0.0000
  0
CIRCLE
  8
20
 10
30.7975
 20
19.0500
 30
0.0000
 40
1.6000
  0
CIRCLE
  8
20
 10
30.7975
 20
2.5400
 30
0.0000
 40
1.6000
  0
CIRCLE
  8
20
 10
2.5400
 20
19.0500
 30
0.0000
 40
1.6000
  0
CIRCLE
  8
20
 10
2.5400
 20
2.5400
 30
0.0000
 40
1.6000
  0
POINT
  8
23
 10
13.6525
 20
16.5100
 30
0.0000
  0
LINE
  8
39
 10
12.6695
 20
15.0370
 30
0.0000
 11
12.6695
 21
17.9830
 31
0.0000
  0
LINE
  8
39
 10
12.6695
 20
17.9830
 30
0.0000
 11
14.6355
 21
17.9830
 31
0.0000
  0
LINE
  8
39
 10
14.6355
 20
17.9830
 30
0.0000
 11
14.6355
 21
15.0370
 31
0.0000
  0
LINE
  8
39
 10
14.6355
 20
15.0370
 30
0.0000
 11
12.6695
 21
15.0370
 31
0.0000
  0
LINE
  8
51
 10
13.2205
 20
16.1540
 30
0.0000
 11
13.2205
 21
16.8660
 31
0.0000
  0
LINE
  8
51
 10
14.0715
 20
16.1540
 30
0.0000
 11
14.0715
 21
16.8660
 31
0.0000
  0
INSERT
  8
51
  2
RECT
 10
13.6474
 20
15.9219
 30
0.0000
 41
0.5001
 42
0.9500
 43
1.0000
 50
90.0000
  0
INSERT
  8
51
  2
RECT
 10
13.6474
 20
17.0903
 30
0.0000
 41
0.5001
 42
0.9500
 43
1.0000
 50
90.0000
  0
INSERT
  8
35
  2
RECT
 10
13.6525
 20
16.5100
 30
0.0000
 41
0.3998
 42
0.6000
 43
1.0000
 50
90.0000
  0
INSERT
  8
1
  2
RECT
 10
13.6525
 20
15.6600
 30
0.0000
 41
1.1000
 42
1.0000
 43
1.0000
 50
90.0000
  0
INSERT
  8
31
  2
RECT
 10
13.6525
 20
15.6600
 30
0.0000
 41
1.1000
 42
1.0000
 43
1.0000
 50
90.0000
  0
INSERT
  8
1
  2
RECT
 10
13.6525
 20
17.3600
 30
0.0000
 41
1.1000
 42
1.0000
 43
1.0000
 50
90.0000
  0
INSERT
  8
31
  2
RECT
 10
13.6525
 20
17.3600
 30
0.0000
 41
1.1000
 42
1.0000
 43
1.0000
 50
90.0000
  0
LINE
  8
25
 10
12.3650
 20
15.7696
 30
0.0000
 11
12.2422
 21
15.6467
 31
0.0000
  0
LINE
  8
25
 10
12.2422
 20
15.6467
 30
0.0000
 11
12.2422
 21
15.4010
 31
0.0000
  0
LINE
  8
25
 10
12.2422
 20
15.4010
 30
0.0000
 11
12.3650
 21
15.2781
 31
0.0000
  0
LINE
  8
25
 10
12.3650
 20
15.2781
 30
0.0000
 11
12.8565
 21
15.2781
 31
0.0000
  0
LINE
  8
25
 10
12.8565
 20
15.2781
 30
0.0000
 11
12.9794
 21
15.4010
 31
0.0000
  0
LINE
  8
25
 10
12.9794
 20
15.4010
 30
0.0000
 11
12.9794
 21
15.6467
 31
0.0000
  0
LINE
  8
25
 10
12.9794
 20
15.6467
 30
0.0000
 11
12.8565
 21
15.7696
 31
0.0000
  0
LINE
  8
25
 10
12.4879
 20
16.0265
 30
0.0000
 11
12.2422
 21
16.2723
 31
0.0000
  0
LINE
  8
25
 10
12.2422
 20
16.2723
 30
0.0000
 11
12.9794
 21
16.2723
 31
0.0000
  0
LINE
  8
25
 10
12.9794
 20
16.0265
 30
0.0000
 11
12.9794
 21
16.5180
 31
0.0000
  0
POINT
  8
23
 10
20.3200
 20
10.4775
 30
0.0000
  0
LINE
  8
39
 10
21.3030
 20
11.9505
 30
0.0000
 11
21.3030
 21
9.0045
 31
0.0000
  0
LINE
  8
39
 10
21.3030
 20
9.0045
 30
0.0000
 11
19.3370
 21
9.0045
 31
0.0000
  0
LINE
  8
39
 10
19.3370
 20
9.0045
 30
0.0000
 11
19.3370
 21
11.9505
 31
0.0000
  0
LINE
  8
39
 10
19.3370
 20
11.9505
 30
0.0000
 11
21.3030
 21
11.9505
 31
0.0000
  0
LINE
  8
51
 10
20.7520
 20
10.8335
 30
0.0000
 11
20.7520
 21
10.1215
 31
0.0000
  0
LINE
  8
51
 10
19.9010
 20
10.8335
 30
0.0000
 11
19.9010
 21
10.1215
 31
0.0000
  0
INSERT
  8
51
  2
RECT
 10
20.3251
 20
11.0656
 30
0.0000
 41
0.5001
 42
0.9500
 43
1.0000
 50
270.0000
  0
INSERT
  8
51
  2
RECT
 10
20.3251
 20
9.8972
 30
0.0000
 41
0.5001
 42
0.9500
 43
1.0000
 50
270.0000
  0
INSERT
  8
35
  2
RECT
 10
20.3200
 20
10.4775
 30
0.0000
 41
0.3998
 42
0.6000
 43
1.0000
 50
270.0000
  0
INSERT
  8
1
  2
RECT
 10
20.3200
 20
11.3275
 30
0.0000
 41
1.1000
 42
1.0000
 43
1.0000
 50
270.0000
  0
INSERT
  8
31
  2
RECT
 10
20.3200
 20
11.3275
 30
0.0000
 41
1.1000
 42
1.0000
 43
1.0000
 50
270.0000
  0
INSERT
  8
1
  2
RECT
 10
20.3200
 20
9.6275
 30
0.0000
 41
1.1000
 42
1.0000
 43
1.0000
 50
270.0000
  0
INSERT
  8
31
  2
RECT
 10
20.3200
 20
9.6275
 30
0.0000
 41
1.1000
 42
1.0000
 43
1.0000
 50
270.0000
  0
LINE
  8
25
 10
21.1153
 20
10.7803
 30
0.0000
 11
20.9925
 21
10.6574
 31
0.0000
  0
LINE
  8
25
 10
20.9925
 20
10.6574
 30
0.0000
 11
20.9925
 21
10.4116
 31
0.0000
  0
LINE
  8
25
 10
20.9925
 20
10.4116
 30
0.0000
 11
21.1153
 21
10.2888
 31
0.0000
  0
LINE
  8
25
 10
21.1153
 20
10.2888
 30
0.0000
 11
21.6068
 21
10.2888
 31
0.0000
  0
LINE
  8
25
 10
21.6068
 20
10.2888
 30
0.0000
 11
21.7297
 21
10.4116
 31
0.0000
  0
LINE
  8
25
 10
21.7297
 20
10.4116
 30
0.0000
 11
21.7297
 21
10.6574
 31
0.0000
  0
LINE
  8
25
 10
21.7297
 20
10.6574
 30
0.0000
 11
21.6068
 21
10.7803
 31
0.0000
  0
LINE
  8
25
 10
21.7297
 20
11.5287
 30
0.0000
 11
21.7297
 21
11.0372
 31
0.0000
  0
LINE
  8
25
 10
21.7297
 20
11.0372
 30
0.0000
 11
21.2382
 21
11.5287
 31
0.0000
  0
LINE
  8
25
 10
21.2382
 20
11.5287
 30
0.0000
 11
21.1153
 21
11.5287
 31
0.0000
  0
LINE
  8
25
 10
21.1153
 20
11.5287
 30
0.0000
 11
20.9925
 21
11.4058
 31
0.0000
  0
LINE
  8
25
 10
20.9925
 20
11.4058
 30
0.0000
 11
20.9925
 21
11.1601
 31
0.0000
  0
LINE
  8
25
 10
20.9925
 20
11.1601
 30
0.0000
 11
21.1153
 21
11.0372
 31
0.0000
  0
POINT
  8
23
 10
23.8125
 20
8.8900
 30
0.0000
  0
LINE
  8
39
 10
24.7955
 20
10.3630
 30
0.0000
 11
24.7955
 21
7.4170
 31
0.0000
  0
LINE
  8
39
 10
24.7955
 20
7.4170
 30
0.0000
 11
22.8295
 21
7.4170
 31
0.0000
  0
LINE
  8
39
 10
22.8295
 20
7.4170
 30
0.0000
 11
22.8295
 21
10.3630
 31
0.0000
  0
LINE
  8
39
 10
22.8295
 20
10.3630
 30
0.0000
 11
24.7955
 21
10.3630
 31
0.0000
  0
LINE
  8
51
 10
24.2445
 20
9.2460
 30
0.0000
 11
24.2445
 21
8.5340
 31
0.0000
  0
LINE
  8
51
 10
23.3935
 20
9.2460
 30
0.0000
 11
23.3935
 21
8.5340
 31
0.0000
  0
INSERT
  8
51
  2
RECT
 10
23.8176
 20
9.4782
 30
0.0000
 41
0.5001
 42
0.9500
 43
1.0000
 50
270.0000
  0
INSERT
  8
51
  2
RECT
 10
23.8176
 20
8.3098
 30
0.0000
 41
0.5001
 42
0.9500
 43
1.0000
 50
270.0000
  0
INSERT
  8
35
  2
RECT
 10
23.8125
 20
8.8900
 30
0.0000
 41
0.3998
 42
0.6000
 43
1.0000
 50
270.0000
  0
INSERT
  8
1
  2
RECT
 10
23.8125
 20
9.7400
 30
0.0000
 41
1.1000
 42
1.0000
 43
1.0000
 50
270.0000
  0
INSERT
  8
31
  2
RECT
 10
23.8125
 20
9.7400
 30
0.0000
 41
1.1000
 42
1.0000
 43
1.0000
 50
270.0000
  0
INSERT
  8
1
  2
RECT
 10
23.8125
 20
8.0400
 30
0.0000
 41
1.1000
 42
1.0000
 43
1.0000
 50
270.0000
  0
INSERT
  8
31
  2
RECT
 10
23.8125
 20
8.0400
 30
0.0000
 41
1.1000
 42
1.0000
 43
1.0000
 50
270.0000
  0
LINE
  8
25
 10
22.5250
 20
8.1496
 30
0.0000
 11
22.4022
 21
8.0267
 31
0.0000
  0
LINE
  8
25
 10
22.4022
 20
8.0267
 30
0.0000
 11
22.4022
 21
7.7810
 31
0.0000
  0
LINE
  8
25
 10
22.4022
 20
7.7810
 30
0.0000
 11
22.5250
 21
7.6581
 31
0.0000
  0
LINE
  8
25
 10
22.5250
 20
7.6581
 30
0.0000
 11
23.0165
 21
7.6581
 31
0.0000
  0
LINE
  8
25
 10
23.0165
 20
7.6581
 30
0.0000
 11
23.1394
 21
7.7810
 31
0.0000
  0
LINE
  8
25
 10
23.1394
 20
7.7810
 30
0.0000
 11
23.1394
 21
8.0267
 31
0.0000
  0
LINE
  8
25
 10
23.1394
 20
8.0267
 30
0.0000
 11
23.0165
 21
8.1496
 31
0.0000
  0
LINE
  8
25
 10
22.5250
 20
8.4065
 30
0.0000
 11
22.4022
 21
8.5294
 31
0.0000
  0
LINE
  8
25
 10
22.4022
 20
8.5294
 30
0.0000
 11
22.4022
 21
8.7751
 31
0.0000
  0
LINE
  8
25
 10
22.4022
 20
8.7751
 30
0.0000
 11
22.5250
 21
8.8980
 31
0.0000
  0
LINE
  8
25
 10
22.5250
 20
8.8980
 30
0.0000
 11
22.6479
 21
8.8980
 31
0.0000
  0
LINE
  8
25
 10
22.6479
 20
8.8980
 30
0.0000
 11
22.7708
 21
8.7751
 31
0.0000
  0
LINE
  8
25
 10
22.7708
 20
8.7751
 30
0.0000
 11
22.7708
 21
8.6523
 31
0.0000
  0
LINE
  8
25
 10
22.7708
 20
8.7751
 30
0.0000
 11
22.8937
 21
8.8980
 31
0.0000
  0
LINE
  8
25
 10
22.8937
 20
8.8980
 30
0.0000
 11
23.0165
 21
8.8980
 31
0.0000
  0
LINE
  8
25
 10
23.0165
 20
8.8980
 30
0.0000
 11
23.1394
 21
8.7751
 31
0.0000
  0
LINE
  8
25
 10
23.1394
 20
8.7751
 30
0.0000
 11
23.1394
 21
8.5294
 31
0.0000
  0
LINE
  8
25
 10
23.1394
 20
8.5294
 30
0.0000
 11
23.0165
 21
8.4065
 31
0.0000
  0
POINT
  8
23
 10
26.3525
 20
16.5100
 30
0.0000
  0
LINE
  8
39
 10
24.8795
 20
17.4930
 30
0.0000
 11
27.8255
 21
17.4930
 31
0.0000
  0
LINE
  8
39
 10
27.8255
 20
17.4930
 30
0.0000
 11
27.8255
 21
15.5270
 31
0.0000
  0
LINE
  8
39
 10
27.8255
 20
15.5270
 30
0.0000
 11
24.8795
 21
15.5270
 31
0.0000
  0
LINE
  8
39
 10
24.8795
 20
15.5270
 30
0.0000
 11
24.8795
 21
17.4930
 31
0.0000
  0
LINE
  8
51
 10
25.9965
 20
16.9420
 30
0.0000
 11
26.7085
 21
16.9420
 31
0.0000
  0
LINE
  8
51
 10
25.9965
 20
16.0910
 30
0.0000
 11
26.7085
 21
16.0910
 31
0.0000
  0
INSERT
  8
51
  2
RECT
 10
25.7644
 20
16.5151
 30
0.0000
 41
0.5001
 42
0.9500
 43
1.0000
 50
0.0000
  0
INSERT
  8
51
  2
RECT
 10
26.9328
 20
16.5151
 30
0.0000
 41
0.5001
 42
0.9500
 43
1.0000
 50
0.0000
  0
INSERT
  8
35
  2
RECT
 10
26.3525
 20
16.5100
 30
0.0000
 41
0.3998
 42
0.6000
 43
1.0000
 50
0.0000
  0
INSERT
  8
1
  2
RECT
 10
25.5025
 20
16.5100
 30
0.0000
 41
1.1000
 42
1.0000
 43
1.0000
 50
0.0000
  0
INSERT
  8
31
  2
RECT
 10
25.5025
 20
16.5100
 30
0.0000
 41
1.1000
 42
1.0000
 43
1.0000
 50
0.0000
  0
INSERT
  8
1
  2
RECT
 10
27.2025
 20
16.5100
 30
0.0000
 41
1.1000
 42
1.0000
 43
1.0000
 50
0.0000
  0
INSERT
  8
31
  2
RECT
 10
27.2025
 20
16.5100
 30
0.0000
 41
1.1000
 42
1.0000
 43
1.0000
 50
0.0000
  0
LINE
  8
25
 10
25.6121
 20
17.7975
 30
0.0000
 11
25.4892
 21
17.9203
 31
0.0000
  0
LINE
  8
25
 10
25.4892
 20
17.9203
 30
0.0000
 11
25.2435
 21
17.9203
 31
0.0000
  0
LINE
  8
25
 10
25.2435
 20
17.9203
 30
0.0000
 11
25.1206
 21
17.7975
 31
0.0000
  0
LINE
  8
25
 10
25.1206
 20
17.7975
 30
0.0000
 11
25.1206
 21
17.3060
 31
0.0000
  0
LINE
  8
25
 10
25.1206
 20
17.3060
 30
0.0000
 11
25.2435
 21
17.1831
 31
0.0000
  0
LINE
  8
25
 10
25.2435
 20
17.1831
 30
0.0000
 11
25.4892
 21
17.1831
 31
0.0000
  0
LINE
  8
25
 10
25.4892
 20
17.1831
 30
0.0000
 11
25.6121
 21
17.3060
 31
0.0000
  0
LINE
  8
25
 10
26.2376
 20
17.1831
 30
0.0000
 11
26.2376
 21
17.9203
 31
0.0000
  0
LINE
  8
25
 10
26.2376
 20
17.9203
 30
0.0000
 11
25.8690
 21
17.5517
 31
0.0000
  0
LINE
  8
25
 10
25.8690
 20
17.5517
 30
0.0000
 11
26.3605
 21
17.5517
 31
0.0000
  0
POINT
  8
23
 10
26.3525
 20
5.0800
 30
0.0000
  0
LINE
  8
39
 10
24.8795
 20
6.0630
 30
0.0000
 11
27.8255
 21
6.0630
 31
0.0000
  0
LINE
  8
39
 10
27.8255
 20
6.0630
 30
0.0000
 11
27.8255
 21
4.0970
 31
0.0000
  0
LINE
  8
39
 10
27.8255
 20
4.0970
 30
0.0000
 11
24.8795
 21
4.0970
 31
0.0000
  0
LINE
  8
39
 10
24.8795
 20
4.0970
 30
0.0000
 11
24.8795
 21
6.0630
 31
0.0000
  0
LINE
  8
51
 10
25.9965
 20
5.5120
 30
0.0000
 11
26.7085
 21
5.5120
 31
0.0000
  0
LINE
  8
51
 10
25.9965
 20
4.6610
 30
0.0000
 11
26.7085
 21
4.6610
 31
0.0000
  0
INSERT
  8
51
  2
RECT
 10
25.7644
 20
5.0851
 30
0.0000
 41
0.5001
 42
0.9500
 43
1.0000
 50
0.0000
  0
INSERT
  8
51
  2
RECT
 10
26.9328
 20
5.0851
 30
0.0000
 41
0.5001
 42
0.9500
 43
1.0000
 50
0.0000
  0
INSERT
  8
35
  2
RECT
 10
26.3525
 20
5.0800
 30
0.0000
 41
0.3998
 42
0.6000
 43
1.0000
 50
0.0000
  0
INSERT
  8
1
  2
RECT
 10
25.5025
 20
5.0800
 30
0.0000
 41
1.1000
 42
1.0000
 43
1.0000
 50
0.0000
  0
INSERT
  8
31
  2
RECT
 10
25.5025
 20
5.0800
 30
0.0000
 41
1.1000
 42
1.0000
 43
1.0000
 50
0.0000
  0
INSERT
  8
1
  2
RECT
 10
27.2025
 20
5.0800
 30
0.0000
 41
1.1000
 42
1.0000
 43
1.0000
 50
0.0000
  0
INSERT
  8
31
  2
RECT
 10
27.2025
 20
5.0800
 30
0.0000
 41
1.1000
 42
1.0000
 43
1.0000
 50
0.0000
  0
LINE
  8
25
 10
25.6121
 20
6.3675
 30
0.0000
 11
25.4892
 21
6.4903
 31
0.0000
  0
LINE
  8
25
 10
25.4892
 20
6.4903
 30
0.0000
 11
25.2435
 21
6.4903
 31
0.0000
  0
LINE
  8
25
 10
25.2435
 20
6.4903
 30
0.0000
 11
25.1206
 21
6.3675
 31
0.0000
  0
LINE
  8
25
 10
25.1206
 20
6.3675
 30
0.0000
 11
25.1206
 21
5.8760
 31
0.0000
  0
LINE
  8
25
 10
25.1206
 20
5.8760
 30
0.0000
 11
25.2435
 21
5.7531
 31
0.0000
  0
LINE
  8
25
 10
25.2435
 20
5.7531
 30
0.0000
 11
25.4892
 21
5.7531
 31
0.0000
  0
LINE
  8
25
 10
25.4892
 20
5.7531
 30
0.0000
 11
25.6121
 21
5.8760
 31
0.0000
  0
LINE
  8
25
 10
26.3605
 20
6.4903
 30
0.0000
 11
25.8690
 21
6.4903
 31
0.0000
  0
LINE
  8
25
 10
25.8690
 20
6.4903
 30
0.0000
 11
25.8690
 21
6.1217
 31
0.0000
  0
LINE
  8
25
 10
25.8690
 20
6.1217
 30
0.0000
 11
26.1148
 21
6.2446
 31
0.0000
  0
LINE
  8
25
 10
26.1148
 20
6.2446
 30
0.0000
 11
26.2376
 21
6.2446
 31
0.0000
  0
LINE
  8
25
 10
26.2376
 20
6.2446
 30
0.0000
 11
26.3605
 21
6.1217
 31
0.0000
  0
LINE
  8
25
 10
26.3605
 20
6.1217
 30
0.0000
 11
26.3605
 21
5.8760
 31
0.0000
  0
LINE
  8
25
 10
26.3605
 20
5.8760
 30
0.0000
 11
26.2376
 21
5.7531
 31
0.0000
  0
LINE
  8
25
 10
26.2376
 20
5.7531
 30
0.0000
 11
25.9919
 21
5.7531
 31
0.0000
  0
LINE
  8
25
 10
25.9919
 20
5.7531
 30
0.0000
 11
25.8690
 21
5.8760
 31
0.0000
  0
POINT
  8
23
 10
23.8125
 20
13.0175
 30
0.0000
  0
LINE
  8
39
 10
22.8295
 20
11.5445
 30
0.0000
 11
22.8295
 21
14.4905
 31
0.0000
  0
LINE
  8
39
 10
22.8295
 20
14.4905
 30
0.0000
 11
24.7955
 21
14.4905
 31
0.0000
  0
LINE
  8
39
 10
24.7955
 20
14.4905
 30
0.0000
 11
24.7955
 21
11.5445
 31
0.0000
  0
LINE
  8
39
 10
24.7955
 20
11.5445
 30
0.0000
 11
22.8295
 21
11.5445
 31
0.0000
  0
LINE
  8
51
 10
23.3805
 20
12.6615
 30
0.0000
 11
23.3805
 21
13.3735
 31
0.0000
  0
LINE
  8
51
 10
24.2315
 20
12.6615
 30
0.0000
 11
24.2315
 21
13.3735
 31
0.0000
  0
INSERT
  8
51
  2
RECT
 10
23.8074
 20
12.4294
 30
0.0000
 41
0.5001
 42
0.9500
 43
1.0000
 50
90.0000
  0
INSERT
  8
51
  2
RECT
 10
23.8074
 20
13.5978
 30
0.0000
 41
0.5001
 42
0.9500
 43
1.0000
 50
90.0000
  0
INSERT
  8
35
  2
RECT
 10
23.8125
 20
13.0175
 30
0.0000
 41
0.3998
 42
0.6000
 43
1.0000
 50
90.0000
  0
INSERT
  8
1
  2
RECT
 10
23.8125
 20
12.1675
 30
0.0000
 41
1.1000
 42
1.0000
 43
1.0000
 50
90.0000
  0
INSERT
  8
31
  2
RECT
 10
23.8125
 20
12.1675
 30
0.0000
 41
1.1000
 42
1.0000
 43
1.0000
 50
90.0000
  0
INSERT
  8
1
  2
RECT
 10
23.8125
 20
13.8675
 30
0.0000
 41
1.1000
 42
1.0000
 43
1.0000
 50
90.0000
  0
INSERT
  8
31
  2
RECT
 10
23.8125
 20
13.8675
 30
0.0000
 41
1.1000
 42
1.0000
 43
1.0000
 50
90.0000
  0
LINE
  8
25
 10
24.6078
 20
13.3203
 30
0.0000
 11
24.4850
 21
13.1974
 31
0.0000
  0
LINE
  8
25
 10
24.4850
 20
13.1974
 30
0.0000
 11
24.4850
 21
12.9516
 31
0.0000
  0
LINE
  8
25
 10
24.4850
 20
12.9516
 30
0.0000
 11
24.6078
 21
12.8288
 31
0.0000
  0
LINE
  8
25
 10
24.6078
 20
12.8288
 30
0.0000
 11
25.0993
 21
12.8288
 31
0.0000
  0
LINE
  8
25
 10
25.0993
 20
12.8288
 30
0.0000
 11
25.2222
 21
12.9516
 31
0.0000
  0
LINE
  8
25
 10
25.2222
 20
12.9516
 30
0.0000
 11
25.2222
 21
13.1974
 31
0.0000
  0
LINE
  8
25
 10
25.2222
 20
13.1974
 30
0.0000
 11
25.0993
 21
13.3203
 31
0.0000
  0
LINE
  8
25
 10
24.4850
 20
14.0687
 30
0.0000
 11
24.6078
 21
13.8229
 31
0.0000
  0
LINE
  8
25
 10
24.6078
 20
13.8229
 30
0.0000
 11
24.8536
 21
13.5772
 31
0.0000
  0
LINE
  8
25
 10
24.8536
 20
13.5772
 30
0.0000
 11
25.0993
 21
13.5772
 31
0.0000
  0
LINE
  8
25
 10
25.0993
 20
13.5772
 30
0.0000
 11
25.2222
 21
13.7001
 31
0.0000
  0
LINE
  8
25
 10
25.2222
 20
13.7001
 30
0.0000
 11
25.2222
 21
13.9458
 31
0.0000
  0
LINE
  8
25
 10
25.2222
 20
13.9458
 30
0.0000
 11
25.0993
 21
14.0687
 31
0.0000
  0
LINE
  8
25
 10
25.0993
 20
14.0687
 30
0.0000
 11
24.9765
 21
14.0687
 31
0.0000
  0
LINE
  8
25
 10
24.9765
 20
14.0687
 30
0.0000
 11
24.8536
 21
13.9458
 31
0.0000
  0
LINE
  8
25
 10
24.8536
 20
13.9458
 30
0.0000
 11
24.8536
 21
13.5772
 31
0.0000
  0
POINT
  8
23
 10
8.4138
 20
9.5250
 30
0.0000
  0
LINE
  8
39
 10
9.3968
 20
10.9980
 30
0.0000
 11
9.3968
 21
8.0520
 31
0.0000
  0
LINE
  8
39
 10
9.3968
 20
8.0520
 30
0.0000
 11
7.4308
 21
8.0520
 31
0.0000
  0
LINE
  8
39
 10
7.4308
 20
8.0520
 30
0.0000
 11
7.4308
 21
10.9980
 31
0.0000
  0
LINE
  8
39
 10
7.4308
 20
10.9980
 30
0.0000
 11
9.3968
 21
10.9980
 31
0.0000
  0
LINE
  8
51
 10
8.8458
 20
9.8810
 30
0.0000
 11
8.8458
 21
9.1690
 31
0.0000
  0
LINE
  8
51
 10
7.9948
 20
9.8810
 30
0.0000
 11
7.9948
 21
9.1690
 31
0.0000
  0
INSERT
  8
51
  2
RECT
 10
8.4189
 20
10.1132
 30
0.0000
 41
0.5001
 42
0.9500
 43
1.0000
 50
270.0000
  0
INSERT
  8
51
  2
RECT
 10
8.4189
 20
8.9448
 30
0.0000
 41
0.5001
 42
0.9500
 43
1.0000
 50
270.0000
  0
INSERT
  8
35
  2
RECT
 10
8.4138
 20
9.5250
 30
0.0000
 41
0.3998
 42
0.6000
 43
1.0000
 50
270.0000
  0
INSERT
  8
1
  2
RECT
 10
8.4138
 20
10.3750
 30
0.0000
 41
1.1000
 42
1.0000
 43
1.0000
 50
270.0000
  0
INSERT
  8
31
  2
RECT
 10
8.4138
 20
10.3750
 30
0.0000
 41
1.1000
 42
1.0000
 43
1.0000
 50
270.0000
  0
INSERT
  8
1
  2
RECT
 10
8.4138
 20
8.6750
 30
0.0000
 41
1.1000
 42
1.0000
 43
1.0000
 50
270.0000
  0
INSERT
  8
31
  2
RECT
 10
8.4138
 20
8.6750
 30
0.0000
 41
1.1000
 42
1.0000
 43
1.0000
 50
270.0000
  0
LINE
  8
25
 10
9.2091
 20
9.8278
 30
0.0000
 11
9.0862
 21
9.7049
 31
0.0000
  0
LINE
  8
25
 10
9.0862
 20
9.7049
 30
0.0000
 11
9.0862
 21
9.4591
 31
0.0000
  0
LINE
  8
25
 10
9.0862
 20
9.4591
 30
0.0000
 11
9.2091
 21
9.3363
 31
0.0000
  0
LINE
  8
25
 10
9.2091
 20
9.3363
 30
0.0000
 11
9.7006
 21
9.3363
 31
0.0000
  0
LINE
  8
25
 10
9.7006
 20
9.3363
 30
0.0000
 11
9.8235
 21
9.4591
 31
0.0000
  0
LINE
  8
25
 10
9.8235
 20
9.4591
 30
0.0000
 11
9.8235
 21
9.7049
 31
0.0000
  0
LINE
  8
25
 10
9.8235
 20
9.7049
 30
0.0000
 11
9.7006
 21
9.8278
 31
0.0000
  0
LINE
  8
25
 10
9.0862
 20
10.0847
 30
0.0000
 11
9.0862
 21
10.5762
 31
0.0000
  0
LINE
  8
25
 10
9.0862
 20
10.5762
 30
0.0000
 11
9.2091
 21
10.5762
 31
0.0000
  0
LINE
  8
25
 10
9.2091
 20
10.5762
 30
0.0000
 11
9.7006
 21
10.0847
 31
0.0000
  0
LINE
  8
25
 10
9.7006
 20
10.0847
 30
0.0000
 11
9.8235
 21
10.0847
 31
0.0000
  0
POINT
  8
23
 10
16.5100
 20
18.0975
 30
0.0000
  0
LINE
  8
39
 10
15.0370
 20
19.0805
 30
0.0000
 11
17.9830
 21
19.0805
 31
0.0000
  0
LINE
  8
39
 10
17.9830
 20
19.0805
 30
0.0000
 11
17.9830
 21
17.1145
 31
0.0000
  0
LINE
  8
39
 10
17.9830
 20
17.1145
 30
0.0000
 11
15.0370
 21
17.1145
 31
0.0000
  0
LINE
  8
39
 10
15.0370
 20
17.1145
 30
0.0000
 11
15.0370
 21
19.0805
 31
0.0000
  0
LINE
  8
51
 10
16.1540
 20
18.5295
 30
0.0000
 11
16.8660
 21
18.5295
 31
0.0000
  0
LINE
  8
51
 10
16.1540
 20
17.6785
 30
0.0000
 11
16.8660
 21
17.6785
 31
0.0000
  0
INSERT
  8
51
  2
RECT
 10
15.9219
 20
18.1026
 30
0.0000
 41
0.5001
 42
0.9500
 43
1.0000
 50
0.0000
  0
INSERT
  8
51
  2
RECT
 10
17.0903
 20
18.1026
 30
0.0000
 41
0.5001
 42
0.9500
 43
1.0000
 50
0.0000
  0
INSERT
  8
35
  2
RECT
 10
16.5100
 20
18.0975
 30
0.0000
 41
0.3998
 42
0.6000
 43
1.0000
 50
0.0000
  0
INSERT
  8
1
  2
RECT
 10
15.6600
 20
18.0975
 30
0.0000
 41
1.1000
 42
1.0000
 43
1.0000
 50
0.0000
  0
INSERT
  8
31
  2
RECT
 10
15.6600
 20
18.0975
 30
0.0000
 41
1.1000
 42
1.0000
 43
1.0000
 50
0.0000
  0
INSERT
  8
1
  2
RECT
 10
17.3600
 20
18.0975
 30
0.0000
 41
1.1000
 42
1.0000
 43
1.0000
 50
0.0000
  0
INSERT
  8
31
  2
RECT
 10
17.3600
 20
18.0975
 30
0.0000
 41
1.1000
 42
1.0000
 43
1.0000
 50
0.0000
  0
LINE
  8
25
 10
19.8971
 20
18.4325
 30
0.0000
 11
19.7742
 21
18.5553
 31
0.0000
  0
LINE
  8
25
 10
19.7742
 20
18.5553
 30
0.0000
 11
19.5285
 21
18.5553
 31
0.0000
  0
LINE
  8
25
 10
19.5285
 20
18.5553
 30
0.0000
 11
19.4056
 21
18.4325
 31
0.0000
  0
LINE
  8
25
 10
19.4056
 20
18.4325
 30
0.0000
 11
19.4056
 21
17.9410
 31
0.0000
  0
LINE
  8
25
 10
19.4056
 20
17.9410
 30
0.0000
 11
19.5285
 21
17.8181
 31
0.0000
  0
LINE
  8
25
 10
19.5285
 20
17.8181
 30
0.0000
 11
19.7742
 21
17.8181
 31
0.0000
  0
LINE
  8
25
 10
19.7742
 20
17.8181
 30
0.0000
 11
19.8971
 21
17.9410
 31
0.0000
  0
LINE
  8
25
 10
20.1540
 20
18.4325
 30
0.0000
 11
20.2769
 21
18.5553
 31
0.0000
  0
LINE
  8
25
 10
20.2769
 20
18.5553
 30
0.0000
 11
20.5226
 21
18.5553
 31
0.0000
  0
LINE
  8
25
 10
20.5226
 20
18.5553
 30
0.0000
 11
20.6455
 21
18.4325
 31
0.0000
  0
LINE
  8
25
 10
20.6455
 20
18.4325
 30
0.0000
 11
20.6455
 21
18.3096
 31
0.0000
  0
LINE
  8
25
 10
20.6455
 20
18.3096
 30
0.0000
 11
20.5226
 21
18.1867
 31
0.0000
  0
LINE
  8
25
 10
20.5226
 20
18.1867
 30
0.0000
 11
20.6455
 21
18.0638
 31
0.0000
  0
LINE
  8
25
 10
20.6455
 20
18.0638
 30
0.0000
 11
20.6455
 21
17.9410
 31
0.0000
  0
LINE
  8
25
 10
20.6455
 20
17.9410
 30
0.0000
 11
20.5226
 21
17.8181
 31
0.0000
  0
LINE
  8
25
 10
20.5226
 20
17.8181
 30
0.0000
 11
20.2769
 21
17.8181
 31
0.0000
  0
LINE
  8
25
 10
20.2769
 20
17.8181
 30
0.0000
 11
20.1540
 21
17.9410
 31
0.0000
  0
LINE
  8
25
 10
20.1540
 20
17.9410
 30
0.0000
 11
20.1540
 21
18.0638
 31
0.0000
  0
LINE
  8
25
 10
20.1540
 20
18.0638
 30
0.0000
 11
20.2769
 21
18.1867
 31
0.0000
  0
LINE
  8
25
 10
20.2769
 20
18.1867
 30
0.0000
 11
20.1540
 21
18.3096
 31
0.0000
  0
LINE
  8
25
 10
20.1540
 20
18.3096
 30
0.0000
 11
20.1540
 21
18.4325
 31
0.0000
  0
LINE
  8
25
 10
20.2769
 20
18.1867
 30
0.0000
 11
20.5226
 21
18.1867
 31
0.0000
  0
POINT
  8
23
 10
6.6675
 20
1.5875
 30
0.0000
  0
LINE
  8
39
 10
5.1945
 20
2.5705
 30
0.0000
 11
8.1405
 21
2.5705
 31
0.0000
  0
LINE
  8
39
 10
8.1405
 20
2.5705
 30
0.0000
 11
8.1405
 21
0.6045
 31
0.0000
  0
LINE
  8
39
 10
8.1405
 20
0.6045
 30
0.0000
 11
5.1945
 21
0.6045
 31
0.0000
  0
LINE
  8
39
 10
5.1945
 20
0.6045
 30
0.0000
 11
5.1945
 21
2.5705
 31
0.0000
  0
LINE
  8
51
 10
6.3115
 20
2.0195
 30
0.0000
 11
7.0235
 21
2.0195
 31
0.0000
  0
LINE
  8
51
 10
6.3115
 20
1.1685
 30
0.0000
 11
7.0235
 21
1.1685
 31
0.0000
  0
INSERT
  8
51
  2
RECT
 10
6.0794
 20
1.5926
 30
0.0000
 41
0.5001
 42
0.9500
 43
1.0000
 50
0.0000
  0
INSERT
  8
51
  2
RECT
 10
7.2477
 20
1.5926
 30
0.0000
 41
0.5001
 42
0.9500
 43
1.0000
 50
0.0000
  0
INSERT
  8
35
  2
RECT
 10
6.6675
 20
1.5875
 30
0.0000
 41
0.3998
 42
0.6000
 43
1.0000
 50
0.0000
  0
INSERT
  8
1
  2
RECT
 10
5.8175
 20
1.5875
 30
0.0000
 41
1.1000
 42
1.0000
 43
1.0000
 50
0.0000
  0
INSERT
  8
31
  2
RECT
 10
5.8175
 20
1.5875
 30
0.0000
 41
1.1000
 42
1.0000
 43
1.0000
 50
0.0000
  0
INSERT
  8
1
  2
RECT
 10
7.5175
 20
1.5875
 30
0.0000
 41
1.1000
 42
1.0000
 43
1.0000
 50
0.0000
  0
INSERT
  8
31
  2
RECT
 10
7.5175
 20
1.5875
 30
0.0000
 41
1.1000
 42
1.0000
 43
1.0000
 50
0.0000
  0
LINE
  8
25
 10
5.7003
 20
0.7922
 30
0.0000
 11
5.5774
 21
0.9150
 31
0.0000
  0
LINE
  8
25
 10
5.5774
 20
0.9150
 30
0.0000
 11
5.3316
 21
0.9150
 31
0.0000
  0
LINE
  8
25
 10
5.3316
 20
0.9150
 30
0.0000
 11
5.2088
 21
0.7922
 31
0.0000
  0
LINE
  8
25
 10
5.2088
 20
0.7922
 30
0.0000
 11
5.2088
 21
0.3007
 31
0.0000
  0
LINE
  8
25
 10
5.2088
 20
0.3007
 30
0.0000
 11
5.3316
 21
0.1778
 31
0.0000
  0
LINE
  8
25
 10
5.3316
 20
0.1778
 30
0.0000
 11
5.5774
 21
0.1778
 31
0.0000
  0
LINE
  8
25
 10
5.5774
 20
0.1778
 30
0.0000
 11
5.7003
 21
0.3007
 31
0.0000
  0
LINE
  8
25
 10
5.9572
 20
0.3007
 30
0.0000
 11
6.0801
 21
0.1778
 31
0.0000
  0
LINE
  8
25
 10
6.0801
 20
0.1778
 30
0.0000
 11
6.3258
 21
0.1778
 31
0.0000
  0
LINE
  8
25
 10
6.3258
 20
0.1778
 30
0.0000
 11
6.4487
 21
0.3007
 31
0.0000
  0
LINE
  8
25
 10
6.4487
 20
0.3007
 30
0.0000
 11
6.4487
 21
0.7922
 31
0.0000
  0
LINE
  8
25
 10
6.4487
 20
0.7922
 30
0.0000
 11
6.3258
 21
0.9150
 31
0.0000
  0
LINE
  8
25
 10
6.3258
 20
0.9150
 30
0.0000
 11
6.0801
 21
0.9150
 31
0.0000
  0
LINE
  8
25
 10
6.0801
 20
0.9150
 30
0.0000
 11
5.9572
 21
0.7922
 31
0.0000
  0
LINE
  8
25
 10
5.9572
 20
0.7922
 30
0.0000
 11
5.9572
 21
0.6693
 31
0.0000
  0
LINE
  8
25
 10
5.9572
 20
0.6693
 30
0.0000
 11
6.0801
 21
0.5464
 31
0.0000
  0
LINE
  8
25
 10
6.0801
 20
0.5464
 30
0.0000
 11
6.4487
 21
0.5464
 31
0.0000
  0
POINT
  8
23
 10
6.6675
 20
20.0025
 30
0.0000
  0
LINE
  8
39
 10
5.1945
 20
20.9855
 30
0.0000
 11
8.1405
 21
20.9855
 31
0.0000
  0
LINE
  8
39
 10
8.1405
 20
20.9855
 30
0.0000
 11
8.1405
 21
19.0195
 31
0.0000
  0
LINE
  8
39
 10
8.1405
 20
19.0195
 30
0.0000
 11
5.1945
 21
19.0195
 31
0.0000
  0
LINE
  8
39
 10
5.1945
 20
19.0195
 30
0.0000
 11
5.1945
 21
20.9855
 31
0.0000
  0
LINE
  8
51
 10
6.3115
 20
20.4345
 30
0.0000
 11
7.0235
 21
20.4345
 31
0.0000
  0
LINE
  8
51
 10
6.3115
 20
19.5835
 30
0.0000
 11
7.0235
 21
19.5835
 31
0.0000
  0
INSERT
  8
51
  2
RECT
 10
6.0794
 20
20.0076
 30
0.0000
 41
0.5001
 42
0.9500
 43
1.0000
 50
0.0000
  0
INSERT
  8
51
  2
RECT
 10
7.2477
 20
20.0076
 30
0.0000
 41
0.5001
 42
0.9500
 43
1.0000
 50
0.0000
  0
INSERT
  8
35
  2
RECT
 10
6.6675
 20
20.0025
 30
0.0000
 41
0.3998
 42
0.6000
 43
1.0000
 50
0.0000
  0
INSERT
  8
1
  2
RECT
 10
5.8175
 20
20.0025
 30
0.0000
 41
1.1000
 42
1.0000
 43
1.0000
 50
0.0000
  0
INSERT
  8
31
  2
RECT
 10
5.8175
 20
20.0025
 30
0.0000
 41
1.1000
 42
1.0000
 43
1.0000
 50
0.0000
  0
INSERT
  8
1
  2
RECT
 10
7.5175
 20
20.0025
 30
0.0000
 41
1.1000
 42
1.0000
 43
1.0000
 50
0.0000
  0
INSERT
  8
31
  2
RECT
 10
7.5175
 20
20.0025
 30
0.0000
 41
1.1000
 42
1.0000
 43
1.0000
 50
0.0000
  0
LINE
  8
25
 10
5.9271
 20
21.2900
 30
0.0000
 11
5.8042
 21
21.4128
 31
0.0000
  0
LINE
  8
25
 10
5.8042
 20
21.4128
 30
0.0000
 11
5.5585
 21
21.4128
 31
0.0000
  0
LINE
  8
25
 10
5.5585
 20
21.4128
 30
0.0000
 11
5.4356
 21
21.2900
 31
0.0000
  0
LINE
  8
25
 10
5.4356
 20
21.2900
 30
0.0000
 11
5.4356
 21
20.7985
 31
0.0000
  0
LINE
  8
25
 10
5.4356
 20
20.7985
 30
0.0000
 11
5.5585
 21
20.6756
 31
0.0000
  0
LINE
  8
25
 10
5.5585
 20
20.6756
 30
0.0000
 11
5.8042
 21
20.6756
 31
0.0000
  0
LINE
  8
25
 10
5.8042
 20
20.6756
 30
0.0000
 11
5.9271
 21
20.7985
 31
0.0000
  0
LINE
  8
25
 10
6.1840
 20
21.1671
 30
0.0000
 11
6.4298
 21
21.4128
 31
0.0000
  0
LINE
  8
25
 10
6.4298
 20
21.4128
 30
0.0000
 11
6.4298
 21
20.6756
 31
0.0000
  0
LINE
  8
25
 10
6.1840
 20
20.6756
 30
0.0000
 11
6.6755
 21
20.6756
 31
0.0000
  0
LINE
  8
25
 10
6.9324
 20
20.7985
 30
0.0000
 11
6.9324
 21
21.2900
 31
0.0000
  0
LINE
  8
25
 10
6.9324
 20
21.2900
 30
0.0000
 11
7.0553
 21
21.4128
 31
0.0000
  0
LINE
  8
25
 10
7.0553
 20
21.4128
 30
0.0000
 11
7.3010
 21
21.4128
 31
0.0000
  0
LINE
  8
25
 10
7.3010
 20
21.4128
 30
0.0000
 11
7.4239
 21
21.2900
 31
0.0000
  0
LINE
  8
25
 10
7.4239
 20
21.2900
 30
0.0000
 11
7.4239
 21
20.7985
 31
0.0000
  0
LINE
  8
25
 10
7.4239
 20
20.7985
 30
0.0000
 11
7.3010
 21
20.6756
 31
0.0000
  0
LINE
  8
25
 10
7.3010
 20
20.6756
 30
0.0000
 11
7.0553
 21
20.6756
 31
0.0000
  0
LINE
  8
25
 10
7.0553
 20
20.6756
 30
0.0000
 11
6.9324
 21
20.7985
 31
0.0000
  0
LINE
  8
25
 10
6.9324
 20
20.7985
 30
0.0000
 11
7.4239
 21
21.2900
 31
0.0000
  0
POINT
  8
23
 10
14.9225
 20
3.8100
 30
0.0000
  0
LINE
  8
39
 10
13.4495
 20
4.7930
 30
0.0000
 11
16.3955
 21
4.7930
 31
0.0000
  0
LINE
  8
39
 10
16.3955
 20
4.7930
 30
0.0000
 11
16.3955
 21
2.8270
 31
0.0000
  0
LINE
  8
39
 10
16.3955
 20
2.8270
 30
0.0000
 11
13.4495
 21
2.8270
 31
0.0000
  0
LINE
  8
39
 10
13.4495
 20
2.8270
 30
0.0000
 11
13.4495
 21
4.7930
 31
0.0000
  0
LINE
  8
51
 10
14.5665
 20
4.2420
 30
0.0000
 11
15.2785
 21
4.2420
 31
0.0000
  0
LINE
  8
51
 10
14.5665
 20
3.3910
 30
0.0000
 11
15.2785
 21
3.3910
 31
0.0000
  0
INSERT
  8
51
  2
RECT
 10
14.3344
 20
3.8151
 30
0.0000
 41
0.5001
 42
0.9500
 43
1.0000
 50
0.0000
  0
INSERT
  8
51
  2
RECT
 10
15.5028
 20
3.8151
 30
0.0000
 41
0.5001
 42
0.9500
 43
1.0000
 50
0.0000
  0
INSERT
  8
35
  2
RECT
 10
14.9225
 20
3.8100
 30
0.0000
 41
0.3998
 42
0.6000
 43
1.0000
 50
0.0000
  0
INSERT
  8
1
  2
RECT
 10
14.0725
 20
3.8100
 30
0.0000
 41
1.1000
 42
1.0000
 43
1.0000
 50
0.0000
  0
INSERT
  8
31
  2
RECT
 10
14.0725
 20
3.8100
 30
0.0000
 41
1.1000
 42
1.0000
 43
1.0000
 50
0.0000
  0
INSERT
  8
1
  2
RECT
 10
15.7725
 20
3.8100
 30
0.0000
 41
1.1000
 42
1.0000
 43
1.0000
 50
0.0000
  0
INSERT
  8
31
  2
RECT
 10
15.7725
 20
3.8100
 30
0.0000
 41
1.1000
 42
1.0000
 43
1.0000
 50
0.0000
  0
LINE
  8
25
 10
14.1821
 20
5.0975
 30
0.0000
 11
14.0592
 21
5.2203
 31
0.0000
  0
LINE
  8
25
 10
14.0592
 20
5.2203
 30
0.0000
 11
13.8135
 21
5.2203
 31
0.0000
  0
LINE
  8
25
 10
13.8135
 20
5.2203
 30
0.0000
 11
13.6906
 21
5.0975
 31
0.0000
  0
LINE
  8
25
 10
13.6906
 20
5.0975
 30
0.0000
 11
13.6906
 21
4.6060
 31
0.0000
  0
LINE
  8
25
 10
13.6906
 20
4.6060
 30
0.0000
 11
13.8135
 21
4.4831
 31
0.0000
  0
LINE
  8
25
 10
13.8135
 20
4.4831
 30
0.0000
 11
14.0592
 21
4.4831
 31
0.0000
  0
LINE
  8
25
 10
14.0592
 20
4.4831
 30
0.0000
 11
14.1821
 21
4.6060
 31
0.0000
  0
LINE
  8
25
 10
14.4390
 20
4.9746
 30
0.0000
 11
14.6848
 21
5.2203
 31
0.0000
  0
LINE
  8
25
 10
14.6848
 20
5.2203
 30
0.0000
 11
14.6848
 21
4.4831
 31
0.0000
  0
LINE
  8
25
 10
14.4390
 20
4.4831
 30
0.0000
 11
14.9305
 21
4.4831
 31
0.0000
  0
LINE
  8
25
 10
15.1874
 20
4.9746
 30
0.0000
 11
15.4332
 21
5.2203
 31
0.0000
  0
LINE
  8
25
 10
15.4332
 20
5.2203
 30
0.0000
 11
15.4332
 21
4.4831
 31
0.0000
  0
LINE
  8
25
 10
15.1874
 20
4.4831
 30
0.0000
 11
15.6789
 21
4.4831
 31
0.0000
  0
POINT
  8
23
 10
22.7013
 20
3.4925
 30
0.0000
  0
LINE
  8
51
 10
22.2913
 20
4.1275
 30
0.0000
 11
23.1113
 21
4.1275
 31
0.0000
  0
LINE
  8
51
 10
22.2913
 20
2.8575
 30
0.0000
 11
23.1113
 21
2.8575
 31
0.0000
  0
LINE
  8
39
 10
20.7283
 20
4.4755
 30
0.0000
 11
24.6743
 21
4.4755
 31
0.0000
  0
LINE
  8
39
 10
24.6743
 20
4.4755
 30
0.0000
 11
24.6743
 21
2.5095
 31
0.0000
  0
LINE
  8
39
 10
24.6743
 20
2.5095
 30
0.0000
 11
20.7283
 21
2.5095
 31
0.0000
  0
LINE
  8
39
 10
20.7283
 20
2.5095
 30
0.0000
 11
20.7283
 21
4.4755
 31
0.0000
  0
LINE
  8
21
 10
21.6852
 20
4.3815
 30
0.0000
 11
20.7963
 21
4.3815
 31
0.0000
  0
LINE
  8
21
 10
20.7963
 20
4.3815
 30
0.0000
 11
20.7963
 21
2.6035
 31
0.0000
  0
LINE
  8
21
 10
20.7963
 20
2.6035
 30
0.0000
 11
21.6852
 21
2.6035
 31
0.0000
  0
LINE
  8
25
 10
22.1171
 20
5.9827
 30
0.0000
 11
22.1171
 21
4.8133
 31
0.0000
  0
LINE
  8
25
 10
22.1171
 20
4.8133
 30
0.0000
 11
22.7017
 21
4.8133
 31
0.0000
  0
LINE
  8
25
 10
22.7017
 20
4.8133
 30
0.0000
 11
22.8966
 21
5.0082
 31
0.0000
  0
LINE
  8
25
 10
22.8966
 20
5.0082
 30
0.0000
 11
22.8966
 21
5.7878
 31
0.0000
  0
LINE
  8
25
 10
22.8966
 20
5.7878
 30
0.0000
 11
22.7017
 21
5.9827
 31
0.0000
  0
LINE
  8
25
 10
22.7017
 20
5.9827
 30
0.0000
 11
22.1171
 21
5.9827
 31
0.0000
  0
LINE
  8
25
 10
23.2864
 20
5.5929
 30
0.0000
 11
23.6762
 21
5.9827
 31
0.0000
  0
LINE
  8
25
 10
23.6762
 20
5.9827
 30
0.0000
 11
23.6762
 21
4.8133
 31
0.0000
  0
LINE
  8
25
 10
23.2864
 20
4.8133
 30
0.0000
 11
24.0660
 21
4.8133
 31
0.0000
  0
INSERT
  8
51
  2
RECT
 10
23.4327
 20
3.4940
 30
0.0000
 41
0.6500
 42
1.4000
 43
1.0000
 50
0.0000
  0
INSERT
  8
51
  2
RECT
 10
21.9595
 20
3.4940
 30
0.0000
 41
0.6500
 42
1.4000
 43
1.0000
 50
0.0000
  0
INSERT
  8
35
  2
RECT
 10
22.7013
 20
3.4925
 30
0.0000
 41
0.3998
 42
1.0002
 43
1.0000
 50
0.0000
  0
INSERT
  8
1
  2
RECT
 10
21.7513
 20
3.4925
 30
0.0000
 41
1.3000
 42
1.5000
 43
1.0000
 50
0.0000
  0
INSERT
  8
31
  2
RECT
 10
21.7513
 20
3.4925
 30
0.0000
 41
1.3000
 42
1.5000
 43
1.0000
 50
0.0000
  0
INSERT
  8
1
  2
RECT
 10
23.6513
 20
3.4925
 30
0.0000
 41
1.3000
 42
1.5000
 43
1.0000
 50
0.0000
  0
INSERT
  8
31
  2
RECT
 10
23.6513
 20
3.4925
 30
0.0000
 41
1.3000
 42
1.5000
 43
1.0000
 50
0.0000
  0
POINT
  8
23
 10
4.1275
 20
6.9850
 30
0.0000
  0
LINE
  8
21
 10
0.6275
 20
5.4850
 30
0.0000
 11
0.6275
 21
16.4850
 31
0.0000
  0
LINE
  8
21
 10
0.6275
 20
16.4850
 30
0.0000
 11
7.6275
 21
16.4850
 31
0.0000
  0
LINE
  8
21
 10
7.6275
 20
16.4850
 30
0.0000
 11
7.6275
 21
5.4850
 31
0.0000
  0
LINE
  8
21
 10
7.6275
 20
5.4850
 30
0.0000
 11
0.6275
 21
5.4850
 31
0.0000
  0
INSERT
  8
17
  2
SQUAREP
 10
4.1275
 20
6.9850
 30
0.0000
 41
1.9500
 42
1.9500
 43
1.0000
 50
180.0000
  0
INSERT
  8
17
  2
SQUAREP
 10
4.1275
 20
6.9850
 30
0.0000
 41
1.9500
 42
1.9500
 43
1.0000
 50
180.0000
  0
CIRCLE
  8
44
 10
4.1275
 20
6.9850
 30
0.0000
 40
0.6500
  0
INSERT
  8
17
  2
ROUNDP
 10
4.1275
 20
9.5250
 30
0.0000
 41
1.9500
 42
1.9500
 43
1.0000
 50
180.0000
  0
INSERT
  8
17
  2
ROUNDP
 10
4.1275
 20
9.5250
 30
0.0000
 41
1.9500
 42
1.9500
 43
1.0000
 50
180.0000
  0
CIRCLE
  8
44
 10
4.1275
 20
9.5250
 30
0.0000
 40
0.6500
  0
INSERT
  8
17
  2
ROUNDP
 10
4.1275
 20
12.0650
 30
0.0000
 41
1.9500
 42
1.9500
 43
1.0000
 50
180.0000
  0
INSERT
  8
17
  2
ROUNDP
 10
4.1275
 20
12.0650
 30
0.0000
 41
1.9500
 42
1.9500
 43
1.0000
 50
180.0000
  0
CIRCLE
  8
44
 10
4.1275
 20
12.0650
 30
0.0000
 40
0.6500
  0
INSERT
  8
17
  2
ROUNDP
 10
4.1275
 20
14.6050
 30
0.0000
 41
1.9500
 42
1.9500
 43
1.0000
 50
180.0000
  0
INSERT
  8
17
  2
ROUNDP
 10
4.1275
 20
14.6050
 30
0.0000
 41
1.9500
 42
1.9500
 43
1.0000
 50
180.0000
  0
CIRCLE
  8
44
 10
4.1275
 20
14.6050
 30
0.0000
 40
0.6500
  0
LINE
  8
25
 10
0.5631
 20
4.4785
 30
0.0000
 11
0.6860
 21
4.3556
 31
0.0000
  0
LINE
  8
25
 10
0.6860
 20
4.3556
 30
0.0000
 11
0.8088
 21
4.3556
 31
0.0000
  0
LINE
  8
25
 10
0.8088
 20
4.3556
 30
0.0000
 11
0.9317
 21
4.4785
 31
0.0000
  0
LINE
  8
25
 10
0.9317
 20
4.4785
 30
0.0000
 11
0.9317
 21
5.0928
 31
0.0000
  0
LINE
  8
25
 10
0.8088
 20
5.0928
 30
0.0000
 11
1.0546
 21
5.0928
 31
0.0000
  0
LINE
  8
25
 10
1.3115
 20
4.8471
 30
0.0000
 11
1.5573
 21
5.0928
 31
0.0000
  0
LINE
  8
25
 10
1.5573
 20
5.0928
 30
0.0000
 11
1.5573
 21
4.3556
 31
0.0000
  0
LINE
  8
25
 10
1.3115
 20
4.3556
 30
0.0000
 11
1.8030
 21
4.3556
 31
0.0000
  0
POINT
  8
23
 10
6.6675
 20
3.6513
 30
0.0000
  0
LINE
  8
51
 10
6.2355
 20
3.2953
 30
0.0000
 11
7.0995
 21
3.2953
 31
0.0000
  0
LINE
  8
51
 10
7.0995
 20
4.0072
 30
0.0000
 11
6.2355
 21
4.0072
 31
0.0000
  0
LINE
  8
39
 10
5.1945
 20
4.6343
 30
0.0000
 11
8.1405
 21
4.6343
 31
0.0000
  0
LINE
  8
39
 10
8.1405
 20
4.6343
 30
0.0000
 11
8.1405
 21
2.6683
 31
0.0000
  0
LINE
  8
39
 10
8.1405
 20
2.6683
 30
0.0000
 11
5.1945
 21
2.6683
 31
0.0000
  0
LINE
  8
39
 10
5.1945
 20
2.6683
 30
0.0000
 11
5.1945
 21
4.6343
 31
0.0000
  0
INSERT
  8
51
  2
RECT
 10
7.3025
 20
3.6513
 30
0.0000
 41
0.4064
 42
0.8636
 43
1.0000
 50
0.0000
  0
INSERT
  8
51
  2
RECT
 10
6.0325
 20
3.6513
 30
0.0000
 41
0.4064
 42
0.8636
 43
1.0000
 50
0.0000
  0
INSERT
  8
35
  2
RECT
 10
6.6675
 20
3.6513
 30
0.0000
 41
0.3998
 42
0.8002
 43
1.0000
 50
0.0000
  0
INSERT
  8
1
  2
RECT
 10
5.8175
 20
3.6513
 30
0.0000
 41
1.0000
 42
1.1000
 43
1.0000
 50
0.0000
  0
INSERT
  8
31
  2
RECT
 10
5.8175
 20
3.6513
 30
0.0000
 41
1.0000
 42
1.1000
 43
1.0000
 50
0.0000
  0
INSERT
  8
1
  2
RECT
 10
7.5175
 20
3.6513
 30
0.0000
 41
1.0000
 42
1.1000
 43
1.0000
 50
0.0000
  0
INSERT
  8
31
  2
RECT
 10
7.5175
 20
3.6513
 30
0.0000
 41
1.0000
 42
1.1000
 43
1.0000
 50
0.0000
  0
LINE
  8
25
 10
5.2088
 20
2.2416
 30
0.0000
 11
5.2088
 21
2.9788
 31
0.0000
  0
LINE
  8
25
 10
5.2088
 20
2.9788
 30
0.0000
 11
5.5774
 21
2.9788
 31
0.0000
  0
LINE
  8
25
 10
5.5774
 20
2.9788
 30
0.0000
 11
5.7003
 21
2.8559
 31
0.0000
  0
LINE
  8
25
 10
5.7003
 20
2.8559
 30
0.0000
 11
5.7003
 21
2.6102
 31
0.0000
  0
LINE
  8
25
 10
5.7003
 20
2.6102
 30
0.0000
 11
5.5774
 21
2.4873
 31
0.0000
  0
LINE
  8
25
 10
5.5774
 20
2.4873
 30
0.0000
 11
5.2088
 21
2.4873
 31
0.0000
  0
LINE
  8
25
 10
5.4545
 20
2.4873
 30
0.0000
 11
5.7003
 21
2.2416
 31
0.0000
  0
LINE
  8
25
 10
5.9572
 20
2.7330
 30
0.0000
 11
6.2029
 21
2.9788
 31
0.0000
  0
LINE
  8
25
 10
6.2029
 20
2.9788
 30
0.0000
 11
6.2029
 21
2.2416
 31
0.0000
  0
LINE
  8
25
 10
5.9572
 20
2.2416
 30
0.0000
 11
6.4487
 21
2.2416
 31
0.0000
  0
POINT
  8
23
 10
6.6675
 20
17.7800
 30
0.0000
  0
LINE
  8
51
 10
6.2355
 20
17.4240
 30
0.0000
 11
7.0995
 21
17.4240
 31
0.0000
  0
LINE
  8
51
 10
7.0995
 20
18.1360
 30
0.0000
 11
6.2355
 21
18.1360
 31
0.0000
  0
LINE
  8
39
 10
5.1945
 20
18.7630
 30
0.0000
 11
8.1405
 21
18.7630
 31
0.0000
  0
LINE
  8
39
 10
8.1405
 20
18.7630
 30
0.0000
 11
8.1405
 21
16.7970
 31
0.0000
  0
LINE
  8
39
 10
8.1405
 20
16.7970
 30
0.0000
 11
5.1945
 21
16.7970
 31
0.0000
  0
LINE
  8
39
 10
5.1945
 20
16.7970
 30
0.0000
 11
5.1945
 21
18.7630
 31
0.0000
  0
INSERT
  8
51
  2
RECT
 10
7.3025
 20
17.7800
 30
0.0000
 41
0.4064
 42
0.8636
 43
1.0000
 50
0.0000
  0
INSERT
  8
51
  2
RECT
 10
6.0325
 20
17.7800
 30
0.0000
 41
0.4064
 42
0.8636
 43
1.0000
 50
0.0000
  0
INSERT
  8
35
  2
RECT
 10
6.6675
 20
17.7800
 30
0.0000
 41
0.3998
 42
0.8002
 43
1.0000
 50
0.0000
  0
INSERT
  8
1
  2
RECT
 10
5.8175
 20
17.7800
 30
0.0000
 41
1.0000
 42
1.1000
 43
1.0000
 50
0.0000
  0
INSERT
  8
31
  2
RECT
 10
5.8175
 20
17.7800
 30
0.0000
 41
1.0000
 42
1.1000
 43
1.0000
 50
0.0000
  0
INSERT
  8
1
  2
RECT
 10
7.5175
 20
17.7800
 30
0.0000
 41
1.0000
 42
1.1000
 43
1.0000
 50
0.0000
  0
INSERT
  8
31
  2
RECT
 10
7.5175
 20
17.7800
 30
0.0000
 41
1.0000
 42
1.1000
 43
1.0000
 50
0.0000
  0
LINE
  8
25
 10
5.4356
 20
18.4531
 30
0.0000
 11
5.4356
 21
19.1903
 31
0.0000
  0
LINE
  8
25
 10
5.4356
 20
19.1903
 30
0.0000
 11
5.8042
 21
19.1903
 31
0.0000
  0
LINE
  8
25
 10
5.8042
 20
19.1903
 30
0.0000
 11
5.9271
 21
19.0675
 31
0.0000
  0
LINE
  8
25
 10
5.9271
 20
19.0675
 30
0.0000
 11
5.9271
 21
18.8217
 31
0.0000
  0
LINE
  8
25
 10
5.9271
 20
18.8217
 30
0.0000
 11
5.8042
 21
18.6988
 31
0.0000
  0
LINE
  8
25
 10
5.8042
 20
18.6988
 30
0.0000
 11
5.4356
 21
18.6988
 31
0.0000
  0
LINE
  8
25
 10
5.6813
 20
18.6988
 30
0.0000
 11
5.9271
 21
18.4531
 31
0.0000
  0
LINE
  8
25
 10
6.6755
 20
18.4531
 30
0.0000
 11
6.1840
 21
18.4531
 31
0.0000
  0
LINE
  8
25
 10
6.1840
 20
18.4531
 30
0.0000
 11
6.6755
 21
18.9446
 31
0.0000
  0
LINE
  8
25
 10
6.6755
 20
18.9446
 30
0.0000
 11
6.6755
 21
19.0675
 31
0.0000
  0
LINE
  8
25
 10
6.6755
 20
19.0675
 30
0.0000
 11
6.5526
 21
19.1903
 31
0.0000
  0
LINE
  8
25
 10
6.5526
 20
19.1903
 30
0.0000
 11
6.3069
 21
19.1903
 31
0.0000
  0
LINE
  8
25
 10
6.3069
 20
19.1903
 30
0.0000
 11
6.1840
 21
19.0675
 31
0.0000
  0
POINT
  8
23
 10
19.3675
 20
3.1750
 30
0.0000
  0
LINE
  8
51
 10
19.7235
 20
2.7430
 30
0.0000
 11
19.7235
 21
3.6070
 31
0.0000
  0
LINE
  8
51
 10
19.0115
 20
3.6070
 30
0.0000
 11
19.0115
 21
2.7430
 31
0.0000
  0
LINE
  8
39
 10
18.3845
 20
1.7020
 30
0.0000
 11
18.3845
 21
4.6480
 31
0.0000
  0
LINE
  8
39
 10
18.3845
 20
4.6480
 30
0.0000
 11
20.3505
 21
4.6480
 31
0.0000
  0
LINE
  8
39
 10
20.3505
 20
4.6480
 30
0.0000
 11
20.3505
 21
1.7020
 31
0.0000
  0
LINE
  8
39
 10
20.3505
 20
1.7020
 30
0.0000
 11
18.3845
 21
1.7020
 31
0.0000
  0
INSERT
  8
51
  2
RECT
 10
19.3675
 20
3.8100
 30
0.0000
 41
0.4064
 42
0.8636
 43
1.0000
 50
90.0000
  0
INSERT
  8
51
  2
RECT
 10
19.3675
 20
2.5400
 30
0.0000
 41
0.4064
 42
0.8636
 43
1.0000
 50
90.0000
  0
INSERT
  8
35
  2
RECT
 10
19.3675
 20
3.1750
 30
0.0000
 41
0.3998
 42
0.8002
 43
1.0000
 50
90.0000
  0
INSERT
  8
1
  2
RECT
 10
19.3675
 20
2.3250
 30
0.0000
 41
1.0000
 42
1.1000
 43
1.0000
 50
90.0000
  0
INSERT
  8
31
  2
RECT
 10
19.3675
 20
2.3250
 30
0.0000
 41
1.0000
 42
1.1000
 43
1.0000
 50
90.0000
  0
INSERT
  8
1
  2
RECT
 10
19.3675
 20
4.0250
 30
0.0000
 41
1.0000
 42
1.1000
 43
1.0000
 50
90.0000
  0
INSERT
  8
31
  2
RECT
 10
19.3675
 20
4.0250
 30
0.0000
 41
1.0000
 42
1.1000
 43
1.0000
 50
90.0000
  0
LINE
  8
25
 10
18.6944
 20
2.2606
 30
0.0000
 11
17.9572
 21
2.2606
 31
0.0000
  0
LINE
  8
25
 10
17.9572
 20
2.2606
 30
0.0000
 11
17.9572
 21
2.6292
 31
0.0000
  0
LINE
  8
25
 10
17.9572
 20
2.6292
 30
0.0000
 11
18.0800
 21
2.7521
 31
0.0000
  0
LINE
  8
25
 10
18.0800
 20
2.7521
 30
0.0000
 11
18.3258
 21
2.7521
 31
0.0000
  0
LINE
  8
25
 10
18.3258
 20
2.7521
 30
0.0000
 11
18.4487
 21
2.6292
 31
0.0000
  0
LINE
  8
25
 10
18.4487
 20
2.6292
 30
0.0000
 11
18.4487
 21
2.2606
 31
0.0000
  0
LINE
  8
25
 10
18.4487
 20
2.5063
 30
0.0000
 11
18.6944
 21
2.7521
 31
0.0000
  0
LINE
  8
25
 10
18.0800
 20
3.0090
 30
0.0000
 11
17.9572
 21
3.1319
 31
0.0000
  0
LINE
  8
25
 10
17.9572
 20
3.1319
 30
0.0000
 11
17.9572
 21
3.3776
 31
0.0000
  0
LINE
  8
25
 10
17.9572
 20
3.3776
 30
0.0000
 11
18.0800
 21
3.5005
 31
0.0000
  0
LINE
  8
25
 10
18.0800
 20
3.5005
 30
0.0000
 11
18.2029
 21
3.5005
 31
0.0000
  0
LINE
  8
25
 10
18.2029
 20
3.5005
 30
0.0000
 11
18.3258
 21
3.3776
 31
0.0000
  0
LINE
  8
25
 10
18.3258
 20
3.3776
 30
0.0000
 11
18.3258
 21
3.2548
 31
0.0000
  0
LINE
  8
25
 10
18.3258
 20
3.3776
 30
0.0000
 11
18.4487
 21
3.5005
 31
0.0000
  0
LINE
  8
25
 10
18.4487
 20
3.5005
 30
0.0000
 11
18.5715
 21
3.5005
 31
0.0000
  0
LINE
  8
25
 10
18.5715
 20
3.5005
 30
0.0000
 11
18.6944
 21
3.3776
 31
0.0000
  0
LINE
  8
25
 10
18.6944
 20
3.3776
 30
0.0000
 11
18.6944
 21
3.1319
 31
0.0000
  0
LINE
  8
25
 10
18.6944
 20
3.1319
 30
0.0000
 11
18.5715
 21
3.0090
 31
0.0000
  0
POINT
  8
23
 10
12.0650
 20
8.8900
 30
0.0000
  0
LINE
  8
51
 10
12.4210
 20
8.4580
 30
0.0000
 11
12.4210
 21
9.3220
 31
0.0000
  0
LINE
  8
51
 10
11.7090
 20
9.3220
 30
0.0000
 11
11.7090
 21
8.4580
 31
0.0000
  0
LINE
  8
39
 10
11.0820
 20
7.4170
 30
0.0000
 11
11.0820
 21
10.3630
 31
0.0000
  0
LINE
  8
39
 10
11.0820
 20
10.3630
 30
0.0000
 11
13.0480
 21
10.3630
 31
0.0000
  0
LINE
  8
39
 10
13.0480
 20
10.3630
 30
0.0000
 11
13.0480
 21
7.4170
 31
0.0000
  0
LINE
  8
39
 10
13.0480
 20
7.4170
 30
0.0000
 11
11.0820
 21
7.4170
 31
0.0000
  0
INSERT
  8
51
  2
RECT
 10
12.0650
 20
9.5250
 30
0.0000
 41
0.4064
 42
0.8636
 43
1.0000
 50
90.0000
  0
INSERT
  8
51
  2
RECT
 10
12.0650
 20
8.2550
 30
0.0000
 41
0.4064
 42
0.8636
 43
1.0000
 50
90.0000
  0
INSERT
  8
35
  2
RECT
 10
12.0650
 20
8.8900
 30
0.0000
 41
0.3998
 42
0.8002
 43
1.0000
 50
90.0000
  0
INSERT
  8
1
  2
RECT
 10
12.0650
 20
8.0400
 30
0.0000
 41
1.0000
 42
1.1000
 43
1.0000
 50
90.0000
  0
INSERT
  8
31
  2
RECT
 10
12.0650
 20
8.0400
 30
0.0000
 41
1.0000
 42
1.1000
 43
1.0000
 50
90.0000
  0
INSERT
  8
1
  2
RECT
 10
12.0650
 20
9.7400
 30
0.0000
 41
1.0000
 42
1.1000
 43
1.0000
 50
90.0000
  0
INSERT
  8
31
  2
RECT
 10
12.0650
 20
9.7400
 30
0.0000
 41
1.0000
 42
1.1000
 43
1.0000
 50
90.0000
  0
LINE
  8
25
 10
11.3919
 20
7.6581
 30
0.0000
 11
10.6547
 21
7.6581
 31
0.0000
  0
LINE
  8
25
 10
10.6547
 20
7.6581
 30
0.0000
 11
10.6547
 21
8.0267
 31
0.0000
  0
LINE
  8
25
 10
10.6547
 20
8.0267
 30
0.0000
 11
10.7775
 21
8.1496
 31
0.0000
  0
LINE
  8
25
 10
10.7775
 20
8.1496
 30
0.0000
 11
11.0233
 21
8.1496
 31
0.0000
  0
LINE
  8
25
 10
11.0233
 20
8.1496
 30
0.0000
 11
11.1462
 21
8.0267
 31
0.0000
  0
LINE
  8
25
 10
11.1462
 20
8.0267
 30
0.0000
 11
11.1462
 21
7.6581
 31
0.0000
  0
LINE
  8
25
 10
11.1462
 20
7.9038
 30
0.0000
 11
11.3919
 21
8.1496
 31
0.0000
  0
LINE
  8
25
 10
10.9004
 20
8.4065
 30
0.0000
 11
10.6547
 21
8.6523
 31
0.0000
  0
LINE
  8
25
 10
10.6547
 20
8.6523
 30
0.0000
 11
11.3919
 21
8.6523
 31
0.0000
  0
LINE
  8
25
 10
11.3919
 20
8.4065
 30
0.0000
 11
11.3919
 21
8.8980
 31
0.0000
  0
LINE
  8
25
 10
10.9004
 20
9.1549
 30
0.0000
 11
10.6547
 21
9.4007
 31
0.0000
  0
LINE
  8
25
 10
10.6547
 20
9.4007
 30
0.0000
 11
11.3919
 21
9.4007
 31
0.0000
  0
LINE
  8
25
 10
11.3919
 20
9.1549
 30
0.0000
 11
11.3919
 21
9.6464
 31
0.0000
  0
POINT
  8
23
 10
14.9225
 20
6.0325
 30
0.0000
  0
LINE
  8
51
 10
14.4905
 20
5.6765
 30
0.0000
 11
15.3545
 21
5.6765
 31
0.0000
  0
LINE
  8
51
 10
15.3545
 20
6.3885
 30
0.0000
 11
14.4905
 21
6.3885
 31
0.0000
  0
LINE
  8
39
 10
13.4495
 20
7.0155
 30
0.0000
 11
16.3955
 21
7.0155
 31
0.0000
  0
LINE
  8
39
 10
16.3955
 20
7.0155
 30
0.0000
 11
16.3955
 21
5.0495
 31
0.0000
  0
LINE
  8
39
 10
16.3955
 20
5.0495
 30
0.0000
 11
13.4495
 21
5.0495
 31
0.0000
  0
LINE
  8
39
 10
13.4495
 20
5.0495
 30
0.0000
 11
13.4495
 21
7.0155
 31
0.0000
  0
INSERT
  8
51
  2
RECT
 10
15.5575
 20
6.0325
 30
0.0000
 41
0.4064
 42
0.8636
 43
1.0000
 50
0.0000
  0
INSERT
  8
51
  2
RECT
 10
14.2875
 20
6.0325
 30
0.0000
 41
0.4064
 42
0.8636
 43
1.0000
 50
0.0000
  0
INSERT
  8
35
  2
RECT
 10
14.9225
 20
6.0325
 30
0.0000
 41
0.3998
 42
0.8002
 43
1.0000
 50
0.0000
  0
INSERT
  8
1
  2
RECT
 10
14.0725
 20
6.0325
 30
0.0000
 41
1.0000
 42
1.1000
 43
1.0000
 50
0.0000
  0
INSERT
  8
31
  2
RECT
 10
14.0725
 20
6.0325
 30
0.0000
 41
1.0000
 42
1.1000
 43
1.0000
 50
0.0000
  0
INSERT
  8
1
  2
RECT
 10
15.7725
 20
6.0325
 30
0.0000
 41
1.0000
 42
1.1000
 43
1.0000
 50
0.0000
  0
INSERT
  8
31
  2
RECT
 10
15.7725
 20
6.0325
 30
0.0000
 41
1.0000
 42
1.1000
 43
1.0000
 50
0.0000
  0
LINE
  8
25
 10
13.6906
 20
6.7056
 30
0.0000
 11
13.6906
 21
7.4428
 31
0.0000
  0
LINE
  8
25
 10
13.6906
 20
7.4428
 30
0.0000
 11
14.0592
 21
7.4428
 31
0.0000
  0
LINE
  8
25
 10
14.0592
 20
7.4428
 30
0.0000
 11
14.1821
 21
7.3200
 31
0.0000
  0
LINE
  8
25
 10
14.1821
 20
7.3200
 30
0.0000
 11
14.1821
 21
7.0742
 31
0.0000
  0
LINE
  8
25
 10
14.1821
 20
7.0742
 30
0.0000
 11
14.0592
 21
6.9513
 31
0.0000
  0
LINE
  8
25
 10
14.0592
 20
6.9513
 30
0.0000
 11
13.6906
 21
6.9513
 31
0.0000
  0
LINE
  8
25
 10
13.9363
 20
6.9513
 30
0.0000
 11
14.1821
 21
6.7056
 31
0.0000
  0
LINE
  8
25
 10
14.4390
 20
7.1971
 30
0.0000
 11
14.6848
 21
7.4428
 31
0.0000
  0
LINE
  8
25
 10
14.6848
 20
7.4428
 30
0.0000
 11
14.6848
 21
6.7056
 31
0.0000
  0
LINE
  8
25
 10
14.4390
 20
6.7056
 30
0.0000
 11
14.9305
 21
6.7056
 31
0.0000
  0
LINE
  8
25
 10
15.6789
 20
6.7056
 30
0.0000
 11
15.1874
 21
6.7056
 31
0.0000
  0
LINE
  8
25
 10
15.1874
 20
6.7056
 30
0.0000
 11
15.6789
 21
7.1971
 31
0.0000
  0
LINE
  8
25
 10
15.6789
 20
7.1971
 30
0.0000
 11
15.6789
 21
7.3200
 31
0.0000
  0
LINE
  8
25
 10
15.6789
 20
7.3200
 30
0.0000
 11
15.5560
 21
7.4428
 31
0.0000
  0
LINE
  8
25
 10
15.5560
 20
7.4428
 30
0.0000
 11
15.3103
 21
7.4428
 31
0.0000
  0
LINE
  8
25
 10
15.3103
 20
7.4428
 30
0.0000
 11
15.1874
 21
7.3200
 31
0.0000
  0
POINT
  8
23
 10
19.3675
 20
6.0325
 30
0.0000
  0
LINE
  8
51
 10
18.9355
 20
5.6765
 30
0.0000
 11
19.7995
 21
5.6765
 31
0.0000
  0
LINE
  8
51
 10
19.7995
 20
6.3885
 30
0.0000
 11
18.9355
 21
6.3885
 31
0.0000
  0
LINE
  8
39
 10
17.8945
 20
7.0155
 30
0.0000
 11
20.8405
 21
7.0155
 31
0.0000
  0
LINE
  8
39
 10
20.8405
 20
7.0155
 30
0.0000
 11
20.8405
 21
5.0495
 31
0.0000
  0
LINE
  8
39
 10
20.8405
 20
5.0495
 30
0.0000
 11
17.8945
 21
5.0495
 31
0.0000
  0
LINE
  8
39
 10
17.8945
 20
5.0495
 30
0.0000
 11
17.8945
 21
7.0155
 31
0.0000
  0
INSERT
  8
51
  2
RECT
 10
20.0025
 20
6.0325
 30
0.0000
 41
0.4064
 42
0.8636
 43
1.0000
 50
0.0000
  0
INSERT
  8
51
  2
RECT
 10
18.7325
 20
6.0325
 30
0.0000
 41
0.4064
 42
0.8636
 43
1.0000
 50
0.0000
  0
INSERT
  8
35
  2
RECT
 10
19.3675
 20
6.0325
 30
0.0000
 41
0.3998
 42
0.8002
 43
1.0000
 50
0.0000
  0
INSERT
  8
1
  2
RECT
 10
18.5175
 20
6.0325
 30
0.0000
 41
1.0000
 42
1.1000
 43
1.0000
 50
0.0000
  0
INSERT
  8
31
  2
RECT
 10
18.5175
 20
6.0325
 30
0.0000
 41
1.0000
 42
1.1000
 43
1.0000
 50
0.0000
  0
INSERT
  8
1
  2
RECT
 10
20.2175
 20
6.0325
 30
0.0000
 41
1.0000
 42
1.1000
 43
1.0000
 50
0.0000
  0
INSERT
  8
31
  2
RECT
 10
20.2175
 20
6.0325
 30
0.0000
 41
1.0000
 42
1.1000
 43
1.0000
 50
0.0000
  0
LINE
  8
25
 10
18.1356
 20
6.7056
 30
0.0000
 11
18.1356
 21
7.4428
 31
0.0000
  0
LINE
  8
25
 10
18.1356
 20
7.4428
 30
0.0000
 11
18.5042
 21
7.4428
 31
0.0000
  0
LINE
  8
25
 10
18.5042
 20
7.4428
 30
0.0000
 11
18.6271
 21
7.3200
 31
0.0000
  0
LINE
  8
25
 10
18.6271
 20
7.3200
 30
0.0000
 11
18.6271
 21
7.0742
 31
0.0000
  0
LINE
  8
25
 10
18.6271
 20
7.0742
 30
0.0000
 11
18.5042
 21
6.9513
 31
0.0000
  0
LINE
  8
25
 10
18.5042
 20
6.9513
 30
0.0000
 11
18.1356
 21
6.9513
 31
0.0000
  0
LINE
  8
25
 10
18.3813
 20
6.9513
 30
0.0000
 11
18.6271
 21
6.7056
 31
0.0000
  0
LINE
  8
25
 10
18.8840
 20
7.1971
 30
0.0000
 11
19.1298
 21
7.4428
 31
0.0000
  0
LINE
  8
25
 10
19.1298
 20
7.4428
 30
0.0000
 11
19.1298
 21
6.7056
 31
0.0000
  0
LINE
  8
25
 10
18.8840
 20
6.7056
 30
0.0000
 11
19.3755
 21
6.7056
 31
0.0000
  0
LINE
  8
25
 10
19.6324
 20
7.3200
 30
0.0000
 11
19.7553
 21
7.4428
 31
0.0000
  0
LINE
  8
25
 10
19.7553
 20
7.4428
 30
0.0000
 11
20.0010
 21
7.4428
 31
0.0000
  0
LINE
  8
25
 10
20.0010
 20
7.4428
 30
0.0000
 11
20.1239
 21
7.3200
 31
0.0000
  0
LINE
  8
25
 10
20.1239
 20
7.3200
 30
0.0000
 11
20.1239
 21
7.1971
 31
0.0000
  0
LINE
  8
25
 10
20.1239
 20
7.1971
 30
0.0000
 11
20.0010
 21
7.0742
 31
0.0000
  0
LINE
  8
25
 10
20.0010
 20
7.0742
 30
0.0000
 11
19.8782
 21
7.0742
 31
0.0000
  0
LINE
  8
25
 10
20.0010
 20
7.0742
 30
0.0000
 11
20.1239
 21
6.9513
 31
0.0000
  0
LINE
  8
25
 10
20.1239
 20
6.9513
 30
0.0000
 11
20.1239
 21
6.8285
 31
0.0000
  0
LINE
  8
25
 10
20.1239
 20
6.8285
 30
0.0000
 11
20.0010
 21
6.7056
 31
0.0000
  0
LINE
  8
25
 10
20.0010
 20
6.7056
 30
0.0000
 11
19.7553
 21
6.7056
 31
0.0000
  0
LINE
  8
25
 10
19.7553
 20
6.7056
 30
0.0000
 11
19.6324
 21
6.8285
 31
0.0000
  0
POINT
  8
23
 10
11.4300
 20
6.0325
 30
0.0000
  0
LINE
  8
51
 10
10.9980
 20
5.6765
 30
0.0000
 11
11.8620
 21
5.6765
 31
0.0000
  0
LINE
  8
51
 10
11.8620
 20
6.3885
 30
0.0000
 11
10.9980
 21
6.3885
 31
0.0000
  0
LINE
  8
39
 10
9.9570
 20
7.0155
 30
0.0000
 11
12.9030
 21
7.0155
 31
0.0000
  0
LINE
  8
39
 10
12.9030
 20
7.0155
 30
0.0000
 11
12.9030
 21
5.0495
 31
0.0000
  0
LINE
  8
39
 10
12.9030
 20
5.0495
 30
0.0000
 11
9.9570
 21
5.0495
 31
0.0000
  0
LINE
  8
39
 10
9.9570
 20
5.0495
 30
0.0000
 11
9.9570
 21
7.0155
 31
0.0000
  0
INSERT
  8
51
  2
RECT
 10
12.0650
 20
6.0325
 30
0.0000
 41
0.4064
 42
0.8636
 43
1.0000
 50
0.0000
  0
INSERT
  8
51
  2
RECT
 10
10.7950
 20
6.0325
 30
0.0000
 41
0.4064
 42
0.8636
 43
1.0000
 50
0.0000
  0
INSERT
  8
35
  2
RECT
 10
11.4300
 20
6.0325
 30
0.0000
 41
0.3998
 42
0.8002
 43
1.0000
 50
0.0000
  0
INSERT
  8
1
  2
RECT
 10
10.5800
 20
6.0325
 30
0.0000
 41
1.0000
 42
1.1000
 43
1.0000
 50
0.0000
  0
INSERT
  8
31
  2
RECT
 10
10.5800
 20
6.0325
 30
0.0000
 41
1.0000
 42
1.1000
 43
1.0000
 50
0.0000
  0
INSERT
  8
1
  2
RECT
 10
12.2800
 20
6.0325
 30
0.0000
 41
1.0000
 42
1.1000
 43
1.0000
 50
0.0000
  0
INSERT
  8
31
  2
RECT
 10
12.2800
 20
6.0325
 30
0.0000
 41
1.0000
 42
1.1000
 43
1.0000
 50
0.0000
  0
LINE
  8
25
 10
10.1981
 20
6.7056
 30
0.0000
 11
10.1981
 21
7.4428
 31
0.0000
  0
LINE
  8
25
 10
10.1981
 20
7.4428
 30
0.0000
 11
10.5667
 21
7.4428
 31
0.0000
  0
LINE
  8
25
 10
10.5667
 20
7.4428
 30
0.0000
 11
10.6896
 21
7.3200
 31
0.0000
  0
LINE
  8
25
 10
10.6896
 20
7.3200
 30
0.0000
 11
10.6896
 21
7.0742
 31
0.0000
  0
LINE
  8
25
 10
10.6896
 20
7.0742
 30
0.0000
 11
10.5667
 21
6.9513
 31
0.0000
  0
LINE
  8
25
 10
10.5667
 20
6.9513
 30
0.0000
 11
10.1981
 21
6.9513
 31
0.0000
  0
LINE
  8
25
 10
10.4438
 20
6.9513
 30
0.0000
 11
10.6896
 21
6.7056
 31
0.0000
  0
LINE
  8
25
 10
10.9465
 20
7.1971
 30
0.0000
 11
11.1923
 21
7.4428
 31
0.0000
  0
LINE
  8
25
 10
11.1923
 20
7.4428
 30
0.0000
 11
11.1923
 21
6.7056
 31
0.0000
  0
LINE
  8
25
 10
10.9465
 20
6.7056
 30
0.0000
 11
11.4380
 21
6.7056
 31
0.0000
  0
LINE
  8
25
 10
12.0635
 20
6.7056
 30
0.0000
 11
12.0635
 21
7.4428
 31
0.0000
  0
LINE
  8
25
 10
12.0635
 20
7.4428
 30
0.0000
 11
11.6949
 21
7.0742
 31
0.0000
  0
LINE
  8
25
 10
11.6949
 20
7.0742
 30
0.0000
 11
12.1864
 21
7.0742
 31
0.0000
  0
POINT
  8
23
 10
12.0650
 20
13.0175
 30
0.0000
  0
LINE
  8
51
 10
11.7090
 20
13.4495
 30
0.0000
 11
11.7090
 21
12.5855
 31
0.0000
  0
LINE
  8
51
 10
12.4210
 20
12.5855
 30
0.0000
 11
12.4210
 21
13.4495
 31
0.0000
  0
LINE
  8
39
 10
13.0480
 20
14.4905
 30
0.0000
 11
13.0480
 21
11.5445
 31
0.0000
  0
LINE
  8
39
 10
13.0480
 20
11.5445
 30
0.0000
 11
11.0820
 21
11.5445
 31
0.0000
  0
LINE
  8
39
 10
11.0820
 20
11.5445
 30
0.0000
 11
11.0820
 21
14.4905
 31
0.0000
  0
LINE
  8
39
 10
11.0820
 20
14.4905
 30
0.0000
 11
13.0480
 21
14.4905
 31
0.0000
  0
INSERT
  8
51
  2
RECT
 10
12.0650
 20
12.3825
 30
0.0000
 41
0.4064
 42
0.8636
 43
1.0000
 50
270.0000
  0
INSERT
  8
51
  2
RECT
 10
12.0650
 20
13.6525
 30
0.0000
 41
0.4064
 42
0.8636
 43
1.0000
 50
270.0000
  0
INSERT
  8
35
  2
RECT
 10
12.0650
 20
13.0175
 30
0.0000
 41
0.3998
 42
0.8002
 43
1.0000
 50
270.0000
  0
INSERT
  8
1
  2
RECT
 10
12.0650
 20
13.8675
 30
0.0000
 41
1.0000
 42
1.1000
 43
1.0000
 50
270.0000
  0
INSERT
  8
31
  2
RECT
 10
12.0650
 20
13.8675
 30
0.0000
 41
1.0000
 42
1.1000
 43
1.0000
 50
270.0000
  0
INSERT
  8
1
  2
RECT
 10
12.0650
 20
12.1675
 30
0.0000
 41
1.0000
 42
1.1000
 43
1.0000
 50
270.0000
  0
INSERT
  8
31
  2
RECT
 10
12.0650
 20
12.1675
 30
0.0000
 41
1.0000
 42
1.1000
 43
1.0000
 50
270.0000
  0
LINE
  8
25
 10
11.3919
 20
11.7856
 30
0.0000
 11
10.6547
 21
11.7856
 31
0.0000
  0
LINE
  8
25
 10
10.6547
 20
11.7856
 30
0.0000
 11
10.6547
 21
12.1542
 31
0.0000
  0
LINE
  8
25
 10
10.6547
 20
12.1542
 30
0.0000
 11
10.7775
 21
12.2771
 31
0.0000
  0
LINE
  8
25
 10
10.7775
 20
12.2771
 30
0.0000
 11
11.0233
 21
12.2771
 31
0.0000
  0
LINE
  8
25
 10
11.0233
 20
12.2771
 30
0.0000
 11
11.1462
 21
12.1542
 31
0.0000
  0
LINE
  8
25
 10
11.1462
 20
12.1542
 30
0.0000
 11
11.1462
 21
11.7856
 31
0.0000
  0
LINE
  8
25
 10
11.1462
 20
12.0313
 30
0.0000
 11
11.3919
 21
12.2771
 31
0.0000
  0
LINE
  8
25
 10
10.9004
 20
12.5340
 30
0.0000
 11
10.6547
 21
12.7798
 31
0.0000
  0
LINE
  8
25
 10
10.6547
 20
12.7798
 30
0.0000
 11
11.3919
 21
12.7798
 31
0.0000
  0
LINE
  8
25
 10
11.3919
 20
12.5340
 30
0.0000
 11
11.3919
 21
13.0255
 31
0.0000
  0
LINE
  8
25
 10
10.6547
 20
13.7739
 30
0.0000
 11
10.6547
 21
13.2824
 31
0.0000
  0
LINE
  8
25
 10
10.6547
 20
13.2824
 30
0.0000
 11
11.0233
 21
13.2824
 31
0.0000
  0
LINE
  8
25
 10
11.0233
 20
13.2824
 30
0.0000
 11
10.9004
 21
13.5282
 31
0.0000
  0
LINE
  8
25
 10
10.9004
 20
13.5282
 30
0.0000
 11
10.9004
 21
13.6510
 31
0.0000
  0
LINE
  8
25
 10
10.9004
 20
13.6510
 30
0.0000
 11
11.0233
 21
13.7739
 31
0.0000
  0
LINE
  8
25
 10
11.0233
 20
13.7739
 30
0.0000
 11
11.2690
 21
13.7739
 31
0.0000
  0
LINE
  8
25
 10
11.2690
 20
13.7739
 30
0.0000
 11
11.3919
 21
13.6510
 31
0.0000
  0
LINE
  8
25
 10
11.3919
 20
13.6510
 30
0.0000
 11
11.3919
 21
13.4053
 31
0.0000
  0
LINE
  8
25
 10
11.3919
 20
13.4053
 30
0.0000
 11
11.2690
 21
13.2824
 31
0.0000
  0
POINT
  8
23
 10
20.3200
 20
15.8750
 30
0.0000
  0
LINE
  8
51
 10
19.8880
 20
15.5190
 30
0.0000
 11
20.7520
 21
15.5190
 31
0.0000
  0
LINE
  8
51
 10
20.7520
 20
16.2310
 30
0.0000
 11
19.8880
 21
16.2310
 31
0.0000
  0
LINE
  8
39
 10
18.8470
 20
16.8580
 30
0.0000
 11
21.7930
 21
16.8580
 31
0.0000
  0
LINE
  8
39
 10
21.7930
 20
16.8580
 30
0.0000
 11
21.7930
 21
14.8920
 31
0.0000
  0
LINE
  8
39
 10
21.7930
 20
14.8920
 30
0.0000
 11
18.8470
 21
14.8920
 31
0.0000
  0
LINE
  8
39
 10
18.8470
 20
14.8920
 30
0.0000
 11
18.8470
 21
16.8580
 31
0.0000
  0
INSERT
  8
51
  2
RECT
 10
20.9550
 20
15.8750
 30
0.0000
 41
0.4064
 42
0.8636
 43
1.0000
 50
0.0000
  0
INSERT
  8
51
  2
RECT
 10
19.6850
 20
15.8750
 30
0.0000
 41
0.4064
 42
0.8636
 43
1.0000
 50
0.0000
  0
INSERT
  8
35
  2
RECT
 10
20.3200
 20
15.8750
 30
0.0000
 41
0.3998
 42
0.8002
 43
1.0000
 50
0.0000
  0
INSERT
  8
1
  2
RECT
 10
19.4700
 20
15.8750
 30
0.0000
 41
1.0000
 42
1.1000
 43
1.0000
 50
0.0000
  0
INSERT
  8
31
  2
RECT
 10
19.4700
 20
15.8750
 30
0.0000
 41
1.0000
 42
1.1000
 43
1.0000
 50
0.0000
  0
INSERT
  8
1
  2
RECT
 10
21.1700
 20
15.8750
 30
0.0000
 41
1.0000
 42
1.1000
 43
1.0000
 50
0.0000
  0
INSERT
  8
31
  2
RECT
 10
21.1700
 20
15.8750
 30
0.0000
 41
1.0000
 42
1.1000
 43
1.0000
 50
0.0000
  0
LINE
  8
25
 10
19.0881
 20
16.5481
 30
0.0000
 11
19.0881
 21
17.2853
 31
0.0000
  0
LINE
  8
25
 10
19.0881
 20
17.2853
 30
0.0000
 11
19.4567
 21
17.2853
 31
0.0000
  0
LINE
  8
25
 10
19.4567
 20
17.2853
 30
0.0000
 11
19.5796
 21
17.1625
 31
0.0000
  0
LINE
  8
25
 10
19.5796
 20
17.1625
 30
0.0000
 11
19.5796
 21
16.9167
 31
0.0000
  0
LINE
  8
25
 10
19.5796
 20
16.9167
 30
0.0000
 11
19.4567
 21
16.7938
 31
0.0000
  0
LINE
  8
25
 10
19.4567
 20
16.7938
 30
0.0000
 11
19.0881
 21
16.7938
 31
0.0000
  0
LINE
  8
25
 10
19.3338
 20
16.7938
 30
0.0000
 11
19.5796
 21
16.5481
 31
0.0000
  0
LINE
  8
25
 10
19.8365
 20
17.0396
 30
0.0000
 11
20.0823
 21
17.2853
 31
0.0000
  0
LINE
  8
25
 10
20.0823
 20
17.2853
 30
0.0000
 11
20.0823
 21
16.5481
 31
0.0000
  0
LINE
  8
25
 10
19.8365
 20
16.5481
 30
0.0000
 11
20.3280
 21
16.5481
 31
0.0000
  0
LINE
  8
25
 10
21.0764
 20
17.2853
 30
0.0000
 11
20.8307
 21
17.1625
 31
0.0000
  0
LINE
  8
25
 10
20.8307
 20
17.1625
 30
0.0000
 11
20.5849
 21
16.9167
 31
0.0000
  0
LINE
  8
25
 10
20.5849
 20
16.9167
 30
0.0000
 11
20.5849
 21
16.6710
 31
0.0000
  0
LINE
  8
25
 10
20.5849
 20
16.6710
 30
0.0000
 11
20.7078
 21
16.5481
 31
0.0000
  0
LINE
  8
25
 10
20.7078
 20
16.5481
 30
0.0000
 11
20.9535
 21
16.5481
 31
0.0000
  0
LINE
  8
25
 10
20.9535
 20
16.5481
 30
0.0000
 11
21.0764
 21
16.6710
 31
0.0000
  0
LINE
  8
25
 10
21.0764
 20
16.6710
 30
0.0000
 11
21.0764
 21
16.7938
 31
0.0000
  0
LINE
  8
25
 10
21.0764
 20
16.7938
 30
0.0000
 11
20.9535
 21
16.9167
 31
0.0000
  0
LINE
  8
25
 10
20.9535
 20
16.9167
 30
0.0000
 11
20.5849
 21
16.9167
 31
0.0000
  0
POINT
  8
23
 10
16.5100
 20
15.8750
 30
0.0000
  0
LINE
  8
51
 10
16.0780
 20
15.5190
 30
0.0000
 11
16.9420
 21
15.5190
 31
0.0000
  0
LINE
  8
51
 10
16.9420
 20
16.2310
 30
0.0000
 11
16.0780
 21
16.2310
 31
0.0000
  0
LINE
  8
39
 10
15.0370
 20
16.8580
 30
0.0000
 11
17.9830
 21
16.8580
 31
0.0000
  0
LINE
  8
39
 10
17.9830
 20
16.8580
 30
0.0000
 11
17.9830
 21
14.8920
 31
0.0000
  0
LINE
  8
39
 10
17.9830
 20
14.8920
 30
0.0000
 11
15.0370
 21
14.8920
 31
0.0000
  0
LINE
  8
39
 10
15.0370
 20
14.8920
 30
0.0000
 11
15.0370
 21
16.8580
 31
0.0000
  0
INSERT
  8
51
  2
RECT
 10
17.1450
 20
15.8750
 30
0.0000
 41
0.4064
 42
0.8636
 43
1.0000
 50
0.0000
  0
INSERT
  8
51
  2
RECT
 10
15.8750
 20
15.8750
 30
0.0000
 41
0.4064
 42
0.8636
 43
1.0000
 50
0.0000
  0
INSERT
  8
35
  2
RECT
 10
16.5100
 20
15.8750
 30
0.0000
 41
0.3998
 42
0.8002
 43
1.0000
 50
0.0000
  0
INSERT
  8
1
  2
RECT
 10
15.6600
 20
15.8750
 30
0.0000
 41
1.0000
 42
1.1000
 43
1.0000
 50
0.0000
  0
INSERT
  8
31
  2
RECT
 10
15.6600
 20
15.8750
 30
0.0000
 41
1.0000
 42
1.1000
 43
1.0000
 50
0.0000
  0
INSERT
  8
1
  2
RECT
 10
17.3600
 20
15.8750
 30
0.0000
 41
1.0000
 42
1.1000
 43
1.0000
 50
0.0000
  0
INSERT
  8
31
  2
RECT
 10
17.3600
 20
15.8750
 30
0.0000
 41
1.0000
 42
1.1000
 43
1.0000
 50
0.0000
  0
LINE
  8
25
 10
15.2781
 20
16.5481
 30
0.0000
 11
15.2781
 21
17.2853
 31
0.0000
  0
LINE
  8
25
 10
15.2781
 20
17.2853
 30
0.0000
 11
15.6467
 21
17.2853
 31
0.0000
  0
LINE
  8
25
 10
15.6467
 20
17.2853
 30
0.0000
 11
15.7696
 21
17.1625
 31
0.0000
  0
LINE
  8
25
 10
15.7696
 20
17.1625
 30
0.0000
 11
15.7696
 21
16.9167
 31
0.0000
  0
LINE
  8
25
 10
15.7696
 20
16.9167
 30
0.0000
 11
15.6467
 21
16.7938
 31
0.0000
  0
LINE
  8
25
 10
15.6467
 20
16.7938
 30
0.0000
 11
15.2781
 21
16.7938
 31
0.0000
  0
LINE
  8
25
 10
15.5238
 20
16.7938
 30
0.0000
 11
15.7696
 21
16.5481
 31
0.0000
  0
LINE
  8
25
 10
16.0265
 20
17.0396
 30
0.0000
 11
16.2723
 21
17.2853
 31
0.0000
  0
LINE
  8
25
 10
16.2723
 20
17.2853
 30
0.0000
 11
16.2723
 21
16.5481
 31
0.0000
  0
LINE
  8
25
 10
16.0265
 20
16.5481
 30
0.0000
 11
16.5180
 21
16.5481
 31
0.0000
  0
LINE
  8
25
 10
16.7749
 20
17.2853
 30
0.0000
 11
17.2664
 21
17.2853
 31
0.0000
  0
LINE
  8
25
 10
17.2664
 20
17.2853
 30
0.0000
 11
17.2664
 21
17.1625
 31
0.0000
  0
LINE
  8
25
 10
17.2664
 20
17.1625
 30
0.0000
 11
16.7749
 21
16.6710
 31
0.0000
  0
LINE
  8
25
 10
16.7749
 20
16.6710
 30
0.0000
 11
16.7749
 21
16.5481
 31
0.0000
  0
POINT
  8
23
 10
9.8425
 20
13.0175
 30
0.0000
  0
LINE
  8
51
 10
9.4865
 20
13.4495
 30
0.0000
 11
9.4865
 21
12.5855
 31
0.0000
  0
LINE
  8
51
 10
10.1985
 20
12.5855
 30
0.0000
 11
10.1985
 21
13.4495
 31
0.0000
  0
LINE
  8
39
 10
10.8255
 20
14.4905
 30
0.0000
 11
10.8255
 21
11.5445
 31
0.0000
  0
LINE
  8
39
 10
10.8255
 20
11.5445
 30
0.0000
 11
8.8595
 21
11.5445
 31
0.0000
  0
LINE
  8
39
 10
8.8595
 20
11.5445
 30
0.0000
 11
8.8595
 21
14.4905
 31
0.0000
  0
LINE
  8
39
 10
8.8595
 20
14.4905
 30
0.0000
 11
10.8255
 21
14.4905
 31
0.0000
  0
INSERT
  8
51
  2
RECT
 10
9.8425
 20
12.3825
 30
0.0000
 41
0.4064
 42
0.8636
 43
1.0000
 50
270.0000
  0
INSERT
  8
51
  2
RECT
 10
9.8425
 20
13.6525
 30
0.0000
 41
0.4064
 42
0.8636
 43
1.0000
 50
270.0000
  0
INSERT
  8
35
  2
RECT
 10
9.8425
 20
13.0175
 30
0.0000
 41
0.3998
 42
0.8002
 43
1.0000
 50
270.0000
  0
INSERT
  8
1
  2
RECT
 10
9.8425
 20
13.8675
 30
0.0000
 41
1.0000
 42
1.1000
 43
1.0000
 50
270.0000
  0
INSERT
  8
31
  2
RECT
 10
9.8425
 20
13.8675
 30
0.0000
 41
1.0000
 42
1.1000
 43
1.0000
 50
270.0000
  0
INSERT
  8
1
  2
RECT
 10
9.8425
 20
12.1675
 30
0.0000
 41
1.0000
 42
1.1000
 43
1.0000
 50
270.0000
  0
INSERT
  8
31
  2
RECT
 10
9.8425
 20
12.1675
 30
0.0000
 41
1.0000
 42
1.1000
 43
1.0000
 50
270.0000
  0
LINE
  8
25
 10
9.1694
 20
11.7856
 30
0.0000
 11
8.4322
 21
11.7856
 31
0.0000
  0
LINE
  8
25
 10
8.4322
 20
11.7856
 30
0.0000
 11
8.4322
 21
12.1542
 31
0.0000
  0
LINE
  8
25
 10
8.4322
 20
12.1542
 30
0.0000
 11
8.5550
 21
12.2771
 31
0.0000
  0
LINE
  8
25
 10
8.5550
 20
12.2771
 30
0.0000
 11
8.8008
 21
12.2771
 31
0.0000
  0
LINE
  8
25
 10
8.8008
 20
12.2771
 30
0.0000
 11
8.9237
 21
12.1542
 31
0.0000
  0
LINE
  8
25
 10
8.9237
 20
12.1542
 30
0.0000
 11
8.9237
 21
11.7856
 31
0.0000
  0
LINE
  8
25
 10
8.9237
 20
12.0313
 30
0.0000
 11
9.1694
 21
12.2771
 31
0.0000
  0
LINE
  8
25
 10
8.6779
 20
12.5340
 30
0.0000
 11
8.4322
 21
12.7798
 31
0.0000
  0
LINE
  8
25
 10
8.4322
 20
12.7798
 30
0.0000
 11
9.1694
 21
12.7798
 31
0.0000
  0
LINE
  8
25
 10
9.1694
 20
12.5340
 30
0.0000
 11
9.1694
 21
13.0255
 31
0.0000
  0
LINE
  8
25
 10
8.5550
 20
13.2824
 30
0.0000
 11
8.4322
 21
13.4053
 31
0.0000
  0
LINE
  8
25
 10
8.4322
 20
13.4053
 30
0.0000
 11
8.4322
 21
13.6510
 31
0.0000
  0
LINE
  8
25
 10
8.4322
 20
13.6510
 30
0.0000
 11
8.5550
 21
13.7739
 31
0.0000
  0
LINE
  8
25
 10
8.5550
 20
13.7739
 30
0.0000
 11
8.6779
 21
13.7739
 31
0.0000
  0
LINE
  8
25
 10
8.6779
 20
13.7739
 30
0.0000
 11
8.8008
 21
13.6510
 31
0.0000
  0
LINE
  8
25
 10
8.8008
 20
13.6510
 30
0.0000
 11
8.9237
 21
13.7739
 31
0.0000
  0
LINE
  8
25
 10
8.9237
 20
13.7739
 30
0.0000
 11
9.0465
 21
13.7739
 31
0.0000
  0
LINE
  8
25
 10
9.0465
 20
13.7739
 30
0.0000
 11
9.1694
 21
13.6510
 31
0.0000
  0
LINE
  8
25
 10
9.1694
 20
13.6510
 30
0.0000
 11
9.1694
 21
13.4053
 31
0.0000
  0
LINE
  8
25
 10
9.1694
 20
13.4053
 30
0.0000
 11
9.0465
 21
13.2824
 31
0.0000
  0
LINE
  8
25
 10
9.0465
 20
13.2824
 30
0.0000
 11
8.9237
 21
13.2824
 31
0.0000
  0
LINE
  8
25
 10
8.9237
 20
13.2824
 30
0.0000
 11
8.8008
 21
13.4053
 31
0.0000
  0
LINE
  8
25
 10
8.8008
 20
13.4053
 30
0.0000
 11
8.6779
 21
13.2824
 31
0.0000
  0
LINE
  8
25
 10
8.6779
 20
13.2824
 30
0.0000
 11
8.5550
 21
13.2824
 31
0.0000
  0
LINE
  8
25
 10
8.8008
 20
13.4053
 30
0.0000
 11
8.8008
 21
13.6510
 31
0.0000
  0
POINT
  8
23
 10
28.8925
 20
9.8425
 30
0.0000
  0
LINE
  8
51
 10
28.4605
 20
9.4865
 30
0.0000
 11
29.3245
 21
9.4865
 31
0.0000
  0
LINE
  8
51
 10
29.3245
 20
10.1985
 30
0.0000
 11
28.4605
 21
10.1985
 31
0.0000
  0
LINE
  8
39
 10
27.4195
 20
10.8255
 30
0.0000
 11
30.3655
 21
10.8255
 31
0.0000
  0
LINE
  8
39
 10
30.3655
 20
10.8255
 30
0.0000
 11
30.3655
 21
8.8595
 31
0.0000
  0
LINE
  8
39
 10
30.3655
 20
8.8595
 30
0.0000
 11
27.4195
 21
8.8595
 31
0.0000
  0
LINE
  8
39
 10
27.4195
 20
8.8595
 30
0.0000
 11
27.4195
 21
10.8255
 31
0.0000
  0
INSERT
  8
51
  2
RECT
 10
29.5275
 20
9.8425
 30
0.0000
 41
0.4064
 42
0.8636
 43
1.0000
 50
0.0000
  0
INSERT
  8
51
  2
RECT
 10
28.2575
 20
9.8425
 30
0.0000
 41
0.4064
 42
0.8636
 43
1.0000
 50
0.0000
  0
INSERT
  8
35
  2
RECT
 10
28.8925
 20
9.8425
 30
0.0000
 41
0.3998
 42
0.8002
 43
1.0000
 50
0.0000
  0
INSERT
  8
1
  2
RECT
 10
28.0425
 20
9.8425
 30
0.0000
 41
1.0000
 42
1.1000
 43
1.0000
 50
0.0000
  0
INSERT
  8
31
  2
RECT
 10
28.0425
 20
9.8425
 30
0.0000
 41
1.0000
 42
1.1000
 43
1.0000
 50
0.0000
  0
INSERT
  8
1
  2
RECT
 10
29.7425
 20
9.8425
 30
0.0000
 41
1.0000
 42
1.1000
 43
1.0000
 50
0.0000
  0
INSERT
  8
31
  2
RECT
 10
29.7425
 20
9.8425
 30
0.0000
 41
1.0000
 42
1.1000
 43
1.0000
 50
0.0000
  0
LINE
  8
25
 10
27.6606
 20
10.5156
 30
0.0000
 11
27.6606
 21
11.2528
 31
0.0000
  0
LINE
  8
25
 10
27.6606
 20
11.2528
 30
0.0000
 11
28.0292
 21
11.2528
 31
0.0000
  0
LINE
  8
25
 10
28.0292
 20
11.2528
 30
0.0000
 11
28.1521
 21
11.1300
 31
0.0000
  0
LINE
  8
25
 10
28.1521
 20
11.1300
 30
0.0000
 11
28.1521
 21
10.8842
 31
0.0000
  0
LINE
  8
25
 10
28.1521
 20
10.8842
 30
0.0000
 11
28.0292
 21
10.7613
 31
0.0000
  0
LINE
  8
25
 10
28.0292
 20
10.7613
 30
0.0000
 11
27.6606
 21
10.7613
 31
0.0000
  0
LINE
  8
25
 10
27.9063
 20
10.7613
 30
0.0000
 11
28.1521
 21
10.5156
 31
0.0000
  0
LINE
  8
25
 10
28.4090
 20
11.0071
 30
0.0000
 11
28.6548
 21
11.2528
 31
0.0000
  0
LINE
  8
25
 10
28.6548
 20
11.2528
 30
0.0000
 11
28.6548
 21
10.5156
 31
0.0000
  0
LINE
  8
25
 10
28.4090
 20
10.5156
 30
0.0000
 11
28.9005
 21
10.5156
 31
0.0000
  0
LINE
  8
25
 10
29.1574
 20
10.6385
 30
0.0000
 11
29.2803
 21
10.5156
 31
0.0000
  0
LINE
  8
25
 10
29.2803
 20
10.5156
 30
0.0000
 11
29.5260
 21
10.5156
 31
0.0000
  0
LINE
  8
25
 10
29.5260
 20
10.5156
 30
0.0000
 11
29.6489
 21
10.6385
 31
0.0000
  0
LINE
  8
25
 10
29.6489
 20
10.6385
 30
0.0000
 11
29.6489
 21
11.1300
 31
0.0000
  0
LINE
  8
25
 10
29.6489
 20
11.1300
 30
0.0000
 11
29.5260
 21
11.2528
 31
0.0000
  0
LINE
  8
25
 10
29.5260
 20
11.2528
 30
0.0000
 11
29.2803
 21
11.2528
 31
0.0000
  0
LINE
  8
25
 10
29.2803
 20
11.2528
 30
0.0000
 11
29.1574
 21
11.1300
 31
0.0000
  0
LINE
  8
25
 10
29.1574
 20
11.1300
 30
0.0000
 11
29.1574
 21
11.0071
 31
0.0000
  0
LINE
  8
25
 10
29.1574
 20
11.0071
 30
0.0000
 11
29.2803
 21
10.8842
 31
0.0000
  0
LINE
  8
25
 10
29.2803
 20
10.8842
 30
0.0000
 11
29.6489
 21
10.8842
 31
0.0000
  0
POINT
  8
23
 10
28.8925
 20
7.6200
 30
0.0000
  0
LINE
  8
51
 10
28.4605
 20
7.2640
 30
0.0000
 11
29.3245
 21
7.2640
 31
0.0000
  0
LINE
  8
51
 10
29.3245
 20
7.9760
 30
0.0000
 11
28.4605
 21
7.9760
 31
0.0000
  0
LINE
  8
39
 10
27.4195
 20
8.6030
 30
0.0000
 11
30.3655
 21
8.6030
 31
0.0000
  0
LINE
  8
39
 10
30.3655
 20
8.6030
 30
0.0000
 11
30.3655
 21
6.6370
 31
0.0000
  0
LINE
  8
39
 10
30.3655
 20
6.6370
 30
0.0000
 11
27.4195
 21
6.6370
 31
0.0000
  0
LINE
  8
39
 10
27.4195
 20
6.6370
 30
0.0000
 11
27.4195
 21
8.6030
 31
0.0000
  0
INSERT
  8
51
  2
RECT
 10
29.5275
 20
7.6200
 30
0.0000
 41
0.4064
 42
0.8636
 43
1.0000
 50
0.0000
  0
INSERT
  8
51
  2
RECT
 10
28.2575
 20
7.6200
 30
0.0000
 41
0.4064
 42
0.8636
 43
1.0000
 50
0.0000
  0
INSERT
  8
35
  2
RECT
 10
28.8925
 20
7.6200
 30
0.0000
 41
0.3998
 42
0.8002
 43
1.0000
 50
0.0000
  0
INSERT
  8
1
  2
RECT
 10
28.0425
 20
7.6200
 30
0.0000
 41
1.0000
 42
1.1000
 43
1.0000
 50
0.0000
  0
INSERT
  8
31
  2
RECT
 10
28.0425
 20
7.6200
 30
0.0000
 41
1.0000
 42
1.1000
 43
1.0000
 50
0.0000
  0
INSERT
  8
1
  2
RECT
 10
29.7425
 20
7.6200
 30
0.0000
 41
1.0000
 42
1.1000
 43
1.0000
 50
0.0000
  0
INSERT
  8
31
  2
RECT
 10
29.7425
 20
7.6200
 30
0.0000
 41
1.0000
 42
1.1000
 43
1.0000
 50
0.0000
  0
LINE
  8
25
 10
27.6606
 20
8.2931
 30
0.0000
 11
27.6606
 21
9.0303
 31
0.0000
  0
LINE
  8
25
 10
27.6606
 20
9.0303
 30
0.0000
 11
28.0292
 21
9.0303
 31
0.0000
  0
LINE
  8
25
 10
28.0292
 20
9.0303
 30
0.0000
 11
28.1521
 21
8.9075
 31
0.0000
  0
LINE
  8
25
 10
28.1521
 20
8.9075
 30
0.0000
 11
28.1521
 21
8.6617
 31
0.0000
  0
LINE
  8
25
 10
28.1521
 20
8.6617
 30
0.0000
 11
28.0292
 21
8.5388
 31
0.0000
  0
LINE
  8
25
 10
28.0292
 20
8.5388
 30
0.0000
 11
27.6606
 21
8.5388
 31
0.0000
  0
LINE
  8
25
 10
27.9063
 20
8.5388
 30
0.0000
 11
28.1521
 21
8.2931
 31
0.0000
  0
LINE
  8
25
 10
28.9005
 20
8.2931
 30
0.0000
 11
28.4090
 21
8.2931
 31
0.0000
  0
LINE
  8
25
 10
28.4090
 20
8.2931
 30
0.0000
 11
28.9005
 21
8.7846
 31
0.0000
  0
LINE
  8
25
 10
28.9005
 20
8.7846
 30
0.0000
 11
28.9005
 21
8.9075
 31
0.0000
  0
LINE
  8
25
 10
28.9005
 20
8.9075
 30
0.0000
 11
28.7776
 21
9.0303
 31
0.0000
  0
LINE
  8
25
 10
28.7776
 20
9.0303
 30
0.0000
 11
28.5319
 21
9.0303
 31
0.0000
  0
LINE
  8
25
 10
28.5319
 20
9.0303
 30
0.0000
 11
28.4090
 21
8.9075
 31
0.0000
  0
LINE
  8
25
 10
29.1574
 20
8.4160
 30
0.0000
 11
29.1574
 21
8.9075
 31
0.0000
  0
LINE
  8
25
 10
29.1574
 20
8.9075
 30
0.0000
 11
29.2803
 21
9.0303
 31
0.0000
  0
LINE
  8
25
 10
29.2803
 20
9.0303
 30
0.0000
 11
29.5260
 21
9.0303
 31
0.0000
  0
LINE
  8
25
 10
29.5260
 20
9.0303
 30
0.0000
 11
29.6489
 21
8.9075
 31
0.0000
  0
LINE
  8
25
 10
29.6489
 20
8.9075
 30
0.0000
 11
29.6489
 21
8.4160
 31
0.0000
  0
LINE
  8
25
 10
29.6489
 20
8.4160
 30
0.0000
 11
29.5260
 21
8.2931
 31
0.0000
  0
LINE
  8
25
 10
29.5260
 20
8.2931
 30
0.0000
 11
29.2803
 21
8.2931
 31
0.0000
  0
LINE
  8
25
 10
29.2803
 20
8.2931
 30
0.0000
 11
29.1574
 21
8.4160
 31
0.0000
  0
LINE
  8
25
 10
29.1574
 20
8.4160
 30
0.0000
 11
29.6489
 21
8.9075
 31
0.0000
  0
POINT
  8
23
 10
28.8925
 20
14.2875
 30
0.0000
  0
LINE
  8
51
 10
28.4605
 20
13.9315
 30
0.0000
 11
29.3245
 21
13.9315
 31
0.0000
  0
LINE
  8
51
 10
29.3245
 20
14.6435
 30
0.0000
 11
28.4605
 21
14.6435
 31
0.0000
  0
LINE
  8
39
 10
27.4195
 20
15.2705
 30
0.0000
 11
30.3655
 21
15.2705
 31
0.0000
  0
LINE
  8
39
 10
30.3655
 20
15.2705
 30
0.0000
 11
30.3655
 21
13.3045
 31
0.0000
  0
LINE
  8
39
 10
30.3655
 20
13.3045
 30
0.0000
 11
27.4195
 21
13.3045
 31
0.0000
  0
LINE
  8
39
 10
27.4195
 20
13.3045
 30
0.0000
 11
27.4195
 21
15.2705
 31
0.0000
  0
INSERT
  8
51
  2
RECT
 10
29.5275
 20
14.2875
 30
0.0000
 41
0.4064
 42
0.8636
 43
1.0000
 50
0.0000
  0
INSERT
  8
51
  2
RECT
 10
28.2575
 20
14.2875
 30
0.0000
 41
0.4064
 42
0.8636
 43
1.0000
 50
0.0000
  0
INSERT
  8
35
  2
RECT
 10
28.8925
 20
14.2875
 30
0.0000
 41
0.3998
 42
0.8002
 43
1.0000
 50
0.0000
  0
INSERT
  8
1
  2
RECT
 10
28.0425
 20
14.2875
 30
0.0000
 41
1.0000
 42
1.1000
 43
1.0000
 50
0.0000
  0
INSERT
  8
31
  2
RECT
 10
28.0425
 20
14.2875
 30
0.0000
 41
1.0000
 42
1.1000
 43
1.0000
 50
0.0000
  0
INSERT
  8
1
  2
RECT
 10
29.7425
 20
14.2875
 30
0.0000
 41
1.0000
 42
1.1000
 43
1.0000
 50
0.0000
  0
INSERT
  8
31
  2
RECT
 10
29.7425
 20
14.2875
 30
0.0000
 41
1.0000
 42
1.1000
 43
1.0000
 50
0.0000
  0
LINE
  8
25
 10
27.6606
 20
14.9606
 30
0.0000
 11
27.6606
 21
15.6978
 31
0.0000
  0
LINE
  8
25
 10
27.6606
 20
15.6978
 30
0.0000
 11
28.0292
 21
15.6978
 31
0.0000
  0
LINE
  8
25
 10
28.0292
 20
15.6978
 30
0.0000
 11
28.1521
 21
15.5750
 31
0.0000
  0
LINE
  8
25
 10
28.1521
 20
15.5750
 30
0.0000
 11
28.1521
 21
15.3292
 31
0.0000
  0
LINE
  8
25
 10
28.1521
 20
15.3292
 30
0.0000
 11
28.0292
 21
15.2063
 31
0.0000
  0
LINE
  8
25
 10
28.0292
 20
15.2063
 30
0.0000
 11
27.6606
 21
15.2063
 31
0.0000
  0
LINE
  8
25
 10
27.9063
 20
15.2063
 30
0.0000
 11
28.1521
 21
14.9606
 31
0.0000
  0
LINE
  8
25
 10
28.9005
 20
14.9606
 30
0.0000
 11
28.4090
 21
14.9606
 31
0.0000
  0
LINE
  8
25
 10
28.4090
 20
14.9606
 30
0.0000
 11
28.9005
 21
15.4521
 31
0.0000
  0
LINE
  8
25
 10
28.9005
 20
15.4521
 30
0.0000
 11
28.9005
 21
15.5750
 31
0.0000
  0
LINE
  8
25
 10
28.9005
 20
15.5750
 30
0.0000
 11
28.7776
 21
15.6978
 31
0.0000
  0
LINE
  8
25
 10
28.7776
 20
15.6978
 30
0.0000
 11
28.5319
 21
15.6978
 31
0.0000
  0
LINE
  8
25
 10
28.5319
 20
15.6978
 30
0.0000
 11
28.4090
 21
15.5750
 31
0.0000
  0
LINE
  8
25
 10
29.1574
 20
15.4521
 30
0.0000
 11
29.4032
 21
15.6978
 31
0.0000
  0
LINE
  8
25
 10
29.4032
 20
15.6978
 30
0.0000
 11
29.4032
 21
14.9606
 31
0.0000
  0
LINE
  8
25
 10
29.1574
 20
14.9606
 30
0.0000
 11
29.6489
 21
14.9606
 31
0.0000
  0
POINT
  8
23
 10
28.8925
 20
12.0650
 30
0.0000
  0
LINE
  8
51
 10
28.4605
 20
11.7090
 30
0.0000
 11
29.3245
 21
11.7090
 31
0.0000
  0
LINE
  8
51
 10
29.3245
 20
12.4210
 30
0.0000
 11
28.4605
 21
12.4210
 31
0.0000
  0
LINE
  8
39
 10
27.4195
 20
13.0480
 30
0.0000
 11
30.3655
 21
13.0480
 31
0.0000
  0
LINE
  8
39
 10
30.3655
 20
13.0480
 30
0.0000
 11
30.3655
 21
11.0820
 31
0.0000
  0
LINE
  8
39
 10
30.3655
 20
11.0820
 30
0.0000
 11
27.4195
 21
11.0820
 31
0.0000
  0
LINE
  8
39
 10
27.4195
 20
11.0820
 30
0.0000
 11
27.4195
 21
13.0480
 31
0.0000
  0
INSERT
  8
51
  2
RECT
 10
29.5275
 20
12.0650
 30
0.0000
 41
0.4064
 42
0.8636
 43
1.0000
 50
0.0000
  0
INSERT
  8
51
  2
RECT
 10
28.2575
 20
12.0650
 30
0.0000
 41
0.4064
 42
0.8636
 43
1.0000
 50
0.0000
  0
INSERT
  8
35
  2
RECT
 10
28.8925
 20
12.0650
 30
0.0000
 41
0.3998
 42
0.8002
 43
1.0000
 50
0.0000
  0
INSERT
  8
1
  2
RECT
 10
28.0425
 20
12.0650
 30
0.0000
 41
1.0000
 42
1.1000
 43
1.0000
 50
0.0000
  0
INSERT
  8
31
  2
RECT
 10
28.0425
 20
12.0650
 30
0.0000
 41
1.0000
 42
1.1000
 43
1.0000
 50
0.0000
  0
INSERT
  8
1
  2
RECT
 10
29.7425
 20
12.0650
 30
0.0000
 41
1.0000
 42
1.1000
 43
1.0000
 50
0.0000
  0
INSERT
  8
31
  2
RECT
 10
29.7425
 20
12.0650
 30
0.0000
 41
1.0000
 42
1.1000
 43
1.0000
 50
0.0000
  0
LINE
  8
25
 10
27.6606
 20
12.7381
 30
0.0000
 11
27.6606
 21
13.4753
 31
0.0000
  0
LINE
  8
25
 10
27.6606
 20
13.4753
 30
0.0000
 11
28.0292
 21
13.4753
 31
0.0000
  0
LINE
  8
25
 10
28.0292
 20
13.4753
 30
0.0000
 11
28.1521
 21
13.3525
 31
0.0000
  0
LINE
  8
25
 10
28.1521
 20
13.3525
 30
0.0000
 11
28.1521
 21
13.1067
 31
0.0000
  0
LINE
  8
25
 10
28.1521
 20
13.1067
 30
0.0000
 11
28.0292
 21
12.9838
 31
0.0000
  0
LINE
  8
25
 10
28.0292
 20
12.9838
 30
0.0000
 11
27.6606
 21
12.9838
 31
0.0000
  0
LINE
  8
25
 10
27.9063
 20
12.9838
 30
0.0000
 11
28.1521
 21
12.7381
 31
0.0000
  0
LINE
  8
25
 10
28.9005
 20
12.7381
 30
0.0000
 11
28.4090
 21
12.7381
 31
0.0000
  0
LINE
  8
25
 10
28.4090
 20
12.7381
 30
0.0000
 11
28.9005
 21
13.2296
 31
0.0000
  0
LINE
  8
25
 10
28.9005
 20
13.2296
 30
0.0000
 11
28.9005
 21
13.3525
 31
0.0000
  0
LINE
  8
25
 10
28.9005
 20
13.3525
 30
0.0000
 11
28.7776
 21
13.4753
 31
0.0000
  0
LINE
  8
25
 10
28.7776
 20
13.4753
 30
0.0000
 11
28.5319
 21
13.4753
 31
0.0000
  0
LINE
  8
25
 10
28.5319
 20
13.4753
 30
0.0000
 11
28.4090
 21
13.3525
 31
0.0000
  0
LINE
  8
25
 10
29.6489
 20
12.7381
 30
0.0000
 11
29.1574
 21
12.7381
 31
0.0000
  0
LINE
  8
25
 10
29.1574
 20
12.7381
 30
0.0000
 11
29.6489
 21
13.2296
 31
0.0000
  0
LINE
  8
25
 10
29.6489
 20
13.2296
 30
0.0000
 11
29.6489
 21
13.3525
 31
0.0000
  0
LINE
  8
25
 10
29.6489
 20
13.3525
 30
0.0000
 11
29.5260
 21
13.4753
 31
0.0000
  0
LINE
  8
25
 10
29.5260
 20
13.4753
 30
0.0000
 11
29.2803
 21
13.4753
 31
0.0000
  0
LINE
  8
25
 10
29.2803
 20
13.4753
 30
0.0000
 11
29.1574
 21
13.3525
 31
0.0000
  0
POINT
  8
23
 10
11.4300
 20
3.8100
 30
0.0000
  0
LINE
  8
51
 10
10.9980
 20
3.4540
 30
0.0000
 11
11.8620
 21
3.4540
 31
0.0000
  0
LINE
  8
51
 10
11.8620
 20
4.1660
 30
0.0000
 11
10.9980
 21
4.1660
 31
0.0000
  0
LINE
  8
39
 10
9.9570
 20
4.7930
 30
0.0000
 11
12.9030
 21
4.7930
 31
0.0000
  0
LINE
  8
39
 10
12.9030
 20
4.7930
 30
0.0000
 11
12.9030
 21
2.8270
 31
0.0000
  0
LINE
  8
39
 10
12.9030
 20
2.8270
 30
0.0000
 11
9.9570
 21
2.8270
 31
0.0000
  0
LINE
  8
39
 10
9.9570
 20
2.8270
 30
0.0000
 11
9.9570
 21
4.7930
 31
0.0000
  0
INSERT
  8
51
  2
RECT
 10
12.0650
 20
3.8100
 30
0.0000
 41
0.4064
 42
0.8636
 43
1.0000
 50
0.0000
  0
INSERT
  8
51
  2
RECT
 10
10.7950
 20
3.8100
 30
0.0000
 41
0.4064
 42
0.8636
 43
1.0000
 50
0.0000
  0
INSERT
  8
35
  2
RECT
 10
11.4300
 20
3.8100
 30
0.0000
 41
0.3998
 42
0.8002
 43
1.0000
 50
0.0000
  0
INSERT
  8
1
  2
RECT
 10
10.5800
 20
3.8100
 30
0.0000
 41
1.0000
 42
1.1000
 43
1.0000
 50
0.0000
  0
INSERT
  8
31
  2
RECT
 10
10.5800
 20
3.8100
 30
0.0000
 41
1.0000
 42
1.1000
 43
1.0000
 50
0.0000
  0
INSERT
  8
1
  2
RECT
 10
12.2800
 20
3.8100
 30
0.0000
 41
1.0000
 42
1.1000
 43
1.0000
 50
0.0000
  0
INSERT
  8
31
  2
RECT
 10
12.2800
 20
3.8100
 30
0.0000
 41
1.0000
 42
1.1000
 43
1.0000
 50
0.0000
  0
LINE
  8
25
 10
10.1981
 20
4.4831
 30
0.0000
 11
10.1981
 21
5.2203
 31
0.0000
  0
LINE
  8
25
 10
10.1981
 20
5.2203
 30
0.0000
 11
10.5667
 21
5.2203
 31
0.0000
  0
LINE
  8
25
 10
10.5667
 20
5.2203
 30
0.0000
 11
10.6896
 21
5.0975
 31
0.0000
  0
LINE
  8
25
 10
10.6896
 20
5.0975
 30
0.0000
 11
10.6896
 21
4.8517
 31
0.0000
  0
LINE
  8
25
 10
10.6896
 20
4.8517
 30
0.0000
 11
10.5667
 21
4.7288
 31
0.0000
  0
LINE
  8
25
 10
10.5667
 20
4.7288
 30
0.0000
 11
10.1981
 21
4.7288
 31
0.0000
  0
LINE
  8
25
 10
10.4438
 20
4.7288
 30
0.0000
 11
10.6896
 21
4.4831
 31
0.0000
  0
LINE
  8
25
 10
11.4380
 20
4.4831
 30
0.0000
 11
10.9465
 21
4.4831
 31
0.0000
  0
LINE
  8
25
 10
10.9465
 20
4.4831
 30
0.0000
 11
11.4380
 21
4.9746
 31
0.0000
  0
LINE
  8
25
 10
11.4380
 20
4.9746
 30
0.0000
 11
11.4380
 21
5.0975
 31
0.0000
  0
LINE
  8
25
 10
11.4380
 20
5.0975
 30
0.0000
 11
11.3151
 21
5.2203
 31
0.0000
  0
LINE
  8
25
 10
11.3151
 20
5.2203
 30
0.0000
 11
11.0694
 21
5.2203
 31
0.0000
  0
LINE
  8
25
 10
11.0694
 20
5.2203
 30
0.0000
 11
10.9465
 21
5.0975
 31
0.0000
  0
LINE
  8
25
 10
12.1864
 20
5.2203
 30
0.0000
 11
11.6949
 21
5.2203
 31
0.0000
  0
LINE
  8
25
 10
11.6949
 20
5.2203
 30
0.0000
 11
11.6949
 21
4.8517
 31
0.0000
  0
LINE
  8
25
 10
11.6949
 20
4.8517
 30
0.0000
 11
11.9407
 21
4.9746
 31
0.0000
  0
LINE
  8
25
 10
11.9407
 20
4.9746
 30
0.0000
 11
12.0635
 21
4.9746
 31
0.0000
  0
LINE
  8
25
 10
12.0635
 20
4.9746
 30
0.0000
 11
12.1864
 21
4.8517
 31
0.0000
  0
LINE
  8
25
 10
12.1864
 20
4.8517
 30
0.0000
 11
12.1864
 21
4.6060
 31
0.0000
  0
LINE
  8
25
 10
12.1864
 20
4.6060
 30
0.0000
 11
12.0635
 21
4.4831
 31
0.0000
  0
LINE
  8
25
 10
12.0635
 20
4.4831
 30
0.0000
 11
11.8178
 21
4.4831
 31
0.0000
  0
LINE
  8
25
 10
11.8178
 20
4.4831
 30
0.0000
 11
11.6949
 21
4.6060
 31
0.0000
  0
POINT
  8
23
 10
11.4300
 20
16.5100
 30
0.0000
  0
LINE
  8
51
 10
11.7860
 20
16.0780
 30
0.0000
 11
11.7860
 21
16.9420
 31
0.0000
  0
LINE
  8
51
 10
11.0740
 20
16.9420
 30
0.0000
 11
11.0740
 21
16.0780
 31
0.0000
  0
LINE
  8
39
 10
10.4470
 20
15.0370
 30
0.0000
 11
10.4470
 21
17.9830
 31
0.0000
  0
LINE
  8
39
 10
10.4470
 20
17.9830
 30
0.0000
 11
12.4130
 21
17.9830
 31
0.0000
  0
LINE
  8
39
 10
12.4130
 20
17.9830
 30
0.0000
 11
12.4130
 21
15.0370
 31
0.0000
  0
LINE
  8
39
 10
12.4130
 20
15.0370
 30
0.0000
 11
10.4470
 21
15.0370
 31
0.0000
  0
INSERT
  8
51
  2
RECT
 10
11.4300
 20
17.1450
 30
0.0000
 41
0.4064
 42
0.8636
 43
1.0000
 50
90.0000
  0
INSERT
  8
51
  2
RECT
 10
11.4300
 20
15.8750
 30
0.0000
 41
0.4064
 42
0.8636
 43
1.0000
 50
90.0000
  0
INSERT
  8
35
  2
RECT
 10
11.4300
 20
16.5100
 30
0.0000
 41
0.3998
 42
0.8002
 43
1.0000
 50
90.0000
  0
INSERT
  8
1
  2
RECT
 10
11.4300
 20
15.6600
 30
0.0000
 41
1.0000
 42
1.1000
 43
1.0000
 50
90.0000
  0
INSERT
  8
31
  2
RECT
 10
11.4300
 20
15.6600
 30
0.0000
 41
1.0000
 42
1.1000
 43
1.0000
 50
90.0000
  0
INSERT
  8
1
  2
RECT
 10
11.4300
 20
17.3600
 30
0.0000
 41
1.0000
 42
1.1000
 43
1.0000
 50
90.0000
  0
INSERT
  8
31
  2
RECT
 10
11.4300
 20
17.3600
 30
0.0000
 41
1.0000
 42
1.1000
 43
1.0000
 50
90.0000
  0
LINE
  8
25
 10
10.7569
 20
15.2781
 30
0.0000
 11
10.0197
 21
15.2781
 31
0.0000
  0
LINE
  8
25
 10
10.0197
 20
15.2781
 30
0.0000
 11
10.0197
 21
15.6467
 31
0.0000
  0
LINE
  8
25
 10
10.0197
 20
15.6467
 30
0.0000
 11
10.1425
 21
15.7696
 31
0.0000
  0
LINE
  8
25
 10
10.1425
 20
15.7696
 30
0.0000
 11
10.3883
 21
15.7696
 31
0.0000
  0
LINE
  8
25
 10
10.3883
 20
15.7696
 30
0.0000
 11
10.5112
 21
15.6467
 31
0.0000
  0
LINE
  8
25
 10
10.5112
 20
15.6467
 30
0.0000
 11
10.5112
 21
15.2781
 31
0.0000
  0
LINE
  8
25
 10
10.5112
 20
15.5238
 30
0.0000
 11
10.7569
 21
15.7696
 31
0.0000
  0
LINE
  8
25
 10
10.7569
 20
16.5180
 30
0.0000
 11
10.7569
 21
16.0265
 31
0.0000
  0
LINE
  8
25
 10
10.7569
 20
16.0265
 30
0.0000
 11
10.2654
 21
16.5180
 31
0.0000
  0
LINE
  8
25
 10
10.2654
 20
16.5180
 30
0.0000
 11
10.1425
 21
16.5180
 31
0.0000
  0
LINE
  8
25
 10
10.1425
 20
16.5180
 30
0.0000
 11
10.0197
 21
16.3951
 31
0.0000
  0
LINE
  8
25
 10
10.0197
 20
16.3951
 30
0.0000
 11
10.0197
 21
16.1494
 31
0.0000
  0
LINE
  8
25
 10
10.0197
 20
16.1494
 30
0.0000
 11
10.1425
 21
16.0265
 31
0.0000
  0
LINE
  8
25
 10
10.0197
 20
17.2664
 30
0.0000
 11
10.1425
 21
17.0207
 31
0.0000
  0
LINE
  8
25
 10
10.1425
 20
17.0207
 30
0.0000
 11
10.3883
 21
16.7749
 31
0.0000
  0
LINE
  8
25
 10
10.3883
 20
16.7749
 30
0.0000
 11
10.6340
 21
16.7749
 31
0.0000
  0
LINE
  8
25
 10
10.6340
 20
16.7749
 30
0.0000
 11
10.7569
 21
16.8978
 31
0.0000
  0
LINE
  8
25
 10
10.7569
 20
16.8978
 30
0.0000
 11
10.7569
 21
17.1435
 31
0.0000
  0
LINE
  8
25
 10
10.7569
 20
17.1435
 30
0.0000
 11
10.6340
 21
17.2664
 31
0.0000
  0
LINE
  8
25
 10
10.6340
 20
17.2664
 30
0.0000
 11
10.5112
 21
17.2664
 31
0.0000
  0
LINE
  8
25
 10
10.5112
 20
17.2664
 30
0.0000
 11
10.3883
 21
17.1435
 31
0.0000
  0
LINE
  8
25
 10
10.3883
 20
17.1435
 30
0.0000
 11
10.3883
 21
16.7749
 31
0.0000
  0
POINT
  8
23
 10
16.5100
 20
11.1125
 30
0.0000
  0
LINE
  8
21
 10
18.9100
 20
13.0125
 30
0.0000
 11
18.9100
 21
9.7125
 31
0.0000
  0
LINE
  8
21
 10
18.9100
 20
9.7125
 30
0.0000
 11
18.9100
 21
9.2125
 31
0.0000
  0
LINE
  8
51
 10
18.9100
 20
9.2125
 30
0.0000
 11
14.1100
 21
9.2125
 31
0.0000
  0
LINE
  8
21
 10
14.1100
 20
9.2125
 30
0.0000
 11
14.1100
 21
9.7125
 31
0.0000
  0
LINE
  8
21
 10
14.1100
 20
9.7125
 30
0.0000
 11
14.1100
 21
13.0125
 31
0.0000
  0
LINE
  8
51
 10
14.1100
 20
13.0125
 30
0.0000
 11
18.9100
 21
13.0125
 31
0.0000
  0
LINE
  8
21
 10
18.9100
 20
9.7125
 30
0.0000
 11
14.1100
 21
9.7125
 31
0.0000
  0
INSERT
  8
51
  2
RECT
 10
14.6050
 20
8.5625
 30
0.0000
 41
0.4900
 42
1.1000
 43
1.0000
 50
0.0000
  0
INSERT
  8
51
  2
RECT
 10
15.8750
 20
8.5625
 30
0.0000
 41
0.4900
 42
1.1000
 43
1.0000
 50
0.0000
  0
INSERT
  8
51
  2
RECT
 10
17.1450
 20
8.5625
 30
0.0000
 41
0.4900
 42
1.1000
 43
1.0000
 50
0.0000
  0
INSERT
  8
51
  2
RECT
 10
18.4150
 20
8.5625
 30
0.0000
 41
0.4900
 42
1.1000
 43
1.0000
 50
0.0000
  0
INSERT
  8
51
  2
RECT
 10
18.4150
 20
13.6625
 30
0.0000
 41
0.4900
 42
1.1000
 43
1.0000
 50
0.0000
  0
INSERT
  8
51
  2
RECT
 10
17.1450
 20
13.6625
 30
0.0000
 41
0.4900
 42
1.1000
 43
1.0000
 50
0.0000
  0
INSERT
  8
51
  2
RECT
 10
15.8750
 20
13.6625
 30
0.0000
 41
0.4900
 42
1.1000
 43
1.0000
 50
0.0000
  0
INSERT
  8
51
  2
RECT
 10
14.6050
 20
13.6625
 30
0.0000
 41
0.4900
 42
1.1000
 43
1.0000
 50
0.0000
  0
INSERT
  8
1
  2
RECT
 10
14.6050
 20
8.3625
 30
0.0000
 41
0.6000
 42
1.5000
 43
1.0000
 50
0.0000
  0
INSERT
  8
31
  2
RECT
 10
14.6050
 20
8.3625
 30
0.0000
 41
0.6000
 42
1.5000
 43
1.0000
 50
0.0000
  0
INSERT
  8
1
  2
RECT
 10
15.8750
 20
8.3625
 30
0.0000
 41
0.6000
 42
1.5000
 43
1.0000
 50
0.0000
  0
INSERT
  8
31
  2
RECT
 10
15.8750
 20
8.3625
 30
0.0000
 41
0.6000
 42
1.5000
 43
1.0000
 50
0.0000
  0
INSERT
  8
1
  2
RECT
 10
17.1450
 20
8.3625
 30
0.0000
 41
0.6000
 42
1.5000
 43
1.0000
 50
0.0000
  0
INSERT
  8
31
  2
RECT
 10
17.1450
 20
8.3625
 30
0.0000
 41
0.6000
 42
1.5000
 43
1.0000
 50
0.0000
  0
INSERT
  8
1
  2
RECT
 10
18.4150
 20
8.3625
 30
0.0000
 41
0.6000
 42
1.5000
 43
1.0000
 50
0.0000
  0
INSERT
  8
31
  2
RECT
 10
18.4150
 20
8.3625
 30
0.0000
 41
0.6000
 42
1.5000
 43
1.0000
 50
0.0000
  0
INSERT
  8
1
  2
RECT
 10
18.4150
 20
13.8625
 30
0.0000
 41
0.6000
 42
1.5000
 43
1.0000
 50
0.0000
  0
INSERT
  8
31
  2
RECT
 10
18.4150
 20
13.8625
 30
0.0000
 41
0.6000
 42
1.5000
 43
1.0000
 50
0.0000
  0
INSERT
  8
1
  2
RECT
 10
17.1450
 20
13.8625
 30
0.0000
 41
0.6000
 42
1.5000
 43
1.0000
 50
0.0000
  0
INSERT
  8
31
  2
RECT
 10
17.1450
 20
13.8625
 30
0.0000
 41
0.6000
 42
1.5000
 43
1.0000
 50
0.0000
  0
INSERT
  8
1
  2
RECT
 10
15.8750
 20
13.8625
 30
0.0000
 41
0.6000
 42
1.5000
 43
1.0000
 50
0.0000
  0
INSERT
  8
31
  2
RECT
 10
15.8750
 20
13.8625
 30
0.0000
 41
0.6000
 42
1.5000
 43
1.0000
 50
0.0000
  0
INSERT
  8
1
  2
RECT
 10
14.6050
 20
13.8625
 30
0.0000
 41
0.6000
 42
1.5000
 43
1.0000
 50
0.0000
  0
INSERT
  8
31
  2
RECT
 10
14.6050
 20
13.8625
 30
0.0000
 41
0.6000
 42
1.5000
 43
1.0000
 50
0.0000
  0
LINE
  8
25
 10
13.0677
 20
9.2456
 30
0.0000
 11
13.6820
 21
9.2456
 31
0.0000
  0
LINE
  8
25
 10
13.6820
 20
9.2456
 30
0.0000
 11
13.8049
 21
9.3685
 31
0.0000
  0
LINE
  8
25
 10
13.8049
 20
9.3685
 30
0.0000
 11
13.8049
 21
9.6142
 31
0.0000
  0
LINE
  8
25
 10
13.8049
 20
9.6142
 30
0.0000
 11
13.6820
 21
9.7371
 31
0.0000
  0
LINE
  8
25
 10
13.6820
 20
9.7371
 30
0.0000
 11
13.0677
 21
9.7371
 31
0.0000
  0
LINE
  8
25
 10
13.8049
 20
10.4855
 30
0.0000
 11
13.8049
 21
9.9940
 31
0.0000
  0
LINE
  8
25
 10
13.8049
 20
9.9940
 30
0.0000
 11
13.3134
 21
10.4855
 31
0.0000
  0
LINE
  8
25
 10
13.3134
 20
10.4855
 30
0.0000
 11
13.1905
 21
10.4855
 31
0.0000
  0
LINE
  8
25
 10
13.1905
 20
10.4855
 30
0.0000
 11
13.0677
 21
10.3626
 31
0.0000
  0
LINE
  8
25
 10
13.0677
 20
10.3626
 30
0.0000
 11
13.0677
 21
10.1169
 31
0.0000
  0
LINE
  8
25
 10
13.0677
 20
10.1169
 30
0.0000
 11
13.1905
 21
9.9940
 31
0.0000
  0
POINT
  8
24
 10
27.6225
 20
7.6200
 30
0.0000
  0
LINE
  8
22
 10
28.1225
 20
8.9200
 30
0.0000
 11
28.1225
 21
8.1200
 31
0.0000
  0
LINE
  8
22
 10
28.1225
 20
7.1200
 30
0.0000
 11
28.1225
 21
6.7200
 31
0.0000
  0
LINE
  8
22
 10
28.1225
 20
6.7200
 30
0.0000
 11
31.1225
 21
6.7200
 31
0.0000
  0
LINE
  8
22
 10
31.1225
 20
6.7200
 30
0.0000
 11
31.1225
 21
7.1200
 31
0.0000
  0
LINE
  8
22
 10
31.1225
 20
8.1200
 30
0.0000
 11
31.1225
 21
8.9200
 31
0.0000
  0
LINE
  8
22
 10
31.1225
 20
9.9200
 30
0.0000
 11
31.1225
 21
10.3200
 31
0.0000
  0
LINE
  8
22
 10
31.1225
 20
10.3200
 30
0.0000
 11
28.5225
 21
10.3200
 31
0.0000
  0
LINE
  8
22
 10
28.5225
 20
10.3200
 30
0.0000
 11
28.1225
 21
9.9200
 31
0.0000
  0
INSERT
  8
16
  2
RECT
 10
27.6225
 20
9.4200
 30
0.0000
 41
1.6600
 42
0.7900
 43
1.0000
 50
0.0000
  0
INSERT
  8
32
  2
RECT
 10
27.6225
 20
9.4200
 30
0.0000
 41
1.6600
 42
0.7900
 43
1.0000
 50
0.0000
  0
INSERT
  8
16
  2
RECT
 10
31.6225
 20
9.4200
 30
0.0000
 41
1.6600
 42
0.7900
 43
1.0000
 50
0.0000
  0
INSERT
  8
32
  2
RECT
 10
31.6225
 20
9.4200
 30
0.0000
 41
1.6600
 42
0.7900
 43
1.0000
 50
0.0000
  0
INSERT
  8
16
  2
RECT
 10
31.6325
 20
7.6200
 30
0.0000
 41
1.6600
 42
0.7900
 43
1.0000
 50
0.0000
  0
INSERT
  8
32
  2
RECT
 10
31.6325
 20
7.6200
 30
0.0000
 41
1.6600
 42
0.7900
 43
1.0000
 50
0.0000
  0
INSERT
  8
16
  2
RECT
 10
27.6225
 20
7.6200
 30
0.0000
 41
1.6600
 42
0.7900
 43
1.0000
 50
0.0000
  0
INSERT
  8
32
  2
RECT
 10
27.6225
 20
7.6200
 30
0.0000
 41
1.6600
 42
0.7900
 43
1.0000
 50
0.0000
  0
LINE
  8
25
 10
29.7244
 20
6.5503
 30
0.0000
 11
29.7244
 21
5.9360
 31
0.0000
  0
LINE
  8
25
 10
29.7244
 20
5.9360
 30
0.0000
 11
29.8472
 21
5.8131
 31
0.0000
  0
LINE
  8
25
 10
29.8472
 20
5.8131
 30
0.0000
 11
30.0930
 21
5.8131
 31
0.0000
  0
LINE
  8
25
 10
30.0930
 20
5.8131
 30
0.0000
 11
30.2158
 21
5.9360
 31
0.0000
  0
LINE
  8
25
 10
30.2158
 20
5.9360
 30
0.0000
 11
30.2158
 21
6.5503
 31
0.0000
  0
LINE
  8
25
 10
30.4728
 20
6.4275
 30
0.0000
 11
30.5956
 21
6.5503
 31
0.0000
  0
LINE
  8
25
 10
30.5956
 20
6.5503
 30
0.0000
 11
30.8414
 21
6.5503
 31
0.0000
  0
LINE
  8
25
 10
30.8414
 20
6.5503
 30
0.0000
 11
30.9642
 21
6.4275
 31
0.0000
  0
LINE
  8
25
 10
30.9642
 20
6.4275
 30
0.0000
 11
30.9642
 21
6.3046
 31
0.0000
  0
LINE
  8
25
 10
30.9642
 20
6.3046
 30
0.0000
 11
30.8414
 21
6.1817
 31
0.0000
  0
LINE
  8
25
 10
30.8414
 20
6.1817
 30
0.0000
 11
30.7185
 21
6.1817
 31
0.0000
  0
LINE
  8
25
 10
30.8414
 20
6.1817
 30
0.0000
 11
30.9642
 21
6.0588
 31
0.0000
  0
LINE
  8
25
 10
30.9642
 20
6.0588
 30
0.0000
 11
30.9642
 21
5.9360
 31
0.0000
  0
LINE
  8
25
 10
30.9642
 20
5.9360
 30
0.0000
 11
30.8414
 21
5.8131
 31
0.0000
  0
LINE
  8
25
 10
30.8414
 20
5.8131
 30
0.0000
 11
30.5956
 21
5.8131
 31
0.0000
  0
LINE
  8
25
 10
30.5956
 20
5.8131
 30
0.0000
 11
30.4728
 21
5.9360
 31
0.0000
  0
POINT
  8
24
 10
27.6225
 20
12.0650
 30
0.0000
  0
LINE
  8
22
 10
28.1225
 20
13.3650
 30
0.0000
 11
28.1225
 21
12.5650
 31
0.0000
  0
LINE
  8
22
 10
28.1225
 20
11.5650
 30
0.0000
 11
28.1225
 21
11.1650
 31
0.0000
  0
LINE
  8
22
 10
28.1225
 20
11.1650
 30
0.0000
 11
31.1225
 21
11.1650
 31
0.0000
  0
LINE
  8
22
 10
31.1225
 20
11.1650
 30
0.0000
 11
31.1225
 21
11.5650
 31
0.0000
  0
LINE
  8
22
 10
31.1225
 20
12.5650
 30
0.0000
 11
31.1225
 21
13.3650
 31
0.0000
  0
LINE
  8
22
 10
31.1225
 20
14.3650
 30
0.0000
 11
31.1225
 21
14.7650
 31
0.0000
  0
LINE
  8
22
 10
31.1225
 20
14.7650
 30
0.0000
 11
28.5225
 21
14.7650
 31
0.0000
  0
LINE
  8
22
 10
28.5225
 20
14.7650
 30
0.0000
 11
28.1225
 21
14.3650
 31
0.0000
  0
INSERT
  8
16
  2
RECT
 10
27.6225
 20
13.8650
 30
0.0000
 41
1.6600
 42
0.7900
 43
1.0000
 50
0.0000
  0
INSERT
  8
32
  2
RECT
 10
27.6225
 20
13.8650
 30
0.0000
 41
1.6600
 42
0.7900
 43
1.0000
 50
0.0000
  0
INSERT
  8
16
  2
RECT
 10
31.6225
 20
13.8650
 30
0.0000
 41
1.6600
 42
0.7900
 43
1.0000
 50
0.0000
  0
INSERT
  8
32
  2
RECT
 10
31.6225
 20
13.8650
 30
0.0000
 41
1.6600
 42
0.7900
 43
1.0000
 50
0.0000
  0
INSERT
  8
16
  2
RECT
 10
31.6325
 20
12.0650
 30
0.0000
 41
1.6600
 42
0.7900
 43
1.0000
 50
0.0000
  0
INSERT
  8
32
  2
RECT
 10
31.6325
 20
12.0650
 30
0.0000
 41
1.6600
 42
0.7900
 43
1.0000
 50
0.0000
  0
INSERT
  8
16
  2
RECT
 10
27.6225
 20
12.0650
 30
0.0000
 41
1.6600
 42
0.7900
 43
1.0000
 50
0.0000
  0
INSERT
  8
32
  2
RECT
 10
27.6225
 20
12.0650
 30
0.0000
 41
1.6600
 42
0.7900
 43
1.0000
 50
0.0000
  0
LINE
  8
25
 10
29.7244
 20
16.0753
 30
0.0000
 11
29.7244
 21
15.4610
 31
0.0000
  0
LINE
  8
25
 10
29.7244
 20
15.4610
 30
0.0000
 11
29.8472
 21
15.3381
 31
0.0000
  0
LINE
  8
25
 10
29.8472
 20
15.3381
 30
0.0000
 11
30.0930
 21
15.3381
 31
0.0000
  0
LINE
  8
25
 10
30.0930
 20
15.3381
 30
0.0000
 11
30.2158
 21
15.4610
 31
0.0000
  0
LINE
  8
25
 10
30.2158
 20
15.4610
 30
0.0000
 11
30.2158
 21
16.0753
 31
0.0000
  0
LINE
  8
25
 10
30.8414
 20
15.3381
 30
0.0000
 11
30.8414
 21
16.0753
 31
0.0000
  0
LINE
  8
25
 10
30.8414
 20
16.0753
 30
0.0000
 11
30.4728
 21
15.7067
 31
0.0000
  0
LINE
  8
25
 10
30.4728
 20
15.7067
 30
0.0000
 11
30.9642
 21
15.7067
 31
0.0000
  0
LINE
  8
16
 10
0.0000
 20
0.0000
 30
0.0000
 11
0.0000
 21
21.5900
 31
0.0000
  0
LINE
  8
16
 10
0.0000
 20
21.5900
 30
0.0000
 11
33.3375
 21
21.5900
 31
0.0000
  0
LINE
  8
16
 10
33.3375
 20
21.5900
 30
0.0000
 11
33.3375
 21
0.0000
 31
0.0000
  0
LINE
  8
16
 10
33.3375
 20
0.0000
 30
0.0000
 11
0.0000
 21
0.0000
 31
0.0000
  0
LINE
  8
1
 10
27.2025
 20
16.5100
 30
0.0000
 11
28.4163
 21
16.5100
 31
0.0000
  0
LINE
  8
1
 10
23.8125
 20
13.8675
 30
0.0000
 11
23.8125
 21
15.2400
 31
0.0000
  0
LINE
  8
1
 10
23.8125
 20
8.0400
 30
0.0000
 11
23.8125
 21
6.6675
 31
0.0000
  0
LINE
  8
1
 10
27.2025
 20
5.0800
 30
0.0000
 11
28.5750
 21
5.0800
 31
0.0000
  0
LINE
  8
1
 10
21.5900
 20
6.0325
 30
0.0000
 11
20.2175
 21
6.0325
 31
0.0000
  0
LINE
  8
1
 10
8.4138
 20
7.4613
 30
0.0000
 11
8.4138
 21
8.6750
 31
0.0000
  0
LINE
  8
1
 10
18.7325
 20
18.0975
 30
0.0000
 11
17.3600
 21
18.0975
 31
0.0000
  0
LINE
  8
1
 10
20.3200
 20
9.6275
 30
0.0000
 11
20.3200
 21
8.2550
 31
0.0000
  0
LINE
  8
1
 10
18.4150
 20
8.3625
 30
0.0000
 11
18.5225
 21
8.2550
 31
0.0000
  0
LINE
  8
1
 10
18.5225
 20
8.2550
 30
0.0000
 11
19.3675
 21
8.2550
 31
0.0000
  0
LINE
  8
1
 10
7.5175
 20
1.5875
 30
0.0000
 11
8.8900
 21
1.5875
 31
0.0000
  0
LINE
  8
1
 10
21.1700
 20
15.8750
 30
0.0000
 11
21.2725
 21
15.7725
 31
0.0000
  0
LINE
  8
1
 10
21.2725
 20
15.7725
 30
0.0000
 11
21.2725
 21
14.6050
 31
0.0000
  0
LINE
  8
1
 10
15.7725
 20
3.8100
 30
0.0000
 11
17.1450
 21
3.8100
 31
0.0000
  0
LINE
  8
1
 10
8.8900
 20
20.0025
 30
0.0000
 11
7.5175
 21
20.0025
 31
0.0000
  0
LINE
  8
1
 10
13.6525
 20
17.3600
 30
0.0000
 11
13.6525
 21
18.7325
 31
0.0000
  0
LINE
  8
1
 10
23.6513
 20
3.4925
 30
0.0000
 11
25.0825
 21
3.4925
 31
0.0000
  0
INSERT
  8
18
  2
ROUNDV
 10
28.4163
 20
16.5100
 30
0.0000
 41
0.9064
 42
0.9064
 43
1.0000
 50
0.0000
  0
INSERT
  8
18
  2
ROUNDV
 10
28.4163
 20
16.5100
 30
0.0000
 41
0.9064
 42
0.9064
 43
1.0000
 50
0.0000
  0
CIRCLE
  8
44
 10
28.4163
 20
16.5100
 30
0.0000
 40
0.2500
  0
INSERT
  8
18
  2
ROUNDV
 10
23.8125
 20
15.2400
 30
0.0000
 41
0.9064
 42
0.9064
 43
1.0000
 50
0.0000
  0
INSERT
  8
18
  2
ROUNDV
 10
23.8125
 20
15.2400
 30
0.0000
 41
0.9064
 42
0.9064
 43
1.0000
 50
0.0000
  0
CIRCLE
  8
44
 10
23.8125
 20
15.2400
 30
0.0000
 40
0.2500
  0
INSERT
  8
18
  2
ROUNDV
 10
23.8125
 20
6.6675
 30
0.0000
 41
0.9064
 42
0.9064
 43
1.0000
 50
0.0000
  0
INSERT
  8
18
  2
ROUNDV
 10
23.8125
 20
6.6675
 30
0.0000
 41
0.9064
 42
0.9064
 43
1.0000
 50
0.0000
  0
CIRCLE
  8
44
 10
23.8125
 20
6.6675
 30
0.0000
 40
0.2500
  0
INSERT
  8
18
  2
ROUNDV
 10
28.5750
 20
5.0800
 30
0.0000
 41
0.9064
 42
0.9064
 43
1.0000
 50
0.0000
  0
INSERT
  8
18
  2
ROUNDV
 10
28.5750
 20
5.0800
 30
0.0000
 41
0.9064
 42
0.9064
 43
1.0000
 50
0.0000
  0
CIRCLE
  8
44
 10
28.5750
 20
5.0800
 30
0.0000
 40
0.2500
  0
INSERT
  8
18
  2
ROUNDV
 10
21.5900
 20
6.0325
 30
0.0000
 41
0.9064
 42
0.9064
 43
1.0000
 50
0.0000
  0
INSERT
  8
18
  2
ROUNDV
 10
21.5900
 20
6.0325
 30
0.0000
 41
0.9064
 42
0.9064
 43
1.0000
 50
0.0000
  0
CIRCLE
  8
44
 10
21.5900
 20
6.0325
 30
0.0000
 40
0.2500
  0
INSERT
  8
18
  2
ROUNDV
 10
21.2725
 20
14.6050
 30
0.0000
 41
0.9064
 42
0.9064
 43
1.0000
 50
0.0000
  0
INSERT
  8
18
  2
ROUNDV
 10
21.2725
 20
14.6050
 30
0.0000
 41
0.9064
 42
0.9064
 43
1.0000
 50
0.0000
  0
CIRCLE
  8
44
 10
21.2725
 20
14.6050
 30
0.0000
 40
0.2500
  0
INSERT
  8
18
  2
ROUNDV
 10
13.6525
 20
18.7325
 30
0.0000
 41
0.9064
 42
0.9064
 43
1.0000
 50
0.0000
  0
INSERT
  8
18
  2
ROUNDV
 10
13.6525
 20
18.7325
 30
0.0000
 41
0.9064
 42
0.9064
 43
1.0000
 50
0.0000
  0
CIRCLE
  8
44
 10
13.6525
 20
18.7325
 30
0.0000
 40
0.2500
  0
INSERT
  8
18
  2
ROUNDV
 10
8.4138
 20
7.4613
 30
0.0000
 41
0.9064
 42
0.9064
 43
1.0000
 50
0.0000
  0
INSERT
  8
18
  2
ROUNDV
 10
8.4138
 20
7.4613
 30
0.0000
 41
0.9064
 42
0.9064
 43
1.0000
 50
0.0000
  0
CIRCLE
  8
44
 10
8.4138
 20
7.4613
 30
0.0000
 40
0.2500
  0
INSERT
  8
18
  2
ROUNDV
 10
18.7325
 20
18.0975
 30
0.0000
 41
0.9064
 42
0.9064
 43
1.0000
 50
0.0000
  0
INSERT
  8
18
  2
ROUNDV
 10
18.7325
 20
18.0975
 30
0.0000
 41
0.9064
 42
0.9064
 43
1.0000
 50
0.0000
  0
CIRCLE
  8
44
 10
18.7325
 20
18.0975
 30
0.0000
 40
0.2500
  0
INSERT
  8
18
  2
ROUNDV
 10
19.3675
 20
8.2550
 30
0.0000
 41
0.9064
 42
0.9064
 43
1.0000
 50
0.0000
  0
INSERT
  8
18
  2
ROUNDV
 10
19.3675
 20
8.2550
 30
0.0000
 41
0.9064
 42
0.9064
 43
1.0000
 50
0.0000
  0
CIRCLE
  8
44
 10
19.3675
 20
8.2550
 30
0.0000
 40
0.2500
  0
INSERT
  8
18
  2
ROUNDV
 10
20.3200
 20
8.2550
 30
0.0000
 41
0.9064
 42
0.9064
 43
1.0000
 50
0.0000
  0
INSERT
  8
18
  2
ROUNDV
 10
20.3200
 20
8.2550
 30
0.0000
 41
0.9064
 42
0.9064
 43
1.0000
 50
0.0000
  0
CIRCLE
  8
44
 10
20.3200
 20
8.2550
 30
0.0000
 40
0.2500
  0
INSERT
  8
18
  2
ROUNDV
 10
20.3200
 20
14.6050
 30
0.0000
 41
0.9064
 42
0.9064
 43
1.0000
 50
0.0000
  0
INSERT
  8
18
  2
ROUNDV
 10
20.3200
 20
14.6050
 30
0.0000
 41
0.9064
 42
0.9064
 43
1.0000
 50
0.0000
  0
CIRCLE
  8
44
 10
20.3200
 20
14.6050
 30
0.0000
 40
0.2500
  0
INSERT
  8
18
  2
ROUNDV
 10
22.8600
 20
15.2400
 30
0.0000
 41
0.9064
 42
0.9064
 43
1.0000
 50
0.0000
  0
INSERT
  8
18
  2
ROUNDV
 10
22.8600
 20
15.2400
 30
0.0000
 41
0.9064
 42
0.9064
 43
1.0000
 50
0.0000
  0
CIRCLE
  8
44
 10
22.8600
 20
15.2400
 30
0.0000
 40
0.2500
  0
INSERT
  8
18
  2
ROUNDV
 10
21.5900
 20
6.9850
 30
0.0000
 41
0.9064
 42
0.9064
 43
1.0000
 50
0.0000
  0
INSERT
  8
18
  2
ROUNDV
 10
21.5900
 20
6.9850
 30
0.0000
 41
0.9064
 42
0.9064
 43
1.0000
 50
0.0000
  0
CIRCLE
  8
44
 10
21.5900
 20
6.9850
 30
0.0000
 40
0.2500
  0
INSERT
  8
18
  2
ROUNDV
 10
22.8600
 20
6.6675
 30
0.0000
 41
0.9064
 42
0.9064
 43
1.0000
 50
0.0000
  0
INSERT
  8
18
  2
ROUNDV
 10
22.8600
 20
6.6675
 30
0.0000
 41
0.9064
 42
0.9064
 43
1.0000
 50
0.0000
  0
CIRCLE
  8
44
 10
22.8600
 20
6.6675
 30
0.0000
 40
0.2500
  0
INSERT
  8
18
  2
ROUNDV
 10
7.4613
 20
7.4613
 30
0.0000
 41
0.9064
 42
0.9064
 43
1.0000
 50
0.0000
  0
INSERT
  8
18
  2
ROUNDV
 10
7.4613
 20
7.4613
 30
0.0000
 41
0.9064
 42
0.9064
 43
1.0000
 50
0.0000
  0
CIRCLE
  8
44
 10
7.4613
 20
7.4613
 30
0.0000
 40
0.2500
  0
INSERT
  8
18
  2
ROUNDV
 10
12.7000
 20
18.8912
 30
0.0000
 41
0.9064
 42
0.9064
 43
1.0000
 50
0.0000
  0
INSERT
  8
18
  2
ROUNDV
 10
12.7000
 20
18.8912
 30
0.0000
 41
0.9064
 42
0.9064
 43
1.0000
 50
0.0000
  0
CIRCLE
  8
44
 10
12.7000
 20
18.8912
 30
0.0000
 40
0.2500
  0
INSERT
  8
18
  2
ROUNDV
 10
18.7325
 20
19.0500
 30
0.0000
 41
0.9064
 42
0.9064
 43
1.0000
 50
0.0000
  0
INSERT
  8
18
  2
ROUNDV
 10
18.7325
 20
19.0500
 30
0.0000
 41
0.9064
 42
0.9064
 43
1.0000
 50
0.0000
  0
CIRCLE
  8
44
 10
18.7325
 20
19.0500
 30
0.0000
 40
0.2500
  0
INSERT
  8
18
  2
ROUNDV
 10
29.3688
 20
16.1925
 30
0.0000
 41
0.9064
 42
0.9064
 43
1.0000
 50
0.0000
  0
INSERT
  8
18
  2
ROUNDV
 10
29.3688
 20
16.1925
 30
0.0000
 41
0.9064
 42
0.9064
 43
1.0000
 50
0.0000
  0
CIRCLE
  8
44
 10
29.3688
 20
16.1925
 30
0.0000
 40
0.2500
  0
INSERT
  8
18
  2
ROUNDV
 10
21.2725
 20
8.2550
 30
0.0000
 41
0.9064
 42
0.9064
 43
1.0000
 50
0.0000
  0
INSERT
  8
18
  2
ROUNDV
 10
21.2725
 20
8.2550
 30
0.0000
 41
0.9064
 42
0.9064
 43
1.0000
 50
0.0000
  0
CIRCLE
  8
44
 10
21.2725
 20
8.2550
 30
0.0000
 40
0.2500
  0
INSERT
  8
18
  2
ROUNDV
 10
25.7175
 20
13.1763
 30
0.0000
 41
0.9064
 42
0.9064
 43
1.0000
 50
0.0000
  0
INSERT
  8
18
  2
ROUNDV
 10
25.7175
 20
13.1763
 30
0.0000
 41
0.9064
 42
0.9064
 43
1.0000
 50
0.0000
  0
CIRCLE
  8
44
 10
25.7175
 20
13.1763
 30
0.0000
 40
0.2500
  0
INSERT
  8
18
  2
ROUNDV
 10
25.7175
 20
8.7313
 30
0.0000
 41
0.9064
 42
0.9064
 43
1.0000
 50
0.0000
  0
INSERT
  8
18
  2
ROUNDV
 10
25.7175
 20
8.7313
 30
0.0000
 41
0.9064
 42
0.9064
 43
1.0000
 50
0.0000
  0
CIRCLE
  8
44
 10
25.7175
 20
8.7313
 30
0.0000
 40
0.2500
  0
INSERT
  8
18
  2
ROUNDV
 10
24.7650
 20
6.6675
 30
0.0000
 41
0.9064
 42
0.9064
 43
1.0000
 50
0.0000
  0
INSERT
  8
18
  2
ROUNDV
 10
24.7650
 20
6.6675
 30
0.0000
 41
0.9064
 42
0.9064
 43
1.0000
 50
0.0000
  0
CIRCLE
  8
44
 10
24.7650
 20
6.6675
 30
0.0000
 40
0.2500
  0
INSERT
  8
18
  2
ROUNDV
 10
8.8900
 20
1.5875
 30
0.0000
 41
0.9064
 42
0.9064
 43
1.0000
 50
0.0000
  0
INSERT
  8
18
  2
ROUNDV
 10
8.8900
 20
1.5875
 30
0.0000
 41
0.9064
 42
0.9064
 43
1.0000
 50
0.0000
  0
CIRCLE
  8
44
 10
8.8900
 20
1.5875
 30
0.0000
 40
0.2500
  0
INSERT
  8
18
  2
ROUNDV
 10
8.8900
 20
2.5400
 30
0.0000
 41
0.9064
 42
0.9064
 43
1.0000
 50
0.0000
  0
INSERT
  8
18
  2
ROUNDV
 10
8.8900
 20
2.5400
 30
0.0000
 41
0.9064
 42
0.9064
 43
1.0000
 50
0.0000
  0
CIRCLE
  8
44
 10
8.8900
 20
2.5400
 30
0.0000
 40
0.2500
  0
INSERT
  8
18
  2
ROUNDV
 10
8.8900
 20
20.0025
 30
0.0000
 41
0.9064
 42
0.9064
 43
1.0000
 50
0.0000
  0
INSERT
  8
18
  2
ROUNDV
 10
8.8900
 20
20.0025
 30
0.0000
 41
0.9064
 42
0.9064
 43
1.0000
 50
0.0000
  0
CIRCLE
  8
44
 10
8.8900
 20
20.0025
 30
0.0000
 40
0.2500
  0
INSERT
  8
18
  2
ROUNDV
 10
8.8900
 20
19.0500
 30
0.0000
 41
0.9064
 42
0.9064
 43
1.0000
 50
0.0000
  0
INSERT
  8
18
  2
ROUNDV
 10
8.8900
 20
19.0500
 30
0.0000
 41
0.9064
 42
0.9064
 43
1.0000
 50
0.0000
  0
CIRCLE
  8
44
 10
8.8900
 20
19.0500
 30
0.0000
 40
0.2500
  0
INSERT
  8
18
  2
ROUNDV
 10
17.1450
 20
3.8100
 30
0.0000
 41
0.9064
 42
0.9064
 43
1.0000
 50
0.0000
  0
INSERT
  8
18
  2
ROUNDV
 10
17.1450
 20
3.8100
 30
0.0000
 41
0.9064
 42
0.9064
 43
1.0000
 50
0.0000
  0
CIRCLE
  8
44
 10
17.1450
 20
3.8100
 30
0.0000
 40
0.2500
  0
INSERT
  8
18
  2
ROUNDV
 10
17.1450
 20
2.8575
 30
0.0000
 41
0.9064
 42
0.9064
 43
1.0000
 50
0.0000
  0
INSERT
  8
18
  2
ROUNDV
 10
17.1450
 20
2.8575
 30
0.0000
 41
0.9064
 42
0.9064
 43
1.0000
 50
0.0000
  0
CIRCLE
  8
44
 10
17.1450
 20
2.8575
 30
0.0000
 40
0.2500
  0
INSERT
  8
18
  2
ROUNDV
 10
25.0825
 20
3.4925
 30
0.0000
 41
0.9064
 42
0.9064
 43
1.0000
 50
0.0000
  0
INSERT
  8
18
  2
ROUNDV
 10
25.0825
 20
3.4925
 30
0.0000
 41
0.9064
 42
0.9064
 43
1.0000
 50
0.0000
  0
CIRCLE
  8
44
 10
25.0825
 20
3.4925
 30
0.0000
 40
0.2500
  0
INSERT
  8
18
  2
ROUNDV
 10
25.0825
 20
2.5400
 30
0.0000
 41
0.9064
 42
0.9064
 43
1.0000
 50
0.0000
  0
INSERT
  8
18
  2
ROUNDV
 10
25.0825
 20
2.5400
 30
0.0000
 41
0.9064
 42
0.9064
 43
1.0000
 50
0.0000
  0
CIRCLE
  8
44
 10
25.0825
 20
2.5400
 30
0.0000
 40
0.2500
  0
INSERT
  8
18
  2
ROUNDV
 10
29.3688
 20
5.7150
 30
0.0000
 41
0.9064
 42
0.9064
 43
1.0000
 50
0.0000
  0
INSERT
  8
18
  2
ROUNDV
 10
29.3688
 20
5.7150
 30
0.0000
 41
0.9064
 42
0.9064
 43
1.0000
 50
0.0000
  0
CIRCLE
  8
44
 10
29.3688
 20
5.7150
 30
0.0000
 40
0.2500
  0
INSERT
  8
18
  2
ROUNDV
 10
8.7313
 20
14.9225
 30
0.0000
 41
0.9064
 42
0.9064
 43
1.0000
 50
0.0000
  0
INSERT
  8
18
  2
ROUNDV
 10
8.7313
 20
14.9225
 30
0.0000
 41
0.9064
 42
0.9064
 43
1.0000
 50
0.0000
  0
CIRCLE
  8
44
 10
8.7313
 20
14.9225
 30
0.0000
 40
0.2500
  0
INSERT
  8
18
  2
ROUNDV
 10
8.4138
 20
16.6687
 30
0.0000
 41
0.9064
 42
0.9064
 43
1.0000
 50
0.0000
  0
INSERT
  8
18
  2
ROUNDV
 10
8.4138
 20
16.6687
 30
0.0000
 41
0.9064
 42
0.9064
 43
1.0000
 50
0.0000
  0
CIRCLE
  8
44
 10
8.4138
 20
16.6687
 30
0.0000
 40
0.2500
  0
INSERT
  8
18
  2
ROUNDV
 10
6.0325
 20
16.5100
 30
0.0000
 41
0.9064
 42
0.9064
 43
1.0000
 50
0.0000
  0
INSERT
  8
18
  2
ROUNDV
 10
6.0325
 20
16.5100
 30
0.0000
 41
0.9064
 42
0.9064
 43
1.0000
 50
0.0000
  0
CIRCLE
  8
44
 10
6.0325
 20
16.5100
 30
0.0000
 40
0.2500
  0
INSERT
  8
18
  2
ROUNDV
 10
22.3838
 20
11.2713
 30
0.0000
 41
0.9064
 42
0.9064
 43
1.0000
 50
0.0000
  0
INSERT
  8
18
  2
ROUNDV
 10
22.3838
 20
11.2713
 30
0.0000
 41
0.9064
 42
0.9064
 43
1.0000
 50
0.0000
  0
CIRCLE
  8
44
 10
22.3838
 20
11.2713
 30
0.0000
 40
0.2500
  0
INSERT
  8
18
  2
ROUNDV
 10
6.6675
 20
5.8738
 30
0.0000
 41
0.9064
 42
0.9064
 43
1.0000
 50
0.0000
  0
INSERT
  8
18
  2
ROUNDV
 10
6.6675
 20
5.8738
 30
0.0000
 41
0.9064
 42
0.9064
 43
1.0000
 50
0.0000
  0
CIRCLE
  8
44
 10
6.6675
 20
5.8738
 30
0.0000
 40
0.2500
  0
INSERT
  8
18
  2
ROUNDV
 10
9.3663
 20
4.9213
 30
0.0000
 41
0.9064
 42
0.9064
 43
1.0000
 50
0.0000
  0
INSERT
  8
18
  2
ROUNDV
 10
9.3663
 20
4.9213
 30
0.0000
 41
0.9064
 42
0.9064
 43
1.0000
 50
0.0000
  0
CIRCLE
  8
44
 10
9.3663
 20
4.9213
 30
0.0000
 40
0.2500
  0
INSERT
  8
18
  2
ROUNDV
 10
17.6212
 20
11.4300
 30
0.0000
 41
0.9064
 42
0.9064
 43
1.0000
 50
0.0000
  0
INSERT
  8
18
  2
ROUNDV
 10
17.6212
 20
11.4300
 30
0.0000
 41
0.9064
 42
0.9064
 43
1.0000
 50
0.0000
  0
CIRCLE
  8
44
 10
17.6212
 20
11.4300
 30
0.0000
 40
0.2500
  0
INSERT
  8
18
  2
ROUNDV
 10
5.8738
 20
9.5250
 30
0.0000
 41
0.9064
 42
0.9064
 43
1.0000
 50
0.0000
  0
INSERT
  8
18
  2
ROUNDV
 10
5.8738
 20
9.5250
 30
0.0000
 41
0.9064
 42
0.9064
 43
1.0000
 50
0.0000
  0
CIRCLE
  8
44
 10
5.8738
 20
9.5250
 30
0.0000
 40
0.2500
  0
INSERT
  8
18
  2
ROUNDV
 10
5.8738
 20
12.0650
 30
0.0000
 41
0.9064
 42
0.9064
 43
1.0000
 50
0.0000
  0
INSERT
  8
18
  2
ROUNDV
 10
5.8738
 20
12.0650
 30
0.0000
 41
0.9064
 42
0.9064
 43
1.0000
 50
0.0000
  0
CIRCLE
  8
44
 10
5.8738
 20
12.0650
 30
0.0000
 40
0.2500
  0
LINE
  8
1
 10
5.8175
 20
1.5875
 30
0.0000
 11
5.8175
 21
3.6513
 31
0.0000
  0
LINE
  8
1
 10
5.8175
 20
3.6513
 30
0.0000
 11
5.8175
 21
4.9213
 31
0.0000
  0
LINE
  8
16
 10
5.8175
 20
4.9213
 30
0.0000
 11
2.8575
 21
4.9213
 31
0.0000
  0
LINE
  8
16
 10
2.8575
 20
4.9213
 30
0.0000
 11
1.9050
 21
5.7150
 31
0.0000
  0
LINE
  8
16
 10
1.9050
 20
5.7150
 30
0.0000
 11
1.9050
 21
8.5725
 31
0.0000
  0
LINE
  8
16
 10
1.9050
 20
8.5725
 30
0.0000
 11
2.8575
 21
9.5250
 31
0.0000
  0
LINE
  8
16
 10
2.8575
 20
9.5250
 30
0.0000
 11
4.1275
 21
9.5250
 31
0.0000
  0
INSERT
  8
18
  2
ROUNDV
 10
5.8175
 20
4.9213
 30
0.0000
 41
0.9064
 42
0.9064
 43
1.0000
 50
0.0000
  0
INSERT
  8
18
  2
ROUNDV
 10
5.8175
 20
4.9213
 30
0.0000
 41
0.9064
 42
0.9064
 43
1.0000
 50
0.0000
  0
CIRCLE
  8
44
 10
5.8175
 20
4.9213
 30
0.0000
 40
0.2500
  0
LINE
  8
1
 10
5.8175
 20
20.0025
 30
0.0000
 11
5.8175
 21
17.7800
 31
0.0000
  0
LINE
  8
1
 10
5.8175
 20
17.7800
 30
0.0000
 11
4.8650
 21
16.8275
 31
0.0000
  0
LINE
  8
16
 10
4.8650
 20
16.8275
 30
0.0000
 11
2.8575
 21
16.8275
 31
0.0000
  0
LINE
  8
16
 10
2.8575
 20
16.8275
 30
0.0000
 11
1.9050
 21
15.8750
 31
0.0000
  0
LINE
  8
16
 10
1.9050
 20
15.8750
 30
0.0000
 11
1.9050
 21
13.0175
 31
0.0000
  0
LINE
  8
16
 10
1.9050
 20
13.0175
 30
0.0000
 11
2.8575
 21
12.0650
 31
0.0000
  0
LINE
  8
16
 10
2.8575
 20
12.0650
 30
0.0000
 11
4.1275
 21
12.0650
 31
0.0000
  0
INSERT
  8
18
  2
ROUNDV
 10
4.8650
 20
16.8275
 30
0.0000
 41
0.9064
 42
0.9064
 43
1.0000
 50
0.0000
  0
INSERT
  8
18
  2
ROUNDV
 10
4.8650
 20
16.8275
 30
0.0000
 41
0.9064
 42
0.9064
 43
1.0000
 50
0.0000
  0
CIRCLE
  8
44
 10
4.8650
 20
16.8275
 30
0.0000
 40
0.2500
  0
LINE
  8
1
 10
21.7513
 20
3.4925
 30
0.0000
 11
20.7963
 21
3.4925
 31
0.0000
  0
LINE
  8
1
 10
20.7963
 20
3.4925
 30
0.0000
 11
20.2638
 21
4.0250
 31
0.0000
  0
LINE
  8
1
 10
20.2638
 20
4.0250
 30
0.0000
 11
19.3675
 21
4.0250
 31
0.0000
  0
LINE
  8
1
 10
15.7725
 20
6.0325
 30
0.0000
 11
17.1450
 21
6.0325
 31
0.0000
  0
LINE
  8
1
 10
17.1450
 20
6.0325
 30
0.0000
 11
18.5175
 21
6.0325
 31
0.0000
  0
LINE
  8
1
 10
17.1450
 20
8.3625
 30
0.0000
 11
17.1450
 21
6.0325
 31
0.0000
  0
LINE
  8
1
 10
17.1450
 20
8.3625
 30
0.0000
 11
17.1450
 21
9.2075
 31
0.0000
  0
LINE
  8
1
 10
17.1450
 20
9.2075
 30
0.0000
 11
16.6125
 21
9.7400
 31
0.0000
  0
LINE
  8
1
 10
16.6125
 20
9.7400
 30
0.0000
 11
12.0650
 21
9.7400
 31
0.0000
  0
LINE
  8
1
 10
14.6050
 20
8.3625
 30
0.0000
 11
14.6000
 21
8.0400
 31
0.0000
  0
LINE
  8
1
 10
14.6000
 20
8.0400
 30
0.0000
 11
12.0650
 21
8.0400
 31
0.0000
  0
LINE
  8
1
 10
12.0650
 20
8.0400
 30
0.0000
 11
11.9625
 21
8.2550
 31
0.0000
  0
LINE
  8
1
 10
10.5800
 20
6.0325
 30
0.0000
 11
10.5800
 21
3.8100
 31
0.0000
  0
LINE
  8
1
 10
11.9625
 20
8.2550
 30
0.0000
 11
11.7475
 21
8.0400
 31
0.0000
  0
LINE
  8
1
 10
11.7475
 20
8.0400
 30
0.0000
 11
11.3175
 21
8.0400
 31
0.0000
  0
LINE
  8
1
 10
10.5800
 20
7.3025
 30
0.0000
 11
10.5800
 21
6.0325
 31
0.0000
  0
LINE
  8
1
 10
10.5800
 20
7.3025
 30
0.0000
 11
11.3175
 21
8.0400
 31
0.0000
  0
LINE
  8
1
 10
11.7475
 20
8.0400
 30
0.0000
 11
12.0650
 21
8.0400
 31
0.0000
  0
LINE
  8
1
 10
7.5175
 20
3.6513
 30
0.0000
 11
7.6200
 21
3.9125
 31
0.0000
  0
LINE
  8
1
 10
7.6200
 20
3.9125
 30
0.0000
 11
7.6200
 21
4.9213
 31
0.0000
  0
LINE
  8
1
 10
9.2075
 20
6.0325
 30
0.0000
 11
10.5800
 21
6.0325
 31
0.0000
  0
LINE
  8
16
 10
7.6200
 20
4.9213
 30
0.0000
 11
7.6200
 21
5.7150
 31
0.0000
  0
LINE
  8
16
 10
7.6200
 20
5.7150
 30
0.0000
 11
7.9375
 21
6.0325
 31
0.0000
  0
LINE
  8
16
 10
7.9375
 20
6.0325
 30
0.0000
 11
9.2075
 21
6.0325
 31
0.0000
  0
INSERT
  8
18
  2
ROUNDV
 10
7.6200
 20
4.9213
 30
0.0000
 41
0.9064
 42
0.9064
 43
1.0000
 50
0.0000
  0
INSERT
  8
18
  2
ROUNDV
 10
7.6200
 20
4.9213
 30
0.0000
 41
0.9064
 42
0.9064
 43
1.0000
 50
0.0000
  0
CIRCLE
  8
44
 10
7.6200
 20
4.9213
 30
0.0000
 40
0.2500
  0
INSERT
  8
18
  2
ROUNDV
 10
9.2075
 20
6.0325
 30
0.0000
 41
0.9064
 42
0.9064
 43
1.0000
 50
0.0000
  0
INSERT
  8
18
  2
ROUNDV
 10
9.2075
 20
6.0325
 30
0.0000
 41
0.9064
 42
0.9064
 43
1.0000
 50
0.0000
  0
CIRCLE
  8
44
 10
9.2075
 20
6.0325
 30
0.0000
 40
0.2500
  0
LINE
  8
16
 10
27.6225
 20
9.4200
 30
0.0000
 11
27.2000
 21
9.8425
 31
0.0000
  0
LINE
  8
16
 10
27.2000
 20
9.8425
 30
0.0000
 11
25.7175
 21
9.8425
 31
0.0000
  0
LINE
  8
1
 10
28.0425
 20
9.8425
 30
0.0000
 11
25.7175
 21
9.8425
 31
0.0000
  0
LINE
  8
1
 10
25.7175
 20
9.8425
 30
0.0000
 11
25.6150
 21
9.7400
 31
0.0000
  0
LINE
  8
1
 10
25.6150
 20
9.7400
 30
0.0000
 11
23.8125
 21
9.7400
 31
0.0000
  0
INSERT
  8
18
  2
ROUNDV
 10
25.7175
 20
9.8425
 30
0.0000
 41
0.9064
 42
0.9064
 43
1.0000
 50
0.0000
  0
INSERT
  8
18
  2
ROUNDV
 10
25.7175
 20
9.8425
 30
0.0000
 41
0.9064
 42
0.9064
 43
1.0000
 50
0.0000
  0
CIRCLE
  8
44
 10
25.7175
 20
9.8425
 30
0.0000
 40
0.2500
  0
LINE
  8
1
 10
19.4700
 20
15.8750
 30
0.0000
 11
18.4150
 21
15.8750
 31
0.0000
  0
LINE
  8
1
 10
18.4150
 20
15.8750
 30
0.0000
 11
17.3600
 21
15.8750
 31
0.0000
  0
LINE
  8
1
 10
18.4150
 20
13.8625
 30
0.0000
 11
18.4150
 21
15.8750
 31
0.0000
  0
LINE
  8
1
 10
17.3600
 20
15.8750
 30
0.0000
 11
16.5100
 21
15.0250
 31
0.0000
  0
LINE
  8
1
 10
16.5100
 20
15.0250
 30
0.0000
 11
16.5100
 21
12.8588
 31
0.0000
  0
LINE
  8
1
 10
16.5100
 20
12.8588
 30
0.0000
 11
15.8188
 21
12.1675
 31
0.0000
  0
LINE
  8
1
 10
15.8188
 20
12.1675
 30
0.0000
 11
12.0650
 21
12.1675
 31
0.0000
  0
LINE
  8
1
 10
15.8750
 20
13.8625
 30
0.0000
 11
15.8750
 21
13.0175
 31
0.0000
  0
LINE
  8
1
 10
15.8750
 20
13.0175
 30
0.0000
 11
15.5575
 21
12.7000
 31
0.0000
  0
LINE
  8
1
 10
12.0650
 20
13.8675
 30
0.0000
 11
9.8425
 21
13.8675
 31
0.0000
  0
LINE
  8
1
 10
15.5575
 20
12.7000
 30
0.0000
 11
13.9700
 21
12.7000
 31
0.0000
  0
LINE
  8
1
 10
13.9700
 20
12.7000
 30
0.0000
 11
12.8025
 21
13.8675
 31
0.0000
  0
LINE
  8
1
 10
12.8025
 20
13.8675
 30
0.0000
 11
12.0650
 21
13.8675
 31
0.0000
  0
LINE
  8
1
 10
9.8425
 20
13.8675
 30
0.0000
 11
9.8425
 21
15.2400
 31
0.0000
  0
LINE
  8
1
 10
9.8425
 20
15.2400
 30
0.0000
 11
10.2625
 21
15.6600
 31
0.0000
  0
LINE
  8
1
 10
10.2625
 20
15.6600
 30
0.0000
 11
11.4300
 21
15.6600
 31
0.0000
  0
LINE
  8
16
 10
9.8425
 20
15.2400
 30
0.0000
 11
9.8425
 21
16.8275
 31
0.0000
  0
LINE
  8
16
 10
9.8425
 20
16.8275
 30
0.0000
 11
8.8900
 21
17.7800
 31
0.0000
  0
LINE
  8
1
 10
8.8900
 20
17.7800
 30
0.0000
 11
7.5175
 21
17.7800
 31
0.0000
  0
INSERT
  8
18
  2
ROUNDV
 10
9.8425
 20
15.2400
 30
0.0000
 41
0.9064
 42
0.9064
 43
1.0000
 50
0.0000
  0
INSERT
  8
18
  2
ROUNDV
 10
9.8425
 20
15.2400
 30
0.0000
 41
0.9064
 42
0.9064
 43
1.0000
 50
0.0000
  0
CIRCLE
  8
44
 10
9.8425
 20
15.2400
 30
0.0000
 40
0.2500
  0
INSERT
  8
18
  2
ROUNDV
 10
8.8900
 20
17.7800
 30
0.0000
 41
0.9064
 42
0.9064
 43
1.0000
 50
0.0000
  0
INSERT
  8
18
  2
ROUNDV
 10
8.8900
 20
17.7800
 30
0.0000
 41
0.9064
 42
0.9064
 43
1.0000
 50
0.0000
  0
CIRCLE
  8
44
 10
8.8900
 20
17.7800
 30
0.0000
 40
0.2500
  0
LINE
  8
16
 10
27.6225
 20
13.8650
 30
0.0000
 11
27.2000
 21
14.2875
 31
0.0000
  0
LINE
  8
16
 10
27.2000
 20
14.2875
 30
0.0000
 11
25.7175
 21
14.2875
 31
0.0000
  0
LINE
  8
1
 10
28.0425
 20
14.2875
 30
0.0000
 11
25.7175
 21
14.2875
 31
0.0000
  0
LINE
  8
1
 10
25.5025
 20
16.5100
 30
0.0000
 11
25.7175
 21
16.2950
 31
0.0000
  0
LINE
  8
1
 10
25.7175
 20
16.2950
 30
0.0000
 11
25.7175
 21
14.2875
 31
0.0000
  0
INSERT
  8
18
  2
ROUNDV
 10
25.7175
 20
14.2875
 30
0.0000
 41
0.9064
 42
0.9064
 43
1.0000
 50
0.0000
  0
INSERT
  8
18
  2
ROUNDV
 10
25.7175
 20
14.2875
 30
0.0000
 41
0.9064
 42
0.9064
 43
1.0000
 50
0.0000
  0
CIRCLE
  8
44
 10
25.7175
 20
14.2875
 30
0.0000
 40
0.2500
  0
LINE
  8
1
 10
0.0000
 20
21.5900
 30
0.0000
 11
33.3375
 21
21.5900
 31
0.0000
  0
LINE
  8
1
 10
33.3375
 20
21.5900
 30
0.0000
 11
33.3375
 21
0.0000
 31
0.0000
  0
LINE
  8
1
 10
33.3375
 20
0.0000
 30
0.0000
 11
0.0000
 21
0.0000
 31
0.0000
  0
LINE
  8
1
 10
0.0000
 20
0.0000
 30
0.0000
 11
0.0000
 21
21.5900
 31
0.0000
  0
LINE
  8
1
 10
14.2875
 20
14.6050
 30
0.0000
 11
14.2875
 21
15.2400
 31
0.0000
  0
LINE
  8
1
 10
14.2875
 20
15.2400
 30
0.0000
 11
14.9225
 21
15.2400
 31
0.0000
  0
LINE
  8
1
 10
14.9225
 20
15.2400
 30
0.0000
 11
14.9225
 21
13.9700
 31
0.0000
  0
LINE
  8
1
 10
14.9225
 20
13.9700
 30
0.0000
 11
14.2875
 21
13.9700
 31
0.0000
  0
LINE
  8
1
 10
14.2875
 20
13.9700
 30
0.0000
 11
14.2875
 21
14.6050
 31
0.0000
  0
LINE
  8
16
 10
31.6325
 20
7.6200
 30
0.0000
 11
30.6800
 21
6.6675
 31
0.0000
  0
LINE
  8
16
 10
30.6800
 20
6.6675
 30
0.0000
 11
26.3525
 21
6.6675
 31
0.0000
  0
LINE
  8
16
 10
26.3525
 20
6.6675
 30
0.0000
 11
25.7175
 21
7.3025
 31
0.0000
  0
LINE
  8
16
 10
25.7175
 20
7.3025
 30
0.0000
 11
25.7175
 21
7.6200
 31
0.0000
  0
LINE
  8
1
 10
28.0425
 20
7.6200
 30
0.0000
 11
25.7175
 21
7.6200
 31
0.0000
  0
LINE
  8
1
 10
25.5025
 20
5.0800
 30
0.0000
 11
15.2400
 21
5.0800
 31
0.0000
  0
LINE
  8
1
 10
15.2400
 20
5.0800
 30
0.0000
 11
14.9225
 21
5.3975
 31
0.0000
  0
LINE
  8
1
 10
14.9225
 20
5.3975
 30
0.0000
 11
14.9225
 21
6.9850
 31
0.0000
  0
LINE
  8
1
 10
14.9225
 20
6.9850
 30
0.0000
 11
15.8750
 21
7.9375
 31
0.0000
  0
LINE
  8
1
 10
15.8750
 20
7.9375
 30
0.0000
 11
15.8750
 21
8.3625
 31
0.0000
  0
LINE
  8
1
 10
14.9225
 20
6.9850
 30
0.0000
 11
12.7000
 21
6.9850
 31
0.0000
  0
LINE
  8
1
 10
12.7000
 20
6.9850
 30
0.0000
 11
12.2800
 21
6.5650
 31
0.0000
  0
LINE
  8
1
 10
12.2800
 20
6.5650
 30
0.0000
 11
12.2800
 21
6.0325
 31
0.0000
  0
LINE
  8
1
 10
25.5025
 20
5.0800
 30
0.0000
 11
25.7175
 21
5.2950
 31
0.0000
  0
LINE
  8
1
 10
25.7175
 20
5.2950
 30
0.0000
 11
25.7175
 21
7.6200
 31
0.0000
  0
INSERT
  8
18
  2
ROUNDV
 10
25.7175
 20
7.6200
 30
0.0000
 41
0.9064
 42
0.9064
 43
1.0000
 50
0.0000
  0
INSERT
  8
18
  2
ROUNDV
 10
25.7175
 20
7.6200
 30
0.0000
 41
0.9064
 42
0.9064
 43
1.0000
 50
0.0000
  0
CIRCLE
  8
44
 10
25.7175
 20
7.6200
 30
0.0000
 40
0.2500
  0
LINE
  8
16
 10
31.6325
 20
12.0650
 30
0.0000
 11
30.6800
 21
11.1125
 31
0.0000
  0
LINE
  8
16
 10
30.6800
 20
11.1125
 30
0.0000
 11
26.3525
 21
11.1125
 31
0.0000
  0
LINE
  8
16
 10
26.3525
 20
11.1125
 30
0.0000
 11
25.7175
 21
11.7475
 31
0.0000
  0
LINE
  8
16
 10
25.7175
 20
11.7475
 30
0.0000
 11
25.7175
 21
12.0650
 31
0.0000
  0
LINE
  8
1
 10
28.0425
 20
12.0650
 30
0.0000
 11
25.7175
 21
12.0650
 31
0.0000
  0
LINE
  8
1
 10
17.1450
 20
12.3825
 30
0.0000
 11
17.1450
 21
13.8625
 31
0.0000
  0
LINE
  8
1
 10
17.1450
 20
12.3825
 30
0.0000
 11
16.0338
 21
11.2713
 31
0.0000
  0
LINE
  8
1
 10
16.0338
 20
11.2713
 30
0.0000
 11
10.3187
 21
11.2713
 31
0.0000
  0
LINE
  8
1
 10
10.3187
 20
11.2713
 30
0.0000
 11
9.8425
 21
11.7475
 31
0.0000
  0
LINE
  8
1
 10
9.8425
 20
11.7475
 30
0.0000
 11
9.8425
 21
12.1675
 31
0.0000
  0
LINE
  8
1
 10
25.7175
 20
12.0650
 30
0.0000
 11
25.6150
 21
12.1675
 31
0.0000
  0
LINE
  8
1
 10
25.6150
 20
12.1675
 30
0.0000
 11
23.8125
 21
12.1675
 31
0.0000
  0
LINE
  8
16
 10
22.3275
 20
12.3825
 30
0.0000
 11
17.1450
 21
12.3825
 31
0.0000
  0
LINE
  8
1
 10
23.8125
 20
12.1675
 30
0.0000
 11
23.5975
 21
12.3825
 31
0.0000
  0
LINE
  8
1
 10
23.5975
 20
12.3825
 30
0.0000
 11
22.3275
 21
12.3825
 31
0.0000
  0
INSERT
  8
18
  2
ROUNDV
 10
25.7175
 20
12.0650
 30
0.0000
 41
0.9064
 42
0.9064
 43
1.0000
 50
0.0000
  0
INSERT
  8
18
  2
ROUNDV
 10
25.7175
 20
12.0650
 30
0.0000
 41
0.9064
 42
0.9064
 43
1.0000
 50
0.0000
  0
CIRCLE
  8
44
 10
25.7175
 20
12.0650
 30
0.0000
 40
0.2500
  0
INSERT
  8
18
  2
ROUNDV
 10
22.3275
 20
12.3825
 30
0.0000
 41
0.9064
 42
0.9064
 43
1.0000
 50
0.0000
  0
INSERT
  8
18
  2
ROUNDV
 10
22.3275
 20
12.3825
 30
0.0000
 41
0.9064
 42
0.9064
 43
1.0000
 50
0.0000
  0
CIRCLE
  8
44
 10
22.3275
 20
12.3825
 30
0.0000
 40
0.2500
  0
INSERT
  8
18
  2
ROUNDV
 10
17.1450
 20
12.3825
 30
0.0000
 41
0.9064
 42
0.9064
 43
1.0000
 50
0.0000
  0
INSERT
  8
18
  2
ROUNDV
 10
17.1450
 20
12.3825
 30
0.0000
 41
0.9064
 42
0.9064
 43
1.0000
 50
0.0000
  0
CIRCLE
  8
44
 10
17.1450
 20
12.3825
 30
0.0000
 40
0.2500
  0
ENDSEC
  0
EOF
